<?xml version="1.0" encoding="utf-8"?>
<svg xmlns="http://www.w3.org/2000/svg" xmlns:xlink="http://www.w3.org/1999/xlink" width="800" height="450" viewBox="0 0 3200 1800">
<defs>
  <clipPath id="clip490">
    <rect x="0" y="0" width="3200" height="1800"/>
  </clipPath>
</defs>
<path clip-path="url(#clip490)" d="M0 1800 L3200 1800 L3200 0 L0 0  Z" fill="#ffffff" fill-rule="evenodd" fill-opacity="1"/>
<defs>
  <clipPath id="clip491">
    <rect x="640" y="0" width="2241" height="1800"/>
  </clipPath>
</defs>
<path clip-path="url(#clip490)" d="M258.265 1634 L3152.76 1634 L3152.76 114.022 L258.265 114.022  Z" fill="#ffffff" fill-rule="evenodd" fill-opacity="1"/>
<defs>
  <clipPath id="clip492">
    <rect x="258" y="114" width="2895" height="1521"/>
  </clipPath>
</defs>
<polyline clip-path="url(#clip492)" style="stroke:#000000; stroke-linecap:round; stroke-linejoin:round; stroke-width:2; stroke-opacity:0.1; fill:none" points="340.185,1634 340.185,114.022 "/>
<polyline clip-path="url(#clip492)" style="stroke:#000000; stroke-linecap:round; stroke-linejoin:round; stroke-width:2; stroke-opacity:0.1; fill:none" points="919.941,1634 919.941,114.022 "/>
<polyline clip-path="url(#clip492)" style="stroke:#000000; stroke-linecap:round; stroke-linejoin:round; stroke-width:2; stroke-opacity:0.1; fill:none" points="1499.7,1634 1499.7,114.022 "/>
<polyline clip-path="url(#clip492)" style="stroke:#000000; stroke-linecap:round; stroke-linejoin:round; stroke-width:2; stroke-opacity:0.1; fill:none" points="2079.45,1634 2079.45,114.022 "/>
<polyline clip-path="url(#clip492)" style="stroke:#000000; stroke-linecap:round; stroke-linejoin:round; stroke-width:2; stroke-opacity:0.1; fill:none" points="2659.21,1634 2659.21,114.022 "/>
<polyline clip-path="url(#clip490)" style="stroke:#000000; stroke-linecap:round; stroke-linejoin:round; stroke-width:4; stroke-opacity:1; fill:none" points="258.265,1634 3152.76,1634 "/>
<polyline clip-path="url(#clip490)" style="stroke:#000000; stroke-linecap:round; stroke-linejoin:round; stroke-width:4; stroke-opacity:1; fill:none" points="340.185,1634 340.185,1615.11 "/>
<polyline clip-path="url(#clip490)" style="stroke:#000000; stroke-linecap:round; stroke-linejoin:round; stroke-width:4; stroke-opacity:1; fill:none" points="919.941,1634 919.941,1615.11 "/>
<polyline clip-path="url(#clip490)" style="stroke:#000000; stroke-linecap:round; stroke-linejoin:round; stroke-width:4; stroke-opacity:1; fill:none" points="1499.7,1634 1499.7,1615.11 "/>
<polyline clip-path="url(#clip490)" style="stroke:#000000; stroke-linecap:round; stroke-linejoin:round; stroke-width:4; stroke-opacity:1; fill:none" points="2079.45,1634 2079.45,1615.11 "/>
<polyline clip-path="url(#clip490)" style="stroke:#000000; stroke-linecap:round; stroke-linejoin:round; stroke-width:4; stroke-opacity:1; fill:none" points="2659.21,1634 2659.21,1615.11 "/>
<path clip-path="url(#clip490)" d="M340.185 1671.32 Q336.574 1671.32 334.745 1674.89 Q332.939 1678.43 332.939 1685.56 Q332.939 1692.67 334.745 1696.23 Q336.574 1699.77 340.185 1699.77 Q343.819 1699.77 345.624 1696.23 Q347.453 1692.67 347.453 1685.56 Q347.453 1678.43 345.624 1674.89 Q343.819 1671.32 340.185 1671.32 M340.185 1667.62 Q345.995 1667.62 349.05 1672.23 Q352.129 1676.81 352.129 1685.56 Q352.129 1694.29 349.05 1698.89 Q345.995 1703.48 340.185 1703.48 Q334.375 1703.48 331.296 1698.89 Q328.24 1694.29 328.24 1685.56 Q328.24 1676.81 331.296 1672.23 Q334.375 1667.62 340.185 1667.62 Z" fill="#000000" fill-rule="nonzero" fill-opacity="1" /><path clip-path="url(#clip490)" d="M914.594 1698.87 L930.913 1698.87 L930.913 1702.8 L908.969 1702.8 L908.969 1698.87 Q911.631 1696.12 916.214 1691.49 Q920.821 1686.83 922.001 1685.49 Q924.246 1682.97 925.126 1681.23 Q926.029 1679.47 926.029 1677.78 Q926.029 1675.03 924.084 1673.29 Q922.163 1671.56 919.061 1671.56 Q916.862 1671.56 914.409 1672.32 Q911.978 1673.08 909.2 1674.63 L909.2 1669.91 Q912.024 1668.78 914.478 1668.2 Q916.932 1667.62 918.969 1667.62 Q924.339 1667.62 927.533 1670.31 Q930.728 1672.99 930.728 1677.48 Q930.728 1679.61 929.918 1681.53 Q929.131 1683.43 927.024 1686.02 Q926.445 1686.69 923.344 1689.91 Q920.242 1693.11 914.594 1698.87 Z" fill="#000000" fill-rule="nonzero" fill-opacity="1" /><path clip-path="url(#clip490)" d="M1502.71 1672.32 L1490.9 1690.77 L1502.71 1690.77 L1502.71 1672.32 M1501.48 1668.24 L1507.36 1668.24 L1507.36 1690.77 L1512.29 1690.77 L1512.29 1694.66 L1507.36 1694.66 L1507.36 1702.8 L1502.71 1702.8 L1502.71 1694.66 L1487.1 1694.66 L1487.1 1690.14 L1501.48 1668.24 Z" fill="#000000" fill-rule="nonzero" fill-opacity="1" /><path clip-path="url(#clip490)" d="M2079.86 1683.66 Q2076.71 1683.66 2074.86 1685.81 Q2073.03 1687.97 2073.03 1691.72 Q2073.03 1695.44 2074.86 1697.62 Q2076.71 1699.77 2079.86 1699.77 Q2083.01 1699.77 2084.84 1697.62 Q2086.69 1695.44 2086.69 1691.72 Q2086.69 1687.97 2084.84 1685.81 Q2083.01 1683.66 2079.86 1683.66 M2089.14 1669.01 L2089.14 1673.27 Q2087.38 1672.43 2085.58 1671.99 Q2083.79 1671.56 2082.03 1671.56 Q2077.4 1671.56 2074.95 1674.68 Q2072.52 1677.8 2072.17 1684.12 Q2073.54 1682.11 2075.6 1681.05 Q2077.66 1679.96 2080.14 1679.96 Q2085.34 1679.96 2088.35 1683.13 Q2091.39 1686.28 2091.39 1691.72 Q2091.39 1697.04 2088.24 1700.26 Q2085.09 1703.48 2079.86 1703.48 Q2073.86 1703.48 2070.69 1698.89 Q2067.52 1694.29 2067.52 1685.56 Q2067.52 1677.37 2071.41 1672.5 Q2075.3 1667.62 2081.85 1667.62 Q2083.61 1667.62 2085.39 1667.97 Q2087.2 1668.31 2089.14 1669.01 Z" fill="#000000" fill-rule="nonzero" fill-opacity="1" /><path clip-path="url(#clip490)" d="M2659.21 1686.39 Q2655.88 1686.39 2653.95 1688.18 Q2652.06 1689.96 2652.06 1693.08 Q2652.06 1696.21 2653.95 1697.99 Q2655.88 1699.77 2659.21 1699.77 Q2662.54 1699.77 2664.46 1697.99 Q2666.39 1696.18 2666.39 1693.08 Q2666.39 1689.96 2664.46 1688.18 Q2662.57 1686.39 2659.21 1686.39 M2654.53 1684.4 Q2651.52 1683.66 2649.83 1681.6 Q2648.17 1679.54 2648.17 1676.58 Q2648.17 1672.43 2651.11 1670.03 Q2654.07 1667.62 2659.21 1667.62 Q2664.37 1667.62 2667.31 1670.03 Q2670.25 1672.43 2670.25 1676.58 Q2670.25 1679.54 2668.56 1681.6 Q2666.89 1683.66 2663.91 1684.4 Q2667.29 1685.19 2669.16 1687.48 Q2671.06 1689.77 2671.06 1693.08 Q2671.06 1698.11 2667.98 1700.79 Q2664.93 1703.48 2659.21 1703.48 Q2653.49 1703.48 2650.41 1700.79 Q2647.36 1698.11 2647.36 1693.08 Q2647.36 1689.77 2649.26 1687.48 Q2651.15 1685.19 2654.53 1684.4 M2652.82 1677.02 Q2652.82 1679.7 2654.49 1681.21 Q2656.18 1682.71 2659.21 1682.71 Q2662.22 1682.71 2663.91 1681.21 Q2665.62 1679.7 2665.62 1677.02 Q2665.62 1674.33 2663.91 1672.83 Q2662.22 1671.32 2659.21 1671.32 Q2656.18 1671.32 2654.49 1672.83 Q2652.82 1674.33 2652.82 1677.02 Z" fill="#000000" fill-rule="nonzero" fill-opacity="1" /><path clip-path="url(#clip490)" d="M1575.68 1743.35 L1615.88 1743.35 L1615.88 1748.76 L1599.01 1748.76 L1599.01 1790.87 L1592.55 1790.87 L1592.55 1748.76 L1575.68 1748.76 L1575.68 1743.35 Z" fill="#000000" fill-rule="nonzero" fill-opacity="1" /><path clip-path="url(#clip490)" d="M1619.83 1755.22 L1625.68 1755.22 L1625.68 1790.87 L1619.83 1790.87 L1619.83 1755.22 M1619.83 1741.34 L1625.68 1741.34 L1625.68 1748.76 L1619.83 1748.76 L1619.83 1741.34 Z" fill="#000000" fill-rule="nonzero" fill-opacity="1" /><path clip-path="url(#clip490)" d="M1665.69 1762.06 Q1667.89 1758.12 1670.94 1756.24 Q1674 1754.36 1678.14 1754.36 Q1683.71 1754.36 1686.73 1758.28 Q1689.76 1762.16 1689.76 1769.35 L1689.76 1790.87 L1683.87 1790.87 L1683.87 1769.54 Q1683.87 1764.42 1682.05 1761.94 Q1680.24 1759.45 1676.51 1759.45 Q1671.96 1759.45 1669.32 1762.48 Q1666.68 1765.5 1666.68 1770.72 L1666.68 1790.87 L1660.79 1790.87 L1660.79 1769.54 Q1660.79 1764.39 1658.98 1761.94 Q1657.16 1759.45 1653.38 1759.45 Q1648.89 1759.45 1646.25 1762.51 Q1643.6 1765.53 1643.6 1770.72 L1643.6 1790.87 L1637.72 1790.87 L1637.72 1755.22 L1643.6 1755.22 L1643.6 1760.76 Q1645.61 1757.48 1648.41 1755.92 Q1651.21 1754.36 1655.06 1754.36 Q1658.95 1754.36 1661.65 1756.33 Q1664.39 1758.31 1665.69 1762.06 Z" fill="#000000" fill-rule="nonzero" fill-opacity="1" /><path clip-path="url(#clip490)" d="M1731.93 1771.58 L1731.93 1774.45 L1705 1774.45 Q1705.38 1780.49 1708.63 1783.68 Q1711.91 1786.83 1717.73 1786.83 Q1721.11 1786.83 1724.26 1786 Q1727.44 1785.17 1730.56 1783.52 L1730.56 1789.05 Q1727.41 1790.39 1724.1 1791.09 Q1720.79 1791.79 1717.38 1791.79 Q1708.85 1791.79 1703.86 1786.83 Q1698.89 1781.86 1698.89 1773.39 Q1698.89 1764.64 1703.6 1759.52 Q1708.34 1754.36 1716.36 1754.36 Q1723.56 1754.36 1727.73 1759.01 Q1731.93 1763.62 1731.93 1771.58 M1726.07 1769.86 Q1726.01 1765.06 1723.37 1762.19 Q1720.76 1759.33 1716.43 1759.33 Q1711.53 1759.33 1708.57 1762.1 Q1705.64 1764.86 1705.19 1769.89 L1726.07 1769.86 Z" fill="#000000" fill-rule="nonzero" fill-opacity="1" /><path clip-path="url(#clip490)" d="M1776.33 1741.41 Q1772.06 1748.73 1770 1755.89 Q1767.93 1763.05 1767.93 1770.4 Q1767.93 1777.76 1770 1784.98 Q1772.1 1792.17 1776.33 1799.46 L1771.24 1799.46 Q1766.46 1791.98 1764.08 1784.76 Q1761.72 1777.53 1761.72 1770.4 Q1761.72 1763.31 1764.08 1756.11 Q1766.43 1748.92 1771.24 1741.41 L1776.33 1741.41 Z" fill="#000000" fill-rule="nonzero" fill-opacity="1" /><path clip-path="url(#clip490)" d="M1810.42 1756.27 L1810.42 1761.81 Q1807.93 1760.54 1805.26 1759.9 Q1802.59 1759.26 1799.72 1759.26 Q1795.36 1759.26 1793.17 1760.6 Q1791 1761.94 1791 1764.61 Q1791 1766.65 1792.56 1767.82 Q1794.12 1768.97 1798.83 1770.02 L1800.84 1770.47 Q1807.08 1771.8 1809.69 1774.25 Q1812.33 1776.67 1812.33 1781.03 Q1812.33 1786 1808.38 1788.9 Q1804.47 1791.79 1797.59 1791.79 Q1794.73 1791.79 1791.61 1791.22 Q1788.52 1790.68 1785.08 1789.56 L1785.08 1783.52 Q1788.33 1785.2 1791.48 1786.06 Q1794.63 1786.89 1797.72 1786.89 Q1801.86 1786.89 1804.08 1785.49 Q1806.31 1784.06 1806.31 1781.48 Q1806.31 1779.09 1804.69 1777.82 Q1803.1 1776.55 1797.65 1775.37 L1795.62 1774.89 Q1790.17 1773.75 1787.76 1771.39 Q1785.34 1769 1785.34 1764.86 Q1785.34 1759.84 1788.9 1757.1 Q1792.47 1754.36 1799.02 1754.36 Q1802.27 1754.36 1805.13 1754.84 Q1808 1755.32 1810.42 1756.27 Z" fill="#000000" fill-rule="nonzero" fill-opacity="1" /><path clip-path="url(#clip490)" d="M1820.73 1741.41 L1825.82 1741.41 Q1830.6 1748.92 1832.95 1756.11 Q1835.34 1763.31 1835.34 1770.4 Q1835.34 1777.53 1832.95 1784.76 Q1830.6 1791.98 1825.82 1799.46 L1820.73 1799.46 Q1824.96 1792.17 1827.03 1784.98 Q1829.13 1777.76 1829.13 1770.4 Q1829.13 1763.05 1827.03 1755.89 Q1824.96 1748.73 1820.73 1741.41 Z" fill="#000000" fill-rule="nonzero" fill-opacity="1" /><polyline clip-path="url(#clip492)" style="stroke:#000000; stroke-linecap:round; stroke-linejoin:round; stroke-width:2; stroke-opacity:0.1; fill:none" points="258.265,1472.74 3152.76,1472.74 "/>
<polyline clip-path="url(#clip492)" style="stroke:#000000; stroke-linecap:round; stroke-linejoin:round; stroke-width:2; stroke-opacity:0.1; fill:none" points="258.265,1273.22 3152.76,1273.22 "/>
<polyline clip-path="url(#clip492)" style="stroke:#000000; stroke-linecap:round; stroke-linejoin:round; stroke-width:2; stroke-opacity:0.1; fill:none" points="258.265,1073.7 3152.76,1073.7 "/>
<polyline clip-path="url(#clip492)" style="stroke:#000000; stroke-linecap:round; stroke-linejoin:round; stroke-width:2; stroke-opacity:0.1; fill:none" points="258.265,874.178 3152.76,874.178 "/>
<polyline clip-path="url(#clip492)" style="stroke:#000000; stroke-linecap:round; stroke-linejoin:round; stroke-width:2; stroke-opacity:0.1; fill:none" points="258.265,674.658 3152.76,674.658 "/>
<polyline clip-path="url(#clip492)" style="stroke:#000000; stroke-linecap:round; stroke-linejoin:round; stroke-width:2; stroke-opacity:0.1; fill:none" points="258.265,475.139 3152.76,475.139 "/>
<polyline clip-path="url(#clip492)" style="stroke:#000000; stroke-linecap:round; stroke-linejoin:round; stroke-width:2; stroke-opacity:0.1; fill:none" points="258.265,275.62 3152.76,275.62 "/>
<polyline clip-path="url(#clip490)" style="stroke:#000000; stroke-linecap:round; stroke-linejoin:round; stroke-width:4; stroke-opacity:1; fill:none" points="258.265,1634 258.265,114.022 "/>
<polyline clip-path="url(#clip490)" style="stroke:#000000; stroke-linecap:round; stroke-linejoin:round; stroke-width:4; stroke-opacity:1; fill:none" points="258.265,1472.74 277.163,1472.74 "/>
<polyline clip-path="url(#clip490)" style="stroke:#000000; stroke-linecap:round; stroke-linejoin:round; stroke-width:4; stroke-opacity:1; fill:none" points="258.265,1273.22 277.163,1273.22 "/>
<polyline clip-path="url(#clip490)" style="stroke:#000000; stroke-linecap:round; stroke-linejoin:round; stroke-width:4; stroke-opacity:1; fill:none" points="258.265,1073.7 277.163,1073.7 "/>
<polyline clip-path="url(#clip490)" style="stroke:#000000; stroke-linecap:round; stroke-linejoin:round; stroke-width:4; stroke-opacity:1; fill:none" points="258.265,874.178 277.163,874.178 "/>
<polyline clip-path="url(#clip490)" style="stroke:#000000; stroke-linecap:round; stroke-linejoin:round; stroke-width:4; stroke-opacity:1; fill:none" points="258.265,674.658 277.163,674.658 "/>
<polyline clip-path="url(#clip490)" style="stroke:#000000; stroke-linecap:round; stroke-linejoin:round; stroke-width:4; stroke-opacity:1; fill:none" points="258.265,475.139 277.163,475.139 "/>
<polyline clip-path="url(#clip490)" style="stroke:#000000; stroke-linecap:round; stroke-linejoin:round; stroke-width:4; stroke-opacity:1; fill:none" points="258.265,275.62 277.163,275.62 "/>
<path clip-path="url(#clip490)" d="M103.159 1473.19 L132.835 1473.19 L132.835 1477.12 L103.159 1477.12 L103.159 1473.19 Z" fill="#000000" fill-rule="nonzero" fill-opacity="1" /><path clip-path="url(#clip490)" d="M152.927 1458.53 Q149.316 1458.53 147.488 1462.1 Q145.682 1465.64 145.682 1472.77 Q145.682 1479.88 147.488 1483.44 Q149.316 1486.98 152.927 1486.98 Q156.562 1486.98 158.367 1483.44 Q160.196 1479.88 160.196 1472.77 Q160.196 1465.64 158.367 1462.1 Q156.562 1458.53 152.927 1458.53 M152.927 1454.83 Q158.738 1454.83 161.793 1459.44 Q164.872 1464.02 164.872 1472.77 Q164.872 1481.5 161.793 1486.1 Q158.738 1490.69 152.927 1490.69 Q147.117 1490.69 144.039 1486.1 Q140.983 1481.5 140.983 1472.77 Q140.983 1464.02 144.039 1459.44 Q147.117 1454.83 152.927 1454.83 Z" fill="#000000" fill-rule="nonzero" fill-opacity="1" /><path clip-path="url(#clip490)" d="M173.089 1484.14 L177.974 1484.14 L177.974 1490.02 L173.089 1490.02 L173.089 1484.14 Z" fill="#000000" fill-rule="nonzero" fill-opacity="1" /><path clip-path="url(#clip490)" d="M198.737 1470.87 Q195.589 1470.87 193.737 1473.03 Q191.909 1475.18 191.909 1478.93 Q191.909 1482.65 193.737 1484.83 Q195.589 1486.98 198.737 1486.98 Q201.886 1486.98 203.714 1484.83 Q205.566 1482.65 205.566 1478.93 Q205.566 1475.18 203.714 1473.03 Q201.886 1470.87 198.737 1470.87 M208.02 1456.22 L208.02 1460.48 Q206.261 1459.65 204.455 1459.21 Q202.673 1458.77 200.913 1458.77 Q196.284 1458.77 193.83 1461.89 Q191.399 1465.02 191.052 1471.34 Q192.418 1469.32 194.478 1468.26 Q196.538 1467.17 199.015 1467.17 Q204.224 1467.17 207.233 1470.34 Q210.265 1473.49 210.265 1478.93 Q210.265 1484.25 207.117 1487.47 Q203.969 1490.69 198.737 1490.69 Q192.742 1490.69 189.571 1486.1 Q186.4 1481.5 186.4 1472.77 Q186.4 1464.58 190.288 1459.72 Q194.177 1454.83 200.728 1454.83 Q202.487 1454.83 204.27 1455.18 Q206.075 1455.53 208.02 1456.22 Z" fill="#000000" fill-rule="nonzero" fill-opacity="1" /><path clip-path="url(#clip490)" d="M102.835 1273.67 L132.511 1273.67 L132.511 1277.6 L102.835 1277.6 L102.835 1273.67 Z" fill="#000000" fill-rule="nonzero" fill-opacity="1" /><path clip-path="url(#clip490)" d="M152.603 1259.02 Q148.992 1259.02 147.164 1262.58 Q145.358 1266.12 145.358 1273.25 Q145.358 1280.36 147.164 1283.92 Q148.992 1287.46 152.603 1287.46 Q156.238 1287.46 158.043 1283.92 Q159.872 1280.36 159.872 1273.25 Q159.872 1266.12 158.043 1262.58 Q156.238 1259.02 152.603 1259.02 M152.603 1255.31 Q158.414 1255.31 161.469 1259.92 Q164.548 1264.5 164.548 1273.25 Q164.548 1281.98 161.469 1286.58 Q158.414 1291.17 152.603 1291.17 Q146.793 1291.17 143.715 1286.58 Q140.659 1281.98 140.659 1273.25 Q140.659 1264.5 143.715 1259.92 Q146.793 1255.31 152.603 1255.31 Z" fill="#000000" fill-rule="nonzero" fill-opacity="1" /><path clip-path="url(#clip490)" d="M172.765 1284.62 L177.65 1284.62 L177.65 1290.5 L172.765 1290.5 L172.765 1284.62 Z" fill="#000000" fill-rule="nonzero" fill-opacity="1" /><path clip-path="url(#clip490)" d="M200.682 1260.01 L188.876 1278.46 L200.682 1278.46 L200.682 1260.01 M199.455 1255.94 L205.335 1255.94 L205.335 1278.46 L210.265 1278.46 L210.265 1282.35 L205.335 1282.35 L205.335 1290.5 L200.682 1290.5 L200.682 1282.35 L185.08 1282.35 L185.08 1277.83 L199.455 1255.94 Z" fill="#000000" fill-rule="nonzero" fill-opacity="1" /><path clip-path="url(#clip490)" d="M104.918 1074.15 L134.594 1074.15 L134.594 1078.08 L104.918 1078.08 L104.918 1074.15 Z" fill="#000000" fill-rule="nonzero" fill-opacity="1" /><path clip-path="url(#clip490)" d="M154.687 1059.5 Q151.076 1059.5 149.247 1063.06 Q147.441 1066.6 147.441 1073.73 Q147.441 1080.84 149.247 1084.4 Q151.076 1087.94 154.687 1087.94 Q158.321 1087.94 160.127 1084.4 Q161.955 1080.84 161.955 1073.73 Q161.955 1066.6 160.127 1063.06 Q158.321 1059.5 154.687 1059.5 M154.687 1055.79 Q160.497 1055.79 163.552 1060.4 Q166.631 1064.98 166.631 1073.73 Q166.631 1082.46 163.552 1087.07 Q160.497 1091.65 154.687 1091.65 Q148.877 1091.65 145.798 1087.07 Q142.742 1082.46 142.742 1073.73 Q142.742 1064.98 145.798 1060.4 Q148.877 1055.79 154.687 1055.79 Z" fill="#000000" fill-rule="nonzero" fill-opacity="1" /><path clip-path="url(#clip490)" d="M174.849 1085.1 L179.733 1085.1 L179.733 1090.98 L174.849 1090.98 L174.849 1085.1 Z" fill="#000000" fill-rule="nonzero" fill-opacity="1" /><path clip-path="url(#clip490)" d="M193.946 1087.04 L210.265 1087.04 L210.265 1090.98 L188.321 1090.98 L188.321 1087.04 Q190.983 1084.29 195.566 1079.66 Q200.173 1075 201.353 1073.66 Q203.599 1071.14 204.478 1069.4 Q205.381 1067.64 205.381 1065.95 Q205.381 1063.2 203.436 1061.46 Q201.515 1059.73 198.413 1059.73 Q196.214 1059.73 193.761 1060.49 Q191.33 1061.26 188.552 1062.81 L188.552 1058.08 Q191.376 1056.95 193.83 1056.37 Q196.284 1055.79 198.321 1055.79 Q203.691 1055.79 206.886 1058.48 Q210.08 1061.16 210.08 1065.65 Q210.08 1067.78 209.27 1069.7 Q208.483 1071.6 206.376 1074.19 Q205.798 1074.87 202.696 1078.08 Q199.594 1081.28 193.946 1087.04 Z" fill="#000000" fill-rule="nonzero" fill-opacity="1" /><path clip-path="url(#clip490)" d="M153.09 859.976 Q149.478 859.976 147.65 863.541 Q145.844 867.083 145.844 874.212 Q145.844 881.319 147.65 884.884 Q149.478 888.425 153.09 888.425 Q156.724 888.425 158.529 884.884 Q160.358 881.319 160.358 874.212 Q160.358 867.083 158.529 863.541 Q156.724 859.976 153.09 859.976 M153.09 856.273 Q158.9 856.273 161.955 860.879 Q165.034 865.462 165.034 874.212 Q165.034 882.939 161.955 887.546 Q158.9 892.129 153.09 892.129 Q147.279 892.129 144.201 887.546 Q141.145 882.939 141.145 874.212 Q141.145 865.462 144.201 860.879 Q147.279 856.273 153.09 856.273 Z" fill="#000000" fill-rule="nonzero" fill-opacity="1" /><path clip-path="url(#clip490)" d="M173.251 885.578 L178.136 885.578 L178.136 891.458 L173.251 891.458 L173.251 885.578 Z" fill="#000000" fill-rule="nonzero" fill-opacity="1" /><path clip-path="url(#clip490)" d="M198.321 859.976 Q194.71 859.976 192.881 863.541 Q191.075 867.083 191.075 874.212 Q191.075 881.319 192.881 884.884 Q194.71 888.425 198.321 888.425 Q201.955 888.425 203.761 884.884 Q205.589 881.319 205.589 874.212 Q205.589 867.083 203.761 863.541 Q201.955 859.976 198.321 859.976 M198.321 856.273 Q204.131 856.273 207.186 860.879 Q210.265 865.462 210.265 874.212 Q210.265 882.939 207.186 887.546 Q204.131 892.129 198.321 892.129 Q192.511 892.129 189.432 887.546 Q186.376 882.939 186.376 874.212 Q186.376 865.462 189.432 860.879 Q192.511 856.273 198.321 856.273 Z" fill="#000000" fill-rule="nonzero" fill-opacity="1" /><path clip-path="url(#clip490)" d="M154.687 660.457 Q151.076 660.457 149.247 664.022 Q147.441 667.563 147.441 674.693 Q147.441 681.799 149.247 685.364 Q151.076 688.906 154.687 688.906 Q158.321 688.906 160.127 685.364 Q161.955 681.799 161.955 674.693 Q161.955 667.563 160.127 664.022 Q158.321 660.457 154.687 660.457 M154.687 656.753 Q160.497 656.753 163.552 661.36 Q166.631 665.943 166.631 674.693 Q166.631 683.42 163.552 688.026 Q160.497 692.61 154.687 692.61 Q148.877 692.61 145.798 688.026 Q142.742 683.42 142.742 674.693 Q142.742 665.943 145.798 661.36 Q148.877 656.753 154.687 656.753 Z" fill="#000000" fill-rule="nonzero" fill-opacity="1" /><path clip-path="url(#clip490)" d="M174.849 686.059 L179.733 686.059 L179.733 691.938 L174.849 691.938 L174.849 686.059 Z" fill="#000000" fill-rule="nonzero" fill-opacity="1" /><path clip-path="url(#clip490)" d="M193.946 688.003 L210.265 688.003 L210.265 691.938 L188.321 691.938 L188.321 688.003 Q190.983 685.249 195.566 680.619 Q200.173 675.966 201.353 674.624 Q203.599 672.1 204.478 670.364 Q205.381 668.605 205.381 666.915 Q205.381 664.161 203.436 662.425 Q201.515 660.688 198.413 660.688 Q196.214 660.688 193.761 661.452 Q191.33 662.216 188.552 663.767 L188.552 659.045 Q191.376 657.911 193.83 657.332 Q196.284 656.753 198.321 656.753 Q203.691 656.753 206.886 659.438 Q210.08 662.124 210.08 666.614 Q210.08 668.744 209.27 670.665 Q208.483 672.563 206.376 675.156 Q205.798 675.827 202.696 679.045 Q199.594 682.239 193.946 688.003 Z" fill="#000000" fill-rule="nonzero" fill-opacity="1" /><path clip-path="url(#clip490)" d="M152.603 460.938 Q148.992 460.938 147.164 464.502 Q145.358 468.044 145.358 475.174 Q145.358 482.28 147.164 485.845 Q148.992 489.387 152.603 489.387 Q156.238 489.387 158.043 485.845 Q159.872 482.28 159.872 475.174 Q159.872 468.044 158.043 464.502 Q156.238 460.938 152.603 460.938 M152.603 457.234 Q158.414 457.234 161.469 461.84 Q164.548 466.424 164.548 475.174 Q164.548 483.9 161.469 488.507 Q158.414 493.09 152.603 493.09 Q146.793 493.09 143.715 488.507 Q140.659 483.9 140.659 475.174 Q140.659 466.424 143.715 461.84 Q146.793 457.234 152.603 457.234 Z" fill="#000000" fill-rule="nonzero" fill-opacity="1" /><path clip-path="url(#clip490)" d="M172.765 486.539 L177.65 486.539 L177.65 492.419 L172.765 492.419 L172.765 486.539 Z" fill="#000000" fill-rule="nonzero" fill-opacity="1" /><path clip-path="url(#clip490)" d="M200.682 461.933 L188.876 480.382 L200.682 480.382 L200.682 461.933 M199.455 457.859 L205.335 457.859 L205.335 480.382 L210.265 480.382 L210.265 484.271 L205.335 484.271 L205.335 492.419 L200.682 492.419 L200.682 484.271 L185.08 484.271 L185.08 479.757 L199.455 457.859 Z" fill="#000000" fill-rule="nonzero" fill-opacity="1" /><path clip-path="url(#clip490)" d="M152.927 261.418 Q149.316 261.418 147.488 264.983 Q145.682 268.525 145.682 275.654 Q145.682 282.761 147.488 286.325 Q149.316 289.867 152.927 289.867 Q156.562 289.867 158.367 286.325 Q160.196 282.761 160.196 275.654 Q160.196 268.525 158.367 264.983 Q156.562 261.418 152.927 261.418 M152.927 257.715 Q158.738 257.715 161.793 262.321 Q164.872 266.904 164.872 275.654 Q164.872 284.381 161.793 288.987 Q158.738 293.571 152.927 293.571 Q147.117 293.571 144.039 288.987 Q140.983 284.381 140.983 275.654 Q140.983 266.904 144.039 262.321 Q147.117 257.715 152.927 257.715 Z" fill="#000000" fill-rule="nonzero" fill-opacity="1" /><path clip-path="url(#clip490)" d="M173.089 287.02 L177.974 287.02 L177.974 292.9 L173.089 292.9 L173.089 287.02 Z" fill="#000000" fill-rule="nonzero" fill-opacity="1" /><path clip-path="url(#clip490)" d="M198.737 273.756 Q195.589 273.756 193.737 275.909 Q191.909 278.062 191.909 281.812 Q191.909 285.538 193.737 287.714 Q195.589 289.867 198.737 289.867 Q201.886 289.867 203.714 287.714 Q205.566 285.538 205.566 281.812 Q205.566 278.062 203.714 275.909 Q201.886 273.756 198.737 273.756 M208.02 259.103 L208.02 263.363 Q206.261 262.529 204.455 262.089 Q202.673 261.65 200.913 261.65 Q196.284 261.65 193.83 264.775 Q191.399 267.9 191.052 274.219 Q192.418 272.205 194.478 271.14 Q196.538 270.052 199.015 270.052 Q204.224 270.052 207.233 273.224 Q210.265 276.372 210.265 281.812 Q210.265 287.136 207.117 290.353 Q203.969 293.571 198.737 293.571 Q192.742 293.571 189.571 288.987 Q186.4 284.381 186.4 275.654 Q186.4 267.46 190.288 262.599 Q194.177 257.715 200.728 257.715 Q202.487 257.715 204.27 258.062 Q206.075 258.409 208.02 259.103 Z" fill="#000000" fill-rule="nonzero" fill-opacity="1" /><path clip-path="url(#clip490)" d="M26.5109 888.941 L4.9312 888.941 L4.9312 883.085 L26.2881 883.085 Q31.3489 883.085 33.8952 881.111 Q36.4096 879.138 36.4096 875.191 Q36.4096 870.449 33.3859 867.711 Q30.3622 864.942 25.1423 864.942 L4.9312 864.942 L4.9312 859.086 L40.5792 859.086 L40.5792 864.942 L35.1046 864.942 Q38.3512 867.075 39.9426 869.908 Q41.5022 872.709 41.5022 876.432 Q41.5022 882.575 37.6828 885.758 Q33.8633 888.941 26.5109 888.941 M4.07183 874.204 L4.07183 874.204 Z" fill="#000000" fill-rule="nonzero" fill-opacity="1" /><path clip-path="url(#clip490)" d="M832.075 16.7545 L832.075 25.383 Q827.943 21.5346 823.244 19.6307 Q818.585 17.7268 813.319 17.7268 Q802.949 17.7268 797.44 24.0867 Q791.93 30.4061 791.93 42.3968 Q791.93 54.3469 797.44 60.7069 Q802.949 67.0263 813.319 67.0263 Q818.585 67.0263 823.244 65.1223 Q827.943 63.2184 832.075 59.3701 L832.075 67.9175 Q827.781 70.8341 822.96 72.2924 Q818.18 73.7508 812.833 73.7508 Q799.1 73.7508 791.201 65.3654 Q783.302 56.9395 783.302 42.3968 Q783.302 27.8135 791.201 19.4281 Q799.1 11.0023 812.833 11.0023 Q818.261 11.0023 823.041 12.4606 Q827.862 13.8784 832.075 16.7545 Z" fill="#000000" fill-rule="nonzero" fill-opacity="1" /><path clip-path="url(#clip490)" d="M844.39 9.54393 L851.843 9.54393 L851.843 72.576 L844.39 72.576 L844.39 9.54393 Z" fill="#000000" fill-rule="nonzero" fill-opacity="1" /><path clip-path="url(#clip490)" d="M885.02 32.4315 Q879.025 32.4315 875.541 37.1306 Q872.057 41.7891 872.057 49.9314 Q872.057 58.0738 875.501 62.7728 Q878.984 67.4314 885.02 67.4314 Q890.975 67.4314 894.459 62.7323 Q897.943 58.0333 897.943 49.9314 Q897.943 41.8701 894.459 37.1711 Q890.975 32.4315 885.02 32.4315 M885.02 26.1121 Q894.742 26.1121 900.292 32.4315 Q905.842 38.7509 905.842 49.9314 Q905.842 61.0714 900.292 67.4314 Q894.742 73.7508 885.02 73.7508 Q875.257 73.7508 869.708 67.4314 Q864.198 61.0714 864.198 49.9314 Q864.198 38.7509 869.708 32.4315 Q875.257 26.1121 885.02 26.1121 Z" fill="#000000" fill-rule="nonzero" fill-opacity="1" /><path clip-path="url(#clip490)" d="M947.12 28.5427 L947.12 35.5912 Q943.961 33.9709 940.558 33.1607 Q937.155 32.3505 933.509 32.3505 Q927.96 32.3505 925.165 34.0519 Q922.41 35.7533 922.41 39.156 Q922.41 41.7486 924.395 43.2475 Q926.38 44.7058 932.375 46.0426 L934.927 46.6097 Q942.867 48.3111 946.189 51.4303 Q949.551 54.509 949.551 60.0587 Q949.551 66.3781 944.528 70.0644 Q939.545 73.7508 930.795 73.7508 Q927.15 73.7508 923.18 73.0216 Q919.25 72.3329 914.875 70.9151 L914.875 63.2184 Q919.007 65.3654 923.018 66.4591 Q927.028 67.5124 930.957 67.5124 Q936.224 67.5124 939.059 65.73 Q941.895 63.9071 941.895 60.6258 Q941.895 57.5877 939.829 55.9673 Q937.803 54.3469 930.876 52.8481 L928.284 52.2405 Q921.357 50.7821 918.278 47.7845 Q915.199 44.7463 915.199 39.4801 Q915.199 33.0797 919.736 29.5959 Q924.273 26.1121 932.618 26.1121 Q936.75 26.1121 940.396 26.7198 Q944.042 27.3274 947.12 28.5427 Z" fill="#000000" fill-rule="nonzero" fill-opacity="1" /><path clip-path="url(#clip490)" d="M1000.23 48.0275 L1000.23 51.6733 L965.957 51.6733 Q966.443 59.3701 970.575 63.421 Q974.748 67.4314 982.161 67.4314 Q986.455 67.4314 990.465 66.3781 Q994.516 65.3249 998.486 63.2184 L998.486 70.267 Q994.476 71.9684 990.263 72.8596 Q986.05 73.7508 981.715 73.7508 Q970.859 73.7508 964.499 67.4314 Q958.179 61.1119 958.179 50.3365 Q958.179 39.1965 964.175 32.6746 Q970.211 26.1121 980.419 26.1121 Q989.574 26.1121 994.881 32.0264 Q1000.23 37.9003 1000.23 48.0275 M992.774 45.84 Q992.693 39.7232 989.331 36.0774 Q986.009 32.4315 980.5 32.4315 Q974.262 32.4315 970.494 35.9558 Q966.767 39.4801 966.2 45.8805 L992.774 45.84 Z" fill="#000000" fill-rule="nonzero" fill-opacity="1" /><path clip-path="url(#clip490)" d="M1042.32 34.0924 L1042.32 9.54393 L1049.77 9.54393 L1049.77 72.576 L1042.32 72.576 L1042.32 65.7705 Q1039.97 69.8214 1036.36 71.8063 Q1032.8 73.7508 1027.77 73.7508 Q1019.55 73.7508 1014.37 67.1883 Q1009.22 60.6258 1009.22 49.9314 Q1009.22 39.2371 1014.37 32.6746 Q1019.55 26.1121 1027.77 26.1121 Q1032.8 26.1121 1036.36 28.0971 Q1039.97 30.0415 1042.32 34.0924 M1016.92 49.9314 Q1016.92 58.1548 1020.28 62.8538 Q1023.68 67.5124 1029.6 67.5124 Q1035.51 67.5124 1038.91 62.8538 Q1042.32 58.1548 1042.32 49.9314 Q1042.32 41.7081 1038.91 37.0496 Q1035.51 32.3505 1029.6 32.3505 Q1023.68 32.3505 1020.28 37.0496 Q1016.92 41.7081 1016.92 49.9314 Z" fill="#000000" fill-rule="nonzero" fill-opacity="1" /><path clip-path="url(#clip490)" d="M1061.36 46.5287 L1083.19 46.5287 L1083.19 53.1722 L1061.36 53.1722 L1061.36 46.5287 Z" fill="#000000" fill-rule="nonzero" fill-opacity="1" /><path clip-path="url(#clip490)" d="M1095.06 9.54393 L1102.51 9.54393 L1102.51 72.576 L1095.06 72.576 L1095.06 9.54393 Z" fill="#000000" fill-rule="nonzero" fill-opacity="1" /><path clip-path="url(#clip490)" d="M1135.69 32.4315 Q1129.69 32.4315 1126.21 37.1306 Q1122.73 41.7891 1122.73 49.9314 Q1122.73 58.0738 1126.17 62.7728 Q1129.65 67.4314 1135.69 67.4314 Q1141.64 67.4314 1145.13 62.7323 Q1148.61 58.0333 1148.61 49.9314 Q1148.61 41.8701 1145.13 37.1711 Q1141.64 32.4315 1135.69 32.4315 M1135.69 26.1121 Q1145.41 26.1121 1150.96 32.4315 Q1156.51 38.7509 1156.51 49.9314 Q1156.51 61.0714 1150.96 67.4314 Q1145.41 73.7508 1135.69 73.7508 Q1125.93 73.7508 1120.38 67.4314 Q1114.87 61.0714 1114.87 49.9314 Q1114.87 38.7509 1120.38 32.4315 Q1125.93 26.1121 1135.69 26.1121 Z" fill="#000000" fill-rule="nonzero" fill-opacity="1" /><path clip-path="url(#clip490)" d="M1186.45 32.4315 Q1180.45 32.4315 1176.97 37.1306 Q1173.49 41.7891 1173.49 49.9314 Q1173.49 58.0738 1176.93 62.7728 Q1180.41 67.4314 1186.45 67.4314 Q1192.4 67.4314 1195.89 62.7323 Q1199.37 58.0333 1199.37 49.9314 Q1199.37 41.8701 1195.89 37.1711 Q1192.4 32.4315 1186.45 32.4315 M1186.45 26.1121 Q1196.17 26.1121 1201.72 32.4315 Q1207.27 38.7509 1207.27 49.9314 Q1207.27 61.0714 1201.72 67.4314 Q1196.17 73.7508 1186.45 73.7508 Q1176.69 73.7508 1171.14 67.4314 Q1165.63 61.0714 1165.63 49.9314 Q1165.63 38.7509 1171.14 32.4315 Q1176.69 26.1121 1186.45 26.1121 Z" fill="#000000" fill-rule="nonzero" fill-opacity="1" /><path clip-path="url(#clip490)" d="M1226.84 65.7705 L1226.84 89.8329 L1219.34 89.8329 L1219.34 27.2059 L1226.84 27.2059 L1226.84 34.0924 Q1229.18 30.0415 1232.75 28.0971 Q1236.36 26.1121 1241.34 26.1121 Q1249.6 26.1121 1254.75 32.6746 Q1259.93 39.2371 1259.93 49.9314 Q1259.93 60.6258 1254.75 67.1883 Q1249.6 73.7508 1241.34 73.7508 Q1236.36 73.7508 1232.75 71.8063 Q1229.18 69.8214 1226.84 65.7705 M1252.19 49.9314 Q1252.19 41.7081 1248.79 37.0496 Q1245.43 32.3505 1239.51 32.3505 Q1233.6 32.3505 1230.2 37.0496 Q1226.84 41.7081 1226.84 49.9314 Q1226.84 58.1548 1230.2 62.8538 Q1233.6 67.5124 1239.51 67.5124 Q1245.43 67.5124 1248.79 62.8538 Q1252.19 58.1548 1252.19 49.9314 Z" fill="#000000" fill-rule="nonzero" fill-opacity="1" /><path clip-path="url(#clip490)" d="M1327.58 28.5427 L1327.58 35.5912 Q1324.42 33.9709 1321.02 33.1607 Q1317.62 32.3505 1313.97 32.3505 Q1308.42 32.3505 1305.63 34.0519 Q1302.87 35.7533 1302.87 39.156 Q1302.87 41.7486 1304.86 43.2475 Q1306.84 44.7058 1312.84 46.0426 L1315.39 46.6097 Q1323.33 48.3111 1326.65 51.4303 Q1330.01 54.509 1330.01 60.0587 Q1330.01 66.3781 1324.99 70.0644 Q1320.01 73.7508 1311.26 73.7508 Q1307.61 73.7508 1303.64 73.0216 Q1299.71 72.3329 1295.34 70.9151 L1295.34 63.2184 Q1299.47 65.3654 1303.48 66.4591 Q1307.49 67.5124 1311.42 67.5124 Q1316.68 67.5124 1319.52 65.73 Q1322.36 63.9071 1322.36 60.6258 Q1322.36 57.5877 1320.29 55.9673 Q1318.26 54.3469 1311.34 52.8481 L1308.74 52.2405 Q1301.82 50.7821 1298.74 47.7845 Q1295.66 44.7463 1295.66 39.4801 Q1295.66 33.0797 1300.2 29.5959 Q1304.73 26.1121 1313.08 26.1121 Q1317.21 26.1121 1320.86 26.7198 Q1324.5 27.3274 1327.58 28.5427 Z" fill="#000000" fill-rule="nonzero" fill-opacity="1" /><path clip-path="url(#clip490)" d="M1341.88 27.2059 L1349.33 27.2059 L1349.33 72.576 L1341.88 72.576 L1341.88 27.2059 M1341.88 9.54393 L1349.33 9.54393 L1349.33 18.9825 L1341.88 18.9825 L1341.88 9.54393 Z" fill="#000000" fill-rule="nonzero" fill-opacity="1" /><path clip-path="url(#clip490)" d="M1400.25 35.9153 Q1403.05 30.8922 1406.94 28.5022 Q1410.83 26.1121 1416.09 26.1121 Q1423.18 26.1121 1427.03 31.0947 Q1430.88 36.0368 1430.88 45.1919 L1430.88 72.576 L1423.39 72.576 L1423.39 45.4349 Q1423.39 38.913 1421.08 35.7533 Q1418.77 32.5936 1414.03 32.5936 Q1408.23 32.5936 1404.87 36.4419 Q1401.51 40.2903 1401.51 46.9338 L1401.51 72.576 L1394.02 72.576 L1394.02 45.4349 Q1394.02 38.8725 1391.71 35.7533 Q1389.4 32.5936 1384.58 32.5936 Q1378.87 32.5936 1375.5 36.4824 Q1372.14 40.3308 1372.14 46.9338 L1372.14 72.576 L1364.65 72.576 L1364.65 27.2059 L1372.14 27.2059 L1372.14 34.2544 Q1374.69 30.082 1378.26 28.0971 Q1381.82 26.1121 1386.72 26.1121 Q1391.67 26.1121 1395.11 28.6237 Q1398.59 31.1352 1400.25 35.9153 Z" fill="#000000" fill-rule="nonzero" fill-opacity="1" /><path clip-path="url(#clip490)" d="M1444.98 54.671 L1444.98 27.2059 L1452.43 27.2059 L1452.43 54.3874 Q1452.43 60.8284 1454.94 64.0691 Q1457.45 67.2693 1462.48 67.2693 Q1468.51 67.2693 1472 63.421 Q1475.52 59.5726 1475.52 52.9291 L1475.52 27.2059 L1482.97 27.2059 L1482.97 72.576 L1475.52 72.576 L1475.52 65.6084 Q1472.81 69.7404 1469.2 71.7658 Q1465.64 73.7508 1460.9 73.7508 Q1453.08 73.7508 1449.03 68.8897 Q1444.98 64.0286 1444.98 54.671 M1463.73 26.1121 L1463.73 26.1121 Z" fill="#000000" fill-rule="nonzero" fill-opacity="1" /><path clip-path="url(#clip490)" d="M1498.33 9.54393 L1505.78 9.54393 L1505.78 72.576 L1498.33 72.576 L1498.33 9.54393 Z" fill="#000000" fill-rule="nonzero" fill-opacity="1" /><path clip-path="url(#clip490)" d="M1542 49.7694 Q1532.96 49.7694 1529.48 51.8354 Q1525.99 53.9013 1525.99 58.8839 Q1525.99 62.8538 1528.59 65.2034 Q1531.22 67.5124 1535.72 67.5124 Q1541.91 67.5124 1545.64 63.1374 Q1549.41 58.7219 1549.41 51.4303 L1549.41 49.7694 L1542 49.7694 M1556.86 46.6907 L1556.86 72.576 L1549.41 72.576 L1549.41 65.6895 Q1546.86 69.8214 1543.05 71.8063 Q1539.24 73.7508 1533.73 73.7508 Q1526.76 73.7508 1522.63 69.8619 Q1518.54 65.9325 1518.54 59.3701 Q1518.54 51.7138 1523.65 47.825 Q1528.79 43.9361 1538.96 43.9361 L1549.41 43.9361 L1549.41 43.2069 Q1549.41 38.0623 1546.01 35.2672 Q1542.64 32.4315 1536.53 32.4315 Q1532.64 32.4315 1528.95 33.3632 Q1525.27 34.295 1521.86 36.1584 L1521.86 29.2718 Q1525.95 27.692 1529.8 26.9223 Q1533.65 26.1121 1537.3 26.1121 Q1547.14 26.1121 1552 31.2163 Q1556.86 36.3204 1556.86 46.6907 Z" fill="#000000" fill-rule="nonzero" fill-opacity="1" /><path clip-path="url(#clip490)" d="M1579.59 14.324 L1579.59 27.2059 L1594.94 27.2059 L1594.94 32.9987 L1579.59 32.9987 L1579.59 57.6282 Q1579.59 63.1779 1581.09 64.7578 Q1582.63 66.3376 1587.28 66.3376 L1594.94 66.3376 L1594.94 72.576 L1587.28 72.576 Q1578.66 72.576 1575.38 69.3758 Q1572.09 66.1351 1572.09 57.6282 L1572.09 32.9987 L1566.63 32.9987 L1566.63 27.2059 L1572.09 27.2059 L1572.09 14.324 L1579.59 14.324 Z" fill="#000000" fill-rule="nonzero" fill-opacity="1" /><path clip-path="url(#clip490)" d="M1604.74 27.2059 L1612.2 27.2059 L1612.2 72.576 L1604.74 72.576 L1604.74 27.2059 M1604.74 9.54393 L1612.2 9.54393 L1612.2 18.9825 L1604.74 18.9825 L1604.74 9.54393 Z" fill="#000000" fill-rule="nonzero" fill-opacity="1" /><path clip-path="url(#clip490)" d="M1645.37 32.4315 Q1639.38 32.4315 1635.9 37.1306 Q1632.41 41.7891 1632.41 49.9314 Q1632.41 58.0738 1635.86 62.7728 Q1639.34 67.4314 1645.37 67.4314 Q1651.33 67.4314 1654.81 62.7323 Q1658.3 58.0333 1658.3 49.9314 Q1658.3 41.8701 1654.81 37.1711 Q1651.33 32.4315 1645.37 32.4315 M1645.37 26.1121 Q1655.1 26.1121 1660.65 32.4315 Q1666.2 38.7509 1666.2 49.9314 Q1666.2 61.0714 1660.65 67.4314 Q1655.1 73.7508 1645.37 73.7508 Q1635.61 73.7508 1630.06 67.4314 Q1624.55 61.0714 1624.55 49.9314 Q1624.55 38.7509 1630.06 32.4315 Q1635.61 26.1121 1645.37 26.1121 Z" fill="#000000" fill-rule="nonzero" fill-opacity="1" /><path clip-path="url(#clip490)" d="M1716.27 45.1919 L1716.27 72.576 L1708.81 72.576 L1708.81 45.4349 Q1708.81 38.994 1706.3 35.7938 Q1703.79 32.5936 1698.77 32.5936 Q1692.73 32.5936 1689.25 36.4419 Q1685.76 40.2903 1685.76 46.9338 L1685.76 72.576 L1678.27 72.576 L1678.27 27.2059 L1685.76 27.2059 L1685.76 34.2544 Q1688.44 30.163 1692.04 28.1376 Q1695.69 26.1121 1700.43 26.1121 Q1708.24 26.1121 1712.26 30.9732 Q1716.27 35.7938 1716.27 45.1919 Z" fill="#000000" fill-rule="nonzero" fill-opacity="1" /><path clip-path="url(#clip490)" d="M1753.17 27.2059 L1760.62 27.2059 L1769.94 62.6108 L1779.22 27.2059 L1788.01 27.2059 L1797.32 62.6108 L1806.6 27.2059 L1814.05 27.2059 L1802.19 72.576 L1793.39 72.576 L1783.63 35.3887 L1773.83 72.576 L1765.04 72.576 L1753.17 27.2059 Z" fill="#000000" fill-rule="nonzero" fill-opacity="1" /><path clip-path="url(#clip490)" d="M1825.36 27.2059 L1832.81 27.2059 L1832.81 72.576 L1825.36 72.576 L1825.36 27.2059 M1825.36 9.54393 L1832.81 9.54393 L1832.81 18.9825 L1825.36 18.9825 L1825.36 9.54393 Z" fill="#000000" fill-rule="nonzero" fill-opacity="1" /><path clip-path="url(#clip490)" d="M1855.78 14.324 L1855.78 27.2059 L1871.13 27.2059 L1871.13 32.9987 L1855.78 32.9987 L1855.78 57.6282 Q1855.78 63.1779 1857.28 64.7578 Q1858.82 66.3376 1863.48 66.3376 L1871.13 66.3376 L1871.13 72.576 L1863.48 72.576 Q1854.85 72.576 1851.57 69.3758 Q1848.28 66.1351 1848.28 57.6282 L1848.28 32.9987 L1842.82 32.9987 L1842.82 27.2059 L1848.28 27.2059 L1848.28 14.324 L1855.78 14.324 Z" fill="#000000" fill-rule="nonzero" fill-opacity="1" /><path clip-path="url(#clip490)" d="M1918.65 45.1919 L1918.65 72.576 L1911.2 72.576 L1911.2 45.4349 Q1911.2 38.994 1908.68 35.7938 Q1906.17 32.5936 1901.15 32.5936 Q1895.11 32.5936 1891.63 36.4419 Q1888.15 40.2903 1888.15 46.9338 L1888.15 72.576 L1880.65 72.576 L1880.65 9.54393 L1888.15 9.54393 L1888.15 34.2544 Q1890.82 30.163 1894.42 28.1376 Q1898.07 26.1121 1902.81 26.1121 Q1910.63 26.1121 1914.64 30.9732 Q1918.65 35.7938 1918.65 45.1919 Z" fill="#000000" fill-rule="nonzero" fill-opacity="1" /><path clip-path="url(#clip490)" d="M1980.51 49.7694 Q1971.47 49.7694 1967.99 51.8354 Q1964.51 53.9013 1964.51 58.8839 Q1964.51 62.8538 1967.1 65.2034 Q1969.73 67.5124 1974.23 67.5124 Q1980.43 67.5124 1984.15 63.1374 Q1987.92 58.7219 1987.92 51.4303 L1987.92 49.7694 L1980.51 49.7694 M1995.37 46.6907 L1995.37 72.576 L1987.92 72.576 L1987.92 65.6895 Q1985.37 69.8214 1981.56 71.8063 Q1977.75 73.7508 1972.24 73.7508 Q1965.27 73.7508 1961.14 69.8619 Q1957.05 65.9325 1957.05 59.3701 Q1957.05 51.7138 1962.16 47.825 Q1967.3 43.9361 1977.47 43.9361 L1987.92 43.9361 L1987.92 43.2069 Q1987.92 38.0623 1984.52 35.2672 Q1981.15 32.4315 1975.04 32.4315 Q1971.15 32.4315 1967.46 33.3632 Q1963.78 34.295 1960.37 36.1584 L1960.37 29.2718 Q1964.46 27.692 1968.31 26.9223 Q1972.16 26.1121 1975.81 26.1121 Q1985.65 26.1121 1990.51 31.2163 Q1995.37 36.3204 1995.37 46.6907 Z" fill="#000000" fill-rule="nonzero" fill-opacity="1" /><path clip-path="url(#clip490)" d="M2043.38 28.9478 L2043.38 35.9153 Q2040.22 34.1734 2037.02 33.3227 Q2033.86 32.4315 2030.62 32.4315 Q2023.36 32.4315 2019.35 37.0496 Q2015.34 41.6271 2015.34 49.9314 Q2015.34 58.2358 2019.35 62.8538 Q2023.36 67.4314 2030.62 67.4314 Q2033.86 67.4314 2037.02 66.5807 Q2040.22 65.6895 2043.38 63.9476 L2043.38 70.8341 Q2040.26 72.2924 2036.89 73.0216 Q2033.57 73.7508 2029.81 73.7508 Q2019.56 73.7508 2013.52 67.3098 Q2007.49 60.8689 2007.49 49.9314 Q2007.49 38.832 2013.56 32.472 Q2019.68 26.1121 2030.29 26.1121 Q2033.74 26.1121 2037.02 26.8413 Q2040.3 27.5299 2043.38 28.9478 Z" fill="#000000" fill-rule="nonzero" fill-opacity="1" /><path clip-path="url(#clip490)" d="M2063.71 14.324 L2063.71 27.2059 L2079.06 27.2059 L2079.06 32.9987 L2063.71 32.9987 L2063.71 57.6282 Q2063.71 63.1779 2065.21 64.7578 Q2066.75 66.3376 2071.41 66.3376 L2079.06 66.3376 L2079.06 72.576 L2071.41 72.576 Q2062.78 72.576 2059.5 69.3758 Q2056.22 66.1351 2056.22 57.6282 L2056.22 32.9987 L2050.75 32.9987 L2050.75 27.2059 L2056.22 27.2059 L2056.22 14.324 L2063.71 14.324 Z" fill="#000000" fill-rule="nonzero" fill-opacity="1" /><path clip-path="url(#clip490)" d="M2088.1 54.671 L2088.1 27.2059 L2095.55 27.2059 L2095.55 54.3874 Q2095.55 60.8284 2098.06 64.0691 Q2100.57 67.2693 2105.6 67.2693 Q2111.63 67.2693 2115.12 63.421 Q2118.64 59.5726 2118.64 52.9291 L2118.64 27.2059 L2126.1 27.2059 L2126.1 72.576 L2118.64 72.576 L2118.64 65.6084 Q2115.93 69.7404 2112.32 71.7658 Q2108.76 73.7508 2104.02 73.7508 Q2096.2 73.7508 2092.15 68.8897 Q2088.1 64.0286 2088.1 54.671 M2106.85 26.1121 L2106.85 26.1121 Z" fill="#000000" fill-rule="nonzero" fill-opacity="1" /><path clip-path="url(#clip490)" d="M2162.07 49.7694 Q2153.03 49.7694 2149.55 51.8354 Q2146.07 53.9013 2146.07 58.8839 Q2146.07 62.8538 2148.66 65.2034 Q2151.29 67.5124 2155.79 67.5124 Q2161.99 67.5124 2165.71 63.1374 Q2169.48 58.7219 2169.48 51.4303 L2169.48 49.7694 L2162.07 49.7694 M2176.93 46.6907 L2176.93 72.576 L2169.48 72.576 L2169.48 65.6895 Q2166.93 69.8214 2163.12 71.8063 Q2159.31 73.7508 2153.8 73.7508 Q2146.84 73.7508 2142.7 69.8619 Q2138.61 65.9325 2138.61 59.3701 Q2138.61 51.7138 2143.72 47.825 Q2148.86 43.9361 2159.03 43.9361 L2169.48 43.9361 L2169.48 43.2069 Q2169.48 38.0623 2166.08 35.2672 Q2162.72 32.4315 2156.6 32.4315 Q2152.71 32.4315 2149.02 33.3632 Q2145.34 34.295 2141.93 36.1584 L2141.93 29.2718 Q2146.03 27.692 2149.87 26.9223 Q2153.72 26.1121 2157.37 26.1121 Q2167.21 26.1121 2172.07 31.2163 Q2176.93 36.3204 2176.93 46.6907 Z" fill="#000000" fill-rule="nonzero" fill-opacity="1" /><path clip-path="url(#clip490)" d="M2192.29 9.54393 L2199.74 9.54393 L2199.74 72.576 L2192.29 72.576 L2192.29 9.54393 Z" fill="#000000" fill-rule="nonzero" fill-opacity="1" /><path clip-path="url(#clip490)" d="M2271.56 34.0924 L2271.56 9.54393 L2279.02 9.54393 L2279.02 72.576 L2271.56 72.576 L2271.56 65.7705 Q2269.21 69.8214 2265.61 71.8063 Q2262.04 73.7508 2257.02 73.7508 Q2248.8 73.7508 2243.61 67.1883 Q2238.47 60.6258 2238.47 49.9314 Q2238.47 39.2371 2243.61 32.6746 Q2248.8 26.1121 2257.02 26.1121 Q2262.04 26.1121 2265.61 28.0971 Q2269.21 30.0415 2271.56 34.0924 M2246.16 49.9314 Q2246.16 58.1548 2249.53 62.8538 Q2252.93 67.5124 2258.84 67.5124 Q2264.76 67.5124 2268.16 62.8538 Q2271.56 58.1548 2271.56 49.9314 Q2271.56 41.7081 2268.16 37.0496 Q2264.76 32.3505 2258.84 32.3505 Q2252.93 32.3505 2249.53 37.0496 Q2246.16 41.7081 2246.16 49.9314 Z" fill="#000000" fill-rule="nonzero" fill-opacity="1" /><path clip-path="url(#clip490)" d="M2313.25 76.7889 Q2310.09 84.8907 2307.09 87.3618 Q2304.09 89.8329 2299.07 89.8329 L2293.11 89.8329 L2293.11 83.5945 L2297.49 83.5945 Q2300.57 83.5945 2302.27 82.1361 Q2303.97 80.6778 2306.04 75.2496 L2307.37 71.8468 L2289.02 27.2059 L2296.92 27.2059 L2311.1 62.6918 L2325.28 27.2059 L2333.18 27.2059 L2313.25 76.7889 Z" fill="#000000" fill-rule="nonzero" fill-opacity="1" /><path clip-path="url(#clip490)" d="M2381.18 45.1919 L2381.18 72.576 L2373.73 72.576 L2373.73 45.4349 Q2373.73 38.994 2371.22 35.7938 Q2368.7 32.5936 2363.68 32.5936 Q2357.65 32.5936 2354.16 36.4419 Q2350.68 40.2903 2350.68 46.9338 L2350.68 72.576 L2343.18 72.576 L2343.18 27.2059 L2350.68 27.2059 L2350.68 34.2544 Q2353.35 30.163 2356.96 28.1376 Q2360.6 26.1121 2365.34 26.1121 Q2373.16 26.1121 2377.17 30.9732 Q2381.18 35.7938 2381.18 45.1919 Z" fill="#000000" fill-rule="nonzero" fill-opacity="1" /><path clip-path="url(#clip490)" d="M2416.67 49.7694 Q2407.63 49.7694 2404.15 51.8354 Q2400.67 53.9013 2400.67 58.8839 Q2400.67 62.8538 2403.26 65.2034 Q2405.89 67.5124 2410.39 67.5124 Q2416.59 67.5124 2420.31 63.1374 Q2424.08 58.7219 2424.08 51.4303 L2424.08 49.7694 L2416.67 49.7694 M2431.53 46.6907 L2431.53 72.576 L2424.08 72.576 L2424.08 65.6895 Q2421.53 69.8214 2417.72 71.8063 Q2413.91 73.7508 2408.4 73.7508 Q2401.44 73.7508 2397.3 69.8619 Q2393.21 65.9325 2393.21 59.3701 Q2393.21 51.7138 2398.32 47.825 Q2403.46 43.9361 2413.63 43.9361 L2424.08 43.9361 L2424.08 43.2069 Q2424.08 38.0623 2420.68 35.2672 Q2417.32 32.4315 2411.2 32.4315 Q2407.31 32.4315 2403.62 33.3632 Q2399.94 34.295 2396.53 36.1584 L2396.53 29.2718 Q2400.63 27.692 2404.47 26.9223 Q2408.32 26.1121 2411.97 26.1121 Q2421.81 26.1121 2426.67 31.2163 Q2431.53 36.3204 2431.53 46.6907 Z" fill="#000000" fill-rule="nonzero" fill-opacity="1" /><path clip-path="url(#clip490)" d="M2482.21 35.9153 Q2485.01 30.8922 2488.89 28.5022 Q2492.78 26.1121 2498.05 26.1121 Q2505.14 26.1121 2508.99 31.0947 Q2512.84 36.0368 2512.84 45.1919 L2512.84 72.576 L2505.34 72.576 L2505.34 45.4349 Q2505.34 38.913 2503.03 35.7533 Q2500.72 32.5936 2495.98 32.5936 Q2490.19 32.5936 2486.83 36.4419 Q2483.47 40.2903 2483.47 46.9338 L2483.47 72.576 L2475.97 72.576 L2475.97 45.4349 Q2475.97 38.8725 2473.66 35.7533 Q2471.35 32.5936 2466.53 32.5936 Q2460.82 32.5936 2457.46 36.4824 Q2454.1 40.3308 2454.1 46.9338 L2454.1 72.576 L2446.6 72.576 L2446.6 27.2059 L2454.1 27.2059 L2454.1 34.2544 Q2456.65 30.082 2460.21 28.0971 Q2463.78 26.1121 2468.68 26.1121 Q2473.62 26.1121 2477.07 28.6237 Q2480.55 31.1352 2482.21 35.9153 Z" fill="#000000" fill-rule="nonzero" fill-opacity="1" /><path clip-path="url(#clip490)" d="M2527.7 27.2059 L2535.16 27.2059 L2535.16 72.576 L2527.7 72.576 L2527.7 27.2059 M2527.7 9.54393 L2535.16 9.54393 L2535.16 18.9825 L2527.7 18.9825 L2527.7 9.54393 Z" fill="#000000" fill-rule="nonzero" fill-opacity="1" /><path clip-path="url(#clip490)" d="M2583.4 28.9478 L2583.4 35.9153 Q2580.24 34.1734 2577.04 33.3227 Q2573.88 32.4315 2570.64 32.4315 Q2563.39 32.4315 2559.38 37.0496 Q2555.37 41.6271 2555.37 49.9314 Q2555.37 58.2358 2559.38 62.8538 Q2563.39 67.4314 2570.64 67.4314 Q2573.88 67.4314 2577.04 66.5807 Q2580.24 65.6895 2583.4 63.9476 L2583.4 70.8341 Q2580.28 72.2924 2576.92 73.0216 Q2573.6 73.7508 2569.83 73.7508 Q2559.58 73.7508 2553.55 67.3098 Q2547.51 60.8689 2547.51 49.9314 Q2547.51 38.832 2553.59 32.472 Q2559.7 26.1121 2570.32 26.1121 Q2573.76 26.1121 2577.04 26.8413 Q2580.32 27.5299 2583.4 28.9478 Z" fill="#000000" fill-rule="nonzero" fill-opacity="1" /><path clip-path="url(#clip490)" d="M2625.29 28.5427 L2625.29 35.5912 Q2622.13 33.9709 2618.73 33.1607 Q2615.32 32.3505 2611.68 32.3505 Q2606.13 32.3505 2603.33 34.0519 Q2600.58 35.7533 2600.58 39.156 Q2600.58 41.7486 2602.56 43.2475 Q2604.55 44.7058 2610.54 46.0426 L2613.1 46.6097 Q2621.04 48.3111 2624.36 51.4303 Q2627.72 54.509 2627.72 60.0587 Q2627.72 66.3781 2622.7 70.0644 Q2617.71 73.7508 2608.96 73.7508 Q2605.32 73.7508 2601.35 73.0216 Q2597.42 72.3329 2593.04 70.9151 L2593.04 63.2184 Q2597.18 65.3654 2601.19 66.4591 Q2605.2 67.5124 2609.13 67.5124 Q2614.39 67.5124 2617.23 65.73 Q2620.06 63.9071 2620.06 60.6258 Q2620.06 57.5877 2618 55.9673 Q2615.97 54.3469 2609.04 52.8481 L2606.45 52.2405 Q2599.52 50.7821 2596.45 47.7845 Q2593.37 44.7463 2593.37 39.4801 Q2593.37 33.0797 2597.9 29.5959 Q2602.44 26.1121 2610.79 26.1121 Q2614.92 26.1121 2618.56 26.7198 Q2622.21 27.3274 2625.29 28.5427 Z" fill="#000000" fill-rule="nonzero" fill-opacity="1" /><polyline clip-path="url(#clip492)" style="stroke:#009af9; stroke-linecap:round; stroke-linejoin:round; stroke-width:4; stroke-opacity:1; fill:none" points="340.185,874.178 345.982,874.178 351.78,874.178 351.78,867.134 357.577,867.134 357.577,849.741 363.375,849.741 363.375,825.979 369.172,825.979 369.172,800.021 374.97,800.021 374.97,774.929 380.768,774.929 380.768,752.567 386.565,752.567 386.565,733.804 392.363,733.804 392.363,718.77 398.16,718.77 398.16,707.085 403.958,707.085 403.958,698.054 409.755,698.054 409.755,690.825 415.553,690.825 415.553,684.51 421.351,684.51 421.351,678.278 427.148,678.278 427.148,671.418 432.946,671.418 432.946,663.377 438.743,663.377 438.743,653.776 444.541,653.776 444.541,642.411 450.338,642.411 450.338,629.242 456.136,629.242 456.136,614.367 461.933,614.367 461.933,597.996 467.731,597.996 467.731,580.419 473.529,580.419 473.529,561.976 479.326,561.976 479.326,543.024 485.124,543.024 485.124,523.917 490.921,523.917 490.921,504.982 496.719,504.982 496.719,486.505 502.516,486.505 502.516,468.718 508.314,468.718 508.314,451.798 514.112,451.798 514.112,435.864 519.909,435.864 519.909,420.982 525.707,420.982 525.707,407.164 531.504,407.164 531.504,394.388 537.302,394.388 537.302,382.593 543.099,382.593 543.099,371.7 548.897,371.7 548.897,361.612 554.694,361.612 554.694,352.23 560.492,352.23 560.492,343.451 566.29,343.451 566.29,335.184 572.087,335.184 572.087,327.343 577.885,327.343 577.885,319.86 583.682,319.86 583.682,312.678 589.48,312.678 589.48,305.756 595.277,305.756 595.277,299.067 601.075,299.067 601.075,292.596 606.873,292.596 606.873,286.338 612.67,286.338 612.67,280.297 618.468,280.297 618.468,274.48 624.265,274.48 624.265,268.899 630.063,268.899 630.063,263.567 635.86,263.567 635.86,258.497 641.658,258.497 641.658,253.7 647.455,253.7 647.455,249.182 653.253,249.182 653.253,244.949 659.051,244.949 659.051,241.001 664.848,241.001 664.848,237.337 670.646,237.337 670.646,233.948 676.443,233.948 676.443,230.828 682.241,230.828 682.241,227.964 688.038,227.964 688.038,225.344 693.836,225.344 693.836,222.955 699.634,222.955 699.634,220.783 705.431,220.783 705.431,218.814 711.229,218.814 711.229,217.035 717.026,217.035 717.026,215.433 722.824,215.433 722.824,213.998 728.621,213.998 728.621,212.72 734.419,212.72 734.419,211.591 740.216,211.591 740.216,210.603 746.014,210.603 746.014,209.75 751.812,209.75 751.812,209.028 757.609,209.028 757.609,208.433 763.407,208.433 763.407,207.961 769.204,207.961 769.204,207.61 775.002,207.61 775.002,207.377 780.799,207.377 780.799,207.26 786.597,207.26 786.597,207.258 792.395,207.258 792.395,207.367 798.192,207.367 798.192,207.587 803.99,207.587 803.99,207.915 809.787,207.915 809.787,208.348 815.585,208.348 815.585,208.885 821.382,208.885 821.382,209.522 827.18,209.522 827.18,210.259 832.977,210.259 832.977,211.091 838.775,211.091 838.775,212.018 844.573,212.018 844.573,213.037 850.37,213.037 850.37,214.145 856.168,214.145 856.168,215.34 861.965,215.34 861.965,216.622 867.763,216.622 867.763,217.987 873.56,217.987 873.56,219.436 879.358,219.436 879.358,220.966 885.156,220.966 885.156,222.577 890.953,222.577 890.953,224.267 896.751,224.267 896.751,226.037 902.548,226.037 902.548,227.886 908.346,227.886 908.346,229.814 914.143,229.814 914.143,231.82 919.941,231.82 919.941,233.904 925.738,233.904 925.738,236.067 931.536,236.067 931.536,238.309 937.334,238.309 937.334,240.63 943.131,240.63 943.131,243.031 948.929,243.031 948.929,245.512 954.726,245.512 954.726,248.074 960.524,248.074 960.524,250.717 966.321,250.717 966.321,253.443 972.119,253.443 972.119,256.252 977.916,256.252 977.916,259.145 983.714,259.145 983.714,262.124 989.512,262.124 989.512,265.19 995.309,265.19 995.309,268.343 1001.11,268.343 1001.11,271.587 1006.9,271.587 1006.9,274.921 1012.7,274.921 1012.7,278.349 1018.5,278.349 1018.5,281.872 1024.3,281.872 1024.3,285.493 1030.09,285.493 1030.09,289.213 1035.89,289.213 1035.89,293.036 1041.69,293.036 1041.69,296.964 1047.49,296.964 1047.49,301 1053.28,301 1053.28,305.147 1059.08,305.147 1059.08,309.409 1064.88,309.409 1064.88,313.79 1070.68,313.79 1070.68,318.294 1076.48,318.294 1076.48,322.925 1082.27,322.925 1082.27,327.688 1088.07,327.688 1088.07,332.589 1093.87,332.589 1093.87,337.632 1099.67,337.632 1099.67,342.824 1105.46,342.824 1105.46,348.173 1111.26,348.173 1111.26,353.684 1117.06,353.684 1117.06,359.368 1122.86,359.368 1122.86,365.231 1128.65,365.231 1128.65,371.285 1134.45,371.285 1134.45,377.54 1140.25,377.54 1140.25,384.009 1146.05,384.009 1146.05,390.705 1151.84,390.705 1151.84,397.643 1157.64,397.643 1157.64,404.841 1163.44,404.841 1163.44,412.32 1169.24,412.32 1169.24,420.101 1175.03,420.101 1175.03,428.211 1180.83,428.211 1180.83,436.681 1186.63,436.681 1186.63,445.546 1192.43,445.546 1192.43,454.85 1198.22,454.85 1198.22,464.645 1204.02,464.645 1204.02,474.995 1209.82,474.995 1209.82,485.979 1215.62,485.979 1215.62,497.698 1221.41,497.698 1221.41,510.287 1227.21,510.287 1227.21,523.926 1233.01,523.926 1233.01,538.874 1238.81,538.874 1238.81,555.518 1244.6,555.518 1244.6,574.501 1250.4,574.501 1250.4,597.063 1256.2,597.063 1256.2,626.594 1262,626.594 1262,666.112 1267.79,666.112 1267.79,712.066 1273.59,712.066 1273.59,758.071 1279.39,758.071 1279.39,799.966 1285.19,799.966 1285.19,835.822 1290.98,835.822 1290.98,865.318 1296.78,865.318 1296.78,889.159 1302.58,889.159 1302.58,908.612 1308.38,908.612 1308.38,925.178 1314.18,925.178 1314.18,940.358 1319.97,940.358 1319.97,955.495 1325.77,955.495 1325.77,971.68 1331.57,971.68 1331.57,989.704 1337.37,989.704 1337.37,1010.04 1343.16,1010.04 1343.16,1032.88 1348.96,1032.88 1348.96,1058.15 1354.76,1058.15 1354.76,1085.55 1360.56,1085.55 1360.56,1114.64 1366.35,1114.64 1366.35,1144.89 1372.15,1144.89 1372.15,1175.71 1377.95,1175.71 1377.95,1206.51 1383.75,1206.51 1383.75,1236.73 1389.54,1236.73 1389.54,1265.91 1395.34,1265.91 1395.34,1293.65 1401.14,1293.65 1401.14,1319.66 1406.94,1319.66 1406.94,1343.73 1412.73,1343.73 1412.73,1365.78 1418.53,1365.78 1418.53,1385.79 1424.33,1385.79 1424.33,1403.83 1430.13,1403.83 1430.13,1420.02 1435.92,1420.02 1435.92,1434.52 1441.72,1434.52 1441.72,1447.52 1447.52,1447.52 1447.52,1459.21 1453.32,1459.21 1453.32,1469.81 1459.11,1469.81 1459.11,1479.48 1464.91,1479.48 1464.91,1488.41 1470.71,1488.41 1470.71,1496.72 1476.51,1496.72 1476.51,1504.54 1482.3,1504.54 1482.3,1511.94 1488.1,1511.94 1488.1,1519 1493.9,1519 1493.9,1525.75 1499.7,1525.75 1499.7,1532.21 1505.49,1532.21 1505.49,1538.38 1511.29,1538.38 1511.29,1544.25 1517.09,1544.25 1517.09,1549.8 1522.89,1549.8 1522.89,1555.02 1528.68,1555.02 1528.68,1559.89 1534.48,1559.89 1534.48,1564.39 1540.28,1564.39 1540.28,1568.5 1546.08,1568.5 1546.08,1572.23 1551.88,1572.23 1551.88,1575.57 1557.67,1575.57 1557.67,1578.53 1563.47,1578.53 1563.47,1581.11 1569.27,1581.11 1569.27,1583.33 1575.07,1583.33 1575.07,1585.22 1580.86,1585.22 1580.86,1586.79 1586.66,1586.79 1586.66,1588.08 1592.46,1588.08 1592.46,1589.09 1598.26,1589.09 1598.26,1589.87 1604.05,1589.87 1604.05,1590.42 1609.85,1590.42 1609.85,1590.78 1615.65,1590.78 1615.65,1590.97 1621.45,1590.97 1621.45,1590.99 1627.24,1590.99 1627.24,1590.86 1633.04,1590.86 1633.04,1590.6 1638.84,1590.6 1638.84,1590.22 1644.64,1590.22 1644.64,1589.71 1650.43,1589.71 1650.43,1589.1 1656.23,1589.1 1656.23,1588.38 1662.03,1588.38 1662.03,1587.56 1667.83,1587.56 1667.83,1586.64 1673.62,1586.64 1673.62,1585.62 1679.42,1585.62 1679.42,1584.51 1685.22,1584.51 1685.22,1583.31 1691.02,1583.31 1691.02,1582.01 1696.81,1582.01 1696.81,1580.63 1702.61,1580.63 1702.61,1579.16 1708.41,1579.16 1708.41,1577.61 1714.21,1577.61 1714.21,1575.98 1720,1575.98 1720,1574.27 1725.8,1574.27 1725.8,1572.5 1731.6,1572.5 1731.6,1570.65 1737.4,1570.65 1737.4,1568.73 1743.19,1568.73 1743.19,1566.75 1748.99,1566.75 1748.99,1564.71 1754.79,1564.71 1754.79,1562.61 1760.59,1562.61 1760.59,1560.45 1766.38,1560.45 1766.38,1558.24 1772.18,1558.24 1772.18,1555.97 1777.98,1555.97 1777.98,1553.65 1783.78,1553.65 1783.78,1551.28 1789.58,1551.28 1789.58,1548.86 1795.37,1548.86 1795.37,1546.38 1801.17,1546.38 1801.17,1543.85 1806.97,1543.85 1806.97,1541.27 1812.77,1541.27 1812.77,1538.64 1818.56,1538.64 1818.56,1535.96 1824.36,1535.96 1824.36,1533.22 1830.16,1533.22 1830.16,1530.43 1835.96,1530.43 1835.96,1527.59 1841.75,1527.59 1841.75,1524.69 1847.55,1524.69 1847.55,1521.74 1853.35,1521.74 1853.35,1518.73 1859.15,1518.73 1859.15,1515.66 1864.94,1515.66 1864.94,1512.53 1870.74,1512.53 1870.74,1509.34 1876.54,1509.34 1876.54,1506.09 1882.34,1506.09 1882.34,1502.77 1888.13,1502.77 1888.13,1499.39 1893.93,1499.39 1893.93,1495.94 1899.73,1495.94 1899.73,1492.43 1905.53,1492.43 1905.53,1488.84 1911.32,1488.84 1911.32,1485.19 1917.12,1485.19 1917.12,1481.46 1922.92,1481.46 1922.92,1477.65 1928.72,1477.65 1928.72,1473.76 1934.51,1473.76 1934.51,1469.79 1940.31,1469.79 1940.31,1465.73 1946.11,1465.73 1946.11,1461.59 1951.91,1461.59 1951.91,1457.36 1957.7,1457.36 1957.7,1453.03 1963.5,1453.03 1963.5,1448.6 1969.3,1448.6 1969.3,1444.07 1975.1,1444.07 1975.1,1439.43 1980.89,1439.43 1980.89,1434.69 1986.69,1434.69 1986.69,1429.82 1992.49,1429.82 1992.49,1424.84 1998.29,1424.84 1998.29,1419.73 2004.08,1419.73 2004.08,1414.49 2009.88,1414.49 2009.88,1409.1 2015.68,1409.1 2015.68,1403.57 2021.48,1403.57 2021.48,1397.89 2027.28,1397.89 2027.28,1392.05 2033.07,1392.05 2033.07,1386.03 2038.87,1386.03 2038.87,1379.83 2044.67,1379.83 2044.67,1373.44 2050.47,1373.44 2050.47,1366.84 2056.26,1366.84 2056.26,1360.03 2062.06,1360.03 2062.06,1352.98 2067.86,1352.98 2067.86,1345.67 2073.66,1345.67 2073.66,1338.1 2079.45,1338.1 2079.45,1330.23 2085.25,1330.23 2085.25,1322.04 2091.05,1322.04 2091.05,1313.5 2096.85,1313.5 2096.85,1304.57 2102.64,1304.57 2102.64,1295.21 2108.44,1295.21 2108.44,1285.37 2114.24,1285.37 2114.24,1274.98 2120.04,1274.98 2120.04,1263.97 2125.83,1263.97 2125.83,1252.24 2131.63,1252.24 2131.63,1239.66 2137.43,1239.66 2137.43,1226.05 2143.23,1226.05 2143.23,1211.15 2149.02,1211.15 2149.02,1194.6 2154.82,1194.6 2154.82,1175.78 2160.62,1175.78 2160.62,1153.53 2166.42,1153.53 2166.42,1124.79 2172.21,1124.79 2172.21,1086.03 2178.01,1086.03 2178.01,1040.26 2183.81,1040.26 2183.81,994.003 2189.61,994.003 2189.61,951.611 2195.4,951.611 2195.4,915.181 2201.2,915.181 2201.2,885.138 2207,885.138 2207,860.842 2212.8,860.842 2212.8,841.056 2218.59,841.056 2218.59,824.287 2224.39,824.287 2224.39,809.026 2230.19,809.026 2230.19,793.911 2235.99,793.911 2235.99,777.828 2241.78,777.828 2241.78,759.961 2247.58,759.961 2247.58,739.806 2253.38,739.806 2253.38,717.156 2259.18,717.156 2259.18,692.069 2264.98,692.069 2264.98,664.815 2270.77,664.815 2270.77,635.826 2276.57,635.826 2276.57,605.636 2282.37,605.636 2282.37,574.831 2288.17,574.831 2288.17,544 2293.96,544 2293.96,513.695 2299.76,513.695 2299.76,484.403 2305.56,484.403 2305.56,456.525 2311.36,456.525 2311.36,430.364 2317.15,430.364 2317.15,406.12 2322.95,406.12 2322.95,383.898 2328.75,383.898 2328.75,363.716 2334.55,363.716 2334.55,345.515 2340.34,345.515 2340.34,329.178 2346.14,329.178 2346.14,314.545 2351.94,314.545 2351.94,301.43 2357.74,301.43 2357.74,289.634 2363.53,289.634 2363.53,278.957 2369.33,278.957 2369.33,269.214 2375.13,269.214 2375.13,260.235 2380.93,260.235 2380.93,251.879 2386.72,251.879 2386.72,244.026 2392.52,244.026 2392.52,236.59 2398.32,236.59 2398.32,229.505 2404.12,229.505 2404.12,222.733 2409.91,222.733 2409.91,216.255 2415.71,216.255 2415.71,210.066 2421.51,210.066 2421.51,204.175 2427.31,204.175 2427.31,198.598 2433.1,198.598 2433.1,193.352 2438.9,193.352 2438.9,188.458 2444.7,188.458 2444.7,183.933 2450.5,183.933 2450.5,179.788 2456.29,179.788 2456.29,176.032 2462.09,176.032 2462.09,172.666 2467.89,172.666 2467.89,169.684 2473.69,169.684 2473.69,167.076 2479.49,167.076 2479.49,164.827 2485.28,164.827 2485.28,162.916 2491.08,162.916 2491.08,161.323 2496.88,161.323 2496.88,160.022 2502.68,160.022 2502.68,158.989 2508.47,158.989 2508.47,158.2 2514.27,158.2 2514.27,157.631 2520.07,157.631 2520.07,157.26 2525.87,157.26 2525.87,157.069 2531.66,157.069 2531.66,157.041 2537.46,157.041 2537.46,157.159 2543.26,157.159 2543.26,157.413 2549.06,157.413 2549.06,157.793 2554.85,157.793 2554.85,158.29 2560.65,158.29 2560.65,158.898 2566.45,158.898 2566.45,159.613 2572.25,159.613 2572.25,160.431 2578.04,160.431 2578.04,161.348 2583.84,161.348 2583.84,162.363 2589.64,162.363 2589.64,163.472 2595.44,163.472 2595.44,164.674 2601.23,164.674 2601.23,165.967 2607.03,165.967 2607.03,167.347 2612.83,167.347 2612.83,168.813 2618.63,168.813 2618.63,170.36 2624.42,170.36 2624.42,171.988 2630.22,171.988 2630.22,173.691 2636.02,173.691 2636.02,175.468 2641.82,175.468 2641.82,177.315 2647.61,177.315 2647.61,179.229 2653.41,179.229 2653.41,181.208 2659.21,181.208 2659.21,183.248 2665.01,183.248 2665.01,185.347 2670.8,185.347 2670.8,187.504 2676.6,187.504 2676.6,189.717 2682.4,189.717 2682.4,191.984 2688.2,191.984 2688.2,194.304 2693.99,194.304 2693.99,196.676 2699.79,196.676 2699.79,199.1 2705.59,199.1 2705.59,201.575 2711.39,201.575 2711.39,204.102 2717.19,204.102 2717.19,206.68 2722.98,206.68 2722.98,209.31 2728.78,209.31 2728.78,211.992 2734.58,211.992 2734.58,214.727 2740.38,214.727 2740.38,217.515 2746.17,217.515 2746.17,220.358 2751.97,220.358 2751.97,223.255 2757.77,223.255 2757.77,226.208 2763.57,226.208 2763.57,229.219 2769.36,229.219 2769.36,232.287 2775.16,232.287 2775.16,235.414 2780.96,235.414 2780.96,238.602 2786.76,238.602 2786.76,241.851 2792.55,241.851 2792.55,245.164 2798.35,245.164 2798.35,248.541 2804.15,248.541 2804.15,251.985 2809.95,251.985 2809.95,255.497 2815.74,255.497 2815.74,259.078 2821.54,259.078 2821.54,262.732 2827.34,262.732 2827.34,266.461 2833.14,266.461 2833.14,270.265 2838.93,270.265 2838.93,274.149 2844.73,274.149 2844.73,278.115 2850.53,278.115 2850.53,282.166 2856.33,282.166 2856.33,286.304 2862.12,286.304 2862.12,290.533 2867.92,290.533 2867.92,294.857 2873.72,294.857 2873.72,299.278 2879.52,299.278 2879.52,303.802 2885.31,303.802 2885.31,308.432 2891.11,308.432 2891.11,313.172 2896.91,313.172 2896.91,318.028 2902.71,318.028 2902.71,323.005 2908.5,323.005 2908.5,328.107 2914.3,328.107 2914.3,333.342 2920.1,333.342 2920.1,338.715 2925.9,338.715 2925.9,344.234 2931.69,344.234 2931.69,349.906 2937.49,349.906 2937.49,355.74 2943.29,355.74 2943.29,361.745 2949.09,361.745 2949.09,367.93 2954.89,367.93 2954.89,374.307 2960.68,374.307 2960.68,380.888 2966.48,380.888 2966.48,387.687 2972.28,387.687 2972.28,394.72 2978.08,394.72 2978.08,402.003 2983.87,402.003 2983.87,409.557 2989.67,409.557 2989.67,417.403 2995.47,417.403 2995.47,425.568 3001.27,425.568 3001.27,434.083 3007.06,434.083 3007.06,442.981 3012.86,442.981 3012.86,452.306 3018.66,452.306 3018.66,462.108 3024.46,462.108 3024.46,472.449 3030.25,472.449 3030.25,483.406 3036.05,483.406 3036.05,495.076 3041.85,495.076 3041.85,507.587 3047.65,507.587 3047.65,521.112 3053.44,521.112 3053.44,535.894 3059.24,535.894 3059.24,552.294 3065.04,552.294 3065.04,570.902 3070.84,570.902 3070.84,592.817 "/>
<polyline clip-path="url(#clip492)" style="stroke:#e26f46; stroke-linecap:round; stroke-linejoin:round; stroke-width:4; stroke-opacity:1; fill:none" points="340.185,874.178 345.982,874.178 345.982,776.59 351.78,776.59 351.78,723.391 357.577,723.391 357.577,685.284 363.375,685.284 363.375,655.129 369.172,655.129 369.172,629.968 374.97,629.968 374.97,608.271 380.768,608.271 380.768,589.133 386.565,589.133 386.565,571.976 392.363,571.976 392.363,556.402 398.16,556.402 398.16,542.128 403.958,542.128 403.958,528.943 409.755,528.943 409.755,516.686 415.553,516.686 415.553,505.232 421.351,505.232 421.351,494.48 427.148,494.48 427.148,484.349 432.946,484.349 432.946,474.773 438.743,474.773 438.743,465.695 444.541,465.695 444.541,457.069 450.338,457.069 450.338,448.855 456.136,448.855 456.136,441.017 461.933,441.017 461.933,433.528 467.731,433.528 467.731,426.36 473.529,426.36 473.529,419.491 479.326,419.491 479.326,412.902 485.124,412.902 485.124,406.574 490.921,406.574 490.921,400.493 496.719,400.493 496.719,394.643 502.516,394.643 502.516,389.012 508.314,389.012 508.314,383.588 514.112,383.588 514.112,378.363 519.909,378.363 519.909,373.325 525.707,373.325 525.707,368.467 531.504,368.467 531.504,363.781 537.302,363.781 537.302,359.26 543.099,359.26 543.099,354.898 548.897,354.898 548.897,350.687 554.694,350.687 554.694,346.624 560.492,346.624 560.492,342.702 566.29,342.702 566.29,338.918 572.087,338.918 572.087,335.266 577.885,335.266 577.885,331.744 583.682,331.744 583.682,328.346 589.48,328.346 589.48,325.07 595.277,325.07 595.277,321.913 601.075,321.913 601.075,318.871 606.873,318.871 606.873,315.942 612.67,315.942 612.67,313.122 618.468,313.122 618.468,310.411 624.265,310.411 624.265,307.805 630.063,307.805 630.063,305.302 635.86,305.302 635.86,302.9 641.658,302.9 641.658,300.598 647.455,300.598 647.455,298.393 653.253,298.393 653.253,296.285 659.051,296.285 659.051,294.271 664.848,294.271 664.848,292.35 670.646,292.35 670.646,290.521 676.443,290.521 676.443,288.783 682.241,288.783 682.241,287.134 688.038,287.134 688.038,285.573 693.836,285.573 693.836,284.1 699.634,284.1 699.634,282.713 705.431,282.713 705.431,281.412 711.229,281.412 711.229,280.196 717.026,280.196 717.026,279.064 722.824,279.064 722.824,278.015 728.621,278.015 728.621,277.048 734.419,277.048 734.419,276.164 740.216,276.164 740.216,275.362 746.014,275.362 746.014,274.641 751.812,274.641 751.812,274 757.609,274 757.609,273.44 763.407,273.44 763.407,272.961 769.204,272.961 769.204,272.561 775.002,272.561 775.002,272.24 780.799,272.24 780.799,271.999 786.597,271.999 786.597,271.838 792.395,271.838 792.395,271.755 798.192,271.755 798.192,271.752 803.99,271.752 803.99,271.828 809.787,271.828 809.787,271.984 815.585,271.984 815.585,272.218 821.382,272.218 821.382,272.532 827.18,272.532 827.18,272.926 832.977,272.926 832.977,273.399 838.775,273.399 838.775,273.953 844.573,273.953 844.573,274.587 850.37,274.587 850.37,275.302 856.168,275.302 856.168,276.097 861.965,276.097 861.965,276.975 867.763,276.975 867.763,277.935 873.56,277.935 873.56,278.977 879.358,278.977 879.358,280.103 885.156,280.103 885.156,281.312 890.953,281.312 890.953,282.607 896.751,282.607 896.751,283.987 902.548,283.987 902.548,285.453 908.346,285.453 908.346,287.006 914.143,287.006 914.143,288.648 919.941,288.648 919.941,290.379 925.738,290.379 925.738,292.201 931.536,292.201 931.536,294.114 937.334,294.114 937.334,296.121 943.131,296.121 943.131,298.222 948.929,298.222 948.929,300.419 954.726,300.419 954.726,302.713 960.524,302.713 960.524,305.107 966.321,305.107 966.321,307.601 972.119,307.601 972.119,310.199 977.916,310.199 977.916,312.902 983.714,312.902 983.714,315.713 989.512,315.713 989.512,318.633 995.309,318.633 995.309,321.666 1001.11,321.666 1001.11,324.814 1006.9,324.814 1006.9,328.081 1012.7,328.081 1012.7,331.469 1018.5,331.469 1018.5,334.981 1024.3,334.981 1024.3,338.622 1030.09,338.622 1030.09,342.396 1035.89,342.396 1035.89,346.306 1041.69,346.306 1041.69,350.358 1047.49,350.358 1047.49,354.557 1053.28,354.557 1053.28,358.907 1059.08,358.907 1059.08,363.415 1064.88,363.415 1064.88,368.088 1070.68,368.088 1070.68,372.932 1076.48,372.932 1076.48,377.955 1082.27,377.955 1082.27,383.165 1088.07,383.165 1088.07,388.572 1093.87,388.572 1093.87,394.186 1099.67,394.186 1099.67,400.018 1105.46,400.018 1105.46,406.081 1111.26,406.081 1111.26,412.389 1117.06,412.389 1117.06,418.957 1122.86,418.957 1122.86,425.802 1128.65,425.802 1128.65,432.945 1134.45,432.945 1134.45,440.409 1140.25,440.409 1140.25,448.217 1146.05,448.217 1146.05,456.4 1151.84,456.4 1151.84,464.992 1157.64,464.992 1157.64,474.033 1163.44,474.033 1163.44,483.567 1169.24,483.567 1169.24,493.651 1175.03,493.651 1175.03,504.351 1180.83,504.351 1180.83,515.746 1186.63,515.746 1186.63,527.934 1192.43,527.934 1192.43,541.04 1198.22,541.04 1198.22,555.221 1204.02,555.221 1204.02,570.682 1209.82,570.682 1209.82,587.701 1215.62,587.701 1215.62,606.662 1221.41,606.662 1221.41,628.128 1227.21,628.128 1227.21,652.968 1233.01,652.968 1233.01,682.645 1238.81,682.645 1238.81,719.946 1244.6,719.946 1244.6,771.446 1250.4,771.446 1250.4,862.264 1256.2,862.264 1256.2,966.398 1262,966.398 1262,1021.43 1267.79,1021.43 1267.79,1060.38 1273.59,1060.38 1273.59,1091.03 1279.39,1091.03 1279.39,1116.53 1285.19,1116.53 1285.19,1138.46 1290.98,1138.46 1290.98,1157.78 1296.78,1157.78 1296.78,1175.08 1302.58,1175.08 1302.58,1190.76 1308.38,1190.76 1308.38,1205.13 1314.18,1205.13 1314.18,1218.4 1319.97,1218.4 1319.97,1230.72 1325.77,1230.72 1325.77,1242.24 1331.57,1242.24 1331.57,1253.04 1337.37,1253.04 1337.37,1263.22 1343.16,1263.22 1343.16,1272.84 1348.96,1272.84 1348.96,1281.95 1354.76,1281.95 1354.76,1290.61 1360.56,1290.61 1360.56,1298.86 1366.35,1298.86 1366.35,1306.73 1372.15,1306.73 1372.15,1314.24 1377.95,1314.24 1377.95,1321.44 1383.75,1321.44 1383.75,1328.33 1389.54,1328.33 1389.54,1334.94 1395.34,1334.94 1395.34,1341.29 1401.14,1341.29 1401.14,1347.39 1406.94,1347.39 1406.94,1353.26 1412.73,1353.26 1412.73,1358.9 1418.53,1358.9 1418.53,1364.34 1424.33,1364.34 1424.33,1369.58 1430.13,1369.58 1430.13,1374.64 1435.92,1374.64 1435.92,1379.51 1441.72,1379.51 1441.72,1384.21 1447.52,1384.21 1447.52,1388.74 1453.32,1388.74 1453.32,1393.12 1459.11,1393.12 1459.11,1397.34 1464.91,1397.34 1464.91,1401.41 1470.71,1401.41 1470.71,1405.35 1476.51,1405.35 1476.51,1409.14 1482.3,1409.14 1482.3,1412.8 1488.1,1412.8 1488.1,1416.34 1493.9,1416.34 1493.9,1419.74 1499.7,1419.74 1499.7,1423.03 1505.49,1423.03 1505.49,1426.2 1511.29,1426.2 1511.29,1429.25 1517.09,1429.25 1517.09,1432.18 1522.89,1432.18 1522.89,1435.01 1528.68,1435.01 1528.68,1437.73 1534.48,1437.73 1534.48,1440.35 1540.28,1440.35 1540.28,1442.86 1546.08,1442.86 1546.08,1445.27 1551.88,1445.27 1551.88,1447.58 1557.67,1447.58 1557.67,1449.79 1563.47,1449.79 1563.47,1451.91 1569.27,1451.91 1569.27,1453.93 1575.07,1453.93 1575.07,1455.86 1580.86,1455.86 1580.86,1457.69 1586.66,1457.69 1586.66,1459.44 1592.46,1459.44 1592.46,1461.09 1598.26,1461.09 1598.26,1462.66 1604.05,1462.66 1604.05,1464.14 1609.85,1464.14 1609.85,1465.53 1615.65,1465.53 1615.65,1466.84 1621.45,1466.84 1621.45,1468.07 1627.24,1468.07 1627.24,1469.2 1633.04,1469.2 1633.04,1470.26 1638.84,1470.26 1638.84,1471.23 1644.64,1471.23 1644.64,1472.12 1650.43,1472.12 1650.43,1472.93 1656.23,1472.93 1656.23,1473.66 1662.03,1473.66 1662.03,1474.31 1667.83,1474.31 1667.83,1474.87 1673.62,1474.87 1673.62,1475.36 1679.42,1475.36 1679.42,1475.77 1685.22,1475.77 1685.22,1476.09 1691.02,1476.09 1691.02,1476.34 1696.81,1476.34 1696.81,1476.51 1702.61,1476.51 1702.61,1476.6 1708.41,1476.6 1708.41,1476.61 1714.21,1476.61 1714.21,1476.54 1720,1476.54 1720,1476.39 1725.8,1476.39 1725.8,1476.16 1731.6,1476.16 1731.6,1475.85 1737.4,1475.85 1737.4,1475.46 1743.19,1475.46 1743.19,1475 1748.99,1475 1748.99,1474.45 1754.79,1474.45 1754.79,1473.82 1760.59,1473.82 1760.59,1473.11 1766.38,1473.11 1766.38,1472.32 1772.18,1472.32 1772.18,1471.45 1777.98,1471.45 1777.98,1470.5 1783.78,1470.5 1783.78,1469.46 1789.58,1469.46 1789.58,1468.35 1795.37,1468.35 1795.37,1467.14 1801.17,1467.14 1801.17,1465.85 1806.97,1465.85 1806.97,1464.48 1812.77,1464.48 1812.77,1463.02 1818.56,1463.02 1818.56,1461.48 1824.36,1461.48 1824.36,1459.84 1830.16,1459.84 1830.16,1458.12 1835.96,1458.12 1835.96,1456.3 1841.75,1456.3 1841.75,1454.4 1847.55,1454.4 1847.55,1452.4 1853.35,1452.4 1853.35,1450.3 1859.15,1450.3 1859.15,1448.12 1864.94,1448.12 1864.94,1445.83 1870.74,1445.83 1870.74,1443.44 1876.54,1443.44 1876.54,1440.96 1882.34,1440.96 1882.34,1438.37 1888.13,1438.37 1888.13,1435.67 1893.93,1435.67 1893.93,1432.87 1899.73,1432.87 1899.73,1429.96 1905.53,1429.96 1905.53,1426.93 1911.32,1426.93 1911.32,1423.8 1917.12,1423.8 1917.12,1420.54 1922.92,1420.54 1922.92,1417.16 1928.72,1417.16 1928.72,1413.66 1934.51,1413.66 1934.51,1410.03 1940.31,1410.03 1940.31,1406.26 1946.11,1406.26 1946.11,1402.37 1951.91,1402.37 1951.91,1398.32 1957.7,1398.32 1957.7,1394.14 1963.5,1394.14 1963.5,1389.8 1969.3,1389.8 1969.3,1385.3 1975.1,1385.3 1975.1,1380.65 1980.89,1380.65 1980.89,1375.82 1986.69,1375.82 1986.69,1370.81 1992.49,1370.81 1992.49,1365.61 1998.29,1365.61 1998.29,1360.22 2004.08,1360.22 2004.08,1354.62 2009.88,1354.62 2009.88,1348.81 2015.68,1348.81 2015.68,1342.77 2021.48,1342.77 2021.48,1336.48 2027.28,1336.48 2027.28,1329.93 2033.07,1329.93 2033.07,1323.11 2038.87,1323.11 2038.87,1315.99 2044.67,1315.99 2044.67,1308.55 2050.47,1308.55 2050.47,1300.77 2056.26,1300.77 2056.26,1292.62 2062.06,1292.62 2062.06,1284.06 2067.86,1284.06 2067.86,1275.06 2073.66,1275.06 2073.66,1265.57 2079.45,1265.57 2079.45,1255.53 2085.25,1255.53 2085.25,1244.88 2091.05,1244.88 2091.05,1233.54 2096.85,1233.54 2096.85,1221.42 2102.64,1221.42 2102.64,1208.4 2108.44,1208.4 2108.44,1194.31 2114.24,1194.31 2114.24,1178.96 2120.04,1178.96 2120.04,1162.08 2125.83,1162.08 2125.83,1143.29 2131.63,1143.29 2131.63,1122.05 2137.43,1122.05 2137.43,1097.52 2143.23,1097.52 2143.23,1068.3 2149.02,1068.3 2149.02,1031.77 2154.82,1031.77 2154.82,981.85 2160.62,981.85 2160.62,896.76 2166.42,896.76 2166.42,787.571 2172.21,787.571 2172.21,730.554 2178.01,730.554 2178.01,690.711 2183.81,690.711 2183.81,659.544 2189.61,659.544 2189.61,633.714 2195.4,633.714 2195.4,611.536 2201.2,611.536 2201.2,592.036 2207,592.036 2207,574.594 2212.8,574.594 2212.8,558.789 2218.59,558.789 2218.59,544.324 2224.39,544.324 2224.39,530.977 2230.19,530.977 2230.19,518.581 2235.99,518.581 2235.99,507.006 2241.78,507.006 2241.78,496.149 2247.58,496.149 2247.58,485.924 2253.38,485.924 2253.38,476.263 2259.18,476.263 2259.18,467.11 2264.98,467.11 2264.98,458.414 2270.77,458.414 2270.77,450.137 2276.57,450.137 2276.57,442.242 2282.37,442.242 2282.37,434.698 2288.17,434.698 2288.17,427.481 2293.96,427.481 2293.96,420.566 2299.76,420.566 2299.76,413.934 2305.56,413.934 2305.56,407.565 2311.36,407.565 2311.36,401.445 2317.15,401.445 2317.15,395.559 2322.95,395.559 2322.95,389.894 2328.75,389.894 2328.75,384.439 2334.55,384.439 2334.55,379.182 2340.34,379.182 2340.34,374.115 2346.14,374.115 2346.14,369.229 2351.94,369.229 2351.94,364.517 2357.74,364.517 2357.74,359.97 2363.53,359.97 2363.53,355.582 2369.33,355.582 2369.33,351.348 2375.13,351.348 2375.13,347.261 2380.93,347.261 2380.93,343.318 2386.72,343.318 2386.72,339.512 2392.52,339.512 2392.52,335.839 2398.32,335.839 2398.32,332.296 2404.12,332.296 2404.12,328.879 2409.91,328.879 2409.91,325.584 2415.71,325.584 2415.71,322.408 2421.51,322.408 2421.51,319.348 2427.31,319.348 2427.31,316.401 2433.1,316.401 2433.1,313.564 2438.9,313.564 2438.9,310.835 2444.7,310.835 2444.7,308.213 2450.5,308.213 2450.5,305.693 2456.29,305.693 2456.29,303.276 2462.09,303.276 2462.09,300.958 2467.89,300.958 2467.89,298.738 2473.69,298.738 2473.69,296.614 2479.49,296.614 2479.49,294.585 2485.28,294.585 2485.28,292.65 2491.08,292.65 2491.08,290.806 2496.88,290.806 2496.88,289.054 2502.68,289.054 2502.68,287.391 2508.47,287.391 2508.47,285.816 2514.27,285.816 2514.27,284.329 2520.07,284.329 2520.07,282.929 2525.87,282.929 2525.87,281.614 2531.66,281.614 2531.66,280.384 2537.46,280.384 2537.46,279.238 2543.26,279.238 2543.26,278.176 2549.06,278.176 2549.06,277.197 2554.85,277.197 2554.85,276.3 2560.65,276.3 2560.65,275.484 2566.45,275.484 2566.45,274.75 2572.25,274.75 2572.25,274.097 2578.04,274.097 2578.04,273.524 2583.84,273.524 2583.84,273.032 2589.64,273.032 2589.64,272.619 2595.44,272.619 2595.44,272.286 2601.23,272.286 2601.23,272.032 2607.03,272.032 2607.03,271.858 2612.83,271.858 2612.83,271.763 2618.63,271.763 2618.63,271.748 2624.42,271.748 2624.42,271.811 2630.22,271.811 2630.22,271.954 2636.02,271.954 2636.02,272.176 2641.82,272.176 2641.82,272.477 2647.61,272.477 2647.61,272.858 2653.41,272.858 2653.41,273.319 2659.21,273.319 2659.21,273.859 2665.01,273.859 2665.01,274.48 2670.8,274.48 2670.8,275.182 2676.6,275.182 2676.6,275.965 2682.4,275.965 2682.4,276.83 2688.2,276.83 2688.2,277.776 2693.99,277.776 2693.99,278.805 2699.79,278.805 2699.79,279.918 2705.59,279.918 2705.59,281.114 2711.39,281.114 2711.39,282.395 2717.19,282.395 2717.19,283.761 2722.98,283.761 2722.98,285.214 2728.78,285.214 2728.78,286.753 2734.58,286.753 2734.58,288.381 2740.38,288.381 2740.38,290.098 2746.17,290.098 2746.17,291.905 2751.97,291.905 2751.97,293.804 2757.77,293.804 2757.77,295.795 2763.57,295.795 2763.57,297.881 2769.36,297.881 2769.36,300.062 2775.16,300.062 2775.16,302.341 2780.96,302.341 2780.96,304.719 2786.76,304.719 2786.76,307.197 2792.55,307.197 2792.55,309.779 2798.35,309.779 2798.35,312.465 2804.15,312.465 2804.15,315.258 2809.95,315.258 2809.95,318.161 2815.74,318.161 2815.74,321.176 2821.54,321.176 2821.54,324.305 2827.34,324.305 2827.34,327.553 2833.14,327.553 2833.14,330.921 2838.93,330.921 2838.93,334.413 2844.73,334.413 2844.73,338.034 2850.53,338.034 2850.53,341.786 2856.33,341.786 2856.33,345.674 2862.12,345.674 2862.12,349.703 2867.92,349.703 2867.92,353.878 2873.72,353.878 2873.72,358.204 2879.52,358.204 2879.52,362.687 2885.31,362.687 2885.31,367.333 2891.11,367.333 2891.11,372.149 2896.91,372.149 2896.91,377.142 2902.71,377.142 2902.71,382.322 2908.5,382.322 2908.5,387.697 2914.3,387.697 2914.3,393.278 2920.1,393.278 2920.1,399.074 2925.9,399.074 2925.9,405.1 2931.69,405.1 2931.69,411.367 2937.49,411.367 2937.49,417.893 2943.29,417.893 2943.29,424.693 2949.09,424.693 2949.09,431.787 2954.89,431.787 2954.89,439.198 2960.68,439.198 2960.68,446.949 2966.48,446.949 2966.48,455.071 2972.28,455.071 2972.28,463.595 2978.08,463.595 2978.08,472.561 2983.87,472.561 2983.87,482.013 2989.67,482.013 2989.67,492.006 2995.47,492.006 2995.47,502.602 3001.27,502.602 3001.27,513.88 3007.06,513.88 3007.06,525.935 3012.86,525.935 3012.86,538.886 3018.66,538.886 3018.66,552.883 3024.46,552.883 3024.46,568.124 3030.25,568.124 3030.25,584.872 3036.05,584.872 3036.05,603.492 3041.85,603.492 3041.85,624.511 3047.65,624.511 3047.65,648.736 3053.44,648.736 3053.44,677.505 3059.24,677.505 3059.24,713.305 3065.04,713.305 3065.04,761.751 3070.84,761.751 3070.84,841.912 "/>
<path clip-path="url(#clip490)" d="M2741.59 1583.34 L3056.27 1583.34 L3056.27 1427.82 L2741.59 1427.82  Z" fill="#ffffff" fill-rule="evenodd" fill-opacity="1"/>
<polyline clip-path="url(#clip490)" style="stroke:#000000; stroke-linecap:round; stroke-linejoin:round; stroke-width:4; stroke-opacity:1; fill:none" points="2741.59,1583.34 3056.27,1583.34 3056.27,1427.82 2741.59,1427.82 2741.59,1583.34 "/>
<polyline clip-path="url(#clip490)" style="stroke:#009af9; stroke-linecap:round; stroke-linejoin:round; stroke-width:4; stroke-opacity:1; fill:none" points="2773.75,1479.66 2966.72,1479.66 "/>
<path clip-path="url(#clip490)" d="M3012.72 1499.35 Q3010.92 1503.98 3009.2 1505.39 Q3007.49 1506.8 3004.62 1506.8 L3001.22 1506.8 L3001.22 1503.24 L3003.72 1503.24 Q3005.48 1503.24 3006.45 1502.4 Q3007.42 1501.57 3008.6 1498.47 L3009.37 1496.52 L2998.88 1471.01 L3003.39 1471.01 L3011.5 1491.29 L3019.6 1471.01 L3024.11 1471.01 L3012.72 1499.35 Z" fill="#000000" fill-rule="nonzero" fill-opacity="1" /><polyline clip-path="url(#clip490)" style="stroke:#e26f46; stroke-linecap:round; stroke-linejoin:round; stroke-width:4; stroke-opacity:1; fill:none" points="2773.75,1531.5 2966.72,1531.5 "/>
<path clip-path="url(#clip490)" d="M3014.07 1526.83 Q3013.35 1526.42 3012.49 1526.23 Q3011.66 1526.02 3010.64 1526.02 Q3007.03 1526.02 3005.08 1528.39 Q3003.16 1530.72 3003.16 1535.12 L3003.16 1548.78 L2998.88 1548.78 L2998.88 1522.85 L3003.16 1522.85 L3003.16 1526.88 Q3004.51 1524.52 3006.66 1523.39 Q3008.81 1522.23 3011.89 1522.23 Q3012.33 1522.23 3012.86 1522.3 Q3013.39 1522.34 3014.04 1522.46 L3014.07 1526.83 Z" fill="#000000" fill-rule="nonzero" fill-opacity="1" /></svg>
