<?xml version="1.0" encoding="utf-8"?>
<svg xmlns="http://www.w3.org/2000/svg" xmlns:xlink="http://www.w3.org/1999/xlink" width="800" height="450" viewBox="0 0 3200 1800">
<defs>
  <clipPath id="clip540">
    <rect x="0" y="0" width="3200" height="1800"/>
  </clipPath>
</defs>
<path clip-path="url(#clip540)" d="M0 1800 L3200 1800 L3200 0 L0 0  Z" fill="#ffffff" fill-rule="evenodd" fill-opacity="1"/>
<defs>
  <clipPath id="clip541">
    <rect x="640" y="0" width="2241" height="1800"/>
  </clipPath>
</defs>
<path clip-path="url(#clip540)" d="M220.117 1634 L3152.76 1634 L3152.76 47.2441 L220.117 47.2441  Z" fill="#ffffff" fill-rule="evenodd" fill-opacity="1"/>
<defs>
  <clipPath id="clip542">
    <rect x="220" y="47" width="2934" height="1588"/>
  </clipPath>
</defs>
<polyline clip-path="url(#clip542)" style="stroke:#000000; stroke-linecap:round; stroke-linejoin:round; stroke-width:2; stroke-opacity:0.1; fill:none" points="303.116,1634 303.116,47.2441 "/>
<polyline clip-path="url(#clip542)" style="stroke:#000000; stroke-linecap:round; stroke-linejoin:round; stroke-width:2; stroke-opacity:0.1; fill:none" points="997.554,1634 997.554,47.2441 "/>
<polyline clip-path="url(#clip542)" style="stroke:#000000; stroke-linecap:round; stroke-linejoin:round; stroke-width:2; stroke-opacity:0.1; fill:none" points="1691.99,1634 1691.99,47.2441 "/>
<polyline clip-path="url(#clip542)" style="stroke:#000000; stroke-linecap:round; stroke-linejoin:round; stroke-width:2; stroke-opacity:0.1; fill:none" points="2386.43,1634 2386.43,47.2441 "/>
<polyline clip-path="url(#clip542)" style="stroke:#000000; stroke-linecap:round; stroke-linejoin:round; stroke-width:2; stroke-opacity:0.1; fill:none" points="3080.87,1634 3080.87,47.2441 "/>
<polyline clip-path="url(#clip542)" style="stroke:#000000; stroke-linecap:round; stroke-linejoin:round; stroke-width:2; stroke-opacity:0.1; fill:none" points="220.117,1589.1 3152.76,1589.1 "/>
<polyline clip-path="url(#clip542)" style="stroke:#000000; stroke-linecap:round; stroke-linejoin:round; stroke-width:2; stroke-opacity:0.1; fill:none" points="220.117,1278.17 3152.76,1278.17 "/>
<polyline clip-path="url(#clip542)" style="stroke:#000000; stroke-linecap:round; stroke-linejoin:round; stroke-width:2; stroke-opacity:0.1; fill:none" points="220.117,967.24 3152.76,967.24 "/>
<polyline clip-path="url(#clip542)" style="stroke:#000000; stroke-linecap:round; stroke-linejoin:round; stroke-width:2; stroke-opacity:0.1; fill:none" points="220.117,656.312 3152.76,656.312 "/>
<polyline clip-path="url(#clip542)" style="stroke:#000000; stroke-linecap:round; stroke-linejoin:round; stroke-width:2; stroke-opacity:0.1; fill:none" points="220.117,345.384 3152.76,345.384 "/>
<polyline clip-path="url(#clip540)" style="stroke:#000000; stroke-linecap:round; stroke-linejoin:round; stroke-width:4; stroke-opacity:1; fill:none" points="220.117,1634 3152.76,1634 "/>
<polyline clip-path="url(#clip540)" style="stroke:#000000; stroke-linecap:round; stroke-linejoin:round; stroke-width:4; stroke-opacity:1; fill:none" points="303.116,1634 303.116,1615.11 "/>
<polyline clip-path="url(#clip540)" style="stroke:#000000; stroke-linecap:round; stroke-linejoin:round; stroke-width:4; stroke-opacity:1; fill:none" points="997.554,1634 997.554,1615.11 "/>
<polyline clip-path="url(#clip540)" style="stroke:#000000; stroke-linecap:round; stroke-linejoin:round; stroke-width:4; stroke-opacity:1; fill:none" points="1691.99,1634 1691.99,1615.11 "/>
<polyline clip-path="url(#clip540)" style="stroke:#000000; stroke-linecap:round; stroke-linejoin:round; stroke-width:4; stroke-opacity:1; fill:none" points="2386.43,1634 2386.43,1615.11 "/>
<polyline clip-path="url(#clip540)" style="stroke:#000000; stroke-linecap:round; stroke-linejoin:round; stroke-width:4; stroke-opacity:1; fill:none" points="3080.87,1634 3080.87,1615.11 "/>
<path clip-path="url(#clip540)" d="M303.116 1671.32 Q299.505 1671.32 297.677 1674.89 Q295.871 1678.43 295.871 1685.56 Q295.871 1692.67 297.677 1696.23 Q299.505 1699.77 303.116 1699.77 Q306.751 1699.77 308.556 1696.23 Q310.385 1692.67 310.385 1685.56 Q310.385 1678.43 308.556 1674.89 Q306.751 1671.32 303.116 1671.32 M303.116 1667.62 Q308.927 1667.62 311.982 1672.23 Q315.061 1676.81 315.061 1685.56 Q315.061 1694.29 311.982 1698.89 Q308.927 1703.48 303.116 1703.48 Q297.306 1703.48 294.228 1698.89 Q291.172 1694.29 291.172 1685.56 Q291.172 1676.81 294.228 1672.23 Q297.306 1667.62 303.116 1667.62 Z" fill="#000000" fill-rule="nonzero" fill-opacity="1" /><path clip-path="url(#clip540)" d="M987.832 1668.24 L1006.19 1668.24 L1006.19 1672.18 L992.114 1672.18 L992.114 1680.65 Q993.133 1680.3 994.151 1680.14 Q995.17 1679.96 996.188 1679.96 Q1001.98 1679.96 1005.36 1683.13 Q1008.73 1686.3 1008.73 1691.72 Q1008.73 1697.3 1005.26 1700.4 Q1001.79 1703.48 995.471 1703.48 Q993.295 1703.48 991.026 1703.11 Q988.781 1702.74 986.374 1701.99 L986.374 1697.3 Q988.457 1698.43 990.679 1698.99 Q992.901 1699.54 995.378 1699.54 Q999.383 1699.54 1001.72 1697.43 Q1004.06 1695.33 1004.06 1691.72 Q1004.06 1688.11 1001.72 1686 Q999.383 1683.89 995.378 1683.89 Q993.503 1683.89 991.628 1684.31 Q989.776 1684.73 987.832 1685.61 L987.832 1668.24 Z" fill="#000000" fill-rule="nonzero" fill-opacity="1" /><path clip-path="url(#clip540)" d="M1666.68 1698.87 L1674.32 1698.87 L1674.32 1672.5 L1666.01 1674.17 L1666.01 1669.91 L1674.27 1668.24 L1678.95 1668.24 L1678.95 1698.87 L1686.59 1698.87 L1686.59 1702.8 L1666.68 1702.8 L1666.68 1698.87 Z" fill="#000000" fill-rule="nonzero" fill-opacity="1" /><path clip-path="url(#clip540)" d="M1706.03 1671.32 Q1702.42 1671.32 1700.59 1674.89 Q1698.79 1678.43 1698.79 1685.56 Q1698.79 1692.67 1700.59 1696.23 Q1702.42 1699.77 1706.03 1699.77 Q1709.67 1699.77 1711.47 1696.23 Q1713.3 1692.67 1713.3 1685.56 Q1713.3 1678.43 1711.47 1674.89 Q1709.67 1671.32 1706.03 1671.32 M1706.03 1667.62 Q1711.84 1667.62 1714.9 1672.23 Q1717.98 1676.81 1717.98 1685.56 Q1717.98 1694.29 1714.9 1698.89 Q1711.84 1703.48 1706.03 1703.48 Q1700.22 1703.48 1697.14 1698.89 Q1694.09 1694.29 1694.09 1685.56 Q1694.09 1676.81 1697.14 1672.23 Q1700.22 1667.62 1706.03 1667.62 Z" fill="#000000" fill-rule="nonzero" fill-opacity="1" /><path clip-path="url(#clip540)" d="M2361.62 1698.87 L2369.25 1698.87 L2369.25 1672.5 L2360.94 1674.17 L2360.94 1669.91 L2369.21 1668.24 L2373.88 1668.24 L2373.88 1698.87 L2381.52 1698.87 L2381.52 1702.8 L2361.62 1702.8 L2361.62 1698.87 Z" fill="#000000" fill-rule="nonzero" fill-opacity="1" /><path clip-path="url(#clip540)" d="M2391.01 1668.24 L2409.37 1668.24 L2409.37 1672.18 L2395.3 1672.18 L2395.3 1680.65 Q2396.31 1680.3 2397.33 1680.14 Q2398.35 1679.96 2399.37 1679.96 Q2405.16 1679.96 2408.54 1683.13 Q2411.92 1686.3 2411.92 1691.72 Q2411.92 1697.3 2408.44 1700.4 Q2404.97 1703.48 2398.65 1703.48 Q2396.48 1703.48 2394.21 1703.11 Q2391.96 1702.74 2389.55 1701.99 L2389.55 1697.3 Q2391.64 1698.43 2393.86 1698.99 Q2396.08 1699.54 2398.56 1699.54 Q2402.56 1699.54 2404.9 1697.43 Q2407.24 1695.33 2407.24 1691.72 Q2407.24 1688.11 2404.9 1686 Q2402.56 1683.89 2398.56 1683.89 Q2396.68 1683.89 2394.81 1684.31 Q2392.96 1684.73 2391.01 1685.61 L2391.01 1668.24 Z" fill="#000000" fill-rule="nonzero" fill-opacity="1" /><path clip-path="url(#clip540)" d="M3059.64 1698.87 L3075.96 1698.87 L3075.96 1702.8 L3054.02 1702.8 L3054.02 1698.87 Q3056.68 1696.12 3061.26 1691.49 Q3065.87 1686.83 3067.05 1685.49 Q3069.29 1682.97 3070.17 1681.23 Q3071.08 1679.47 3071.08 1677.78 Q3071.08 1675.03 3069.13 1673.29 Q3067.21 1671.56 3064.11 1671.56 Q3061.91 1671.56 3059.46 1672.32 Q3057.03 1673.08 3054.25 1674.63 L3054.25 1669.91 Q3057.07 1668.78 3059.53 1668.2 Q3061.98 1667.62 3064.02 1667.62 Q3069.39 1667.62 3072.58 1670.31 Q3075.78 1672.99 3075.78 1677.48 Q3075.78 1679.61 3074.96 1681.53 Q3074.18 1683.43 3072.07 1686.02 Q3071.49 1686.69 3068.39 1689.91 Q3065.29 1693.11 3059.64 1698.87 Z" fill="#000000" fill-rule="nonzero" fill-opacity="1" /><path clip-path="url(#clip540)" d="M3095.78 1671.32 Q3092.16 1671.32 3090.34 1674.89 Q3088.53 1678.43 3088.53 1685.56 Q3088.53 1692.67 3090.34 1696.23 Q3092.16 1699.77 3095.78 1699.77 Q3099.41 1699.77 3101.21 1696.23 Q3103.04 1692.67 3103.04 1685.56 Q3103.04 1678.43 3101.21 1674.89 Q3099.41 1671.32 3095.78 1671.32 M3095.78 1667.62 Q3101.59 1667.62 3104.64 1672.23 Q3107.72 1676.81 3107.72 1685.56 Q3107.72 1694.29 3104.64 1698.89 Q3101.59 1703.48 3095.78 1703.48 Q3089.96 1703.48 3086.89 1698.89 Q3083.83 1694.29 3083.83 1685.56 Q3083.83 1676.81 3086.89 1672.23 Q3089.96 1667.62 3095.78 1667.62 Z" fill="#000000" fill-rule="nonzero" fill-opacity="1" /><path clip-path="url(#clip540)" d="M1556.61 1743.35 L1596.81 1743.35 L1596.81 1748.76 L1579.94 1748.76 L1579.94 1790.87 L1573.48 1790.87 L1573.48 1748.76 L1556.61 1748.76 L1556.61 1743.35 Z" fill="#000000" fill-rule="nonzero" fill-opacity="1" /><path clip-path="url(#clip540)" d="M1600.75 1755.22 L1606.61 1755.22 L1606.61 1790.87 L1600.75 1790.87 L1600.75 1755.22 M1600.75 1741.34 L1606.61 1741.34 L1606.61 1748.76 L1600.75 1748.76 L1600.75 1741.34 Z" fill="#000000" fill-rule="nonzero" fill-opacity="1" /><path clip-path="url(#clip540)" d="M1646.62 1762.06 Q1648.82 1758.12 1651.87 1756.24 Q1654.93 1754.36 1659.06 1754.36 Q1664.63 1754.36 1667.66 1758.28 Q1670.68 1762.16 1670.68 1769.35 L1670.68 1790.87 L1664.79 1790.87 L1664.79 1769.54 Q1664.79 1764.42 1662.98 1761.94 Q1661.16 1759.45 1657.44 1759.45 Q1652.89 1759.45 1650.25 1762.48 Q1647.61 1765.5 1647.61 1770.72 L1647.61 1790.87 L1641.72 1790.87 L1641.72 1769.54 Q1641.72 1764.39 1639.9 1761.94 Q1638.09 1759.45 1634.3 1759.45 Q1629.81 1759.45 1627.17 1762.51 Q1624.53 1765.53 1624.53 1770.72 L1624.53 1790.87 L1618.64 1790.87 L1618.64 1755.22 L1624.53 1755.22 L1624.53 1760.76 Q1626.54 1757.48 1629.34 1755.92 Q1632.14 1754.36 1635.99 1754.36 Q1639.87 1754.36 1642.58 1756.33 Q1645.31 1758.31 1646.62 1762.06 Z" fill="#000000" fill-rule="nonzero" fill-opacity="1" /><path clip-path="url(#clip540)" d="M1712.85 1771.58 L1712.85 1774.45 L1685.93 1774.45 Q1686.31 1780.49 1689.56 1783.68 Q1692.83 1786.83 1698.66 1786.83 Q1702.03 1786.83 1705.18 1786 Q1708.37 1785.17 1711.49 1783.52 L1711.49 1789.05 Q1708.33 1790.39 1705.02 1791.09 Q1701.71 1791.79 1698.31 1791.79 Q1689.78 1791.79 1684.78 1786.83 Q1679.82 1781.86 1679.82 1773.39 Q1679.82 1764.64 1684.53 1759.52 Q1689.27 1754.36 1697.29 1754.36 Q1704.48 1754.36 1708.65 1759.01 Q1712.85 1763.62 1712.85 1771.58 M1707 1769.86 Q1706.93 1765.06 1704.29 1762.19 Q1701.68 1759.33 1697.35 1759.33 Q1692.45 1759.33 1689.49 1762.1 Q1686.56 1764.86 1686.12 1769.89 L1707 1769.86 Z" fill="#000000" fill-rule="nonzero" fill-opacity="1" /><path clip-path="url(#clip540)" d="M1757.26 1741.41 Q1752.99 1748.73 1750.92 1755.89 Q1748.85 1763.05 1748.85 1770.4 Q1748.85 1777.76 1750.92 1784.98 Q1753.02 1792.17 1757.26 1799.46 L1752.16 1799.46 Q1747.39 1791.98 1745 1784.76 Q1742.65 1777.53 1742.65 1770.4 Q1742.65 1763.31 1745 1756.11 Q1747.36 1748.92 1752.16 1741.41 L1757.26 1741.41 Z" fill="#000000" fill-rule="nonzero" fill-opacity="1" /><path clip-path="url(#clip540)" d="M1791.34 1756.27 L1791.34 1761.81 Q1788.86 1760.54 1786.19 1759.9 Q1783.51 1759.26 1780.65 1759.26 Q1776.29 1759.26 1774.09 1760.6 Q1771.93 1761.94 1771.93 1764.61 Q1771.93 1766.65 1773.49 1767.82 Q1775.05 1768.97 1779.76 1770.02 L1781.76 1770.47 Q1788 1771.8 1790.61 1774.25 Q1793.25 1776.67 1793.25 1781.03 Q1793.25 1786 1789.31 1788.9 Q1785.39 1791.79 1778.52 1791.79 Q1775.65 1791.79 1772.53 1791.22 Q1769.45 1790.68 1766.01 1789.56 L1766.01 1783.52 Q1769.25 1785.2 1772.41 1786.06 Q1775.56 1786.89 1778.64 1786.89 Q1782.78 1786.89 1785.01 1785.49 Q1787.24 1784.06 1787.24 1781.48 Q1787.24 1779.09 1785.61 1777.82 Q1784.02 1776.55 1778.58 1775.37 L1776.54 1774.89 Q1771.1 1773.75 1768.68 1771.39 Q1766.26 1769 1766.26 1764.86 Q1766.26 1759.84 1769.83 1757.1 Q1773.39 1754.36 1779.95 1754.36 Q1783.2 1754.36 1786.06 1754.84 Q1788.92 1755.32 1791.34 1756.27 Z" fill="#000000" fill-rule="nonzero" fill-opacity="1" /><path clip-path="url(#clip540)" d="M1801.66 1741.41 L1806.75 1741.41 Q1811.52 1748.92 1813.88 1756.11 Q1816.27 1763.31 1816.27 1770.4 Q1816.27 1777.53 1813.88 1784.76 Q1811.52 1791.98 1806.75 1799.46 L1801.66 1799.46 Q1805.89 1792.17 1807.96 1784.98 Q1810.06 1777.76 1810.06 1770.4 Q1810.06 1763.05 1807.96 1755.89 Q1805.89 1748.73 1801.66 1741.41 Z" fill="#000000" fill-rule="nonzero" fill-opacity="1" /><polyline clip-path="url(#clip540)" style="stroke:#000000; stroke-linecap:round; stroke-linejoin:round; stroke-width:4; stroke-opacity:1; fill:none" points="220.117,1634 220.117,47.2441 "/>
<polyline clip-path="url(#clip540)" style="stroke:#000000; stroke-linecap:round; stroke-linejoin:round; stroke-width:4; stroke-opacity:1; fill:none" points="220.117,1589.1 239.015,1589.1 "/>
<polyline clip-path="url(#clip540)" style="stroke:#000000; stroke-linecap:round; stroke-linejoin:round; stroke-width:4; stroke-opacity:1; fill:none" points="220.117,1278.17 239.015,1278.17 "/>
<polyline clip-path="url(#clip540)" style="stroke:#000000; stroke-linecap:round; stroke-linejoin:round; stroke-width:4; stroke-opacity:1; fill:none" points="220.117,967.24 239.015,967.24 "/>
<polyline clip-path="url(#clip540)" style="stroke:#000000; stroke-linecap:round; stroke-linejoin:round; stroke-width:4; stroke-opacity:1; fill:none" points="220.117,656.312 239.015,656.312 "/>
<polyline clip-path="url(#clip540)" style="stroke:#000000; stroke-linecap:round; stroke-linejoin:round; stroke-width:4; stroke-opacity:1; fill:none" points="220.117,345.384 239.015,345.384 "/>
<path clip-path="url(#clip540)" d="M114.942 1574.9 Q111.33 1574.9 109.502 1578.46 Q107.696 1582 107.696 1589.13 Q107.696 1596.24 109.502 1599.8 Q111.33 1603.34 114.942 1603.34 Q118.576 1603.34 120.381 1599.8 Q122.21 1596.24 122.21 1589.13 Q122.21 1582 120.381 1578.46 Q118.576 1574.9 114.942 1574.9 M114.942 1571.19 Q120.752 1571.19 123.807 1575.8 Q126.886 1580.38 126.886 1589.13 Q126.886 1597.86 123.807 1602.46 Q120.752 1607.05 114.942 1607.05 Q109.131 1607.05 106.053 1602.46 Q102.997 1597.86 102.997 1589.13 Q102.997 1580.38 106.053 1575.8 Q109.131 1571.19 114.942 1571.19 Z" fill="#000000" fill-rule="nonzero" fill-opacity="1" /><path clip-path="url(#clip540)" d="M135.104 1600.5 L139.988 1600.5 L139.988 1606.38 L135.104 1606.38 L135.104 1600.5 Z" fill="#000000" fill-rule="nonzero" fill-opacity="1" /><path clip-path="url(#clip540)" d="M160.173 1574.9 Q156.562 1574.9 154.733 1578.46 Q152.927 1582 152.927 1589.13 Q152.927 1596.24 154.733 1599.8 Q156.562 1603.34 160.173 1603.34 Q163.807 1603.34 165.613 1599.8 Q167.441 1596.24 167.441 1589.13 Q167.441 1582 165.613 1578.46 Q163.807 1574.9 160.173 1574.9 M160.173 1571.19 Q165.983 1571.19 169.039 1575.8 Q172.117 1580.38 172.117 1589.13 Q172.117 1597.86 169.039 1602.46 Q165.983 1607.05 160.173 1607.05 Q154.363 1607.05 151.284 1602.46 Q148.228 1597.86 148.228 1589.13 Q148.228 1580.38 151.284 1575.8 Q154.363 1571.19 160.173 1571.19 Z" fill="#000000" fill-rule="nonzero" fill-opacity="1" /><path clip-path="url(#clip540)" d="M115.59 1263.97 Q111.979 1263.97 110.15 1267.53 Q108.344 1271.07 108.344 1278.2 Q108.344 1285.31 110.15 1288.87 Q111.979 1292.42 115.59 1292.42 Q119.224 1292.42 121.03 1288.87 Q122.858 1285.31 122.858 1278.2 Q122.858 1271.07 121.03 1267.53 Q119.224 1263.97 115.59 1263.97 M115.59 1260.26 Q121.4 1260.26 124.455 1264.87 Q127.534 1269.45 127.534 1278.2 Q127.534 1286.93 124.455 1291.54 Q121.4 1296.12 115.59 1296.12 Q109.78 1296.12 106.701 1291.54 Q103.645 1286.93 103.645 1278.2 Q103.645 1269.45 106.701 1264.87 Q109.78 1260.26 115.59 1260.26 Z" fill="#000000" fill-rule="nonzero" fill-opacity="1" /><path clip-path="url(#clip540)" d="M135.752 1289.57 L140.636 1289.57 L140.636 1295.45 L135.752 1295.45 L135.752 1289.57 Z" fill="#000000" fill-rule="nonzero" fill-opacity="1" /><path clip-path="url(#clip540)" d="M164.988 1276.81 Q168.344 1277.53 170.219 1279.8 Q172.117 1282.07 172.117 1285.4 Q172.117 1290.52 168.599 1293.32 Q165.08 1296.12 158.599 1296.12 Q156.423 1296.12 154.108 1295.68 Q151.816 1295.26 149.363 1294.41 L149.363 1289.89 Q151.307 1291.03 153.622 1291.61 Q155.937 1292.18 158.46 1292.18 Q162.858 1292.18 165.15 1290.45 Q167.464 1288.71 167.464 1285.4 Q167.464 1282.35 165.312 1280.63 Q163.182 1278.9 159.363 1278.9 L155.335 1278.9 L155.335 1275.05 L159.548 1275.05 Q162.997 1275.05 164.826 1273.69 Q166.654 1272.3 166.654 1269.71 Q166.654 1267.05 164.756 1265.63 Q162.881 1264.2 159.363 1264.2 Q157.441 1264.2 155.242 1264.62 Q153.043 1265.03 150.404 1265.91 L150.404 1261.74 Q153.066 1261 155.381 1260.63 Q157.719 1260.26 159.779 1260.26 Q165.103 1260.26 168.205 1262.69 Q171.307 1265.1 171.307 1269.22 Q171.307 1272.09 169.664 1274.08 Q168.02 1276.05 164.988 1276.81 Z" fill="#000000" fill-rule="nonzero" fill-opacity="1" /><path clip-path="url(#clip540)" d="M114.78 953.039 Q111.168 953.039 109.34 956.604 Q107.534 960.145 107.534 967.275 Q107.534 974.381 109.34 977.946 Q111.168 981.488 114.78 981.488 Q118.414 981.488 120.219 977.946 Q122.048 974.381 122.048 967.275 Q122.048 960.145 120.219 956.604 Q118.414 953.039 114.78 953.039 M114.78 949.335 Q120.59 949.335 123.645 953.942 Q126.724 958.525 126.724 967.275 Q126.724 976.002 123.645 980.608 Q120.59 985.192 114.78 985.192 Q108.969 985.192 105.891 980.608 Q102.835 976.002 102.835 967.275 Q102.835 958.525 105.891 953.942 Q108.969 949.335 114.78 949.335 Z" fill="#000000" fill-rule="nonzero" fill-opacity="1" /><path clip-path="url(#clip540)" d="M134.941 978.641 L139.826 978.641 L139.826 984.52 L134.941 984.52 L134.941 978.641 Z" fill="#000000" fill-rule="nonzero" fill-opacity="1" /><path clip-path="url(#clip540)" d="M160.589 965.377 Q157.441 965.377 155.59 967.53 Q153.761 969.682 153.761 973.432 Q153.761 977.159 155.59 979.335 Q157.441 981.488 160.589 981.488 Q163.738 981.488 165.566 979.335 Q167.418 977.159 167.418 973.432 Q167.418 969.682 165.566 967.53 Q163.738 965.377 160.589 965.377 M169.872 950.724 L169.872 954.983 Q168.113 954.15 166.307 953.71 Q164.525 953.27 162.765 953.27 Q158.136 953.27 155.682 956.395 Q153.252 959.52 152.904 965.84 Q154.27 963.826 156.33 962.761 Q158.39 961.673 160.867 961.673 Q166.076 961.673 169.085 964.844 Q172.117 967.993 172.117 973.432 Q172.117 978.756 168.969 981.974 Q165.821 985.192 160.589 985.192 Q154.594 985.192 151.423 980.608 Q148.252 976.002 148.252 967.275 Q148.252 959.081 152.14 954.219 Q156.029 949.335 162.58 949.335 Q164.339 949.335 166.122 949.682 Q167.927 950.03 169.872 950.724 Z" fill="#000000" fill-rule="nonzero" fill-opacity="1" /><path clip-path="url(#clip540)" d="M115.127 642.111 Q111.516 642.111 109.687 645.676 Q107.881 649.217 107.881 656.347 Q107.881 663.453 109.687 667.018 Q111.516 670.56 115.127 670.56 Q118.761 670.56 120.567 667.018 Q122.395 663.453 122.395 656.347 Q122.395 649.217 120.567 645.676 Q118.761 642.111 115.127 642.111 M115.127 638.407 Q120.937 638.407 123.992 643.014 Q127.071 647.597 127.071 656.347 Q127.071 665.074 123.992 669.68 Q120.937 674.263 115.127 674.263 Q109.317 674.263 106.238 669.68 Q103.182 665.074 103.182 656.347 Q103.182 647.597 106.238 643.014 Q109.317 638.407 115.127 638.407 Z" fill="#000000" fill-rule="nonzero" fill-opacity="1" /><path clip-path="url(#clip540)" d="M135.289 667.713 L140.173 667.713 L140.173 673.592 L135.289 673.592 L135.289 667.713 Z" fill="#000000" fill-rule="nonzero" fill-opacity="1" /><path clip-path="url(#clip540)" d="M150.497 672.875 L150.497 668.615 Q152.256 669.449 154.062 669.888 Q155.867 670.328 157.603 670.328 Q162.233 670.328 164.664 667.226 Q167.117 664.101 167.464 657.759 Q166.122 659.75 164.062 660.814 Q162.002 661.879 159.502 661.879 Q154.316 661.879 151.284 658.754 Q148.275 655.606 148.275 650.166 Q148.275 644.842 151.423 641.625 Q154.571 638.407 159.802 638.407 Q165.798 638.407 168.946 643.014 Q172.117 647.597 172.117 656.347 Q172.117 664.518 168.228 669.402 Q164.363 674.263 157.812 674.263 Q156.052 674.263 154.247 673.916 Q152.441 673.569 150.497 672.875 M159.802 658.222 Q162.951 658.222 164.779 656.069 Q166.631 653.916 166.631 650.166 Q166.631 646.439 164.779 644.287 Q162.951 642.111 159.802 642.111 Q156.654 642.111 154.802 644.287 Q152.974 646.439 152.974 650.166 Q152.974 653.916 154.802 656.069 Q156.654 658.222 159.802 658.222 Z" fill="#000000" fill-rule="nonzero" fill-opacity="1" /><path clip-path="url(#clip540)" d="M107.349 358.729 L114.988 358.729 L114.988 332.363 L106.678 334.03 L106.678 329.771 L114.942 328.104 L119.617 328.104 L119.617 358.729 L127.256 358.729 L127.256 362.664 L107.349 362.664 L107.349 358.729 Z" fill="#000000" fill-rule="nonzero" fill-opacity="1" /><path clip-path="url(#clip540)" d="M136.701 356.784 L141.585 356.784 L141.585 362.664 L136.701 362.664 L136.701 356.784 Z" fill="#000000" fill-rule="nonzero" fill-opacity="1" /><path clip-path="url(#clip540)" d="M155.798 358.729 L172.117 358.729 L172.117 362.664 L150.173 362.664 L150.173 358.729 Q152.835 355.974 157.418 351.345 Q162.025 346.692 163.205 345.349 Q165.451 342.826 166.33 341.09 Q167.233 339.331 167.233 337.641 Q167.233 334.886 165.289 333.15 Q163.367 331.414 160.265 331.414 Q158.066 331.414 155.613 332.178 Q153.182 332.942 150.404 334.493 L150.404 329.771 Q153.228 328.636 155.682 328.058 Q158.136 327.479 160.173 327.479 Q165.543 327.479 168.738 330.164 Q171.932 332.849 171.932 337.34 Q171.932 339.47 171.122 341.391 Q170.335 343.289 168.228 345.882 Q167.65 346.553 164.548 349.771 Q161.446 352.965 155.798 358.729 Z" fill="#000000" fill-rule="nonzero" fill-opacity="1" /><path clip-path="url(#clip540)" d="M43.8893 838.938 Q50.255 841.42 52.1966 843.775 Q54.1381 846.131 54.1381 850.078 L54.1381 854.756 L49.2365 854.756 L49.2365 851.319 Q49.2365 848.9 48.0907 847.563 Q46.9449 846.226 42.6798 844.603 L40.0062 843.553 L4.9312 857.971 L4.9312 851.764 L32.813 840.624 L4.9312 829.484 L4.9312 823.278 L43.8893 838.938 Z" fill="#000000" fill-rule="nonzero" fill-opacity="1" /><polyline clip-path="url(#clip542)" style="stroke:#009af9; stroke-linecap:round; stroke-linejoin:round; stroke-width:4; stroke-opacity:1; fill:none" points="303.116,1589.1 314.644,1585.58 326.172,1575.24 337.699,1558.42 349.227,1535.5 360.755,1506.89 372.282,1473 383.81,1434.28 395.338,1391.2 406.865,1344.21 418.393,1293.79 429.921,1240.42 441.448,1184.58 452.976,1126.75 464.504,1067.4 476.031,1007 487.559,945.98 499.087,884.791 510.614,823.85 522.142,763.557 533.67,704.292 545.197,646.415 556.725,590.258 568.253,536.13 579.78,484.314 591.308,435.065 602.836,388.612 614.363,345.153 625.891,304.861 637.419,267.877 648.946,234.318 660.474,204.27 672.002,177.793 683.529,154.921 695.057,135.661 706.585,119.996 718.112,107.886 729.64,99.2676 741.168,94.0576 752.695,92.1524 764.223,93.4304 775.751,97.7537 787.278,104.969 798.806,114.911 810.334,127.4 821.861,142.25 833.389,159.265 844.917,178.241 856.444,198.97 867.972,221.243 879.5,244.845 891.027,269.564 902.555,295.187 914.083,321.505 925.61,348.312 937.138,375.408 948.666,402.598 960.193,429.694 971.721,456.519 983.249,482.901 994.776,508.682 1006.3,533.711 1017.83,557.851 1029.36,580.974 1040.89,602.967 1052.41,623.726 1063.94,643.162 1075.47,661.198 1087,677.769 1098.53,692.822 1110.05,706.318 1121.58,718.23 1133.11,728.54 1144.64,737.246 1156.16,744.352 1167.69,749.877 1179.22,753.848 1190.75,756.3 1202.27,757.28 1213.8,756.839 1225.33,755.04 1236.86,751.949 1248.39,747.639 1259.91,742.19 1271.44,735.684 1282.97,728.209 1294.5,719.853 1306.02,710.71 1317.55,700.872 1329.08,690.435 1340.61,679.493 1352.13,668.14 1363.66,656.47 1375.19,644.575 1386.72,632.543 1398.24,620.462 1409.77,608.415 1421.3,596.481 1432.83,584.737 1444.36,573.254 1455.88,562.099 1467.41,551.334 1478.94,541.016 1490.47,531.195 1501.99,521.919 1513.52,513.227 1525.05,505.155 1536.58,497.731 1548.1,490.979 1559.63,484.918 1571.16,479.56 1582.69,474.913 1594.22,470.98 1605.74,467.757 1617.27,465.238 1628.8,463.411 1640.33,462.26 1651.85,461.765 1663.38,461.904 1674.91,462.649 1686.44,463.972 1697.96,465.838 1709.49,468.215 1721.02,471.064 1732.55,474.348 1744.07,478.026 1755.6,482.059 1767.13,486.403 1778.66,491.018 1790.19,495.861 1801.71,500.891 1813.24,506.065 1824.77,511.343 1836.3,516.685 1847.82,522.053 1859.35,527.409 1870.88,532.718 1882.41,537.945 1893.93,543.06 1905.46,548.031 1916.99,552.831 1928.52,557.435 1940.05,561.82 1951.57,565.965 1963.1,569.852 1974.63,573.465 1986.16,576.79 1997.68,579.818 2009.21,582.54 2020.74,584.95 2032.27,587.044 2043.79,588.82 2055.32,590.281 2066.85,591.429 2078.38,592.269 2089.9,592.808 2101.43,593.054 2112.96,593.018 2124.49,592.711 2136.02,592.146 2147.54,591.338 2159.07,590.302 2170.6,589.055 2182.13,587.613 2193.65,585.994 2205.18,584.216 2216.71,582.297 2228.24,580.257 2239.76,578.113 2251.29,575.885 2262.82,573.591 2274.35,571.249 2285.88,568.877 2297.4,566.493 2308.93,564.112 2320.46,561.75 2331.99,559.423 2343.51,557.146 2355.04,554.93 2366.57,552.79 2378.1,550.736 2389.62,548.778 2401.15,546.926 2412.68,545.188 2424.21,543.571 2435.73,542.082 2447.26,540.724 2458.79,539.502 2470.32,538.418 2481.85,537.475 2493.37,536.673 2504.9,536.011 2516.43,535.488 2527.96,535.102 2539.48,534.851 2551.01,534.73 2562.54,534.734 2574.07,534.86 2585.59,535.101 2597.12,535.45 2608.65,535.901 2620.18,536.447 2631.71,537.08 2643.23,537.793 2654.76,538.577 2666.29,539.424 2677.82,540.326 2689.34,541.274 2700.87,542.261 2712.4,543.278 2723.93,544.317 2735.45,545.37 2746.98,546.43 2758.51,547.488 2770.04,548.539 2781.56,549.574 2793.09,550.589 2804.62,551.576 2816.15,552.53 2827.68,553.447 2839.2,554.321 2850.73,555.148 2862.26,555.925 2873.79,556.648 2885.31,557.316 2896.84,557.924 2908.37,558.473 2919.9,558.96 2931.42,559.385 2942.95,559.747 2954.48,560.047 2966.01,560.285 2977.54,560.462 2989.06,560.579 3000.59,560.638 3012.12,560.641 3023.65,560.59 3035.17,560.488 3046.7,560.337 3058.23,560.141 3069.76,559.902 "/>
</svg>
