<?xml version="1.0" encoding="utf-8"?>
<svg xmlns="http://www.w3.org/2000/svg" xmlns:xlink="http://www.w3.org/1999/xlink" width="600" height="400" viewBox="0 0 2400 1600">
<defs>
  <clipPath id="clip5000">
    <rect x="0" y="0" width="2400" height="1600"/>
  </clipPath>
</defs>
<polygon clip-path="url(#clip5000)" points="
0,1600 2400,1600 2400,0 0,0 
  " fill="#ffffff" fill-rule="evenodd" fill-opacity="1"/>
<defs>
  <clipPath id="clip5001">
    <rect x="480" y="0" width="1681" height="1600"/>
  </clipPath>
</defs>
<polygon clip-path="url(#clip5000)" points="
102.74,658.417 1152.76,658.417 1152.76,62.9921 102.74,62.9921 
  " fill="#ffffff" fill-rule="evenodd" fill-opacity="1"/>
<defs>
  <clipPath id="clip5002">
    <rect x="102" y="62" width="1051" height="596"/>
  </clipPath>
</defs>
<polyline clip-path="url(#clip5002)" style="stroke:#000000; stroke-width:2; stroke-opacity:0.1; fill:none" points="
  132.458,658.417 132.458,62.9921 
  "/>
<polyline clip-path="url(#clip5002)" style="stroke:#000000; stroke-width:2; stroke-opacity:0.1; fill:none" points="
  281.555,658.417 281.555,62.9921 
  "/>
<polyline clip-path="url(#clip5002)" style="stroke:#000000; stroke-width:2; stroke-opacity:0.1; fill:none" points="
  368.771,658.417 368.771,62.9921 
  "/>
<polyline clip-path="url(#clip5002)" style="stroke:#000000; stroke-width:2; stroke-opacity:0.1; fill:none" points="
  430.652,658.417 430.652,62.9921 
  "/>
<polyline clip-path="url(#clip5002)" style="stroke:#000000; stroke-width:2; stroke-opacity:0.1; fill:none" points="
  478.651,658.417 478.651,62.9921 
  "/>
<polyline clip-path="url(#clip5002)" style="stroke:#000000; stroke-width:2; stroke-opacity:0.1; fill:none" points="
  517.868,658.417 517.868,62.9921 
  "/>
<polyline clip-path="url(#clip5002)" style="stroke:#000000; stroke-width:2; stroke-opacity:0.1; fill:none" points="
  551.027,658.417 551.027,62.9921 
  "/>
<polyline clip-path="url(#clip5002)" style="stroke:#000000; stroke-width:2; stroke-opacity:0.1; fill:none" points="
  579.749,658.417 579.749,62.9921 
  "/>
<polyline clip-path="url(#clip5002)" style="stroke:#000000; stroke-width:2; stroke-opacity:0.1; fill:none" points="
  605.085,658.417 605.085,62.9921 
  "/>
<polyline clip-path="url(#clip5002)" style="stroke:#000000; stroke-width:2; stroke-opacity:0.1; fill:none" points="
  627.748,658.417 627.748,62.9921 
  "/>
<polyline clip-path="url(#clip5002)" style="stroke:#000000; stroke-width:2; stroke-opacity:0.1; fill:none" points="
  776.845,658.417 776.845,62.9921 
  "/>
<polyline clip-path="url(#clip5002)" style="stroke:#000000; stroke-width:2; stroke-opacity:0.1; fill:none" points="
  864.062,658.417 864.062,62.9921 
  "/>
<polyline clip-path="url(#clip5002)" style="stroke:#000000; stroke-width:2; stroke-opacity:0.1; fill:none" points="
  925.943,658.417 925.943,62.9921 
  "/>
<polyline clip-path="url(#clip5002)" style="stroke:#000000; stroke-width:2; stroke-opacity:0.1; fill:none" points="
  973.941,658.417 973.941,62.9921 
  "/>
<polyline clip-path="url(#clip5002)" style="stroke:#000000; stroke-width:2; stroke-opacity:0.1; fill:none" points="
  1013.16,658.417 1013.16,62.9921 
  "/>
<polyline clip-path="url(#clip5002)" style="stroke:#000000; stroke-width:2; stroke-opacity:0.1; fill:none" points="
  1046.32,658.417 1046.32,62.9921 
  "/>
<polyline clip-path="url(#clip5002)" style="stroke:#000000; stroke-width:2; stroke-opacity:0.1; fill:none" points="
  1075.04,658.417 1075.04,62.9921 
  "/>
<polyline clip-path="url(#clip5002)" style="stroke:#000000; stroke-width:2; stroke-opacity:0.1; fill:none" points="
  1100.38,658.417 1100.38,62.9921 
  "/>
<polyline clip-path="url(#clip5002)" style="stroke:#000000; stroke-width:2; stroke-opacity:0.1; fill:none" points="
  1123.04,658.417 1123.04,62.9921 
  "/>
<polyline clip-path="url(#clip5002)" style="stroke:#000000; stroke-width:2; stroke-opacity:0.1; fill:none" points="
  102.74,635.939 1152.76,635.939 
  "/>
<polyline clip-path="url(#clip5002)" style="stroke:#000000; stroke-width:2; stroke-opacity:0.1; fill:none" points="
  102.74,610.097 1152.76,610.097 
  "/>
<polyline clip-path="url(#clip5002)" style="stroke:#000000; stroke-width:2; stroke-opacity:0.1; fill:none" points="
  102.74,590.053 1152.76,590.053 
  "/>
<polyline clip-path="url(#clip5002)" style="stroke:#000000; stroke-width:2; stroke-opacity:0.1; fill:none" points="
  102.74,573.675 1152.76,573.675 
  "/>
<polyline clip-path="url(#clip5002)" style="stroke:#000000; stroke-width:2; stroke-opacity:0.1; fill:none" points="
  102.74,559.828 1152.76,559.828 
  "/>
<polyline clip-path="url(#clip5002)" style="stroke:#000000; stroke-width:2; stroke-opacity:0.1; fill:none" points="
  102.74,547.833 1152.76,547.833 
  "/>
<polyline clip-path="url(#clip5002)" style="stroke:#000000; stroke-width:2; stroke-opacity:0.1; fill:none" points="
  102.74,537.252 1152.76,537.252 
  "/>
<polyline clip-path="url(#clip5002)" style="stroke:#000000; stroke-width:2; stroke-opacity:0.1; fill:none" points="
  102.74,527.788 1152.76,527.788 
  "/>
<polyline clip-path="url(#clip5002)" style="stroke:#000000; stroke-width:2; stroke-opacity:0.1; fill:none" points="
  102.74,465.523 1152.76,465.523 
  "/>
<polyline clip-path="url(#clip5002)" style="stroke:#000000; stroke-width:2; stroke-opacity:0.1; fill:none" points="
  102.74,429.1 1152.76,429.1 
  "/>
<polyline clip-path="url(#clip5002)" style="stroke:#000000; stroke-width:2; stroke-opacity:0.1; fill:none" points="
  102.74,403.258 1152.76,403.258 
  "/>
<polyline clip-path="url(#clip5002)" style="stroke:#000000; stroke-width:2; stroke-opacity:0.1; fill:none" points="
  102.74,383.213 1152.76,383.213 
  "/>
<polyline clip-path="url(#clip5002)" style="stroke:#000000; stroke-width:2; stroke-opacity:0.1; fill:none" points="
  102.74,366.836 1152.76,366.836 
  "/>
<polyline clip-path="url(#clip5002)" style="stroke:#000000; stroke-width:2; stroke-opacity:0.1; fill:none" points="
  102.74,352.988 1152.76,352.988 
  "/>
<polyline clip-path="url(#clip5002)" style="stroke:#000000; stroke-width:2; stroke-opacity:0.1; fill:none" points="
  102.74,340.993 1152.76,340.993 
  "/>
<polyline clip-path="url(#clip5002)" style="stroke:#000000; stroke-width:2; stroke-opacity:0.1; fill:none" points="
  102.74,330.413 1152.76,330.413 
  "/>
<polyline clip-path="url(#clip5002)" style="stroke:#000000; stroke-width:2; stroke-opacity:0.1; fill:none" points="
  102.74,320.949 1152.76,320.949 
  "/>
<polyline clip-path="url(#clip5002)" style="stroke:#000000; stroke-width:2; stroke-opacity:0.1; fill:none" points="
  102.74,258.684 1152.76,258.684 
  "/>
<polyline clip-path="url(#clip5002)" style="stroke:#000000; stroke-width:2; stroke-opacity:0.1; fill:none" points="
  102.74,222.261 1152.76,222.261 
  "/>
<polyline clip-path="url(#clip5002)" style="stroke:#000000; stroke-width:2; stroke-opacity:0.1; fill:none" points="
  102.74,196.419 1152.76,196.419 
  "/>
<polyline clip-path="url(#clip5002)" style="stroke:#000000; stroke-width:2; stroke-opacity:0.1; fill:none" points="
  102.74,176.374 1152.76,176.374 
  "/>
<polyline clip-path="url(#clip5002)" style="stroke:#000000; stroke-width:2; stroke-opacity:0.1; fill:none" points="
  102.74,159.997 1152.76,159.997 
  "/>
<polyline clip-path="url(#clip5002)" style="stroke:#000000; stroke-width:2; stroke-opacity:0.1; fill:none" points="
  102.74,146.149 1152.76,146.149 
  "/>
<polyline clip-path="url(#clip5002)" style="stroke:#000000; stroke-width:2; stroke-opacity:0.1; fill:none" points="
  102.74,134.154 1152.76,134.154 
  "/>
<polyline clip-path="url(#clip5002)" style="stroke:#000000; stroke-width:2; stroke-opacity:0.1; fill:none" points="
  102.74,123.574 1152.76,123.574 
  "/>
<polyline clip-path="url(#clip5002)" style="stroke:#000000; stroke-width:2; stroke-opacity:0.1; fill:none" points="
  102.74,114.11 1152.76,114.11 
  "/>
<polyline clip-path="url(#clip5000)" style="stroke:#000000; stroke-width:4; stroke-opacity:1; fill:none" points="
  102.74,658.417 1152.76,658.417 
  "/>
<polyline clip-path="url(#clip5000)" style="stroke:#000000; stroke-width:4; stroke-opacity:1; fill:none" points="
  102.74,658.417 102.74,62.9921 
  "/>
<polyline clip-path="url(#clip5000)" style="stroke:#000000; stroke-width:4; stroke-opacity:1; fill:none" points="
  132.458,658.417 132.458,649.485 
  "/>
<polyline clip-path="url(#clip5000)" style="stroke:#000000; stroke-width:4; stroke-opacity:1; fill:none" points="
  281.555,658.417 281.555,649.485 
  "/>
<polyline clip-path="url(#clip5000)" style="stroke:#000000; stroke-width:4; stroke-opacity:1; fill:none" points="
  368.771,658.417 368.771,649.485 
  "/>
<polyline clip-path="url(#clip5000)" style="stroke:#000000; stroke-width:4; stroke-opacity:1; fill:none" points="
  430.652,658.417 430.652,649.485 
  "/>
<polyline clip-path="url(#clip5000)" style="stroke:#000000; stroke-width:4; stroke-opacity:1; fill:none" points="
  478.651,658.417 478.651,649.485 
  "/>
<polyline clip-path="url(#clip5000)" style="stroke:#000000; stroke-width:4; stroke-opacity:1; fill:none" points="
  517.868,658.417 517.868,649.485 
  "/>
<polyline clip-path="url(#clip5000)" style="stroke:#000000; stroke-width:4; stroke-opacity:1; fill:none" points="
  551.027,658.417 551.027,649.485 
  "/>
<polyline clip-path="url(#clip5000)" style="stroke:#000000; stroke-width:4; stroke-opacity:1; fill:none" points="
  579.749,658.417 579.749,649.485 
  "/>
<polyline clip-path="url(#clip5000)" style="stroke:#000000; stroke-width:4; stroke-opacity:1; fill:none" points="
  605.085,658.417 605.085,649.485 
  "/>
<polyline clip-path="url(#clip5000)" style="stroke:#000000; stroke-width:4; stroke-opacity:1; fill:none" points="
  627.748,658.417 627.748,649.485 
  "/>
<polyline clip-path="url(#clip5000)" style="stroke:#000000; stroke-width:4; stroke-opacity:1; fill:none" points="
  776.845,658.417 776.845,649.485 
  "/>
<polyline clip-path="url(#clip5000)" style="stroke:#000000; stroke-width:4; stroke-opacity:1; fill:none" points="
  864.062,658.417 864.062,649.485 
  "/>
<polyline clip-path="url(#clip5000)" style="stroke:#000000; stroke-width:4; stroke-opacity:1; fill:none" points="
  925.943,658.417 925.943,649.485 
  "/>
<polyline clip-path="url(#clip5000)" style="stroke:#000000; stroke-width:4; stroke-opacity:1; fill:none" points="
  973.941,658.417 973.941,649.485 
  "/>
<polyline clip-path="url(#clip5000)" style="stroke:#000000; stroke-width:4; stroke-opacity:1; fill:none" points="
  1013.16,658.417 1013.16,649.485 
  "/>
<polyline clip-path="url(#clip5000)" style="stroke:#000000; stroke-width:4; stroke-opacity:1; fill:none" points="
  1046.32,658.417 1046.32,649.485 
  "/>
<polyline clip-path="url(#clip5000)" style="stroke:#000000; stroke-width:4; stroke-opacity:1; fill:none" points="
  1075.04,658.417 1075.04,649.485 
  "/>
<polyline clip-path="url(#clip5000)" style="stroke:#000000; stroke-width:4; stroke-opacity:1; fill:none" points="
  1100.38,658.417 1100.38,649.485 
  "/>
<polyline clip-path="url(#clip5000)" style="stroke:#000000; stroke-width:4; stroke-opacity:1; fill:none" points="
  1123.04,658.417 1123.04,649.485 
  "/>
<polyline clip-path="url(#clip5000)" style="stroke:#000000; stroke-width:4; stroke-opacity:1; fill:none" points="
  102.74,635.939 118.49,635.939 
  "/>
<polyline clip-path="url(#clip5000)" style="stroke:#000000; stroke-width:4; stroke-opacity:1; fill:none" points="
  102.74,610.097 118.49,610.097 
  "/>
<polyline clip-path="url(#clip5000)" style="stroke:#000000; stroke-width:4; stroke-opacity:1; fill:none" points="
  102.74,590.053 118.49,590.053 
  "/>
<polyline clip-path="url(#clip5000)" style="stroke:#000000; stroke-width:4; stroke-opacity:1; fill:none" points="
  102.74,573.675 118.49,573.675 
  "/>
<polyline clip-path="url(#clip5000)" style="stroke:#000000; stroke-width:4; stroke-opacity:1; fill:none" points="
  102.74,559.828 118.49,559.828 
  "/>
<polyline clip-path="url(#clip5000)" style="stroke:#000000; stroke-width:4; stroke-opacity:1; fill:none" points="
  102.74,547.833 118.49,547.833 
  "/>
<polyline clip-path="url(#clip5000)" style="stroke:#000000; stroke-width:4; stroke-opacity:1; fill:none" points="
  102.74,537.252 118.49,537.252 
  "/>
<polyline clip-path="url(#clip5000)" style="stroke:#000000; stroke-width:4; stroke-opacity:1; fill:none" points="
  102.74,527.788 118.49,527.788 
  "/>
<polyline clip-path="url(#clip5000)" style="stroke:#000000; stroke-width:4; stroke-opacity:1; fill:none" points="
  102.74,465.523 118.49,465.523 
  "/>
<polyline clip-path="url(#clip5000)" style="stroke:#000000; stroke-width:4; stroke-opacity:1; fill:none" points="
  102.74,429.1 118.49,429.1 
  "/>
<polyline clip-path="url(#clip5000)" style="stroke:#000000; stroke-width:4; stroke-opacity:1; fill:none" points="
  102.74,403.258 118.49,403.258 
  "/>
<polyline clip-path="url(#clip5000)" style="stroke:#000000; stroke-width:4; stroke-opacity:1; fill:none" points="
  102.74,383.213 118.49,383.213 
  "/>
<polyline clip-path="url(#clip5000)" style="stroke:#000000; stroke-width:4; stroke-opacity:1; fill:none" points="
  102.74,366.836 118.49,366.836 
  "/>
<polyline clip-path="url(#clip5000)" style="stroke:#000000; stroke-width:4; stroke-opacity:1; fill:none" points="
  102.74,352.988 118.49,352.988 
  "/>
<polyline clip-path="url(#clip5000)" style="stroke:#000000; stroke-width:4; stroke-opacity:1; fill:none" points="
  102.74,340.993 118.49,340.993 
  "/>
<polyline clip-path="url(#clip5000)" style="stroke:#000000; stroke-width:4; stroke-opacity:1; fill:none" points="
  102.74,330.413 118.49,330.413 
  "/>
<polyline clip-path="url(#clip5000)" style="stroke:#000000; stroke-width:4; stroke-opacity:1; fill:none" points="
  102.74,320.949 118.49,320.949 
  "/>
<polyline clip-path="url(#clip5000)" style="stroke:#000000; stroke-width:4; stroke-opacity:1; fill:none" points="
  102.74,258.684 118.49,258.684 
  "/>
<polyline clip-path="url(#clip5000)" style="stroke:#000000; stroke-width:4; stroke-opacity:1; fill:none" points="
  102.74,222.261 118.49,222.261 
  "/>
<polyline clip-path="url(#clip5000)" style="stroke:#000000; stroke-width:4; stroke-opacity:1; fill:none" points="
  102.74,196.419 118.49,196.419 
  "/>
<polyline clip-path="url(#clip5000)" style="stroke:#000000; stroke-width:4; stroke-opacity:1; fill:none" points="
  102.74,176.374 118.49,176.374 
  "/>
<polyline clip-path="url(#clip5000)" style="stroke:#000000; stroke-width:4; stroke-opacity:1; fill:none" points="
  102.74,159.997 118.49,159.997 
  "/>
<polyline clip-path="url(#clip5000)" style="stroke:#000000; stroke-width:4; stroke-opacity:1; fill:none" points="
  102.74,146.149 118.49,146.149 
  "/>
<polyline clip-path="url(#clip5000)" style="stroke:#000000; stroke-width:4; stroke-opacity:1; fill:none" points="
  102.74,134.154 118.49,134.154 
  "/>
<polyline clip-path="url(#clip5000)" style="stroke:#000000; stroke-width:4; stroke-opacity:1; fill:none" points="
  102.74,123.574 118.49,123.574 
  "/>
<polyline clip-path="url(#clip5000)" style="stroke:#000000; stroke-width:4; stroke-opacity:1; fill:none" points="
  102.74,114.11 118.49,114.11 
  "/>
<g clip-path="url(#clip5000)">
<text style="fill:#000000; fill-opacity:1; font-family:Arial,Helvetica Neue,Helvetica,sans-serif; font-size:48px; text-anchor:start;" transform="rotate(0, 83.4033, 733.424)" x="83.4033" y="733.424">10</text>
</g>
<g clip-path="url(#clip5000)">
<text style="fill:#000000; fill-opacity:1; font-family:Arial,Helvetica Neue,Helvetica,sans-serif; font-size:38px; text-anchor:start;" transform="rotate(0, 136.928, 706.013)" x="136.928" y="706.013">-</text>
</g>
<g clip-path="url(#clip5000)">
<text style="fill:#000000; fill-opacity:1; font-family:Arial,Helvetica Neue,Helvetica,sans-serif; font-size:38px; text-anchor:start;" transform="rotate(0, 159.767, 706.013)" x="159.767" y="706.013">1</text>
</g>
<g clip-path="url(#clip5000)">
<text style="fill:#000000; fill-opacity:1; font-family:Arial,Helvetica Neue,Helvetica,sans-serif; font-size:48px; text-anchor:start;" transform="rotate(0, 590.113, 733.424)" x="590.113" y="733.424">10</text>
</g>
<g clip-path="url(#clip5000)">
<text style="fill:#000000; fill-opacity:1; font-family:Arial,Helvetica Neue,Helvetica,sans-serif; font-size:38px; text-anchor:start;" transform="rotate(0, 643.638, 706.013)" x="643.638" y="706.013">0</text>
</g>
<g clip-path="url(#clip5000)">
<text style="fill:#000000; fill-opacity:1; font-family:Arial,Helvetica Neue,Helvetica,sans-serif; font-size:48px; text-anchor:start;" transform="rotate(0, 1085.4, 733.424)" x="1085.4" y="733.424">10</text>
</g>
<g clip-path="url(#clip5000)">
<text style="fill:#000000; fill-opacity:1; font-family:Arial,Helvetica Neue,Helvetica,sans-serif; font-size:38px; text-anchor:start;" transform="rotate(0, 1138.93, 706.013)" x="1138.93" y="706.013">1</text>
</g>
<g clip-path="url(#clip5000)">
<text style="fill:#000000; fill-opacity:1; font-family:Arial,Helvetica Neue,Helvetica,sans-serif; font-size:48px; text-anchor:start;" transform="rotate(0, -19.3684, 551.515)" x="-19.3684" y="551.515">10</text>
</g>
<g clip-path="url(#clip5000)">
<text style="fill:#000000; fill-opacity:1; font-family:Arial,Helvetica Neue,Helvetica,sans-serif; font-size:38px; text-anchor:start;" transform="rotate(0, 34.1563, 524.105)" x="34.1563" y="524.105">-</text>
</g>
<g clip-path="url(#clip5000)">
<text style="fill:#000000; fill-opacity:1; font-family:Arial,Helvetica Neue,Helvetica,sans-serif; font-size:38px; text-anchor:start;" transform="rotate(0, 56.9958, 524.105)" x="56.9958" y="524.105">2</text>
</g>
<g clip-path="url(#clip5000)">
<text style="fill:#000000; fill-opacity:1; font-family:Arial,Helvetica Neue,Helvetica,sans-serif; font-size:48px; text-anchor:start;" transform="rotate(0, -19.3684, 344.676)" x="-19.3684" y="344.676">10</text>
</g>
<g clip-path="url(#clip5000)">
<text style="fill:#000000; fill-opacity:1; font-family:Arial,Helvetica Neue,Helvetica,sans-serif; font-size:38px; text-anchor:start;" transform="rotate(0, 34.1563, 317.266)" x="34.1563" y="317.266">-</text>
</g>
<g clip-path="url(#clip5000)">
<text style="fill:#000000; fill-opacity:1; font-family:Arial,Helvetica Neue,Helvetica,sans-serif; font-size:38px; text-anchor:start;" transform="rotate(0, 56.9958, 317.266)" x="56.9958" y="317.266">1</text>
</g>
<g clip-path="url(#clip5000)">
<text style="fill:#000000; fill-opacity:1; font-family:Arial,Helvetica Neue,Helvetica,sans-serif; font-size:48px; text-anchor:start;" transform="rotate(0, 3.47108, 137.837)" x="3.47108" y="137.837">10</text>
</g>
<g clip-path="url(#clip5000)">
<text style="fill:#000000; fill-opacity:1; font-family:Arial,Helvetica Neue,Helvetica,sans-serif; font-size:38px; text-anchor:start;" transform="rotate(0, 56.9958, 110.427)" x="56.9958" y="110.427">0</text>
</g>
<g clip-path="url(#clip5000)">
<text style="fill:#000000; fill-opacity:1; font-family:Arial,Helvetica Neue,Helvetica,sans-serif; font-size:84px; text-anchor:middle;" transform="rotate(0, 627.748, 73.2)" x="627.748" y="73.2">S = 1/(1+PC)</text>
</g>
<g clip-path="url(#clip5000)">
<text style="fill:#000000; fill-opacity:1; font-family:Arial,Helvetica Neue,Helvetica,sans-serif; font-size:66px; text-anchor:middle;" transform="rotate(0, 627.748, 812.244)" x="627.748" y="812.244">Frequency (rad/s)</text>
</g>
<g clip-path="url(#clip5000)">
<text style="fill:#000000; fill-opacity:1; font-family:Arial,Helvetica Neue,Helvetica,sans-serif; font-size:66px; text-anchor:middle;" transform="rotate(-90, -54.9305, 360.704)" x="-54.9305" y="360.704">Magnitude </text>
</g>
<polyline clip-path="url(#clip5002)" style="stroke:#cc1414; stroke-width:4; stroke-opacity:1; fill:none" points="
  132.458,173.689 137.435,173.562 142.413,173.429 147.391,173.29 152.369,173.144 157.347,172.992 162.324,172.833 167.302,172.666 172.28,172.491 177.258,172.308 
  182.236,172.116 187.213,171.916 192.191,171.706 197.169,171.486 202.147,171.256 207.124,171.015 212.102,170.763 217.08,170.499 222.058,170.223 227.036,169.934 
  232.013,169.632 236.991,169.315 241.969,168.984 246.947,168.638 251.925,168.275 256.902,167.896 261.88,167.499 266.858,167.083 271.836,166.649 276.814,166.194 
  281.791,165.719 286.769,165.222 291.747,164.702 296.725,164.158 301.703,163.589 306.68,162.995 311.658,162.373 316.636,161.723 321.614,161.044 326.592,160.334 
  331.569,159.593 336.547,158.818 341.525,158.008 346.503,157.162 351.48,156.279 356.458,155.356 361.436,154.393 366.414,153.388 371.392,152.34 376.369,151.245 
  381.347,150.104 386.325,148.914 391.303,147.674 396.281,146.381 401.258,145.035 406.236,143.634 411.214,142.176 416.192,140.659 421.17,139.082 426.147,137.445 
  431.125,135.745 436.103,133.982 441.081,132.155 446.059,130.264 451.036,128.308 456.014,126.289 460.992,124.208 465.97,122.065 470.948,119.865 475.925,117.609 
  480.903,115.303 485.881,112.952 490.859,110.565 495.837,108.149 500.814,105.715 505.792,103.277 510.77,100.849 515.748,98.4479 520.725,96.0939 525.703,93.8084 
  530.681,91.6149 535.659,89.5383 540.637,87.6045 545.614,85.8392 550.592,84.267 555.57,82.9104 560.548,81.7882 565.526,80.9148 570.503,80.2989 575.481,79.9431 
  580.459,79.8438 585.437,79.9911 590.415,80.3699 595.392,80.9605 600.37,81.7399 605.348,82.683 610.326,83.7638 615.304,84.9564 620.281,86.2359 625.259,87.5789 
  630.237,88.9639 635.215,90.372 640.193,91.7862 645.17,93.1923 650.148,94.5778 655.126,95.9327 660.104,97.2487 665.081,98.5193 670.059,99.7392 675.037,100.905 
  680.015,102.014 684.993,103.064 689.97,104.054 694.948,104.985 699.926,105.857 704.904,106.671 709.882,107.428 714.859,108.13 719.837,108.779 724.815,109.377 
  729.793,109.926 734.771,110.429 739.748,110.887 744.726,111.305 749.704,111.683 754.682,112.025 759.66,112.332 764.637,112.608 769.615,112.855 774.593,113.074 
  779.571,113.269 784.549,113.441 789.526,113.592 794.504,113.723 799.482,113.838 804.46,113.937 809.437,114.021 814.415,114.093 819.393,114.154 824.371,114.205 
  829.349,114.246 834.326,114.28 839.304,114.307 844.282,114.328 849.26,114.343 854.238,114.354 859.215,114.361 864.193,114.365 869.171,114.366 874.149,114.364 
  879.127,114.361 884.104,114.356 889.082,114.349 894.06,114.342 899.038,114.333 904.016,114.325 908.993,114.315 913.971,114.306 918.949,114.296 923.927,114.287 
  928.905,114.277 933.882,114.268 938.86,114.259 943.838,114.25 948.816,114.241 953.794,114.233 958.771,114.225 963.749,114.218 968.727,114.21 973.705,114.203 
  978.682,114.197 983.66,114.191 988.638,114.185 993.616,114.18 998.594,114.175 1003.57,114.17 1008.55,114.165 1013.53,114.161 1018.5,114.157 1023.48,114.154 
  1028.46,114.15 1033.44,114.147 1038.42,114.144 1043.39,114.141 1048.37,114.139 1053.35,114.137 1058.33,114.134 1063.3,114.132 1068.28,114.131 1073.26,114.129 
  1078.24,114.127 1083.22,114.126 1088.19,114.124 1093.17,114.123 1098.15,114.122 1103.13,114.121 1108.11,114.12 1113.08,114.119 1118.06,114.118 1123.04,114.118 
  
  "/>
<polyline clip-path="url(#clip5002)" style="stroke:#14cc2a; stroke-width:4; stroke-opacity:1; fill:none" points="
  132.458,641.565 137.435,639.411 142.413,637.253 147.391,635.092 152.369,632.927 157.347,630.758 162.324,628.584 167.302,626.407 172.28,624.224 177.258,622.037 
  182.236,619.845 187.213,617.647 192.191,615.444 197.169,613.235 202.147,611.02 207.124,608.798 212.102,606.571 217.08,604.336 222.058,602.094 227.036,599.844 
  232.013,597.586 236.991,595.321 241.969,593.046 246.947,590.763 251.925,588.47 256.902,586.168 261.88,583.855 266.858,581.531 271.836,579.196 276.814,576.85 
  281.791,574.491 286.769,572.12 291.747,569.736 296.725,567.337 301.703,564.924 306.68,562.496 311.658,560.053 316.636,557.593 321.614,555.116 326.592,552.621 
  331.569,550.107 336.547,547.575 341.525,545.022 346.503,542.448 351.48,539.853 356.458,537.235 361.436,534.593 366.414,531.927 371.392,529.236 376.369,526.518 
  381.347,523.772 386.325,520.998 391.303,518.195 396.281,515.36 401.258,512.494 406.236,509.595 411.214,506.661 416.192,503.692 421.17,500.686 426.147,497.642 
  431.125,494.558 436.103,491.434 441.081,488.268 446.059,485.058 451.036,481.804 456.014,478.503 460.992,475.154 465.97,471.756 470.948,468.307 475.925,464.806 
  480.903,461.251 485.881,457.641 490.859,453.974 495.837,450.248 500.814,446.463 505.792,442.616 510.77,438.706 515.748,434.732 520.725,430.692 525.703,426.584 
  530.681,422.407 535.659,418.16 540.637,413.841 545.614,409.448 550.592,404.981 555.57,400.437 560.548,395.815 565.526,391.115 570.503,386.334 575.481,381.472 
  580.459,376.527 585.437,371.497 590.415,366.383 595.392,361.181 600.37,355.892 605.348,350.514 610.326,345.045 615.304,339.486 620.281,333.833 625.259,328.087 
  630.237,322.246 635.215,316.309 640.193,310.274 645.17,304.141 650.148,297.908 655.126,291.574 660.104,285.137 665.081,278.597 670.059,271.952 675.037,265.201 
  680.015,258.343 684.993,251.378 689.97,244.304 694.948,237.123 699.926,229.834 704.904,222.439 709.882,214.942 714.859,207.347 719.837,199.661 724.815,191.894 
  729.793,184.06 734.771,176.18 739.748,168.279 744.726,160.393 749.704,152.567 754.682,144.859 759.66,137.339 764.637,130.093 769.615,123.218 774.593,116.819 
  779.571,111.004 784.549,105.869 789.526,101.491 794.504,97.9159 799.482,95.1487 804.46,93.1565 809.437,91.8722 814.415,91.2049 819.393,91.052 824.371,91.3097 
  829.349,91.8812 834.326,92.6813 839.304,93.6386 844.282,94.6951 849.26,95.8056 854.238,96.9354 859.215,98.0589 864.193,99.1576 869.171,100.218 874.149,101.233 
  879.127,102.196 884.104,103.105 889.082,103.957 894.06,104.755 899.038,105.499 904.016,106.19 908.993,106.831 913.971,107.425 918.949,107.974 923.927,108.48 
  928.905,108.947 933.882,109.378 938.86,109.774 943.838,110.138 948.816,110.472 953.794,110.78 958.771,111.062 963.749,111.321 968.727,111.558 973.705,111.776 
  978.682,111.976 983.66,112.158 988.638,112.326 993.616,112.479 998.594,112.619 1003.57,112.748 1008.55,112.865 1013.53,112.973 1018.5,113.071 1023.48,113.161 
  1028.46,113.243 1033.44,113.318 1038.42,113.387 1043.39,113.45 1048.37,113.507 1053.35,113.56 1058.33,113.608 1063.3,113.651 1068.28,113.691 1073.26,113.728 
  1078.24,113.761 1083.22,113.792 1088.19,113.819 1093.17,113.845 1098.15,113.868 1103.13,113.889 1108.11,113.908 1113.08,113.926 1118.06,113.942 1123.04,113.957 
  
  "/>
<polygon clip-path="url(#clip5000)" points="
1302.74,658.417 2352.76,658.417 2352.76,62.9921 1302.74,62.9921 
  " fill="#ffffff" fill-rule="evenodd" fill-opacity="1"/>
<defs>
  <clipPath id="clip5003">
    <rect x="1302" y="62" width="1051" height="596"/>
  </clipPath>
</defs>
<polyline clip-path="url(#clip5003)" style="stroke:#000000; stroke-width:2; stroke-opacity:0.1; fill:none" points="
  1332.46,658.417 1332.46,62.9921 
  "/>
<polyline clip-path="url(#clip5003)" style="stroke:#000000; stroke-width:2; stroke-opacity:0.1; fill:none" points="
  1481.55,658.417 1481.55,62.9921 
  "/>
<polyline clip-path="url(#clip5003)" style="stroke:#000000; stroke-width:2; stroke-opacity:0.1; fill:none" points="
  1568.77,658.417 1568.77,62.9921 
  "/>
<polyline clip-path="url(#clip5003)" style="stroke:#000000; stroke-width:2; stroke-opacity:0.1; fill:none" points="
  1630.65,658.417 1630.65,62.9921 
  "/>
<polyline clip-path="url(#clip5003)" style="stroke:#000000; stroke-width:2; stroke-opacity:0.1; fill:none" points="
  1678.65,658.417 1678.65,62.9921 
  "/>
<polyline clip-path="url(#clip5003)" style="stroke:#000000; stroke-width:2; stroke-opacity:0.1; fill:none" points="
  1717.87,658.417 1717.87,62.9921 
  "/>
<polyline clip-path="url(#clip5003)" style="stroke:#000000; stroke-width:2; stroke-opacity:0.1; fill:none" points="
  1751.03,658.417 1751.03,62.9921 
  "/>
<polyline clip-path="url(#clip5003)" style="stroke:#000000; stroke-width:2; stroke-opacity:0.1; fill:none" points="
  1779.75,658.417 1779.75,62.9921 
  "/>
<polyline clip-path="url(#clip5003)" style="stroke:#000000; stroke-width:2; stroke-opacity:0.1; fill:none" points="
  1805.08,658.417 1805.08,62.9921 
  "/>
<polyline clip-path="url(#clip5003)" style="stroke:#000000; stroke-width:2; stroke-opacity:0.1; fill:none" points="
  1827.75,658.417 1827.75,62.9921 
  "/>
<polyline clip-path="url(#clip5003)" style="stroke:#000000; stroke-width:2; stroke-opacity:0.1; fill:none" points="
  1976.85,658.417 1976.85,62.9921 
  "/>
<polyline clip-path="url(#clip5003)" style="stroke:#000000; stroke-width:2; stroke-opacity:0.1; fill:none" points="
  2064.06,658.417 2064.06,62.9921 
  "/>
<polyline clip-path="url(#clip5003)" style="stroke:#000000; stroke-width:2; stroke-opacity:0.1; fill:none" points="
  2125.94,658.417 2125.94,62.9921 
  "/>
<polyline clip-path="url(#clip5003)" style="stroke:#000000; stroke-width:2; stroke-opacity:0.1; fill:none" points="
  2173.94,658.417 2173.94,62.9921 
  "/>
<polyline clip-path="url(#clip5003)" style="stroke:#000000; stroke-width:2; stroke-opacity:0.1; fill:none" points="
  2213.16,658.417 2213.16,62.9921 
  "/>
<polyline clip-path="url(#clip5003)" style="stroke:#000000; stroke-width:2; stroke-opacity:0.1; fill:none" points="
  2246.32,658.417 2246.32,62.9921 
  "/>
<polyline clip-path="url(#clip5003)" style="stroke:#000000; stroke-width:2; stroke-opacity:0.1; fill:none" points="
  2275.04,658.417 2275.04,62.9921 
  "/>
<polyline clip-path="url(#clip5003)" style="stroke:#000000; stroke-width:2; stroke-opacity:0.1; fill:none" points="
  2300.38,658.417 2300.38,62.9921 
  "/>
<polyline clip-path="url(#clip5003)" style="stroke:#000000; stroke-width:2; stroke-opacity:0.1; fill:none" points="
  2323.04,658.417 2323.04,62.9921 
  "/>
<polyline clip-path="url(#clip5003)" style="stroke:#000000; stroke-width:2; stroke-opacity:0.1; fill:none" points="
  1302.74,640.289 2352.76,640.289 
  "/>
<polyline clip-path="url(#clip5003)" style="stroke:#000000; stroke-width:2; stroke-opacity:0.1; fill:none" points="
  1302.74,596.053 2352.76,596.053 
  "/>
<polyline clip-path="url(#clip5003)" style="stroke:#000000; stroke-width:2; stroke-opacity:0.1; fill:none" points="
  1302.74,570.177 2352.76,570.177 
  "/>
<polyline clip-path="url(#clip5003)" style="stroke:#000000; stroke-width:2; stroke-opacity:0.1; fill:none" points="
  1302.74,551.817 2352.76,551.817 
  "/>
<polyline clip-path="url(#clip5003)" style="stroke:#000000; stroke-width:2; stroke-opacity:0.1; fill:none" points="
  1302.74,537.576 2352.76,537.576 
  "/>
<polyline clip-path="url(#clip5003)" style="stroke:#000000; stroke-width:2; stroke-opacity:0.1; fill:none" points="
  1302.74,525.94 2352.76,525.94 
  "/>
<polyline clip-path="url(#clip5003)" style="stroke:#000000; stroke-width:2; stroke-opacity:0.1; fill:none" points="
  1302.74,516.103 2352.76,516.103 
  "/>
<polyline clip-path="url(#clip5003)" style="stroke:#000000; stroke-width:2; stroke-opacity:0.1; fill:none" points="
  1302.74,507.581 2352.76,507.581 
  "/>
<polyline clip-path="url(#clip5003)" style="stroke:#000000; stroke-width:2; stroke-opacity:0.1; fill:none" points="
  1302.74,500.064 2352.76,500.064 
  "/>
<polyline clip-path="url(#clip5003)" style="stroke:#000000; stroke-width:2; stroke-opacity:0.1; fill:none" points="
  1302.74,493.34 2352.76,493.34 
  "/>
<polyline clip-path="url(#clip5003)" style="stroke:#000000; stroke-width:2; stroke-opacity:0.1; fill:none" points="
  1302.74,449.104 2352.76,449.104 
  "/>
<polyline clip-path="url(#clip5003)" style="stroke:#000000; stroke-width:2; stroke-opacity:0.1; fill:none" points="
  1302.74,423.227 2352.76,423.227 
  "/>
<polyline clip-path="url(#clip5003)" style="stroke:#000000; stroke-width:2; stroke-opacity:0.1; fill:none" points="
  1302.74,404.868 2352.76,404.868 
  "/>
<polyline clip-path="url(#clip5003)" style="stroke:#000000; stroke-width:2; stroke-opacity:0.1; fill:none" points="
  1302.74,390.627 2352.76,390.627 
  "/>
<polyline clip-path="url(#clip5003)" style="stroke:#000000; stroke-width:2; stroke-opacity:0.1; fill:none" points="
  1302.74,378.991 2352.76,378.991 
  "/>
<polyline clip-path="url(#clip5003)" style="stroke:#000000; stroke-width:2; stroke-opacity:0.1; fill:none" points="
  1302.74,369.153 2352.76,369.153 
  "/>
<polyline clip-path="url(#clip5003)" style="stroke:#000000; stroke-width:2; stroke-opacity:0.1; fill:none" points="
  1302.74,360.631 2352.76,360.631 
  "/>
<polyline clip-path="url(#clip5003)" style="stroke:#000000; stroke-width:2; stroke-opacity:0.1; fill:none" points="
  1302.74,353.115 2352.76,353.115 
  "/>
<polyline clip-path="url(#clip5003)" style="stroke:#000000; stroke-width:2; stroke-opacity:0.1; fill:none" points="
  1302.74,346.391 2352.76,346.391 
  "/>
<polyline clip-path="url(#clip5003)" style="stroke:#000000; stroke-width:2; stroke-opacity:0.1; fill:none" points="
  1302.74,302.154 2352.76,302.154 
  "/>
<polyline clip-path="url(#clip5003)" style="stroke:#000000; stroke-width:2; stroke-opacity:0.1; fill:none" points="
  1302.74,276.278 2352.76,276.278 
  "/>
<polyline clip-path="url(#clip5003)" style="stroke:#000000; stroke-width:2; stroke-opacity:0.1; fill:none" points="
  1302.74,257.918 2352.76,257.918 
  "/>
<polyline clip-path="url(#clip5000)" style="stroke:#000000; stroke-width:4; stroke-opacity:1; fill:none" points="
  1302.74,658.417 2352.76,658.417 
  "/>
<polyline clip-path="url(#clip5000)" style="stroke:#000000; stroke-width:4; stroke-opacity:1; fill:none" points="
  1302.74,658.417 1302.74,62.9921 
  "/>
<polyline clip-path="url(#clip5000)" style="stroke:#000000; stroke-width:4; stroke-opacity:1; fill:none" points="
  1332.46,658.417 1332.46,649.485 
  "/>
<polyline clip-path="url(#clip5000)" style="stroke:#000000; stroke-width:4; stroke-opacity:1; fill:none" points="
  1481.55,658.417 1481.55,649.485 
  "/>
<polyline clip-path="url(#clip5000)" style="stroke:#000000; stroke-width:4; stroke-opacity:1; fill:none" points="
  1568.77,658.417 1568.77,649.485 
  "/>
<polyline clip-path="url(#clip5000)" style="stroke:#000000; stroke-width:4; stroke-opacity:1; fill:none" points="
  1630.65,658.417 1630.65,649.485 
  "/>
<polyline clip-path="url(#clip5000)" style="stroke:#000000; stroke-width:4; stroke-opacity:1; fill:none" points="
  1678.65,658.417 1678.65,649.485 
  "/>
<polyline clip-path="url(#clip5000)" style="stroke:#000000; stroke-width:4; stroke-opacity:1; fill:none" points="
  1717.87,658.417 1717.87,649.485 
  "/>
<polyline clip-path="url(#clip5000)" style="stroke:#000000; stroke-width:4; stroke-opacity:1; fill:none" points="
  1751.03,658.417 1751.03,649.485 
  "/>
<polyline clip-path="url(#clip5000)" style="stroke:#000000; stroke-width:4; stroke-opacity:1; fill:none" points="
  1779.75,658.417 1779.75,649.485 
  "/>
<polyline clip-path="url(#clip5000)" style="stroke:#000000; stroke-width:4; stroke-opacity:1; fill:none" points="
  1805.08,658.417 1805.08,649.485 
  "/>
<polyline clip-path="url(#clip5000)" style="stroke:#000000; stroke-width:4; stroke-opacity:1; fill:none" points="
  1827.75,658.417 1827.75,649.485 
  "/>
<polyline clip-path="url(#clip5000)" style="stroke:#000000; stroke-width:4; stroke-opacity:1; fill:none" points="
  1976.85,658.417 1976.85,649.485 
  "/>
<polyline clip-path="url(#clip5000)" style="stroke:#000000; stroke-width:4; stroke-opacity:1; fill:none" points="
  2064.06,658.417 2064.06,649.485 
  "/>
<polyline clip-path="url(#clip5000)" style="stroke:#000000; stroke-width:4; stroke-opacity:1; fill:none" points="
  2125.94,658.417 2125.94,649.485 
  "/>
<polyline clip-path="url(#clip5000)" style="stroke:#000000; stroke-width:4; stroke-opacity:1; fill:none" points="
  2173.94,658.417 2173.94,649.485 
  "/>
<polyline clip-path="url(#clip5000)" style="stroke:#000000; stroke-width:4; stroke-opacity:1; fill:none" points="
  2213.16,658.417 2213.16,649.485 
  "/>
<polyline clip-path="url(#clip5000)" style="stroke:#000000; stroke-width:4; stroke-opacity:1; fill:none" points="
  2246.32,658.417 2246.32,649.485 
  "/>
<polyline clip-path="url(#clip5000)" style="stroke:#000000; stroke-width:4; stroke-opacity:1; fill:none" points="
  2275.04,658.417 2275.04,649.485 
  "/>
<polyline clip-path="url(#clip5000)" style="stroke:#000000; stroke-width:4; stroke-opacity:1; fill:none" points="
  2300.38,658.417 2300.38,649.485 
  "/>
<polyline clip-path="url(#clip5000)" style="stroke:#000000; stroke-width:4; stroke-opacity:1; fill:none" points="
  2323.04,658.417 2323.04,649.485 
  "/>
<polyline clip-path="url(#clip5000)" style="stroke:#000000; stroke-width:4; stroke-opacity:1; fill:none" points="
  1302.74,640.289 1318.49,640.289 
  "/>
<polyline clip-path="url(#clip5000)" style="stroke:#000000; stroke-width:4; stroke-opacity:1; fill:none" points="
  1302.74,596.053 1318.49,596.053 
  "/>
<polyline clip-path="url(#clip5000)" style="stroke:#000000; stroke-width:4; stroke-opacity:1; fill:none" points="
  1302.74,570.177 1318.49,570.177 
  "/>
<polyline clip-path="url(#clip5000)" style="stroke:#000000; stroke-width:4; stroke-opacity:1; fill:none" points="
  1302.74,551.817 1318.49,551.817 
  "/>
<polyline clip-path="url(#clip5000)" style="stroke:#000000; stroke-width:4; stroke-opacity:1; fill:none" points="
  1302.74,537.576 1318.49,537.576 
  "/>
<polyline clip-path="url(#clip5000)" style="stroke:#000000; stroke-width:4; stroke-opacity:1; fill:none" points="
  1302.74,525.94 1318.49,525.94 
  "/>
<polyline clip-path="url(#clip5000)" style="stroke:#000000; stroke-width:4; stroke-opacity:1; fill:none" points="
  1302.74,516.103 1318.49,516.103 
  "/>
<polyline clip-path="url(#clip5000)" style="stroke:#000000; stroke-width:4; stroke-opacity:1; fill:none" points="
  1302.74,507.581 1318.49,507.581 
  "/>
<polyline clip-path="url(#clip5000)" style="stroke:#000000; stroke-width:4; stroke-opacity:1; fill:none" points="
  1302.74,500.064 1318.49,500.064 
  "/>
<polyline clip-path="url(#clip5000)" style="stroke:#000000; stroke-width:4; stroke-opacity:1; fill:none" points="
  1302.74,493.34 1318.49,493.34 
  "/>
<polyline clip-path="url(#clip5000)" style="stroke:#000000; stroke-width:4; stroke-opacity:1; fill:none" points="
  1302.74,449.104 1318.49,449.104 
  "/>
<polyline clip-path="url(#clip5000)" style="stroke:#000000; stroke-width:4; stroke-opacity:1; fill:none" points="
  1302.74,423.227 1318.49,423.227 
  "/>
<polyline clip-path="url(#clip5000)" style="stroke:#000000; stroke-width:4; stroke-opacity:1; fill:none" points="
  1302.74,404.868 1318.49,404.868 
  "/>
<polyline clip-path="url(#clip5000)" style="stroke:#000000; stroke-width:4; stroke-opacity:1; fill:none" points="
  1302.74,390.627 1318.49,390.627 
  "/>
<polyline clip-path="url(#clip5000)" style="stroke:#000000; stroke-width:4; stroke-opacity:1; fill:none" points="
  1302.74,378.991 1318.49,378.991 
  "/>
<polyline clip-path="url(#clip5000)" style="stroke:#000000; stroke-width:4; stroke-opacity:1; fill:none" points="
  1302.74,369.153 1318.49,369.153 
  "/>
<polyline clip-path="url(#clip5000)" style="stroke:#000000; stroke-width:4; stroke-opacity:1; fill:none" points="
  1302.74,360.631 1318.49,360.631 
  "/>
<polyline clip-path="url(#clip5000)" style="stroke:#000000; stroke-width:4; stroke-opacity:1; fill:none" points="
  1302.74,353.115 1318.49,353.115 
  "/>
<polyline clip-path="url(#clip5000)" style="stroke:#000000; stroke-width:4; stroke-opacity:1; fill:none" points="
  1302.74,346.391 1318.49,346.391 
  "/>
<polyline clip-path="url(#clip5000)" style="stroke:#000000; stroke-width:4; stroke-opacity:1; fill:none" points="
  1302.74,302.154 1318.49,302.154 
  "/>
<polyline clip-path="url(#clip5000)" style="stroke:#000000; stroke-width:4; stroke-opacity:1; fill:none" points="
  1302.74,276.278 1318.49,276.278 
  "/>
<polyline clip-path="url(#clip5000)" style="stroke:#000000; stroke-width:4; stroke-opacity:1; fill:none" points="
  1302.74,257.918 1318.49,257.918 
  "/>
<g clip-path="url(#clip5000)">
<text style="fill:#000000; fill-opacity:1; font-family:Arial,Helvetica Neue,Helvetica,sans-serif; font-size:48px; text-anchor:start;" transform="rotate(0, 1283.4, 733.424)" x="1283.4" y="733.424">10</text>
</g>
<g clip-path="url(#clip5000)">
<text style="fill:#000000; fill-opacity:1; font-family:Arial,Helvetica Neue,Helvetica,sans-serif; font-size:38px; text-anchor:start;" transform="rotate(0, 1336.93, 706.013)" x="1336.93" y="706.013">-</text>
</g>
<g clip-path="url(#clip5000)">
<text style="fill:#000000; fill-opacity:1; font-family:Arial,Helvetica Neue,Helvetica,sans-serif; font-size:38px; text-anchor:start;" transform="rotate(0, 1359.77, 706.013)" x="1359.77" y="706.013">1</text>
</g>
<g clip-path="url(#clip5000)">
<text style="fill:#000000; fill-opacity:1; font-family:Arial,Helvetica Neue,Helvetica,sans-serif; font-size:48px; text-anchor:start;" transform="rotate(0, 1790.11, 733.424)" x="1790.11" y="733.424">10</text>
</g>
<g clip-path="url(#clip5000)">
<text style="fill:#000000; fill-opacity:1; font-family:Arial,Helvetica Neue,Helvetica,sans-serif; font-size:38px; text-anchor:start;" transform="rotate(0, 1843.64, 706.013)" x="1843.64" y="706.013">0</text>
</g>
<g clip-path="url(#clip5000)">
<text style="fill:#000000; fill-opacity:1; font-family:Arial,Helvetica Neue,Helvetica,sans-serif; font-size:48px; text-anchor:start;" transform="rotate(0, 2285.4, 733.424)" x="2285.4" y="733.424">10</text>
</g>
<g clip-path="url(#clip5000)">
<text style="fill:#000000; fill-opacity:1; font-family:Arial,Helvetica Neue,Helvetica,sans-serif; font-size:38px; text-anchor:start;" transform="rotate(0, 2338.93, 706.013)" x="2338.93" y="706.013">1</text>
</g>
<g clip-path="url(#clip5000)">
<text style="fill:#000000; fill-opacity:1; font-family:Arial,Helvetica Neue,Helvetica,sans-serif; font-size:48px; text-anchor:start;" transform="rotate(0, 1180.63, 664.017)" x="1180.63" y="664.017">10</text>
</g>
<g clip-path="url(#clip5000)">
<text style="fill:#000000; fill-opacity:1; font-family:Arial,Helvetica Neue,Helvetica,sans-serif; font-size:38px; text-anchor:start;" transform="rotate(0, 1234.16, 636.606)" x="1234.16" y="636.606">-</text>
</g>
<g clip-path="url(#clip5000)">
<text style="fill:#000000; fill-opacity:1; font-family:Arial,Helvetica Neue,Helvetica,sans-serif; font-size:38px; text-anchor:start;" transform="rotate(0, 1257, 636.606)" x="1257" y="636.606">4</text>
</g>
<g clip-path="url(#clip5000)">
<text style="fill:#000000; fill-opacity:1; font-family:Arial,Helvetica Neue,Helvetica,sans-serif; font-size:48px; text-anchor:start;" transform="rotate(0, 1180.63, 517.067)" x="1180.63" y="517.067">10</text>
</g>
<g clip-path="url(#clip5000)">
<text style="fill:#000000; fill-opacity:1; font-family:Arial,Helvetica Neue,Helvetica,sans-serif; font-size:38px; text-anchor:start;" transform="rotate(0, 1234.16, 489.657)" x="1234.16" y="489.657">-</text>
</g>
<g clip-path="url(#clip5000)">
<text style="fill:#000000; fill-opacity:1; font-family:Arial,Helvetica Neue,Helvetica,sans-serif; font-size:38px; text-anchor:start;" transform="rotate(0, 1257, 489.657)" x="1257" y="489.657">3</text>
</g>
<g clip-path="url(#clip5000)">
<text style="fill:#000000; fill-opacity:1; font-family:Arial,Helvetica Neue,Helvetica,sans-serif; font-size:48px; text-anchor:start;" transform="rotate(0, 1180.63, 370.118)" x="1180.63" y="370.118">10</text>
</g>
<g clip-path="url(#clip5000)">
<text style="fill:#000000; fill-opacity:1; font-family:Arial,Helvetica Neue,Helvetica,sans-serif; font-size:38px; text-anchor:start;" transform="rotate(0, 1234.16, 342.708)" x="1234.16" y="342.708">-</text>
</g>
<g clip-path="url(#clip5000)">
<text style="fill:#000000; fill-opacity:1; font-family:Arial,Helvetica Neue,Helvetica,sans-serif; font-size:38px; text-anchor:start;" transform="rotate(0, 1257, 342.708)" x="1257" y="342.708">2</text>
</g>
<g clip-path="url(#clip5000)">
<text style="fill:#000000; fill-opacity:1; font-family:Arial,Helvetica Neue,Helvetica,sans-serif; font-size:84px; text-anchor:middle;" transform="rotate(0, 1827.75, 73.2)" x="1827.75" y="73.2">D = P/(1+PC)</text>
</g>
<g clip-path="url(#clip5000)">
<text style="fill:#000000; fill-opacity:1; font-family:Arial,Helvetica Neue,Helvetica,sans-serif; font-size:66px; text-anchor:middle;" transform="rotate(0, 1827.75, 812.244)" x="1827.75" y="812.244">Frequency (rad/s)</text>
</g>
<g clip-path="url(#clip5000)">
<text style="fill:#000000; fill-opacity:1; font-family:Arial,Helvetica Neue,Helvetica,sans-serif; font-size:66px; text-anchor:middle;" transform="rotate(-90, 1145.07, 360.704)" x="1145.07" y="360.704">Magnitude </text>
</g>
<polyline clip-path="url(#clip5003)" style="stroke:#cc1414; stroke-width:4; stroke-opacity:1; fill:none" points="
  1332.46,96.09 1337.44,96.0597 1342.41,96.0281 1347.39,95.995 1352.37,95.9602 1357.35,95.9239 1362.32,95.8858 1367.3,95.8459 1372.28,95.8041 1377.26,95.7604 
  1382.24,95.7146 1387.21,95.6666 1392.19,95.6164 1397.17,95.5637 1402.15,95.5086 1407.12,95.4509 1412.1,95.3905 1417.08,95.3272 1422.06,95.2609 1427.04,95.1915 
  1432.01,95.1188 1436.99,95.0427 1441.97,94.963 1446.95,94.8796 1451.92,94.7922 1456.9,94.7008 1461.88,94.605 1466.86,94.5047 1471.84,94.3998 1476.81,94.2899 
  1481.79,94.1749 1486.77,94.0545 1491.75,93.9284 1496.72,93.7965 1501.7,93.6585 1506.68,93.5141 1511.66,93.3629 1516.64,93.2048 1521.61,93.0394 1526.59,92.8664 
  1531.57,92.6855 1536.55,92.4963 1541.52,92.2986 1546.5,92.0919 1551.48,91.8759 1556.46,91.6502 1561.44,91.4146 1566.41,91.1685 1571.39,90.9117 1576.37,90.6439 
  1581.35,90.3645 1586.33,90.0734 1591.3,89.7702 1596.28,89.4546 1601.26,89.1263 1606.24,88.7852 1611.21,88.4311 1616.19,88.0639 1621.17,87.6836 1626.15,87.2904 
  1631.13,86.8844 1636.1,86.4663 1641.08,86.0364 1646.06,85.5958 1651.04,85.1456 1656.01,84.6873 1660.99,84.2229 1665.97,83.7546 1670.95,83.2856 1675.93,82.8194 
  1680.9,82.3606 1685.88,81.9145 1690.86,81.4874 1695.84,81.0869 1700.81,80.722 1705.79,80.4028 1710.77,80.1411 1715.75,79.9505 1720.73,79.8459 1725.7,79.8438 
  1730.68,79.962 1735.66,80.2195 1740.64,80.6355 1745.61,81.2296 1750.59,82.0201 1755.57,83.0241 1760.55,84.2558 1765.53,85.7263 1770.5,87.4427 1775.48,89.4077 
  1780.46,91.6193 1785.44,94.0713 1790.41,96.7535 1795.39,99.6526 1800.37,102.753 1805.35,106.036 1810.33,109.485 1815.3,113.081 1820.28,116.808 1825.26,120.647 
  1830.24,124.585 1835.21,128.607 1840.19,132.702 1845.17,136.86 1850.15,141.071 1855.13,145.327 1860.1,149.623 1865.08,153.954 1870.06,158.315 1875.04,162.704 
  1880.01,167.117 1884.99,171.552 1889.97,176.01 1894.95,180.488 1899.93,184.986 1904.9,189.504 1909.88,194.042 1914.86,198.6 1919.84,203.178 1924.82,207.778 
  1929.79,212.399 1934.77,217.042 1939.75,221.707 1944.73,226.396 1949.7,231.109 1954.68,235.846 1959.66,240.608 1964.64,245.396 1969.62,250.209 1974.59,255.049 
  1979.57,259.915 1984.55,264.808 1989.53,269.728 1994.5,274.676 1999.48,279.65 2004.46,284.652 2009.44,289.681 2014.42,294.736 2019.39,299.819 2024.37,304.928 
  2029.35,310.063 2034.33,315.224 2039.3,320.411 2044.28,325.623 2049.26,330.86 2054.24,336.121 2059.22,341.405 2064.19,346.713 2069.17,352.043 2074.15,357.395 
  2079.13,362.768 2084.1,368.163 2089.08,373.577 2094.06,379.012 2099.04,384.465 2104.02,389.936 2108.99,395.426 2113.97,400.932 2118.95,406.455 2123.93,411.995 
  2128.9,417.549 2133.88,423.119 2138.86,428.703 2143.84,434.3 2148.82,439.911 2153.79,445.535 2158.77,451.171 2163.75,456.819 2168.73,462.478 2173.7,468.147 
  2178.68,473.828 2183.66,479.518 2188.64,485.218 2193.62,490.926 2198.59,496.644 2203.57,502.37 2208.55,508.104 2213.53,513.846 2218.5,519.595 2223.48,525.351 
  2228.46,531.114 2233.44,536.884 2238.42,542.659 2243.39,548.441 2248.37,554.228 2253.35,560.02 2258.33,565.818 2263.3,571.62 2268.28,577.428 2273.26,583.239 
  2278.24,589.056 2283.22,594.876 2288.19,600.7 2293.17,606.528 2298.15,612.359 2303.13,618.194 2308.11,624.032 2313.08,629.874 2318.06,635.718 2323.04,641.565 
  
  "/>
<polyline clip-path="url(#clip5003)" style="stroke:#14cc2a; stroke-width:4; stroke-opacity:1; fill:none" points="
  1332.46,428.494 1337.44,427.023 1342.41,425.553 1347.39,424.083 1352.37,422.614 1357.35,421.145 1362.32,419.676 1367.3,418.207 1372.28,416.739 1377.26,415.271 
  1382.24,413.804 1387.21,412.337 1392.19,410.871 1397.17,409.405 1402.15,407.94 1407.12,406.475 1412.1,405.011 1417.08,403.547 1422.06,402.084 1427.04,400.622 
  1432.01,399.16 1436.99,397.699 1441.97,396.239 1446.95,394.78 1451.92,393.321 1456.9,391.863 1461.88,390.406 1466.86,388.95 1471.84,387.495 1476.81,386.041 
  1481.79,384.588 1486.77,383.136 1491.75,381.686 1496.72,380.236 1501.7,378.788 1506.68,377.341 1511.66,375.895 1516.64,374.451 1521.61,373.008 1526.59,371.567 
  1531.57,370.128 1536.55,368.69 1541.52,367.254 1546.5,365.819 1551.48,364.387 1556.46,362.957 1561.44,361.529 1566.41,360.102 1571.39,358.679 1576.37,357.257 
  1581.35,355.838 1586.33,354.421 1591.3,353.008 1596.28,351.596 1601.26,350.188 1606.24,348.783 1611.21,347.38 1616.19,345.981 1621.17,344.586 1626.15,343.193 
  1631.13,341.804 1636.1,340.419 1641.08,339.038 1646.06,337.66 1651.04,336.287 1656.01,334.918 1660.99,333.553 1665.97,332.193 1670.95,330.837 1675.93,329.486 
  1680.9,328.14 1685.88,326.799 1690.86,325.463 1695.84,324.132 1700.81,322.807 1705.79,321.487 1710.77,320.173 1715.75,318.865 1720.73,317.562 1725.7,316.265 
  1730.68,314.974 1735.66,313.69 1740.64,312.411 1745.61,311.138 1750.59,309.872 1755.57,308.611 1760.55,307.357 1765.53,306.109 1770.5,304.866 1775.48,303.63 
  1780.46,302.398 1785.44,301.173 1790.41,299.952 1795.39,298.736 1800.37,297.525 1805.35,296.317 1810.33,295.113 1815.3,293.912 1820.28,292.714 1825.26,291.517 
  1830.24,290.321 1835.21,289.125 1840.19,287.928 1845.17,286.729 1850.15,285.527 1855.13,284.321 1860.1,283.109 1865.08,281.891 1870.06,280.664 1875.04,279.428 
  1880.01,278.181 1884.99,276.923 1889.97,275.651 1894.95,274.365 1899.93,273.065 1904.9,271.751 1909.88,270.425 1914.86,269.088 1919.84,267.745 1924.82,266.402 
  1929.79,265.067 1934.77,263.755 1939.75,262.481 1944.73,261.271 1949.7,260.155 1954.68,259.173 1959.66,258.375 1964.64,257.818 1969.62,257.572 1974.59,257.71 
  1979.57,258.306 1984.55,259.429 1989.53,261.132 1994.5,263.445 1999.48,266.372 2004.46,269.889 2009.44,273.945 2014.42,278.475 2019.39,283.406 2024.37,288.662 
  2029.35,294.174 2034.33,299.879 2039.3,305.727 2044.28,311.675 2049.26,317.69 2054.24,323.745 2059.22,329.823 2064.19,335.908 2069.17,341.992 2074.15,348.066 
  2079.13,354.126 2084.1,360.169 2089.08,366.195 2094.06,372.201 2099.04,378.188 2104.02,384.157 2108.99,390.108 2113.97,396.043 2118.95,401.963 2123.93,407.869 
  2128.9,413.763 2133.88,419.645 2138.86,425.516 2143.84,431.379 2148.82,437.234 2153.79,443.082 2158.77,448.924 2163.75,454.761 2168.73,460.594 2173.7,466.423 
  2178.68,472.25 2183.66,478.074 2188.64,483.897 2193.62,489.718 2198.59,495.539 2203.57,501.36 2208.55,507.181 2213.53,513.002 2218.5,518.823 2223.48,524.646 
  2228.46,530.47 2233.44,536.295 2238.42,542.121 2243.39,547.949 2248.37,553.779 2253.35,559.61 2258.33,565.444 2263.3,571.279 2268.28,577.116 2273.26,582.955 
  2278.24,588.795 2283.22,594.638 2288.19,600.483 2293.17,606.33 2298.15,612.179 2303.13,618.029 2308.11,623.882 2313.08,629.736 2318.06,635.593 2323.04,641.451 
  
  "/>
<polygon clip-path="url(#clip5000)" points="
102.74,1458.42 1152.76,1458.42 1152.76,862.992 102.74,862.992 
  " fill="#ffffff" fill-rule="evenodd" fill-opacity="1"/>
<defs>
  <clipPath id="clip5004">
    <rect x="102" y="862" width="1051" height="596"/>
  </clipPath>
</defs>
<polyline clip-path="url(#clip5004)" style="stroke:#000000; stroke-width:2; stroke-opacity:0.1; fill:none" points="
  132.458,1458.42 132.458,862.992 
  "/>
<polyline clip-path="url(#clip5004)" style="stroke:#000000; stroke-width:2; stroke-opacity:0.1; fill:none" points="
  281.555,1458.42 281.555,862.992 
  "/>
<polyline clip-path="url(#clip5004)" style="stroke:#000000; stroke-width:2; stroke-opacity:0.1; fill:none" points="
  368.771,1458.42 368.771,862.992 
  "/>
<polyline clip-path="url(#clip5004)" style="stroke:#000000; stroke-width:2; stroke-opacity:0.1; fill:none" points="
  430.652,1458.42 430.652,862.992 
  "/>
<polyline clip-path="url(#clip5004)" style="stroke:#000000; stroke-width:2; stroke-opacity:0.1; fill:none" points="
  478.651,1458.42 478.651,862.992 
  "/>
<polyline clip-path="url(#clip5004)" style="stroke:#000000; stroke-width:2; stroke-opacity:0.1; fill:none" points="
  517.868,1458.42 517.868,862.992 
  "/>
<polyline clip-path="url(#clip5004)" style="stroke:#000000; stroke-width:2; stroke-opacity:0.1; fill:none" points="
  551.027,1458.42 551.027,862.992 
  "/>
<polyline clip-path="url(#clip5004)" style="stroke:#000000; stroke-width:2; stroke-opacity:0.1; fill:none" points="
  579.749,1458.42 579.749,862.992 
  "/>
<polyline clip-path="url(#clip5004)" style="stroke:#000000; stroke-width:2; stroke-opacity:0.1; fill:none" points="
  605.085,1458.42 605.085,862.992 
  "/>
<polyline clip-path="url(#clip5004)" style="stroke:#000000; stroke-width:2; stroke-opacity:0.1; fill:none" points="
  627.748,1458.42 627.748,862.992 
  "/>
<polyline clip-path="url(#clip5004)" style="stroke:#000000; stroke-width:2; stroke-opacity:0.1; fill:none" points="
  776.845,1458.42 776.845,862.992 
  "/>
<polyline clip-path="url(#clip5004)" style="stroke:#000000; stroke-width:2; stroke-opacity:0.1; fill:none" points="
  864.062,1458.42 864.062,862.992 
  "/>
<polyline clip-path="url(#clip5004)" style="stroke:#000000; stroke-width:2; stroke-opacity:0.1; fill:none" points="
  925.943,1458.42 925.943,862.992 
  "/>
<polyline clip-path="url(#clip5004)" style="stroke:#000000; stroke-width:2; stroke-opacity:0.1; fill:none" points="
  973.941,1458.42 973.941,862.992 
  "/>
<polyline clip-path="url(#clip5004)" style="stroke:#000000; stroke-width:2; stroke-opacity:0.1; fill:none" points="
  1013.16,1458.42 1013.16,862.992 
  "/>
<polyline clip-path="url(#clip5004)" style="stroke:#000000; stroke-width:2; stroke-opacity:0.1; fill:none" points="
  1046.32,1458.42 1046.32,862.992 
  "/>
<polyline clip-path="url(#clip5004)" style="stroke:#000000; stroke-width:2; stroke-opacity:0.1; fill:none" points="
  1075.04,1458.42 1075.04,862.992 
  "/>
<polyline clip-path="url(#clip5004)" style="stroke:#000000; stroke-width:2; stroke-opacity:0.1; fill:none" points="
  1100.38,1458.42 1100.38,862.992 
  "/>
<polyline clip-path="url(#clip5004)" style="stroke:#000000; stroke-width:2; stroke-opacity:0.1; fill:none" points="
  1123.04,1458.42 1123.04,862.992 
  "/>
<polyline clip-path="url(#clip5004)" style="stroke:#000000; stroke-width:2; stroke-opacity:0.1; fill:none" points="
  102.74,1253.73 1152.76,1253.73 
  "/>
<polyline clip-path="url(#clip5004)" style="stroke:#000000; stroke-width:2; stroke-opacity:0.1; fill:none" points="
  102.74,1197.58 1152.76,1197.58 
  "/>
<polyline clip-path="url(#clip5004)" style="stroke:#000000; stroke-width:2; stroke-opacity:0.1; fill:none" points="
  102.74,1157.74 1152.76,1157.74 
  "/>
<polyline clip-path="url(#clip5004)" style="stroke:#000000; stroke-width:2; stroke-opacity:0.1; fill:none" points="
  102.74,1126.84 1152.76,1126.84 
  "/>
<polyline clip-path="url(#clip5004)" style="stroke:#000000; stroke-width:2; stroke-opacity:0.1; fill:none" points="
  102.74,1101.59 1152.76,1101.59 
  "/>
<polyline clip-path="url(#clip5004)" style="stroke:#000000; stroke-width:2; stroke-opacity:0.1; fill:none" points="
  102.74,1080.25 1152.76,1080.25 
  "/>
<polyline clip-path="url(#clip5004)" style="stroke:#000000; stroke-width:2; stroke-opacity:0.1; fill:none" points="
  102.74,1061.76 1152.76,1061.76 
  "/>
<polyline clip-path="url(#clip5004)" style="stroke:#000000; stroke-width:2; stroke-opacity:0.1; fill:none" points="
  102.74,1045.44 1152.76,1045.44 
  "/>
<polyline clip-path="url(#clip5004)" style="stroke:#000000; stroke-width:2; stroke-opacity:0.1; fill:none" points="
  102.74,1030.85 1152.76,1030.85 
  "/>
<polyline clip-path="url(#clip5004)" style="stroke:#000000; stroke-width:2; stroke-opacity:0.1; fill:none" points="
  102.74,934.867 1152.76,934.867 
  "/>
<polyline clip-path="url(#clip5000)" style="stroke:#000000; stroke-width:4; stroke-opacity:1; fill:none" points="
  102.74,1458.42 1152.76,1458.42 
  "/>
<polyline clip-path="url(#clip5000)" style="stroke:#000000; stroke-width:4; stroke-opacity:1; fill:none" points="
  102.74,1458.42 102.74,862.992 
  "/>
<polyline clip-path="url(#clip5000)" style="stroke:#000000; stroke-width:4; stroke-opacity:1; fill:none" points="
  132.458,1458.42 132.458,1449.49 
  "/>
<polyline clip-path="url(#clip5000)" style="stroke:#000000; stroke-width:4; stroke-opacity:1; fill:none" points="
  281.555,1458.42 281.555,1449.49 
  "/>
<polyline clip-path="url(#clip5000)" style="stroke:#000000; stroke-width:4; stroke-opacity:1; fill:none" points="
  368.771,1458.42 368.771,1449.49 
  "/>
<polyline clip-path="url(#clip5000)" style="stroke:#000000; stroke-width:4; stroke-opacity:1; fill:none" points="
  430.652,1458.42 430.652,1449.49 
  "/>
<polyline clip-path="url(#clip5000)" style="stroke:#000000; stroke-width:4; stroke-opacity:1; fill:none" points="
  478.651,1458.42 478.651,1449.49 
  "/>
<polyline clip-path="url(#clip5000)" style="stroke:#000000; stroke-width:4; stroke-opacity:1; fill:none" points="
  517.868,1458.42 517.868,1449.49 
  "/>
<polyline clip-path="url(#clip5000)" style="stroke:#000000; stroke-width:4; stroke-opacity:1; fill:none" points="
  551.027,1458.42 551.027,1449.49 
  "/>
<polyline clip-path="url(#clip5000)" style="stroke:#000000; stroke-width:4; stroke-opacity:1; fill:none" points="
  579.749,1458.42 579.749,1449.49 
  "/>
<polyline clip-path="url(#clip5000)" style="stroke:#000000; stroke-width:4; stroke-opacity:1; fill:none" points="
  605.085,1458.42 605.085,1449.49 
  "/>
<polyline clip-path="url(#clip5000)" style="stroke:#000000; stroke-width:4; stroke-opacity:1; fill:none" points="
  627.748,1458.42 627.748,1449.49 
  "/>
<polyline clip-path="url(#clip5000)" style="stroke:#000000; stroke-width:4; stroke-opacity:1; fill:none" points="
  776.845,1458.42 776.845,1449.49 
  "/>
<polyline clip-path="url(#clip5000)" style="stroke:#000000; stroke-width:4; stroke-opacity:1; fill:none" points="
  864.062,1458.42 864.062,1449.49 
  "/>
<polyline clip-path="url(#clip5000)" style="stroke:#000000; stroke-width:4; stroke-opacity:1; fill:none" points="
  925.943,1458.42 925.943,1449.49 
  "/>
<polyline clip-path="url(#clip5000)" style="stroke:#000000; stroke-width:4; stroke-opacity:1; fill:none" points="
  973.941,1458.42 973.941,1449.49 
  "/>
<polyline clip-path="url(#clip5000)" style="stroke:#000000; stroke-width:4; stroke-opacity:1; fill:none" points="
  1013.16,1458.42 1013.16,1449.49 
  "/>
<polyline clip-path="url(#clip5000)" style="stroke:#000000; stroke-width:4; stroke-opacity:1; fill:none" points="
  1046.32,1458.42 1046.32,1449.49 
  "/>
<polyline clip-path="url(#clip5000)" style="stroke:#000000; stroke-width:4; stroke-opacity:1; fill:none" points="
  1075.04,1458.42 1075.04,1449.49 
  "/>
<polyline clip-path="url(#clip5000)" style="stroke:#000000; stroke-width:4; stroke-opacity:1; fill:none" points="
  1100.38,1458.42 1100.38,1449.49 
  "/>
<polyline clip-path="url(#clip5000)" style="stroke:#000000; stroke-width:4; stroke-opacity:1; fill:none" points="
  1123.04,1458.42 1123.04,1449.49 
  "/>
<polyline clip-path="url(#clip5000)" style="stroke:#000000; stroke-width:4; stroke-opacity:1; fill:none" points="
  102.74,1253.73 118.49,1253.73 
  "/>
<polyline clip-path="url(#clip5000)" style="stroke:#000000; stroke-width:4; stroke-opacity:1; fill:none" points="
  102.74,1197.58 118.49,1197.58 
  "/>
<polyline clip-path="url(#clip5000)" style="stroke:#000000; stroke-width:4; stroke-opacity:1; fill:none" points="
  102.74,1157.74 118.49,1157.74 
  "/>
<polyline clip-path="url(#clip5000)" style="stroke:#000000; stroke-width:4; stroke-opacity:1; fill:none" points="
  102.74,1126.84 118.49,1126.84 
  "/>
<polyline clip-path="url(#clip5000)" style="stroke:#000000; stroke-width:4; stroke-opacity:1; fill:none" points="
  102.74,1101.59 118.49,1101.59 
  "/>
<polyline clip-path="url(#clip5000)" style="stroke:#000000; stroke-width:4; stroke-opacity:1; fill:none" points="
  102.74,1080.25 118.49,1080.25 
  "/>
<polyline clip-path="url(#clip5000)" style="stroke:#000000; stroke-width:4; stroke-opacity:1; fill:none" points="
  102.74,1061.76 118.49,1061.76 
  "/>
<polyline clip-path="url(#clip5000)" style="stroke:#000000; stroke-width:4; stroke-opacity:1; fill:none" points="
  102.74,1045.44 118.49,1045.44 
  "/>
<polyline clip-path="url(#clip5000)" style="stroke:#000000; stroke-width:4; stroke-opacity:1; fill:none" points="
  102.74,1030.85 118.49,1030.85 
  "/>
<polyline clip-path="url(#clip5000)" style="stroke:#000000; stroke-width:4; stroke-opacity:1; fill:none" points="
  102.74,934.867 118.49,934.867 
  "/>
<g clip-path="url(#clip5000)">
<text style="fill:#000000; fill-opacity:1; font-family:Arial,Helvetica Neue,Helvetica,sans-serif; font-size:48px; text-anchor:start;" transform="rotate(0, 83.4033, 1533.42)" x="83.4033" y="1533.42">10</text>
</g>
<g clip-path="url(#clip5000)">
<text style="fill:#000000; fill-opacity:1; font-family:Arial,Helvetica Neue,Helvetica,sans-serif; font-size:38px; text-anchor:start;" transform="rotate(0, 136.928, 1506.01)" x="136.928" y="1506.01">-</text>
</g>
<g clip-path="url(#clip5000)">
<text style="fill:#000000; fill-opacity:1; font-family:Arial,Helvetica Neue,Helvetica,sans-serif; font-size:38px; text-anchor:start;" transform="rotate(0, 159.767, 1506.01)" x="159.767" y="1506.01">1</text>
</g>
<g clip-path="url(#clip5000)">
<text style="fill:#000000; fill-opacity:1; font-family:Arial,Helvetica Neue,Helvetica,sans-serif; font-size:48px; text-anchor:start;" transform="rotate(0, 590.113, 1533.42)" x="590.113" y="1533.42">10</text>
</g>
<g clip-path="url(#clip5000)">
<text style="fill:#000000; fill-opacity:1; font-family:Arial,Helvetica Neue,Helvetica,sans-serif; font-size:38px; text-anchor:start;" transform="rotate(0, 643.638, 1506.01)" x="643.638" y="1506.01">0</text>
</g>
<g clip-path="url(#clip5000)">
<text style="fill:#000000; fill-opacity:1; font-family:Arial,Helvetica Neue,Helvetica,sans-serif; font-size:48px; text-anchor:start;" transform="rotate(0, 1085.4, 1533.42)" x="1085.4" y="1533.42">10</text>
</g>
<g clip-path="url(#clip5000)">
<text style="fill:#000000; fill-opacity:1; font-family:Arial,Helvetica Neue,Helvetica,sans-serif; font-size:38px; text-anchor:start;" transform="rotate(0, 1138.93, 1506.01)" x="1138.93" y="1506.01">1</text>
</g>
<g clip-path="url(#clip5000)">
<text style="fill:#000000; fill-opacity:1; font-family:Arial,Helvetica Neue,Helvetica,sans-serif; font-size:48px; text-anchor:start;" transform="rotate(0, 3.47108, 1054.58)" x="3.47108" y="1054.58">10</text>
</g>
<g clip-path="url(#clip5000)">
<text style="fill:#000000; fill-opacity:1; font-family:Arial,Helvetica Neue,Helvetica,sans-serif; font-size:38px; text-anchor:start;" transform="rotate(0, 56.9958, 1027.17)" x="56.9958" y="1027.17">1</text>
</g>
<g clip-path="url(#clip5000)">
<text style="fill:#000000; fill-opacity:1; font-family:Arial,Helvetica Neue,Helvetica,sans-serif; font-size:84px; text-anchor:middle;" transform="rotate(0, 627.748, 873.2)" x="627.748" y="873.2">N = C/(1+PC)</text>
</g>
<g clip-path="url(#clip5000)">
<text style="fill:#000000; fill-opacity:1; font-family:Arial,Helvetica Neue,Helvetica,sans-serif; font-size:66px; text-anchor:middle;" transform="rotate(0, 627.748, 1612.24)" x="627.748" y="1612.24">Frequency (rad/s)</text>
</g>
<g clip-path="url(#clip5000)">
<text style="fill:#000000; fill-opacity:1; font-family:Arial,Helvetica Neue,Helvetica,sans-serif; font-size:66px; text-anchor:middle;" transform="rotate(-90, -32.091, 1160.7)" x="-32.091" y="1160.7">Magnitude </text>
</g>
<polyline clip-path="url(#clip5004)" style="stroke:#cc1414; stroke-width:4; stroke-opacity:1; fill:none" points="
  132.458,1441.57 137.435,1441.37 142.413,1441.16 147.391,1440.95 152.369,1440.73 157.347,1440.49 162.324,1440.25 167.302,1439.99 172.28,1439.72 177.258,1439.44 
  182.236,1439.14 187.213,1438.83 192.191,1438.51 197.169,1438.17 202.147,1437.81 207.124,1437.44 212.102,1437.06 217.08,1436.65 222.058,1436.22 227.036,1435.78 
  232.013,1435.31 236.991,1434.82 241.969,1434.31 246.947,1433.78 251.925,1433.22 256.902,1432.63 261.88,1432.02 266.858,1431.38 271.836,1430.71 276.814,1430.01 
  281.791,1429.28 286.769,1428.51 291.747,1427.71 296.725,1426.87 301.703,1426 306.68,1425.08 311.658,1424.12 316.636,1423.12 321.614,1422.07 326.592,1420.98 
  331.569,1419.83 336.547,1418.64 341.525,1417.39 346.503,1416.09 351.48,1414.73 356.458,1413.3 361.436,1411.82 366.414,1410.27 371.392,1408.65 376.369,1406.97 
  381.347,1405.21 386.325,1403.37 391.303,1401.46 396.281,1399.47 401.258,1397.39 406.236,1395.23 411.214,1392.98 416.192,1390.65 421.17,1388.22 426.147,1385.69 
  431.125,1383.07 436.103,1380.35 441.081,1377.54 446.059,1374.62 451.036,1371.61 456.014,1368.49 460.992,1365.29 465.97,1361.98 470.948,1358.59 475.925,1355.11 
  480.903,1351.56 485.881,1347.93 490.859,1344.25 495.837,1340.53 500.814,1336.78 505.792,1333.02 510.77,1329.27 515.748,1325.57 520.725,1321.95 525.703,1318.42 
  530.681,1315.04 535.659,1311.84 540.637,1308.86 545.614,1306.14 550.592,1303.71 555.57,1301.62 560.548,1299.89 565.526,1298.54 570.503,1297.6 575.481,1297.05 
  580.459,1296.89 585.437,1297.12 590.415,1297.7 595.392,1298.62 600.37,1299.82 605.348,1301.27 610.326,1302.94 615.304,1304.78 620.281,1306.75 625.259,1308.82 
  630.237,1310.95 635.215,1313.12 640.193,1315.3 645.17,1317.47 650.148,1319.61 655.126,1321.7 660.104,1323.73 665.081,1325.68 670.059,1327.56 675.037,1329.36 
  680.015,1331.07 684.993,1332.69 689.97,1334.22 694.948,1335.65 699.926,1337 704.904,1338.25 709.882,1339.42 714.859,1340.5 719.837,1341.5 724.815,1342.42 
  729.793,1343.27 734.771,1344.04 739.748,1344.75 744.726,1345.39 749.704,1345.98 754.682,1346.5 759.66,1346.98 764.637,1347.4 769.615,1347.78 774.593,1348.12 
  779.571,1348.42 784.549,1348.69 789.526,1348.92 794.504,1349.12 799.482,1349.3 804.46,1349.45 809.437,1349.58 814.415,1349.69 819.393,1349.79 824.371,1349.86 
  829.349,1349.93 834.326,1349.98 839.304,1350.02 844.282,1350.05 849.26,1350.08 854.238,1350.1 859.215,1350.11 864.193,1350.11 869.171,1350.11 874.149,1350.11 
  879.127,1350.11 884.104,1350.1 889.082,1350.09 894.06,1350.08 899.038,1350.06 904.016,1350.05 908.993,1350.04 913.971,1350.02 918.949,1350.01 923.927,1349.99 
  928.905,1349.98 933.882,1349.96 938.86,1349.95 943.838,1349.93 948.816,1349.92 953.794,1349.91 958.771,1349.9 963.749,1349.88 968.727,1349.87 973.705,1349.86 
  978.682,1349.85 983.66,1349.84 988.638,1349.83 993.616,1349.83 998.594,1349.82 1003.57,1349.81 1008.55,1349.8 1013.53,1349.8 1018.5,1349.79 1023.48,1349.79 
  1028.46,1349.78 1033.44,1349.78 1038.42,1349.77 1043.39,1349.77 1048.37,1349.76 1053.35,1349.76 1058.33,1349.76 1063.3,1349.75 1068.28,1349.75 1073.26,1349.75 
  1078.24,1349.75 1083.22,1349.74 1088.19,1349.74 1093.17,1349.74 1098.15,1349.74 1103.13,1349.74 1108.11,1349.73 1113.08,1349.73 1118.06,1349.73 1123.04,1349.73 
  
  "/>
<polyline clip-path="url(#clip5004)" style="stroke:#14cc2a; stroke-width:4; stroke-opacity:1; fill:none" points="
  132.458,1347.1 137.435,1346.97 142.413,1346.84 147.391,1346.71 152.369,1346.57 157.347,1346.42 162.324,1346.26 167.302,1346.1 172.28,1345.93 177.258,1345.75 
  182.236,1345.57 187.213,1345.37 192.191,1345.17 197.169,1344.95 202.147,1344.73 207.124,1344.5 212.102,1344.25 217.08,1343.99 222.058,1343.73 227.036,1343.45 
  232.013,1343.15 236.991,1342.85 241.969,1342.52 246.947,1342.19 251.925,1341.84 256.902,1341.47 261.88,1341.08 266.858,1340.68 271.836,1340.26 276.814,1339.82 
  281.791,1339.36 286.769,1338.88 291.747,1338.38 296.725,1337.85 301.703,1337.3 306.68,1336.73 311.658,1336.13 316.636,1335.5 321.614,1334.85 326.592,1334.16 
  331.569,1333.45 336.547,1332.7 341.525,1331.92 346.503,1331.11 351.48,1330.26 356.458,1329.37 361.436,1328.44 366.414,1327.47 371.392,1326.47 376.369,1325.41 
  381.347,1324.31 386.325,1323.17 391.303,1321.97 396.281,1320.73 401.258,1319.43 406.236,1318.07 411.214,1316.66 416.192,1315.19 421.17,1313.66 426.147,1312.07 
  431.125,1310.41 436.103,1308.68 441.081,1306.88 446.059,1305.01 451.036,1303.07 456.014,1301.04 460.992,1298.94 465.97,1296.75 470.948,1294.48 475.925,1292.12 
  480.903,1289.68 485.881,1287.13 490.859,1284.5 495.837,1281.76 500.814,1278.92 505.792,1275.98 510.77,1272.94 515.748,1269.78 520.725,1266.51 525.703,1263.13 
  530.681,1259.63 535.659,1256.01 540.637,1252.26 545.614,1248.39 550.592,1244.39 555.57,1240.27 560.548,1236 565.526,1231.6 570.503,1227.07 575.481,1222.39 
  580.459,1217.57 585.437,1212.6 590.415,1207.48 595.392,1202.21 600.37,1196.79 605.348,1191.21 610.326,1185.47 615.304,1179.57 620.281,1173.51 625.259,1167.28 
  630.237,1160.88 635.215,1154.32 640.193,1147.57 645.17,1140.66 650.148,1133.56 655.126,1126.28 660.104,1118.82 665.081,1111.17 670.059,1103.33 675.037,1095.31 
  680.015,1087.08 684.993,1078.67 689.97,1070.05 694.948,1061.24 699.926,1052.23 704.904,1043.03 709.882,1033.64 714.859,1024.06 719.837,1014.31 724.815,1004.4 
  729.793,994.36 734.771,984.208 739.748,973.99 744.726,963.759 749.704,953.585 754.682,943.556 759.66,933.782 764.637,924.393 769.615,915.539 774.593,907.383 
  779.571,900.089 784.549,893.807 789.526,888.655 794.504,884.703 799.482,881.96 804.46,880.375 809.437,879.844 814.415,880.227 819.393,881.368 824.371,883.105 
  829.349,885.29 834.326,887.791 839.304,890.5 844.282,893.327 849.26,896.202 854.238,899.073 859.215,901.901 864.193,904.657 869.171,907.323 874.149,909.885 
  879.127,912.336 884.104,914.672 889.082,916.892 894.06,918.997 899.038,920.989 904.016,922.873 908.993,924.651 913.971,926.329 918.949,927.911 923.927,929.402 
  928.905,930.807 933.882,932.131 938.86,933.378 943.838,934.552 948.816,935.659 953.794,936.701 958.771,937.683 963.749,938.609 968.727,939.481 973.705,940.304 
  978.682,941.08 983.66,941.812 988.638,942.502 993.616,943.154 998.594,943.769 1003.57,944.35 1008.55,944.899 1013.53,945.418 1018.5,945.908 1023.48,946.371 
  1028.46,946.81 1033.44,947.224 1038.42,947.617 1043.39,947.988 1048.37,948.34 1053.35,948.673 1058.33,948.989 1063.3,949.288 1068.28,949.571 1073.26,949.84 
  1078.24,950.095 1083.22,950.337 1088.19,950.566 1093.17,950.784 1098.15,950.991 1103.13,951.187 1108.11,951.373 1113.08,951.55 1118.06,951.718 1123.04,951.878 
  
  "/>
<polygon clip-path="url(#clip5000)" points="
1302.74,1458.42 2352.76,1458.42 2352.76,862.992 1302.74,862.992 
  " fill="#ffffff" fill-rule="evenodd" fill-opacity="1"/>
<defs>
  <clipPath id="clip5005">
    <rect x="1302" y="862" width="1051" height="596"/>
  </clipPath>
</defs>
<polyline clip-path="url(#clip5005)" style="stroke:#000000; stroke-width:2; stroke-opacity:0.1; fill:none" points="
  1332.46,1458.42 1332.46,862.992 
  "/>
<polyline clip-path="url(#clip5005)" style="stroke:#000000; stroke-width:2; stroke-opacity:0.1; fill:none" points="
  1481.55,1458.42 1481.55,862.992 
  "/>
<polyline clip-path="url(#clip5005)" style="stroke:#000000; stroke-width:2; stroke-opacity:0.1; fill:none" points="
  1568.77,1458.42 1568.77,862.992 
  "/>
<polyline clip-path="url(#clip5005)" style="stroke:#000000; stroke-width:2; stroke-opacity:0.1; fill:none" points="
  1630.65,1458.42 1630.65,862.992 
  "/>
<polyline clip-path="url(#clip5005)" style="stroke:#000000; stroke-width:2; stroke-opacity:0.1; fill:none" points="
  1678.65,1458.42 1678.65,862.992 
  "/>
<polyline clip-path="url(#clip5005)" style="stroke:#000000; stroke-width:2; stroke-opacity:0.1; fill:none" points="
  1717.87,1458.42 1717.87,862.992 
  "/>
<polyline clip-path="url(#clip5005)" style="stroke:#000000; stroke-width:2; stroke-opacity:0.1; fill:none" points="
  1751.03,1458.42 1751.03,862.992 
  "/>
<polyline clip-path="url(#clip5005)" style="stroke:#000000; stroke-width:2; stroke-opacity:0.1; fill:none" points="
  1779.75,1458.42 1779.75,862.992 
  "/>
<polyline clip-path="url(#clip5005)" style="stroke:#000000; stroke-width:2; stroke-opacity:0.1; fill:none" points="
  1805.08,1458.42 1805.08,862.992 
  "/>
<polyline clip-path="url(#clip5005)" style="stroke:#000000; stroke-width:2; stroke-opacity:0.1; fill:none" points="
  1827.75,1458.42 1827.75,862.992 
  "/>
<polyline clip-path="url(#clip5005)" style="stroke:#000000; stroke-width:2; stroke-opacity:0.1; fill:none" points="
  1976.85,1458.42 1976.85,862.992 
  "/>
<polyline clip-path="url(#clip5005)" style="stroke:#000000; stroke-width:2; stroke-opacity:0.1; fill:none" points="
  2064.06,1458.42 2064.06,862.992 
  "/>
<polyline clip-path="url(#clip5005)" style="stroke:#000000; stroke-width:2; stroke-opacity:0.1; fill:none" points="
  2125.94,1458.42 2125.94,862.992 
  "/>
<polyline clip-path="url(#clip5005)" style="stroke:#000000; stroke-width:2; stroke-opacity:0.1; fill:none" points="
  2173.94,1458.42 2173.94,862.992 
  "/>
<polyline clip-path="url(#clip5005)" style="stroke:#000000; stroke-width:2; stroke-opacity:0.1; fill:none" points="
  2213.16,1458.42 2213.16,862.992 
  "/>
<polyline clip-path="url(#clip5005)" style="stroke:#000000; stroke-width:2; stroke-opacity:0.1; fill:none" points="
  2246.32,1458.42 2246.32,862.992 
  "/>
<polyline clip-path="url(#clip5005)" style="stroke:#000000; stroke-width:2; stroke-opacity:0.1; fill:none" points="
  2275.04,1458.42 2275.04,862.992 
  "/>
<polyline clip-path="url(#clip5005)" style="stroke:#000000; stroke-width:2; stroke-opacity:0.1; fill:none" points="
  2300.38,1458.42 2300.38,862.992 
  "/>
<polyline clip-path="url(#clip5005)" style="stroke:#000000; stroke-width:2; stroke-opacity:0.1; fill:none" points="
  2323.04,1458.42 2323.04,862.992 
  "/>
<polyline clip-path="url(#clip5005)" style="stroke:#000000; stroke-width:2; stroke-opacity:0.1; fill:none" points="
  1302.74,1258.77 2352.76,1258.77 
  "/>
<polyline clip-path="url(#clip5005)" style="stroke:#000000; stroke-width:2; stroke-opacity:0.1; fill:none" points="
  1302.74,1234.19 2352.76,1234.19 
  "/>
<polyline clip-path="url(#clip5005)" style="stroke:#000000; stroke-width:2; stroke-opacity:0.1; fill:none" points="
  1302.74,1216.75 2352.76,1216.75 
  "/>
<polyline clip-path="url(#clip5005)" style="stroke:#000000; stroke-width:2; stroke-opacity:0.1; fill:none" points="
  1302.74,1203.23 2352.76,1203.23 
  "/>
<polyline clip-path="url(#clip5005)" style="stroke:#000000; stroke-width:2; stroke-opacity:0.1; fill:none" points="
  1302.74,1192.18 2352.76,1192.18 
  "/>
<polyline clip-path="url(#clip5005)" style="stroke:#000000; stroke-width:2; stroke-opacity:0.1; fill:none" points="
  1302.74,1182.83 2352.76,1182.83 
  "/>
<polyline clip-path="url(#clip5005)" style="stroke:#000000; stroke-width:2; stroke-opacity:0.1; fill:none" points="
  1302.74,1174.74 2352.76,1174.74 
  "/>
<polyline clip-path="url(#clip5005)" style="stroke:#000000; stroke-width:2; stroke-opacity:0.1; fill:none" points="
  1302.74,1167.6 2352.76,1167.6 
  "/>
<polyline clip-path="url(#clip5005)" style="stroke:#000000; stroke-width:2; stroke-opacity:0.1; fill:none" points="
  1302.74,1161.21 2352.76,1161.21 
  "/>
<polyline clip-path="url(#clip5005)" style="stroke:#000000; stroke-width:2; stroke-opacity:0.1; fill:none" points="
  1302.74,1119.2 2352.76,1119.2 
  "/>
<polyline clip-path="url(#clip5005)" style="stroke:#000000; stroke-width:2; stroke-opacity:0.1; fill:none" points="
  1302.74,1094.62 2352.76,1094.62 
  "/>
<polyline clip-path="url(#clip5005)" style="stroke:#000000; stroke-width:2; stroke-opacity:0.1; fill:none" points="
  1302.74,1077.18 2352.76,1077.18 
  "/>
<polyline clip-path="url(#clip5005)" style="stroke:#000000; stroke-width:2; stroke-opacity:0.1; fill:none" points="
  1302.74,1063.66 2352.76,1063.66 
  "/>
<polyline clip-path="url(#clip5005)" style="stroke:#000000; stroke-width:2; stroke-opacity:0.1; fill:none" points="
  1302.74,1052.61 2352.76,1052.61 
  "/>
<polyline clip-path="url(#clip5005)" style="stroke:#000000; stroke-width:2; stroke-opacity:0.1; fill:none" points="
  1302.74,1043.26 2352.76,1043.26 
  "/>
<polyline clip-path="url(#clip5005)" style="stroke:#000000; stroke-width:2; stroke-opacity:0.1; fill:none" points="
  1302.74,1035.17 2352.76,1035.17 
  "/>
<polyline clip-path="url(#clip5005)" style="stroke:#000000; stroke-width:2; stroke-opacity:0.1; fill:none" points="
  1302.74,1028.03 2352.76,1028.03 
  "/>
<polyline clip-path="url(#clip5005)" style="stroke:#000000; stroke-width:2; stroke-opacity:0.1; fill:none" points="
  1302.74,1021.64 2352.76,1021.64 
  "/>
<polyline clip-path="url(#clip5005)" style="stroke:#000000; stroke-width:2; stroke-opacity:0.1; fill:none" points="
  1302.74,979.627 2352.76,979.627 
  "/>
<polyline clip-path="url(#clip5005)" style="stroke:#000000; stroke-width:2; stroke-opacity:0.1; fill:none" points="
  1302.74,955.05 2352.76,955.05 
  "/>
<polyline clip-path="url(#clip5005)" style="stroke:#000000; stroke-width:2; stroke-opacity:0.1; fill:none" points="
  1302.74,937.612 2352.76,937.612 
  "/>
<polyline clip-path="url(#clip5005)" style="stroke:#000000; stroke-width:2; stroke-opacity:0.1; fill:none" points="
  1302.74,924.086 2352.76,924.086 
  "/>
<polyline clip-path="url(#clip5005)" style="stroke:#000000; stroke-width:2; stroke-opacity:0.1; fill:none" points="
  1302.74,913.035 2352.76,913.035 
  "/>
<polyline clip-path="url(#clip5005)" style="stroke:#000000; stroke-width:2; stroke-opacity:0.1; fill:none" points="
  1302.74,903.691 2352.76,903.691 
  "/>
<polyline clip-path="url(#clip5005)" style="stroke:#000000; stroke-width:2; stroke-opacity:0.1; fill:none" points="
  1302.74,895.597 2352.76,895.597 
  "/>
<polyline clip-path="url(#clip5005)" style="stroke:#000000; stroke-width:2; stroke-opacity:0.1; fill:none" points="
  1302.74,888.458 2352.76,888.458 
  "/>
<polyline clip-path="url(#clip5005)" style="stroke:#000000; stroke-width:2; stroke-opacity:0.1; fill:none" points="
  1302.74,882.072 2352.76,882.072 
  "/>
<polyline clip-path="url(#clip5000)" style="stroke:#000000; stroke-width:4; stroke-opacity:1; fill:none" points="
  1302.74,1458.42 2352.76,1458.42 
  "/>
<polyline clip-path="url(#clip5000)" style="stroke:#000000; stroke-width:4; stroke-opacity:1; fill:none" points="
  1302.74,1458.42 1302.74,862.992 
  "/>
<polyline clip-path="url(#clip5000)" style="stroke:#000000; stroke-width:4; stroke-opacity:1; fill:none" points="
  1332.46,1458.42 1332.46,1449.49 
  "/>
<polyline clip-path="url(#clip5000)" style="stroke:#000000; stroke-width:4; stroke-opacity:1; fill:none" points="
  1481.55,1458.42 1481.55,1449.49 
  "/>
<polyline clip-path="url(#clip5000)" style="stroke:#000000; stroke-width:4; stroke-opacity:1; fill:none" points="
  1568.77,1458.42 1568.77,1449.49 
  "/>
<polyline clip-path="url(#clip5000)" style="stroke:#000000; stroke-width:4; stroke-opacity:1; fill:none" points="
  1630.65,1458.42 1630.65,1449.49 
  "/>
<polyline clip-path="url(#clip5000)" style="stroke:#000000; stroke-width:4; stroke-opacity:1; fill:none" points="
  1678.65,1458.42 1678.65,1449.49 
  "/>
<polyline clip-path="url(#clip5000)" style="stroke:#000000; stroke-width:4; stroke-opacity:1; fill:none" points="
  1717.87,1458.42 1717.87,1449.49 
  "/>
<polyline clip-path="url(#clip5000)" style="stroke:#000000; stroke-width:4; stroke-opacity:1; fill:none" points="
  1751.03,1458.42 1751.03,1449.49 
  "/>
<polyline clip-path="url(#clip5000)" style="stroke:#000000; stroke-width:4; stroke-opacity:1; fill:none" points="
  1779.75,1458.42 1779.75,1449.49 
  "/>
<polyline clip-path="url(#clip5000)" style="stroke:#000000; stroke-width:4; stroke-opacity:1; fill:none" points="
  1805.08,1458.42 1805.08,1449.49 
  "/>
<polyline clip-path="url(#clip5000)" style="stroke:#000000; stroke-width:4; stroke-opacity:1; fill:none" points="
  1827.75,1458.42 1827.75,1449.49 
  "/>
<polyline clip-path="url(#clip5000)" style="stroke:#000000; stroke-width:4; stroke-opacity:1; fill:none" points="
  1976.85,1458.42 1976.85,1449.49 
  "/>
<polyline clip-path="url(#clip5000)" style="stroke:#000000; stroke-width:4; stroke-opacity:1; fill:none" points="
  2064.06,1458.42 2064.06,1449.49 
  "/>
<polyline clip-path="url(#clip5000)" style="stroke:#000000; stroke-width:4; stroke-opacity:1; fill:none" points="
  2125.94,1458.42 2125.94,1449.49 
  "/>
<polyline clip-path="url(#clip5000)" style="stroke:#000000; stroke-width:4; stroke-opacity:1; fill:none" points="
  2173.94,1458.42 2173.94,1449.49 
  "/>
<polyline clip-path="url(#clip5000)" style="stroke:#000000; stroke-width:4; stroke-opacity:1; fill:none" points="
  2213.16,1458.42 2213.16,1449.49 
  "/>
<polyline clip-path="url(#clip5000)" style="stroke:#000000; stroke-width:4; stroke-opacity:1; fill:none" points="
  2246.32,1458.42 2246.32,1449.49 
  "/>
<polyline clip-path="url(#clip5000)" style="stroke:#000000; stroke-width:4; stroke-opacity:1; fill:none" points="
  2275.04,1458.42 2275.04,1449.49 
  "/>
<polyline clip-path="url(#clip5000)" style="stroke:#000000; stroke-width:4; stroke-opacity:1; fill:none" points="
  2300.38,1458.42 2300.38,1449.49 
  "/>
<polyline clip-path="url(#clip5000)" style="stroke:#000000; stroke-width:4; stroke-opacity:1; fill:none" points="
  2323.04,1458.42 2323.04,1449.49 
  "/>
<polyline clip-path="url(#clip5000)" style="stroke:#000000; stroke-width:4; stroke-opacity:1; fill:none" points="
  1302.74,1258.77 1318.49,1258.77 
  "/>
<polyline clip-path="url(#clip5000)" style="stroke:#000000; stroke-width:4; stroke-opacity:1; fill:none" points="
  1302.74,1234.19 1318.49,1234.19 
  "/>
<polyline clip-path="url(#clip5000)" style="stroke:#000000; stroke-width:4; stroke-opacity:1; fill:none" points="
  1302.74,1216.75 1318.49,1216.75 
  "/>
<polyline clip-path="url(#clip5000)" style="stroke:#000000; stroke-width:4; stroke-opacity:1; fill:none" points="
  1302.74,1203.23 1318.49,1203.23 
  "/>
<polyline clip-path="url(#clip5000)" style="stroke:#000000; stroke-width:4; stroke-opacity:1; fill:none" points="
  1302.74,1192.18 1318.49,1192.18 
  "/>
<polyline clip-path="url(#clip5000)" style="stroke:#000000; stroke-width:4; stroke-opacity:1; fill:none" points="
  1302.74,1182.83 1318.49,1182.83 
  "/>
<polyline clip-path="url(#clip5000)" style="stroke:#000000; stroke-width:4; stroke-opacity:1; fill:none" points="
  1302.74,1174.74 1318.49,1174.74 
  "/>
<polyline clip-path="url(#clip5000)" style="stroke:#000000; stroke-width:4; stroke-opacity:1; fill:none" points="
  1302.74,1167.6 1318.49,1167.6 
  "/>
<polyline clip-path="url(#clip5000)" style="stroke:#000000; stroke-width:4; stroke-opacity:1; fill:none" points="
  1302.74,1161.21 1318.49,1161.21 
  "/>
<polyline clip-path="url(#clip5000)" style="stroke:#000000; stroke-width:4; stroke-opacity:1; fill:none" points="
  1302.74,1119.2 1318.49,1119.2 
  "/>
<polyline clip-path="url(#clip5000)" style="stroke:#000000; stroke-width:4; stroke-opacity:1; fill:none" points="
  1302.74,1094.62 1318.49,1094.62 
  "/>
<polyline clip-path="url(#clip5000)" style="stroke:#000000; stroke-width:4; stroke-opacity:1; fill:none" points="
  1302.74,1077.18 1318.49,1077.18 
  "/>
<polyline clip-path="url(#clip5000)" style="stroke:#000000; stroke-width:4; stroke-opacity:1; fill:none" points="
  1302.74,1063.66 1318.49,1063.66 
  "/>
<polyline clip-path="url(#clip5000)" style="stroke:#000000; stroke-width:4; stroke-opacity:1; fill:none" points="
  1302.74,1052.61 1318.49,1052.61 
  "/>
<polyline clip-path="url(#clip5000)" style="stroke:#000000; stroke-width:4; stroke-opacity:1; fill:none" points="
  1302.74,1043.26 1318.49,1043.26 
  "/>
<polyline clip-path="url(#clip5000)" style="stroke:#000000; stroke-width:4; stroke-opacity:1; fill:none" points="
  1302.74,1035.17 1318.49,1035.17 
  "/>
<polyline clip-path="url(#clip5000)" style="stroke:#000000; stroke-width:4; stroke-opacity:1; fill:none" points="
  1302.74,1028.03 1318.49,1028.03 
  "/>
<polyline clip-path="url(#clip5000)" style="stroke:#000000; stroke-width:4; stroke-opacity:1; fill:none" points="
  1302.74,1021.64 1318.49,1021.64 
  "/>
<polyline clip-path="url(#clip5000)" style="stroke:#000000; stroke-width:4; stroke-opacity:1; fill:none" points="
  1302.74,979.627 1318.49,979.627 
  "/>
<polyline clip-path="url(#clip5000)" style="stroke:#000000; stroke-width:4; stroke-opacity:1; fill:none" points="
  1302.74,955.05 1318.49,955.05 
  "/>
<polyline clip-path="url(#clip5000)" style="stroke:#000000; stroke-width:4; stroke-opacity:1; fill:none" points="
  1302.74,937.612 1318.49,937.612 
  "/>
<polyline clip-path="url(#clip5000)" style="stroke:#000000; stroke-width:4; stroke-opacity:1; fill:none" points="
  1302.74,924.086 1318.49,924.086 
  "/>
<polyline clip-path="url(#clip5000)" style="stroke:#000000; stroke-width:4; stroke-opacity:1; fill:none" points="
  1302.74,913.035 1318.49,913.035 
  "/>
<polyline clip-path="url(#clip5000)" style="stroke:#000000; stroke-width:4; stroke-opacity:1; fill:none" points="
  1302.74,903.691 1318.49,903.691 
  "/>
<polyline clip-path="url(#clip5000)" style="stroke:#000000; stroke-width:4; stroke-opacity:1; fill:none" points="
  1302.74,895.597 1318.49,895.597 
  "/>
<polyline clip-path="url(#clip5000)" style="stroke:#000000; stroke-width:4; stroke-opacity:1; fill:none" points="
  1302.74,888.458 1318.49,888.458 
  "/>
<polyline clip-path="url(#clip5000)" style="stroke:#000000; stroke-width:4; stroke-opacity:1; fill:none" points="
  1302.74,882.072 1318.49,882.072 
  "/>
<g clip-path="url(#clip5000)">
<text style="fill:#000000; fill-opacity:1; font-family:Arial,Helvetica Neue,Helvetica,sans-serif; font-size:48px; text-anchor:start;" transform="rotate(0, 1283.4, 1533.42)" x="1283.4" y="1533.42">10</text>
</g>
<g clip-path="url(#clip5000)">
<text style="fill:#000000; fill-opacity:1; font-family:Arial,Helvetica Neue,Helvetica,sans-serif; font-size:38px; text-anchor:start;" transform="rotate(0, 1336.93, 1506.01)" x="1336.93" y="1506.01">-</text>
</g>
<g clip-path="url(#clip5000)">
<text style="fill:#000000; fill-opacity:1; font-family:Arial,Helvetica Neue,Helvetica,sans-serif; font-size:38px; text-anchor:start;" transform="rotate(0, 1359.77, 1506.01)" x="1359.77" y="1506.01">1</text>
</g>
<g clip-path="url(#clip5000)">
<text style="fill:#000000; fill-opacity:1; font-family:Arial,Helvetica Neue,Helvetica,sans-serif; font-size:48px; text-anchor:start;" transform="rotate(0, 1790.11, 1533.42)" x="1790.11" y="1533.42">10</text>
</g>
<g clip-path="url(#clip5000)">
<text style="fill:#000000; fill-opacity:1; font-family:Arial,Helvetica Neue,Helvetica,sans-serif; font-size:38px; text-anchor:start;" transform="rotate(0, 1843.64, 1506.01)" x="1843.64" y="1506.01">0</text>
</g>
<g clip-path="url(#clip5000)">
<text style="fill:#000000; fill-opacity:1; font-family:Arial,Helvetica Neue,Helvetica,sans-serif; font-size:48px; text-anchor:start;" transform="rotate(0, 2285.4, 1533.42)" x="2285.4" y="1533.42">10</text>
</g>
<g clip-path="url(#clip5000)">
<text style="fill:#000000; fill-opacity:1; font-family:Arial,Helvetica Neue,Helvetica,sans-serif; font-size:38px; text-anchor:start;" transform="rotate(0, 2338.93, 1506.01)" x="2338.93" y="1506.01">1</text>
</g>
<g clip-path="url(#clip5000)">
<text style="fill:#000000; fill-opacity:1; font-family:Arial,Helvetica Neue,Helvetica,sans-serif; font-size:48px; text-anchor:start;" transform="rotate(0, 1180.63, 1184.94)" x="1180.63" y="1184.94">10</text>
</g>
<g clip-path="url(#clip5000)">
<text style="fill:#000000; fill-opacity:1; font-family:Arial,Helvetica Neue,Helvetica,sans-serif; font-size:38px; text-anchor:start;" transform="rotate(0, 1234.16, 1157.53)" x="1234.16" y="1157.53">-</text>
</g>
<g clip-path="url(#clip5000)">
<text style="fill:#000000; fill-opacity:1; font-family:Arial,Helvetica Neue,Helvetica,sans-serif; font-size:38px; text-anchor:start;" transform="rotate(0, 1257, 1157.53)" x="1257" y="1157.53">2</text>
</g>
<g clip-path="url(#clip5000)">
<text style="fill:#000000; fill-opacity:1; font-family:Arial,Helvetica Neue,Helvetica,sans-serif; font-size:48px; text-anchor:start;" transform="rotate(0, 1180.63, 1045.37)" x="1180.63" y="1045.37">10</text>
</g>
<g clip-path="url(#clip5000)">
<text style="fill:#000000; fill-opacity:1; font-family:Arial,Helvetica Neue,Helvetica,sans-serif; font-size:38px; text-anchor:start;" transform="rotate(0, 1234.16, 1017.96)" x="1234.16" y="1017.96">-</text>
</g>
<g clip-path="url(#clip5000)">
<text style="fill:#000000; fill-opacity:1; font-family:Arial,Helvetica Neue,Helvetica,sans-serif; font-size:38px; text-anchor:start;" transform="rotate(0, 1257, 1017.96)" x="1257" y="1017.96">1</text>
</g>
<g clip-path="url(#clip5000)">
<text style="fill:#000000; fill-opacity:1; font-family:Arial,Helvetica Neue,Helvetica,sans-serif; font-size:48px; text-anchor:start;" transform="rotate(0, 1203.47, 905.799)" x="1203.47" y="905.799">10</text>
</g>
<g clip-path="url(#clip5000)">
<text style="fill:#000000; fill-opacity:1; font-family:Arial,Helvetica Neue,Helvetica,sans-serif; font-size:38px; text-anchor:start;" transform="rotate(0, 1257, 878.389)" x="1257" y="878.389">0</text>
</g>
<g clip-path="url(#clip5000)">
<text style="fill:#000000; fill-opacity:1; font-family:Arial,Helvetica Neue,Helvetica,sans-serif; font-size:84px; text-anchor:middle;" transform="rotate(0, 1827.75, 873.2)" x="1827.75" y="873.2">T = PC/(1+PC)</text>
</g>
<g clip-path="url(#clip5000)">
<text style="fill:#000000; fill-opacity:1; font-family:Arial,Helvetica Neue,Helvetica,sans-serif; font-size:66px; text-anchor:middle;" transform="rotate(0, 1827.75, 1612.24)" x="1827.75" y="1612.24">Frequency (rad/s)</text>
</g>
<g clip-path="url(#clip5000)">
<text style="fill:#000000; fill-opacity:1; font-family:Arial,Helvetica Neue,Helvetica,sans-serif; font-size:66px; text-anchor:middle;" transform="rotate(-90, 1145.07, 1160.7)" x="1145.07" y="1160.7">Magnitude </text>
</g>
<polyline clip-path="url(#clip5005)" style="stroke:#cc1414; stroke-width:4; stroke-opacity:1; fill:none" points="
  1332.46,923.48 1337.44,923.452 1342.41,923.422 1347.39,923.39 1352.37,923.357 1357.35,923.323 1362.32,923.286 1367.3,923.249 1372.28,923.209 1377.26,923.167 
  1382.24,923.124 1387.21,923.078 1392.19,923.031 1397.17,922.981 1402.15,922.928 1407.12,922.873 1412.1,922.816 1417.08,922.756 1422.06,922.693 1427.04,922.627 
  1432.01,922.558 1436.99,922.486 1441.97,922.41 1446.95,922.331 1451.92,922.248 1456.9,922.161 1461.88,922.07 1466.86,921.975 1471.84,921.875 1476.81,921.771 
  1481.79,921.661 1486.77,921.547 1491.75,921.427 1496.72,921.302 1501.7,921.171 1506.68,921.034 1511.66,920.89 1516.64,920.74 1521.61,920.583 1526.59,920.419 
  1531.57,920.247 1536.55,920.067 1541.52,919.879 1546.5,919.683 1551.48,919.478 1556.46,919.264 1561.44,919.04 1566.41,918.806 1571.39,918.562 1576.37,918.308 
  1581.35,918.042 1586.33,917.766 1591.3,917.478 1596.28,917.178 1601.26,916.866 1606.24,916.542 1611.21,916.206 1616.19,915.857 1621.17,915.496 1626.15,915.123 
  1631.13,914.737 1636.1,914.34 1641.08,913.932 1646.06,913.513 1651.04,913.086 1656.01,912.65 1660.99,912.209 1665.97,911.764 1670.95,911.319 1675.93,910.876 
  1680.9,910.44 1685.88,910.017 1690.86,909.611 1695.84,909.231 1700.81,908.884 1705.79,908.581 1710.77,908.332 1715.75,908.151 1720.73,908.052 1725.7,908.05 
  1730.68,908.162 1735.66,908.407 1740.64,908.802 1745.61,909.366 1750.59,910.117 1755.57,911.071 1760.55,912.24 1765.53,913.637 1770.5,915.267 1775.48,917.134 
  1780.46,919.234 1785.44,921.563 1790.41,924.111 1795.39,926.864 1800.37,929.808 1805.35,932.927 1810.33,936.203 1815.3,939.619 1820.28,943.158 1825.26,946.804 
  1830.24,950.544 1835.21,954.365 1840.19,958.254 1845.17,962.203 1850.15,966.202 1855.13,970.245 1860.1,974.326 1865.08,978.439 1870.06,982.581 1875.04,986.749 
  1880.01,990.94 1884.99,995.154 1889.97,999.387 1894.95,1003.64 1899.93,1007.91 1904.9,1012.2 1909.88,1016.51 1914.86,1020.84 1919.84,1025.19 1924.82,1029.56 
  1929.79,1033.95 1934.77,1038.36 1939.75,1042.79 1944.73,1047.24 1949.7,1051.72 1954.68,1056.22 1959.66,1060.74 1964.64,1065.29 1969.62,1069.86 1974.59,1074.46 
  1979.57,1079.08 1984.55,1083.73 1989.53,1088.4 1994.5,1093.1 1999.48,1097.82 2004.46,1102.57 2009.44,1107.35 2014.42,1112.15 2019.39,1116.98 2024.37,1121.83 
  2029.35,1126.71 2034.33,1131.61 2039.3,1136.54 2044.28,1141.49 2049.26,1146.46 2054.24,1151.46 2059.22,1156.48 2064.19,1161.52 2069.17,1166.58 2074.15,1171.66 
  2079.13,1176.77 2084.1,1181.89 2089.08,1187.03 2094.06,1192.2 2099.04,1197.37 2104.02,1202.57 2108.99,1207.79 2113.97,1213.02 2118.95,1218.26 2123.93,1223.52 
  2128.9,1228.8 2133.88,1234.09 2138.86,1239.39 2143.84,1244.71 2148.82,1250.04 2153.79,1255.38 2158.77,1260.73 2163.75,1266.1 2168.73,1271.47 2173.7,1276.86 
  2178.68,1282.25 2183.66,1287.65 2188.64,1293.07 2193.62,1298.49 2198.59,1303.92 2203.57,1309.36 2208.55,1314.81 2213.53,1320.26 2218.5,1325.72 2223.48,1331.19 
  2228.46,1336.66 2233.44,1342.14 2238.42,1347.63 2243.39,1353.12 2248.37,1358.61 2253.35,1364.11 2258.33,1369.62 2263.3,1375.13 2268.28,1380.65 2273.26,1386.17 
  2278.24,1391.69 2283.22,1397.22 2288.19,1402.75 2293.17,1408.29 2298.15,1413.83 2303.13,1419.37 2308.11,1424.91 2313.08,1430.46 2318.06,1436.01 2323.04,1441.57 
  
  "/>
<polyline clip-path="url(#clip5005)" style="stroke:#14cc2a; stroke-width:4; stroke-opacity:1; fill:none" points="
  1332.46,882.131 1337.44,882.133 1342.41,882.136 1347.39,882.139 1352.37,882.142 1357.35,882.146 1362.32,882.149 1367.3,882.153 1372.28,882.157 1377.26,882.161 
  1382.24,882.165 1387.21,882.169 1392.19,882.174 1397.17,882.179 1402.15,882.184 1407.12,882.189 1412.1,882.194 1417.08,882.2 1422.06,882.206 1427.04,882.212 
  1432.01,882.219 1436.99,882.226 1441.97,882.233 1446.95,882.24 1451.92,882.248 1456.9,882.256 1461.88,882.265 1466.86,882.274 1471.84,882.283 1476.81,882.293 
  1481.79,882.303 1486.77,882.314 1491.75,882.325 1496.72,882.337 1501.7,882.349 1506.68,882.362 1511.66,882.375 1516.64,882.389 1521.61,882.403 1526.59,882.419 
  1531.57,882.434 1536.55,882.451 1541.52,882.468 1546.5,882.486 1551.48,882.505 1556.46,882.524 1561.44,882.544 1566.41,882.565 1571.39,882.587 1576.37,882.61 
  1581.35,882.634 1586.33,882.659 1591.3,882.685 1596.28,882.712 1601.26,882.74 1606.24,882.769 1611.21,882.799 1616.19,882.83 1621.17,882.863 1626.15,882.896 
  1631.13,882.931 1636.1,882.968 1641.08,883.005 1646.06,883.044 1651.04,883.084 1656.01,883.126 1660.99,883.168 1665.97,883.213 1670.95,883.258 1675.93,883.305 
  1680.9,883.354 1685.88,883.404 1690.86,883.455 1695.84,883.507 1700.81,883.561 1705.79,883.616 1710.77,883.672 1715.75,883.729 1720.73,883.788 1725.7,883.847 
  1730.68,883.907 1735.66,883.968 1740.64,884.029 1745.61,884.091 1750.59,884.153 1755.57,884.214 1760.55,884.276 1765.53,884.336 1770.5,884.396 1775.48,884.454 
  1780.46,884.511 1785.44,884.566 1790.41,884.617 1795.39,884.666 1800.37,884.711 1805.35,884.751 1810.33,884.786 1815.3,884.815 1820.28,884.837 1825.26,884.851 
  1830.24,884.857 1835.21,884.852 1840.19,884.837 1845.17,884.808 1850.15,884.767 1855.13,884.71 1860.1,884.636 1865.08,884.544 1870.06,884.433 1875.04,884.3 
  1880.01,884.144 1884.99,883.964 1889.97,883.759 1894.95,883.527 1899.93,883.268 1904.9,882.983 1909.88,882.67 1914.86,882.334 1919.84,881.977 1924.82,881.605 
  1929.79,881.227 1934.77,880.854 1939.75,880.503 1944.73,880.197 1949.7,879.965 1954.68,879.844 1959.66,879.881 1964.64,880.132 1969.62,880.662 1974.59,881.54 
  1979.57,882.838 1984.55,884.62 1989.53,886.936 1994.5,889.816 1999.48,893.263 2004.46,897.253 2009.44,901.74 2014.42,906.661 2019.39,911.946 2024.37,917.525 
  2029.35,923.331 2034.33,929.305 2039.3,935.399 2044.28,941.572 2049.26,947.794 2054.24,954.04 2059.22,960.292 2064.19,966.537 2069.17,972.766 2074.15,978.972 
  2079.13,985.151 2084.1,991.3 2089.08,997.419 2094.06,1003.51 2099.04,1009.56 2104.02,1015.59 2108.99,1021.59 2113.97,1027.56 2118.95,1033.51 2123.93,1039.43 
  2128.9,1045.32 2133.88,1051.2 2138.86,1057.05 2143.84,1062.89 2148.82,1068.71 2153.79,1074.51 2158.77,1080.3 2163.75,1086.08 2168.73,1091.84 2173.7,1097.59 
  2178.68,1103.33 2183.66,1109.05 2188.64,1114.77 2193.62,1120.49 2198.59,1126.19 2203.57,1131.88 2208.55,1137.57 2213.53,1143.26 2218.5,1148.93 2223.48,1154.61 
  2228.46,1160.28 2233.44,1165.94 2238.42,1171.6 2243.39,1177.25 2248.37,1182.91 2253.35,1188.55 2258.33,1194.2 2263.3,1199.84 2268.28,1205.48 2273.26,1211.12 
  2278.24,1216.76 2283.22,1222.4 2288.19,1228.03 2293.17,1233.66 2298.15,1239.29 2303.13,1244.92 2308.11,1250.55 2313.08,1256.17 2318.06,1261.8 2323.04,1267.42 
  
  "/>
</svg>
