<?xml version="1.0" encoding="utf-8"?>
<svg xmlns="http://www.w3.org/2000/svg" xmlns:xlink="http://www.w3.org/1999/xlink" width="600" height="400" viewBox="0 0 2400 1600">
<defs>
  <clipPath id="clip7300">
    <rect x="0" y="0" width="2400" height="1600"/>
  </clipPath>
</defs>
<polygon clip-path="url(#clip7300)" points="
0,1600 2400,1600 2400,0 0,0 
  " fill="#ffffff" fill-rule="evenodd" fill-opacity="1"/>
<defs>
  <clipPath id="clip7301">
    <rect x="480" y="0" width="1681" height="1600"/>
  </clipPath>
</defs>
<polygon clip-path="url(#clip7300)" points="
86.9921,1521.01 2352.76,1521.01 2352.76,47.2441 86.9921,47.2441 
  " fill="#ffffff" fill-rule="evenodd" fill-opacity="1"/>
<defs>
  <clipPath id="clip7302">
    <rect x="86" y="47" width="2267" height="1475"/>
  </clipPath>
</defs>
<polyline clip-path="url(#clip7302)" style="stroke:#000000; stroke-width:2; stroke-opacity:0.1; fill:none" points="
  150.886,1521.01 150.886,47.2441 
  "/>
<polyline clip-path="url(#clip7302)" style="stroke:#000000; stroke-width:2; stroke-opacity:0.1; fill:none" points="
  611.615,1521.01 611.615,47.2441 
  "/>
<polyline clip-path="url(#clip7302)" style="stroke:#000000; stroke-width:2; stroke-opacity:0.1; fill:none" points="
  1072.34,1521.01 1072.34,47.2441 
  "/>
<polyline clip-path="url(#clip7302)" style="stroke:#000000; stroke-width:2; stroke-opacity:0.1; fill:none" points="
  1533.07,1521.01 1533.07,47.2441 
  "/>
<polyline clip-path="url(#clip7302)" style="stroke:#000000; stroke-width:2; stroke-opacity:0.1; fill:none" points="
  1993.8,1521.01 1993.8,47.2441 
  "/>
<polyline clip-path="url(#clip7302)" style="stroke:#000000; stroke-width:2; stroke-opacity:0.1; fill:none" points="
  86.9921,1449.33 2352.76,1449.33 
  "/>
<polyline clip-path="url(#clip7302)" style="stroke:#000000; stroke-width:2; stroke-opacity:0.1; fill:none" points="
  86.9921,1149.65 2352.76,1149.65 
  "/>
<polyline clip-path="url(#clip7302)" style="stroke:#000000; stroke-width:2; stroke-opacity:0.1; fill:none" points="
  86.9921,849.971 2352.76,849.971 
  "/>
<polyline clip-path="url(#clip7302)" style="stroke:#000000; stroke-width:2; stroke-opacity:0.1; fill:none" points="
  86.9921,550.29 2352.76,550.29 
  "/>
<polyline clip-path="url(#clip7302)" style="stroke:#000000; stroke-width:2; stroke-opacity:0.1; fill:none" points="
  86.9921,250.609 2352.76,250.609 
  "/>
<polyline clip-path="url(#clip7300)" style="stroke:#000000; stroke-width:4; stroke-opacity:1; fill:none" points="
  86.9921,1521.01 2352.76,1521.01 
  "/>
<polyline clip-path="url(#clip7300)" style="stroke:#000000; stroke-width:4; stroke-opacity:1; fill:none" points="
  86.9921,1521.01 86.9921,47.2441 
  "/>
<polyline clip-path="url(#clip7300)" style="stroke:#000000; stroke-width:4; stroke-opacity:1; fill:none" points="
  150.886,1521.01 150.886,1498.9 
  "/>
<polyline clip-path="url(#clip7300)" style="stroke:#000000; stroke-width:4; stroke-opacity:1; fill:none" points="
  611.615,1521.01 611.615,1498.9 
  "/>
<polyline clip-path="url(#clip7300)" style="stroke:#000000; stroke-width:4; stroke-opacity:1; fill:none" points="
  1072.34,1521.01 1072.34,1498.9 
  "/>
<polyline clip-path="url(#clip7300)" style="stroke:#000000; stroke-width:4; stroke-opacity:1; fill:none" points="
  1533.07,1521.01 1533.07,1498.9 
  "/>
<polyline clip-path="url(#clip7300)" style="stroke:#000000; stroke-width:4; stroke-opacity:1; fill:none" points="
  1993.8,1521.01 1993.8,1498.9 
  "/>
<polyline clip-path="url(#clip7300)" style="stroke:#000000; stroke-width:4; stroke-opacity:1; fill:none" points="
  86.9921,1449.33 120.979,1449.33 
  "/>
<polyline clip-path="url(#clip7300)" style="stroke:#000000; stroke-width:4; stroke-opacity:1; fill:none" points="
  86.9921,1149.65 120.979,1149.65 
  "/>
<polyline clip-path="url(#clip7300)" style="stroke:#000000; stroke-width:4; stroke-opacity:1; fill:none" points="
  86.9921,849.971 120.979,849.971 
  "/>
<polyline clip-path="url(#clip7300)" style="stroke:#000000; stroke-width:4; stroke-opacity:1; fill:none" points="
  86.9921,550.29 120.979,550.29 
  "/>
<polyline clip-path="url(#clip7300)" style="stroke:#000000; stroke-width:4; stroke-opacity:1; fill:none" points="
  86.9921,250.609 120.979,250.609 
  "/>
<g clip-path="url(#clip7300)">
<text style="fill:#000000; fill-opacity:1; font-family:Arial,Helvetica Neue,Helvetica,sans-serif; font-size:48px; text-anchor:middle;" transform="rotate(0, 150.886, 1575.01)" x="150.886" y="1575.01">-2</text>
</g>
<g clip-path="url(#clip7300)">
<text style="fill:#000000; fill-opacity:1; font-family:Arial,Helvetica Neue,Helvetica,sans-serif; font-size:48px; text-anchor:middle;" transform="rotate(0, 611.615, 1575.01)" x="611.615" y="1575.01">-1</text>
</g>
<g clip-path="url(#clip7300)">
<text style="fill:#000000; fill-opacity:1; font-family:Arial,Helvetica Neue,Helvetica,sans-serif; font-size:48px; text-anchor:middle;" transform="rotate(0, 1072.34, 1575.01)" x="1072.34" y="1575.01">0</text>
</g>
<g clip-path="url(#clip7300)">
<text style="fill:#000000; fill-opacity:1; font-family:Arial,Helvetica Neue,Helvetica,sans-serif; font-size:48px; text-anchor:middle;" transform="rotate(0, 1533.07, 1575.01)" x="1533.07" y="1575.01">1</text>
</g>
<g clip-path="url(#clip7300)">
<text style="fill:#000000; fill-opacity:1; font-family:Arial,Helvetica Neue,Helvetica,sans-serif; font-size:48px; text-anchor:middle;" transform="rotate(0, 1993.8, 1575.01)" x="1993.8" y="1575.01">2</text>
</g>
<g clip-path="url(#clip7300)">
<text style="fill:#000000; fill-opacity:1; font-family:Arial,Helvetica Neue,Helvetica,sans-serif; font-size:48px; text-anchor:end;" transform="rotate(0, 62.9921, 1466.83)" x="62.9921" y="1466.83">0</text>
</g>
<g clip-path="url(#clip7300)">
<text style="fill:#000000; fill-opacity:1; font-family:Arial,Helvetica Neue,Helvetica,sans-serif; font-size:48px; text-anchor:end;" transform="rotate(0, 62.9921, 1167.15)" x="62.9921" y="1167.15">10</text>
</g>
<g clip-path="url(#clip7300)">
<text style="fill:#000000; fill-opacity:1; font-family:Arial,Helvetica Neue,Helvetica,sans-serif; font-size:48px; text-anchor:end;" transform="rotate(0, 62.9921, 867.471)" x="62.9921" y="867.471">20</text>
</g>
<g clip-path="url(#clip7300)">
<text style="fill:#000000; fill-opacity:1; font-family:Arial,Helvetica Neue,Helvetica,sans-serif; font-size:48px; text-anchor:end;" transform="rotate(0, 62.9921, 567.79)" x="62.9921" y="567.79">30</text>
</g>
<g clip-path="url(#clip7300)">
<text style="fill:#000000; fill-opacity:1; font-family:Arial,Helvetica Neue,Helvetica,sans-serif; font-size:48px; text-anchor:end;" transform="rotate(0, 62.9921, 268.109)" x="62.9921" y="268.109">40</text>
</g>
<polyline clip-path="url(#clip7302)" style="stroke:#cc1414; stroke-width:4; stroke-opacity:1; fill:none" points="
  1532.61,1450.53 1532.57,1450.58 1532.54,1450.63 1532.49,1450.68 1532.45,1450.73 1532.4,1450.79 1532.34,1450.84 1532.28,1450.9 1532.22,1450.96 1532.15,1451.03 
  1532.08,1451.09 1532,1451.16 1531.91,1451.23 1531.82,1451.31 1531.72,1451.39 1531.61,1451.47 1531.49,1451.55 1531.37,1451.64 1531.23,1451.73 1531.08,1451.82 
  1530.92,1451.92 1530.75,1452.02 1530.57,1452.12 1530.37,1452.23 1530.15,1452.35 1529.92,1452.46 1529.66,1452.59 1529.39,1452.71 1529.1,1452.84 1528.78,1452.98 
  1528.44,1453.12 1528.07,1453.27 1527.67,1453.42 1527.24,1453.58 1526.77,1453.75 1526.27,1453.92 1525.73,1454.09 1525.14,1454.28 1524.51,1454.47 1523.83,1454.67 
  1523.09,1454.87 1522.3,1455.08 1521.45,1455.31 1520.52,1455.53 1519.53,1455.77 1518.46,1456.02 1517.3,1456.27 1516.05,1456.53 1514.71,1456.8 1513.26,1457.08 
  1511.7,1457.37 1510.01,1457.67 1508.2,1457.98 1506.25,1458.3 1504.15,1458.64 1501.89,1458.98 1499.45,1459.33 1496.83,1459.69 1494.02,1460.06 1490.99,1460.44 
  1487.74,1460.84 1484.24,1461.24 1480.49,1461.65 1476.47,1462.08 1472.15,1462.51 1467.52,1462.95 1462.55,1463.4 1457.24,1463.86 1451.56,1464.33 1445.48,1464.8 
  1438.99,1465.28 1432.06,1465.76 1424.67,1466.25 1416.79,1466.74 1408.41,1467.23 1399.51,1467.71 1390.06,1468.19 1380.04,1468.66 1369.44,1469.13 1358.23,1469.58 
  1346.41,1470.02 1333.96,1470.43 1320.89,1470.83 1307.18,1471.2 1292.84,1471.53 1277.89,1471.84 1262.33,1472.1 1246.19,1472.31 1229.51,1472.48 1212.33,1472.59 
  1194.7,1472.65 1176.69,1472.64 1158.37,1472.56 1139.83,1472.4 1121.16,1472.17 1102.48,1471.86 1083.91,1471.46 1065.58,1470.98 1047.64,1470.41 1030.22,1469.76 
  1013.48,1469.02 997.573,1468.2 982.656,1467.3 968.875,1466.33 956.37,1465.3 945.267,1464.21 935.677,1463.07 927.692,1461.9 921.377,1460.71 916.772,1459.51 
  913.888,1458.31 912.706,1457.12 913.174,1455.97 915.212,1454.86 918.711,1453.81 923.536,1452.81 929.532,1451.89 936.526,1451.05 944.335,1450.3 952.769,1449.63 
  961.639,1449.06 970.761,1448.57 979.961,1448.16 989.08,1447.84 997.978,1447.59 1006.53,1447.42 1014.65,1447.3 1022.25,1447.24 1029.28,1447.23 1035.71,1447.26 
  1041.51,1447.32 1046.7,1447.4 1051.28,1447.5 1055.29,1447.62 1058.75,1447.74 1061.71,1447.87 1064.21,1448 1066.3,1448.12 1068.03,1448.24 1069.43,1448.36 
  1070.56,1448.47 1071.44,1448.57 1072.13,1448.66 1072.65,1448.74 1073.03,1448.82 1073.3,1448.89 1073.48,1448.95 1073.58,1449 1073.63,1449.05 1073.64,1449.09 
  1073.61,1449.12 1073.57,1449.15 1073.5,1449.18 1073.43,1449.2 1073.35,1449.22 1073.27,1449.24 1073.19,1449.25 1073.11,1449.27 1073.04,1449.28 1072.97,1449.29 
  1072.9,1449.29 1072.84,1449.3 1072.78,1449.31 1072.73,1449.31 1072.69,1449.31 1072.65,1449.32 1072.61,1449.32 1072.58,1449.32 1072.55,1449.32 1072.52,1449.33 
  1072.5,1449.33 1072.48,1449.33 1072.46,1449.33 1072.45,1449.33 1072.43,1449.33 1072.42,1449.33 1072.41,1449.33 1072.4,1449.33 1072.39,1449.33 1072.39,1449.33 
  1072.38,1449.33 1072.38,1449.33 1072.37,1449.33 1072.37,1449.33 1072.36,1449.33 1072.36,1449.33 1072.36,1449.33 1072.36,1449.33 1072.35,1449.33 1072.35,1449.33 
  1072.35,1449.33 1072.35,1449.33 1072.35,1449.33 1072.35,1449.33 1072.35,1449.33 1072.35,1449.33 1072.35,1449.33 1072.35,1449.33 1072.35,1449.33 1072.35,1449.33 
  1072.35,1449.33 1072.35,1449.33 1072.34,1449.33 1072.34,1449.33 1072.34,1449.33 1072.34,1449.33 1072.34,1449.33 1072.34,1449.33 1072.34,1449.33 1072.34,1449.33 
  1072.34,1449.33 1072.34,1449.33 1072.34,1449.33 1072.34,1449.33 1072.34,1449.33 1072.34,1449.33 1072.34,1449.33 1072.34,1449.33 1072.34,1449.33 1072.34,1449.33 
  1072.34,1449.33 1072.34,1449.33 1072.34,1449.33 1072.34,1449.33 1072.34,1449.33 1072.34,1449.33 1072.34,1449.33 1072.34,1449.33 1072.34,1449.33 1072.34,1449.33 
  1072.34,1449.33 1072.34,1449.33 1072.34,1449.33 1072.34,1449.33 1072.34,1449.33 1072.34,1449.33 1072.34,1449.33 1072.34,1449.33 1072.34,1449.33 1072.34,1449.33 
  
  "/>
<polyline clip-path="url(#clip7302)" style="stroke:#14cc2a; stroke-width:4; stroke-opacity:1; fill:none" points="
  2288.63,88.9544 2288.57,140.563 2288.5,190.228 2288.42,238.022 2288.34,284.017 2288.26,328.282 2288.16,370.881 2288.06,411.879 2287.95,451.335 2287.83,489.31 
  2287.7,525.858 2287.57,561.035 2287.42,594.892 2287.26,627.48 2287.08,658.848 2286.89,689.041 2286.69,718.105 2286.47,746.083 2286.24,773.016 2285.98,798.944 
  2285.71,823.907 2285.41,847.94 2285.09,871.08 2284.74,893.361 2284.36,914.816 2283.96,935.477 2283.52,955.375 2283.05,974.538 2282.54,992.996 2281.99,1010.78 
  2281.4,1027.9 2280.75,1044.41 2280.06,1060.31 2279.31,1075.63 2278.51,1090.4 2277.64,1104.63 2276.7,1118.35 2275.68,1131.58 2274.59,1144.33 2273.41,1156.63 
  2272.13,1168.5 2270.75,1179.94 2269.27,1190.99 2267.67,1201.65 2265.94,1211.94 2264.08,1221.88 2262.07,1231.47 2259.9,1240.74 2257.57,1249.7 2255.05,1258.36 
  2252.34,1266.73 2249.41,1274.83 2246.26,1282.66 2242.86,1290.25 2239.21,1297.59 2235.27,1304.7 2231.03,1311.59 2226.47,1318.26 2221.56,1324.74 2216.28,1331.02 
  2210.61,1337.11 2204.51,1343.03 2197.95,1348.78 2190.91,1354.36 2183.35,1359.79 2175.25,1365.07 2166.55,1370.2 2157.23,1375.19 2147.25,1380.06 2136.56,1384.79 
  2125.13,1389.4 2112.92,1393.89 2099.87,1398.26 2085.95,1402.51 2071.11,1406.66 2055.31,1410.69 2038.51,1414.61 2020.65,1418.42 2001.71,1422.13 1981.65,1425.72 
  1960.42,1429.2 1938,1432.58 1914.36,1435.83 1889.48,1438.97 1863.36,1441.98 1835.98,1444.87 1807.36,1447.63 1777.52,1450.25 1746.49,1452.73 1714.3,1455.06 
  1681.04,1457.23 1646.77,1459.25 1611.6,1461.1 1575.63,1462.77 1539.02,1464.26 1501.9,1465.57 1464.47,1466.69 1426.91,1467.62 1389.43,1468.35 1352.27,1468.88 
  1315.66,1469.22 1279.85,1469.36 1245.09,1469.32 1211.64,1469.1 1179.73,1468.7 1149.61,1468.14 1121.5,1467.44 1095.57,1466.6 1072.01,1465.65 1050.94,1464.6 
  1032.45,1463.48 1016.58,1462.3 1003.35,1461.08 992.713,1459.85 984.586,1458.63 978.845,1457.43 975.329,1456.27 973.847,1455.17 974.183,1454.14 976.101,1453.19 
  979.358,1452.32 983.706,1451.54 988.904,1450.85 994.72,1450.26 1000.94,1449.75 1007.37,1449.33 1013.83,1448.99 1020.19,1448.72 1026.33,1448.52 1032.14,1448.38 
  1037.57,1448.28 1042.57,1448.23 1047.11,1448.21 1051.19,1448.22 1054.8,1448.25 1057.96,1448.3 1060.71,1448.36 1063.06,1448.43 1065.06,1448.5 1066.73,1448.57 
  1068.12,1448.64 1069.26,1448.71 1070.19,1448.78 1070.93,1448.84 1071.51,1448.9 1071.96,1448.95 1072.3,1449 1072.55,1449.05 1072.73,1449.08 1072.86,1449.12 
  1072.93,1449.15 1072.98,1449.17 1072.99,1449.2 1072.99,1449.22 1072.97,1449.23 1072.94,1449.25 1072.9,1449.26 1072.87,1449.27 1072.82,1449.28 1072.78,1449.29 
  1072.74,1449.3 1072.7,1449.3 1072.67,1449.31 1072.63,1449.31 1072.6,1449.32 1072.57,1449.32 1072.55,1449.32 1072.52,1449.32 1072.5,1449.32 1072.48,1449.33 
  1072.46,1449.33 1072.45,1449.33 1072.44,1449.33 1072.42,1449.33 1072.41,1449.33 1072.4,1449.33 1072.4,1449.33 1072.39,1449.33 1072.38,1449.33 1072.38,1449.33 
  1072.37,1449.33 1072.37,1449.33 1072.37,1449.33 1072.36,1449.33 1072.36,1449.33 1072.36,1449.33 1072.36,1449.33 1072.35,1449.33 1072.35,1449.33 1072.35,1449.33 
  1072.35,1449.33 1072.35,1449.33 1072.35,1449.33 1072.35,1449.33 1072.35,1449.33 1072.35,1449.33 1072.35,1449.33 1072.35,1449.33 1072.35,1449.33 1072.35,1449.33 
  1072.34,1449.33 1072.34,1449.33 1072.34,1449.33 1072.34,1449.33 1072.34,1449.33 1072.34,1449.33 1072.34,1449.33 1072.34,1449.33 1072.34,1449.33 1072.34,1449.33 
  1072.34,1449.33 1072.34,1449.33 1072.34,1449.33 1072.34,1449.33 1072.34,1449.33 1072.34,1449.33 1072.34,1449.33 1072.34,1449.33 1072.34,1449.33 1072.34,1449.33 
  1072.34,1449.33 1072.34,1449.33 1072.34,1449.33 1072.34,1449.33 1072.34,1449.33 1072.34,1449.33 1072.34,1449.33 1072.34,1449.33 1072.34,1449.33 1072.34,1449.33 
  1072.34,1449.33 1072.34,1449.33 1072.34,1449.33 1072.34,1449.33 1072.34,1449.33 1072.34,1449.33 1072.34,1449.33 1072.34,1449.33 1072.34,1449.33 1072.34,1449.33 
  
  "/>
<polyline clip-path="url(#clip7302)" style="stroke:#000000; stroke-width:4; stroke-opacity:1; fill:none" stroke-dasharray="16, 10" points="
  1533.07,1449.33 1532.14,1447.43 1529.37,1445.54 1524.75,1443.66 1518.31,1441.81 1510.07,1439.98 1500.07,1438.2 1488.35,1436.45 1474.95,1434.76 1459.93,1433.13 
  1443.35,1431.56 1425.28,1430.07 1405.79,1428.65 1384.95,1427.32 1362.86,1426.07 1339.59,1424.92 1315.25,1423.87 1289.93,1422.92 1263.74,1422.07 1236.77,1421.34 
  1209.14,1420.72 1180.96,1420.21 1152.35,1419.82 1123.41,1419.55 1094.27,1419.4 1065.03,1419.37 1035.83,1419.46 1006.77,1419.67 977.983,1420 949.571,1420.45 
  921.654,1421.01 894.343,1421.69 867.749,1422.48 841.979,1423.38 817.136,1424.38 793.322,1425.49 770.63,1426.68 749.154,1427.98 728.979,1429.35 710.186,1430.81 
  692.852,1432.34 677.046,1433.94 662.831,1435.6 650.266,1437.32 639.4,1439.08 630.277,1440.89 622.935,1442.73 617.402,1444.6 613.701,1446.48 611.846,1448.38 
  611.846,1450.28 613.701,1452.18 617.402,1454.07 622.935,1455.94 630.277,1457.78 639.4,1459.58 650.266,1461.35 662.831,1463.07 677.046,1464.73 692.852,1466.33 
  710.186,1467.86 728.979,1469.32 749.154,1470.69 770.63,1471.98 793.322,1473.18 817.136,1474.28 841.979,1475.29 867.749,1476.18 894.343,1476.97 921.654,1477.65 
  949.571,1478.22 977.983,1478.67 1006.77,1479 1035.83,1479.21 1065.03,1479.3 1094.27,1479.27 1123.41,1479.12 1152.35,1478.85 1180.96,1478.46 1209.14,1477.95 
  1236.77,1477.33 1263.74,1476.59 1289.93,1475.75 1315.25,1474.8 1339.59,1473.74 1362.86,1472.59 1384.95,1471.35 1405.79,1470.01 1425.28,1468.6 1443.35,1467.1 
  1459.93,1465.54 1474.95,1463.9 1488.35,1462.21 1500.07,1460.47 1510.07,1458.68 1518.31,1456.86 1524.75,1455 1529.37,1453.13 1532.14,1451.23 1533.07,1449.33 
  
  "/>
<polyline clip-path="url(#clip7302)" style="stroke:#000000; stroke-width:4; stroke-opacity:1; fill:none" stroke-dasharray="16, 10" points="
  1072.34,1449.33 1071.42,1447.43 1068.64,1445.54 1064.02,1443.66 1057.58,1441.81 1049.34,1439.98 1039.34,1438.2 1027.62,1436.45 1014.22,1434.76 999.204,1433.13 
  982.626,1431.56 964.553,1430.07 945.06,1428.65 924.223,1427.32 902.128,1426.07 878.864,1424.92 854.523,1423.87 829.203,1422.92 803.008,1422.07 776.042,1421.34 
  748.414,1420.72 720.235,1420.21 691.619,1419.82 662.681,1419.55 633.537,1419.4 604.305,1419.37 575.102,1419.46 546.046,1419.67 517.254,1420 488.842,1420.45 
  460.925,1421.01 433.614,1421.69 407.02,1422.48 381.25,1423.38 356.407,1424.38 332.593,1425.49 309.901,1426.68 288.425,1427.98 268.25,1429.35 249.457,1430.81 
  232.123,1432.34 216.317,1433.94 202.102,1435.6 189.537,1437.32 178.671,1439.08 169.548,1440.89 162.206,1442.73 156.673,1444.6 152.972,1446.48 151.118,1448.38 
  151.118,1450.28 152.972,1452.18 156.673,1454.07 162.206,1455.94 169.548,1457.78 178.671,1459.58 189.537,1461.35 202.102,1463.07 216.317,1464.73 232.123,1466.33 
  249.457,1467.86 268.25,1469.32 288.425,1470.69 309.901,1471.98 332.593,1473.18 356.407,1474.28 381.25,1475.29 407.02,1476.18 433.614,1476.97 460.925,1477.65 
  488.842,1478.22 517.254,1478.67 546.046,1479 575.102,1479.21 604.305,1479.3 633.537,1479.27 662.681,1479.12 691.619,1478.85 720.235,1478.46 748.414,1477.95 
  776.042,1477.33 803.008,1476.59 829.203,1475.75 854.523,1474.8 878.864,1473.74 902.128,1472.59 924.223,1471.35 945.06,1470.01 964.553,1468.6 982.626,1467.1 
  999.204,1465.54 1014.22,1463.9 1027.62,1462.21 1039.34,1460.47 1049.34,1458.68 1057.58,1456.86 1064.02,1455 1068.64,1453.13 1071.42,1451.23 1072.34,1449.33 
  
  "/>
</svg>
