<?xml version="1.0" encoding="utf-8"?>
<svg xmlns="http://www.w3.org/2000/svg" xmlns:xlink="http://www.w3.org/1999/xlink" width="800" height="450" viewBox="0 0 3200 1800">
<defs>
  <clipPath id="clip100">
    <rect x="0" y="0" width="3200" height="1800"/>
  </clipPath>
</defs>
<path clip-path="url(#clip100)" d="M0 1800 L3200 1800 L3200 0 L0 0  Z" fill="#ffffff" fill-rule="evenodd" fill-opacity="1"/>
<defs>
  <clipPath id="clip101">
    <rect x="640" y="0" width="2241" height="1800"/>
  </clipPath>
</defs>
<path clip-path="url(#clip100)" d="M272.872 751.562 L3152.76 751.562 L3152.76 114.022 L272.872 114.022  Z" fill="#ffffff" fill-rule="evenodd" fill-opacity="1"/>
<defs>
  <clipPath id="clip102">
    <rect x="272" y="114" width="2881" height="639"/>
  </clipPath>
</defs>
<polyline clip-path="url(#clip102)" style="stroke:#000000; stroke-linecap:round; stroke-linejoin:round; stroke-width:2; stroke-opacity:0.1; fill:none" points="1260,751.562 1260,114.022 "/>
<polyline clip-path="url(#clip102)" style="stroke:#000000; stroke-linecap:round; stroke-linejoin:round; stroke-width:2; stroke-opacity:0.1; fill:none" points="2618.44,751.562 2618.44,114.022 "/>
<polyline clip-path="url(#clip102)" style="stroke:#000000; stroke-linecap:round; stroke-linejoin:round; stroke-width:2; stroke-opacity:0.1; fill:none" points="272.872,592.984 3152.76,592.984 "/>
<polyline clip-path="url(#clip102)" style="stroke:#000000; stroke-linecap:round; stroke-linejoin:round; stroke-width:2; stroke-opacity:0.1; fill:none" points="272.872,321.883 3152.76,321.883 "/>
<polyline clip-path="url(#clip100)" style="stroke:#000000; stroke-linecap:round; stroke-linejoin:round; stroke-width:4; stroke-opacity:1; fill:none" points="272.872,751.562 3152.76,751.562 "/>
<polyline clip-path="url(#clip100)" style="stroke:#000000; stroke-linecap:round; stroke-linejoin:round; stroke-width:4; stroke-opacity:1; fill:none" points="1260,751.562 1260,732.665 "/>
<polyline clip-path="url(#clip100)" style="stroke:#000000; stroke-linecap:round; stroke-linejoin:round; stroke-width:4; stroke-opacity:1; fill:none" points="2618.44,751.562 2618.44,732.665 "/>
<path clip-path="url(#clip100)" d="M1224.98 832.087 L1232.62 832.087 L1232.62 805.722 L1224.31 807.388 L1224.31 803.129 L1232.58 801.462 L1237.25 801.462 L1237.25 832.087 L1244.89 832.087 L1244.89 836.022 L1224.98 836.022 L1224.98 832.087 Z" fill="#000000" fill-rule="nonzero" fill-opacity="1" /><path clip-path="url(#clip100)" d="M1264.34 804.541 Q1260.73 804.541 1258.9 808.106 Q1257.09 811.648 1257.09 818.777 Q1257.09 825.884 1258.9 829.448 Q1260.73 832.99 1264.34 832.99 Q1267.97 832.99 1269.78 829.448 Q1271.6 825.884 1271.6 818.777 Q1271.6 811.648 1269.78 808.106 Q1267.97 804.541 1264.34 804.541 M1264.34 800.837 Q1270.15 800.837 1273.2 805.444 Q1276.28 810.027 1276.28 818.777 Q1276.28 827.504 1273.2 832.11 Q1270.15 836.694 1264.34 836.694 Q1258.53 836.694 1255.45 832.11 Q1252.39 827.504 1252.39 818.777 Q1252.39 810.027 1255.45 805.444 Q1258.53 800.837 1264.34 800.837 Z" fill="#000000" fill-rule="nonzero" fill-opacity="1" /><path clip-path="url(#clip100)" d="M1285.99 783.033 Q1283.05 783.033 1281.57 785.93 Q1280.1 788.807 1280.1 794.6 Q1280.1 800.374 1281.57 803.271 Q1283.05 806.148 1285.99 806.148 Q1288.94 806.148 1290.41 803.271 Q1291.89 800.374 1291.89 794.6 Q1291.89 788.807 1290.41 785.93 Q1288.94 783.033 1285.99 783.033 M1285.99 780.024 Q1290.71 780.024 1293.19 783.767 Q1295.69 787.491 1295.69 794.6 Q1295.69 801.691 1293.19 805.433 Q1290.71 809.157 1285.99 809.157 Q1281.26 809.157 1278.76 805.433 Q1276.28 801.691 1276.28 794.6 Q1276.28 787.491 1278.76 783.767 Q1281.26 780.024 1285.99 780.024 Z" fill="#000000" fill-rule="nonzero" fill-opacity="1" /><path clip-path="url(#clip100)" d="M2583.88 832.087 L2591.52 832.087 L2591.52 805.722 L2583.21 807.388 L2583.21 803.129 L2591.47 801.462 L2596.15 801.462 L2596.15 832.087 L2603.79 832.087 L2603.79 836.022 L2583.88 836.022 L2583.88 832.087 Z" fill="#000000" fill-rule="nonzero" fill-opacity="1" /><path clip-path="url(#clip100)" d="M2623.23 804.541 Q2619.62 804.541 2617.79 808.106 Q2615.99 811.648 2615.99 818.777 Q2615.99 825.884 2617.79 829.448 Q2619.62 832.99 2623.23 832.99 Q2626.87 832.99 2628.67 829.448 Q2630.5 825.884 2630.5 818.777 Q2630.5 811.648 2628.67 808.106 Q2626.87 804.541 2623.23 804.541 M2623.23 800.837 Q2629.04 800.837 2632.1 805.444 Q2635.18 810.027 2635.18 818.777 Q2635.18 827.504 2632.1 832.11 Q2629.04 836.694 2623.23 836.694 Q2617.42 836.694 2614.34 832.11 Q2611.29 827.504 2611.29 818.777 Q2611.29 810.027 2614.34 805.444 Q2617.42 800.837 2623.23 800.837 Z" fill="#000000" fill-rule="nonzero" fill-opacity="1" /><path clip-path="url(#clip100)" d="M2647.87 793.472 Q2650.6 794.055 2652.12 795.898 Q2653.67 797.741 2653.67 800.449 Q2653.67 804.606 2650.81 806.882 Q2647.95 809.157 2642.68 809.157 Q2640.91 809.157 2639.03 808.8 Q2637.17 808.462 2635.18 807.766 L2635.18 804.098 Q2636.76 805.02 2638.64 805.49 Q2640.52 805.96 2642.57 805.96 Q2646.14 805.96 2648 804.55 Q2649.89 803.139 2649.89 800.449 Q2649.89 797.967 2648.14 796.575 Q2646.41 795.164 2643.3 795.164 L2640.03 795.164 L2640.03 792.042 L2643.45 792.042 Q2646.26 792.042 2647.74 790.933 Q2649.23 789.804 2649.23 787.698 Q2649.23 785.535 2647.68 784.388 Q2646.16 783.222 2643.3 783.222 Q2641.74 783.222 2639.95 783.56 Q2638.17 783.899 2636.02 784.613 L2636.02 781.228 Q2638.19 780.626 2640.07 780.325 Q2641.97 780.024 2643.64 780.024 Q2647.97 780.024 2650.49 781.999 Q2653.01 783.955 2653.01 787.303 Q2653.01 789.635 2651.67 791.252 Q2650.34 792.851 2647.87 793.472 Z" fill="#000000" fill-rule="nonzero" fill-opacity="1" /><polyline clip-path="url(#clip100)" style="stroke:#000000; stroke-linecap:round; stroke-linejoin:round; stroke-width:4; stroke-opacity:1; fill:none" points="272.872,751.562 272.872,114.022 "/>
<polyline clip-path="url(#clip100)" style="stroke:#000000; stroke-linecap:round; stroke-linejoin:round; stroke-width:4; stroke-opacity:1; fill:none" points="272.872,592.984 291.769,592.984 "/>
<polyline clip-path="url(#clip100)" style="stroke:#000000; stroke-linecap:round; stroke-linejoin:round; stroke-width:4; stroke-opacity:1; fill:none" points="272.872,321.883 291.769,321.883 "/>
<path clip-path="url(#clip100)" d="M124.243 612.777 L131.882 612.777 L131.882 586.411 L123.571 588.078 L123.571 583.819 L131.835 582.152 L136.511 582.152 L136.511 612.777 L144.15 612.777 L144.15 616.712 L124.243 616.712 L124.243 612.777 Z" fill="#000000" fill-rule="nonzero" fill-opacity="1" /><path clip-path="url(#clip100)" d="M163.594 585.231 Q159.983 585.231 158.155 588.795 Q156.349 592.337 156.349 599.467 Q156.349 606.573 158.155 610.138 Q159.983 613.68 163.594 613.68 Q167.229 613.68 169.034 610.138 Q170.863 606.573 170.863 599.467 Q170.863 592.337 169.034 588.795 Q167.229 585.231 163.594 585.231 M163.594 581.527 Q169.405 581.527 172.46 586.133 Q175.539 590.717 175.539 599.467 Q175.539 608.193 172.46 612.8 Q169.405 617.383 163.594 617.383 Q157.784 617.383 154.706 612.8 Q151.65 608.193 151.65 599.467 Q151.65 590.717 154.706 586.133 Q157.784 581.527 163.594 581.527 Z" fill="#000000" fill-rule="nonzero" fill-opacity="1" /><path clip-path="url(#clip100)" d="M175.539 575.628 L199.65 575.628 L199.65 578.826 L175.539 578.826 L175.539 575.628 Z" fill="#000000" fill-rule="nonzero" fill-opacity="1" /><path clip-path="url(#clip100)" d="M207.888 561.222 L222.803 561.222 L222.803 564.419 L211.368 564.419 L211.368 571.302 Q212.195 571.02 213.023 570.889 Q213.85 570.738 214.678 570.738 Q219.38 570.738 222.126 573.315 Q224.872 575.892 224.872 580.293 Q224.872 584.825 222.05 587.345 Q219.229 589.847 214.095 589.847 Q212.327 589.847 210.484 589.546 Q208.659 589.245 206.703 588.643 L206.703 584.825 Q208.396 585.747 210.201 586.198 Q212.007 586.65 214.019 586.65 Q217.273 586.65 219.173 584.938 Q221.072 583.227 221.072 580.293 Q221.072 577.359 219.173 575.647 Q217.273 573.936 214.019 573.936 Q212.496 573.936 210.973 574.274 Q209.468 574.613 207.888 575.327 L207.888 561.222 Z" fill="#000000" fill-rule="nonzero" fill-opacity="1" /><path clip-path="url(#clip100)" d="M154.166 341.676 L161.805 341.676 L161.805 315.31 L153.495 316.977 L153.495 312.717 L161.758 311.051 L166.434 311.051 L166.434 341.676 L174.073 341.676 L174.073 345.611 L154.166 345.611 L154.166 341.676 Z" fill="#000000" fill-rule="nonzero" fill-opacity="1" /><path clip-path="url(#clip100)" d="M193.518 314.129 Q189.906 314.129 188.078 317.694 Q186.272 321.236 186.272 328.365 Q186.272 335.472 188.078 339.037 Q189.906 342.578 193.518 342.578 Q197.152 342.578 198.957 339.037 Q200.786 335.472 200.786 328.365 Q200.786 321.236 198.957 317.694 Q197.152 314.129 193.518 314.129 M193.518 310.426 Q199.328 310.426 202.383 315.032 Q205.462 319.615 205.462 328.365 Q205.462 337.092 202.383 341.699 Q199.328 346.282 193.518 346.282 Q187.707 346.282 184.629 341.699 Q181.573 337.092 181.573 328.365 Q181.573 319.615 184.629 315.032 Q187.707 310.426 193.518 310.426 Z" fill="#000000" fill-rule="nonzero" fill-opacity="1" /><path clip-path="url(#clip100)" d="M215.167 292.622 Q212.233 292.622 210.747 295.518 Q209.28 298.396 209.28 304.189 Q209.28 309.962 210.747 312.859 Q212.233 315.736 215.167 315.736 Q218.12 315.736 219.587 312.859 Q221.072 309.962 221.072 304.189 Q221.072 298.396 219.587 295.518 Q218.12 292.622 215.167 292.622 M215.167 289.612 Q219.887 289.612 222.37 293.355 Q224.872 297.079 224.872 304.189 Q224.872 311.279 222.37 315.022 Q219.887 318.746 215.167 318.746 Q210.446 318.746 207.945 315.022 Q205.462 311.279 205.462 304.189 Q205.462 297.079 207.945 293.355 Q210.446 289.612 215.167 289.612 Z" fill="#000000" fill-rule="nonzero" fill-opacity="1" /><path clip-path="url(#clip100)" d="M13.7954 612.623 L13.7954 603.043 L46.1332 590.916 L13.7954 578.726 L13.7954 569.146 L61.3154 569.146 L61.3154 575.416 L19.5882 575.416 L52.1807 587.67 L52.1807 594.131 L19.5882 606.385 L61.3154 606.385 L61.3154 612.623 L13.7954 612.623 Z" fill="#000000" fill-rule="nonzero" fill-opacity="1" /><path clip-path="url(#clip100)" d="M43.396 540.436 Q43.396 547.534 45.0192 550.271 Q46.6425 553.009 50.5574 553.009 Q53.6766 553.009 55.5227 550.972 Q57.3369 548.903 57.3369 545.37 Q57.3369 540.5 53.8994 537.572 Q50.4301 534.612 44.701 534.612 L43.396 534.612 L43.396 540.436 M40.977 528.755 L61.3154 528.755 L61.3154 534.612 L55.9046 534.612 Q59.1511 536.617 60.7107 539.609 Q62.2385 542.601 62.2385 546.929 Q62.2385 552.404 59.1829 555.65 Q56.0956 558.865 50.9393 558.865 Q44.9238 558.865 41.8682 554.855 Q38.8127 550.812 38.8127 542.824 L38.8127 534.612 L38.2398 534.612 Q34.1975 534.612 32.0014 537.285 Q29.7734 539.927 29.7734 544.733 Q29.7734 547.789 30.5054 550.685 Q31.2375 553.582 32.7016 556.255 L27.2907 556.255 Q26.0494 553.04 25.4447 550.017 Q24.8081 546.993 24.8081 544.128 Q24.8081 536.394 28.8185 532.575 Q32.8289 528.755 40.977 528.755 Z" fill="#000000" fill-rule="nonzero" fill-opacity="1" /><path clip-path="url(#clip100)" d="M43.0777 493.235 Q36.712 493.235 33.2109 495.876 Q29.7097 498.486 29.7097 503.229 Q29.7097 507.939 33.2109 510.581 Q36.712 513.191 43.0777 513.191 Q49.4116 513.191 52.9127 510.581 Q56.4139 507.939 56.4139 503.229 Q56.4139 498.486 52.9127 495.876 Q49.4116 493.235 43.0777 493.235 M56.8913 487.378 Q65.9942 487.378 70.4184 491.42 Q74.8744 495.463 74.8744 503.802 Q74.8744 506.889 74.397 509.626 Q73.9514 512.364 72.9965 514.942 L67.2992 514.942 Q68.6997 512.364 69.3681 509.849 Q70.0365 507.335 70.0365 504.725 Q70.0365 498.964 67.0128 496.099 Q64.0209 493.235 57.9416 493.235 L55.0452 493.235 Q58.1963 495.049 59.7558 497.882 Q61.3154 500.714 61.3154 504.661 Q61.3154 511.218 56.3184 515.228 Q51.3213 519.239 43.0777 519.239 Q34.8023 519.239 29.8052 515.228 Q24.8081 511.218 24.8081 504.661 Q24.8081 500.714 26.3677 497.882 Q27.9273 495.049 31.0783 493.235 L25.6675 493.235 L25.6675 487.378 L56.8913 487.378 Z" fill="#000000" fill-rule="nonzero" fill-opacity="1" /><path clip-path="url(#clip100)" d="M39.7994 445.683 L61.3154 445.683 L61.3154 451.539 L39.9903 451.539 Q34.9296 451.539 32.4151 453.513 Q29.9007 455.486 29.9007 459.433 Q29.9007 464.175 32.9244 466.912 Q35.9481 469.65 41.168 469.65 L61.3154 469.65 L61.3154 475.538 L25.6675 475.538 L25.6675 469.65 L31.2057 469.65 Q27.991 467.549 26.3995 464.716 Q24.8081 461.852 24.8081 458.128 Q24.8081 451.985 28.6275 448.834 Q32.4151 445.683 39.7994 445.683 Z" fill="#000000" fill-rule="nonzero" fill-opacity="1" /><path clip-path="url(#clip100)" d="M25.6675 434.002 L25.6675 428.145 L61.3154 428.145 L61.3154 434.002 L25.6675 434.002 M11.7902 434.002 L11.7902 428.145 L19.2063 428.145 L19.2063 434.002 L11.7902 434.002 Z" fill="#000000" fill-rule="nonzero" fill-opacity="1" /><path clip-path="url(#clip100)" d="M15.546 410.099 L25.6675 410.099 L25.6675 398.036 L30.219 398.036 L30.219 410.099 L49.5707 410.099 Q53.9312 410.099 55.1725 408.921 Q56.4139 407.711 56.4139 404.051 L56.4139 398.036 L61.3154 398.036 L61.3154 404.051 Q61.3154 410.831 58.801 413.409 Q56.2547 415.987 49.5707 415.987 L30.219 415.987 L30.219 420.284 L25.6675 420.284 L25.6675 415.987 L15.546 415.987 L15.546 410.099 Z" fill="#000000" fill-rule="nonzero" fill-opacity="1" /><path clip-path="url(#clip100)" d="M47.2472 390.938 L25.6675 390.938 L25.6675 385.081 L47.0244 385.081 Q52.0852 385.081 54.6315 383.108 Q57.1459 381.135 57.1459 377.188 Q57.1459 372.445 54.1222 369.708 Q51.0985 366.939 45.8786 366.939 L25.6675 366.939 L25.6675 361.083 L61.3154 361.083 L61.3154 366.939 L55.8409 366.939 Q59.0874 369.072 60.6789 371.904 Q62.2385 374.705 62.2385 378.429 Q62.2385 384.572 58.4191 387.755 Q54.5996 390.938 47.2472 390.938 M24.8081 376.201 L24.8081 376.201 Z" fill="#000000" fill-rule="nonzero" fill-opacity="1" /><path clip-path="url(#clip100)" d="M31.0783 325.562 L11.7902 325.562 L11.7902 319.705 L61.3154 319.705 L61.3154 325.562 L55.9683 325.562 Q59.1511 327.408 60.7107 330.241 Q62.2385 333.042 62.2385 336.988 Q62.2385 343.45 57.0823 347.524 Q51.926 351.566 43.5233 351.566 Q35.1206 351.566 29.9643 347.524 Q24.8081 343.45 24.8081 336.988 Q24.8081 333.042 26.3677 330.241 Q27.8955 327.408 31.0783 325.562 M43.5233 345.518 Q49.9845 345.518 53.6766 342.877 Q57.3369 340.203 57.3369 335.556 Q57.3369 330.909 53.6766 328.236 Q49.9845 325.562 43.5233 325.562 Q37.0621 325.562 33.4018 328.236 Q29.7097 330.909 29.7097 335.556 Q29.7097 340.203 33.4018 342.877 Q37.0621 345.518 43.5233 345.518 Z" fill="#000000" fill-rule="nonzero" fill-opacity="1" /><path clip-path="url(#clip100)" d="M42.0274 277.151 L44.8919 277.151 L44.8919 304.078 Q50.9393 303.696 54.1222 300.449 Q57.2732 297.171 57.2732 291.346 Q57.2732 287.972 56.4457 284.821 Q55.6181 281.639 53.9631 278.519 L59.5012 278.519 Q60.838 281.67 61.5382 284.981 Q62.2385 288.291 62.2385 291.696 Q62.2385 300.226 57.2732 305.224 Q52.308 310.189 43.8416 310.189 Q35.0887 310.189 29.9643 305.478 Q24.8081 300.736 24.8081 292.715 Q24.8081 285.522 29.4551 281.352 Q34.0702 277.151 42.0274 277.151 M40.3086 283.007 Q35.5025 283.071 32.6379 285.713 Q29.7734 288.323 29.7734 292.651 Q29.7734 297.553 32.5425 300.513 Q35.3115 303.441 40.3404 303.887 L40.3086 283.007 Z" fill="#000000" fill-rule="nonzero" fill-opacity="1" /><path clip-path="url(#clip100)" d="M1097.42 63.9476 L1097.42 47.7034 L1084.05 47.7034 L1084.05 40.9789 L1105.52 40.9789 L1105.52 66.9452 Q1100.78 70.3075 1095.07 72.0494 Q1089.36 73.7508 1082.88 73.7508 Q1068.7 73.7508 1060.68 65.4869 Q1052.7 57.1826 1052.7 42.3968 Q1052.7 27.5705 1060.68 19.3066 Q1068.7 11.0023 1082.88 11.0023 Q1088.79 11.0023 1094.1 12.4606 Q1099.45 13.9189 1103.94 16.7545 L1103.94 25.464 Q1099.41 21.6156 1094.3 19.6712 Q1089.2 17.7268 1083.57 17.7268 Q1072.47 17.7268 1066.88 23.9246 Q1061.33 30.1225 1061.33 42.3968 Q1061.33 54.6305 1066.88 60.8284 Q1072.47 67.0263 1083.57 67.0263 Q1087.9 67.0263 1091.3 66.2971 Q1094.71 65.5274 1097.42 63.9476 Z" fill="#000000" fill-rule="nonzero" fill-opacity="1" /><path clip-path="url(#clip100)" d="M1155.47 35.9153 Q1158.27 30.8922 1162.15 28.5022 Q1166.04 26.1121 1171.31 26.1121 Q1178.4 26.1121 1182.25 31.0947 Q1186.09 36.0368 1186.09 45.1919 L1186.09 72.576 L1178.6 72.576 L1178.6 45.4349 Q1178.6 38.913 1176.29 35.7533 Q1173.98 32.5936 1169.24 32.5936 Q1163.45 32.5936 1160.09 36.4419 Q1156.73 40.2903 1156.73 46.9338 L1156.73 72.576 L1149.23 72.576 L1149.23 45.4349 Q1149.23 38.8725 1146.92 35.7533 Q1144.61 32.5936 1139.79 32.5936 Q1134.08 32.5936 1130.72 36.4824 Q1127.36 40.3308 1127.36 46.9338 L1127.36 72.576 L1119.86 72.576 L1119.86 27.2059 L1127.36 27.2059 L1127.36 34.2544 Q1129.91 30.082 1133.47 28.0971 Q1137.04 26.1121 1141.94 26.1121 Q1146.88 26.1121 1150.33 28.6237 Q1153.81 31.1352 1155.47 35.9153 Z" fill="#000000" fill-rule="nonzero" fill-opacity="1" /><path clip-path="url(#clip100)" d="M1202.87 62.2867 L1211.41 62.2867 L1211.41 72.576 L1202.87 72.576 L1202.87 62.2867 M1202.87 29.6769 L1211.41 29.6769 L1211.41 39.9662 L1202.87 39.9662 L1202.87 29.6769 Z" fill="#000000" fill-rule="nonzero" fill-opacity="1" /><path clip-path="url(#clip100)" d="M1254.6 9.54393 L1271.77 9.54393 L1271.77 15.3367 L1262.05 15.3367 L1262.05 77.7206 L1271.77 77.7206 L1271.77 83.5134 L1254.6 83.5134 L1254.6 9.54393 Z" fill="#000000" fill-rule="nonzero" fill-opacity="1" /><path clip-path="url(#clip100)" d="M1286.64 12.096 L1325.53 12.096 L1325.53 15.5798 L1303.57 72.576 L1295.02 72.576 L1315.68 18.9825 L1286.64 18.9825 L1286.64 12.096 Z" fill="#000000" fill-rule="nonzero" fill-opacity="1" /><path clip-path="url(#clip100)" d="M1341.49 62.2867 L1350.03 62.2867 L1350.03 72.576 L1341.49 72.576 L1341.49 62.2867 Z" fill="#000000" fill-rule="nonzero" fill-opacity="1" /><path clip-path="url(#clip100)" d="M1374.91 65.6895 L1403.47 65.6895 L1403.47 72.576 L1365.06 72.576 L1365.06 65.6895 Q1369.72 60.8689 1377.74 52.7671 Q1385.8 44.6248 1387.87 42.2752 Q1391.8 37.8598 1393.34 34.8216 Q1394.92 31.7429 1394.92 28.7857 Q1394.92 23.9651 1391.52 20.927 Q1388.15 17.8888 1382.73 17.8888 Q1378.88 17.8888 1374.58 19.2256 Q1370.33 20.5624 1365.47 23.2765 L1365.47 15.0127 Q1370.41 13.0277 1374.71 12.015 Q1379 11.0023 1382.56 11.0023 Q1391.96 11.0023 1397.55 15.7013 Q1403.14 20.4004 1403.14 28.2591 Q1403.14 31.9859 1401.72 35.3482 Q1400.35 38.6699 1396.66 43.2069 Q1395.65 44.3817 1390.22 50.0125 Q1384.79 55.6027 1374.91 65.6895 Z" fill="#000000" fill-rule="nonzero" fill-opacity="1" /><path clip-path="url(#clip100)" d="M1421.49 62.2867 L1430.04 62.2867 L1430.04 69.2543 L1423.4 82.2172 L1418.17 82.2172 L1421.49 69.2543 L1421.49 62.2867 Z" fill="#000000" fill-rule="nonzero" fill-opacity="1" /><path clip-path="url(#clip100)" d="M1499.84 12.096 L1531.96 12.096 L1531.96 18.9825 L1507.33 18.9825 L1507.33 33.8088 Q1509.11 33.2012 1510.9 32.9176 Q1512.68 32.5936 1514.46 32.5936 Q1524.59 32.5936 1530.5 38.1433 Q1536.42 43.6931 1536.42 53.1722 Q1536.42 62.9348 1530.34 68.3631 Q1524.26 73.7508 1513.21 73.7508 Q1509.4 73.7508 1505.43 73.1026 Q1501.5 72.4545 1497.29 71.1582 L1497.29 62.9348 Q1500.93 64.9198 1504.82 65.892 Q1508.71 66.8642 1513.04 66.8642 Q1520.05 66.8642 1524.14 63.1779 Q1528.23 59.4916 1528.23 53.1722 Q1528.23 46.8528 1524.14 43.1664 Q1520.05 39.4801 1513.04 39.4801 Q1509.76 39.4801 1506.48 40.2093 Q1503.24 40.9384 1499.84 42.4778 L1499.84 12.096 Z" fill="#000000" fill-rule="nonzero" fill-opacity="1" /><path clip-path="url(#clip100)" d="M1552.78 71.3202 L1552.78 63.8666 Q1555.86 65.3249 1559.02 66.0946 Q1562.18 66.8642 1565.22 66.8642 Q1573.32 66.8642 1577.57 61.436 Q1581.87 55.9673 1582.48 44.8678 Q1580.13 48.3516 1576.52 50.215 Q1572.92 52.0784 1568.54 52.0784 Q1559.47 52.0784 1554.16 46.6097 Q1548.89 41.1005 1548.89 31.5808 Q1548.89 22.2638 1554.4 16.633 Q1559.91 11.0023 1569.07 11.0023 Q1579.56 11.0023 1585.07 19.0636 Q1590.62 27.0843 1590.62 42.3968 Q1590.62 56.6965 1583.81 65.2439 Q1577.05 73.7508 1565.58 73.7508 Q1562.5 73.7508 1559.35 73.1431 Q1556.19 72.5355 1552.78 71.3202 M1569.07 45.678 Q1574.58 45.678 1577.78 41.9107 Q1581.02 38.1433 1581.02 31.5808 Q1581.02 25.0589 1577.78 21.2916 Q1574.58 17.4837 1569.07 17.4837 Q1563.56 17.4837 1560.32 21.2916 Q1557.12 25.0589 1557.12 31.5808 Q1557.12 38.1433 1560.32 41.9107 Q1563.56 45.678 1569.07 45.678 Z" fill="#000000" fill-rule="nonzero" fill-opacity="1" /><path clip-path="url(#clip100)" d="M1621.69 9.54393 L1621.69 83.5134 L1604.51 83.5134 L1604.51 77.7206 L1614.19 77.7206 L1614.19 15.3367 L1604.51 15.3367 L1604.51 9.54393 L1621.69 9.54393 Z" fill="#000000" fill-rule="nonzero" fill-opacity="1" /><path clip-path="url(#clip100)" d="M1703.84 73.7508 Q1687.03 73.7508 1687.03 49.6884 Q1687.03 40.1688 1693.31 27.2059 L1701.33 27.2059 Q1695.54 40.1688 1695.54 49.8909 Q1695.54 67.4314 1704.53 67.4314 Q1712.75 67.4314 1712.75 45.6375 L1719.64 45.6375 Q1719.64 67.4314 1727.86 67.4314 Q1736.86 67.4314 1736.86 49.8909 Q1736.86 40.1688 1731.06 27.2059 L1739.08 27.2059 Q1745.36 40.1688 1745.36 49.6884 Q1745.36 73.7508 1728.55 73.7508 Q1717.53 73.7508 1716.2 61.6386 Q1714.54 73.7508 1703.84 73.7508 Z" fill="#000000" fill-rule="nonzero" fill-opacity="1" /><path clip-path="url(#clip100)" d="M1815.08 49.3643 Q1815.08 41.2625 1811.72 36.8065 Q1808.39 32.3505 1802.36 32.3505 Q1796.36 32.3505 1793 36.8065 Q1789.68 41.2625 1789.68 49.3643 Q1789.68 57.4256 1793 61.8816 Q1796.36 66.3376 1802.36 66.3376 Q1808.39 66.3376 1811.72 61.8816 Q1815.08 57.4256 1815.08 49.3643 M1822.53 66.9452 Q1822.53 78.5308 1817.39 84.1616 Q1812.24 89.8329 1801.63 89.8329 Q1797.7 89.8329 1794.22 89.2252 Q1790.73 88.6581 1787.45 87.4428 L1787.45 80.1917 Q1790.73 81.9741 1793.93 82.8248 Q1797.13 83.6755 1800.46 83.6755 Q1807.79 83.6755 1811.43 79.8271 Q1815.08 76.0193 1815.08 68.282 L1815.08 64.5957 Q1812.77 68.6061 1809.16 70.5911 Q1805.56 72.576 1800.54 72.576 Q1792.19 72.576 1787.09 66.2161 Q1781.98 59.8562 1781.98 49.3643 Q1781.98 38.832 1787.09 32.472 Q1792.19 26.1121 1800.54 26.1121 Q1805.56 26.1121 1809.16 28.0971 Q1812.77 30.082 1815.08 34.0924 L1815.08 27.2059 L1822.53 27.2059 L1822.53 66.9452 Z" fill="#000000" fill-rule="nonzero" fill-opacity="1" /><path clip-path="url(#clip100)" d="M1873.21 35.9153 Q1876 30.8922 1879.89 28.5022 Q1883.78 26.1121 1889.05 26.1121 Q1896.14 26.1121 1899.99 31.0947 Q1903.83 36.0368 1903.83 45.1919 L1903.83 72.576 L1896.34 72.576 L1896.34 45.4349 Q1896.34 38.913 1894.03 35.7533 Q1891.72 32.5936 1886.98 32.5936 Q1881.19 32.5936 1877.83 36.4419 Q1874.47 40.2903 1874.47 46.9338 L1874.47 72.576 L1866.97 72.576 L1866.97 45.4349 Q1866.97 38.8725 1864.66 35.7533 Q1862.35 32.5936 1857.53 32.5936 Q1851.82 32.5936 1848.46 36.4824 Q1845.1 40.3308 1845.1 46.9338 L1845.1 72.576 L1837.6 72.576 L1837.6 27.2059 L1845.1 27.2059 L1845.1 34.2544 Q1847.65 30.082 1851.21 28.0971 Q1854.78 26.1121 1859.68 26.1121 Q1864.62 26.1121 1868.06 28.6237 Q1871.55 31.1352 1873.21 35.9153 Z" fill="#000000" fill-rule="nonzero" fill-opacity="1" /><path clip-path="url(#clip100)" d="M1920.6 62.2867 L1929.15 62.2867 L1929.15 72.576 L1920.6 72.576 L1920.6 62.2867 M1920.6 29.6769 L1929.15 29.6769 L1929.15 39.9662 L1920.6 39.9662 L1920.6 29.6769 Z" fill="#000000" fill-rule="nonzero" fill-opacity="1" /><path clip-path="url(#clip100)" d="M1972.33 9.54393 L1989.51 9.54393 L1989.51 15.3367 L1979.79 15.3367 L1979.79 77.7206 L1989.51 77.7206 L1989.51 83.5134 L1972.33 83.5134 L1972.33 9.54393 Z" fill="#000000" fill-rule="nonzero" fill-opacity="1" /><path clip-path="url(#clip100)" d="M2028.93 19.2256 L2008.27 51.5113 L2028.93 51.5113 L2028.93 19.2256 M2026.78 12.096 L2037.07 12.096 L2037.07 51.5113 L2045.7 51.5113 L2045.7 58.3168 L2037.07 58.3168 L2037.07 72.576 L2028.93 72.576 L2028.93 58.3168 L2001.62 58.3168 L2001.62 50.4176 L2026.78 12.096 Z" fill="#000000" fill-rule="nonzero" fill-opacity="1" /><path clip-path="url(#clip100)" d="M2059.23 62.2867 L2067.77 62.2867 L2067.77 72.576 L2059.23 72.576 L2059.23 62.2867 Z" fill="#000000" fill-rule="nonzero" fill-opacity="1" /><path clip-path="url(#clip100)" d="M2083.53 12.096 L2122.42 12.096 L2122.42 15.5798 L2100.47 72.576 L2091.92 72.576 L2112.58 18.9825 L2083.53 18.9825 L2083.53 12.096 Z" fill="#000000" fill-rule="nonzero" fill-opacity="1" /><path clip-path="url(#clip100)" d="M2139.23 62.2867 L2147.78 62.2867 L2147.78 69.2543 L2141.14 82.2172 L2135.91 82.2172 L2139.23 69.2543 L2139.23 62.2867 Z" fill="#000000" fill-rule="nonzero" fill-opacity="1" /><path clip-path="url(#clip100)" d="M2215.43 12.096 L2254.32 12.096 L2254.32 15.5798 L2232.36 72.576 L2223.82 72.576 L2244.47 18.9825 L2215.43 18.9825 L2215.43 12.096 Z" fill="#000000" fill-rule="nonzero" fill-opacity="1" /><path clip-path="url(#clip100)" d="M2287.78 43.8551 Q2281.95 43.8551 2278.58 46.9743 Q2275.26 50.0935 2275.26 55.5622 Q2275.26 61.0309 2278.58 64.1501 Q2281.95 67.2693 2287.78 67.2693 Q2293.61 67.2693 2296.97 64.1501 Q2300.34 60.9904 2300.34 55.5622 Q2300.34 50.0935 2296.97 46.9743 Q2293.65 43.8551 2287.78 43.8551 M2279.6 40.3713 Q2274.33 39.075 2271.37 35.4697 Q2268.46 31.8644 2268.46 26.6793 Q2268.46 19.4281 2273.6 15.2152 Q2278.79 11.0023 2287.78 11.0023 Q2296.81 11.0023 2301.96 15.2152 Q2307.1 19.4281 2307.1 26.6793 Q2307.1 31.8644 2304.14 35.4697 Q2301.23 39.075 2296 40.3713 Q2301.92 41.7486 2305.2 45.759 Q2308.52 49.7694 2308.52 55.5622 Q2308.52 64.3527 2303.13 69.0517 Q2297.78 73.7508 2287.78 73.7508 Q2277.77 73.7508 2272.39 69.0517 Q2267.04 64.3527 2267.04 55.5622 Q2267.04 49.7694 2270.36 45.759 Q2273.68 41.7486 2279.6 40.3713 M2276.6 27.4489 Q2276.6 32.148 2279.51 34.7811 Q2282.47 37.4142 2287.78 37.4142 Q2293.04 37.4142 2296 34.7811 Q2299 32.148 2299 27.4489 Q2299 22.7499 2296 20.1168 Q2293.04 17.4837 2287.78 17.4837 Q2282.47 17.4837 2279.51 20.1168 Q2276.6 22.7499 2276.6 27.4489 Z" fill="#000000" fill-rule="nonzero" fill-opacity="1" /><path clip-path="url(#clip100)" d="M2339.43 9.54393 L2339.43 83.5134 L2322.25 83.5134 L2322.25 77.7206 L2331.93 77.7206 L2331.93 15.3367 L2322.25 15.3367 L2322.25 9.54393 L2339.43 9.54393 Z" fill="#000000" fill-rule="nonzero" fill-opacity="1" /><polyline clip-path="url(#clip102)" style="stroke:#009af9; stroke-linecap:round; stroke-linejoin:round; stroke-width:4; stroke-opacity:1; fill:none" points="354.378,132.066 361.946,133.877 369.513,135.687 377.081,137.498 384.649,139.309 392.217,141.119 399.785,142.929 407.353,144.74 414.921,146.55 422.489,148.359 430.057,150.169 437.624,151.978 445.192,153.787 452.76,155.596 460.328,157.404 467.896,159.213 475.464,161.02 483.032,162.828 490.6,164.635 498.168,166.442 505.735,168.248 513.303,170.054 520.871,171.859 528.439,173.664 536.007,175.468 543.575,177.271 551.143,179.074 558.711,180.876 566.279,182.677 573.846,184.477 581.414,186.276 588.982,188.074 596.55,189.871 604.118,191.667 611.686,193.462 619.254,195.255 626.822,197.047 634.39,198.837 641.957,200.625 649.525,202.412 657.093,204.196 664.661,205.978 672.229,207.758 679.797,209.536 687.365,211.311 694.933,213.083 702.501,214.852 710.068,216.617 717.636,218.379 725.204,220.137 732.772,221.892 740.34,223.641 747.908,225.387 755.476,227.127 763.044,228.862 770.612,230.591 778.179,232.315 785.747,234.032 793.315,235.742 800.883,237.445 808.451,239.14 816.019,240.828 823.587,242.507 831.155,244.176 838.723,245.837 846.29,247.487 853.858,249.127 861.426,250.756 868.994,252.373 876.562,253.978 884.13,255.571 891.698,257.151 899.266,258.717 906.834,260.269 914.401,261.806 921.969,263.329 929.537,264.836 937.105,266.328 944.673,267.803 952.241,269.262 959.809,270.704 967.377,272.129 974.945,273.537 982.512,274.927 990.08,276.3 997.648,277.656 1005.22,278.995 1012.78,280.315 1020.35,281.619 1027.92,282.906 1035.49,284.175 1043.06,285.428 1050.62,286.665 1058.19,287.885 1065.76,289.09 1073.33,290.28 1080.9,291.454 1088.46,292.615 1096.03,293.761 1103.6,294.894 1111.17,296.015 1118.73,297.122 1126.3,298.218 1133.87,299.303 1141.44,300.377 1149.01,301.44 1156.57,302.494 1164.14,303.538 1171.71,304.574 1179.28,305.601 1186.85,306.621 1194.41,307.633 1201.98,308.639 1209.55,309.638 1217.12,310.631 1224.68,311.619 1232.25,312.602 1239.82,313.58 1247.39,314.555 1254.96,315.525 1262.52,316.493 1270.09,317.458 1277.66,318.421 1285.23,319.382 1292.8,320.343 1300.36,321.303 1307.93,322.263 1315.5,323.225 1323.07,324.189 1330.64,325.156 1338.2,326.126 1345.77,327.102 1353.34,328.085 1360.91,329.076 1368.47,330.076 1376.04,331.088 1383.61,332.114 1391.18,333.156 1398.75,334.216 1406.31,335.298 1413.88,336.405 1421.45,337.54 1429.02,338.706 1436.59,339.908 1444.15,341.15 1451.72,342.435 1459.29,343.767 1466.86,345.15 1474.43,346.588 1481.99,348.085 1489.56,349.642 1497.13,351.262 1504.7,352.947 1512.26,354.697 1519.83,356.511 1527.4,358.39 1534.97,360.331 1542.54,362.332 1550.1,364.389 1557.67,366.5 1565.24,368.66 1572.81,370.865 1580.38,373.112 1587.94,375.397 1595.51,377.714 1603.08,380.062 1610.65,382.436 1618.22,384.833 1625.78,387.251 1633.35,389.688 1640.92,392.142 1648.49,394.611 1656.05,397.094 1663.62,399.592 1671.19,402.104 1678.76,404.63 1686.33,407.173 1693.89,409.734 1701.46,412.316 1709.03,414.922 1716.6,417.555 1724.17,420.223 1731.73,422.931 1739.3,425.688 1746.87,428.503 1754.44,431.391 1762,434.368 1769.57,437.453 1777.14,440.675 1784.71,444.068 1792.28,447.682 1799.84,451.583 1807.41,455.866 1814.98,460.676 1822.55,466.237 1830.12,472.917 1837.68,481.318 1845.25,491.997 1852.82,500.154 1860.39,493.153 1867.96,482.689 1875.52,474.426 1883.09,467.85 1890.66,462.301 1898.23,457.354 1905.79,452.719 1913.36,448.17 1920.93,443.498 1928.5,438.469 1936.07,432.762 1943.63,425.853 1951.2,416.668 1958.77,402.179 1966.34,361.133 1973.91,392.224 1981.47,411.266 1989.04,421.665 1996.61,428.874 2004.18,434.403 2011.75,438.881 2019.31,442.628 2026.88,445.821 2034.45,448.561 2042.02,450.907 2049.58,452.884 2057.15,454.488 2064.72,455.691 2072.29,456.425 2079.86,456.571 2087.42,455.916 2094.99,454.061 2102.56,450.165 2110.13,441.956 2117.7,418.278 2125.26,430.763 2132.83,458.524 2140.4,474.951 2147.97,487.817 2155.54,498.998 2163.1,509.177 2170.67,518.519 2178.24,526.767 2185.81,533.32 2193.37,537.675 2200.94,540.03 2208.51,541.146 2216.08,541.733 2223.65,542.202 2231.21,542.731 2238.78,543.384 2246.35,544.173 2253.92,545.091 2261.49,546.123 2269.05,547.254 2276.62,548.469 2284.19,549.758 2291.76,551.108 2299.33,552.512 2306.89,553.962 2314.46,555.452 2322.03,556.976 2329.6,558.531 2337.16,560.111 2344.73,561.715 2352.3,563.34 2359.87,564.982 2367.44,566.641 2375,568.314 2382.57,569.999 2390.14,571.696 2397.71,573.403 2405.28,575.12 2412.84,576.845 2420.41,578.577 2427.98,580.316 2435.55,582.061 2443.11,583.812 2450.68,585.568 2458.25,587.329 2465.82,589.093 2473.39,590.862 2480.95,592.634 2488.52,594.409 2496.09,596.188 2503.66,597.969 2511.23,599.752 2518.79,601.538 2526.36,603.326 2533.93,605.115 2541.5,606.907 2549.07,608.7 2556.63,610.494 2564.2,612.29 2571.77,614.088 2579.34,615.886 2586.9,617.685 2594.47,619.486 2602.04,621.287 2609.61,623.089 2617.18,624.892 2624.74,626.696 2632.31,628.5 2639.88,630.305 2647.45,632.11 2655.02,633.916 2662.58,635.723 2670.15,637.53 2677.72,639.337 2685.29,641.145 2692.86,642.953 2700.42,644.761 2707.99,646.57 2715.56,648.379 2723.13,650.188 2730.69,651.997 2738.26,653.807 2745.83,655.617 2753.4,657.427 2760.97,659.237 2768.53,661.048 2776.1,662.858 2783.67,664.669 2791.24,666.48 2798.81,668.29 2806.37,670.101 2813.94,671.913 2821.51,673.724 2829.08,675.535 2836.65,677.346 2844.21,679.158 2851.78,680.969 2859.35,682.781 2866.92,684.593 2874.48,686.404 2882.05,688.216 2889.62,690.028 2897.19,691.84 2904.76,693.652 2912.32,695.464 2919.89,697.275 2927.46,699.087 2935.03,700.899 2942.6,702.712 2950.16,704.524 2957.73,706.336 2965.3,708.148 2972.87,709.96 2980.44,711.772 2988,713.584 2995.57,715.396 3003.14,717.209 3010.71,719.021 3018.27,720.833 3025.84,722.645 3033.41,724.457 3040.98,726.27 3048.55,728.082 3056.11,729.894 3063.68,731.707 3071.25,733.519 "/>
<polyline clip-path="url(#clip102)" style="stroke:#808080; stroke-linecap:round; stroke-linejoin:round; stroke-width:4; stroke-opacity:1; fill:none" stroke-dasharray="16, 10" points="354.378,321.883 3071.25,321.883 "/>
<polyline clip-path="url(#clip102)" style="stroke:#009af9; stroke-linecap:round; stroke-linejoin:round; stroke-width:4; stroke-opacity:1; fill:none" points="1563.82,321.883 1563.82,368.25 "/>
<polyline clip-path="url(#clip102)" style="stroke:#009af9; stroke-linecap:round; stroke-linejoin:round; stroke-width:4; stroke-opacity:1; fill:none" points="2117.77,321.883 2117.77,417.785 "/>
<path clip-path="url(#clip100)" d="M272.872 1623.64 L3152.76 1623.64 L3152.76 986.101 L272.872 986.101  Z" fill="#ffffff" fill-rule="evenodd" fill-opacity="1"/>
<defs>
  <clipPath id="clip103">
    <rect x="272" y="986" width="2881" height="639"/>
  </clipPath>
</defs>
<polyline clip-path="url(#clip103)" style="stroke:#000000; stroke-linecap:round; stroke-linejoin:round; stroke-width:2; stroke-opacity:0.1; fill:none" points="1260,1623.64 1260,986.101 "/>
<polyline clip-path="url(#clip103)" style="stroke:#000000; stroke-linecap:round; stroke-linejoin:round; stroke-width:2; stroke-opacity:0.1; fill:none" points="2618.44,1623.64 2618.44,986.101 "/>
<polyline clip-path="url(#clip103)" style="stroke:#000000; stroke-linecap:round; stroke-linejoin:round; stroke-width:2; stroke-opacity:0.1; fill:none" points="272.872,1612.98 3152.76,1612.98 "/>
<polyline clip-path="url(#clip103)" style="stroke:#000000; stroke-linecap:round; stroke-linejoin:round; stroke-width:2; stroke-opacity:0.1; fill:none" points="272.872,1507.69 3152.76,1507.69 "/>
<polyline clip-path="url(#clip103)" style="stroke:#000000; stroke-linecap:round; stroke-linejoin:round; stroke-width:2; stroke-opacity:0.1; fill:none" points="272.872,1402.4 3152.76,1402.4 "/>
<polyline clip-path="url(#clip103)" style="stroke:#000000; stroke-linecap:round; stroke-linejoin:round; stroke-width:2; stroke-opacity:0.1; fill:none" points="272.872,1297.11 3152.76,1297.11 "/>
<polyline clip-path="url(#clip103)" style="stroke:#000000; stroke-linecap:round; stroke-linejoin:round; stroke-width:2; stroke-opacity:0.1; fill:none" points="272.872,1191.82 3152.76,1191.82 "/>
<polyline clip-path="url(#clip103)" style="stroke:#000000; stroke-linecap:round; stroke-linejoin:round; stroke-width:2; stroke-opacity:0.1; fill:none" points="272.872,1086.53 3152.76,1086.53 "/>
<polyline clip-path="url(#clip100)" style="stroke:#000000; stroke-linecap:round; stroke-linejoin:round; stroke-width:4; stroke-opacity:1; fill:none" points="272.872,1623.64 3152.76,1623.64 "/>
<polyline clip-path="url(#clip100)" style="stroke:#000000; stroke-linecap:round; stroke-linejoin:round; stroke-width:4; stroke-opacity:1; fill:none" points="1260,1623.64 1260,1604.74 "/>
<polyline clip-path="url(#clip100)" style="stroke:#000000; stroke-linecap:round; stroke-linejoin:round; stroke-width:4; stroke-opacity:1; fill:none" points="2618.44,1623.64 2618.44,1604.74 "/>
<path clip-path="url(#clip100)" d="M1224.98 1704.17 L1232.62 1704.17 L1232.62 1677.8 L1224.31 1679.47 L1224.31 1675.21 L1232.58 1673.54 L1237.25 1673.54 L1237.25 1704.17 L1244.89 1704.17 L1244.89 1708.1 L1224.98 1708.1 L1224.98 1704.17 Z" fill="#000000" fill-rule="nonzero" fill-opacity="1" /><path clip-path="url(#clip100)" d="M1264.34 1676.62 Q1260.73 1676.62 1258.9 1680.18 Q1257.09 1683.73 1257.09 1690.86 Q1257.09 1697.96 1258.9 1701.53 Q1260.73 1705.07 1264.34 1705.07 Q1267.97 1705.07 1269.78 1701.53 Q1271.6 1697.96 1271.6 1690.86 Q1271.6 1683.73 1269.78 1680.18 Q1267.97 1676.62 1264.34 1676.62 M1264.34 1672.92 Q1270.15 1672.92 1273.2 1677.52 Q1276.28 1682.11 1276.28 1690.86 Q1276.28 1699.58 1273.2 1704.19 Q1270.15 1708.77 1264.34 1708.77 Q1258.53 1708.77 1255.45 1704.19 Q1252.39 1699.58 1252.39 1690.86 Q1252.39 1682.11 1255.45 1677.52 Q1258.53 1672.92 1264.34 1672.92 Z" fill="#000000" fill-rule="nonzero" fill-opacity="1" /><path clip-path="url(#clip100)" d="M1285.99 1655.11 Q1283.05 1655.11 1281.57 1658.01 Q1280.1 1660.89 1280.1 1666.68 Q1280.1 1672.45 1281.57 1675.35 Q1283.05 1678.23 1285.99 1678.23 Q1288.94 1678.23 1290.41 1675.35 Q1291.89 1672.45 1291.89 1666.68 Q1291.89 1660.89 1290.41 1658.01 Q1288.94 1655.11 1285.99 1655.11 M1285.99 1652.1 Q1290.71 1652.1 1293.19 1655.85 Q1295.69 1659.57 1295.69 1666.68 Q1295.69 1673.77 1293.19 1677.51 Q1290.71 1681.24 1285.99 1681.24 Q1281.26 1681.24 1278.76 1677.51 Q1276.28 1673.77 1276.28 1666.68 Q1276.28 1659.57 1278.76 1655.85 Q1281.26 1652.1 1285.99 1652.1 Z" fill="#000000" fill-rule="nonzero" fill-opacity="1" /><path clip-path="url(#clip100)" d="M2583.88 1704.17 L2591.52 1704.17 L2591.52 1677.8 L2583.21 1679.47 L2583.21 1675.21 L2591.47 1673.54 L2596.15 1673.54 L2596.15 1704.17 L2603.79 1704.17 L2603.79 1708.1 L2583.88 1708.1 L2583.88 1704.17 Z" fill="#000000" fill-rule="nonzero" fill-opacity="1" /><path clip-path="url(#clip100)" d="M2623.23 1676.62 Q2619.62 1676.62 2617.79 1680.18 Q2615.99 1683.73 2615.99 1690.86 Q2615.99 1697.96 2617.79 1701.53 Q2619.62 1705.07 2623.23 1705.07 Q2626.87 1705.07 2628.67 1701.53 Q2630.5 1697.96 2630.5 1690.86 Q2630.5 1683.73 2628.67 1680.18 Q2626.87 1676.62 2623.23 1676.62 M2623.23 1672.92 Q2629.04 1672.92 2632.1 1677.52 Q2635.18 1682.11 2635.18 1690.86 Q2635.18 1699.58 2632.1 1704.19 Q2629.04 1708.77 2623.23 1708.77 Q2617.42 1708.77 2614.34 1704.19 Q2611.29 1699.58 2611.29 1690.86 Q2611.29 1682.11 2614.34 1677.52 Q2617.42 1672.92 2623.23 1672.92 Z" fill="#000000" fill-rule="nonzero" fill-opacity="1" /><path clip-path="url(#clip100)" d="M2647.87 1665.55 Q2650.6 1666.13 2652.12 1667.98 Q2653.67 1669.82 2653.67 1672.53 Q2653.67 1676.68 2650.81 1678.96 Q2647.95 1681.24 2642.68 1681.24 Q2640.91 1681.24 2639.03 1680.88 Q2637.17 1680.54 2635.18 1679.84 L2635.18 1676.18 Q2636.76 1677.1 2638.64 1677.57 Q2640.52 1678.04 2642.57 1678.04 Q2646.14 1678.04 2648 1676.63 Q2649.89 1675.22 2649.89 1672.53 Q2649.89 1670.05 2648.14 1668.65 Q2646.41 1667.24 2643.3 1667.24 L2640.03 1667.24 L2640.03 1664.12 L2643.45 1664.12 Q2646.26 1664.12 2647.74 1663.01 Q2649.23 1661.88 2649.23 1659.78 Q2649.23 1657.61 2647.68 1656.47 Q2646.16 1655.3 2643.3 1655.3 Q2641.74 1655.3 2639.95 1655.64 Q2638.17 1655.98 2636.02 1656.69 L2636.02 1653.31 Q2638.19 1652.7 2640.07 1652.4 Q2641.97 1652.1 2643.64 1652.1 Q2647.97 1652.1 2650.49 1654.08 Q2653.01 1656.03 2653.01 1659.38 Q2653.01 1661.71 2651.67 1663.33 Q2650.34 1664.93 2647.87 1665.55 Z" fill="#000000" fill-rule="nonzero" fill-opacity="1" /><path clip-path="url(#clip100)" d="M1432.63 1751.41 L1459.94 1751.41 L1459.94 1756.82 L1439.06 1756.82 L1439.06 1770.83 L1457.9 1770.83 L1457.9 1776.24 L1439.06 1776.24 L1439.06 1798.93 L1432.63 1798.93 L1432.63 1751.41 Z" fill="#000000" fill-rule="nonzero" fill-opacity="1" /><path clip-path="url(#clip100)" d="M1485.78 1768.76 Q1484.79 1768.18 1483.62 1767.93 Q1482.47 1767.64 1481.07 1767.64 Q1476.1 1767.64 1473.43 1770.89 Q1470.79 1774.1 1470.79 1780.15 L1470.79 1798.93 L1464.9 1798.93 L1464.9 1763.28 L1470.79 1763.28 L1470.79 1768.82 Q1472.64 1765.57 1475.6 1764.01 Q1478.56 1762.42 1482.79 1762.42 Q1483.39 1762.42 1484.13 1762.52 Q1484.86 1762.58 1485.75 1762.74 L1485.78 1768.76 Z" fill="#000000" fill-rule="nonzero" fill-opacity="1" /><path clip-path="url(#clip100)" d="M1520.98 1779.64 L1520.98 1782.51 L1494.06 1782.51 Q1494.44 1788.55 1497.68 1791.74 Q1500.96 1794.89 1506.79 1794.89 Q1510.16 1794.89 1513.31 1794.06 Q1516.5 1793.23 1519.61 1791.58 L1519.61 1797.12 Q1516.46 1798.45 1513.15 1799.15 Q1509.84 1799.85 1506.44 1799.85 Q1497.91 1799.85 1492.91 1794.89 Q1487.95 1789.92 1487.95 1781.46 Q1487.95 1772.7 1492.66 1767.58 Q1497.4 1762.42 1505.42 1762.42 Q1512.61 1762.42 1516.78 1767.07 Q1520.98 1771.68 1520.98 1779.64 M1515.13 1777.92 Q1515.06 1773.12 1512.42 1770.25 Q1509.81 1767.39 1505.48 1767.39 Q1500.58 1767.39 1497.62 1770.16 Q1494.69 1772.93 1494.25 1777.95 L1515.13 1777.92 Z" fill="#000000" fill-rule="nonzero" fill-opacity="1" /><path clip-path="url(#clip100)" d="M1534.1 1781.14 Q1534.1 1787.6 1536.74 1791.29 Q1539.41 1794.95 1544.06 1794.95 Q1548.71 1794.95 1551.38 1791.29 Q1554.05 1787.6 1554.05 1781.14 Q1554.05 1774.68 1551.38 1771.02 Q1548.71 1767.32 1544.06 1767.32 Q1539.41 1767.32 1536.74 1771.02 Q1534.1 1774.68 1534.1 1781.14 M1554.05 1793.58 Q1552.21 1796.77 1549.37 1798.32 Q1546.57 1799.85 1542.63 1799.85 Q1536.17 1799.85 1532.09 1794.7 Q1528.05 1789.54 1528.05 1781.14 Q1528.05 1772.73 1532.09 1767.58 Q1536.17 1762.42 1542.63 1762.42 Q1546.57 1762.42 1549.37 1763.98 Q1552.21 1765.51 1554.05 1768.69 L1554.05 1763.28 L1559.91 1763.28 L1559.91 1812.49 L1554.05 1812.49 L1554.05 1793.58 Z" fill="#000000" fill-rule="nonzero" fill-opacity="1" /><path clip-path="url(#clip100)" d="M1571.37 1784.86 L1571.37 1763.28 L1577.22 1763.28 L1577.22 1784.64 Q1577.22 1789.7 1579.2 1792.25 Q1581.17 1794.76 1585.12 1794.76 Q1589.86 1794.76 1592.6 1791.74 Q1595.37 1788.71 1595.37 1783.49 L1595.37 1763.28 L1601.22 1763.28 L1601.22 1798.93 L1595.37 1798.93 L1595.37 1793.46 Q1593.23 1796.7 1590.4 1798.29 Q1587.6 1799.85 1583.88 1799.85 Q1577.73 1799.85 1574.55 1796.03 Q1571.37 1792.21 1571.37 1784.86 M1586.1 1762.42 L1586.1 1762.42 Z" fill="#000000" fill-rule="nonzero" fill-opacity="1" /><path clip-path="url(#clip100)" d="M1643.78 1779.64 L1643.78 1782.51 L1616.85 1782.51 Q1617.23 1788.55 1620.48 1791.74 Q1623.76 1794.89 1629.58 1794.89 Q1632.96 1794.89 1636.11 1794.06 Q1639.29 1793.23 1642.41 1791.58 L1642.41 1797.12 Q1639.26 1798.45 1635.95 1799.15 Q1632.64 1799.85 1629.23 1799.85 Q1620.7 1799.85 1615.7 1794.89 Q1610.74 1789.92 1610.74 1781.46 Q1610.74 1772.7 1615.45 1767.58 Q1620.19 1762.42 1628.21 1762.42 Q1635.41 1762.42 1639.58 1767.07 Q1643.78 1771.68 1643.78 1779.64 M1637.92 1777.92 Q1637.86 1773.12 1635.22 1770.25 Q1632.61 1767.39 1628.28 1767.39 Q1623.38 1767.39 1620.42 1770.16 Q1617.49 1772.93 1617.04 1777.95 L1637.92 1777.92 Z" fill="#000000" fill-rule="nonzero" fill-opacity="1" /><path clip-path="url(#clip100)" d="M1683.02 1777.41 L1683.02 1798.93 L1677.17 1798.93 L1677.17 1777.6 Q1677.17 1772.54 1675.19 1770.03 Q1673.22 1767.51 1669.27 1767.51 Q1664.53 1767.51 1661.79 1770.54 Q1659.06 1773.56 1659.06 1778.78 L1659.06 1798.93 L1653.17 1798.93 L1653.17 1763.28 L1659.06 1763.28 L1659.06 1768.82 Q1661.16 1765.61 1663.99 1764.01 Q1666.85 1762.42 1670.58 1762.42 Q1676.72 1762.42 1679.87 1766.24 Q1683.02 1770.03 1683.02 1777.41 Z" fill="#000000" fill-rule="nonzero" fill-opacity="1" /><path clip-path="url(#clip100)" d="M1720.36 1764.65 L1720.36 1770.12 Q1717.87 1768.76 1715.36 1768.09 Q1712.88 1767.39 1710.33 1767.39 Q1704.63 1767.39 1701.48 1771.02 Q1698.33 1774.61 1698.33 1781.14 Q1698.33 1787.66 1701.48 1791.29 Q1704.63 1794.89 1710.33 1794.89 Q1712.88 1794.89 1715.36 1794.22 Q1717.87 1793.52 1720.36 1792.15 L1720.36 1797.56 Q1717.91 1798.71 1715.26 1799.28 Q1712.65 1799.85 1709.69 1799.85 Q1701.64 1799.85 1696.9 1794.79 Q1692.16 1789.73 1692.16 1781.14 Q1692.16 1772.42 1696.93 1767.42 Q1701.74 1762.42 1710.08 1762.42 Q1712.78 1762.42 1715.36 1763 Q1717.94 1763.54 1720.36 1764.65 Z" fill="#000000" fill-rule="nonzero" fill-opacity="1" /><path clip-path="url(#clip100)" d="M1745.37 1802.24 Q1742.89 1808.61 1740.54 1810.55 Q1738.18 1812.49 1734.23 1812.49 L1729.56 1812.49 L1729.56 1807.59 L1732.99 1807.59 Q1735.41 1807.59 1736.75 1806.44 Q1738.09 1805.3 1739.71 1801.03 L1740.76 1798.36 L1726.34 1763.28 L1732.55 1763.28 L1743.69 1791.16 L1754.83 1763.28 L1761.03 1763.28 L1745.37 1802.24 Z" fill="#000000" fill-rule="nonzero" fill-opacity="1" /><path clip-path="url(#clip100)" d="M1803.91 1749.47 Q1799.64 1756.79 1797.57 1763.95 Q1795.5 1771.11 1795.5 1778.46 Q1795.5 1785.82 1797.57 1793.04 Q1799.67 1800.23 1803.91 1807.52 L1798.81 1807.52 Q1794.04 1800.04 1791.65 1792.82 Q1789.3 1785.59 1789.3 1778.46 Q1789.3 1771.37 1791.65 1764.17 Q1794.01 1756.98 1798.81 1749.47 L1803.91 1749.47 Z" fill="#000000" fill-rule="nonzero" fill-opacity="1" /><path clip-path="url(#clip100)" d="M1835.93 1768.76 Q1834.94 1768.18 1833.76 1767.93 Q1832.62 1767.64 1831.22 1767.64 Q1826.25 1767.64 1823.58 1770.89 Q1820.94 1774.1 1820.94 1780.15 L1820.94 1798.93 L1815.05 1798.93 L1815.05 1763.28 L1820.94 1763.28 L1820.94 1768.82 Q1822.78 1765.57 1825.74 1764.01 Q1828.7 1762.42 1832.93 1762.42 Q1833.54 1762.42 1834.27 1762.52 Q1835 1762.58 1835.89 1762.74 L1835.93 1768.76 Z" fill="#000000" fill-rule="nonzero" fill-opacity="1" /><path clip-path="url(#clip100)" d="M1858.27 1781.01 Q1851.17 1781.01 1848.44 1782.63 Q1845.7 1784.26 1845.7 1788.17 Q1845.7 1791.29 1847.73 1793.14 Q1849.8 1794.95 1853.34 1794.95 Q1858.21 1794.95 1861.13 1791.51 Q1864.09 1788.04 1864.09 1782.32 L1864.09 1781.01 L1858.27 1781.01 M1869.95 1778.59 L1869.95 1798.93 L1864.09 1798.93 L1864.09 1793.52 Q1862.09 1796.77 1859.1 1798.32 Q1856.11 1799.85 1851.78 1799.85 Q1846.3 1799.85 1843.06 1796.8 Q1839.84 1793.71 1839.84 1788.55 Q1839.84 1782.54 1843.85 1779.48 Q1847.89 1776.43 1855.88 1776.43 L1864.09 1776.43 L1864.09 1775.85 Q1864.09 1771.81 1861.42 1769.62 Q1858.78 1767.39 1853.97 1767.39 Q1850.92 1767.39 1848.02 1768.12 Q1845.12 1768.85 1842.45 1770.32 L1842.45 1764.9 Q1845.67 1763.66 1848.69 1763.06 Q1851.71 1762.42 1854.58 1762.42 Q1862.31 1762.42 1866.13 1766.43 Q1869.95 1770.44 1869.95 1778.59 Z" fill="#000000" fill-rule="nonzero" fill-opacity="1" /><path clip-path="url(#clip100)" d="M1905.47 1768.69 L1905.47 1749.4 L1911.33 1749.4 L1911.33 1798.93 L1905.47 1798.93 L1905.47 1793.58 Q1903.63 1796.77 1900.79 1798.32 Q1897.99 1799.85 1894.05 1799.85 Q1887.58 1799.85 1883.51 1794.7 Q1879.47 1789.54 1879.47 1781.14 Q1879.47 1772.73 1883.51 1767.58 Q1887.58 1762.42 1894.05 1762.42 Q1897.99 1762.42 1900.79 1763.98 Q1903.63 1765.51 1905.47 1768.69 M1885.52 1781.14 Q1885.52 1787.6 1888.16 1791.29 Q1890.83 1794.95 1895.48 1794.95 Q1900.12 1794.95 1902.8 1791.29 Q1905.47 1787.6 1905.47 1781.14 Q1905.47 1774.68 1902.8 1771.02 Q1900.12 1767.32 1895.48 1767.32 Q1890.83 1767.32 1888.16 1771.02 Q1885.52 1774.68 1885.52 1781.14 Z" fill="#000000" fill-rule="nonzero" fill-opacity="1" /><path clip-path="url(#clip100)" d="M1933.8 1751.41 L1939.21 1751.41 L1922.66 1804.98 L1917.25 1804.98 L1933.8 1751.41 Z" fill="#000000" fill-rule="nonzero" fill-opacity="1" /><path clip-path="url(#clip100)" d="M1968.08 1764.33 L1968.08 1769.87 Q1965.6 1768.6 1962.92 1767.96 Q1960.25 1767.32 1957.38 1767.32 Q1953.02 1767.32 1950.83 1768.66 Q1948.66 1770 1948.66 1772.67 Q1948.66 1774.71 1950.22 1775.89 Q1951.78 1777.03 1956.49 1778.08 L1958.5 1778.53 Q1964.74 1779.86 1967.35 1782.32 Q1969.99 1784.73 1969.99 1789.09 Q1969.99 1794.06 1966.04 1796.96 Q1962.13 1799.85 1955.25 1799.85 Q1952.39 1799.85 1949.27 1799.28 Q1946.18 1798.74 1942.74 1797.62 L1942.74 1791.58 Q1945.99 1793.26 1949.14 1794.12 Q1952.29 1794.95 1955.38 1794.95 Q1959.52 1794.95 1961.74 1793.55 Q1963.97 1792.12 1963.97 1789.54 Q1963.97 1787.15 1962.35 1785.88 Q1960.76 1784.61 1955.32 1783.43 L1953.28 1782.95 Q1947.84 1781.81 1945.42 1779.45 Q1943 1777.06 1943 1772.93 Q1943 1767.9 1946.56 1765.16 Q1950.13 1762.42 1956.68 1762.42 Q1959.93 1762.42 1962.8 1762.9 Q1965.66 1763.38 1968.08 1764.33 Z" fill="#000000" fill-rule="nonzero" fill-opacity="1" /><path clip-path="url(#clip100)" d="M1978.39 1749.47 L1983.48 1749.47 Q1988.26 1756.98 1990.61 1764.17 Q1993 1771.37 1993 1778.46 Q1993 1785.59 1990.61 1792.82 Q1988.26 1800.04 1983.48 1807.52 L1978.39 1807.52 Q1982.62 1800.23 1984.69 1793.04 Q1986.79 1785.82 1986.79 1778.46 Q1986.79 1771.11 1984.69 1763.95 Q1982.62 1756.79 1978.39 1749.47 Z" fill="#000000" fill-rule="nonzero" fill-opacity="1" /><polyline clip-path="url(#clip100)" style="stroke:#000000; stroke-linecap:round; stroke-linejoin:round; stroke-width:4; stroke-opacity:1; fill:none" points="272.872,1623.64 272.872,986.101 "/>
<polyline clip-path="url(#clip100)" style="stroke:#000000; stroke-linecap:round; stroke-linejoin:round; stroke-width:4; stroke-opacity:1; fill:none" points="272.872,1612.98 291.769,1612.98 "/>
<polyline clip-path="url(#clip100)" style="stroke:#000000; stroke-linecap:round; stroke-linejoin:round; stroke-width:4; stroke-opacity:1; fill:none" points="272.872,1507.69 291.769,1507.69 "/>
<polyline clip-path="url(#clip100)" style="stroke:#000000; stroke-linecap:round; stroke-linejoin:round; stroke-width:4; stroke-opacity:1; fill:none" points="272.872,1402.4 291.769,1402.4 "/>
<polyline clip-path="url(#clip100)" style="stroke:#000000; stroke-linecap:round; stroke-linejoin:round; stroke-width:4; stroke-opacity:1; fill:none" points="272.872,1297.11 291.769,1297.11 "/>
<polyline clip-path="url(#clip100)" style="stroke:#000000; stroke-linecap:round; stroke-linejoin:round; stroke-width:4; stroke-opacity:1; fill:none" points="272.872,1191.82 291.769,1191.82 "/>
<polyline clip-path="url(#clip100)" style="stroke:#000000; stroke-linecap:round; stroke-linejoin:round; stroke-width:4; stroke-opacity:1; fill:none" points="272.872,1086.53 291.769,1086.53 "/>
<path clip-path="url(#clip100)" d="M102.835 1613.43 L132.511 1613.43 L132.511 1617.37 L102.835 1617.37 L102.835 1613.43 Z" fill="#000000" fill-rule="nonzero" fill-opacity="1" /><path clip-path="url(#clip100)" d="M141.423 1595.7 L163.645 1595.7 L163.645 1597.69 L151.099 1630.26 L146.215 1630.26 L158.02 1599.64 L141.423 1599.64 L141.423 1595.7 Z" fill="#000000" fill-rule="nonzero" fill-opacity="1" /><path clip-path="url(#clip100)" d="M182.765 1598.78 Q179.154 1598.78 177.325 1602.35 Q175.52 1605.89 175.52 1613.02 Q175.52 1620.12 177.325 1623.69 Q179.154 1627.23 182.765 1627.23 Q186.4 1627.23 188.205 1623.69 Q190.034 1620.12 190.034 1613.02 Q190.034 1605.89 188.205 1602.35 Q186.4 1598.78 182.765 1598.78 M182.765 1595.08 Q188.575 1595.08 191.631 1599.68 Q194.71 1604.27 194.71 1613.02 Q194.71 1621.74 191.631 1626.35 Q188.575 1630.93 182.765 1630.93 Q176.955 1630.93 173.876 1626.35 Q170.821 1621.74 170.821 1613.02 Q170.821 1604.27 173.876 1599.68 Q176.955 1595.08 182.765 1595.08 Z" fill="#000000" fill-rule="nonzero" fill-opacity="1" /><path clip-path="url(#clip100)" d="M212.927 1598.78 Q209.316 1598.78 207.487 1602.35 Q205.682 1605.89 205.682 1613.02 Q205.682 1620.12 207.487 1623.69 Q209.316 1627.23 212.927 1627.23 Q216.561 1627.23 218.367 1623.69 Q220.196 1620.12 220.196 1613.02 Q220.196 1605.89 218.367 1602.35 Q216.561 1598.78 212.927 1598.78 M212.927 1595.08 Q218.737 1595.08 221.793 1599.68 Q224.872 1604.27 224.872 1613.02 Q224.872 1621.74 221.793 1626.35 Q218.737 1630.93 212.927 1630.93 Q207.117 1630.93 204.038 1626.35 Q200.983 1621.74 200.983 1613.02 Q200.983 1604.27 204.038 1599.68 Q207.117 1595.08 212.927 1595.08 Z" fill="#000000" fill-rule="nonzero" fill-opacity="1" /><path clip-path="url(#clip100)" d="M102.835 1508.14 L132.511 1508.14 L132.511 1512.08 L102.835 1512.08 L102.835 1508.14 Z" fill="#000000" fill-rule="nonzero" fill-opacity="1" /><path clip-path="url(#clip100)" d="M153.182 1505.83 Q150.034 1505.83 148.182 1507.98 Q146.353 1510.14 146.353 1513.89 Q146.353 1517.61 148.182 1519.79 Q150.034 1521.94 153.182 1521.94 Q156.33 1521.94 158.159 1519.79 Q160.011 1517.61 160.011 1513.89 Q160.011 1510.14 158.159 1507.98 Q156.33 1505.83 153.182 1505.83 M162.464 1491.18 L162.464 1495.44 Q160.705 1494.6 158.9 1494.16 Q157.117 1493.72 155.358 1493.72 Q150.728 1493.72 148.275 1496.85 Q145.844 1499.97 145.497 1506.29 Q146.863 1504.28 148.923 1503.21 Q150.983 1502.13 153.46 1502.13 Q158.668 1502.13 161.677 1505.3 Q164.71 1508.45 164.71 1513.89 Q164.71 1519.21 161.562 1522.43 Q158.414 1525.64 153.182 1525.64 Q147.187 1525.64 144.015 1521.06 Q140.844 1516.46 140.844 1507.73 Q140.844 1499.53 144.733 1494.67 Q148.622 1489.79 155.173 1489.79 Q156.932 1489.79 158.714 1490.14 Q160.52 1490.48 162.464 1491.18 Z" fill="#000000" fill-rule="nonzero" fill-opacity="1" /><path clip-path="url(#clip100)" d="M182.765 1493.49 Q179.154 1493.49 177.325 1497.06 Q175.52 1500.6 175.52 1507.73 Q175.52 1514.83 177.325 1518.4 Q179.154 1521.94 182.765 1521.94 Q186.4 1521.94 188.205 1518.4 Q190.034 1514.83 190.034 1507.73 Q190.034 1500.6 188.205 1497.06 Q186.4 1493.49 182.765 1493.49 M182.765 1489.79 Q188.575 1489.79 191.631 1494.39 Q194.71 1498.98 194.71 1507.73 Q194.71 1516.46 191.631 1521.06 Q188.575 1525.64 182.765 1525.64 Q176.955 1525.64 173.876 1521.06 Q170.821 1516.46 170.821 1507.73 Q170.821 1498.98 173.876 1494.39 Q176.955 1489.79 182.765 1489.79 Z" fill="#000000" fill-rule="nonzero" fill-opacity="1" /><path clip-path="url(#clip100)" d="M212.927 1493.49 Q209.316 1493.49 207.487 1497.06 Q205.682 1500.6 205.682 1507.73 Q205.682 1514.83 207.487 1518.4 Q209.316 1521.94 212.927 1521.94 Q216.561 1521.94 218.367 1518.4 Q220.196 1514.83 220.196 1507.73 Q220.196 1500.6 218.367 1497.06 Q216.561 1493.49 212.927 1493.49 M212.927 1489.79 Q218.737 1489.79 221.793 1494.39 Q224.872 1498.98 224.872 1507.73 Q224.872 1516.46 221.793 1521.06 Q218.737 1525.64 212.927 1525.64 Q207.117 1525.64 204.038 1521.06 Q200.983 1516.46 200.983 1507.73 Q200.983 1498.98 204.038 1494.39 Q207.117 1489.79 212.927 1489.79 Z" fill="#000000" fill-rule="nonzero" fill-opacity="1" /><path clip-path="url(#clip100)" d="M102.835 1402.86 L132.511 1402.86 L132.511 1406.79 L102.835 1406.79 L102.835 1402.86 Z" fill="#000000" fill-rule="nonzero" fill-opacity="1" /><path clip-path="url(#clip100)" d="M142.65 1385.12 L161.006 1385.12 L161.006 1389.06 L146.932 1389.06 L146.932 1397.53 Q147.951 1397.18 148.969 1397.02 Q149.988 1396.84 151.006 1396.84 Q156.793 1396.84 160.173 1400.01 Q163.552 1403.18 163.552 1408.6 Q163.552 1414.17 160.08 1417.28 Q156.608 1420.36 150.289 1420.36 Q148.113 1420.36 145.844 1419.98 Q143.599 1419.61 141.191 1418.87 L141.191 1414.17 Q143.275 1415.31 145.497 1415.86 Q147.719 1416.42 150.196 1416.42 Q154.201 1416.42 156.539 1414.31 Q158.877 1412.21 158.877 1408.6 Q158.877 1404.98 156.539 1402.88 Q154.201 1400.77 150.196 1400.77 Q148.321 1400.77 146.446 1401.19 Q144.594 1401.61 142.65 1402.48 L142.65 1385.12 Z" fill="#000000" fill-rule="nonzero" fill-opacity="1" /><path clip-path="url(#clip100)" d="M182.765 1388.2 Q179.154 1388.2 177.325 1391.77 Q175.52 1395.31 175.52 1402.44 Q175.52 1409.54 177.325 1413.11 Q179.154 1416.65 182.765 1416.65 Q186.4 1416.65 188.205 1413.11 Q190.034 1409.54 190.034 1402.44 Q190.034 1395.31 188.205 1391.77 Q186.4 1388.2 182.765 1388.2 M182.765 1384.5 Q188.575 1384.5 191.631 1389.11 Q194.71 1393.69 194.71 1402.44 Q194.71 1411.17 191.631 1415.77 Q188.575 1420.36 182.765 1420.36 Q176.955 1420.36 173.876 1415.77 Q170.821 1411.17 170.821 1402.44 Q170.821 1393.69 173.876 1389.11 Q176.955 1384.5 182.765 1384.5 Z" fill="#000000" fill-rule="nonzero" fill-opacity="1" /><path clip-path="url(#clip100)" d="M212.927 1388.2 Q209.316 1388.2 207.487 1391.77 Q205.682 1395.31 205.682 1402.44 Q205.682 1409.54 207.487 1413.11 Q209.316 1416.65 212.927 1416.65 Q216.561 1416.65 218.367 1413.11 Q220.196 1409.54 220.196 1402.44 Q220.196 1395.31 218.367 1391.77 Q216.561 1388.2 212.927 1388.2 M212.927 1384.5 Q218.737 1384.5 221.793 1389.11 Q224.872 1393.69 224.872 1402.44 Q224.872 1411.17 221.793 1415.77 Q218.737 1420.36 212.927 1420.36 Q207.117 1420.36 204.038 1415.77 Q200.983 1411.17 200.983 1402.44 Q200.983 1393.69 204.038 1389.11 Q207.117 1384.5 212.927 1384.5 Z" fill="#000000" fill-rule="nonzero" fill-opacity="1" /><path clip-path="url(#clip100)" d="M102.835 1297.57 L132.511 1297.57 L132.511 1301.5 L102.835 1301.5 L102.835 1297.57 Z" fill="#000000" fill-rule="nonzero" fill-opacity="1" /><path clip-path="url(#clip100)" d="M155.451 1283.91 L143.645 1302.36 L155.451 1302.36 L155.451 1283.91 M154.224 1279.83 L160.103 1279.83 L160.103 1302.36 L165.034 1302.36 L165.034 1306.25 L160.103 1306.25 L160.103 1314.39 L155.451 1314.39 L155.451 1306.25 L139.849 1306.25 L139.849 1301.73 L154.224 1279.83 Z" fill="#000000" fill-rule="nonzero" fill-opacity="1" /><path clip-path="url(#clip100)" d="M182.765 1282.91 Q179.154 1282.91 177.325 1286.48 Q175.52 1290.02 175.52 1297.15 Q175.52 1304.26 177.325 1307.82 Q179.154 1311.36 182.765 1311.36 Q186.4 1311.36 188.205 1307.82 Q190.034 1304.26 190.034 1297.15 Q190.034 1290.02 188.205 1286.48 Q186.4 1282.91 182.765 1282.91 M182.765 1279.21 Q188.575 1279.21 191.631 1283.82 Q194.71 1288.4 194.71 1297.15 Q194.71 1305.88 191.631 1310.48 Q188.575 1315.07 182.765 1315.07 Q176.955 1315.07 173.876 1310.48 Q170.821 1305.88 170.821 1297.15 Q170.821 1288.4 173.876 1283.82 Q176.955 1279.21 182.765 1279.21 Z" fill="#000000" fill-rule="nonzero" fill-opacity="1" /><path clip-path="url(#clip100)" d="M212.927 1282.91 Q209.316 1282.91 207.487 1286.48 Q205.682 1290.02 205.682 1297.15 Q205.682 1304.26 207.487 1307.82 Q209.316 1311.36 212.927 1311.36 Q216.561 1311.36 218.367 1307.82 Q220.196 1304.26 220.196 1297.15 Q220.196 1290.02 218.367 1286.48 Q216.561 1282.91 212.927 1282.91 M212.927 1279.21 Q218.737 1279.21 221.793 1283.82 Q224.872 1288.4 224.872 1297.15 Q224.872 1305.88 221.793 1310.48 Q218.737 1315.07 212.927 1315.07 Q207.117 1315.07 204.038 1310.48 Q200.983 1305.88 200.983 1297.15 Q200.983 1288.4 204.038 1283.82 Q207.117 1279.21 212.927 1279.21 Z" fill="#000000" fill-rule="nonzero" fill-opacity="1" /><path clip-path="url(#clip100)" d="M102.835 1192.28 L132.511 1192.28 L132.511 1196.21 L102.835 1196.21 L102.835 1192.28 Z" fill="#000000" fill-rule="nonzero" fill-opacity="1" /><path clip-path="url(#clip100)" d="M156.77 1190.47 Q160.127 1191.19 162.002 1193.46 Q163.9 1195.72 163.9 1199.06 Q163.9 1204.17 160.381 1206.97 Q156.863 1209.78 150.381 1209.78 Q148.205 1209.78 145.89 1209.34 Q143.599 1208.92 141.145 1208.06 L141.145 1203.55 Q143.09 1204.68 145.404 1205.26 Q147.719 1205.84 150.242 1205.84 Q154.64 1205.84 156.932 1204.1 Q159.247 1202.37 159.247 1199.06 Q159.247 1196 157.094 1194.29 Q154.965 1192.55 151.145 1192.55 L147.117 1192.55 L147.117 1188.71 L151.33 1188.71 Q154.779 1188.71 156.608 1187.35 Q158.437 1185.96 158.437 1183.36 Q158.437 1180.7 156.539 1179.29 Q154.664 1177.85 151.145 1177.85 Q149.224 1177.85 147.025 1178.27 Q144.826 1178.69 142.187 1179.57 L142.187 1175.4 Q144.849 1174.66 147.164 1174.29 Q149.502 1173.92 151.562 1173.92 Q156.886 1173.92 159.988 1176.35 Q163.089 1178.76 163.089 1182.88 Q163.089 1185.75 161.446 1187.74 Q159.802 1189.71 156.77 1190.47 Z" fill="#000000" fill-rule="nonzero" fill-opacity="1" /><path clip-path="url(#clip100)" d="M182.765 1177.62 Q179.154 1177.62 177.325 1181.19 Q175.52 1184.73 175.52 1191.86 Q175.52 1198.97 177.325 1202.53 Q179.154 1206.07 182.765 1206.07 Q186.4 1206.07 188.205 1202.53 Q190.034 1198.97 190.034 1191.86 Q190.034 1184.73 188.205 1181.19 Q186.4 1177.62 182.765 1177.62 M182.765 1173.92 Q188.575 1173.92 191.631 1178.53 Q194.71 1183.11 194.71 1191.86 Q194.71 1200.59 191.631 1205.19 Q188.575 1209.78 182.765 1209.78 Q176.955 1209.78 173.876 1205.19 Q170.821 1200.59 170.821 1191.86 Q170.821 1183.11 173.876 1178.53 Q176.955 1173.92 182.765 1173.92 Z" fill="#000000" fill-rule="nonzero" fill-opacity="1" /><path clip-path="url(#clip100)" d="M212.927 1177.62 Q209.316 1177.62 207.487 1181.19 Q205.682 1184.73 205.682 1191.86 Q205.682 1198.97 207.487 1202.53 Q209.316 1206.07 212.927 1206.07 Q216.561 1206.07 218.367 1202.53 Q220.196 1198.97 220.196 1191.86 Q220.196 1184.73 218.367 1181.19 Q216.561 1177.62 212.927 1177.62 M212.927 1173.92 Q218.737 1173.92 221.793 1178.53 Q224.872 1183.11 224.872 1191.86 Q224.872 1200.59 221.793 1205.19 Q218.737 1209.78 212.927 1209.78 Q207.117 1209.78 204.038 1205.19 Q200.983 1200.59 200.983 1191.86 Q200.983 1183.11 204.038 1178.53 Q207.117 1173.92 212.927 1173.92 Z" fill="#000000" fill-rule="nonzero" fill-opacity="1" /><path clip-path="url(#clip100)" d="M102.835 1086.99 L132.511 1086.99 L132.511 1090.92 L102.835 1090.92 L102.835 1086.99 Z" fill="#000000" fill-rule="nonzero" fill-opacity="1" /><path clip-path="url(#clip100)" d="M146.631 1099.88 L162.951 1099.88 L162.951 1103.81 L141.006 1103.81 L141.006 1099.88 Q143.668 1097.12 148.252 1092.5 Q152.858 1087.84 154.039 1086.5 Q156.284 1083.98 157.164 1082.24 Q158.066 1080.48 158.066 1078.79 Q158.066 1076.04 156.122 1074.3 Q154.201 1072.56 151.099 1072.56 Q148.9 1072.56 146.446 1073.33 Q144.015 1074.09 141.238 1075.64 L141.238 1070.92 Q144.062 1069.79 146.515 1069.21 Q148.969 1068.63 151.006 1068.63 Q156.377 1068.63 159.571 1071.31 Q162.765 1074 162.765 1078.49 Q162.765 1080.62 161.955 1082.54 Q161.168 1084.44 159.062 1087.03 Q158.483 1087.7 155.381 1090.92 Q152.279 1094.12 146.631 1099.88 Z" fill="#000000" fill-rule="nonzero" fill-opacity="1" /><path clip-path="url(#clip100)" d="M182.765 1072.33 Q179.154 1072.33 177.325 1075.9 Q175.52 1079.44 175.52 1086.57 Q175.52 1093.68 177.325 1097.24 Q179.154 1100.78 182.765 1100.78 Q186.4 1100.78 188.205 1097.24 Q190.034 1093.68 190.034 1086.57 Q190.034 1079.44 188.205 1075.9 Q186.4 1072.33 182.765 1072.33 M182.765 1068.63 Q188.575 1068.63 191.631 1073.24 Q194.71 1077.82 194.71 1086.57 Q194.71 1095.3 191.631 1099.9 Q188.575 1104.49 182.765 1104.49 Q176.955 1104.49 173.876 1099.9 Q170.821 1095.3 170.821 1086.57 Q170.821 1077.82 173.876 1073.24 Q176.955 1068.63 182.765 1068.63 Z" fill="#000000" fill-rule="nonzero" fill-opacity="1" /><path clip-path="url(#clip100)" d="M212.927 1072.33 Q209.316 1072.33 207.487 1075.9 Q205.682 1079.44 205.682 1086.57 Q205.682 1093.68 207.487 1097.24 Q209.316 1100.78 212.927 1100.78 Q216.561 1100.78 218.367 1097.24 Q220.196 1093.68 220.196 1086.57 Q220.196 1079.44 218.367 1075.9 Q216.561 1072.33 212.927 1072.33 M212.927 1068.63 Q218.737 1068.63 221.793 1073.24 Q224.872 1077.82 224.872 1086.57 Q224.872 1095.3 221.793 1099.9 Q218.737 1104.49 212.927 1104.49 Q207.117 1104.49 204.038 1099.9 Q200.983 1095.3 200.983 1086.57 Q200.983 1077.82 204.038 1073.24 Q207.117 1068.63 212.927 1068.63 Z" fill="#000000" fill-rule="nonzero" fill-opacity="1" /><path clip-path="url(#clip100)" d="M-1.65731 1486.98 L16.1985 1486.98 L16.1985 1478.89 Q16.1985 1474.41 13.875 1471.95 Q11.5515 1469.5 7.25468 1469.5 Q2.98966 1469.5 0.666177 1471.95 Q-1.65731 1474.41 -1.65731 1478.89 L-1.65731 1486.98 M-6.94084 1493.41 L-6.94084 1478.89 Q-6.94084 1470.9 -3.31239 1466.83 Q0.284235 1462.72 7.25468 1462.72 Q14.2888 1462.72 17.8854 1466.83 Q21.482 1470.9 21.482 1478.89 L21.482 1486.98 L40.5792 1486.98 L40.5792 1493.41 L-6.94084 1493.41 Z" fill="#000000" fill-rule="nonzero" fill-opacity="1" /><path clip-path="url(#clip100)" d="M19.0631 1424.72 L40.5792 1424.72 L40.5792 1430.58 L19.254 1430.58 Q14.1933 1430.58 11.6788 1432.55 Q9.1644 1434.52 9.1644 1438.47 Q9.1644 1443.21 12.1881 1445.95 Q15.2118 1448.69 20.4317 1448.69 L40.5792 1448.69 L40.5792 1454.58 L-8.94604 1454.58 L-8.94604 1448.69 L10.4694 1448.69 Q7.25468 1446.59 5.66326 1443.75 Q4.07183 1440.89 4.07183 1437.17 Q4.07183 1431.02 7.89125 1427.87 Q11.6788 1424.72 19.0631 1424.72 Z" fill="#000000" fill-rule="nonzero" fill-opacity="1" /><path clip-path="url(#clip100)" d="M22.6597 1396.84 Q22.6597 1403.94 24.2829 1406.67 Q25.9062 1409.41 29.8211 1409.41 Q32.9403 1409.41 34.7864 1407.37 Q36.6006 1405.31 36.6006 1401.77 Q36.6006 1396.9 33.1631 1393.97 Q29.6938 1391.01 23.9647 1391.01 L22.6597 1391.01 L22.6597 1396.84 M20.2407 1385.16 L40.5792 1385.16 L40.5792 1391.01 L35.1683 1391.01 Q38.4148 1393.02 39.9744 1396.01 Q41.5022 1399 41.5022 1403.33 Q41.5022 1408.81 38.4466 1412.05 Q35.3593 1415.27 30.2031 1415.27 Q24.1875 1415.27 21.1319 1411.26 Q18.0764 1407.22 18.0764 1399.23 L18.0764 1391.01 L17.5035 1391.01 Q13.4612 1391.01 11.2651 1393.69 Q9.03708 1396.33 9.03708 1401.14 Q9.03708 1404.19 9.76914 1407.09 Q10.5012 1409.98 11.9653 1412.66 L6.55446 1412.66 Q5.31314 1409.44 4.7084 1406.42 Q4.07183 1403.4 4.07183 1400.53 Q4.07183 1392.8 8.08223 1388.98 Q12.0926 1385.16 20.2407 1385.16 Z" fill="#000000" fill-rule="nonzero" fill-opacity="1" /><path clip-path="url(#clip100)" d="M5.98154 1350.37 L11.5197 1350.37 Q10.2466 1352.85 9.60999 1355.53 Q8.97342 1358.2 8.97342 1361.06 Q8.97342 1365.42 10.3102 1367.62 Q11.647 1369.79 14.3206 1369.79 Q16.3576 1369.79 17.5353 1368.23 Q18.6811 1366.67 19.7315 1361.96 L20.1771 1359.95 Q21.5139 1353.71 23.9647 1351.1 Q26.3836 1348.46 30.7441 1348.46 Q35.7094 1348.46 38.6058 1352.41 Q41.5022 1356.32 41.5022 1363.2 Q41.5022 1366.06 40.9293 1369.18 Q40.3882 1372.27 39.2742 1375.71 L33.2268 1375.71 Q34.9137 1372.46 35.773 1369.31 Q36.6006 1366.16 36.6006 1363.07 Q36.6006 1358.93 35.2001 1356.7 Q33.7679 1354.48 31.1897 1354.48 Q28.8026 1354.48 27.5295 1356.1 Q26.2563 1357.69 25.0787 1363.13 L24.6012 1365.17 Q23.4554 1370.61 21.1001 1373.03 Q18.713 1375.45 14.5752 1375.45 Q9.54634 1375.45 6.80908 1371.89 Q4.07183 1368.32 4.07183 1361.76 Q4.07183 1358.52 4.54926 1355.65 Q5.02669 1352.79 5.98154 1350.37 Z" fill="#000000" fill-rule="nonzero" fill-opacity="1" /><path clip-path="url(#clip100)" d="M21.2911 1308.64 L24.1556 1308.64 L24.1556 1335.57 Q30.2031 1335.19 33.3859 1331.94 Q36.5369 1328.66 36.5369 1322.84 Q36.5369 1319.46 35.7094 1316.31 Q34.8819 1313.13 33.2268 1310.01 L38.7649 1310.01 Q40.1017 1313.16 40.802 1316.47 Q41.5022 1319.78 41.5022 1323.19 Q41.5022 1331.72 36.5369 1336.72 Q31.5717 1341.68 23.1053 1341.68 Q14.3524 1341.68 9.22805 1336.97 Q4.07183 1332.23 4.07183 1324.21 Q4.07183 1317.01 8.7188 1312.84 Q13.3339 1308.64 21.2911 1308.64 M19.5723 1314.5 Q14.7662 1314.56 11.9016 1317.2 Q9.03708 1319.81 9.03708 1324.14 Q9.03708 1329.04 11.8062 1332 Q14.5752 1334.93 19.6042 1335.38 L19.5723 1314.5 Z" fill="#000000" fill-rule="nonzero" fill-opacity="1" /><path clip-path="url(#clip100)" d="M-8.88238 1264.24 Q-1.56182 1268.51 5.5996 1270.58 Q12.761 1272.64 20.1134 1272.64 Q27.4658 1272.64 34.6909 1270.58 Q41.8841 1268.47 49.1729 1264.24 L49.1729 1269.33 Q41.6932 1274.11 34.4681 1276.5 Q27.243 1278.85 20.1134 1278.85 Q13.0156 1278.85 5.8224 1276.5 Q-1.37085 1274.14 -8.88238 1269.33 L-8.88238 1264.24 Z" fill="#000000" fill-rule="nonzero" fill-opacity="1" /><path clip-path="url(#clip100)" d="M10.3421 1229.42 L-8.94604 1229.42 L-8.94604 1223.56 L40.5792 1223.56 L40.5792 1229.42 L35.232 1229.42 Q38.4148 1231.27 39.9744 1234.1 Q41.5022 1236.9 41.5022 1240.85 Q41.5022 1247.31 36.346 1251.38 Q31.1897 1255.43 22.787 1255.43 Q14.3843 1255.43 9.22805 1251.38 Q4.07183 1247.31 4.07183 1240.85 Q4.07183 1236.9 5.63143 1234.1 Q7.1592 1231.27 10.3421 1229.42 M22.787 1249.38 Q29.2482 1249.38 32.9403 1246.74 Q36.6006 1244.06 36.6006 1239.42 Q36.6006 1234.77 32.9403 1232.09 Q29.2482 1229.42 22.787 1229.42 Q16.3258 1229.42 12.6655 1232.09 Q8.97342 1234.77 8.97342 1239.42 Q8.97342 1244.06 12.6655 1246.74 Q16.3258 1249.38 22.787 1249.38 Z" fill="#000000" fill-rule="nonzero" fill-opacity="1" /><path clip-path="url(#clip100)" d="M21.2911 1181.01 L24.1556 1181.01 L24.1556 1207.94 Q30.2031 1207.56 33.3859 1204.31 Q36.5369 1201.03 36.5369 1195.21 Q36.5369 1191.83 35.7094 1188.68 Q34.8819 1185.5 33.2268 1182.38 L38.7649 1182.38 Q40.1017 1185.53 40.802 1188.84 Q41.5022 1192.15 41.5022 1195.56 Q41.5022 1204.09 36.5369 1209.08 Q31.5717 1214.05 23.1053 1214.05 Q14.3524 1214.05 9.22805 1209.34 Q4.07183 1204.59 4.07183 1196.57 Q4.07183 1189.38 8.7188 1185.21 Q13.3339 1181.01 21.2911 1181.01 M19.5723 1186.87 Q14.7662 1186.93 11.9016 1189.57 Q9.03708 1192.18 9.03708 1196.51 Q9.03708 1201.41 11.8062 1204.37 Q14.5752 1207.3 19.6042 1207.75 L19.5723 1186.87 Z" fill="#000000" fill-rule="nonzero" fill-opacity="1" /><path clip-path="url(#clip100)" d="M22.3414 1147.94 Q15.9757 1147.94 12.4746 1150.58 Q8.97342 1153.19 8.97342 1157.93 Q8.97342 1162.64 12.4746 1165.29 Q15.9757 1167.9 22.3414 1167.9 Q28.6753 1167.9 32.1764 1165.29 Q35.6776 1162.64 35.6776 1157.93 Q35.6776 1153.19 32.1764 1150.58 Q28.6753 1147.94 22.3414 1147.94 M36.155 1142.08 Q45.258 1142.08 49.6821 1146.13 Q54.1381 1150.17 54.1381 1158.51 Q54.1381 1161.59 53.6607 1164.33 Q53.2151 1167.07 52.2602 1169.65 L46.5629 1169.65 Q47.9634 1167.07 48.6318 1164.55 Q49.3002 1162.04 49.3002 1159.43 Q49.3002 1153.67 46.2765 1150.8 Q43.2846 1147.94 37.2053 1147.94 L34.3089 1147.94 Q37.46 1149.75 39.0196 1152.59 Q40.5792 1155.42 40.5792 1159.37 Q40.5792 1165.92 35.5821 1169.93 Q30.585 1173.94 22.3414 1173.94 Q14.066 1173.94 9.06891 1169.93 Q4.07183 1165.92 4.07183 1159.37 Q4.07183 1155.42 5.63143 1152.59 Q7.19103 1149.75 10.3421 1147.94 L4.9312 1147.94 L4.9312 1142.08 L36.155 1142.08 Z" fill="#000000" fill-rule="nonzero" fill-opacity="1" /><path clip-path="url(#clip100)" d="M-8.88238 1130.94 L-8.88238 1125.85 Q-1.37085 1121.08 5.8224 1118.72 Q13.0156 1116.33 20.1134 1116.33 Q27.243 1116.33 34.4681 1118.72 Q41.6932 1121.08 49.1729 1125.85 L49.1729 1130.94 Q41.8841 1126.71 34.6909 1124.64 Q27.4658 1122.54 20.1134 1122.54 Q12.761 1122.54 5.5996 1124.64 Q-1.56182 1126.71 -8.88238 1130.94 Z" fill="#000000" fill-rule="nonzero" fill-opacity="1" /><path clip-path="url(#clip100)" d="M1233.69 890.899 L1233.69 913.625 L1243.98 913.625 Q1249.69 913.625 1252.81 910.667 Q1255.93 907.71 1255.93 902.242 Q1255.93 896.813 1252.81 893.856 Q1249.69 890.899 1243.98 890.899 L1233.69 890.899 M1225.51 884.174 L1243.98 884.174 Q1254.15 884.174 1259.34 888.793 Q1264.56 893.37 1264.56 902.242 Q1264.56 911.194 1259.34 915.772 Q1254.15 920.349 1243.98 920.349 L1233.69 920.349 L1233.69 944.654 L1225.51 944.654 L1225.51 884.174 Z" fill="#000000" fill-rule="nonzero" fill-opacity="1" /><path clip-path="url(#clip100)" d="M1310.54 907.994 Q1313.33 902.971 1317.22 900.581 Q1321.11 898.191 1326.38 898.191 Q1333.47 898.191 1337.32 903.173 Q1341.16 908.115 1341.16 917.27 L1341.16 944.654 L1333.67 944.654 L1333.67 917.513 Q1333.67 910.991 1331.36 907.832 Q1329.05 904.672 1324.31 904.672 Q1318.52 904.672 1315.16 908.52 Q1311.79 912.369 1311.79 919.012 L1311.79 944.654 L1304.3 944.654 L1304.3 917.513 Q1304.3 910.951 1301.99 907.832 Q1299.68 904.672 1294.86 904.672 Q1289.15 904.672 1285.79 908.561 Q1282.43 912.409 1282.43 919.012 L1282.43 944.654 L1274.93 944.654 L1274.93 899.284 L1282.43 899.284 L1282.43 906.333 Q1284.98 902.16 1288.54 900.176 Q1292.11 898.191 1297.01 898.191 Q1301.95 898.191 1305.39 900.702 Q1308.88 903.214 1310.54 907.994 Z" fill="#000000" fill-rule="nonzero" fill-opacity="1" /><path clip-path="url(#clip100)" d="M1357.93 934.365 L1366.48 934.365 L1366.48 944.654 L1357.93 944.654 L1357.93 934.365 M1357.93 901.755 L1366.48 901.755 L1366.48 912.045 L1357.93 912.045 L1357.93 901.755 Z" fill="#000000" fill-rule="nonzero" fill-opacity="1" /><path clip-path="url(#clip100)" d="M1409.66 881.622 L1426.84 881.622 L1426.84 887.415 L1417.12 887.415 L1417.12 949.799 L1426.84 949.799 L1426.84 955.592 L1409.66 955.592 L1409.66 881.622 Z" fill="#000000" fill-rule="nonzero" fill-opacity="1" /><path clip-path="url(#clip100)" d="M1470.23 884.174 L1502.35 884.174 L1502.35 891.061 L1477.72 891.061 L1477.72 905.887 Q1479.5 905.28 1481.28 904.996 Q1483.07 904.672 1484.85 904.672 Q1494.98 904.672 1500.89 910.222 Q1506.8 915.772 1506.8 925.251 Q1506.8 935.013 1500.73 940.442 Q1494.65 945.829 1483.59 945.829 Q1479.79 945.829 1475.82 945.181 Q1471.89 944.533 1467.67 943.237 L1467.67 935.013 Q1471.32 936.998 1475.21 937.97 Q1479.1 938.943 1483.43 938.943 Q1490.44 938.943 1494.53 935.256 Q1498.62 931.57 1498.62 925.251 Q1498.62 918.931 1494.53 915.245 Q1490.44 911.559 1483.43 911.559 Q1480.15 911.559 1476.87 912.288 Q1473.63 913.017 1470.23 914.556 L1470.23 884.174 Z" fill="#000000" fill-rule="nonzero" fill-opacity="1" /><path clip-path="url(#clip100)" d="M1541.44 911.154 Q1535.93 911.154 1532.69 914.921 Q1529.49 918.688 1529.49 925.251 Q1529.49 931.773 1532.69 935.58 Q1535.93 939.348 1541.44 939.348 Q1546.95 939.348 1550.15 935.58 Q1553.39 931.773 1553.39 925.251 Q1553.39 918.688 1550.15 914.921 Q1546.95 911.154 1541.44 911.154 M1557.68 885.511 L1557.68 892.965 Q1554.61 891.507 1551.45 890.737 Q1548.33 889.967 1545.25 889.967 Q1537.15 889.967 1532.85 895.436 Q1528.6 900.905 1527.99 911.964 Q1530.38 908.439 1533.99 906.576 Q1537.59 904.672 1541.93 904.672 Q1551.04 904.672 1556.31 910.222 Q1561.61 915.731 1561.61 925.251 Q1561.61 934.568 1556.1 940.198 Q1550.6 945.829 1541.44 945.829 Q1530.95 945.829 1525.4 937.808 Q1519.85 929.747 1519.85 914.475 Q1519.85 900.135 1526.65 891.628 Q1533.46 883.081 1544.92 883.081 Q1548 883.081 1551.12 883.688 Q1554.28 884.296 1557.68 885.511 Z" fill="#000000" fill-rule="nonzero" fill-opacity="1" /><path clip-path="url(#clip100)" d="M1587.58 888.306 Q1584.34 888.306 1582.11 890.575 Q1579.88 892.803 1579.88 896.044 Q1579.88 899.244 1582.11 901.472 Q1584.34 903.659 1587.58 903.659 Q1590.82 903.659 1593.05 901.472 Q1595.28 899.244 1595.28 896.044 Q1595.28 892.843 1593.01 890.575 Q1590.78 888.306 1587.58 888.306 M1587.58 883.081 Q1590.17 883.081 1592.56 884.093 Q1594.95 885.066 1596.69 886.929 Q1598.56 888.752 1599.49 891.061 Q1600.42 893.37 1600.42 896.044 Q1600.42 901.391 1596.65 905.118 Q1592.93 908.804 1587.5 908.804 Q1582.03 908.804 1578.38 905.158 Q1574.74 901.512 1574.74 896.044 Q1574.74 890.615 1578.47 886.848 Q1582.19 883.081 1587.58 883.081 Z" fill="#000000" fill-rule="nonzero" fill-opacity="1" /><path clip-path="url(#clip100)" d="M1633.56 881.622 L1633.56 955.592 L1616.38 955.592 L1616.38 949.799 L1626.06 949.799 L1626.06 887.415 L1616.38 887.415 L1616.38 881.622 L1633.56 881.622 Z" fill="#000000" fill-rule="nonzero" fill-opacity="1" /><path clip-path="url(#clip100)" d="M1715.71 945.829 Q1698.9 945.829 1698.9 921.767 Q1698.9 912.247 1705.18 899.284 L1713.2 899.284 Q1707.41 912.247 1707.41 921.969 Q1707.41 939.51 1716.4 939.51 Q1724.62 939.51 1724.62 917.716 L1731.51 917.716 Q1731.51 939.51 1739.73 939.51 Q1748.72 939.51 1748.72 921.969 Q1748.72 912.247 1742.93 899.284 L1750.95 899.284 Q1757.23 912.247 1757.23 921.767 Q1757.23 945.829 1740.42 945.829 Q1729.4 945.829 1728.07 933.717 Q1726.4 945.829 1715.71 945.829 Z" fill="#000000" fill-rule="nonzero" fill-opacity="1" /><path clip-path="url(#clip100)" d="M1804.3 937.849 L1804.3 961.911 L1796.81 961.911 L1796.81 899.284 L1804.3 899.284 L1804.3 906.171 Q1806.65 902.12 1810.22 900.176 Q1813.82 898.191 1818.81 898.191 Q1827.07 898.191 1832.21 904.753 Q1837.4 911.316 1837.4 922.01 Q1837.4 932.704 1832.21 939.267 Q1827.07 945.829 1818.81 945.829 Q1813.82 945.829 1810.22 943.885 Q1806.65 941.9 1804.3 937.849 M1829.66 922.01 Q1829.66 913.787 1826.26 909.128 Q1822.9 904.429 1816.98 904.429 Q1811.07 904.429 1807.67 909.128 Q1804.3 913.787 1804.3 922.01 Q1804.3 930.233 1807.67 934.932 Q1811.07 939.591 1816.98 939.591 Q1822.9 939.591 1826.26 934.932 Q1829.66 930.233 1829.66 922.01 Z" fill="#000000" fill-rule="nonzero" fill-opacity="1" /><path clip-path="url(#clip100)" d="M1885.08 907.994 Q1887.87 902.971 1891.76 900.581 Q1895.65 898.191 1900.92 898.191 Q1908.01 898.191 1911.85 903.173 Q1915.7 908.115 1915.7 917.27 L1915.7 944.654 L1908.21 944.654 L1908.21 917.513 Q1908.21 910.991 1905.9 907.832 Q1903.59 904.672 1898.85 904.672 Q1893.06 904.672 1889.7 908.52 Q1886.33 912.369 1886.33 919.012 L1886.33 944.654 L1878.84 944.654 L1878.84 917.513 Q1878.84 910.951 1876.53 907.832 Q1874.22 904.672 1869.4 904.672 Q1863.69 904.672 1860.33 908.561 Q1856.97 912.409 1856.97 919.012 L1856.97 944.654 L1849.47 944.654 L1849.47 899.284 L1856.97 899.284 L1856.97 906.333 Q1859.52 902.16 1863.08 900.176 Q1866.65 898.191 1871.55 898.191 Q1876.49 898.191 1879.93 900.702 Q1883.42 903.214 1885.08 907.994 Z" fill="#000000" fill-rule="nonzero" fill-opacity="1" /><path clip-path="url(#clip100)" d="M1932.47 934.365 L1941.02 934.365 L1941.02 944.654 L1932.47 944.654 L1932.47 934.365 M1932.47 901.755 L1941.02 901.755 L1941.02 912.045 L1932.47 912.045 L1932.47 901.755 Z" fill="#000000" fill-rule="nonzero" fill-opacity="1" /><path clip-path="url(#clip100)" d="M1984.2 881.622 L2001.38 881.622 L2001.38 887.415 L1991.66 887.415 L1991.66 949.799 L2001.38 949.799 L2001.38 955.592 L1984.2 955.592 L1984.2 881.622 Z" fill="#000000" fill-rule="nonzero" fill-opacity="1" /><path clip-path="url(#clip100)" d="M2019.73 937.768 L2033.1 937.768 L2033.1 891.628 L2018.56 894.545 L2018.56 887.091 L2033.02 884.174 L2041.2 884.174 L2041.2 937.768 L2054.57 937.768 L2054.57 944.654 L2019.73 944.654 L2019.73 937.768 Z" fill="#000000" fill-rule="nonzero" fill-opacity="1" /><path clip-path="url(#clip100)" d="M2071.1 934.365 L2079.64 934.365 L2079.64 944.654 L2071.1 944.654 L2071.1 934.365 Z" fill="#000000" fill-rule="nonzero" fill-opacity="1" /><path clip-path="url(#clip100)" d="M2122.26 912.045 Q2128.13 913.3 2131.41 917.27 Q2134.74 921.24 2134.74 927.074 Q2134.74 936.026 2128.58 940.928 Q2122.42 945.829 2111.08 945.829 Q2107.27 945.829 2103.22 945.06 Q2099.21 944.33 2094.92 942.832 L2094.92 934.932 Q2098.32 936.917 2102.37 937.93 Q2106.42 938.943 2110.84 938.943 Q2118.53 938.943 2122.54 935.905 Q2126.59 932.866 2126.59 927.074 Q2126.59 921.726 2122.83 918.729 Q2119.1 915.691 2112.42 915.691 L2105.37 915.691 L2105.37 908.966 L2112.74 908.966 Q2118.78 908.966 2121.98 906.576 Q2125.18 904.145 2125.18 899.608 Q2125.18 894.95 2121.85 892.479 Q2118.57 889.967 2112.42 889.967 Q2109.05 889.967 2105.2 890.696 Q2101.36 891.426 2096.74 892.965 L2096.74 885.673 Q2101.4 884.377 2105.45 883.729 Q2109.54 883.081 2113.14 883.081 Q2122.46 883.081 2127.89 887.334 Q2133.32 891.547 2133.32 898.758 Q2133.32 903.781 2130.44 907.265 Q2127.57 910.708 2122.26 912.045 Z" fill="#000000" fill-rule="nonzero" fill-opacity="1" /><path clip-path="url(#clip100)" d="M2166.62 881.622 L2166.62 955.592 L2149.44 955.592 L2149.44 949.799 L2159.12 949.799 L2159.12 887.415 L2149.44 887.415 L2149.44 881.622 L2166.62 881.622 Z" fill="#000000" fill-rule="nonzero" fill-opacity="1" /><polyline clip-path="url(#clip103)" style="stroke:#009af9; stroke-linecap:round; stroke-linejoin:round; stroke-width:4; stroke-opacity:1; fill:none" points="354.378,1063.31 361.946,1063.22 369.513,1063.13 377.081,1063.04 384.649,1062.95 392.217,1062.85 399.785,1062.74 407.353,1062.64 414.921,1062.53 422.489,1062.41 430.057,1062.29 437.624,1062.17 445.192,1062.04 452.76,1061.9 460.328,1061.76 467.896,1061.62 475.464,1061.47 483.032,1061.31 490.6,1061.15 498.168,1060.98 505.735,1060.8 513.303,1060.62 520.871,1060.43 528.439,1060.23 536.007,1060.03 543.575,1059.82 551.143,1059.6 558.711,1059.37 566.279,1059.13 573.846,1058.88 581.414,1058.63 588.982,1058.36 596.55,1058.09 604.118,1057.8 611.686,1057.5 619.254,1057.2 626.822,1056.88 634.39,1056.55 641.957,1056.2 649.525,1055.85 657.093,1055.48 664.661,1055.09 672.229,1054.7 679.797,1054.29 687.365,1053.86 694.933,1053.42 702.501,1052.96 710.068,1052.49 717.636,1052 725.204,1051.5 732.772,1050.98 740.34,1050.44 747.908,1049.88 755.476,1049.3 763.044,1048.71 770.612,1048.1 778.179,1047.46 785.747,1046.81 793.315,1046.14 800.883,1045.45 808.451,1044.74 816.019,1044.02 823.587,1043.27 831.155,1042.5 838.723,1041.71 846.29,1040.91 853.858,1040.08 861.426,1039.24 868.994,1038.38 876.562,1037.5 884.13,1036.61 891.698,1035.7 899.266,1034.77 906.834,1033.84 914.401,1032.89 921.969,1031.93 929.537,1030.96 937.105,1029.98 944.673,1029 952.241,1028.01 959.809,1027.02 967.377,1026.02 974.945,1025.03 982.512,1024.04 990.08,1023.05 997.648,1022.07 1005.22,1021.1 1012.78,1020.14 1020.35,1019.19 1027.92,1018.26 1035.49,1017.34 1043.06,1016.44 1050.62,1015.56 1058.19,1014.7 1065.76,1013.87 1073.33,1013.06 1080.9,1012.28 1088.46,1011.52 1096.03,1010.8 1103.6,1010.11 1111.17,1009.45 1118.73,1008.82 1126.3,1008.23 1133.87,1007.67 1141.44,1007.15 1149.01,1006.67 1156.57,1006.23 1164.14,1005.83 1171.71,1005.47 1179.28,1005.15 1186.85,1004.87 1194.41,1004.64 1201.98,1004.45 1209.55,1004.3 1217.12,1004.2 1224.68,1004.15 1232.25,1004.14 1239.82,1004.19 1247.39,1004.28 1254.96,1004.43 1262.52,1004.63 1270.09,1004.88 1277.66,1005.18 1285.23,1005.55 1292.8,1005.97 1300.36,1006.45 1307.93,1006.99 1315.5,1007.6 1323.07,1008.27 1330.64,1009.01 1338.2,1009.83 1345.77,1010.71 1353.34,1011.68 1360.91,1012.72 1368.47,1013.84 1376.04,1015.04 1383.61,1016.33 1391.18,1017.71 1398.75,1019.17 1406.31,1020.73 1413.88,1022.38 1421.45,1024.12 1429.02,1025.95 1436.59,1027.87 1444.15,1029.88 1451.72,1031.96 1459.29,1034.12 1466.86,1036.35 1474.43,1038.64 1481.99,1040.97 1489.56,1043.34 1497.13,1045.72 1504.7,1048.12 1512.26,1050.51 1519.83,1052.88 1527.4,1055.2 1534.97,1057.48 1542.54,1059.7 1550.1,1061.84 1557.67,1063.89 1565.24,1065.85 1572.81,1067.71 1580.38,1069.46 1587.94,1071.11 1595.51,1072.64 1603.08,1074.07 1610.65,1075.38 1618.22,1076.58 1625.78,1077.68 1633.35,1078.67 1640.92,1079.57 1648.49,1080.37 1656.05,1081.09 1663.62,1081.72 1671.19,1082.27 1678.76,1082.75 1686.33,1083.17 1693.89,1083.52 1701.46,1083.82 1709.03,1084.08 1716.6,1084.29 1724.17,1084.47 1731.73,1084.63 1739.3,1084.78 1746.87,1084.92 1754.44,1085.07 1762,1085.24 1769.57,1085.46 1777.14,1085.74 1784.71,1086.12 1792.28,1086.65 1799.84,1087.4 1807.41,1088.5 1814.98,1090.13 1822.55,1092.71 1830.12,1097.06 1837.68,1105.33 1845.25,1124.02 1852.82,1168.35 1860.39,1214.57 1867.96,1234.49 1875.52,1243.16 1883.09,1247.67 1890.66,1250.29 1898.23,1251.94 1905.79,1253.01 1913.36,1253.72 1920.93,1254.21 1928.5,1254.54 1936.07,1254.81 1943.63,1255.07 1951.2,1255.51 1958.77,1256.76 1966.34,1271.19 1973.91,1438.1 1981.47,1440.39 1989.04,1440.8 1996.61,1440.78 2004.18,1440.59 2011.75,1440.29 2019.31,1439.92 2026.88,1439.49 2034.45,1439.01 2042.02,1438.47 2049.58,1437.88 2057.15,1437.24 2064.72,1436.54 2072.29,1435.79 2079.86,1434.99 2087.42,1434.15 2094.99,1433.33 2102.56,1432.72 2110.13,1433.09 2117.7,1442.95 2125.26,1601.01 2132.83,1605.6 2140.4,1603.67 2147.97,1599.79 2155.54,1594.21 2163.1,1586.53 2170.67,1576.16 2178.24,1562.56 2185.81,1546.09 2193.37,1528.68 2200.94,1512.95 2208.51,1500.31 2216.08,1490.72 2223.65,1483.51 2231.21,1478.03 2238.78,1473.79 2246.35,1470.42 2253.92,1467.7 2261.49,1465.46 2269.05,1463.58 2276.62,1461.99 2284.19,1460.62 2291.76,1459.43 2299.33,1458.38 2306.89,1457.46 2314.46,1456.63 2322.03,1455.89 2329.6,1455.22 2337.16,1454.6 2344.73,1454.05 2352.3,1453.54 2359.87,1453.06 2367.44,1452.63 2375,1452.22 2382.57,1451.85 2390.14,1451.5 2397.71,1451.17 2405.28,1450.86 2412.84,1450.57 2420.41,1450.3 2427.98,1450.05 2435.55,1449.8 2443.11,1449.57 2450.68,1449.36 2458.25,1449.15 2465.82,1448.96 2473.39,1448.77 2480.95,1448.6 2488.52,1448.43 2496.09,1448.27 2503.66,1448.12 2511.23,1447.97 2518.79,1447.83 2526.36,1447.7 2533.93,1447.57 2541.5,1447.45 2549.07,1447.34 2556.63,1447.22 2564.2,1447.12 2571.77,1447.02 2579.34,1446.92 2586.9,1446.83 2594.47,1446.74 2602.04,1446.65 2609.61,1446.57 2617.18,1446.49 2624.74,1446.41 2632.31,1446.34 2639.88,1446.27 2647.45,1446.2 2655.02,1446.14 2662.58,1446.08 2670.15,1446.02 2677.72,1445.96 2685.29,1445.9 2692.86,1445.85 2700.42,1445.8 2707.99,1445.75 2715.56,1445.7 2723.13,1445.66 2730.69,1445.62 2738.26,1445.57 2745.83,1445.53 2753.4,1445.5 2760.97,1445.46 2768.53,1445.42 2776.1,1445.39 2783.67,1445.36 2791.24,1445.32 2798.81,1445.29 2806.37,1445.26 2813.94,1445.24 2821.51,1445.21 2829.08,1445.18 2836.65,1445.16 2844.21,1445.13 2851.78,1445.11 2859.35,1445.09 2866.92,1445.07 2874.48,1445.05 2882.05,1445.03 2889.62,1445.01 2897.19,1444.99 2904.76,1444.97 2912.32,1444.95 2919.89,1444.94 2927.46,1444.92 2935.03,1444.91 2942.6,1444.89 2950.16,1444.88 2957.73,1444.86 2965.3,1444.85 2972.87,1444.84 2980.44,1444.83 2988,1444.82 2995.57,1444.8 3003.14,1444.79 3010.71,1444.78 3018.27,1444.77 3025.84,1444.76 3033.41,1444.75 3040.98,1444.75 3048.55,1444.74 3056.11,1444.73 3063.68,1444.72 3071.25,1444.71 "/>
<polyline clip-path="url(#clip103)" style="stroke:#808080; stroke-linecap:round; stroke-linejoin:round; stroke-width:4; stroke-opacity:1; fill:none" stroke-dasharray="16, 10" points="-2607.01,1065.48 6032.64,1065.48 "/>
<polyline clip-path="url(#clip103)" style="stroke:#808080; stroke-linecap:round; stroke-linejoin:round; stroke-width:4; stroke-opacity:1; fill:none" stroke-dasharray="16, 10" points="-2607.01,1065.48 6032.64,1065.48 "/>
<polyline clip-path="url(#clip103)" style="stroke:#009af9; stroke-linecap:round; stroke-linejoin:round; stroke-width:4; stroke-opacity:1; fill:none" points="1305.01,1006.78 1305.01,1065.48 "/>
</svg>
