<?xml version="1.0" encoding="utf-8"?>
<svg xmlns="http://www.w3.org/2000/svg" xmlns:xlink="http://www.w3.org/1999/xlink" width="600" height="400" viewBox="0 0 2400 1600">
<defs>
  <clipPath id="clip7100">
    <rect x="0" y="0" width="2000" height="2000"/>
  </clipPath>
</defs>
<defs>
  <clipPath id="clip7101">
    <rect x="0" y="0" width="2400" height="1600"/>
  </clipPath>
</defs>
<polygon clip-path="url(#clip7101)" points="
0,1600 2400,1600 2400,0 0,0 
  " fill="#ffffff" fill-rule="evenodd" fill-opacity="1"/>
<defs>
  <clipPath id="clip7102">
    <rect x="480" y="0" width="1681" height="1600"/>
  </clipPath>
</defs>
<polygon clip-path="url(#clip7101)" points="
94.4882,1537.01 2321.26,1537.01 2321.26,47.2441 94.4882,47.2441 
  " fill="#ffffff" fill-rule="evenodd" fill-opacity="1"/>
<defs>
  <clipPath id="clip7103">
    <rect x="94" y="47" width="2228" height="1491"/>
  </clipPath>
</defs>
<polyline clip-path="url(#clip7103)" style="stroke:#000000; stroke-width:2; stroke-opacity:0.1; fill:none" points="
  157.282,1537.01 157.282,47.2441 
  "/>
<polyline clip-path="url(#clip7103)" style="stroke:#000000; stroke-width:2; stroke-opacity:0.1; fill:none" points="
  610.082,1537.01 610.082,47.2441 
  "/>
<polyline clip-path="url(#clip7103)" style="stroke:#000000; stroke-width:2; stroke-opacity:0.1; fill:none" points="
  1062.88,1537.01 1062.88,47.2441 
  "/>
<polyline clip-path="url(#clip7103)" style="stroke:#000000; stroke-width:2; stroke-opacity:0.1; fill:none" points="
  1515.68,1537.01 1515.68,47.2441 
  "/>
<polyline clip-path="url(#clip7103)" style="stroke:#000000; stroke-width:2; stroke-opacity:0.1; fill:none" points="
  1968.48,1537.01 1968.48,47.2441 
  "/>
<polyline clip-path="url(#clip7103)" style="stroke:#000000; stroke-width:2; stroke-opacity:0.1; fill:none" points="
  94.4882,1464.56 2321.26,1464.56 
  "/>
<polyline clip-path="url(#clip7103)" style="stroke:#000000; stroke-width:2; stroke-opacity:0.1; fill:none" points="
  94.4882,1161.62 2321.26,1161.62 
  "/>
<polyline clip-path="url(#clip7103)" style="stroke:#000000; stroke-width:2; stroke-opacity:0.1; fill:none" points="
  94.4882,858.686 2321.26,858.686 
  "/>
<polyline clip-path="url(#clip7103)" style="stroke:#000000; stroke-width:2; stroke-opacity:0.1; fill:none" points="
  94.4882,555.752 2321.26,555.752 
  "/>
<polyline clip-path="url(#clip7103)" style="stroke:#000000; stroke-width:2; stroke-opacity:0.1; fill:none" points="
  94.4882,252.817 2321.26,252.817 
  "/>
<polyline clip-path="url(#clip7101)" style="stroke:#000000; stroke-width:4; stroke-opacity:1; fill:none" points="
  94.4882,1537.01 2321.26,1537.01 
  "/>
<polyline clip-path="url(#clip7101)" style="stroke:#000000; stroke-width:4; stroke-opacity:1; fill:none" points="
  94.4882,1537.01 94.4882,47.2441 
  "/>
<polyline clip-path="url(#clip7101)" style="stroke:#000000; stroke-width:4; stroke-opacity:1; fill:none" points="
  157.282,1537.01 157.282,1514.66 
  "/>
<polyline clip-path="url(#clip7101)" style="stroke:#000000; stroke-width:4; stroke-opacity:1; fill:none" points="
  610.082,1537.01 610.082,1514.66 
  "/>
<polyline clip-path="url(#clip7101)" style="stroke:#000000; stroke-width:4; stroke-opacity:1; fill:none" points="
  1062.88,1537.01 1062.88,1514.66 
  "/>
<polyline clip-path="url(#clip7101)" style="stroke:#000000; stroke-width:4; stroke-opacity:1; fill:none" points="
  1515.68,1537.01 1515.68,1514.66 
  "/>
<polyline clip-path="url(#clip7101)" style="stroke:#000000; stroke-width:4; stroke-opacity:1; fill:none" points="
  1968.48,1537.01 1968.48,1514.66 
  "/>
<polyline clip-path="url(#clip7101)" style="stroke:#000000; stroke-width:4; stroke-opacity:1; fill:none" points="
  94.4882,1464.56 127.89,1464.56 
  "/>
<polyline clip-path="url(#clip7101)" style="stroke:#000000; stroke-width:4; stroke-opacity:1; fill:none" points="
  94.4882,1161.62 127.89,1161.62 
  "/>
<polyline clip-path="url(#clip7101)" style="stroke:#000000; stroke-width:4; stroke-opacity:1; fill:none" points="
  94.4882,858.686 127.89,858.686 
  "/>
<polyline clip-path="url(#clip7101)" style="stroke:#000000; stroke-width:4; stroke-opacity:1; fill:none" points="
  94.4882,555.752 127.89,555.752 
  "/>
<polyline clip-path="url(#clip7101)" style="stroke:#000000; stroke-width:4; stroke-opacity:1; fill:none" points="
  94.4882,252.817 127.89,252.817 
  "/>
<g clip-path="url(#clip7101)">
<text style="fill:#000000; fill-opacity:1; font-family:Arial,Helvetica Neue,Helvetica,sans-serif; font-size:48px; text-anchor:middle;" transform="rotate(0, 157.282, 1591.01)" x="157.282" y="1591.01">-2</text>
</g>
<g clip-path="url(#clip7101)">
<text style="fill:#000000; fill-opacity:1; font-family:Arial,Helvetica Neue,Helvetica,sans-serif; font-size:48px; text-anchor:middle;" transform="rotate(0, 610.082, 1591.01)" x="610.082" y="1591.01">-1</text>
</g>
<g clip-path="url(#clip7101)">
<text style="fill:#000000; fill-opacity:1; font-family:Arial,Helvetica Neue,Helvetica,sans-serif; font-size:48px; text-anchor:middle;" transform="rotate(0, 1062.88, 1591.01)" x="1062.88" y="1591.01">0</text>
</g>
<g clip-path="url(#clip7101)">
<text style="fill:#000000; fill-opacity:1; font-family:Arial,Helvetica Neue,Helvetica,sans-serif; font-size:48px; text-anchor:middle;" transform="rotate(0, 1515.68, 1591.01)" x="1515.68" y="1591.01">1</text>
</g>
<g clip-path="url(#clip7101)">
<text style="fill:#000000; fill-opacity:1; font-family:Arial,Helvetica Neue,Helvetica,sans-serif; font-size:48px; text-anchor:middle;" transform="rotate(0, 1968.48, 1591.01)" x="1968.48" y="1591.01">2</text>
</g>
<g clip-path="url(#clip7101)">
<text style="fill:#000000; fill-opacity:1; font-family:Arial,Helvetica Neue,Helvetica,sans-serif; font-size:48px; text-anchor:end;" transform="rotate(0, 70.4882, 1482.06)" x="70.4882" y="1482.06">0</text>
</g>
<g clip-path="url(#clip7101)">
<text style="fill:#000000; fill-opacity:1; font-family:Arial,Helvetica Neue,Helvetica,sans-serif; font-size:48px; text-anchor:end;" transform="rotate(0, 70.4882, 1179.12)" x="70.4882" y="1179.12">10</text>
</g>
<g clip-path="url(#clip7101)">
<text style="fill:#000000; fill-opacity:1; font-family:Arial,Helvetica Neue,Helvetica,sans-serif; font-size:48px; text-anchor:end;" transform="rotate(0, 70.4882, 876.186)" x="70.4882" y="876.186">20</text>
</g>
<g clip-path="url(#clip7101)">
<text style="fill:#000000; fill-opacity:1; font-family:Arial,Helvetica Neue,Helvetica,sans-serif; font-size:48px; text-anchor:end;" transform="rotate(0, 70.4882, 573.252)" x="70.4882" y="573.252">30</text>
</g>
<g clip-path="url(#clip7101)">
<text style="fill:#000000; fill-opacity:1; font-family:Arial,Helvetica Neue,Helvetica,sans-serif; font-size:48px; text-anchor:end;" transform="rotate(0, 70.4882, 270.317)" x="70.4882" y="270.317">40</text>
</g>
<polyline clip-path="url(#clip7103)" style="stroke:#cc1414; stroke-width:4; stroke-opacity:1; fill:none" points="
  1515.23,1465.77 1515.19,1465.81 1515.15,1465.86 1515.11,1465.91 1515.07,1465.97 1515.02,1466.02 1514.96,1466.08 1514.91,1466.14 1514.84,1466.2 1514.78,1466.27 
  1514.7,1466.33 1514.63,1466.4 1514.54,1466.48 1514.45,1466.55 1514.35,1466.63 1514.25,1466.71 1514.13,1466.8 1514.01,1466.88 1513.87,1466.97 1513.73,1467.07 
  1513.57,1467.17 1513.4,1467.27 1513.22,1467.38 1513.02,1467.49 1512.81,1467.6 1512.58,1467.72 1512.33,1467.84 1512.06,1467.97 1511.78,1468.1 1511.46,1468.24 
  1511.13,1468.39 1510.76,1468.53 1510.37,1468.69 1509.95,1468.85 1509.49,1469.02 1509,1469.19 1508.46,1469.37 1507.89,1469.55 1507.27,1469.75 1506.6,1469.95 
  1505.88,1470.15 1505.1,1470.37 1504.26,1470.59 1503.35,1470.82 1502.37,1471.06 1501.32,1471.31 1500.18,1471.57 1498.95,1471.83 1497.63,1472.11 1496.21,1472.39 
  1494.67,1472.68 1493.02,1472.99 1491.24,1473.3 1489.32,1473.62 1487.26,1473.96 1485.03,1474.3 1482.64,1474.66 1480.07,1475.02 1477.3,1475.4 1474.33,1475.79 
  1471.13,1476.18 1467.69,1476.59 1464.01,1477.01 1460.05,1477.44 1455.81,1477.88 1451.25,1478.32 1446.38,1478.78 1441.16,1479.24 1435.57,1479.72 1429.6,1480.19 
  1423.22,1480.68 1416.4,1481.17 1409.14,1481.66 1401.4,1482.15 1393.17,1482.64 1384.42,1483.13 1375.13,1483.62 1365.28,1484.1 1354.86,1484.56 1343.85,1485.02 
  1332.23,1485.46 1320,1485.88 1307.15,1486.28 1293.68,1486.66 1279.59,1487 1264.89,1487.3 1249.6,1487.57 1233.74,1487.79 1217.35,1487.96 1200.46,1488.07 
  1183.14,1488.12 1165.43,1488.11 1147.43,1488.03 1129.2,1487.87 1110.86,1487.64 1092.5,1487.32 1074.25,1486.92 1056.24,1486.43 1038.6,1485.86 1021.48,1485.2 
  1005.03,1484.45 989.398,1483.62 974.738,1482.72 961.195,1481.74 948.904,1480.69 937.992,1479.59 928.568,1478.44 920.72,1477.26 914.514,1476.05 909.988,1474.84 
  907.154,1473.63 905.992,1472.43 906.452,1471.27 908.455,1470.14 911.893,1469.08 916.636,1468.07 922.528,1467.14 929.402,1466.29 937.077,1465.53 945.366,1464.86 
  954.083,1464.27 963.048,1463.78 972.089,1463.37 981.052,1463.05 989.797,1462.8 998.206,1462.62 1006.18,1462.5 1013.65,1462.44 1020.56,1462.43 1026.88,1462.46 
  1032.58,1462.52 1037.68,1462.6 1042.18,1462.71 1046.12,1462.82 1049.52,1462.95 1052.43,1463.08 1054.89,1463.2 1056.94,1463.33 1058.64,1463.45 1060.02,1463.57 
  1061.13,1463.68 1062,1463.78 1062.68,1463.87 1063.19,1463.96 1063.56,1464.03 1063.82,1464.1 1064,1464.16 1064.1,1464.22 1064.15,1464.26 1064.16,1464.31 
  1064.13,1464.34 1064.08,1464.37 1064.02,1464.4 1063.95,1464.42 1063.87,1464.44 1063.79,1464.46 1063.71,1464.48 1063.64,1464.49 1063.56,1464.5 1063.49,1464.51 
  1063.43,1464.52 1063.37,1464.52 1063.31,1464.53 1063.26,1464.53 1063.22,1464.54 1063.18,1464.54 1063.14,1464.54 1063.11,1464.54 1063.08,1464.55 1063.06,1464.55 
  1063.03,1464.55 1063.02,1464.55 1063,1464.55 1062.98,1464.55 1062.97,1464.55 1062.96,1464.55 1062.95,1464.55 1062.94,1464.55 1062.93,1464.55 1062.92,1464.55 
  1062.92,1464.55 1062.91,1464.55 1062.91,1464.55 1062.91,1464.55 1062.9,1464.55 1062.9,1464.55 1062.9,1464.55 1062.9,1464.55 1062.89,1464.55 1062.89,1464.55 
  1062.89,1464.55 1062.89,1464.55 1062.89,1464.56 1062.89,1464.56 1062.89,1464.56 1062.89,1464.56 1062.89,1464.56 1062.89,1464.56 1062.88,1464.56 1062.88,1464.56 
  1062.88,1464.56 1062.88,1464.56 1062.88,1464.56 1062.88,1464.56 1062.88,1464.56 1062.88,1464.56 1062.88,1464.56 1062.88,1464.56 1062.88,1464.56 1062.88,1464.56 
  1062.88,1464.56 1062.88,1464.56 1062.88,1464.56 1062.88,1464.56 1062.88,1464.56 1062.88,1464.56 1062.88,1464.56 1062.88,1464.56 1062.88,1464.56 1062.88,1464.56 
  1062.88,1464.56 1062.88,1464.56 1062.88,1464.56 1062.88,1464.56 1062.88,1464.56 1062.88,1464.56 1062.88,1464.56 1062.88,1464.56 1062.88,1464.56 1062.88,1464.56 
  1062.88,1464.56 1062.88,1464.56 1062.88,1464.56 1062.88,1464.56 1062.88,1464.56 1062.88,1464.56 1062.88,1464.56 1062.88,1464.56 1062.88,1464.56 1062.88,1464.56 
  
  "/>
<polyline clip-path="url(#clip7103)" style="stroke:#14cc2a; stroke-width:4; stroke-opacity:1; fill:none" points="
  2258.24,89.4072 2258.18,141.576 2258.11,191.78 2258.03,240.093 2257.95,286.588 2257.87,331.333 2257.78,374.395 2257.68,415.838 2257.57,455.723 2257.45,494.109 
  2257.33,531.054 2257.19,566.613 2257.05,600.838 2256.89,633.78 2256.72,665.487 2256.53,696.009 2256.33,725.388 2256.12,753.67 2255.89,780.895 2255.63,807.105 
  2255.36,832.339 2255.07,856.633 2254.75,880.024 2254.41,902.547 2254.04,924.235 2253.65,945.12 2253.22,965.234 2252.75,984.606 2252.25,1003.26 2251.71,1021.24 
  2251.13,1038.55 2250.5,1055.23 2249.82,1071.31 2249.08,1086.79 2248.29,1101.72 2247.43,1116.11 2246.51,1129.98 2245.51,1143.35 2244.44,1156.24 2243.28,1168.68 
  2242.02,1180.67 2240.67,1192.24 2239.21,1203.41 2237.64,1214.18 2235.94,1224.59 2234.11,1234.63 2232.13,1244.33 2230.01,1253.7 2227.71,1262.76 2225.24,1271.51 
  2222.57,1279.97 2219.69,1288.16 2216.6,1296.08 2213.26,1303.74 2209.67,1311.16 2205.8,1318.35 2201.63,1325.31 2197.15,1332.06 2192.32,1338.61 2187.14,1344.95 
  2181.56,1351.12 2175.56,1357.1 2169.12,1362.91 2162.2,1368.55 2154.77,1374.04 2146.8,1379.37 2138.26,1384.56 2129.1,1389.61 2119.29,1394.53 2108.79,1399.31 
  2097.55,1403.97 2085.55,1408.51 2072.73,1412.92 2059.05,1417.23 2044.46,1421.41 2028.94,1425.49 2012.42,1429.45 1994.87,1433.31 1976.26,1437.05 1956.54,1440.69 
  1935.67,1444.21 1913.64,1447.62 1890.41,1450.91 1865.96,1454.08 1840.28,1457.12 1813.38,1460.04 1785.25,1462.83 1755.92,1465.48 1725.42,1467.99 1693.8,1470.34 
  1661.1,1472.54 1627.42,1474.58 1592.86,1476.45 1557.51,1478.14 1521.52,1479.65 1485.05,1480.97 1448.26,1482.1 1411.35,1483.04 1374.52,1483.78 1337.99,1484.32 
  1302.01,1484.66 1266.82,1484.8 1232.66,1484.76 1199.78,1484.53 1168.42,1484.13 1138.82,1483.57 1111.19,1482.86 1085.71,1482.01 1062.56,1481.05 1041.85,1479.99 
  1023.67,1478.85 1008.08,1477.66 995.076,1476.43 984.622,1475.19 976.635,1473.95 970.992,1472.74 967.538,1471.57 966.081,1470.46 966.411,1469.41 968.296,1468.45 
  971.497,1467.57 975.771,1466.78 980.879,1466.09 986.595,1465.49 992.706,1464.98 999.023,1464.55 1005.38,1464.21 1011.63,1463.94 1017.66,1463.74 1023.37,1463.59 
  1028.71,1463.49 1033.62,1463.44 1038.08,1463.42 1042.09,1463.43 1045.64,1463.46 1048.75,1463.51 1051.45,1463.57 1053.76,1463.64 1055.72,1463.71 1057.37,1463.79 
  1058.74,1463.86 1059.86,1463.93 1060.76,1464 1061.49,1464.06 1062.06,1464.12 1062.5,1464.17 1062.84,1464.22 1063.09,1464.26 1063.27,1464.3 1063.39,1464.34 
  1063.46,1464.37 1063.5,1464.39 1063.52,1464.42 1063.51,1464.44 1063.5,1464.46 1063.47,1464.47 1063.43,1464.48 1063.4,1464.49 1063.36,1464.5 1063.31,1464.51 
  1063.27,1464.52 1063.24,1464.52 1063.2,1464.53 1063.17,1464.53 1063.14,1464.54 1063.11,1464.54 1063.08,1464.54 1063.06,1464.54 1063.04,1464.55 1063.02,1464.55 
  1063,1464.55 1062.99,1464.55 1062.97,1464.55 1062.96,1464.55 1062.95,1464.55 1062.94,1464.55 1062.93,1464.55 1062.93,1464.55 1062.92,1464.55 1062.92,1464.55 
  1062.91,1464.55 1062.91,1464.55 1062.9,1464.55 1062.9,1464.55 1062.9,1464.55 1062.9,1464.55 1062.89,1464.55 1062.89,1464.55 1062.89,1464.55 1062.89,1464.55 
  1062.89,1464.55 1062.89,1464.55 1062.89,1464.56 1062.89,1464.56 1062.89,1464.56 1062.89,1464.56 1062.89,1464.56 1062.88,1464.56 1062.88,1464.56 1062.88,1464.56 
  1062.88,1464.56 1062.88,1464.56 1062.88,1464.56 1062.88,1464.56 1062.88,1464.56 1062.88,1464.56 1062.88,1464.56 1062.88,1464.56 1062.88,1464.56 1062.88,1464.56 
  1062.88,1464.56 1062.88,1464.56 1062.88,1464.56 1062.88,1464.56 1062.88,1464.56 1062.88,1464.56 1062.88,1464.56 1062.88,1464.56 1062.88,1464.56 1062.88,1464.56 
  1062.88,1464.56 1062.88,1464.56 1062.88,1464.56 1062.88,1464.56 1062.88,1464.56 1062.88,1464.56 1062.88,1464.56 1062.88,1464.56 1062.88,1464.56 1062.88,1464.56 
  1062.88,1464.56 1062.88,1464.56 1062.88,1464.56 1062.88,1464.56 1062.88,1464.56 1062.88,1464.56 1062.88,1464.56 1062.88,1464.56 1062.88,1464.56 1062.88,1464.56 
  
  "/>
<polyline clip-path="url(#clip7103)" style="stroke:#000000; stroke-width:4; stroke-opacity:1; fill:none" stroke-dasharray="16, 10" points="
  1515.68,1464.56 1514.77,1462.63 1512.04,1460.72 1507.5,1458.82 1501.17,1456.95 1493.07,1455.1 1483.25,1453.3 1471.73,1451.54 1458.56,1449.83 1443.8,1448.18 
  1427.51,1446.59 1409.75,1445.08 1390.59,1443.65 1370.11,1442.3 1348.4,1441.04 1325.53,1439.88 1301.61,1438.81 1276.73,1437.85 1250.98,1437 1224.48,1436.26 
  1197.33,1435.63 1169.63,1435.12 1141.51,1434.72 1113.07,1434.45 1084.43,1434.3 1055.7,1434.27 1027,1434.36 998.442,1434.57 970.146,1434.9 942.223,1435.36 
  914.786,1435.93 887.945,1436.61 861.809,1437.41 836.482,1438.32 812.067,1439.33 788.662,1440.45 766.361,1441.66 745.254,1442.97 725.426,1444.36 706.957,1445.83 
  689.921,1447.38 674.387,1448.99 660.418,1450.67 648.068,1452.41 637.389,1454.19 628.424,1456.02 621.208,1457.88 615.77,1459.77 612.133,1461.68 610.31,1463.59 
  610.31,1465.52 612.133,1467.43 615.77,1469.34 621.208,1471.23 628.424,1473.09 637.389,1474.92 648.068,1476.7 660.418,1478.44 674.387,1480.12 689.921,1481.73 
  706.957,1483.28 725.426,1484.75 745.254,1486.15 766.361,1487.45 788.662,1488.66 812.067,1489.78 836.482,1490.79 861.809,1491.7 887.945,1492.5 914.786,1493.18 
  942.223,1493.75 970.146,1494.21 998.442,1494.54 1027,1494.75 1055.7,1494.84 1084.43,1494.81 1113.07,1494.66 1141.51,1494.39 1169.63,1493.99 1197.33,1493.48 
  1224.48,1492.85 1250.98,1492.11 1276.73,1491.26 1301.61,1490.3 1325.53,1489.23 1348.4,1488.07 1370.11,1486.81 1390.59,1485.46 1409.75,1484.03 1427.51,1482.52 
  1443.8,1480.93 1458.56,1479.28 1471.73,1477.58 1483.25,1475.81 1493.07,1474.01 1501.17,1472.16 1507.5,1470.29 1512.04,1468.39 1514.77,1466.48 1515.68,1464.56 
  
  "/>
<polyline clip-path="url(#clip7103)" style="stroke:#000000; stroke-width:4; stroke-opacity:1; fill:none" stroke-dasharray="16, 10" points="
  1062.88,1464.56 1061.97,1462.63 1059.24,1460.72 1054.7,1458.82 1048.37,1456.95 1040.27,1455.1 1030.45,1453.3 1018.93,1451.54 1005.76,1449.83 991.002,1448.18 
  974.709,1446.59 956.947,1445.08 937.789,1443.65 917.311,1442.3 895.597,1441.04 872.732,1439.88 848.81,1438.81 823.927,1437.85 798.182,1437 771.68,1436.26 
  744.528,1435.63 716.834,1435.12 688.71,1434.72 660.27,1434.45 631.627,1434.3 602.898,1434.27 574.198,1434.36 545.642,1434.57 517.346,1434.9 489.423,1435.36 
  461.986,1435.93 435.145,1436.61 409.009,1437.41 383.682,1438.32 359.267,1439.33 335.862,1440.45 313.561,1441.66 292.454,1442.97 272.626,1444.36 254.157,1445.83 
  237.121,1447.38 221.587,1448.99 207.617,1450.67 195.268,1452.41 184.589,1454.19 175.624,1456.02 168.407,1457.88 162.97,1459.77 159.332,1461.68 157.51,1463.59 
  157.51,1465.52 159.332,1467.43 162.97,1469.34 168.407,1471.23 175.624,1473.09 184.589,1474.92 195.268,1476.7 207.617,1478.44 221.587,1480.12 237.121,1481.73 
  254.157,1483.28 272.626,1484.75 292.454,1486.15 313.561,1487.45 335.862,1488.66 359.267,1489.78 383.682,1490.79 409.009,1491.7 435.145,1492.5 461.986,1493.18 
  489.423,1493.75 517.346,1494.21 545.642,1494.54 574.198,1494.75 602.898,1494.84 631.627,1494.81 660.27,1494.66 688.71,1494.39 716.834,1493.99 744.528,1493.48 
  771.68,1492.85 798.182,1492.11 823.927,1491.26 848.81,1490.3 872.732,1489.23 895.597,1488.07 917.311,1486.81 937.789,1485.46 956.947,1484.03 974.709,1482.52 
  991.002,1480.93 1005.76,1479.28 1018.93,1477.58 1030.45,1475.81 1040.27,1474.01 1048.37,1472.16 1054.7,1470.29 1059.24,1468.39 1061.97,1466.48 1062.88,1464.56 
  
  "/>
</svg>
