<?xml version="1.0" encoding="utf-8"?>
<svg xmlns="http://www.w3.org/2000/svg" xmlns:xlink="http://www.w3.org/1999/xlink" width="600" height="400" viewBox="0 0 2400 1600">
<defs>
  <clipPath id="clip7600">
    <rect x="0" y="0" width="2000" height="2000"/>
  </clipPath>
</defs>
<defs>
  <clipPath id="clip7601">
    <rect x="0" y="0" width="2400" height="1600"/>
  </clipPath>
</defs>
<polygon clip-path="url(#clip7601)" points="
0,1600 2400,1600 2400,0 0,0 
  " fill="#ffffff" fill-rule="evenodd" fill-opacity="1"/>
<defs>
  <clipPath id="clip7602">
    <rect x="480" y="0" width="1681" height="1600"/>
  </clipPath>
</defs>
<polygon clip-path="url(#clip7601)" points="
157.48,1474.02 2321.26,1474.02 2321.26,125.984 157.48,125.984 
  " fill="#ffffff" fill-rule="evenodd" fill-opacity="1"/>
<defs>
  <clipPath id="clip7603">
    <rect x="157" y="125" width="2165" height="1349"/>
  </clipPath>
</defs>
<polyline clip-path="url(#clip7603)" style="stroke:#000000; stroke-width:2; stroke-opacity:0.1; fill:none" points="
  372.207,1474.02 372.207,125.984 
  "/>
<polyline clip-path="url(#clip7603)" style="stroke:#000000; stroke-width:2; stroke-opacity:0.1; fill:none" points="
  650.831,1474.02 650.831,125.984 
  "/>
<polyline clip-path="url(#clip7603)" style="stroke:#000000; stroke-width:2; stroke-opacity:0.1; fill:none" points="
  929.455,1474.02 929.455,125.984 
  "/>
<polyline clip-path="url(#clip7603)" style="stroke:#000000; stroke-width:2; stroke-opacity:0.1; fill:none" points="
  1208.08,1474.02 1208.08,125.984 
  "/>
<polyline clip-path="url(#clip7603)" style="stroke:#000000; stroke-width:2; stroke-opacity:0.1; fill:none" points="
  1486.7,1474.02 1486.7,125.984 
  "/>
<polyline clip-path="url(#clip7603)" style="stroke:#000000; stroke-width:2; stroke-opacity:0.1; fill:none" points="
  1765.33,1474.02 1765.33,125.984 
  "/>
<polyline clip-path="url(#clip7603)" style="stroke:#000000; stroke-width:2; stroke-opacity:0.1; fill:none" points="
  2043.95,1474.02 2043.95,125.984 
  "/>
<polyline clip-path="url(#clip7603)" style="stroke:#000000; stroke-width:2; stroke-opacity:0.1; fill:none" points="
  157.48,1435.86 2321.26,1435.86 
  "/>
<polyline clip-path="url(#clip7603)" style="stroke:#000000; stroke-width:2; stroke-opacity:0.1; fill:none" points="
  157.48,1090.34 2321.26,1090.34 
  "/>
<polyline clip-path="url(#clip7603)" style="stroke:#000000; stroke-width:2; stroke-opacity:0.1; fill:none" points="
  157.48,744.82 2321.26,744.82 
  "/>
<polyline clip-path="url(#clip7603)" style="stroke:#000000; stroke-width:2; stroke-opacity:0.1; fill:none" points="
  157.48,399.297 2321.26,399.297 
  "/>
<polyline clip-path="url(#clip7601)" style="stroke:#000000; stroke-width:4; stroke-opacity:1; fill:none" points="
  157.48,1474.02 2321.26,1474.02 
  "/>
<polyline clip-path="url(#clip7601)" style="stroke:#000000; stroke-width:4; stroke-opacity:1; fill:none" points="
  157.48,1474.02 157.48,125.984 
  "/>
<polyline clip-path="url(#clip7601)" style="stroke:#000000; stroke-width:4; stroke-opacity:1; fill:none" points="
  372.207,1474.02 372.207,1453.8 
  "/>
<polyline clip-path="url(#clip7601)" style="stroke:#000000; stroke-width:4; stroke-opacity:1; fill:none" points="
  650.831,1474.02 650.831,1453.8 
  "/>
<polyline clip-path="url(#clip7601)" style="stroke:#000000; stroke-width:4; stroke-opacity:1; fill:none" points="
  929.455,1474.02 929.455,1453.8 
  "/>
<polyline clip-path="url(#clip7601)" style="stroke:#000000; stroke-width:4; stroke-opacity:1; fill:none" points="
  1208.08,1474.02 1208.08,1453.8 
  "/>
<polyline clip-path="url(#clip7601)" style="stroke:#000000; stroke-width:4; stroke-opacity:1; fill:none" points="
  1486.7,1474.02 1486.7,1453.8 
  "/>
<polyline clip-path="url(#clip7601)" style="stroke:#000000; stroke-width:4; stroke-opacity:1; fill:none" points="
  1765.33,1474.02 1765.33,1453.8 
  "/>
<polyline clip-path="url(#clip7601)" style="stroke:#000000; stroke-width:4; stroke-opacity:1; fill:none" points="
  2043.95,1474.02 2043.95,1453.8 
  "/>
<polyline clip-path="url(#clip7601)" style="stroke:#000000; stroke-width:4; stroke-opacity:1; fill:none" points="
  157.48,1435.86 189.937,1435.86 
  "/>
<polyline clip-path="url(#clip7601)" style="stroke:#000000; stroke-width:4; stroke-opacity:1; fill:none" points="
  157.48,1090.34 189.937,1090.34 
  "/>
<polyline clip-path="url(#clip7601)" style="stroke:#000000; stroke-width:4; stroke-opacity:1; fill:none" points="
  157.48,744.82 189.937,744.82 
  "/>
<polyline clip-path="url(#clip7601)" style="stroke:#000000; stroke-width:4; stroke-opacity:1; fill:none" points="
  157.48,399.297 189.937,399.297 
  "/>
<g clip-path="url(#clip7601)">
<text style="fill:#000000; fill-opacity:1; font-family:Arial,Helvetica Neue,Helvetica,sans-serif; font-size:48px; text-anchor:middle;" transform="rotate(0, 372.207, 1528.02)" x="372.207" y="1528.02">-1</text>
</g>
<g clip-path="url(#clip7601)">
<text style="fill:#000000; fill-opacity:1; font-family:Arial,Helvetica Neue,Helvetica,sans-serif; font-size:48px; text-anchor:middle;" transform="rotate(0, 650.831, 1528.02)" x="650.831" y="1528.02">0</text>
</g>
<g clip-path="url(#clip7601)">
<text style="fill:#000000; fill-opacity:1; font-family:Arial,Helvetica Neue,Helvetica,sans-serif; font-size:48px; text-anchor:middle;" transform="rotate(0, 929.455, 1528.02)" x="929.455" y="1528.02">1</text>
</g>
<g clip-path="url(#clip7601)">
<text style="fill:#000000; fill-opacity:1; font-family:Arial,Helvetica Neue,Helvetica,sans-serif; font-size:48px; text-anchor:middle;" transform="rotate(0, 1208.08, 1528.02)" x="1208.08" y="1528.02">2</text>
</g>
<g clip-path="url(#clip7601)">
<text style="fill:#000000; fill-opacity:1; font-family:Arial,Helvetica Neue,Helvetica,sans-serif; font-size:48px; text-anchor:middle;" transform="rotate(0, 1486.7, 1528.02)" x="1486.7" y="1528.02">3</text>
</g>
<g clip-path="url(#clip7601)">
<text style="fill:#000000; fill-opacity:1; font-family:Arial,Helvetica Neue,Helvetica,sans-serif; font-size:48px; text-anchor:middle;" transform="rotate(0, 1765.33, 1528.02)" x="1765.33" y="1528.02">4</text>
</g>
<g clip-path="url(#clip7601)">
<text style="fill:#000000; fill-opacity:1; font-family:Arial,Helvetica Neue,Helvetica,sans-serif; font-size:48px; text-anchor:middle;" transform="rotate(0, 2043.95, 1528.02)" x="2043.95" y="1528.02">5</text>
</g>
<g clip-path="url(#clip7601)">
<text style="fill:#000000; fill-opacity:1; font-family:Arial,Helvetica Neue,Helvetica,sans-serif; font-size:48px; text-anchor:end;" transform="rotate(0, 133.48, 1453.36)" x="133.48" y="1453.36">0</text>
</g>
<g clip-path="url(#clip7601)">
<text style="fill:#000000; fill-opacity:1; font-family:Arial,Helvetica Neue,Helvetica,sans-serif; font-size:48px; text-anchor:end;" transform="rotate(0, 133.48, 1107.84)" x="133.48" y="1107.84">20</text>
</g>
<g clip-path="url(#clip7601)">
<text style="fill:#000000; fill-opacity:1; font-family:Arial,Helvetica Neue,Helvetica,sans-serif; font-size:48px; text-anchor:end;" transform="rotate(0, 133.48, 762.32)" x="133.48" y="762.32">40</text>
</g>
<g clip-path="url(#clip7601)">
<text style="fill:#000000; fill-opacity:1; font-family:Arial,Helvetica Neue,Helvetica,sans-serif; font-size:48px; text-anchor:end;" transform="rotate(0, 133.48, 416.797)" x="133.48" y="416.797">60</text>
</g>
<g clip-path="url(#clip7601)">
<text style="fill:#000000; fill-opacity:1; font-family:Arial,Helvetica Neue,Helvetica,sans-serif; font-size:84px; text-anchor:middle;" transform="rotate(0, 1239.37, 73.2)" x="1239.37" y="73.2">Stability region of P,     $k_d$ = 0.0</text>
</g>
<polyline clip-path="url(#clip7603)" style="stroke:#009af9; stroke-width:6; stroke-opacity:1; fill:none" points="
  371.584,1435.86 371.58,1435.86 371.576,1435.86 371.571,1435.86 371.567,1435.86 371.562,1435.86 371.558,1435.86 371.553,1435.86 371.549,1435.86 371.544,1435.86 
  371.54,1435.86 371.535,1435.86 371.53,1435.86 371.526,1435.86 371.521,1435.86 371.516,1435.86 371.511,1435.86 371.506,1435.86 371.502,1435.86 371.497,1435.86 
  371.492,1435.86 371.487,1435.86 371.482,1435.86 371.477,1435.86 371.472,1435.86 371.467,1435.86 371.462,1435.86 371.456,1435.86 371.451,1435.86 371.446,1435.86 
  371.441,1435.86 371.435,1435.86 371.43,1435.86 371.425,1435.86 371.419,1435.86 371.414,1435.86 371.408,1435.86 371.403,1435.86 371.397,1435.86 371.391,1435.86 
  371.386,1435.86 371.38,1435.86 371.374,1435.86 371.368,1435.86 371.363,1435.86 371.357,1435.86 371.351,1435.86 371.345,1435.86 371.339,1435.86 371.333,1435.86 
  371.327,1435.86 371.321,1435.86 371.315,1435.86 371.308,1435.86 371.302,1435.86 371.296,1435.86 371.29,1435.86 371.283,1435.86 371.277,1435.86 371.27,1435.86 
  371.264,1435.86 371.257,1435.86 371.251,1435.86 371.244,1435.86 371.237,1435.86 371.231,1435.86 371.224,1435.86 371.217,1435.86 371.21,1435.86 371.203,1435.86 
  371.196,1435.86 371.189,1435.86 371.182,1435.86 371.175,1435.86 371.168,1435.86 371.161,1435.86 371.154,1435.86 371.146,1435.86 371.139,1435.86 371.131,1435.86 
  371.124,1435.86 371.116,1435.86 371.109,1435.86 371.101,1435.86 371.094,1435.86 371.086,1435.86 371.078,1435.86 371.07,1435.86 371.062,1435.86 371.054,1435.86 
  371.046,1435.86 371.038,1435.86 371.03,1435.86 371.022,1435.86 371.014,1435.86 371.006,1435.86 370.997,1435.86 370.989,1435.86 370.98,1435.86 370.972,1435.86 
  370.963,1435.86 370.955,1435.86 370.946,1435.86 370.937,1435.86 370.928,1435.86 370.92,1435.86 370.911,1435.86 370.902,1435.86 370.893,1435.86 370.883,1435.86 
  370.874,1435.86 370.865,1435.86 370.856,1435.86 370.846,1435.86 370.837,1435.86 370.827,1435.86 370.818,1435.86 370.808,1435.86 370.798,1435.86 370.789,1435.86 
  370.779,1435.86 370.769,1435.86 370.759,1435.86 370.749,1435.86 370.739,1435.86 370.729,1435.86 370.718,1435.86 370.708,1435.86 370.698,1435.86 370.687,1435.86 
  370.677,1435.86 370.666,1435.86 370.655,1435.86 370.644,1435.86 370.634,1435.86 370.623,1435.86 370.612,1435.86 370.601,1435.86 370.589,1435.86 370.578,1435.86 
  370.567,1435.86 370.556,1435.86 370.544,1435.86 370.533,1435.86 370.521,1435.86 370.509,1435.86 370.497,1435.86 370.486,1435.86 370.474,1435.86 370.462,1435.86 
  370.45,1435.86 370.437,1435.86 370.425,1435.86 370.413,1435.86 370.4,1435.86 370.388,1435.86 370.375,1435.86 370.362,1435.86 370.35,1435.86 370.337,1435.86 
  370.324,1435.86 370.311,1435.86 370.297,1435.86 370.284,1435.86 370.271,1435.86 370.257,1435.86 370.244,1435.86 370.23,1435.86 370.217,1435.86 370.203,1435.86 
  370.189,1435.86 370.175,1435.86 370.161,1435.86 370.147,1435.86 370.132,1435.86 370.118,1435.86 370.103,1435.86 370.089,1435.86 370.074,1435.86 370.059,1435.86 
  370.044,1435.86 370.029,1435.86 370.014,1435.86 369.999,1435.86 369.984,1435.86 369.968,1435.86 369.953,1435.86 369.937,1435.86 369.921,1435.86 369.905,1435.86 
  369.889,1435.86 369.873,1435.86 369.857,1435.86 369.841,1435.86 369.825,1435.86 369.808,1435.86 369.791,1435.86 369.775,1435.86 369.758,1435.86 369.741,1435.86 
  369.724,1435.86 369.706,1435.86 369.689,1435.86 369.672,1435.86 369.654,1435.86 369.636,1435.86 369.618,1435.86 369.6,1435.86 369.582,1435.86 369.564,1435.86 
  369.546,1435.86 369.527,1435.86 369.509,1435.86 369.49,1435.86 369.471,1435.86 369.452,1435.86 369.433,1435.86 369.414,1435.86 369.394,1435.86 369.375,1435.86 
  369.355,1435.86 369.335,1435.86 369.316,1435.86 369.295,1435.86 369.275,1435.86 369.255,1435.86 369.234,1435.86 369.214,1435.86 369.193,1435.86 369.172,1435.86 
  369.151,1435.86 369.13,1435.86 369.109,1435.86 369.087,1435.86 369.065,1435.86 369.044,1435.86 369.022,1435.86 369,1435.86 368.977,1435.86 368.955,1435.86 
  368.932,1435.86 368.91,1435.86 368.887,1435.86 368.864,1435.86 368.84,1435.86 368.817,1435.86 368.794,1435.86 368.77,1435.86 368.746,1435.86 368.722,1435.86 
  368.698,1435.86 368.674,1435.86 368.649,1435.86 368.624,1435.86 368.599,1435.86 368.574,1435.86 368.549,1435.86 368.524,1435.86 368.498,1435.86 368.473,1435.86 
  368.447,1435.86 368.421,1435.86 368.394,1435.86 368.368,1435.86 368.341,1435.86 368.314,1435.86 368.287,1435.86 368.26,1435.86 368.233,1435.86 368.205,1435.86 
  368.177,1435.86 368.149,1435.86 368.121,1435.86 368.093,1435.86 368.064,1435.86 368.036,1435.86 368.007,1435.86 367.978,1435.86 367.948,1435.86 367.919,1435.86 
  367.889,1435.86 367.859,1435.86 367.829,1435.86 367.798,1435.86 367.768,1435.86 367.737,1435.86 367.706,1435.86 367.675,1435.86 367.643,1435.86 367.612,1435.86 
  367.58,1435.86 367.548,1435.86 367.515,1435.86 367.483,1435.86 367.45,1435.86 367.417,1435.86 367.384,1435.86 367.35,1435.86 367.317,1435.86 367.283,1435.86 
  367.249,1435.86 367.214,1435.86 367.18,1435.86 367.145,1435.86 367.11,1435.86 367.074,1435.86 367.039,1435.86 367.003,1435.86 366.967,1435.86 366.93,1435.86 
  366.894,1435.86 366.857,1435.86 366.82,1435.86 366.782,1435.86 366.745,1435.86 366.707,1435.86 366.669,1435.86 366.63,1435.86 366.592,1435.86 366.553,1435.86 
  366.513,1435.86 366.474,1435.86 366.434,1435.86 366.394,1435.86 366.354,1435.86 366.313,1435.86 366.272,1435.86 366.231,1435.86 366.19,1435.86 366.148,1435.86 
  366.106,1435.86 366.064,1435.86 366.021,1435.86 365.978,1435.86 365.935,1435.86 365.891,1435.86 365.848,1435.86 365.803,1435.86 365.759,1435.86 365.714,1435.86 
  365.669,1435.86 365.624,1435.86 365.578,1435.86 365.532,1435.86 365.486,1435.86 365.439,1435.86 365.392,1435.86 365.345,1435.86 365.298,1435.86 365.25,1435.86 
  365.201,1435.86 365.153,1435.86 365.104,1435.86 365.055,1435.86 365.005,1435.86 364.955,1435.86 364.905,1435.86 364.854,1435.86 364.803,1435.86 364.752,1435.86 
  364.7,1435.86 364.648,1435.86 364.596,1435.86 364.543,1435.86 364.49,1435.86 364.436,1435.86 364.382,1435.86 364.328,1435.86 364.273,1435.86 364.218,1435.86 
  364.163,1435.86 364.107,1435.86 364.051,1435.86 363.994,1435.86 363.937,1435.86 363.88,1435.86 363.822,1435.86 363.764,1435.86 363.706,1435.86 363.647,1435.86 
  363.587,1435.86 363.528,1435.86 363.467,1435.86 363.407,1435.86 363.346,1435.86 363.284,1435.86 363.222,1435.86 363.16,1435.86 363.097,1435.86 363.034,1435.86 
  362.971,1435.86 362.907,1435.86 362.842,1435.86 362.777,1435.86 362.712,1435.86 362.646,1435.86 362.58,1435.86 362.513,1435.86 362.446,1435.86 362.378,1435.86 
  362.31,1435.86 362.241,1435.86 362.172,1435.86 362.103,1435.86 362.033,1435.86 361.962,1435.86 361.891,1435.86 361.82,1435.86 361.748,1435.86 361.675,1435.86 
  361.602,1435.86 361.528,1435.86 361.454,1435.86 361.38,1435.86 361.305,1435.86 361.229,1435.86 361.153,1435.86 361.077,1435.86 360.999,1435.86 360.922,1435.86 
  360.844,1435.86 360.765,1435.86 360.686,1435.86 360.606,1435.86 360.525,1435.86 360.444,1435.86 360.363,1435.86 360.281,1435.86 360.198,1435.86 360.115,1435.86 
  360.031,1435.86 359.947,1435.86 359.862,1435.86 359.776,1435.86 359.69,1435.86 359.603,1435.86 359.516,1435.86 359.428,1435.86 359.34,1435.86 359.25,1435.86 
  359.161,1435.86 359.07,1435.86 358.979,1435.86 358.888,1435.86 358.795,1435.86 358.702,1435.86 358.609,1435.86 358.515,1435.86 358.42,1435.86 358.324,1435.86 
  358.228,1435.86 358.131,1435.86 358.034,1435.86 357.936,1435.86 357.837,1435.86 357.737,1435.86 357.637,1435.86 357.536,1435.86 357.435,1435.86 357.332,1435.86 
  357.229,1435.86 357.126,1435.86 357.021,1435.86 356.916,1435.86 356.81,1435.86 356.703,1435.86 356.596,1435.86 356.488,1435.86 356.379,1435.86 356.27,1435.86 
  356.159,1435.86 356.048,1435.86 355.936,1435.86 355.824,1435.86 355.71,1435.86 355.596,1435.86 355.481,1435.86 355.365,1435.86 355.249,1435.86 355.132,1435.86 
  355.013,1435.86 354.894,1435.86 354.775,1435.85 354.654,1435.85 354.532,1435.85 354.41,1435.85 354.287,1435.85 354.163,1435.85 354.038,1435.85 353.913,1435.85 
  353.786,1435.85 353.659,1435.85 353.53,1435.85 353.401,1435.85 353.271,1435.85 353.14,1435.85 353.008,1435.85 352.875,1435.85 352.742,1435.85 352.607,1435.85 
  352.472,1435.85 352.335,1435.85 352.198,1435.85 352.06,1435.85 351.92,1435.85 351.78,1435.85 351.639,1435.85 351.497,1435.85 351.354,1435.85 351.209,1435.85 
  351.064,1435.85 350.918,1435.85 350.771,1435.85 350.623,1435.85 350.474,1435.85 350.324,1435.85 350.173,1435.85 350.02,1435.84 349.867,1435.84 349.713,1435.84 
  349.558,1435.84 349.401,1435.84 349.244,1435.84 349.085,1435.84 348.925,1435.84 348.765,1435.84 348.603,1435.84 348.44,1435.84 348.276,1435.84 348.111,1435.84 
  347.944,1435.84 347.777,1435.84 347.608,1435.84 347.439,1435.84 347.268,1435.84 347.096,1435.84 346.923,1435.84 346.748,1435.83 346.573,1435.83 346.396,1435.83 
  346.218,1435.83 346.039,1435.83 345.858,1435.83 345.677,1435.83 345.494,1435.83 345.31,1435.83 345.124,1435.83 344.938,1435.83 344.75,1435.83 344.561,1435.83 
  344.37,1435.83 344.178,1435.82 343.985,1435.82 343.791,1435.82 343.595,1435.82 343.398,1435.82 343.2,1435.82 343,1435.82 342.799,1435.82 342.597,1435.82 
  342.393,1435.82 342.188,1435.82 341.982,1435.81 341.774,1435.81 341.565,1435.81 341.354,1435.81 341.142,1435.81 340.928,1435.81 340.713,1435.81 340.497,1435.81 
  340.279,1435.8 340.059,1435.8 339.839,1435.8 339.616,1435.8 339.392,1435.8 339.167,1435.8 338.94,1435.8 338.712,1435.8 338.482,1435.79 338.25,1435.79 
  338.017,1435.79 337.783,1435.79 337.547,1435.79 337.309,1435.79 337.07,1435.78 336.829,1435.78 336.586,1435.78 336.342,1435.78 336.097,1435.78 335.849,1435.77 
  335.6,1435.77 335.35,1435.77 335.097,1435.77 334.843,1435.77 334.587,1435.76 334.33,1435.76 334.071,1435.76 333.81,1435.76 333.547,1435.76 333.283,1435.75 
  333.017,1435.75 332.749,1435.75 332.48,1435.75 332.208,1435.74 331.935,1435.74 331.66,1435.74 331.384,1435.74 331.105,1435.73 330.825,1435.73 330.542,1435.73 
  330.258,1435.72 329.972,1435.72 329.684,1435.72 329.395,1435.71 329.103,1435.71 328.809,1435.71 328.514,1435.7 328.217,1435.7 327.917,1435.7 327.616,1435.69 
  327.313,1435.69 327.008,1435.69 326.701,1435.68 326.391,1435.68 326.08,1435.67 325.767,1435.67 325.452,1435.67 325.135,1435.66 324.815,1435.66 324.494,1435.65 
  324.171,1435.65 323.845,1435.64 323.518,1435.64 323.188,1435.63 322.856,1435.63 322.522,1435.62 322.186,1435.62 321.848,1435.61 321.508,1435.61 321.166,1435.6 
  320.821,1435.59 320.474,1435.59 320.125,1435.58 319.774,1435.58 319.42,1435.57 319.065,1435.56 318.707,1435.56 318.347,1435.55 317.984,1435.54 317.62,1435.53 
  317.253,1435.53 316.884,1435.52 316.512,1435.51 316.138,1435.5 315.762,1435.5 315.384,1435.49 315.003,1435.48 314.62,1435.47 314.234,1435.46 313.847,1435.45 
  313.456,1435.44 313.064,1435.44 312.669,1435.43 312.271,1435.42 311.872,1435.41 311.469,1435.4 311.065,1435.38 310.658,1435.37 310.248,1435.36 309.836,1435.35 
  309.422,1435.34 309.005,1435.33 308.585,1435.32 308.163,1435.3 307.739,1435.29 307.312,1435.28 306.883,1435.27 306.451,1435.25 306.016,1435.24 305.579,1435.22 
  305.14,1435.21 304.698,1435.2 304.253,1435.18 303.806,1435.16 303.356,1435.15 302.904,1435.13 302.449,1435.12 301.992,1435.1 301.532,1435.08 301.069,1435.06 
  300.604,1435.05 300.136,1435.03 299.666,1435.01 299.193,1434.99 298.717,1434.97 298.239,1434.95 297.758,1434.93 297.275,1434.91 296.789,1434.89 296.3,1434.86 
  295.809,1434.84 295.315,1434.82 294.819,1434.79 294.32,1434.77 293.818,1434.74 293.314,1434.72 292.807,1434.69 292.297,1434.66 291.785,1434.64 291.27,1434.61 
  290.753,1434.58 290.233,1434.55 289.71,1434.52 289.185,1434.49 288.657,1434.46 288.127,1434.43 287.594,1434.39 287.059,1434.36 286.521,1434.33 285.98,1434.29 
  285.437,1434.25 284.892,1434.22 284.343,1434.18 283.793,1434.14 283.24,1434.1 282.684,1434.06 282.126,1434.02 281.566,1433.98 281.003,1433.93 280.438,1433.89 
  279.87,1433.84 279.3,1433.79 278.727,1433.75 278.153,1433.7 277.576,1433.65 276.996,1433.6 276.415,1433.54 275.831,1433.49 275.245,1433.43 274.656,1433.38 
  274.066,1433.32 273.474,1433.26 272.879,1433.2 272.282,1433.14 271.683,1433.07 271.083,1433.01 270.48,1432.94 269.875,1432.87 269.269,1432.81 268.661,1432.73 
  268.05,1432.66 267.439,1432.59 266.825,1432.51 266.21,1432.43 265.593,1432.35 264.974,1432.27 264.355,1432.18 263.733,1432.1 263.11,1432.01 262.486,1431.92 
  261.861,1431.82 261.234,1431.73 260.606,1431.63 259.978,1431.53 259.348,1431.43 258.717,1431.32 258.085,1431.22 257.453,1431.11 256.82,1430.99 256.186,1430.88 
  255.552,1430.76 254.917,1430.64 254.282,1430.52 253.646,1430.39 253.011,1430.26 252.375,1430.13 251.74,1429.99 251.104,1429.85 250.469,1429.71 249.834,1429.56 
  249.2,1429.41 248.566,1429.25 247.933,1429.1 247.301,1428.94 246.669,1428.77 246.039,1428.6 245.41,1428.43 244.783,1428.25 244.157,1428.06 243.532,1427.88 
  242.91,1427.69 242.29,1427.49 241.671,1427.29 241.055,1427.08 240.442,1426.87 239.831,1426.65 239.224,1426.43 238.619,1426.2 238.017,1425.97 237.419,1425.73 
  236.825,1425.49 236.235,1425.24 235.649,1424.98 235.067,1424.71 234.489,1424.44 233.917,1424.17 233.35,1423.88 232.788,1423.59 232.231,1423.29 231.681,1422.99 
  231.136,1422.67 230.598,1422.35 230.067,1422.02 229.543,1421.69 229.026,1421.34 228.517,1420.98 228.015,1420.62 227.522,1420.25 227.038,1419.87 226.563,1419.47 
  226.097,1419.07 225.641,1418.66 225.195,1418.24 224.759,1417.8 224.335,1417.36 223.922,1416.91 223.52,1416.44 223.131,1415.96 222.755,1415.47 222.392,1414.97 
  222.042,1414.45 221.707,1413.92 221.386,1413.38 221.08,1412.82 220.79,1412.25 220.517,1411.67 220.26,1411.07 220.021,1410.45 219.799,1409.82 219.597,1409.17 
  219.413,1408.51 219.249,1407.83 219.106,1407.13 218.985,1406.42 218.885,1405.68 218.808,1404.93 218.754,1404.16 218.724,1403.36 218.719,1402.55 218.74,1401.72 
  218.788,1400.86 218.863,1399.99 218.966,1399.09 219.099,1398.17 219.261,1397.22 219.455,1396.25 219.681,1395.26 219.939,1394.23 220.232,1393.19 220.559,1392.11 
  220.923,1391.01 221.324,1389.88 221.764,1388.72 222.242,1387.53 222.762,1386.31 223.324,1385.06 223.928,1383.77 224.578,1382.46 225.273,1381.11 226.015,1379.72 
  226.806,1378.3 227.647,1376.84 228.539,1375.34 229.485,1373.8 230.485,1372.23 231.541,1370.61 232.655,1368.95 233.829,1367.25 235.064,1365.51 236.362,1363.71 
  237.724,1361.88 239.154,1359.99 240.652,1358.06 242.22,1356.07 243.861,1354.04 245.577,1351.95 247.37,1349.81 249.242,1347.61 251.195,1345.35 253.232,1343.04 
  255.354,1340.67 257.565,1338.23 259.867,1335.73 262.263,1333.17 264.754,1330.54 267.344,1327.84 270.036,1325.07 272.832,1322.23 275.736,1319.32 278.75,1316.33 
  281.877,1313.26 285.121,1310.12 288.485,1306.89 291.971,1303.58 295.585,1300.19 299.328,1296.71 303.205,1293.13 307.22,1289.47 311.375,1285.71 315.676,1281.85 
  320.125,1277.9 324.728,1273.84 329.488,1269.68 334.41,1265.42 339.498,1261.04 344.756,1256.55 350.189,1251.95 355.803,1247.23 361.601,1242.39 367.59,1237.43 
  373.773,1232.34 380.157,1227.12 386.747,1221.77 393.548,1216.29 400.566,1210.66 407.807,1204.9 415.277,1198.99 422.983,1192.93 430.929,1186.72 439.124,1180.36 
  447.573,1173.83 456.284,1167.15 465.263,1160.3 474.517,1153.28 484.054,1146.08 493.882,1138.71 504.008,1131.16 514.44,1123.43 525.186,1115.5 536.255,1107.39 
  547.654,1099.08 559.394,1090.56 571.481,1081.85 583.927,1072.92 596.74,1063.79 609.93,1054.43 623.506,1044.86 637.479,1035.06 651.86,1025.04 666.658,1014.78 
  681.884,1004.28 697.55,993.542 713.667,982.56 730.247,971.329 747.301,959.846 764.842,948.105 782.882,936.105 801.434,923.84 820.51,911.307 840.125,898.503 
  860.292,885.425 881.025,872.068 902.338,858.431 924.246,844.509 946.763,830.301 969.905,815.804 993.687,801.015 1018.13,785.933 1043.24,770.556 1069.04,754.882 
  1095.54,738.911 1122.77,722.642 1150.74,706.074 1179.47,689.207 1208.98,672.043 1239.28,654.583 1270.4,636.827 1302.35,618.78 1335.15,600.442 1368.83,581.82 
  1403.41,562.915 1438.89,543.735 1475.32,524.285 1512.7,504.573 1551.07,484.606 1590.43,464.393 1630.82,443.945 1672.26,423.274 1714.77,402.393 1758.38,381.315 
  1803.1,360.057 1848.96,338.637 1896,317.072 1944.22,295.386 1993.66,273.599 2044.35,251.739 2096.3,229.831 2149.54,207.906 2204.11,185.996 2260.02,164.136 
  
  "/>
<polygon clip-path="url(#clip7601)" points="
1958.43,330.464 2249.26,330.464 2249.26,209.504 1958.43,209.504 
  " fill="#ffffff" fill-rule="evenodd" fill-opacity="1"/>
<polyline clip-path="url(#clip7601)" style="stroke:#000000; stroke-width:4; stroke-opacity:1; fill:none" points="
  1958.43,330.464 2249.26,330.464 2249.26,209.504 1958.43,209.504 1958.43,330.464 
  "/>
<polyline clip-path="url(#clip7601)" style="stroke:#009af9; stroke-width:6; stroke-opacity:1; fill:none" points="
  1982.43,269.984 2126.43,269.984 
  "/>
<g clip-path="url(#clip7601)">
<text style="fill:#000000; fill-opacity:1; font-family:Arial,Helvetica Neue,Helvetica,sans-serif; font-size:48px; text-anchor:start;" transform="rotate(0, 2150.43, 287.484)" x="2150.43" y="287.484">y1</text>
</g>
</svg>
