<?xml version="1.0" encoding="utf-8"?>
<svg xmlns="http://www.w3.org/2000/svg" xmlns:xlink="http://www.w3.org/1999/xlink" width="600" height="400" viewBox="0 0 600 400">
<defs>
  <clipPath id="clip9200">
    <rect x="0" y="0" width="600" height="400"/>
  </clipPath>
</defs>
<polygon clip-path="url(#clip9200)" points="
0,400 600,400 600,0 0,0 
  " fill="#ffffff" fill-opacity="1"/>
<defs>
  <clipPath id="clip9201">
    <rect x="120" y="0" width="421" height="400"/>
  </clipPath>
</defs>
<polygon clip-path="url(#clip9200)" points="
23.622,384.252 580.315,384.252 580.315,11.811 23.622,11.811 
  " fill="#ffffff" fill-opacity="1"/>
<defs>
  <clipPath id="clip9202">
    <rect x="23" y="11" width="558" height="373"/>
  </clipPath>
</defs>
<polyline clip-path="url(#clip9202)" style="stroke:#000000; stroke-width:0.5; stroke-opacity:0.1; fill:none" points="
  47.5079,384.252 47.5079,11.811 
  "/>
<polyline clip-path="url(#clip9202)" style="stroke:#000000; stroke-width:0.5; stroke-opacity:0.1; fill:none" points="
  128.832,384.252 128.832,11.811 
  "/>
<polyline clip-path="url(#clip9202)" style="stroke:#000000; stroke-width:0.5; stroke-opacity:0.1; fill:none" points="
  210.157,384.252 210.157,11.811 
  "/>
<polyline clip-path="url(#clip9202)" style="stroke:#000000; stroke-width:0.5; stroke-opacity:0.1; fill:none" points="
  291.481,384.252 291.481,11.811 
  "/>
<polyline clip-path="url(#clip9202)" style="stroke:#000000; stroke-width:0.5; stroke-opacity:0.1; fill:none" points="
  372.805,384.252 372.805,11.811 
  "/>
<polyline clip-path="url(#clip9202)" style="stroke:#000000; stroke-width:0.5; stroke-opacity:0.1; fill:none" points="
  454.13,384.252 454.13,11.811 
  "/>
<polyline clip-path="url(#clip9202)" style="stroke:#000000; stroke-width:0.5; stroke-opacity:0.1; fill:none" points="
  535.454,384.252 535.454,11.811 
  "/>
<polyline clip-path="url(#clip9202)" style="stroke:#000000; stroke-width:0.5; stroke-opacity:0.1; fill:none" points="
  23.622,372.462 580.315,372.462 
  "/>
<polyline clip-path="url(#clip9202)" style="stroke:#000000; stroke-width:0.5; stroke-opacity:0.1; fill:none" points="
  23.622,275.466 580.315,275.466 
  "/>
<polyline clip-path="url(#clip9202)" style="stroke:#000000; stroke-width:0.5; stroke-opacity:0.1; fill:none" points="
  23.622,178.469 580.315,178.469 
  "/>
<polyline clip-path="url(#clip9202)" style="stroke:#000000; stroke-width:0.5; stroke-opacity:0.1; fill:none" points="
  23.622,81.4727 580.315,81.4727 
  "/>
<polyline clip-path="url(#clip9200)" style="stroke:#000000; stroke-width:1; stroke-opacity:1; fill:none" points="
  23.622,384.252 580.315,384.252 
  "/>
<polyline clip-path="url(#clip9200)" style="stroke:#000000; stroke-width:1; stroke-opacity:1; fill:none" points="
  23.622,384.252 23.622,11.811 
  "/>
<polyline clip-path="url(#clip9200)" style="stroke:#000000; stroke-width:1; stroke-opacity:1; fill:none" points="
  47.5079,384.252 47.5079,378.665 
  "/>
<polyline clip-path="url(#clip9200)" style="stroke:#000000; stroke-width:1; stroke-opacity:1; fill:none" points="
  128.832,384.252 128.832,378.665 
  "/>
<polyline clip-path="url(#clip9200)" style="stroke:#000000; stroke-width:1; stroke-opacity:1; fill:none" points="
  210.157,384.252 210.157,378.665 
  "/>
<polyline clip-path="url(#clip9200)" style="stroke:#000000; stroke-width:1; stroke-opacity:1; fill:none" points="
  291.481,384.252 291.481,378.665 
  "/>
<polyline clip-path="url(#clip9200)" style="stroke:#000000; stroke-width:1; stroke-opacity:1; fill:none" points="
  372.805,384.252 372.805,378.665 
  "/>
<polyline clip-path="url(#clip9200)" style="stroke:#000000; stroke-width:1; stroke-opacity:1; fill:none" points="
  454.13,384.252 454.13,378.665 
  "/>
<polyline clip-path="url(#clip9200)" style="stroke:#000000; stroke-width:1; stroke-opacity:1; fill:none" points="
  535.454,384.252 535.454,378.665 
  "/>
<polyline clip-path="url(#clip9200)" style="stroke:#000000; stroke-width:1; stroke-opacity:1; fill:none" points="
  23.622,372.462 31.9724,372.462 
  "/>
<polyline clip-path="url(#clip9200)" style="stroke:#000000; stroke-width:1; stroke-opacity:1; fill:none" points="
  23.622,275.466 31.9724,275.466 
  "/>
<polyline clip-path="url(#clip9200)" style="stroke:#000000; stroke-width:1; stroke-opacity:1; fill:none" points="
  23.622,178.469 31.9724,178.469 
  "/>
<polyline clip-path="url(#clip9200)" style="stroke:#000000; stroke-width:1; stroke-opacity:1; fill:none" points="
  23.622,81.4727 31.9724,81.4727 
  "/>
<g clip-path="url(#clip9200)">
<text style="fill:#000000; fill-opacity:1; font-family:Arial,Helvetica Neue,Helvetica,sans-serif; font-size:12; text-anchor:middle;" transform="rotate(0, 47.5079, 398.052)" x="47.5079" y="398.052">0</text>
</g>
<g clip-path="url(#clip9200)">
<text style="fill:#000000; fill-opacity:1; font-family:Arial,Helvetica Neue,Helvetica,sans-serif; font-size:12; text-anchor:middle;" transform="rotate(0, 128.832, 398.052)" x="128.832" y="398.052">20</text>
</g>
<g clip-path="url(#clip9200)">
<text style="fill:#000000; fill-opacity:1; font-family:Arial,Helvetica Neue,Helvetica,sans-serif; font-size:12; text-anchor:middle;" transform="rotate(0, 210.157, 398.052)" x="210.157" y="398.052">40</text>
</g>
<g clip-path="url(#clip9200)">
<text style="fill:#000000; fill-opacity:1; font-family:Arial,Helvetica Neue,Helvetica,sans-serif; font-size:12; text-anchor:middle;" transform="rotate(0, 291.481, 398.052)" x="291.481" y="398.052">60</text>
</g>
<g clip-path="url(#clip9200)">
<text style="fill:#000000; fill-opacity:1; font-family:Arial,Helvetica Neue,Helvetica,sans-serif; font-size:12; text-anchor:middle;" transform="rotate(0, 372.805, 398.052)" x="372.805" y="398.052">80</text>
</g>
<g clip-path="url(#clip9200)">
<text style="fill:#000000; fill-opacity:1; font-family:Arial,Helvetica Neue,Helvetica,sans-serif; font-size:12; text-anchor:middle;" transform="rotate(0, 454.13, 398.052)" x="454.13" y="398.052">100</text>
</g>
<g clip-path="url(#clip9200)">
<text style="fill:#000000; fill-opacity:1; font-family:Arial,Helvetica Neue,Helvetica,sans-serif; font-size:12; text-anchor:middle;" transform="rotate(0, 535.454, 398.052)" x="535.454" y="398.052">120</text>
</g>
<g clip-path="url(#clip9200)">
<text style="fill:#000000; fill-opacity:1; font-family:Arial,Helvetica Neue,Helvetica,sans-serif; font-size:12; text-anchor:end;" transform="rotate(0, 17.622, 376.962)" x="17.622" y="376.962">0</text>
</g>
<g clip-path="url(#clip9200)">
<text style="fill:#000000; fill-opacity:1; font-family:Arial,Helvetica Neue,Helvetica,sans-serif; font-size:12; text-anchor:end;" transform="rotate(0, 17.622, 279.966)" x="17.622" y="279.966">1000</text>
</g>
<g clip-path="url(#clip9200)">
<text style="fill:#000000; fill-opacity:1; font-family:Arial,Helvetica Neue,Helvetica,sans-serif; font-size:12; text-anchor:end;" transform="rotate(0, 17.622, 182.969)" x="17.622" y="182.969">2000</text>
</g>
<g clip-path="url(#clip9200)">
<text style="fill:#000000; fill-opacity:1; font-family:Arial,Helvetica Neue,Helvetica,sans-serif; font-size:12; text-anchor:end;" transform="rotate(0, 17.622, 85.9727)" x="17.622" y="85.9727">3000</text>
</g>
<polyline clip-path="url(#clip9202)" style="stroke:#cc1414; stroke-width:1; stroke-opacity:1; fill:none" points="
  51.57,372.466 51.5697,372.466 51.5694,372.467 51.569,372.467 51.5686,372.467 51.5681,372.467 51.5677,372.467 51.5671,372.468 51.5666,372.468 51.566,372.468 
  51.5653,372.468 51.5646,372.468 51.5639,372.469 51.563,372.469 51.5622,372.469 51.5612,372.469 51.5602,372.47 51.5591,372.47 51.5579,372.47 51.5566,372.47 
  51.5551,372.471 51.5536,372.471 51.552,372.471 51.5502,372.472 51.5483,372.472 51.5463,372.473 51.544,372.473 51.5416,372.473 51.539,372.474 51.5362,372.474 
  51.5332,372.475 51.5299,372.475 51.5264,372.476 51.5226,372.476 51.5185,372.477 51.5141,372.477 51.5093,372.478 51.5041,372.478 51.4985,372.479 51.4925,372.48 
  51.4861,372.48 51.4791,372.481 51.4715,372.482 51.4634,372.482 51.4546,372.483 51.4451,372.484 51.4349,372.485 51.4239,372.486 51.412,372.487 51.3992,372.488 
  51.3855,372.488 51.3706,372.489 51.3546,372.49 51.3374,372.491 51.3188,372.493 51.2989,372.494 51.2774,372.495 51.2543,372.496 51.2294,372.497 51.2027,372.498 
  51.174,372.5 51.1432,372.501 51.1101,372.502 51.0745,372.504 51.0364,372.505 50.9955,372.507 50.9517,372.508 50.9049,372.509 50.8547,372.511 50.8011,372.513 
  50.7438,372.514 50.6826,372.516 50.6174,372.517 50.5479,372.519 50.4739,372.52 50.3953,372.522 50.3119,372.523 50.2235,372.525 50.1299,372.526 50.031,372.528 
  49.9267,372.529 49.8169,372.531 49.7015,372.532 49.5805,372.533 49.4539,372.534 49.322,372.535 49.1846,372.536 49.0422,372.537 48.895,372.537 48.7434,372.538 
  48.5878,372.538 48.4288,372.538 48.2671,372.538 48.1035,372.537 47.9387,372.536 47.7739,372.535 47.61,372.534 47.4482,372.532 47.2898,372.531 47.1361,372.529 
  46.9884,372.526 46.848,372.523 46.7163,372.521 46.5947,372.517 46.4844,372.514 46.3864,372.511 46.3017,372.507 46.2313,372.503 46.1755,372.499 46.1349,372.495 
  46.1094,372.491 46.099,372.488 46.1031,372.484 46.1211,372.48 46.152,372.477 46.1946,372.474 46.2475,372.471 46.3092,372.468 46.3781,372.466 46.4526,372.463 
  46.5309,372.462 46.6114,372.46 46.6926,372.459 46.773,372.458 46.8516,372.457 46.9271,372.456 46.9987,372.456 47.0658,372.456 47.1278,372.456 47.1845,372.456 
  47.2358,372.456 47.2816,372.456 47.322,372.457 47.3574,372.457 47.3879,372.457 47.414,372.458 47.4361,372.458 47.4546,372.459 47.4698,372.459 47.4822,372.459 
  47.4921,372.46 47.5,372.46 47.506,372.46 47.5106,372.461 47.514,372.461 47.5164,372.461 47.5179,372.461 47.5188,372.461 47.5193,372.461 47.5193,372.462 
  47.5191,372.462 47.5187,372.462 47.5181,372.462 47.5175,372.462 47.5168,372.462 47.5161,372.462 47.5154,372.462 47.5147,372.462 47.514,372.462 47.5134,372.462 
  47.5128,372.462 47.5123,372.462 47.5118,372.462 47.5113,372.462 47.5109,372.462 47.5106,372.462 47.5102,372.462 47.51,372.462 47.5097,372.462 47.5095,372.462 
  47.5093,372.462 47.5091,372.462 47.5089,372.462 47.5088,372.462 47.5087,372.462 47.5086,372.462 47.5085,372.462 47.5084,372.462 47.5083,372.462 47.5083,372.462 
  47.5082,372.462 47.5082,372.462 47.5081,372.462 47.5081,372.462 47.5081,372.462 47.5081,372.462 47.508,372.462 47.508,372.462 47.508,372.462 47.508,372.462 
  47.508,372.462 47.508,372.462 47.508,372.462 47.5079,372.462 47.5079,372.462 47.5079,372.462 47.5079,372.462 47.5079,372.462 47.5079,372.462 47.5079,372.462 
  47.5079,372.462 47.5079,372.462 47.5079,372.462 47.5079,372.462 47.5079,372.462 47.5079,372.462 47.5079,372.462 47.5079,372.462 47.5079,372.462 47.5079,372.462 
  47.5079,372.462 47.5079,372.462 47.5079,372.462 47.5079,372.462 47.5079,372.462 47.5079,372.462 47.5079,372.462 47.5079,372.462 47.5079,372.462 47.5079,372.462 
  47.5079,372.462 47.5079,372.462 47.5079,372.462 47.5079,372.462 47.5079,372.462 47.5079,372.462 47.5079,372.462 47.5079,372.462 47.5079,372.462 47.5079,372.462 
  47.5079,372.462 47.5079,372.462 47.5079,372.462 47.5079,372.462 47.5079,372.462 47.5079,372.462 47.5079,372.462 47.5079,372.462 47.5079,372.462 47.5079,372.462 
  
  "/>
<polyline clip-path="url(#clip9202)" style="stroke:#14cc2a; stroke-width:1; stroke-opacity:1; fill:none" points="
  564.56,22.3518 564.542,35.6092 564.522,48.3662 564.501,60.6419 564.479,72.4544 564.454,83.8214 564.428,94.7596 564.4,105.285 564.369,115.414 564.336,125.161 
  564.3,134.541 564.261,143.568 564.22,152.254 564.175,160.613 564.126,168.658 564.073,176.4 564.017,183.851 563.955,191.021 563.889,197.923 563.817,204.564 
  563.74,210.957 563.657,217.11 563.567,223.031 563.469,228.731 563.364,234.218 563.251,239.499 563.128,244.582 562.996,249.476 562.853,254.187 562.699,258.722 
  562.532,263.088 562.352,267.292 562.158,271.339 561.949,275.237 561.722,278.989 561.478,282.603 561.214,286.084 560.93,289.436 560.622,292.664 560.291,295.774 
  559.933,298.77 559.547,301.657 559.13,304.438 558.68,307.118 558.195,309.701 557.671,312.19 557.107,314.59 556.498,316.903 555.841,319.134 555.132,321.285 
  554.368,323.36 553.545,325.362 552.657,327.293 551.7,329.157 550.669,330.956 549.558,332.693 548.362,334.37 547.073,335.991 545.686,337.556 544.193,339.068 
  542.586,340.53 540.857,341.944 538.998,343.311 536.999,344.633 534.851,345.913 532.543,347.152 530.065,348.351 527.406,349.513 524.553,350.638 521.494,351.728 
  518.216,352.785 514.706,353.81 510.95,354.804 506.933,355.768 502.641,356.703 498.058,357.61 493.17,358.49 487.961,359.344 482.415,360.172 476.518,360.975 
  470.256,361.754 463.613,362.509 456.576,363.241 449.134,363.949 441.276,364.634 432.992,365.296 424.275,365.935 415.12,366.551 405.527,367.143 395.495,367.712 
  385.031,368.258 374.143,368.779 362.845,369.275 351.155,369.747 339.097,370.193 326.7,370.613 313.999,371.007 301.033,371.374 287.85,371.714 274.5,372.026 
  261.041,372.31 247.533,372.567 234.043,372.796 220.639,372.998 207.392,373.172 194.373,373.32 181.653,373.443 169.303,373.54 157.389,373.614 145.973,373.667 
  135.111,373.698 124.851,373.711 115.233,373.707 106.288,373.688 98.0378,373.657 90.4931,373.614 83.655,373.562 77.5145,373.504 72.0539,373.44 67.247,373.373 
  63.0608,373.304 59.4563,373.234 56.3902,373.166 53.816,373.099 51.6859,373.035 49.9512,372.974 48.5643,372.918 47.4794,372.865 46.6529,372.816 46.0446,372.772 
  45.6176,372.732 45.3391,372.696 45.1798,372.664 45.1144,372.635 45.1213,372.611 45.182,372.589 45.2814,372.57 45.4072,372.554 45.5493,372.539 45.6999,372.527 
  45.8532,372.517 46.0045,372.508 46.1506,372.501 46.2893,372.495 46.4192,372.489 46.5394,372.485 46.6496,372.481 46.7498,372.478 46.8404,372.475 46.9217,372.473 
  46.9943,372.471 47.0589,372.47 47.1161,372.468 47.1667,372.467 47.2111,372.467 47.2502,372.466 47.2843,372.465 47.3142,372.465 47.3402,372.464 47.3629,372.464 
  47.3826,372.464 47.3997,372.464 47.4145,372.463 47.4274,372.463 47.4385,372.463 47.4481,372.463 47.4564,372.463 47.4636,372.463 47.4698,372.463 47.4751,372.463 
  47.4797,372.463 47.4837,372.463 47.4871,372.463 47.49,372.463 47.4925,372.463 47.4947,372.463 47.4966,372.462 47.4982,372.462 47.4995,372.462 47.5007,372.462 
  47.5017,372.462 47.5026,372.462 47.5034,372.462 47.504,372.462 47.5046,372.462 47.505,372.462 47.5054,372.462 47.5058,372.462 47.5061,372.462 47.5063,372.462 
  47.5066,372.462 47.5068,372.462 47.5069,372.462 47.5071,372.462 47.5072,372.462 47.5073,372.462 47.5074,372.462 47.5074,372.462 47.5075,372.462 47.5076,372.462 
  47.5076,372.462 47.5077,372.462 47.5077,372.462 47.5077,372.462 47.5077,372.462 47.5078,372.462 47.5078,372.462 47.5078,372.462 47.5078,372.462 47.5078,372.462 
  47.5078,372.462 47.5078,372.462 47.5079,372.462 47.5079,372.462 47.5079,372.462 47.5079,372.462 47.5079,372.462 47.5079,372.462 47.5079,372.462 47.5079,372.462 
  47.5079,372.462 47.5079,372.462 47.5079,372.462 47.5079,372.462 47.5079,372.462 47.5079,372.462 47.5079,372.462 47.5079,372.462 47.5079,372.462 47.5079,372.462 
  47.5079,372.462 47.5079,372.462 47.5079,372.462 47.5079,372.462 47.5079,372.462 47.5079,372.462 47.5079,372.462 47.5079,372.462 47.5079,372.462 47.5079,372.462 
  
  "/>
<polyline clip-path="url(#clip9202)" style="stroke:#000000; stroke-width:1; stroke-opacity:1; fill:none" stroke-dasharray="8, 5" points="
  51.5741,372.462 51.5659,372.456 51.5414,372.45 51.5006,372.444 51.4438,372.438 51.3711,372.432 51.2828,372.426 51.1794,372.421 51.0612,372.415 50.9286,372.41 
  50.7823,372.405 50.6228,372.4 50.4508,372.395 50.2669,372.391 50.0719,372.387 49.8665,372.383 49.6517,372.38 49.4283,372.377 49.1971,372.374 48.9591,372.372 
  48.7152,372.37 48.4665,372.368 48.214,372.367 47.9586,372.366 47.7014,372.366 47.4434,372.365 47.1856,372.366 46.9292,372.366 46.6751,372.367 46.4244,372.369 
  46.178,372.371 45.9369,372.373 45.7022,372.376 45.4748,372.378 45.2555,372.382 45.0454,372.385 44.8451,372.389 44.6555,372.393 44.4775,372.398 44.3116,372.402 
  44.1586,372.407 44.0191,372.413 43.8937,372.418 43.7828,372.424 43.6869,372.429 43.6064,372.435 43.5416,372.441 43.4928,372.447 43.4601,372.453 43.4437,372.459 
  43.4437,372.466 43.4601,372.472 43.4928,372.478 43.5416,372.484 43.6064,372.49 43.6869,372.496 43.7828,372.501 43.8937,372.507 44.0191,372.512 44.1586,372.517 
  44.3116,372.522 44.4775,372.527 44.6555,372.532 44.8451,372.536 45.0454,372.54 45.2555,372.543 45.4748,372.546 45.7022,372.549 45.9369,372.552 46.178,372.554 
  46.4244,372.556 46.6751,372.557 46.9292,372.558 47.1856,372.559 47.4434,372.559 47.7014,372.559 47.9586,372.559 48.214,372.558 48.4665,372.557 48.7152,372.555 
  48.9591,372.553 49.1971,372.551 49.4283,372.548 49.6517,372.545 49.8665,372.541 50.0719,372.538 50.2669,372.534 50.4508,372.529 50.6228,372.525 50.7823,372.52 
  50.9286,372.515 51.0612,372.51 51.1794,372.504 51.2828,372.498 51.3711,372.493 51.4438,372.487 51.5006,372.481 51.5414,372.475 51.5659,372.469 51.5741,372.462 
  
  "/>
<polyline clip-path="url(#clip9202)" style="stroke:#000000; stroke-width:1; stroke-opacity:1; fill:none" stroke-dasharray="8, 5" points="
  47.5079,372.462 47.4997,372.456 47.4752,372.45 47.4344,372.444 47.3776,372.438 47.3049,372.432 47.2166,372.426 47.1132,372.421 46.9949,372.415 46.8624,372.41 
  46.7161,372.405 46.5566,372.4 46.3845,372.395 46.2006,372.391 46.0056,372.387 45.8003,372.383 45.5855,372.38 45.362,372.377 45.1308,372.374 44.8929,372.372 
  44.649,372.37 44.4003,372.368 44.1478,372.367 43.8924,372.366 43.6352,372.366 43.3772,372.365 43.1194,372.366 42.863,372.366 42.6089,372.367 42.3581,372.369 
  42.1117,372.371 41.8707,372.373 41.636,372.376 41.4086,372.378 41.1893,372.382 40.9791,372.385 40.7789,372.389 40.5893,372.393 40.4113,372.398 40.2454,372.402 
  40.0924,372.407 39.9529,372.413 39.8275,372.418 39.7166,372.424 39.6207,372.429 39.5402,372.435 39.4754,372.441 39.4265,372.447 39.3939,372.453 39.3775,372.459 
  39.3775,372.466 39.3939,372.472 39.4265,372.478 39.4754,372.484 39.5402,372.49 39.6207,372.496 39.7166,372.501 39.8275,372.507 39.9529,372.512 40.0924,372.517 
  40.2454,372.522 40.4113,372.527 40.5893,372.532 40.7789,372.536 40.9791,372.54 41.1893,372.543 41.4086,372.546 41.636,372.549 41.8707,372.552 42.1117,372.554 
  42.3581,372.556 42.6089,372.557 42.863,372.558 43.1194,372.559 43.3772,372.559 43.6352,372.559 43.8924,372.559 44.1478,372.558 44.4003,372.557 44.649,372.555 
  44.8929,372.553 45.1308,372.551 45.362,372.548 45.5855,372.545 45.8003,372.541 46.0056,372.538 46.2006,372.534 46.3845,372.529 46.5566,372.525 46.7161,372.52 
  46.8624,372.515 46.9949,372.51 47.1132,372.504 47.2166,372.498 47.3049,372.493 47.3776,372.487 47.4344,372.481 47.4752,372.475 47.4997,372.469 47.5079,372.462 
  
  "/>
<polygon clip-path="url(#clip9200)" points="
487.517,78.051 562.315,78.051 562.315,32.691 487.517,32.691 
  " fill="#ffffff" fill-opacity="1"/>
<polyline clip-path="url(#clip9200)" style="stroke:#000000; stroke-width:1; stroke-opacity:1; fill:none" points="
  487.517,78.051 562.315,78.051 562.315,32.691 487.517,32.691 487.517,78.051 
  "/>
<polyline clip-path="url(#clip9200)" style="stroke:#cc1414; stroke-width:1; stroke-opacity:1; fill:none" points="
  493.517,47.811 529.517,47.811 
  "/>
<polyline clip-path="url(#clip9200)" style="stroke:#14cc2a; stroke-width:1; stroke-opacity:1; fill:none" points="
  493.517,62.931 529.517,62.931 
  "/>
</svg>
