<?xml version="1.0" encoding="utf-8" standalone="no"?>
<!DOCTYPE svg PUBLIC "-//W3C//DTD SVG 1.1//EN"
  "http://www.w3.org/Graphics/SVG/1.1/DTD/svg11.dtd">
<!-- Created with matplotlib (http://matplotlib.org/) -->
<svg height="288pt" version="1.1" viewBox="0 0 432 288" width="432pt" xmlns="http://www.w3.org/2000/svg" xmlns:xlink="http://www.w3.org/1999/xlink">
 <defs>
  <style type="text/css">
*{stroke-linecap:butt;stroke-linejoin:round;stroke-miterlimit:100000;}
  </style>
 </defs>
 <g id="figure_1">
  <g id="patch_1">
   <path d="M 0 288 
L 432 288 
L 432 0 
L 0 0 
z
" style="fill:#ffffff;"/>
  </g>
  <g id="axes_1">
   <g id="patch_2">
    <path d="M 32.894646 273.965354 
L 429.165354 273.965354 
L 429.165354 18.634646 
L 32.894646 18.634646 
z
" style="fill:#ffffff;"/>
   </g>
   <g id="matplotlib.axis_1">
    <g id="xtick_1">
     <g id="line2d_1">
      <path clip-path="url(#p92ed7c263a)" d="M 32.894646 273.965354 
L 32.894646 18.634646 
" style="fill:none;stroke:#000000;stroke-dasharray:1.000000,3.000000;stroke-dashoffset:0.0;stroke-width:0.5;"/>
     </g>
     <g id="line2d_2">
      <defs>
       <path d="M 0 0 
L 0 -4 
" id="m66ae9894cb" style="stroke:#000000;stroke-width:0.5;"/>
      </defs>
      <g>
       <use style="stroke:#000000;stroke-width:0.5;" x="32.8946456693" xlink:href="#m66ae9894cb" y="273.965354331"/>
      </g>
     </g>
     <g id="line2d_3">
      <defs>
       <path d="M 0 0 
L 0 4 
" id="mdd352188c8" style="stroke:#000000;stroke-width:0.5;"/>
      </defs>
      <g>
       <use style="stroke:#000000;stroke-width:0.5;" x="32.8946456693" xlink:href="#mdd352188c8" y="18.6346456693"/>
      </g>
     </g>
     <g id="text_1">
      <!-- -1 -->
      <defs>
       <path d="M 12.40625 8.296875 
L 28.515625 8.296875 
L 28.515625 63.921875 
L 10.984375 60.40625 
L 10.984375 69.390625 
L 28.421875 72.90625 
L 38.28125 72.90625 
L 38.28125 8.296875 
L 54.390625 8.296875 
L 54.390625 0 
L 12.40625 0 
z
" id="BitstreamVeraSans-Roman-31"/>
       <path d="M 4.890625 31.390625 
L 31.203125 31.390625 
L 31.203125 23.390625 
L 4.890625 23.390625 
z
" id="BitstreamVeraSans-Roman-2d"/>
      </defs>
      <g transform="translate(28.9065206693 284.044104331)scale(0.08 -0.08)">
       <use xlink:href="#BitstreamVeraSans-Roman-2d"/>
       <use x="36.083984375" xlink:href="#BitstreamVeraSans-Roman-31"/>
      </g>
     </g>
    </g>
    <g id="xtick_2">
     <g id="line2d_4">
      <path clip-path="url(#p92ed7c263a)" d="M 141.762651 273.965354 
L 141.762651 18.634646 
" style="fill:none;stroke:#000000;stroke-dasharray:1.000000,3.000000;stroke-dashoffset:0.0;stroke-width:0.5;"/>
     </g>
     <g id="line2d_5">
      <g>
       <use style="stroke:#000000;stroke-width:0.5;" x="141.762650788" xlink:href="#m66ae9894cb" y="273.965354331"/>
      </g>
     </g>
     <g id="line2d_6">
      <g>
       <use style="stroke:#000000;stroke-width:0.5;" x="141.762650788" xlink:href="#mdd352188c8" y="18.6346456693"/>
      </g>
     </g>
     <g id="text_2">
      <!-- 0 -->
      <defs>
       <path d="M 31.78125 66.40625 
Q 24.171875 66.40625 20.328125 58.90625 
Q 16.5 51.421875 16.5 36.375 
Q 16.5 21.390625 20.328125 13.890625 
Q 24.171875 6.390625 31.78125 6.390625 
Q 39.453125 6.390625 43.28125 13.890625 
Q 47.125 21.390625 47.125 36.375 
Q 47.125 51.421875 43.28125 58.90625 
Q 39.453125 66.40625 31.78125 66.40625 
M 31.78125 74.21875 
Q 44.046875 74.21875 50.515625 64.515625 
Q 56.984375 54.828125 56.984375 36.375 
Q 56.984375 17.96875 50.515625 8.265625 
Q 44.046875 -1.421875 31.78125 -1.421875 
Q 19.53125 -1.421875 13.0625 8.265625 
Q 6.59375 17.96875 6.59375 36.375 
Q 6.59375 54.828125 13.0625 64.515625 
Q 19.53125 74.21875 31.78125 74.21875 
" id="BitstreamVeraSans-Roman-30"/>
      </defs>
      <g transform="translate(139.217650788 284.044104331)scale(0.08 -0.08)">
       <use xlink:href="#BitstreamVeraSans-Roman-30"/>
      </g>
     </g>
    </g>
    <g id="xtick_3">
     <g id="line2d_7">
      <path clip-path="url(#p92ed7c263a)" d="M 250.630656 273.965354 
L 250.630656 18.634646 
" style="fill:none;stroke:#000000;stroke-dasharray:1.000000,3.000000;stroke-dashoffset:0.0;stroke-width:0.5;"/>
     </g>
     <g id="line2d_8">
      <g>
       <use style="stroke:#000000;stroke-width:0.5;" x="250.630655907" xlink:href="#m66ae9894cb" y="273.965354331"/>
      </g>
     </g>
     <g id="line2d_9">
      <g>
       <use style="stroke:#000000;stroke-width:0.5;" x="250.630655907" xlink:href="#mdd352188c8" y="18.6346456693"/>
      </g>
     </g>
     <g id="text_3">
      <!-- 1 -->
      <g transform="translate(248.085655907 284.044104331)scale(0.08 -0.08)">
       <use xlink:href="#BitstreamVeraSans-Roman-31"/>
      </g>
     </g>
    </g>
    <g id="xtick_4">
     <g id="line2d_10">
      <path clip-path="url(#p92ed7c263a)" d="M 359.498661 273.965354 
L 359.498661 18.634646 
" style="fill:none;stroke:#000000;stroke-dasharray:1.000000,3.000000;stroke-dashoffset:0.0;stroke-width:0.5;"/>
     </g>
     <g id="line2d_11">
      <g>
       <use style="stroke:#000000;stroke-width:0.5;" x="359.498661026" xlink:href="#m66ae9894cb" y="273.965354331"/>
      </g>
     </g>
     <g id="line2d_12">
      <g>
       <use style="stroke:#000000;stroke-width:0.5;" x="359.498661026" xlink:href="#mdd352188c8" y="18.6346456693"/>
      </g>
     </g>
     <g id="text_4">
      <!-- 2 -->
      <defs>
       <path d="M 19.1875 8.296875 
L 53.609375 8.296875 
L 53.609375 0 
L 7.328125 0 
L 7.328125 8.296875 
Q 12.9375 14.109375 22.625 23.890625 
Q 32.328125 33.6875 34.8125 36.53125 
Q 39.546875 41.84375 41.421875 45.53125 
Q 43.3125 49.21875 43.3125 52.78125 
Q 43.3125 58.59375 39.234375 62.25 
Q 35.15625 65.921875 28.609375 65.921875 
Q 23.96875 65.921875 18.8125 64.3125 
Q 13.671875 62.703125 7.8125 59.421875 
L 7.8125 69.390625 
Q 13.765625 71.78125 18.9375 73 
Q 24.125 74.21875 28.421875 74.21875 
Q 39.75 74.21875 46.484375 68.546875 
Q 53.21875 62.890625 53.21875 53.421875 
Q 53.21875 48.921875 51.53125 44.890625 
Q 49.859375 40.875 45.40625 35.40625 
Q 44.1875 33.984375 37.640625 27.21875 
Q 31.109375 20.453125 19.1875 8.296875 
" id="BitstreamVeraSans-Roman-32"/>
      </defs>
      <g transform="translate(356.953661026 284.044104331)scale(0.08 -0.08)">
       <use xlink:href="#BitstreamVeraSans-Roman-32"/>
      </g>
     </g>
    </g>
   </g>
   <g id="matplotlib.axis_2">
    <g id="ytick_1">
     <g id="line2d_13">
      <path clip-path="url(#p92ed7c263a)" d="M 32.894646 261.806749 
L 429.165354 261.806749 
" style="fill:none;stroke:#000000;stroke-dasharray:1.000000,3.000000;stroke-dashoffset:0.0;stroke-width:0.5;"/>
     </g>
     <g id="line2d_14">
      <defs>
       <path d="M 0 0 
L 4 0 
" id="me5c53e6367" style="stroke:#000000;stroke-width:0.5;"/>
      </defs>
      <g>
       <use style="stroke:#000000;stroke-width:0.5;" x="32.8946456693" xlink:href="#me5c53e6367" y="261.806749156"/>
      </g>
     </g>
     <g id="line2d_15">
      <defs>
       <path d="M 0 0 
L -4 0 
" id="m3901e2b542" style="stroke:#000000;stroke-width:0.5;"/>
      </defs>
      <g>
       <use style="stroke:#000000;stroke-width:0.5;" x="429.165354331" xlink:href="#m3901e2b542" y="261.806749156"/>
      </g>
     </g>
     <g id="text_5">
      <!-- 0 -->
      <g transform="translate(23.8046456693 264.014249156)scale(0.08 -0.08)">
       <use xlink:href="#BitstreamVeraSans-Roman-30"/>
      </g>
     </g>
    </g>
    <g id="ytick_2">
     <g id="line2d_16">
      <path clip-path="url(#p92ed7c263a)" d="M 32.894646 201.013723 
L 429.165354 201.013723 
" style="fill:none;stroke:#000000;stroke-dasharray:1.000000,3.000000;stroke-dashoffset:0.0;stroke-width:0.5;"/>
     </g>
     <g id="line2d_17">
      <g>
       <use style="stroke:#000000;stroke-width:0.5;" x="32.8946456693" xlink:href="#me5c53e6367" y="201.013723285"/>
      </g>
     </g>
     <g id="line2d_18">
      <g>
       <use style="stroke:#000000;stroke-width:0.5;" x="429.165354331" xlink:href="#m3901e2b542" y="201.013723285"/>
      </g>
     </g>
     <g id="text_6">
      <!-- 5 -->
      <defs>
       <path d="M 10.796875 72.90625 
L 49.515625 72.90625 
L 49.515625 64.59375 
L 19.828125 64.59375 
L 19.828125 46.734375 
Q 21.96875 47.46875 24.109375 47.828125 
Q 26.265625 48.1875 28.421875 48.1875 
Q 40.625 48.1875 47.75 41.5 
Q 54.890625 34.8125 54.890625 23.390625 
Q 54.890625 11.625 47.5625 5.09375 
Q 40.234375 -1.421875 26.90625 -1.421875 
Q 22.3125 -1.421875 17.546875 -0.640625 
Q 12.796875 0.140625 7.71875 1.703125 
L 7.71875 11.625 
Q 12.109375 9.234375 16.796875 8.0625 
Q 21.484375 6.890625 26.703125 6.890625 
Q 35.15625 6.890625 40.078125 11.328125 
Q 45.015625 15.765625 45.015625 23.390625 
Q 45.015625 31 40.078125 35.4375 
Q 35.15625 39.890625 26.703125 39.890625 
Q 22.75 39.890625 18.8125 39.015625 
Q 14.890625 38.140625 10.796875 36.28125 
z
" id="BitstreamVeraSans-Roman-35"/>
      </defs>
      <g transform="translate(23.8046456693 203.221223285)scale(0.08 -0.08)">
       <use xlink:href="#BitstreamVeraSans-Roman-35"/>
      </g>
     </g>
    </g>
    <g id="ytick_3">
     <g id="line2d_19">
      <path clip-path="url(#p92ed7c263a)" d="M 32.894646 140.220697 
L 429.165354 140.220697 
" style="fill:none;stroke:#000000;stroke-dasharray:1.000000,3.000000;stroke-dashoffset:0.0;stroke-width:0.5;"/>
     </g>
     <g id="line2d_20">
      <g>
       <use style="stroke:#000000;stroke-width:0.5;" x="32.8946456693" xlink:href="#me5c53e6367" y="140.220697413"/>
      </g>
     </g>
     <g id="line2d_21">
      <g>
       <use style="stroke:#000000;stroke-width:0.5;" x="429.165354331" xlink:href="#m3901e2b542" y="140.220697413"/>
      </g>
     </g>
     <g id="text_7">
      <!-- 10 -->
      <g transform="translate(18.7146456693 142.428197413)scale(0.08 -0.08)">
       <use xlink:href="#BitstreamVeraSans-Roman-31"/>
       <use x="63.623046875" xlink:href="#BitstreamVeraSans-Roman-30"/>
      </g>
     </g>
    </g>
    <g id="ytick_4">
     <g id="line2d_22">
      <path clip-path="url(#p92ed7c263a)" d="M 32.894646 79.427672 
L 429.165354 79.427672 
" style="fill:none;stroke:#000000;stroke-dasharray:1.000000,3.000000;stroke-dashoffset:0.0;stroke-width:0.5;"/>
     </g>
     <g id="line2d_23">
      <g>
       <use style="stroke:#000000;stroke-width:0.5;" x="32.8946456693" xlink:href="#me5c53e6367" y="79.4276715411"/>
      </g>
     </g>
     <g id="line2d_24">
      <g>
       <use style="stroke:#000000;stroke-width:0.5;" x="429.165354331" xlink:href="#m3901e2b542" y="79.4276715411"/>
      </g>
     </g>
     <g id="text_8">
      <!-- 15 -->
      <g transform="translate(18.7146456693 81.6351715411)scale(0.08 -0.08)">
       <use xlink:href="#BitstreamVeraSans-Roman-31"/>
       <use x="63.623046875" xlink:href="#BitstreamVeraSans-Roman-35"/>
      </g>
     </g>
    </g>
    <g id="ytick_5">
     <g id="line2d_25">
      <path clip-path="url(#p92ed7c263a)" d="M 32.894646 18.634646 
L 429.165354 18.634646 
" style="fill:none;stroke:#000000;stroke-dasharray:1.000000,3.000000;stroke-dashoffset:0.0;stroke-width:0.5;"/>
     </g>
     <g id="line2d_26">
      <g>
       <use style="stroke:#000000;stroke-width:0.5;" x="32.8946456693" xlink:href="#me5c53e6367" y="18.6346456693"/>
      </g>
     </g>
     <g id="line2d_27">
      <g>
       <use style="stroke:#000000;stroke-width:0.5;" x="429.165354331" xlink:href="#m3901e2b542" y="18.6346456693"/>
      </g>
     </g>
     <g id="text_9">
      <!-- 20 -->
      <g transform="translate(18.7146456693 20.8421456693)scale(0.08 -0.08)">
       <use xlink:href="#BitstreamVeraSans-Roman-32"/>
       <use x="63.623046875" xlink:href="#BitstreamVeraSans-Roman-30"/>
      </g>
     </g>
    </g>
    <g id="text_10">
     <!-- To: y(1) -->
     <defs>
      <path id="BitstreamVeraSans-Roman-20"/>
      <path d="M 8.015625 75.875 
L 15.828125 75.875 
Q 23.140625 64.359375 26.78125 53.3125 
Q 30.421875 42.28125 30.421875 31.390625 
Q 30.421875 20.453125 26.78125 9.375 
Q 23.140625 -1.703125 15.828125 -13.1875 
L 8.015625 -13.1875 
Q 14.5 -2 17.703125 9.0625 
Q 20.90625 20.125 20.90625 31.390625 
Q 20.90625 42.671875 17.703125 53.65625 
Q 14.5 64.65625 8.015625 75.875 
" id="BitstreamVeraSans-Roman-29"/>
      <path d="M 31 75.875 
Q 24.46875 64.65625 21.28125 53.65625 
Q 18.109375 42.671875 18.109375 31.390625 
Q 18.109375 20.125 21.3125 9.0625 
Q 24.515625 -2 31 -13.1875 
L 23.1875 -13.1875 
Q 15.875 -1.703125 12.234375 9.375 
Q 8.59375 20.453125 8.59375 31.390625 
Q 8.59375 42.28125 12.203125 53.3125 
Q 15.828125 64.359375 23.1875 75.875 
z
" id="BitstreamVeraSans-Roman-28"/>
      <path d="M 30.609375 48.390625 
Q 23.390625 48.390625 19.1875 42.75 
Q 14.984375 37.109375 14.984375 27.296875 
Q 14.984375 17.484375 19.15625 11.84375 
Q 23.34375 6.203125 30.609375 6.203125 
Q 37.796875 6.203125 41.984375 11.859375 
Q 46.1875 17.53125 46.1875 27.296875 
Q 46.1875 37.015625 41.984375 42.703125 
Q 37.796875 48.390625 30.609375 48.390625 
M 30.609375 56 
Q 42.328125 56 49.015625 48.375 
Q 55.71875 40.765625 55.71875 27.296875 
Q 55.71875 13.875 49.015625 6.21875 
Q 42.328125 -1.421875 30.609375 -1.421875 
Q 18.84375 -1.421875 12.171875 6.21875 
Q 5.515625 13.875 5.515625 27.296875 
Q 5.515625 40.765625 12.171875 48.375 
Q 18.84375 56 30.609375 56 
" id="BitstreamVeraSans-Roman-6f"/>
      <path d="M 11.71875 12.40625 
L 22.015625 12.40625 
L 22.015625 0 
L 11.71875 0 
z
M 11.71875 51.703125 
L 22.015625 51.703125 
L 22.015625 39.3125 
L 11.71875 39.3125 
z
" id="BitstreamVeraSans-Roman-3a"/>
      <path d="M -0.296875 72.90625 
L 61.375 72.90625 
L 61.375 64.59375 
L 35.5 64.59375 
L 35.5 0 
L 25.59375 0 
L 25.59375 64.59375 
L -0.296875 64.59375 
z
" id="BitstreamVeraSans-Roman-54"/>
      <path d="M 32.171875 -5.078125 
Q 28.375 -14.84375 24.75 -17.8125 
Q 21.140625 -20.796875 15.09375 -20.796875 
L 7.90625 -20.796875 
L 7.90625 -13.28125 
L 13.1875 -13.28125 
Q 16.890625 -13.28125 18.9375 -11.515625 
Q 21 -9.765625 23.484375 -3.21875 
L 25.09375 0.875 
L 2.984375 54.6875 
L 12.5 54.6875 
L 29.59375 11.921875 
L 46.6875 54.6875 
L 56.203125 54.6875 
z
" id="BitstreamVeraSans-Roman-79"/>
     </defs>
     <g transform="translate(11.4269894193 167.6571875)rotate(-90.0)scale(0.11 -0.11)">
      <use xlink:href="#BitstreamVeraSans-Roman-54"/>
      <use x="60.818359375" xlink:href="#BitstreamVeraSans-Roman-6f"/>
      <use x="122.0" xlink:href="#BitstreamVeraSans-Roman-3a"/>
      <use x="155.69140625" xlink:href="#BitstreamVeraSans-Roman-20"/>
      <use x="187.478515625" xlink:href="#BitstreamVeraSans-Roman-79"/>
      <use x="246.658203125" xlink:href="#BitstreamVeraSans-Roman-28"/>
      <use x="285.671875" xlink:href="#BitstreamVeraSans-Roman-31"/>
      <use x="349.294921875" xlink:href="#BitstreamVeraSans-Roman-29"/>
     </g>
    </g>
   </g>
   <g id="line2d_28">
    <path clip-path="url(#p92ed7c263a)" d="M 250.521826 262.29285 
L 250.195342 262.777996 
L 249.535312 263.344351 
L 248.446556 263.970857 
L 246.903362 264.6206 
L 244.292557 265.446648 
L 240.687217 266.314437 
L 236.234166 267.153205 
L 229.932977 268.08333 
L 223.154332 268.868212 
L 214.469718 269.649587 
L 203.582511 270.367662 
L 193.865786 270.813951 
L 182.842626 271.130753 
L 170.675947 271.26584 
L 157.708526 271.165694 
L 144.496222 270.783851 
L 135.92422 270.357913 
L 127.852801 269.792932 
L 120.569954 269.096036 
L 114.358573 268.28346 
L 109.469102 267.380801 
L 106.089978 266.422097 
L 105.001916 265.934144 
L 104.320513 265.44757 
L 104.041096 264.967793 
L 104.151701 264.50013 
L 104.633246 264.049654 
L 105.459974 263.621051 
L 106.600142 263.21849 
L 109.669667 262.504942 
L 113.507807 261.928408 
L 117.759123 261.49561 
L 124.190512 261.101245 
L 129.926179 260.95912 
L 135.702811 261.022724 
L 139.841064 261.264749 
L 141.835682 261.566913 
L 142.06899 261.706529 
L 142.036744 261.744538 
L 141.762652 261.806749 
L 141.762652 261.806749 
" style="fill:none;stroke:#cc1414;stroke-linecap:round;"/>
   </g>
   <g id="line2d_29">
    <path clip-path="url(#p92ed7c263a)" d="M 428.532501 -1 
L 428.157189 44.943422 
L 427.726231 76.662604 
L 427.140646 103.971819 
L 426.56757 121.953665 
L 425.846977 138.061762 
L 424.941407 152.510661 
L 424.212318 161.31713 
L 423.363977 169.523701 
L 422.377317 177.178473 
L 421.230378 184.32609 
L 419.897924 191.007973 
L 418.351036 197.262507 
L 416.556673 203.125213 
L 414.477226 208.628876 
L 413.317485 211.255591 
L 412.070077 213.80365 
L 410.728824 216.276424 
L 409.287187 218.677121 
L 407.738257 221.008795 
L 406.07475 223.274338 
L 404.289001 225.476483 
L 402.372967 227.617799 
L 400.31823 229.700693 
L 398.116005 231.7274 
L 395.757157 233.699986 
L 393.232223 235.620337 
L 390.531444 237.490156 
L 387.644801 239.310961 
L 384.562069 241.084071 
L 381.272882 242.810604 
L 377.766804 244.491469 
L 374.033426 246.127359 
L 370.062476 247.718739 
L 365.843943 249.265846 
L 361.368231 250.768676 
L 356.626325 252.226981 
L 351.609984 253.640266 
L 346.31196 255.00778 
L 340.726237 256.328523 
L 328.675386 258.824442 
L 315.444486 261.115122 
L 301.059242 263.184174 
L 285.594681 265.012469 
L 269.185555 266.579343 
L 252.035044 267.864305 
L 234.41986 268.84926 
L 216.689502 269.521184 
L 199.257388 269.875027 
L 182.582082 269.916537 
L 167.138009 269.664526 
L 153.376963 269.15203 
L 141.684159 268.425886 
L 132.334943 267.544364 
L 125.459886 266.572899 
L 122.946304 266.074448 
L 121.025877 265.578344 
L 119.669305 265.092119 
L 118.838628 264.62262 
L 118.488509 264.175854 
L 118.567761 263.756869 
L 119.021036 263.369675 
L 119.790604 263.017202 
L 122.046344 262.422806 
L 124.890027 261.976613 
L 129.439295 261.559593 
L 134.72753 261.359267 
L 139.013208 261.41249 
L 141.671786 261.652825 
L 141.914743 261.759706 
L 141.816813 261.800749 
L 141.762652 261.806749 
L 141.762652 261.806749 
" style="fill:none;stroke:#14cc2b;stroke-linecap:round;"/>
   </g>
   <g id="patch_3">
    <path d="M 32.894646 18.634646 
L 429.165354 18.634646 
" style="fill:none;stroke:#000000;stroke-linecap:square;stroke-linejoin:miter;"/>
   </g>
   <g id="patch_4">
    <path d="M 429.165354 273.965354 
L 429.165354 18.634646 
" style="fill:none;stroke:#000000;stroke-linecap:square;stroke-linejoin:miter;"/>
   </g>
   <g id="patch_5">
    <path d="M 32.894646 273.965354 
L 429.165354 273.965354 
" style="fill:none;stroke:#000000;stroke-linecap:square;stroke-linejoin:miter;"/>
   </g>
   <g id="patch_6">
    <path d="M 32.894646 273.965354 
L 32.894646 18.634646 
" style="fill:none;stroke:#000000;stroke-linecap:square;stroke-linejoin:miter;"/>
   </g>
   <g id="line2d_30">
    <path clip-path="url(#p92ed7c263a)" d="M 250.630656 261.806749 
L 250.411469 261.035603 
L 249.754792 260.267561 
L 248.663269 259.505718 
L 247.141295 258.75314 
L 245.194998 258.012858 
L 242.832216 257.287852 
L 240.062462 256.581043 
L 236.896889 255.895275 
L 233.348245 255.233311 
L 229.430817 254.597816 
L 225.160381 253.991348 
L 220.554132 253.416351 
L 215.630617 252.875139 
L 210.409662 252.369891 
L 204.912289 251.902642 
L 199.160636 251.475273 
L 193.177861 251.089506 
L 186.988055 250.746893 
L 180.616142 250.448814 
L 174.08778 250.19647 
L 167.429256 249.990876 
L 160.667381 249.832861 
L 153.829385 249.72306 
L 146.942799 249.661916 
L 140.035355 249.649674 
L 133.134866 249.686386 
L 126.269118 249.771901 
L 119.465757 249.905877 
L 112.752178 250.087773 
L 106.155414 250.316857 
L 99.702028 250.592207 
L 93.418005 250.912715 
L 87.328648 251.277088 
L 81.458478 251.683861 
L 75.831132 252.131395 
L 70.469269 252.617888 
L 65.394479 253.141382 
L 60.627197 253.699768 
L 56.186618 254.290798 
L 52.090625 254.912092 
L 48.355708 255.561149 
L 44.996909 256.235354 
L 42.027751 256.931993 
L 39.46019 257.648261 
L 37.304565 258.381274 
L 35.569556 259.12808 
L 34.262149 259.885673 
L 33.387608 260.651 
L 32.949456 261.420982 
L 32.949456 262.192517 
L 33.387608 262.962498 
L 34.262149 263.727826 
L 35.569556 264.485418 
L 37.304565 265.232224 
L 39.46019 265.965237 
L 42.027751 266.681505 
L 44.996909 267.378145 
L 48.355708 268.05235 
L 52.090625 268.701406 
L 56.186618 269.3227 
L 60.627197 269.91373 
L 65.394479 270.472116 
L 70.469269 270.99561 
L 75.831132 271.482103 
L 81.458478 271.929637 
L 87.328648 272.33641 
L 93.418005 272.700784 
L 99.702028 273.021291 
L 106.155414 273.296641 
L 112.752178 273.525725 
L 119.465757 273.707622 
L 126.269118 273.841597 
L 133.134866 273.927113 
L 140.035355 273.963824 
L 146.942799 273.951583 
L 153.829385 273.890439 
L 160.667381 273.780638 
L 167.429256 273.622622 
L 174.08778 273.417028 
L 180.616142 273.164684 
L 186.988055 272.866605 
L 193.177861 272.523993 
L 199.160636 272.138225 
L 204.912289 271.710857 
L 210.409662 271.243608 
L 215.630617 270.73836 
L 220.554132 270.197147 
L 225.160381 269.62215 
L 229.430817 269.015683 
L 233.348245 268.380187 
L 236.896889 267.718223 
L 240.062462 267.032456 
L 242.832216 266.325646 
L 245.194998 265.600641 
L 247.141295 264.860358 
L 248.663269 264.10778 
L 249.754792 263.345937 
L 250.411469 262.577896 
L 250.630656 261.806749 
" style="fill:none;stroke:#000000;stroke-dasharray:6.000000,6.000000;stroke-dashoffset:0.0;"/>
   </g>
   <g id="text_11">
    <!-- Nyquist plot from: u(1) -->
    <defs>
     <path d="M 9.8125 72.90625 
L 23.09375 72.90625 
L 55.421875 11.921875 
L 55.421875 72.90625 
L 64.984375 72.90625 
L 64.984375 0 
L 51.703125 0 
L 19.390625 60.984375 
L 19.390625 0 
L 9.8125 0 
z
" id="BitstreamVeraSans-Roman-4e"/>
     <path d="M 37.109375 75.984375 
L 37.109375 68.5 
L 28.515625 68.5 
Q 23.6875 68.5 21.796875 66.546875 
Q 19.921875 64.59375 19.921875 59.515625 
L 19.921875 54.6875 
L 34.71875 54.6875 
L 34.71875 47.703125 
L 19.921875 47.703125 
L 19.921875 0 
L 10.890625 0 
L 10.890625 47.703125 
L 2.296875 47.703125 
L 2.296875 54.6875 
L 10.890625 54.6875 
L 10.890625 58.5 
Q 10.890625 67.625 15.140625 71.796875 
Q 19.390625 75.984375 28.609375 75.984375 
z
" id="BitstreamVeraSans-Roman-66"/>
     <path d="M 52 44.1875 
Q 55.375 50.25 60.0625 53.125 
Q 64.75 56 71.09375 56 
Q 79.640625 56 84.28125 50.015625 
Q 88.921875 44.046875 88.921875 33.015625 
L 88.921875 0 
L 79.890625 0 
L 79.890625 32.71875 
Q 79.890625 40.578125 77.09375 44.375 
Q 74.3125 48.1875 68.609375 48.1875 
Q 61.625 48.1875 57.5625 43.546875 
Q 53.515625 38.921875 53.515625 30.90625 
L 53.515625 0 
L 44.484375 0 
L 44.484375 32.71875 
Q 44.484375 40.625 41.703125 44.40625 
Q 38.921875 48.1875 33.109375 48.1875 
Q 26.21875 48.1875 22.15625 43.53125 
Q 18.109375 38.875 18.109375 30.90625 
L 18.109375 0 
L 9.078125 0 
L 9.078125 54.6875 
L 18.109375 54.6875 
L 18.109375 46.1875 
Q 21.1875 51.21875 25.484375 53.609375 
Q 29.78125 56 35.6875 56 
Q 41.65625 56 45.828125 52.96875 
Q 50 49.953125 52 44.1875 
" id="BitstreamVeraSans-Roman-6d"/>
     <path d="M 9.421875 75.984375 
L 18.40625 75.984375 
L 18.40625 0 
L 9.421875 0 
z
" id="BitstreamVeraSans-Roman-6c"/>
     <path d="M 9.421875 54.6875 
L 18.40625 54.6875 
L 18.40625 0 
L 9.421875 0 
z
M 9.421875 75.984375 
L 18.40625 75.984375 
L 18.40625 64.59375 
L 9.421875 64.59375 
z
" id="BitstreamVeraSans-Roman-69"/>
     <path d="M 18.3125 70.21875 
L 18.3125 54.6875 
L 36.8125 54.6875 
L 36.8125 47.703125 
L 18.3125 47.703125 
L 18.3125 18.015625 
Q 18.3125 11.328125 20.140625 9.421875 
Q 21.96875 7.515625 27.59375 7.515625 
L 36.8125 7.515625 
L 36.8125 0 
L 27.59375 0 
Q 17.1875 0 13.234375 3.875 
Q 9.28125 7.765625 9.28125 18.015625 
L 9.28125 47.703125 
L 2.6875 47.703125 
L 2.6875 54.6875 
L 9.28125 54.6875 
L 9.28125 70.21875 
z
" id="BitstreamVeraSans-Roman-74"/>
     <path d="M 8.5 21.578125 
L 8.5 54.6875 
L 17.484375 54.6875 
L 17.484375 21.921875 
Q 17.484375 14.15625 20.5 10.265625 
Q 23.53125 6.390625 29.59375 6.390625 
Q 36.859375 6.390625 41.078125 11.03125 
Q 45.3125 15.671875 45.3125 23.6875 
L 45.3125 54.6875 
L 54.296875 54.6875 
L 54.296875 0 
L 45.3125 0 
L 45.3125 8.40625 
Q 42.046875 3.421875 37.71875 1 
Q 33.40625 -1.421875 27.6875 -1.421875 
Q 18.265625 -1.421875 13.375 4.4375 
Q 8.5 10.296875 8.5 21.578125 
" id="BitstreamVeraSans-Roman-75"/>
     <path d="M 41.109375 46.296875 
Q 39.59375 47.171875 37.8125 47.578125 
Q 36.03125 48 33.890625 48 
Q 26.265625 48 22.1875 43.046875 
Q 18.109375 38.09375 18.109375 28.8125 
L 18.109375 0 
L 9.078125 0 
L 9.078125 54.6875 
L 18.109375 54.6875 
L 18.109375 46.1875 
Q 20.953125 51.171875 25.484375 53.578125 
Q 30.03125 56 36.53125 56 
Q 37.453125 56 38.578125 55.875 
Q 39.703125 55.765625 41.0625 55.515625 
z
" id="BitstreamVeraSans-Roman-72"/>
     <path d="M 44.28125 53.078125 
L 44.28125 44.578125 
Q 40.484375 46.53125 36.375 47.5 
Q 32.28125 48.484375 27.875 48.484375 
Q 21.1875 48.484375 17.84375 46.4375 
Q 14.5 44.390625 14.5 40.28125 
Q 14.5 37.15625 16.890625 35.375 
Q 19.28125 33.59375 26.515625 31.984375 
L 29.59375 31.296875 
Q 39.15625 29.25 43.1875 25.515625 
Q 47.21875 21.78125 47.21875 15.09375 
Q 47.21875 7.46875 41.1875 3.015625 
Q 35.15625 -1.421875 24.609375 -1.421875 
Q 20.21875 -1.421875 15.453125 -0.5625 
Q 10.6875 0.296875 5.421875 2 
L 5.421875 11.28125 
Q 10.40625 8.6875 15.234375 7.390625 
Q 20.0625 6.109375 24.8125 6.109375 
Q 31.15625 6.109375 34.5625 8.28125 
Q 37.984375 10.453125 37.984375 14.40625 
Q 37.984375 18.0625 35.515625 20.015625 
Q 33.0625 21.96875 24.703125 23.78125 
L 21.578125 24.515625 
Q 13.234375 26.265625 9.515625 29.90625 
Q 5.8125 33.546875 5.8125 39.890625 
Q 5.8125 47.609375 11.28125 51.796875 
Q 16.75 56 26.8125 56 
Q 31.78125 56 36.171875 55.265625 
Q 40.578125 54.546875 44.28125 53.078125 
" id="BitstreamVeraSans-Roman-73"/>
     <path d="M 18.109375 8.203125 
L 18.109375 -20.796875 
L 9.078125 -20.796875 
L 9.078125 54.6875 
L 18.109375 54.6875 
L 18.109375 46.390625 
Q 20.953125 51.265625 25.265625 53.625 
Q 29.59375 56 35.59375 56 
Q 45.5625 56 51.78125 48.09375 
Q 58.015625 40.1875 58.015625 27.296875 
Q 58.015625 14.40625 51.78125 6.484375 
Q 45.5625 -1.421875 35.59375 -1.421875 
Q 29.59375 -1.421875 25.265625 0.953125 
Q 20.953125 3.328125 18.109375 8.203125 
M 48.6875 27.296875 
Q 48.6875 37.203125 44.609375 42.84375 
Q 40.53125 48.484375 33.40625 48.484375 
Q 26.265625 48.484375 22.1875 42.84375 
Q 18.109375 37.203125 18.109375 27.296875 
Q 18.109375 17.390625 22.1875 11.75 
Q 26.265625 6.109375 33.40625 6.109375 
Q 40.53125 6.109375 44.609375 11.75 
Q 48.6875 17.390625 48.6875 27.296875 
" id="BitstreamVeraSans-Roman-70"/>
     <path d="M 14.796875 27.296875 
Q 14.796875 17.390625 18.875 11.75 
Q 22.953125 6.109375 30.078125 6.109375 
Q 37.203125 6.109375 41.296875 11.75 
Q 45.40625 17.390625 45.40625 27.296875 
Q 45.40625 37.203125 41.296875 42.84375 
Q 37.203125 48.484375 30.078125 48.484375 
Q 22.953125 48.484375 18.875 42.84375 
Q 14.796875 37.203125 14.796875 27.296875 
M 45.40625 8.203125 
Q 42.578125 3.328125 38.25 0.953125 
Q 33.9375 -1.421875 27.875 -1.421875 
Q 17.96875 -1.421875 11.734375 6.484375 
Q 5.515625 14.40625 5.515625 27.296875 
Q 5.515625 40.1875 11.734375 48.09375 
Q 17.96875 56 27.875 56 
Q 33.9375 56 38.25 53.625 
Q 42.578125 51.265625 45.40625 46.390625 
L 45.40625 54.6875 
L 54.390625 54.6875 
L 54.390625 -20.796875 
L 45.40625 -20.796875 
z
" id="BitstreamVeraSans-Roman-71"/>
    </defs>
    <g transform="translate(151.1928125 13.6346456693)scale(0.14 -0.14)">
     <use xlink:href="#BitstreamVeraSans-Roman-4e"/>
     <use x="74.8046875" xlink:href="#BitstreamVeraSans-Roman-79"/>
     <use x="133.984375" xlink:href="#BitstreamVeraSans-Roman-71"/>
     <use x="197.4609375" xlink:href="#BitstreamVeraSans-Roman-75"/>
     <use x="260.83984375" xlink:href="#BitstreamVeraSans-Roman-69"/>
     <use x="288.623046875" xlink:href="#BitstreamVeraSans-Roman-73"/>
     <use x="340.72265625" xlink:href="#BitstreamVeraSans-Roman-74"/>
     <use x="379.931640625" xlink:href="#BitstreamVeraSans-Roman-20"/>
     <use x="411.71875" xlink:href="#BitstreamVeraSans-Roman-70"/>
     <use x="475.1953125" xlink:href="#BitstreamVeraSans-Roman-6c"/>
     <use x="502.978515625" xlink:href="#BitstreamVeraSans-Roman-6f"/>
     <use x="564.16015625" xlink:href="#BitstreamVeraSans-Roman-74"/>
     <use x="603.369140625" xlink:href="#BitstreamVeraSans-Roman-20"/>
     <use x="635.15625" xlink:href="#BitstreamVeraSans-Roman-66"/>
     <use x="670.361328125" xlink:href="#BitstreamVeraSans-Roman-72"/>
     <use x="711.443359375" xlink:href="#BitstreamVeraSans-Roman-6f"/>
     <use x="772.625" xlink:href="#BitstreamVeraSans-Roman-6d"/>
     <use x="870.037109375" xlink:href="#BitstreamVeraSans-Roman-3a"/>
     <use x="903.728515625" xlink:href="#BitstreamVeraSans-Roman-20"/>
     <use x="935.515625" xlink:href="#BitstreamVeraSans-Roman-75"/>
     <use x="998.89453125" xlink:href="#BitstreamVeraSans-Roman-28"/>
     <use x="1037.90820312" xlink:href="#BitstreamVeraSans-Roman-31"/>
     <use x="1101.53125" xlink:href="#BitstreamVeraSans-Roman-29"/>
    </g>
   </g>
   <g id="line2d_31">
    <path clip-path="url(#p92ed7c263a)" d="M 141.762651 261.806749 
L 141.543464 261.035603 
L 140.886787 260.267561 
L 139.795264 259.505718 
L 138.27329 258.75314 
L 136.326993 258.012858 
L 133.964211 257.287852 
L 131.194457 256.581043 
L 128.028884 255.895275 
L 124.48024 255.233311 
L 120.562812 254.597816 
L 116.292376 253.991348 
L 111.686127 253.416351 
L 106.762612 252.875139 
L 101.541657 252.369891 
L 96.044284 251.902642 
L 90.292631 251.475273 
L 84.309855 251.089506 
L 78.120049 250.746893 
L 71.748137 250.448814 
L 65.219775 250.19647 
L 58.561251 249.990876 
L 51.799376 249.832861 
L 44.961379 249.72306 
L 38.074794 249.661916 
L 31.16735 249.649674 
L 24.266861 249.686386 
L 17.401113 249.771901 
L 10.597752 249.905877 
L 3.884173 250.087773 
L -1 250.257385 
M -1 273.356114 
L 3.884173 273.525725 
L 10.597752 273.707622 
L 17.401113 273.841597 
L 24.266861 273.927113 
L 31.16735 273.963824 
L 38.074794 273.951583 
L 44.961379 273.890439 
L 51.799376 273.780638 
L 58.561251 273.622622 
L 65.219775 273.417028 
L 71.748137 273.164684 
L 78.120049 272.866605 
L 84.309855 272.523993 
L 90.292631 272.138225 
L 96.044284 271.710857 
L 101.541657 271.243608 
L 106.762612 270.73836 
L 111.686127 270.197147 
L 116.292376 269.62215 
L 120.562812 269.015683 
L 124.48024 268.380187 
L 128.028884 267.718223 
L 131.194457 267.032456 
L 133.964211 266.325646 
L 136.326993 265.600641 
L 138.27329 264.860358 
L 139.795264 264.10778 
L 140.886787 263.345937 
L 141.543464 262.577896 
L 141.762651 261.806749 
" style="fill:none;stroke:#ff0000;stroke-dasharray:6.000000,6.000000;stroke-dashoffset:0.0;"/>
   </g>
   <g id="legend_1">
    <g id="patch_7">
     <path d="M 36.894646 48.519646 
L 75.294646 48.519646 
L 75.294646 22.634646 
L 36.894646 22.634646 
z
" style="fill:#ffffff;stroke:#000000;stroke-linejoin:miter;"/>
    </g>
    <g id="line2d_32">
     <path d="M 42.494646 29.113396 
L 53.694646 29.113396 
" style="fill:none;stroke:#cc1414;stroke-linecap:round;"/>
    </g>
    <g id="line2d_33"/>
    <g id="text_12">
     <!-- $G_{1}$ -->
     <defs>
      <path d="M 14.59375 21.921875 
Q 14.59375 15.71875 17.0625 11.046875 
Q 19.53125 6.390625 24.171875 3.84375 
Q 28.8125 1.3125 34.90625 1.3125 
Q 40.875 1.3125 46.234375 4.125 
Q 51.609375 6.9375 52.984375 12.203125 
L 55.171875 20.796875 
Q 55.21875 21.09375 55.265625 21.40625 
Q 55.328125 21.734375 55.328125 21.921875 
Q 55.328125 22.953125 54.6875 23.09375 
Q 52.203125 23.78125 44.671875 23.78125 
Q 43.703125 23.78125 43.703125 25.09375 
Q 44 26.3125 44.234375 26.796875 
Q 44.484375 27.296875 45.40625 27.296875 
L 71.1875 27.296875 
Q 72.21875 27.296875 72.21875 25.984375 
Q 72.171875 25.734375 72.015625 25.140625 
Q 71.875 24.5625 71.625 24.171875 
Q 71.390625 23.78125 70.90625 23.78125 
Q 67.578125 23.78125 66.03125 23.234375 
Q 64.5 22.703125 63.921875 20.40625 
L 61.71875 11.8125 
L 58.890625 0.6875 
Q 58.734375 0 58.015625 0 
Q 57.171875 0 55.609375 2.25 
Q 54.046875 4.5 53.421875 6 
Q 49.953125 1.90625 44.140625 -0.140625 
Q 38.328125 -2.203125 32.171875 -2.203125 
Q 24.421875 -2.203125 18.1875 1.3125 
Q 11.96875 4.828125 8.515625 11.078125 
Q 5.078125 17.328125 5.078125 25.203125 
Q 5.078125 33.59375 8.8125 41.765625 
Q 12.546875 49.953125 18.9375 56.421875 
Q 25.34375 62.890625 33.46875 66.703125 
Q 41.609375 70.515625 49.90625 70.515625 
Q 53.21875 70.515625 56.265625 69.484375 
Q 59.328125 68.453125 61.9375 66.421875 
Q 64.546875 64.40625 66.21875 61.71875 
L 74.125 70.3125 
Q 74.125 70.515625 74.609375 70.515625 
L 75.203125 70.515625 
Q 75.59375 70.515625 75.859375 70.1875 
Q 76.125 69.875 76.125 69.484375 
L 69.28125 42.484375 
Q 69.28125 41.796875 68.5 41.796875 
L 66.703125 41.796875 
Q 65.921875 41.796875 65.921875 42.921875 
Q 66.3125 45.125 66.3125 48.09375 
Q 66.3125 53.03125 64.640625 57.375 
Q 62.984375 61.71875 59.46875 64.359375 
Q 55.953125 67 50.875 67 
Q 42.828125 67 35.984375 62.921875 
Q 29.15625 58.84375 24.40625 52.140625 
Q 19.671875 45.453125 17.125 37.4375 
Q 14.59375 29.4375 14.59375 21.921875 
" id="Cmmi10-47"/>
      <path d="M 9.28125 0 
L 9.28125 3.515625 
Q 21.78125 3.515625 21.78125 6.6875 
L 21.78125 59.1875 
Q 16.609375 56.6875 8.6875 56.6875 
L 8.6875 60.203125 
Q 20.953125 60.203125 27.203125 66.609375 
L 28.609375 66.609375 
Q 28.953125 66.609375 29.265625 66.328125 
Q 29.59375 66.0625 29.59375 65.71875 
L 29.59375 6.6875 
Q 29.59375 3.515625 42.09375 3.515625 
L 42.09375 0 
z
" id="Cmr10-31"/>
     </defs>
     <g transform="translate(62.4946456693 31.9133956693)scale(0.08 -0.08)">
      <use transform="translate(0.0 0.484375)" xlink:href="#Cmmi10-47"/>
      <use transform="translate(78.61328125 -16.521875)scale(0.7)" xlink:href="#Cmr10-31"/>
     </g>
    </g>
    <g id="line2d_34">
     <path d="M 42.494646 40.855896 
L 53.694646 40.855896 
" style="fill:none;stroke:#14cc2b;stroke-linecap:round;"/>
    </g>
    <g id="line2d_35"/>
    <g id="text_13">
     <!-- $G_{2}$ -->
     <defs>
      <path d="M 4.984375 0 
L 4.984375 2.6875 
Q 4.984375 2.9375 5.171875 3.21875 
L 20.703125 20.40625 
Q 24.21875 24.21875 26.40625 26.796875 
Q 28.609375 29.390625 30.75 32.765625 
Q 32.90625 36.140625 34.15625 39.625 
Q 35.40625 43.109375 35.40625 47.015625 
Q 35.40625 51.125 33.890625 54.859375 
Q 32.375 58.59375 29.375 60.84375 
Q 26.375 63.09375 22.125 63.09375 
Q 17.78125 63.09375 14.3125 60.46875 
Q 10.84375 57.859375 9.421875 53.71875 
Q 9.8125 53.8125 10.5 53.8125 
Q 12.75 53.8125 14.328125 52.296875 
Q 15.921875 50.78125 15.921875 48.390625 
Q 15.921875 46.09375 14.328125 44.5 
Q 12.75 42.921875 10.5 42.921875 
Q 8.15625 42.921875 6.5625 44.546875 
Q 4.984375 46.1875 4.984375 48.390625 
Q 4.984375 52.15625 6.390625 55.4375 
Q 7.8125 58.734375 10.46875 61.296875 
Q 13.140625 63.875 16.484375 65.234375 
Q 19.828125 66.609375 23.578125 66.609375 
Q 29.296875 66.609375 34.21875 64.1875 
Q 39.15625 61.765625 42.03125 57.34375 
Q 44.921875 52.9375 44.921875 47.015625 
Q 44.921875 42.671875 43.015625 38.765625 
Q 41.109375 34.859375 38.125 31.65625 
Q 35.15625 28.46875 30.515625 24.40625 
Q 25.875 20.359375 24.421875 19 
L 13.09375 8.109375 
L 22.703125 8.109375 
Q 29.78125 8.109375 34.546875 8.21875 
Q 39.3125 8.34375 39.59375 8.59375 
Q 40.765625 9.859375 42 17.828125 
L 44.921875 17.828125 
L 42.09375 0 
z
" id="Cmr10-32"/>
     </defs>
     <g transform="translate(62.4946456693 43.6558956693)scale(0.08 -0.08)">
      <use transform="translate(0.0 0.484375)" xlink:href="#Cmmi10-47"/>
      <use transform="translate(78.61328125 -16.521875)scale(0.7)" xlink:href="#Cmr10-32"/>
     </g>
    </g>
   </g>
  </g>
 </g>
 <defs>
  <clipPath id="p92ed7c263a">
   <rect height="255.330708661" width="396.270708661" x="32.8946456693" y="18.6346456693"/>
  </clipPath>
 </defs>
</svg>
