<?xml version="1.0" encoding="utf-8" standalone="no"?>
<!DOCTYPE svg PUBLIC "-//W3C//DTD SVG 1.1//EN"
  "http://www.w3.org/Graphics/SVG/1.1/DTD/svg11.dtd">
<!-- Created with matplotlib (http://matplotlib.org/) -->
<svg height="288pt" version="1.1" viewBox="0 0 432 288" width="432pt" xmlns="http://www.w3.org/2000/svg" xmlns:xlink="http://www.w3.org/1999/xlink">
 <defs>
  <style type="text/css">
*{stroke-linecap:butt;stroke-linejoin:round;stroke-miterlimit:100000;}
  </style>
 </defs>
 <g id="figure_1">
  <g id="patch_1">
   <path d="M 0 288 
L 432 288 
L 432 0 
L 0 0 
z
" style="fill:#ffffff;"/>
  </g>
  <g id="axes_1">
   <g id="patch_2">
    <path d="M 42.785938 263.2975 
L 419.04 263.2975 
L 419.04 26.318281 
L 42.785938 26.318281 
z
" style="fill:#ffffff;"/>
   </g>
   <g id="matplotlib.axis_1">
    <g id="xtick_1">
     <g id="line2d_1">
      <path clip-path="url(#pad0b5a861f)" d="M 42.785938 263.2975 
L 42.785938 26.318281 
" style="fill:none;stroke:#000000;stroke-dasharray:1.000000,3.000000;stroke-dashoffset:0.0;stroke-width:0.5;"/>
     </g>
     <g id="line2d_2">
      <defs>
       <path d="M 0 0 
L 0 -4 
" id="m56df0f9c01" style="stroke:#000000;stroke-width:0.5;"/>
      </defs>
      <g>
       <use style="stroke:#000000;stroke-width:0.5;" x="42.7859375" xlink:href="#m56df0f9c01" y="263.2975"/>
      </g>
     </g>
     <g id="line2d_3">
      <defs>
       <path d="M 0 0 
L 0 4 
" id="mcb5ac62db1" style="stroke:#000000;stroke-width:0.5;"/>
      </defs>
      <g>
       <use style="stroke:#000000;stroke-width:0.5;" x="42.7859375" xlink:href="#mcb5ac62db1" y="26.31828125"/>
      </g>
     </g>
     <g id="text_1">
      <!-- −1.0 -->
      <defs>
       <path d="M 10.59375 35.5 
L 73.1875 35.5 
L 73.1875 27.203125 
L 10.59375 27.203125 
z
" id="BitstreamVeraSans-Roman-2212"/>
       <path d="M 31.78125 66.40625 
Q 24.171875 66.40625 20.328125 58.90625 
Q 16.5 51.421875 16.5 36.375 
Q 16.5 21.390625 20.328125 13.890625 
Q 24.171875 6.390625 31.78125 6.390625 
Q 39.453125 6.390625 43.28125 13.890625 
Q 47.125 21.390625 47.125 36.375 
Q 47.125 51.421875 43.28125 58.90625 
Q 39.453125 66.40625 31.78125 66.40625 
M 31.78125 74.21875 
Q 44.046875 74.21875 50.515625 64.515625 
Q 56.984375 54.828125 56.984375 36.375 
Q 56.984375 17.96875 50.515625 8.265625 
Q 44.046875 -1.421875 31.78125 -1.421875 
Q 19.53125 -1.421875 13.0625 8.265625 
Q 6.59375 17.96875 6.59375 36.375 
Q 6.59375 54.828125 13.0625 64.515625 
Q 19.53125 74.21875 31.78125 74.21875 
" id="BitstreamVeraSans-Roman-30"/>
       <path d="M 12.40625 8.296875 
L 28.515625 8.296875 
L 28.515625 63.921875 
L 10.984375 60.40625 
L 10.984375 69.390625 
L 28.421875 72.90625 
L 38.28125 72.90625 
L 38.28125 8.296875 
L 54.390625 8.296875 
L 54.390625 0 
L 12.40625 0 
z
" id="BitstreamVeraSans-Roman-31"/>
       <path d="M 10.6875 12.40625 
L 21 12.40625 
L 21 0 
L 10.6875 0 
z
" id="BitstreamVeraSans-Roman-2e"/>
      </defs>
      <g transform="translate(33.0728125 273.37625)scale(0.08 -0.08)">
       <use xlink:href="#BitstreamVeraSans-Roman-2212"/>
       <use x="83.7890625" xlink:href="#BitstreamVeraSans-Roman-31"/>
       <use x="147.412109375" xlink:href="#BitstreamVeraSans-Roman-2e"/>
       <use x="179.19921875" xlink:href="#BitstreamVeraSans-Roman-30"/>
      </g>
     </g>
    </g>
    <g id="xtick_2">
     <g id="line2d_4">
      <path clip-path="url(#pad0b5a861f)" d="M 94.470339 263.2975 
L 94.470339 26.318281 
" style="fill:none;stroke:#000000;stroke-dasharray:1.000000,3.000000;stroke-dashoffset:0.0;stroke-width:0.5;"/>
     </g>
     <g id="line2d_5">
      <g>
       <use style="stroke:#000000;stroke-width:0.5;" x="94.4703394844" xlink:href="#m56df0f9c01" y="263.2975"/>
      </g>
     </g>
     <g id="line2d_6">
      <g>
       <use style="stroke:#000000;stroke-width:0.5;" x="94.4703394844" xlink:href="#mcb5ac62db1" y="26.31828125"/>
      </g>
     </g>
     <g id="text_2">
      <!-- −0.5 -->
      <defs>
       <path d="M 10.796875 72.90625 
L 49.515625 72.90625 
L 49.515625 64.59375 
L 19.828125 64.59375 
L 19.828125 46.734375 
Q 21.96875 47.46875 24.109375 47.828125 
Q 26.265625 48.1875 28.421875 48.1875 
Q 40.625 48.1875 47.75 41.5 
Q 54.890625 34.8125 54.890625 23.390625 
Q 54.890625 11.625 47.5625 5.09375 
Q 40.234375 -1.421875 26.90625 -1.421875 
Q 22.3125 -1.421875 17.546875 -0.640625 
Q 12.796875 0.140625 7.71875 1.703125 
L 7.71875 11.625 
Q 12.109375 9.234375 16.796875 8.0625 
Q 21.484375 6.890625 26.703125 6.890625 
Q 35.15625 6.890625 40.078125 11.328125 
Q 45.015625 15.765625 45.015625 23.390625 
Q 45.015625 31 40.078125 35.4375 
Q 35.15625 39.890625 26.703125 39.890625 
Q 22.75 39.890625 18.8125 39.015625 
Q 14.890625 38.140625 10.796875 36.28125 
z
" id="BitstreamVeraSans-Roman-35"/>
      </defs>
      <g transform="translate(84.7572144844 273.37625)scale(0.08 -0.08)">
       <use xlink:href="#BitstreamVeraSans-Roman-2212"/>
       <use x="83.7890625" xlink:href="#BitstreamVeraSans-Roman-30"/>
       <use x="147.412109375" xlink:href="#BitstreamVeraSans-Roman-2e"/>
       <use x="179.19921875" xlink:href="#BitstreamVeraSans-Roman-35"/>
      </g>
     </g>
    </g>
    <g id="xtick_3">
     <g id="line2d_7">
      <path clip-path="url(#pad0b5a861f)" d="M 146.154741 263.2975 
L 146.154741 26.318281 
" style="fill:none;stroke:#000000;stroke-dasharray:1.000000,3.000000;stroke-dashoffset:0.0;stroke-width:0.5;"/>
     </g>
     <g id="line2d_8">
      <g>
       <use style="stroke:#000000;stroke-width:0.5;" x="146.154741469" xlink:href="#m56df0f9c01" y="263.2975"/>
      </g>
     </g>
     <g id="line2d_9">
      <g>
       <use style="stroke:#000000;stroke-width:0.5;" x="146.154741469" xlink:href="#mcb5ac62db1" y="26.31828125"/>
      </g>
     </g>
     <g id="text_3">
      <!-- 0.0 -->
      <g transform="translate(139.793491469 273.37625)scale(0.08 -0.08)">
       <use xlink:href="#BitstreamVeraSans-Roman-30"/>
       <use x="63.623046875" xlink:href="#BitstreamVeraSans-Roman-2e"/>
       <use x="95.41015625" xlink:href="#BitstreamVeraSans-Roman-30"/>
      </g>
     </g>
    </g>
    <g id="xtick_4">
     <g id="line2d_10">
      <path clip-path="url(#pad0b5a861f)" d="M 197.839143 263.2975 
L 197.839143 26.318281 
" style="fill:none;stroke:#000000;stroke-dasharray:1.000000,3.000000;stroke-dashoffset:0.0;stroke-width:0.5;"/>
     </g>
     <g id="line2d_11">
      <g>
       <use style="stroke:#000000;stroke-width:0.5;" x="197.839143453" xlink:href="#m56df0f9c01" y="263.2975"/>
      </g>
     </g>
     <g id="line2d_12">
      <g>
       <use style="stroke:#000000;stroke-width:0.5;" x="197.839143453" xlink:href="#mcb5ac62db1" y="26.31828125"/>
      </g>
     </g>
     <g id="text_4">
      <!-- 0.5 -->
      <g transform="translate(191.477893453 273.37625)scale(0.08 -0.08)">
       <use xlink:href="#BitstreamVeraSans-Roman-30"/>
       <use x="63.623046875" xlink:href="#BitstreamVeraSans-Roman-2e"/>
       <use x="95.41015625" xlink:href="#BitstreamVeraSans-Roman-35"/>
      </g>
     </g>
    </g>
    <g id="xtick_5">
     <g id="line2d_13">
      <path clip-path="url(#pad0b5a861f)" d="M 249.523545 263.2975 
L 249.523545 26.318281 
" style="fill:none;stroke:#000000;stroke-dasharray:1.000000,3.000000;stroke-dashoffset:0.0;stroke-width:0.5;"/>
     </g>
     <g id="line2d_14">
      <g>
       <use style="stroke:#000000;stroke-width:0.5;" x="249.523545438" xlink:href="#m56df0f9c01" y="263.2975"/>
      </g>
     </g>
     <g id="line2d_15">
      <g>
       <use style="stroke:#000000;stroke-width:0.5;" x="249.523545438" xlink:href="#mcb5ac62db1" y="26.31828125"/>
      </g>
     </g>
     <g id="text_5">
      <!-- 1.0 -->
      <g transform="translate(243.162295438 273.37625)scale(0.08 -0.08)">
       <use xlink:href="#BitstreamVeraSans-Roman-31"/>
       <use x="63.623046875" xlink:href="#BitstreamVeraSans-Roman-2e"/>
       <use x="95.41015625" xlink:href="#BitstreamVeraSans-Roman-30"/>
      </g>
     </g>
    </g>
    <g id="xtick_6">
     <g id="line2d_16">
      <path clip-path="url(#pad0b5a861f)" d="M 301.207947 263.2975 
L 301.207947 26.318281 
" style="fill:none;stroke:#000000;stroke-dasharray:1.000000,3.000000;stroke-dashoffset:0.0;stroke-width:0.5;"/>
     </g>
     <g id="line2d_17">
      <g>
       <use style="stroke:#000000;stroke-width:0.5;" x="301.207947422" xlink:href="#m56df0f9c01" y="263.2975"/>
      </g>
     </g>
     <g id="line2d_18">
      <g>
       <use style="stroke:#000000;stroke-width:0.5;" x="301.207947422" xlink:href="#mcb5ac62db1" y="26.31828125"/>
      </g>
     </g>
     <g id="text_6">
      <!-- 1.5 -->
      <g transform="translate(294.846697422 273.37625)scale(0.08 -0.08)">
       <use xlink:href="#BitstreamVeraSans-Roman-31"/>
       <use x="63.623046875" xlink:href="#BitstreamVeraSans-Roman-2e"/>
       <use x="95.41015625" xlink:href="#BitstreamVeraSans-Roman-35"/>
      </g>
     </g>
    </g>
    <g id="xtick_7">
     <g id="line2d_19">
      <path clip-path="url(#pad0b5a861f)" d="M 352.892349 263.2975 
L 352.892349 26.318281 
" style="fill:none;stroke:#000000;stroke-dasharray:1.000000,3.000000;stroke-dashoffset:0.0;stroke-width:0.5;"/>
     </g>
     <g id="line2d_20">
      <g>
       <use style="stroke:#000000;stroke-width:0.5;" x="352.892349406" xlink:href="#m56df0f9c01" y="263.2975"/>
      </g>
     </g>
     <g id="line2d_21">
      <g>
       <use style="stroke:#000000;stroke-width:0.5;" x="352.892349406" xlink:href="#mcb5ac62db1" y="26.31828125"/>
      </g>
     </g>
     <g id="text_7">
      <!-- 2.0 -->
      <defs>
       <path d="M 19.1875 8.296875 
L 53.609375 8.296875 
L 53.609375 0 
L 7.328125 0 
L 7.328125 8.296875 
Q 12.9375 14.109375 22.625 23.890625 
Q 32.328125 33.6875 34.8125 36.53125 
Q 39.546875 41.84375 41.421875 45.53125 
Q 43.3125 49.21875 43.3125 52.78125 
Q 43.3125 58.59375 39.234375 62.25 
Q 35.15625 65.921875 28.609375 65.921875 
Q 23.96875 65.921875 18.8125 64.3125 
Q 13.671875 62.703125 7.8125 59.421875 
L 7.8125 69.390625 
Q 13.765625 71.78125 18.9375 73 
Q 24.125 74.21875 28.421875 74.21875 
Q 39.75 74.21875 46.484375 68.546875 
Q 53.21875 62.890625 53.21875 53.421875 
Q 53.21875 48.921875 51.53125 44.890625 
Q 49.859375 40.875 45.40625 35.40625 
Q 44.1875 33.984375 37.640625 27.21875 
Q 31.109375 20.453125 19.1875 8.296875 
" id="BitstreamVeraSans-Roman-32"/>
      </defs>
      <g transform="translate(346.531099406 273.37625)scale(0.08 -0.08)">
       <use xlink:href="#BitstreamVeraSans-Roman-32"/>
       <use x="63.623046875" xlink:href="#BitstreamVeraSans-Roman-2e"/>
       <use x="95.41015625" xlink:href="#BitstreamVeraSans-Roman-30"/>
      </g>
     </g>
    </g>
    <g id="xtick_8">
     <g id="line2d_22">
      <path clip-path="url(#pad0b5a861f)" d="M 404.576751 263.2975 
L 404.576751 26.318281 
" style="fill:none;stroke:#000000;stroke-dasharray:1.000000,3.000000;stroke-dashoffset:0.0;stroke-width:0.5;"/>
     </g>
     <g id="line2d_23">
      <g>
       <use style="stroke:#000000;stroke-width:0.5;" x="404.576751391" xlink:href="#m56df0f9c01" y="263.2975"/>
      </g>
     </g>
     <g id="line2d_24">
      <g>
       <use style="stroke:#000000;stroke-width:0.5;" x="404.576751391" xlink:href="#mcb5ac62db1" y="26.31828125"/>
      </g>
     </g>
     <g id="text_8">
      <!-- 2.5 -->
      <g transform="translate(398.215501391 273.37625)scale(0.08 -0.08)">
       <use xlink:href="#BitstreamVeraSans-Roman-32"/>
       <use x="63.623046875" xlink:href="#BitstreamVeraSans-Roman-2e"/>
       <use x="95.41015625" xlink:href="#BitstreamVeraSans-Roman-35"/>
      </g>
     </g>
    </g>
   </g>
   <g id="matplotlib.axis_2">
    <g id="ytick_1">
     <g id="line2d_25">
      <path clip-path="url(#pad0b5a861f)" d="M 42.785938 252.012775 
L 419.04 252.012775 
" style="fill:none;stroke:#000000;stroke-dasharray:1.000000,3.000000;stroke-dashoffset:0.0;stroke-width:0.5;"/>
     </g>
     <g id="line2d_26">
      <defs>
       <path d="M 0 0 
L 4 0 
" id="m397ef6af11" style="stroke:#000000;stroke-width:0.5;"/>
      </defs>
      <g>
       <use style="stroke:#000000;stroke-width:0.5;" x="42.7859375" xlink:href="#m397ef6af11" y="252.012775298"/>
      </g>
     </g>
     <g id="line2d_27">
      <defs>
       <path d="M 0 0 
L -4 0 
" id="m577576132b" style="stroke:#000000;stroke-width:0.5;"/>
      </defs>
      <g>
       <use style="stroke:#000000;stroke-width:0.5;" x="419.04" xlink:href="#m577576132b" y="252.012775298"/>
      </g>
     </g>
     <g id="text_9">
      <!-- 0 -->
      <g transform="translate(33.6959375 254.220275298)scale(0.08 -0.08)">
       <use xlink:href="#BitstreamVeraSans-Roman-30"/>
      </g>
     </g>
    </g>
    <g id="ytick_2">
     <g id="line2d_28">
      <path clip-path="url(#pad0b5a861f)" d="M 42.785938 195.589152 
L 419.04 195.589152 
" style="fill:none;stroke:#000000;stroke-dasharray:1.000000,3.000000;stroke-dashoffset:0.0;stroke-width:0.5;"/>
     </g>
     <g id="line2d_29">
      <g>
       <use style="stroke:#000000;stroke-width:0.5;" x="42.7859375" xlink:href="#m397ef6af11" y="195.589151786"/>
      </g>
     </g>
     <g id="line2d_30">
      <g>
       <use style="stroke:#000000;stroke-width:0.5;" x="419.04" xlink:href="#m577576132b" y="195.589151786"/>
      </g>
     </g>
     <g id="text_10">
      <!-- 5 -->
      <g transform="translate(33.6959375 197.796651786)scale(0.08 -0.08)">
       <use xlink:href="#BitstreamVeraSans-Roman-35"/>
      </g>
     </g>
    </g>
    <g id="ytick_3">
     <g id="line2d_31">
      <path clip-path="url(#pad0b5a861f)" d="M 42.785938 139.165528 
L 419.04 139.165528 
" style="fill:none;stroke:#000000;stroke-dasharray:1.000000,3.000000;stroke-dashoffset:0.0;stroke-width:0.5;"/>
     </g>
     <g id="line2d_32">
      <g>
       <use style="stroke:#000000;stroke-width:0.5;" x="42.7859375" xlink:href="#m397ef6af11" y="139.165528274"/>
      </g>
     </g>
     <g id="line2d_33">
      <g>
       <use style="stroke:#000000;stroke-width:0.5;" x="419.04" xlink:href="#m577576132b" y="139.165528274"/>
      </g>
     </g>
     <g id="text_11">
      <!-- 10 -->
      <g transform="translate(28.6059375 141.373028274)scale(0.08 -0.08)">
       <use xlink:href="#BitstreamVeraSans-Roman-31"/>
       <use x="63.623046875" xlink:href="#BitstreamVeraSans-Roman-30"/>
      </g>
     </g>
    </g>
    <g id="ytick_4">
     <g id="line2d_34">
      <path clip-path="url(#pad0b5a861f)" d="M 42.785938 82.741905 
L 419.04 82.741905 
" style="fill:none;stroke:#000000;stroke-dasharray:1.000000,3.000000;stroke-dashoffset:0.0;stroke-width:0.5;"/>
     </g>
     <g id="line2d_35">
      <g>
       <use style="stroke:#000000;stroke-width:0.5;" x="42.7859375" xlink:href="#m397ef6af11" y="82.7419047619"/>
      </g>
     </g>
     <g id="line2d_36">
      <g>
       <use style="stroke:#000000;stroke-width:0.5;" x="419.04" xlink:href="#m577576132b" y="82.7419047619"/>
      </g>
     </g>
     <g id="text_12">
      <!-- 15 -->
      <g transform="translate(28.6059375 84.9494047619)scale(0.08 -0.08)">
       <use xlink:href="#BitstreamVeraSans-Roman-31"/>
       <use x="63.623046875" xlink:href="#BitstreamVeraSans-Roman-35"/>
      </g>
     </g>
    </g>
    <g id="ytick_5">
     <g id="line2d_37">
      <path clip-path="url(#pad0b5a861f)" d="M 42.785938 26.318281 
L 419.04 26.318281 
" style="fill:none;stroke:#000000;stroke-dasharray:1.000000,3.000000;stroke-dashoffset:0.0;stroke-width:0.5;"/>
     </g>
     <g id="line2d_38">
      <g>
       <use style="stroke:#000000;stroke-width:0.5;" x="42.7859375" xlink:href="#m397ef6af11" y="26.31828125"/>
      </g>
     </g>
     <g id="line2d_39">
      <g>
       <use style="stroke:#000000;stroke-width:0.5;" x="419.04" xlink:href="#m577576132b" y="26.31828125"/>
      </g>
     </g>
     <g id="text_13">
      <!-- 20 -->
      <g transform="translate(28.6059375 28.52578125)scale(0.08 -0.08)">
       <use xlink:href="#BitstreamVeraSans-Roman-32"/>
       <use x="63.623046875" xlink:href="#BitstreamVeraSans-Roman-30"/>
      </g>
     </g>
    </g>
    <g id="text_14">
     <!-- To: y(1) -->
     <defs>
      <path id="BitstreamVeraSans-Roman-20"/>
      <path d="M 8.015625 75.875 
L 15.828125 75.875 
Q 23.140625 64.359375 26.78125 53.3125 
Q 30.421875 42.28125 30.421875 31.390625 
Q 30.421875 20.453125 26.78125 9.375 
Q 23.140625 -1.703125 15.828125 -13.1875 
L 8.015625 -13.1875 
Q 14.5 -2 17.703125 9.0625 
Q 20.90625 20.125 20.90625 31.390625 
Q 20.90625 42.671875 17.703125 53.65625 
Q 14.5 64.65625 8.015625 75.875 
" id="BitstreamVeraSans-Roman-29"/>
      <path d="M 31 75.875 
Q 24.46875 64.65625 21.28125 53.65625 
Q 18.109375 42.671875 18.109375 31.390625 
Q 18.109375 20.125 21.3125 9.0625 
Q 24.515625 -2 31 -13.1875 
L 23.1875 -13.1875 
Q 15.875 -1.703125 12.234375 9.375 
Q 8.59375 20.453125 8.59375 31.390625 
Q 8.59375 42.28125 12.203125 53.3125 
Q 15.828125 64.359375 23.1875 75.875 
z
" id="BitstreamVeraSans-Roman-28"/>
      <path d="M 30.609375 48.390625 
Q 23.390625 48.390625 19.1875 42.75 
Q 14.984375 37.109375 14.984375 27.296875 
Q 14.984375 17.484375 19.15625 11.84375 
Q 23.34375 6.203125 30.609375 6.203125 
Q 37.796875 6.203125 41.984375 11.859375 
Q 46.1875 17.53125 46.1875 27.296875 
Q 46.1875 37.015625 41.984375 42.703125 
Q 37.796875 48.390625 30.609375 48.390625 
M 30.609375 56 
Q 42.328125 56 49.015625 48.375 
Q 55.71875 40.765625 55.71875 27.296875 
Q 55.71875 13.875 49.015625 6.21875 
Q 42.328125 -1.421875 30.609375 -1.421875 
Q 18.84375 -1.421875 12.171875 6.21875 
Q 5.515625 13.875 5.515625 27.296875 
Q 5.515625 40.765625 12.171875 48.375 
Q 18.84375 56 30.609375 56 
" id="BitstreamVeraSans-Roman-6f"/>
      <path d="M 11.71875 12.40625 
L 22.015625 12.40625 
L 22.015625 0 
L 11.71875 0 
z
M 11.71875 51.703125 
L 22.015625 51.703125 
L 22.015625 39.3125 
L 11.71875 39.3125 
z
" id="BitstreamVeraSans-Roman-3a"/>
      <path d="M -0.296875 72.90625 
L 61.375 72.90625 
L 61.375 64.59375 
L 35.5 64.59375 
L 35.5 0 
L 25.59375 0 
L 25.59375 64.59375 
L -0.296875 64.59375 
z
" id="BitstreamVeraSans-Roman-54"/>
      <path d="M 32.171875 -5.078125 
Q 28.375 -14.84375 24.75 -17.8125 
Q 21.140625 -20.796875 15.09375 -20.796875 
L 7.90625 -20.796875 
L 7.90625 -13.28125 
L 13.1875 -13.28125 
Q 16.890625 -13.28125 18.9375 -11.515625 
Q 21 -9.765625 23.484375 -3.21875 
L 25.09375 0.875 
L 2.984375 54.6875 
L 12.5 54.6875 
L 29.59375 11.921875 
L 46.6875 54.6875 
L 56.203125 54.6875 
z
" id="BitstreamVeraSans-Roman-79"/>
     </defs>
     <g transform="translate(21.31828125 166.165078125)rotate(-90.0)scale(0.11 -0.11)">
      <use xlink:href="#BitstreamVeraSans-Roman-54"/>
      <use x="60.818359375" xlink:href="#BitstreamVeraSans-Roman-6f"/>
      <use x="122.0" xlink:href="#BitstreamVeraSans-Roman-3a"/>
      <use x="155.69140625" xlink:href="#BitstreamVeraSans-Roman-20"/>
      <use x="187.478515625" xlink:href="#BitstreamVeraSans-Roman-79"/>
      <use x="246.658203125" xlink:href="#BitstreamVeraSans-Roman-28"/>
      <use x="285.671875" xlink:href="#BitstreamVeraSans-Roman-31"/>
      <use x="349.294921875" xlink:href="#BitstreamVeraSans-Roman-29"/>
     </g>
    </g>
   </g>
   <g id="line2d_40">
    <path clip-path="url(#pad0b5a861f)" d="M 249.420213 252.463939 
L 249.077154 252.949482 
L 248.400519 253.495334 
L 247.28488 254.098569 
L 245.402999 254.825516 
L 243.03417 255.515472 
L 239.352544 256.34454 
L 234.815329 257.141576 
L 228.414604 258.018441 
L 221.555459 258.750096 
L 212.810024 259.46673 
L 201.918265 260.107023 
L 192.270471 260.486269 
L 181.417428 260.729651 
L 169.566177 260.787641 
L 157.107209 260.611724 
L 144.63798 260.163239 
L 136.703028 259.703057 
L 129.379249 259.116128 
L 122.940648 258.413205 
L 117.643888 257.613734 
L 113.700807 256.745572 
L 112.283986 256.296402 
L 111.250885 255.84352 
L 110.603902 255.391918 
L 110.338599 254.946624 
L 110.443616 254.512574 
L 110.900838 254.094475 
L 111.685806 253.696677 
L 112.768381 253.323049 
L 115.682856 252.660787 
L 119.327122 252.12569 
L 123.363693 251.723999 
L 129.470217 251.357978 
L 136.493317 251.221368 
L 142.32791 251.367102 
L 145.501051 251.64591 
L 146.444128 251.90431 
L 146.344498 251.983125 
L 146.154743 252.012775 
L 146.154743 252.012775 
" style="fill:none;stroke:#cc1414;stroke-linecap:round;"/>
   </g>
   <g id="line2d_41">
    <path clip-path="url(#pad0b5a861f)" d="M 418.493192 -1 
L 418.08276 50.736156 
L 417.550109 86.870806 
L 416.949864 111.291585 
L 416.36253 127.3778 
L 415.62414 141.793797 
L 414.696405 154.731448 
L 413.949634 162.620786 
L 413.080906 169.976079 
L 412.070785 176.840336 
L 410.896913 183.253474 
L 409.533631 189.252507 
L 407.951575 194.871713 
L 406.117259 200.142779 
L 403.992647 205.094901 
L 401.534746 209.75487 
L 400.165929 211.983021 
L 398.69524 214.14711 
L 397.115761 216.24982 
L 395.420215 218.293689 
L 393.600965 220.281102 
L 391.650018 222.214291 
L 389.559032 224.095332 
L 387.319336 225.926141 
L 384.921943 227.70847 
L 382.357587 229.443899 
L 379.616756 231.133836 
L 376.689741 232.779507 
L 373.566699 234.381948 
L 370.237722 235.942004 
L 366.692926 237.460316 
L 362.922559 238.937319 
L 358.917115 240.373229 
L 354.667483 241.768046 
L 350.165102 243.121538 
L 345.40215 244.433245 
L 335.068168 246.928288 
L 323.626036 249.244816 
L 311.063463 251.370858 
L 297.404855 253.2912 
L 282.721448 254.988089 
L 267.141189 256.442347 
L 250.856994 257.634954 
L 234.131598 258.549117 
L 217.296846 259.172748 
L 200.745272 259.501158 
L 184.912279 259.539685 
L 170.248325 259.305786 
L 157.182385 258.830126 
L 146.080214 258.156172 
L 137.203252 257.338008 
L 130.675471 256.436365 
L 126.465435 255.513292 
L 125.177387 255.062014 
L 124.388669 254.62626 
L 124.056236 254.211604 
L 124.131485 253.822733 
L 124.561863 253.463368 
L 125.292559 253.136228 
L 127.434356 252.584554 
L 130.134397 252.17043 
L 134.45387 251.783383 
L 139.474983 251.597455 
L 144.072261 251.672077 
L 146.20172 251.904236 
L 146.299151 251.969113 
L 146.172882 252.011488 
L 146.154742 252.012775 
L 146.154742 252.012775 
" style="fill:none;stroke:#14cc2b;stroke-linecap:round;"/>
   </g>
   <g id="patch_3">
    <path d="M 42.785938 26.318281 
L 419.04 26.318281 
" style="fill:none;stroke:#000000;stroke-linecap:square;stroke-linejoin:miter;"/>
   </g>
   <g id="patch_4">
    <path d="M 419.04 263.2975 
L 419.04 26.318281 
" style="fill:none;stroke:#000000;stroke-linecap:square;stroke-linejoin:miter;"/>
   </g>
   <g id="patch_5">
    <path d="M 42.785938 263.2975 
L 419.04 263.2975 
" style="fill:none;stroke:#000000;stroke-linecap:square;stroke-linejoin:miter;"/>
   </g>
   <g id="patch_6">
    <path d="M 42.785938 263.2975 
L 42.785938 26.318281 
" style="fill:none;stroke:#000000;stroke-linecap:square;stroke-linejoin:miter;"/>
   </g>
   <g id="line2d_42">
    <path clip-path="url(#pad0b5a861f)" d="M 249.523545 252.012775 
L 249.315431 251.297054 
L 248.691924 250.584214 
L 247.655536 249.877127 
L 246.210441 249.178639 
L 244.362457 248.491564 
L 242.119024 247.818667 
L 239.489178 247.162658 
L 236.483506 246.526179 
L 233.114113 245.911793 
L 229.394565 245.321973 
L 225.339839 244.759094 
L 220.966263 244.225424 
L 216.291448 243.72311 
L 211.334217 243.254176 
L 206.11453 242.82051 
L 200.653407 242.423858 
L 194.972838 242.065817 
L 189.095695 241.747829 
L 183.045643 241.471174 
L 176.847046 241.236966 
L 170.524861 241.046149 
L 164.104546 240.899491 
L 157.611954 240.797582 
L 151.073227 240.740832 
L 144.514696 240.729471 
L 137.962768 240.763544 
L 131.443827 240.842913 
L 124.984121 240.967259 
L 118.609662 241.136082 
L 112.346117 241.348701 
L 106.218708 241.604261 
L 100.252107 241.901732 
L 94.470339 242.239917 
L 88.896687 242.617454 
L 83.553592 243.032822 
L 78.462571 243.484349 
L 73.644121 243.970218 
L 69.117647 244.488471 
L 64.901373 245.037021 
L 61.012278 245.613661 
L 57.466022 246.216067 
L 54.276884 246.841815 
L 51.457706 247.488385 
L 49.019839 248.153172 
L 46.9731 248.833501 
L 45.325731 249.526632 
L 44.084365 250.229773 
L 43.253999 250.940094 
L 42.837979 251.654734 
L 42.837979 252.370816 
L 43.253999 253.085457 
L 44.084365 253.795778 
L 45.325731 254.498919 
L 46.9731 255.19205 
L 49.019839 255.872378 
L 51.457706 256.537166 
L 54.276884 257.183735 
L 57.466022 257.809483 
L 61.012278 258.41189 
L 64.901373 258.988529 
L 69.117647 259.53708 
L 73.644121 260.055333 
L 78.462571 260.541201 
L 83.553592 260.992729 
L 88.896687 261.408097 
L 94.470339 261.785634 
L 100.252107 262.123818 
L 106.218708 262.42129 
L 112.346117 262.676849 
L 118.609662 262.889469 
L 124.984121 263.058291 
L 131.443827 263.182638 
L 137.962768 263.262007 
L 144.514696 263.29608 
L 151.073227 263.284718 
L 157.611954 263.227969 
L 164.104546 263.12606 
L 170.524861 262.979401 
L 176.847046 262.788584 
L 183.045643 262.554377 
L 189.095695 262.277722 
L 194.972838 261.959734 
L 200.653407 261.601693 
L 206.11453 261.205041 
L 211.334217 260.771374 
L 216.291448 260.30244 
L 220.966263 259.800127 
L 225.339839 259.266457 
L 229.394565 258.703578 
L 233.114113 258.113758 
L 236.483506 257.499372 
L 239.489178 256.862893 
L 242.119024 256.206884 
L 244.362457 255.533987 
L 246.210441 254.846911 
L 247.655536 254.148423 
L 248.691924 253.441336 
L 249.315431 252.728497 
L 249.523545 252.012775 
" style="fill:none;stroke:#000000;stroke-dasharray:6.000000,6.000000;stroke-dashoffset:0.0;"/>
   </g>
   <g id="text_15">
    <!-- Nyquist plot from: u(1) -->
    <defs>
     <path d="M 9.8125 72.90625 
L 23.09375 72.90625 
L 55.421875 11.921875 
L 55.421875 72.90625 
L 64.984375 72.90625 
L 64.984375 0 
L 51.703125 0 
L 19.390625 60.984375 
L 19.390625 0 
L 9.8125 0 
z
" id="BitstreamVeraSans-Roman-4e"/>
     <path d="M 37.109375 75.984375 
L 37.109375 68.5 
L 28.515625 68.5 
Q 23.6875 68.5 21.796875 66.546875 
Q 19.921875 64.59375 19.921875 59.515625 
L 19.921875 54.6875 
L 34.71875 54.6875 
L 34.71875 47.703125 
L 19.921875 47.703125 
L 19.921875 0 
L 10.890625 0 
L 10.890625 47.703125 
L 2.296875 47.703125 
L 2.296875 54.6875 
L 10.890625 54.6875 
L 10.890625 58.5 
Q 10.890625 67.625 15.140625 71.796875 
Q 19.390625 75.984375 28.609375 75.984375 
z
" id="BitstreamVeraSans-Roman-66"/>
     <path d="M 52 44.1875 
Q 55.375 50.25 60.0625 53.125 
Q 64.75 56 71.09375 56 
Q 79.640625 56 84.28125 50.015625 
Q 88.921875 44.046875 88.921875 33.015625 
L 88.921875 0 
L 79.890625 0 
L 79.890625 32.71875 
Q 79.890625 40.578125 77.09375 44.375 
Q 74.3125 48.1875 68.609375 48.1875 
Q 61.625 48.1875 57.5625 43.546875 
Q 53.515625 38.921875 53.515625 30.90625 
L 53.515625 0 
L 44.484375 0 
L 44.484375 32.71875 
Q 44.484375 40.625 41.703125 44.40625 
Q 38.921875 48.1875 33.109375 48.1875 
Q 26.21875 48.1875 22.15625 43.53125 
Q 18.109375 38.875 18.109375 30.90625 
L 18.109375 0 
L 9.078125 0 
L 9.078125 54.6875 
L 18.109375 54.6875 
L 18.109375 46.1875 
Q 21.1875 51.21875 25.484375 53.609375 
Q 29.78125 56 35.6875 56 
Q 41.65625 56 45.828125 52.96875 
Q 50 49.953125 52 44.1875 
" id="BitstreamVeraSans-Roman-6d"/>
     <path d="M 9.421875 75.984375 
L 18.40625 75.984375 
L 18.40625 0 
L 9.421875 0 
z
" id="BitstreamVeraSans-Roman-6c"/>
     <path d="M 9.421875 54.6875 
L 18.40625 54.6875 
L 18.40625 0 
L 9.421875 0 
z
M 9.421875 75.984375 
L 18.40625 75.984375 
L 18.40625 64.59375 
L 9.421875 64.59375 
z
" id="BitstreamVeraSans-Roman-69"/>
     <path d="M 18.3125 70.21875 
L 18.3125 54.6875 
L 36.8125 54.6875 
L 36.8125 47.703125 
L 18.3125 47.703125 
L 18.3125 18.015625 
Q 18.3125 11.328125 20.140625 9.421875 
Q 21.96875 7.515625 27.59375 7.515625 
L 36.8125 7.515625 
L 36.8125 0 
L 27.59375 0 
Q 17.1875 0 13.234375 3.875 
Q 9.28125 7.765625 9.28125 18.015625 
L 9.28125 47.703125 
L 2.6875 47.703125 
L 2.6875 54.6875 
L 9.28125 54.6875 
L 9.28125 70.21875 
z
" id="BitstreamVeraSans-Roman-74"/>
     <path d="M 8.5 21.578125 
L 8.5 54.6875 
L 17.484375 54.6875 
L 17.484375 21.921875 
Q 17.484375 14.15625 20.5 10.265625 
Q 23.53125 6.390625 29.59375 6.390625 
Q 36.859375 6.390625 41.078125 11.03125 
Q 45.3125 15.671875 45.3125 23.6875 
L 45.3125 54.6875 
L 54.296875 54.6875 
L 54.296875 0 
L 45.3125 0 
L 45.3125 8.40625 
Q 42.046875 3.421875 37.71875 1 
Q 33.40625 -1.421875 27.6875 -1.421875 
Q 18.265625 -1.421875 13.375 4.4375 
Q 8.5 10.296875 8.5 21.578125 
" id="BitstreamVeraSans-Roman-75"/>
     <path d="M 41.109375 46.296875 
Q 39.59375 47.171875 37.8125 47.578125 
Q 36.03125 48 33.890625 48 
Q 26.265625 48 22.1875 43.046875 
Q 18.109375 38.09375 18.109375 28.8125 
L 18.109375 0 
L 9.078125 0 
L 9.078125 54.6875 
L 18.109375 54.6875 
L 18.109375 46.1875 
Q 20.953125 51.171875 25.484375 53.578125 
Q 30.03125 56 36.53125 56 
Q 37.453125 56 38.578125 55.875 
Q 39.703125 55.765625 41.0625 55.515625 
z
" id="BitstreamVeraSans-Roman-72"/>
     <path d="M 44.28125 53.078125 
L 44.28125 44.578125 
Q 40.484375 46.53125 36.375 47.5 
Q 32.28125 48.484375 27.875 48.484375 
Q 21.1875 48.484375 17.84375 46.4375 
Q 14.5 44.390625 14.5 40.28125 
Q 14.5 37.15625 16.890625 35.375 
Q 19.28125 33.59375 26.515625 31.984375 
L 29.59375 31.296875 
Q 39.15625 29.25 43.1875 25.515625 
Q 47.21875 21.78125 47.21875 15.09375 
Q 47.21875 7.46875 41.1875 3.015625 
Q 35.15625 -1.421875 24.609375 -1.421875 
Q 20.21875 -1.421875 15.453125 -0.5625 
Q 10.6875 0.296875 5.421875 2 
L 5.421875 11.28125 
Q 10.40625 8.6875 15.234375 7.390625 
Q 20.0625 6.109375 24.8125 6.109375 
Q 31.15625 6.109375 34.5625 8.28125 
Q 37.984375 10.453125 37.984375 14.40625 
Q 37.984375 18.0625 35.515625 20.015625 
Q 33.0625 21.96875 24.703125 23.78125 
L 21.578125 24.515625 
Q 13.234375 26.265625 9.515625 29.90625 
Q 5.8125 33.546875 5.8125 39.890625 
Q 5.8125 47.609375 11.28125 51.796875 
Q 16.75 56 26.8125 56 
Q 31.78125 56 36.171875 55.265625 
Q 40.578125 54.546875 44.28125 53.078125 
" id="BitstreamVeraSans-Roman-73"/>
     <path d="M 18.109375 8.203125 
L 18.109375 -20.796875 
L 9.078125 -20.796875 
L 9.078125 54.6875 
L 18.109375 54.6875 
L 18.109375 46.390625 
Q 20.953125 51.265625 25.265625 53.625 
Q 29.59375 56 35.59375 56 
Q 45.5625 56 51.78125 48.09375 
Q 58.015625 40.1875 58.015625 27.296875 
Q 58.015625 14.40625 51.78125 6.484375 
Q 45.5625 -1.421875 35.59375 -1.421875 
Q 29.59375 -1.421875 25.265625 0.953125 
Q 20.953125 3.328125 18.109375 8.203125 
M 48.6875 27.296875 
Q 48.6875 37.203125 44.609375 42.84375 
Q 40.53125 48.484375 33.40625 48.484375 
Q 26.265625 48.484375 22.1875 42.84375 
Q 18.109375 37.203125 18.109375 27.296875 
Q 18.109375 17.390625 22.1875 11.75 
Q 26.265625 6.109375 33.40625 6.109375 
Q 40.53125 6.109375 44.609375 11.75 
Q 48.6875 17.390625 48.6875 27.296875 
" id="BitstreamVeraSans-Roman-70"/>
     <path d="M 14.796875 27.296875 
Q 14.796875 17.390625 18.875 11.75 
Q 22.953125 6.109375 30.078125 6.109375 
Q 37.203125 6.109375 41.296875 11.75 
Q 45.40625 17.390625 45.40625 27.296875 
Q 45.40625 37.203125 41.296875 42.84375 
Q 37.203125 48.484375 30.078125 48.484375 
Q 22.953125 48.484375 18.875 42.84375 
Q 14.796875 37.203125 14.796875 27.296875 
M 45.40625 8.203125 
Q 42.578125 3.328125 38.25 0.953125 
Q 33.9375 -1.421875 27.875 -1.421875 
Q 17.96875 -1.421875 11.734375 6.484375 
Q 5.515625 14.40625 5.515625 27.296875 
Q 5.515625 40.1875 11.734375 48.09375 
Q 17.96875 56 27.875 56 
Q 33.9375 56 38.25 53.625 
Q 42.578125 51.265625 45.40625 46.390625 
L 45.40625 54.6875 
L 54.390625 54.6875 
L 54.390625 -20.796875 
L 45.40625 -20.796875 
z
" id="BitstreamVeraSans-Roman-71"/>
    </defs>
    <g transform="translate(168.18375 21.31828125)scale(0.11 -0.11)">
     <use xlink:href="#BitstreamVeraSans-Roman-4e"/>
     <use x="74.8046875" xlink:href="#BitstreamVeraSans-Roman-79"/>
     <use x="133.984375" xlink:href="#BitstreamVeraSans-Roman-71"/>
     <use x="197.4609375" xlink:href="#BitstreamVeraSans-Roman-75"/>
     <use x="260.83984375" xlink:href="#BitstreamVeraSans-Roman-69"/>
     <use x="288.623046875" xlink:href="#BitstreamVeraSans-Roman-73"/>
     <use x="340.72265625" xlink:href="#BitstreamVeraSans-Roman-74"/>
     <use x="379.931640625" xlink:href="#BitstreamVeraSans-Roman-20"/>
     <use x="411.71875" xlink:href="#BitstreamVeraSans-Roman-70"/>
     <use x="475.1953125" xlink:href="#BitstreamVeraSans-Roman-6c"/>
     <use x="502.978515625" xlink:href="#BitstreamVeraSans-Roman-6f"/>
     <use x="564.16015625" xlink:href="#BitstreamVeraSans-Roman-74"/>
     <use x="603.369140625" xlink:href="#BitstreamVeraSans-Roman-20"/>
     <use x="635.15625" xlink:href="#BitstreamVeraSans-Roman-66"/>
     <use x="670.361328125" xlink:href="#BitstreamVeraSans-Roman-72"/>
     <use x="711.443359375" xlink:href="#BitstreamVeraSans-Roman-6f"/>
     <use x="772.625" xlink:href="#BitstreamVeraSans-Roman-6d"/>
     <use x="870.037109375" xlink:href="#BitstreamVeraSans-Roman-3a"/>
     <use x="903.728515625" xlink:href="#BitstreamVeraSans-Roman-20"/>
     <use x="935.515625" xlink:href="#BitstreamVeraSans-Roman-75"/>
     <use x="998.89453125" xlink:href="#BitstreamVeraSans-Roman-28"/>
     <use x="1037.90820312" xlink:href="#BitstreamVeraSans-Roman-31"/>
     <use x="1101.53125" xlink:href="#BitstreamVeraSans-Roman-29"/>
    </g>
   </g>
   <g id="line2d_43">
    <path clip-path="url(#pad0b5a861f)" d="M 146.154741 252.012775 
L 145.946627 251.297054 
L 145.32312 250.584214 
L 144.286733 249.877127 
L 142.841637 249.178639 
L 140.993653 248.491564 
L 138.75022 247.818667 
L 136.120374 247.162658 
L 133.114702 246.526179 
L 129.745309 245.911793 
L 126.025761 245.321973 
L 121.971035 244.759094 
L 117.597459 244.225424 
L 112.922644 243.72311 
L 107.965413 243.254176 
L 102.745726 242.82051 
L 97.284604 242.423858 
L 91.604034 242.065817 
L 85.726891 241.747829 
L 79.676839 241.471174 
L 73.478242 241.236966 
L 67.156057 241.046149 
L 60.735742 240.899491 
L 54.24315 240.797582 
L 47.704423 240.740832 
L 41.145892 240.729471 
L 34.593964 240.763544 
L 28.075023 240.842913 
L 21.615317 240.967259 
L 15.240858 241.136082 
L 8.977313 241.348701 
L 2.849904 241.604261 
L -1 241.796202 
M -1 262.229349 
L 2.849904 262.42129 
L 8.977313 262.676849 
L 15.240858 262.889469 
L 21.615317 263.058291 
L 28.075023 263.182638 
L 34.593964 263.262007 
L 41.145892 263.29608 
L 47.704423 263.284718 
L 54.24315 263.227969 
L 60.735742 263.12606 
L 67.156057 262.979401 
L 73.478242 262.788584 
L 79.676839 262.554377 
L 85.726891 262.277722 
L 91.604034 261.959734 
L 97.284604 261.601693 
L 102.745726 261.205041 
L 107.965413 260.771374 
L 112.922644 260.30244 
L 117.597459 259.800127 
L 121.971035 259.266457 
L 126.025761 258.703578 
L 129.745309 258.113758 
L 133.114702 257.499372 
L 136.120374 256.862893 
L 138.75022 256.206884 
L 140.993653 255.533987 
L 142.841637 254.846911 
L 144.286733 254.148423 
L 145.32312 253.441336 
L 145.946627 252.728497 
L 146.154741 252.012775 
" style="fill:none;stroke:#ff0000;stroke-dasharray:6.000000,6.000000;stroke-dashoffset:0.0;"/>
   </g>
   <g id="legend_1">
    <g id="patch_7">
     <path d="M 46.785938 56.203281 
L 85.410938 56.203281 
L 85.410938 30.318281 
L 46.785938 30.318281 
z
" style="fill:#ffffff;stroke:#000000;stroke-linejoin:miter;"/>
    </g>
    <g id="line2d_44">
     <path d="M 52.385938 36.797031 
L 63.585938 36.797031 
" style="fill:none;stroke:#cc1414;stroke-linecap:round;"/>
    </g>
    <g id="line2d_45"/>
    <g id="text_16">
     <!-- y1 -->
     <g transform="translate(72.3859375 39.59703125)scale(0.08 -0.08)">
      <use xlink:href="#BitstreamVeraSans-Roman-79"/>
      <use x="59.1796875" xlink:href="#BitstreamVeraSans-Roman-31"/>
     </g>
    </g>
    <g id="line2d_46">
     <path d="M 52.385938 48.539531 
L 63.585938 48.539531 
" style="fill:none;stroke:#14cc2b;stroke-linecap:round;"/>
    </g>
    <g id="line2d_47"/>
    <g id="text_17">
     <!-- y2 -->
     <g transform="translate(72.3859375 51.33953125)scale(0.08 -0.08)">
      <use xlink:href="#BitstreamVeraSans-Roman-79"/>
      <use x="59.1796875" xlink:href="#BitstreamVeraSans-Roman-32"/>
     </g>
    </g>
   </g>
  </g>
 </g>
 <defs>
  <clipPath id="pad0b5a861f">
   <rect height="236.97921875" width="376.2540625" x="42.7859375" y="26.31828125"/>
  </clipPath>
 </defs>
</svg>
