<?xml version="1.0" encoding="utf-8"?>
<svg xmlns="http://www.w3.org/2000/svg" xmlns:xlink="http://www.w3.org/1999/xlink" width="600" height="400" viewBox="0 0 600 400">
<defs>
  <clipPath id="clip7800">
    <rect x="0" y="0" width="600" height="400"/>
  </clipPath>
</defs>
<polygon clip-path="url(#clip7800)" points="
0,400 600,400 600,0 0,0 
  " fill="#ffffff" fill-opacity="1"/>
<defs>
  <clipPath id="clip7801">
    <rect x="120" y="0" width="421" height="400"/>
  </clipPath>
</defs>
<polygon clip-path="url(#clip7800)" points="
23.622,384.252 580.315,384.252 580.315,11.811 23.622,11.811 
  " fill="#ffffff" fill-opacity="1"/>
<defs>
  <clipPath id="clip7802">
    <rect x="23" y="11" width="558" height="373"/>
  </clipPath>
</defs>
<polyline clip-path="url(#clip7802)" style="stroke:#000000; stroke-width:0.5; stroke-opacity:0.1; fill:none" points="
  39.3205,384.252 39.3205,11.811 
  "/>
<polyline clip-path="url(#clip7802)" style="stroke:#000000; stroke-width:0.5; stroke-opacity:0.1; fill:none" points="
  152.521,384.252 152.521,11.811 
  "/>
<polyline clip-path="url(#clip7802)" style="stroke:#000000; stroke-width:0.5; stroke-opacity:0.1; fill:none" points="
  265.721,384.252 265.721,11.811 
  "/>
<polyline clip-path="url(#clip7802)" style="stroke:#000000; stroke-width:0.5; stroke-opacity:0.1; fill:none" points="
  378.921,384.252 378.921,11.811 
  "/>
<polyline clip-path="url(#clip7802)" style="stroke:#000000; stroke-width:0.5; stroke-opacity:0.1; fill:none" points="
  492.121,384.252 492.121,11.811 
  "/>
<polyline clip-path="url(#clip7802)" style="stroke:#000000; stroke-width:0.5; stroke-opacity:0.1; fill:none" points="
  23.622,366.139 580.315,366.139 
  "/>
<polyline clip-path="url(#clip7802)" style="stroke:#000000; stroke-width:0.5; stroke-opacity:0.1; fill:none" points="
  23.622,290.405 580.315,290.405 
  "/>
<polyline clip-path="url(#clip7802)" style="stroke:#000000; stroke-width:0.5; stroke-opacity:0.1; fill:none" points="
  23.622,214.672 580.315,214.672 
  "/>
<polyline clip-path="url(#clip7802)" style="stroke:#000000; stroke-width:0.5; stroke-opacity:0.1; fill:none" points="
  23.622,138.938 580.315,138.938 
  "/>
<polyline clip-path="url(#clip7802)" style="stroke:#000000; stroke-width:0.5; stroke-opacity:0.1; fill:none" points="
  23.622,63.2043 580.315,63.2043 
  "/>
<polyline clip-path="url(#clip7800)" style="stroke:#000000; stroke-width:1; stroke-opacity:1; fill:none" points="
  23.622,384.252 580.315,384.252 
  "/>
<polyline clip-path="url(#clip7800)" style="stroke:#000000; stroke-width:1; stroke-opacity:1; fill:none" points="
  23.622,384.252 23.622,11.811 
  "/>
<polyline clip-path="url(#clip7800)" style="stroke:#000000; stroke-width:1; stroke-opacity:1; fill:none" points="
  39.3205,384.252 39.3205,378.665 
  "/>
<polyline clip-path="url(#clip7800)" style="stroke:#000000; stroke-width:1; stroke-opacity:1; fill:none" points="
  152.521,384.252 152.521,378.665 
  "/>
<polyline clip-path="url(#clip7800)" style="stroke:#000000; stroke-width:1; stroke-opacity:1; fill:none" points="
  265.721,384.252 265.721,378.665 
  "/>
<polyline clip-path="url(#clip7800)" style="stroke:#000000; stroke-width:1; stroke-opacity:1; fill:none" points="
  378.921,384.252 378.921,378.665 
  "/>
<polyline clip-path="url(#clip7800)" style="stroke:#000000; stroke-width:1; stroke-opacity:1; fill:none" points="
  492.121,384.252 492.121,378.665 
  "/>
<polyline clip-path="url(#clip7800)" style="stroke:#000000; stroke-width:1; stroke-opacity:1; fill:none" points="
  23.622,366.139 31.9724,366.139 
  "/>
<polyline clip-path="url(#clip7800)" style="stroke:#000000; stroke-width:1; stroke-opacity:1; fill:none" points="
  23.622,290.405 31.9724,290.405 
  "/>
<polyline clip-path="url(#clip7800)" style="stroke:#000000; stroke-width:1; stroke-opacity:1; fill:none" points="
  23.622,214.672 31.9724,214.672 
  "/>
<polyline clip-path="url(#clip7800)" style="stroke:#000000; stroke-width:1; stroke-opacity:1; fill:none" points="
  23.622,138.938 31.9724,138.938 
  "/>
<polyline clip-path="url(#clip7800)" style="stroke:#000000; stroke-width:1; stroke-opacity:1; fill:none" points="
  23.622,63.2043 31.9724,63.2043 
  "/>
<g clip-path="url(#clip7800)">
<text style="fill:#000000; fill-opacity:1; font-family:Arial,Helvetica Neue,Helvetica,sans-serif; font-size:12; text-anchor:middle;" transform="rotate(0, 39.3205, 398.052)" x="39.3205" y="398.052">-2</text>
</g>
<g clip-path="url(#clip7800)">
<text style="fill:#000000; fill-opacity:1; font-family:Arial,Helvetica Neue,Helvetica,sans-serif; font-size:12; text-anchor:middle;" transform="rotate(0, 152.521, 398.052)" x="152.521" y="398.052">-1</text>
</g>
<g clip-path="url(#clip7800)">
<text style="fill:#000000; fill-opacity:1; font-family:Arial,Helvetica Neue,Helvetica,sans-serif; font-size:12; text-anchor:middle;" transform="rotate(0, 265.721, 398.052)" x="265.721" y="398.052">0</text>
</g>
<g clip-path="url(#clip7800)">
<text style="fill:#000000; fill-opacity:1; font-family:Arial,Helvetica Neue,Helvetica,sans-serif; font-size:12; text-anchor:middle;" transform="rotate(0, 378.921, 398.052)" x="378.921" y="398.052">1</text>
</g>
<g clip-path="url(#clip7800)">
<text style="fill:#000000; fill-opacity:1; font-family:Arial,Helvetica Neue,Helvetica,sans-serif; font-size:12; text-anchor:middle;" transform="rotate(0, 492.121, 398.052)" x="492.121" y="398.052">2</text>
</g>
<g clip-path="url(#clip7800)">
<text style="fill:#000000; fill-opacity:1; font-family:Arial,Helvetica Neue,Helvetica,sans-serif; font-size:12; text-anchor:end;" transform="rotate(0, 17.622, 370.639)" x="17.622" y="370.639">0</text>
</g>
<g clip-path="url(#clip7800)">
<text style="fill:#000000; fill-opacity:1; font-family:Arial,Helvetica Neue,Helvetica,sans-serif; font-size:12; text-anchor:end;" transform="rotate(0, 17.622, 294.905)" x="17.622" y="294.905">10</text>
</g>
<g clip-path="url(#clip7800)">
<text style="fill:#000000; fill-opacity:1; font-family:Arial,Helvetica Neue,Helvetica,sans-serif; font-size:12; text-anchor:end;" transform="rotate(0, 17.622, 219.172)" x="17.622" y="219.172">20</text>
</g>
<g clip-path="url(#clip7800)">
<text style="fill:#000000; fill-opacity:1; font-family:Arial,Helvetica Neue,Helvetica,sans-serif; font-size:12; text-anchor:end;" transform="rotate(0, 17.622, 143.438)" x="17.622" y="143.438">30</text>
</g>
<g clip-path="url(#clip7800)">
<text style="fill:#000000; fill-opacity:1; font-family:Arial,Helvetica Neue,Helvetica,sans-serif; font-size:12; text-anchor:end;" transform="rotate(0, 17.622, 67.7043)" x="17.622" y="67.7043">40</text>
</g>
<polyline clip-path="url(#clip7802)" style="stroke:#cc1414; stroke-width:1; stroke-opacity:1; fill:none" points="
  378.807,366.442 378.798,366.453 378.789,366.466 378.778,366.479 378.767,366.492 378.754,366.506 378.741,366.52 378.727,366.535 378.711,366.551 378.694,366.567 
  378.676,366.584 378.657,366.601 378.635,366.619 378.613,366.638 378.588,366.658 378.561,366.678 378.533,366.699 378.502,366.721 378.468,366.744 378.432,366.767 
  378.393,366.792 378.35,366.818 378.305,366.844 378.256,366.872 378.202,366.9 378.145,366.93 378.083,366.961 378.016,366.993 377.944,367.026 377.866,367.061 
  377.782,367.097 377.691,367.134 377.593,367.172 377.487,367.212 377.372,367.254 377.249,367.297 377.116,367.342 376.972,367.389 376.817,367.437 376.65,367.487 
  376.469,367.539 376.274,367.592 376.064,367.648 375.837,367.706 375.593,367.765 375.329,367.827 375.045,367.891 374.739,367.958 374.408,368.026 374.052,368.097 
  373.668,368.171 373.255,368.247 372.81,368.325 372.33,368.406 371.814,368.489 371.258,368.576 370.66,368.664 370.017,368.756 369.325,368.85 368.582,368.947 
  367.782,369.046 366.924,369.148 366.002,369.252 365.013,369.359 363.951,369.469 362.814,369.581 361.595,369.695 360.289,369.811 358.893,369.929 357.399,370.048 
  355.804,370.169 354.101,370.291 352.285,370.414 350.351,370.537 348.293,370.66 346.105,370.783 343.782,370.904 341.321,371.024 338.715,371.141 335.962,371.255 
  333.058,371.366 330,371.471 326.788,371.571 323.42,371.664 319.897,371.749 316.222,371.825 312.4,371.892 308.435,371.947 304.337,371.989 300.116,372.017 
  295.784,372.031 291.359,372.028 286.857,372.007 282.301,371.968 277.715,371.91 273.125,371.831 268.563,371.73 264.06,371.609 259.65,371.465 255.37,371.3 
  251.257,371.113 247.35,370.906 243.685,370.679 240.299,370.434 237.226,370.173 234.498,369.898 232.142,369.611 230.18,369.315 228.628,369.014 227.497,368.71 
  226.789,368.407 226.498,368.108 226.613,367.816 227.114,367.536 227.973,367.269 229.159,367.018 230.632,366.786 232.351,366.574 234.269,366.383 236.341,366.215 
  238.521,366.069 240.762,365.945 243.022,365.843 245.263,365.762 247.449,365.699 249.552,365.655 251.546,365.626 253.413,365.611 255.14,365.608 256.719,365.614 
  258.145,365.629 259.42,365.65 260.546,365.676 261.53,365.705 262.381,365.737 263.108,365.769 263.723,365.801 264.236,365.833 264.66,365.864 265.005,365.893 
  265.281,365.92 265.5,365.945 265.669,365.968 265.797,365.989 265.89,366.008 265.956,366.026 266,366.041 266.025,366.054 266.037,366.066 266.039,366.076 
  266.033,366.085 266.021,366.093 266.006,366.1 265.988,366.106 265.968,366.111 265.948,366.115 265.928,366.119 265.909,366.122 265.891,366.125 265.873,366.127 
  265.857,366.129 265.842,366.13 265.829,366.132 265.816,366.133 265.805,366.134 265.795,366.135 265.786,366.135 265.778,366.136 265.771,366.136 265.764,366.137 
  265.759,366.137 265.754,366.137 265.75,366.138 265.746,366.138 265.742,366.138 265.74,366.138 265.737,366.138 265.735,366.138 265.733,366.138 265.731,366.138 
  265.73,366.139 265.728,366.139 265.727,366.139 265.726,366.139 265.726,366.139 265.725,366.139 265.724,366.139 265.724,366.139 265.723,366.139 265.723,366.139 
  265.723,366.139 265.722,366.139 265.722,366.139 265.722,366.139 265.722,366.139 265.722,366.139 265.721,366.139 265.721,366.139 265.721,366.139 265.721,366.139 
  265.721,366.139 265.721,366.139 265.721,366.139 265.721,366.139 265.721,366.139 265.721,366.139 265.721,366.139 265.721,366.139 265.721,366.139 265.721,366.139 
  265.721,366.139 265.721,366.139 265.721,366.139 265.721,366.139 265.721,366.139 265.721,366.139 265.721,366.139 265.721,366.139 265.721,366.139 265.721,366.139 
  265.721,366.139 265.721,366.139 265.721,366.139 265.721,366.139 265.721,366.139 265.721,366.139 265.721,366.139 265.721,366.139 265.721,366.139 265.721,366.139 
  265.721,366.139 265.721,366.139 265.721,366.139 265.721,366.139 265.721,366.139 265.721,366.139 265.721,366.139 265.721,366.139 265.721,366.139 265.721,366.139 
  
  "/>
<polyline clip-path="url(#clip7802)" style="stroke:#14cc2a; stroke-width:1; stroke-opacity:1; fill:none" points="
  564.56,22.3518 564.544,35.394 564.527,47.945 564.509,60.0233 564.489,71.647 564.467,82.8332 564.444,93.5987 564.419,103.959 564.392,113.931 564.363,123.527 
  564.332,132.764 564.298,141.653 564.261,150.209 564.222,158.445 564.179,166.372 564.133,174.002 564.083,181.347 564.029,188.417 563.971,195.224 563.909,201.776 
  563.841,208.085 563.768,214.158 563.689,220.006 563.603,225.637 563.511,231.059 563.412,236.28 563.304,241.308 563.188,246.151 563.063,250.816 562.928,255.309 
  562.782,259.638 562.624,263.808 562.454,267.826 562.271,271.698 562.072,275.43 561.858,279.027 561.627,282.494 561.378,285.837 561.109,289.06 560.819,292.169 
  560.505,295.168 560.167,298.06 559.803,300.852 559.409,303.546 558.985,306.146 558.527,308.657 558.034,311.083 557.501,313.425 556.927,315.689 556.309,317.878 
  555.642,319.993 554.923,322.04 554.149,324.019 553.315,325.935 552.416,327.79 551.449,329.587 550.408,331.328 549.287,333.015 548.081,334.651 546.784,336.239 
  545.389,337.779 543.89,339.274 542.28,340.727 540.55,342.138 538.693,343.509 536.701,344.843 534.565,346.141 532.275,347.403 529.822,348.632 527.197,349.828 
  524.388,350.992 521.387,352.127 518.181,353.231 514.761,354.306 511.116,355.353 507.234,356.372 503.105,357.364 498.718,358.327 494.065,359.263 489.134,360.172 
  483.918,361.052 478.409,361.904 472.601,362.726 466.489,363.519 460.071,364.281 453.345,365.011 446.313,365.708 438.981,366.37 431.356,366.997 423.449,367.586 
  415.276,368.136 406.856,368.645 398.214,369.112 389.378,369.534 380.381,369.912 371.262,370.243 362.065,370.525 352.836,370.759 343.629,370.944 334.498,371.079 
  325.503,371.164 316.704,371.201 308.164,371.19 299.945,371.134 292.106,371.033 284.705,370.892 277.797,370.714 271.428,370.502 265.639,370.262 260.461,369.997 
  255.918,369.713 252.02,369.414 248.769,369.108 246.156,368.797 244.159,368.488 242.748,368.185 241.884,367.893 241.52,367.614 241.603,367.353 242.074,367.112 
  242.874,366.893 243.943,366.696 245.22,366.523 246.649,366.372 248.177,366.245 249.756,366.138 251.344,366.052 252.907,365.985 254.414,365.934 255.843,365.897 
  257.177,365.873 258.406,365.86 259.521,365.856 260.522,365.858 261.409,365.866 262.187,365.878 262.862,365.893 263.44,365.91 263.931,365.928 264.342,365.946 
  264.684,365.965 264.964,365.982 265.191,365.999 265.373,366.015 265.515,366.03 265.626,366.043 265.71,366.055 265.772,366.066 265.816,366.076 265.847,366.084 
  265.866,366.092 265.876,366.099 265.88,366.104 265.879,366.109 265.874,366.114 265.867,366.118 265.858,366.121 265.849,366.124 265.839,366.126 265.829,366.128 
  265.819,366.13 265.809,366.131 265.8,366.132 265.792,366.133 265.784,366.134 265.777,366.135 265.77,366.136 265.765,366.136 265.759,366.137 265.755,366.137 
  265.75,366.137 265.747,366.138 265.743,366.138 265.74,366.138 265.738,366.138 265.736,366.138 265.734,366.138 265.732,366.138 265.73,366.138 265.729,366.138 
  265.728,366.139 265.727,366.139 265.726,366.139 265.725,366.139 265.725,366.139 265.724,366.139 265.724,366.139 265.723,366.139 265.723,366.139 265.723,366.139 
  265.722,366.139 265.722,366.139 265.722,366.139 265.722,366.139 265.722,366.139 265.721,366.139 265.721,366.139 265.721,366.139 265.721,366.139 265.721,366.139 
  265.721,366.139 265.721,366.139 265.721,366.139 265.721,366.139 265.721,366.139 265.721,366.139 265.721,366.139 265.721,366.139 265.721,366.139 265.721,366.139 
  265.721,366.139 265.721,366.139 265.721,366.139 265.721,366.139 265.721,366.139 265.721,366.139 265.721,366.139 265.721,366.139 265.721,366.139 265.721,366.139 
  265.721,366.139 265.721,366.139 265.721,366.139 265.721,366.139 265.721,366.139 265.721,366.139 265.721,366.139 265.721,366.139 265.721,366.139 265.721,366.139 
  265.721,366.139 265.721,366.139 265.721,366.139 265.721,366.139 265.721,366.139 265.721,366.139 265.721,366.139 265.721,366.139 265.721,366.139 265.721,366.139 
  
  "/>
<polyline clip-path="url(#clip7802)" style="stroke:#000000; stroke-width:1; stroke-opacity:1; fill:none" stroke-dasharray="8, 5" points="
  378.921,366.139 378.693,365.658 378.01,365.18 376.875,364.706 375.292,364.237 373.269,363.776 370.812,363.324 367.932,362.884 364.64,362.457 360.951,362.044 
  356.877,361.648 352.437,361.271 347.647,360.913 342.528,360.575 337.099,360.261 331.383,359.97 325.403,359.703 319.182,359.463 312.746,359.25 306.12,359.064 
  299.332,358.907 292.409,358.779 285.378,358.68 278.267,358.612 271.107,358.574 263.925,358.566 256.749,358.589 249.611,358.643 242.536,358.726 235.556,358.839 
  228.696,358.982 221.986,359.153 215.452,359.353 209.121,359.58 203.017,359.833 197.166,360.112 191.59,360.415 186.314,360.741 181.357,361.089 176.739,361.457 
  172.48,361.844 168.597,362.249 165.104,362.668 162.017,363.102 159.347,363.549 157.106,364.005 155.302,364.47 153.942,364.942 153.033,365.419 152.578,365.898 
  152.578,366.379 153.033,366.859 153.942,367.335 155.302,367.807 157.106,368.272 159.347,368.729 162.017,369.175 165.104,369.609 168.597,370.029 172.48,370.433 
  176.739,370.82 181.357,371.188 186.314,371.536 191.59,371.862 197.166,372.165 203.017,372.444 209.121,372.698 215.452,372.924 221.986,373.124 228.696,373.296 
  235.556,373.438 242.536,373.552 249.611,373.635 256.749,373.688 263.925,373.711 271.107,373.704 278.267,373.665 285.378,373.597 292.409,373.499 299.332,373.371 
  306.12,373.213 312.746,373.028 319.182,372.814 325.403,372.574 331.383,372.308 337.099,372.017 342.528,371.702 347.647,371.365 352.437,371.007 356.877,370.629 
  360.951,370.233 364.64,369.821 367.932,369.394 370.812,368.954 373.269,368.502 375.292,368.041 376.875,367.572 378.01,367.098 378.693,366.619 378.921,366.139 
  
  "/>
<polyline clip-path="url(#clip7802)" style="stroke:#000000; stroke-width:1; stroke-opacity:1; fill:none" stroke-dasharray="8, 5" points="
  265.721,366.139 265.493,365.658 264.81,365.18 263.675,364.706 262.092,364.237 260.069,363.776 257.612,363.324 254.732,362.884 251.44,362.457 247.75,362.044 
  243.677,361.648 239.237,361.271 234.447,360.913 229.328,360.575 223.899,360.261 218.183,359.97 212.202,359.703 205.982,359.463 199.546,359.25 192.92,359.064 
  186.132,358.907 179.208,358.779 172.178,358.68 165.067,358.612 157.907,358.574 150.725,358.566 143.549,358.589 136.411,358.643 129.336,358.726 122.356,358.839 
  115.496,358.982 108.786,359.153 102.252,359.353 95.9205,359.58 89.8168,359.833 83.9655,360.112 78.3903,360.415 73.1136,360.741 68.1566,361.089 63.5393,361.457 
  59.2803,361.844 55.3968,362.249 51.9043,362.668 48.817,363.102 46.1473,363.549 43.9059,364.005 42.1019,364.47 40.7424,364.942 39.8331,365.419 39.3775,365.898 
  39.3775,366.379 39.8331,366.859 40.7424,367.335 42.1019,367.807 43.9059,368.272 46.1473,368.729 48.817,369.175 51.9043,369.609 55.3968,370.029 59.2803,370.433 
  63.5393,370.82 68.1566,371.188 73.1136,371.536 78.3903,371.862 83.9655,372.165 89.8168,372.444 95.9205,372.698 102.252,372.924 108.786,373.124 115.496,373.296 
  122.356,373.438 129.336,373.552 136.411,373.635 143.549,373.688 150.725,373.711 157.907,373.704 165.067,373.665 172.178,373.597 179.208,373.499 186.132,373.371 
  192.92,373.213 199.546,373.028 205.982,372.814 212.202,372.574 218.183,372.308 223.899,372.017 229.328,371.702 234.447,371.365 239.237,371.007 243.677,370.629 
  247.75,370.233 251.44,369.821 254.732,369.394 257.612,368.954 260.069,368.502 262.092,368.041 263.675,367.572 264.81,367.098 265.493,366.619 265.721,366.139 
  
  "/>
<polygon clip-path="url(#clip7800)" points="
487.517,78.051 562.315,78.051 562.315,32.691 487.517,32.691 
  " fill="#ffffff" fill-opacity="1"/>
<polyline clip-path="url(#clip7800)" style="stroke:#000000; stroke-width:1; stroke-opacity:1; fill:none" points="
  487.517,78.051 562.315,78.051 562.315,32.691 487.517,32.691 487.517,78.051 
  "/>
<polyline clip-path="url(#clip7800)" style="stroke:#cc1414; stroke-width:1; stroke-opacity:1; fill:none" points="
  493.517,47.811 529.517,47.811 
  "/>
<polyline clip-path="url(#clip7800)" style="stroke:#14cc2a; stroke-width:1; stroke-opacity:1; fill:none" points="
  493.517,62.931 529.517,62.931 
  "/>
</svg>
