<?xml version="1.0" encoding="utf-8" standalone="no"?>
<!DOCTYPE svg PUBLIC "-//W3C//DTD SVG 1.1//EN"
  "http://www.w3.org/Graphics/SVG/1.1/DTD/svg11.dtd">
<!-- Created with matplotlib (http://matplotlib.org/) -->
<svg height="288pt" version="1.1" viewBox="0 0 432 288" width="432pt" xmlns="http://www.w3.org/2000/svg" xmlns:xlink="http://www.w3.org/1999/xlink">
 <defs>
  <style type="text/css">
*{stroke-linecap:butt;stroke-linejoin:round;stroke-miterlimit:100000;}
  </style>
 </defs>
 <g id="figure_1">
  <g id="patch_1">
   <path d="M 0 288 
L 432 288 
L 432 0 
L 0 0 
z
" style="fill:#ffffff;"/>
  </g>
  <g id="axes_1">
   <g id="patch_2">
    <path d="M 35.774646 273.965354 
L 424.035354 273.965354 
L 424.035354 18.634646 
L 35.774646 18.634646 
z
" style="fill:#ffffff;"/>
   </g>
   <g id="matplotlib.axis_1">
    <g id="xtick_1">
     <g id="line2d_1">
      <path clip-path="url(#pe1c39db73c)" d="M 54.263251 273.965354 
L 54.263251 18.634646 
" style="fill:none;stroke:#000000;stroke-dasharray:1.000000,3.000000;stroke-dashoffset:0.0;stroke-width:0.5;"/>
     </g>
     <g id="line2d_2">
      <defs>
       <path d="M 0 0 
L 0 -4 
" id="m29647cdc6f" style="stroke:#000000;stroke-width:0.5;"/>
      </defs>
      <g>
       <use style="stroke:#000000;stroke-width:0.5;" x="54.2632508436" xlink:href="#m29647cdc6f" y="273.965354331"/>
      </g>
     </g>
     <g id="line2d_3">
      <defs>
       <path d="M 0 0 
L 0 4 
" id="m7dab94639d" style="stroke:#000000;stroke-width:0.5;"/>
      </defs>
      <g>
       <use style="stroke:#000000;stroke-width:0.5;" x="54.2632508436" xlink:href="#m7dab94639d" y="18.6346456693"/>
      </g>
     </g>
     <g id="text_1">
      <!-- 0 -->
      <defs>
       <path d="M 31.78125 66.40625 
Q 24.171875 66.40625 20.328125 58.90625 
Q 16.5 51.421875 16.5 36.375 
Q 16.5 21.390625 20.328125 13.890625 
Q 24.171875 6.390625 31.78125 6.390625 
Q 39.453125 6.390625 43.28125 13.890625 
Q 47.125 21.390625 47.125 36.375 
Q 47.125 51.421875 43.28125 58.90625 
Q 39.453125 66.40625 31.78125 66.40625 
M 31.78125 74.21875 
Q 44.046875 74.21875 50.515625 64.515625 
Q 56.984375 54.828125 56.984375 36.375 
Q 56.984375 17.96875 50.515625 8.265625 
Q 44.046875 -1.421875 31.78125 -1.421875 
Q 19.53125 -1.421875 13.0625 8.265625 
Q 6.59375 17.96875 6.59375 36.375 
Q 6.59375 54.828125 13.0625 64.515625 
Q 19.53125 74.21875 31.78125 74.21875 
" id="BitstreamVeraSans-Roman-30"/>
      </defs>
      <g transform="translate(51.7182508436 284.044104331)scale(0.08 -0.08)">
       <use xlink:href="#BitstreamVeraSans-Roman-30"/>
      </g>
     </g>
    </g>
    <g id="xtick_2">
     <g id="line2d_4">
      <path clip-path="url(#pe1c39db73c)" d="M 146.706277 273.965354 
L 146.706277 18.634646 
" style="fill:none;stroke:#000000;stroke-dasharray:1.000000,3.000000;stroke-dashoffset:0.0;stroke-width:0.5;"/>
     </g>
     <g id="line2d_5">
      <g>
       <use style="stroke:#000000;stroke-width:0.5;" x="146.706276715" xlink:href="#m29647cdc6f" y="273.965354331"/>
      </g>
     </g>
     <g id="line2d_6">
      <g>
       <use style="stroke:#000000;stroke-width:0.5;" x="146.706276715" xlink:href="#m7dab94639d" y="18.6346456693"/>
      </g>
     </g>
     <g id="text_2">
      <!-- 5 -->
      <defs>
       <path d="M 10.796875 72.90625 
L 49.515625 72.90625 
L 49.515625 64.59375 
L 19.828125 64.59375 
L 19.828125 46.734375 
Q 21.96875 47.46875 24.109375 47.828125 
Q 26.265625 48.1875 28.421875 48.1875 
Q 40.625 48.1875 47.75 41.5 
Q 54.890625 34.8125 54.890625 23.390625 
Q 54.890625 11.625 47.5625 5.09375 
Q 40.234375 -1.421875 26.90625 -1.421875 
Q 22.3125 -1.421875 17.546875 -0.640625 
Q 12.796875 0.140625 7.71875 1.703125 
L 7.71875 11.625 
Q 12.109375 9.234375 16.796875 8.0625 
Q 21.484375 6.890625 26.703125 6.890625 
Q 35.15625 6.890625 40.078125 11.328125 
Q 45.015625 15.765625 45.015625 23.390625 
Q 45.015625 31 40.078125 35.4375 
Q 35.15625 39.890625 26.703125 39.890625 
Q 22.75 39.890625 18.8125 39.015625 
Q 14.890625 38.140625 10.796875 36.28125 
z
" id="BitstreamVeraSans-Roman-35"/>
      </defs>
      <g transform="translate(144.161276715 284.044104331)scale(0.08 -0.08)">
       <use xlink:href="#BitstreamVeraSans-Roman-35"/>
      </g>
     </g>
    </g>
    <g id="xtick_3">
     <g id="line2d_7">
      <path clip-path="url(#pe1c39db73c)" d="M 239.149303 273.965354 
L 239.149303 18.634646 
" style="fill:none;stroke:#000000;stroke-dasharray:1.000000,3.000000;stroke-dashoffset:0.0;stroke-width:0.5;"/>
     </g>
     <g id="line2d_8">
      <g>
       <use style="stroke:#000000;stroke-width:0.5;" x="239.149302587" xlink:href="#m29647cdc6f" y="273.965354331"/>
      </g>
     </g>
     <g id="line2d_9">
      <g>
       <use style="stroke:#000000;stroke-width:0.5;" x="239.149302587" xlink:href="#m7dab94639d" y="18.6346456693"/>
      </g>
     </g>
     <g id="text_3">
      <!-- 10 -->
      <defs>
       <path d="M 12.40625 8.296875 
L 28.515625 8.296875 
L 28.515625 63.921875 
L 10.984375 60.40625 
L 10.984375 69.390625 
L 28.421875 72.90625 
L 38.28125 72.90625 
L 38.28125 8.296875 
L 54.390625 8.296875 
L 54.390625 0 
L 12.40625 0 
z
" id="BitstreamVeraSans-Roman-31"/>
      </defs>
      <g transform="translate(234.059302587 284.044104331)scale(0.08 -0.08)">
       <use xlink:href="#BitstreamVeraSans-Roman-31"/>
       <use x="63.623046875" xlink:href="#BitstreamVeraSans-Roman-30"/>
      </g>
     </g>
    </g>
    <g id="xtick_4">
     <g id="line2d_10">
      <path clip-path="url(#pe1c39db73c)" d="M 331.592328 273.965354 
L 331.592328 18.634646 
" style="fill:none;stroke:#000000;stroke-dasharray:1.000000,3.000000;stroke-dashoffset:0.0;stroke-width:0.5;"/>
     </g>
     <g id="line2d_11">
      <g>
       <use style="stroke:#000000;stroke-width:0.5;" x="331.592328459" xlink:href="#m29647cdc6f" y="273.965354331"/>
      </g>
     </g>
     <g id="line2d_12">
      <g>
       <use style="stroke:#000000;stroke-width:0.5;" x="331.592328459" xlink:href="#m7dab94639d" y="18.6346456693"/>
      </g>
     </g>
     <g id="text_4">
      <!-- 15 -->
      <g transform="translate(326.502328459 284.044104331)scale(0.08 -0.08)">
       <use xlink:href="#BitstreamVeraSans-Roman-31"/>
       <use x="63.623046875" xlink:href="#BitstreamVeraSans-Roman-35"/>
      </g>
     </g>
    </g>
    <g id="xtick_5">
     <g id="line2d_13">
      <path clip-path="url(#pe1c39db73c)" d="M 424.035354 273.965354 
L 424.035354 18.634646 
" style="fill:none;stroke:#000000;stroke-dasharray:1.000000,3.000000;stroke-dashoffset:0.0;stroke-width:0.5;"/>
     </g>
     <g id="line2d_14">
      <g>
       <use style="stroke:#000000;stroke-width:0.5;" x="424.035354331" xlink:href="#m29647cdc6f" y="273.965354331"/>
      </g>
     </g>
     <g id="line2d_15">
      <g>
       <use style="stroke:#000000;stroke-width:0.5;" x="424.035354331" xlink:href="#m7dab94639d" y="18.6346456693"/>
      </g>
     </g>
     <g id="text_5">
      <!-- 20 -->
      <defs>
       <path d="M 19.1875 8.296875 
L 53.609375 8.296875 
L 53.609375 0 
L 7.328125 0 
L 7.328125 8.296875 
Q 12.9375 14.109375 22.625 23.890625 
Q 32.328125 33.6875 34.8125 36.53125 
Q 39.546875 41.84375 41.421875 45.53125 
Q 43.3125 49.21875 43.3125 52.78125 
Q 43.3125 58.59375 39.234375 62.25 
Q 35.15625 65.921875 28.609375 65.921875 
Q 23.96875 65.921875 18.8125 64.3125 
Q 13.671875 62.703125 7.8125 59.421875 
L 7.8125 69.390625 
Q 13.765625 71.78125 18.9375 73 
Q 24.125 74.21875 28.421875 74.21875 
Q 39.75 74.21875 46.484375 68.546875 
Q 53.21875 62.890625 53.21875 53.421875 
Q 53.21875 48.921875 51.53125 44.890625 
Q 49.859375 40.875 45.40625 35.40625 
Q 44.1875 33.984375 37.640625 27.21875 
Q 31.109375 20.453125 19.1875 8.296875 
" id="BitstreamVeraSans-Roman-32"/>
      </defs>
      <g transform="translate(418.945354331 284.044104331)scale(0.08 -0.08)">
       <use xlink:href="#BitstreamVeraSans-Roman-32"/>
       <use x="63.623046875" xlink:href="#BitstreamVeraSans-Roman-30"/>
      </g>
     </g>
    </g>
   </g>
   <g id="matplotlib.axis_2">
    <g id="ytick_1">
     <g id="line2d_16">
      <path clip-path="url(#pe1c39db73c)" d="M 35.774646 251.641451 
L 424.035354 251.641451 
" style="fill:none;stroke:#000000;stroke-dasharray:1.000000,3.000000;stroke-dashoffset:0.0;stroke-width:0.5;"/>
     </g>
     <g id="line2d_17">
      <defs>
       <path d="M 0 0 
L 4 0 
" id="ma22d0cb6a9" style="stroke:#000000;stroke-width:0.5;"/>
      </defs>
      <g>
       <use style="stroke:#000000;stroke-width:0.5;" x="35.7746456693" xlink:href="#ma22d0cb6a9" y="251.641450706"/>
      </g>
     </g>
     <g id="line2d_18">
      <defs>
       <path d="M 0 0 
L -4 0 
" id="mecb767e62c" style="stroke:#000000;stroke-width:0.5;"/>
      </defs>
      <g>
       <use style="stroke:#000000;stroke-width:0.5;" x="424.035354331" xlink:href="#mecb767e62c" y="251.641450706"/>
      </g>
     </g>
     <g id="text_6">
      <!-- -10 -->
      <defs>
       <path d="M 4.890625 31.390625 
L 31.203125 31.390625 
L 31.203125 23.390625 
L 4.890625 23.390625 
z
" id="BitstreamVeraSans-Roman-2d"/>
      </defs>
      <g transform="translate(18.7083956693 253.848950706)scale(0.08 -0.08)">
       <use xlink:href="#BitstreamVeraSans-Roman-2d"/>
       <use x="36.083984375" xlink:href="#BitstreamVeraSans-Roman-31"/>
       <use x="99.70703125" xlink:href="#BitstreamVeraSans-Roman-30"/>
      </g>
     </g>
    </g>
    <g id="ytick_2">
     <g id="line2d_19">
      <path clip-path="url(#pe1c39db73c)" d="M 35.774646 173.972516 
L 424.035354 173.972516 
" style="fill:none;stroke:#000000;stroke-dasharray:1.000000,3.000000;stroke-dashoffset:0.0;stroke-width:0.5;"/>
     </g>
     <g id="line2d_20">
      <g>
       <use style="stroke:#000000;stroke-width:0.5;" x="35.7746456693" xlink:href="#ma22d0cb6a9" y="173.972515694"/>
      </g>
     </g>
     <g id="line2d_21">
      <g>
       <use style="stroke:#000000;stroke-width:0.5;" x="424.035354331" xlink:href="#mecb767e62c" y="173.972515694"/>
      </g>
     </g>
     <g id="text_7">
      <!-- 0 -->
      <g transform="translate(26.6846456693 176.180015694)scale(0.08 -0.08)">
       <use xlink:href="#BitstreamVeraSans-Roman-30"/>
      </g>
     </g>
    </g>
    <g id="ytick_3">
     <g id="line2d_22">
      <path clip-path="url(#pe1c39db73c)" d="M 35.774646 96.303581 
L 424.035354 96.303581 
" style="fill:none;stroke:#000000;stroke-dasharray:1.000000,3.000000;stroke-dashoffset:0.0;stroke-width:0.5;"/>
     </g>
     <g id="line2d_23">
      <g>
       <use style="stroke:#000000;stroke-width:0.5;" x="35.7746456693" xlink:href="#ma22d0cb6a9" y="96.3035806815"/>
      </g>
     </g>
     <g id="line2d_24">
      <g>
       <use style="stroke:#000000;stroke-width:0.5;" x="424.035354331" xlink:href="#mecb767e62c" y="96.3035806815"/>
      </g>
     </g>
     <g id="text_8">
      <!-- 10 -->
      <g transform="translate(21.5946456693 98.5110806815)scale(0.08 -0.08)">
       <use xlink:href="#BitstreamVeraSans-Roman-31"/>
       <use x="63.623046875" xlink:href="#BitstreamVeraSans-Roman-30"/>
      </g>
     </g>
    </g>
    <g id="ytick_4">
     <g id="line2d_25">
      <path clip-path="url(#pe1c39db73c)" d="M 35.774646 18.634646 
L 424.035354 18.634646 
" style="fill:none;stroke:#000000;stroke-dasharray:1.000000,3.000000;stroke-dashoffset:0.0;stroke-width:0.5;"/>
     </g>
     <g id="line2d_26">
      <g>
       <use style="stroke:#000000;stroke-width:0.5;" x="35.7746456693" xlink:href="#ma22d0cb6a9" y="18.6346456693"/>
      </g>
     </g>
     <g id="line2d_27">
      <g>
       <use style="stroke:#000000;stroke-width:0.5;" x="424.035354331" xlink:href="#mecb767e62c" y="18.6346456693"/>
      </g>
     </g>
     <g id="text_9">
      <!-- 20 -->
      <g transform="translate(21.5946456693 20.8421456693)scale(0.08 -0.08)">
       <use xlink:href="#BitstreamVeraSans-Roman-32"/>
       <use x="63.623046875" xlink:href="#BitstreamVeraSans-Roman-30"/>
      </g>
     </g>
    </g>
    <g id="text_10">
     <!-- To: y(1) -->
     <defs>
      <path id="BitstreamVeraSans-Roman-20"/>
      <path d="M 8.015625 75.875 
L 15.828125 75.875 
Q 23.140625 64.359375 26.78125 53.3125 
Q 30.421875 42.28125 30.421875 31.390625 
Q 30.421875 20.453125 26.78125 9.375 
Q 23.140625 -1.703125 15.828125 -13.1875 
L 8.015625 -13.1875 
Q 14.5 -2 17.703125 9.0625 
Q 20.90625 20.125 20.90625 31.390625 
Q 20.90625 42.671875 17.703125 53.65625 
Q 14.5 64.65625 8.015625 75.875 
" id="BitstreamVeraSans-Roman-29"/>
      <path d="M 31 75.875 
Q 24.46875 64.65625 21.28125 53.65625 
Q 18.109375 42.671875 18.109375 31.390625 
Q 18.109375 20.125 21.3125 9.0625 
Q 24.515625 -2 31 -13.1875 
L 23.1875 -13.1875 
Q 15.875 -1.703125 12.234375 9.375 
Q 8.59375 20.453125 8.59375 31.390625 
Q 8.59375 42.28125 12.203125 53.3125 
Q 15.828125 64.359375 23.1875 75.875 
z
" id="BitstreamVeraSans-Roman-28"/>
      <path d="M 30.609375 48.390625 
Q 23.390625 48.390625 19.1875 42.75 
Q 14.984375 37.109375 14.984375 27.296875 
Q 14.984375 17.484375 19.15625 11.84375 
Q 23.34375 6.203125 30.609375 6.203125 
Q 37.796875 6.203125 41.984375 11.859375 
Q 46.1875 17.53125 46.1875 27.296875 
Q 46.1875 37.015625 41.984375 42.703125 
Q 37.796875 48.390625 30.609375 48.390625 
M 30.609375 56 
Q 42.328125 56 49.015625 48.375 
Q 55.71875 40.765625 55.71875 27.296875 
Q 55.71875 13.875 49.015625 6.21875 
Q 42.328125 -1.421875 30.609375 -1.421875 
Q 18.84375 -1.421875 12.171875 6.21875 
Q 5.515625 13.875 5.515625 27.296875 
Q 5.515625 40.765625 12.171875 48.375 
Q 18.84375 56 30.609375 56 
" id="BitstreamVeraSans-Roman-6f"/>
      <path d="M 11.71875 12.40625 
L 22.015625 12.40625 
L 22.015625 0 
L 11.71875 0 
z
M 11.71875 51.703125 
L 22.015625 51.703125 
L 22.015625 39.3125 
L 11.71875 39.3125 
z
" id="BitstreamVeraSans-Roman-3a"/>
      <path d="M -0.296875 72.90625 
L 61.375 72.90625 
L 61.375 64.59375 
L 35.5 64.59375 
L 35.5 0 
L 25.59375 0 
L 25.59375 64.59375 
L -0.296875 64.59375 
z
" id="BitstreamVeraSans-Roman-54"/>
      <path d="M 32.171875 -5.078125 
Q 28.375 -14.84375 24.75 -17.8125 
Q 21.140625 -20.796875 15.09375 -20.796875 
L 7.90625 -20.796875 
L 7.90625 -13.28125 
L 13.1875 -13.28125 
Q 16.890625 -13.28125 18.9375 -11.515625 
Q 21 -9.765625 23.484375 -3.21875 
L 25.09375 0.875 
L 2.984375 54.6875 
L 12.5 54.6875 
L 29.59375 11.921875 
L 46.6875 54.6875 
L 56.203125 54.6875 
z
" id="BitstreamVeraSans-Roman-79"/>
     </defs>
     <g transform="translate(11.4207394193 167.6571875)rotate(-90.0)scale(0.11 -0.11)">
      <use xlink:href="#BitstreamVeraSans-Roman-54"/>
      <use x="60.818359375" xlink:href="#BitstreamVeraSans-Roman-6f"/>
      <use x="122.0" xlink:href="#BitstreamVeraSans-Roman-3a"/>
      <use x="155.69140625" xlink:href="#BitstreamVeraSans-Roman-20"/>
      <use x="187.478515625" xlink:href="#BitstreamVeraSans-Roman-79"/>
      <use x="246.658203125" xlink:href="#BitstreamVeraSans-Roman-28"/>
      <use x="285.671875" xlink:href="#BitstreamVeraSans-Roman-31"/>
      <use x="349.294921875" xlink:href="#BitstreamVeraSans-Roman-29"/>
     </g>
    </g>
   </g>
   <g id="line2d_28">
    <path clip-path="url(#pe1c39db73c)" d="M 72.733374 174.283036 
L 72.534963 175.032538 
L 72.118865 175.769998 
L 71.402733 176.562624 
L 70.48029 177.275532 
L 69.236854 177.981983 
L 67.749468 178.609585 
L 65.735588 179.219936 
L 63.687047 179.638907 
L 61.239694 179.928671 
L 58.450634 180.011958 
L 56.222216 179.890881 
L 53.991962 179.582204 
L 51.900998 179.074074 
L 50.111164 178.377715 
L 49.163783 177.827465 
L 48.458521 177.229939 
L 48.020327 176.609088 
L 47.857154 175.991784 
L 47.957717 175.405279 
L 48.291747 174.874333 
L 48.813032 174.41852 
L 49.820786 173.900565 
L 50.921972 173.585641 
L 52.253112 173.431052 
L 53.418046 173.498215 
L 54.191531 173.747965 
L 54.303684 173.943927 
L 54.29404 173.955318 
L 54.263251 173.972516 
L 54.263251 173.972516 
" style="fill:none;stroke:#cc1414;stroke-linecap:round;"/>
   </g>
   <g id="line2d_29">
    <path clip-path="url(#pe1c39db73c)" d="M 433 273.364262 
L 405.930945 273.965354 
L 362.199201 273.648856 
L 321.529015 272.136035 
L 284.01654 269.587576 
L 249.711966 266.165623 
L 218.619658 262.030632 
L 190.699713 257.338319 
L 165.870881 252.236818 
L 144.014674 246.86417 
L 124.980455 241.346239 
L 108.591241 235.795123 
L 94.649924 230.308103 
L 82.945629 224.96713 
L 73.259908 219.838839 
L 65.372547 214.975022 
L 59.066753 210.413519 
L 54.133607 206.179412 
L 50.37566 202.28646 
L 47.609667 198.738667 
L 45.668456 195.531903 
L 44.401998 192.655508 
L 43.67777 190.093817 
L 43.380519 187.827552 
L 43.411547 185.835058 
L 43.687635 184.09337 
L 44.139723 182.579087 
L 44.711448 181.269078 
L 45.357624 180.141022 
L 46.739468 178.347736 
L 48.091831 177.048626 
L 49.859528 175.762032 
L 51.597788 174.825787 
L 53.246709 174.199077 
L 54.263248 173.972516 
L 54.263248 173.972516 
" style="fill:none;stroke:#14cc2b;stroke-linecap:round;"/>
   </g>
   <g id="patch_3">
    <path d="M 35.774646 18.634646 
L 424.035354 18.634646 
" style="fill:none;stroke:#000000;stroke-linecap:square;stroke-linejoin:miter;"/>
   </g>
   <g id="patch_4">
    <path d="M 424.035354 273.965354 
L 424.035354 18.634646 
" style="fill:none;stroke:#000000;stroke-linecap:square;stroke-linejoin:miter;"/>
   </g>
   <g id="patch_5">
    <path d="M 35.774646 273.965354 
L 424.035354 273.965354 
" style="fill:none;stroke:#000000;stroke-linecap:square;stroke-linejoin:miter;"/>
   </g>
   <g id="patch_6">
    <path d="M 35.774646 273.965354 
L 35.774646 18.634646 
" style="fill:none;stroke:#000000;stroke-linecap:square;stroke-linejoin:miter;"/>
   </g>
   <g id="line2d_30">
    <path clip-path="url(#pe1c39db73c)" d="M 72.751856 173.972516 
L 72.714632 173.479909 
L 72.603112 172.989286 
L 72.417743 172.502621 
L 72.159272 172.021876 
L 71.828741 171.548985 
L 71.427479 171.085853 
L 70.957103 170.634344 
L 70.419507 170.196277 
L 69.816855 169.773416 
L 69.151575 169.367463 
L 68.426344 168.980053 
L 67.644084 168.612746 
L 66.807943 168.26702 
L 65.92129 167.944269 
L 64.987694 167.645791 
L 64.010914 167.372789 
L 62.994884 167.126361 
L 61.943695 166.907501 
L 60.861579 166.717089 
L 59.752894 166.555892 
L 58.622105 166.424559 
L 57.473763 166.323619 
L 56.312495 166.253478 
L 55.142974 166.214419 
L 53.969911 166.2066 
L 52.79803 166.230051 
L 51.632048 166.284678 
L 50.476661 166.370261 
L 49.336522 166.486456 
L 48.21622 166.632795 
L 47.120268 166.808688 
L 46.053079 167.013427 
L 45.018948 167.246189 
L 44.022041 167.506034 
L 43.066372 167.791918 
L 42.155789 168.102689 
L 41.293959 168.437096 
L 40.484351 168.793792 
L 39.730226 169.171341 
L 39.03462 169.568222 
L 38.400334 169.982838 
L 37.829923 170.413519 
L 37.325683 170.858531 
L 36.889645 171.316082 
L 36.523564 171.784329 
L 36.228915 172.261387 
L 36.006883 172.745336 
L 35.858364 173.234226 
L 35.783954 173.726088 
L 35.783954 174.218943 
L 35.858364 174.710806 
L 36.006883 175.199696 
L 36.228915 175.683644 
L 36.523564 176.160702 
L 36.889645 176.62895 
L 37.325683 177.0865 
L 37.829923 177.531512 
L 38.400334 177.962193 
L 39.03462 178.376809 
L 39.730226 178.773691 
L 40.484351 179.15124 
L 41.293959 179.507935 
L 42.155789 179.842342 
L 43.066372 180.153113 
L 44.022041 180.438997 
L 45.018948 180.698843 
L 46.053079 180.931604 
L 47.120268 181.136343 
L 48.21622 181.312236 
L 49.336522 181.458575 
L 50.476661 181.57477 
L 51.632048 181.660353 
L 52.79803 181.714981 
L 53.969911 181.738432 
L 55.142974 181.730612 
L 56.312495 181.691553 
L 57.473763 181.621413 
L 58.622105 181.520473 
L 59.752894 181.38914 
L 60.861579 181.227943 
L 61.943695 181.037531 
L 62.994884 180.81867 
L 64.010914 180.572243 
L 64.987694 180.29924 
L 65.92129 180.000763 
L 66.807943 179.678011 
L 67.644084 179.332286 
L 68.426344 178.964979 
L 69.151575 178.577568 
L 69.816855 178.171615 
L 70.419507 177.748754 
L 70.957103 177.310687 
L 71.427479 176.859178 
L 71.828741 176.396046 
L 72.159272 175.923155 
L 72.417743 175.44241 
L 72.603112 174.955746 
L 72.714632 174.465123 
L 72.751856 173.972516 
" style="fill:none;stroke:#000000;stroke-dasharray:6.000000,6.000000;stroke-dashoffset:0.0;"/>
   </g>
   <g id="text_11">
    <!-- Nyquist plot from: u(1) -->
    <defs>
     <path d="M 9.8125 72.90625 
L 23.09375 72.90625 
L 55.421875 11.921875 
L 55.421875 72.90625 
L 64.984375 72.90625 
L 64.984375 0 
L 51.703125 0 
L 19.390625 60.984375 
L 19.390625 0 
L 9.8125 0 
z
" id="BitstreamVeraSans-Roman-4e"/>
     <path d="M 37.109375 75.984375 
L 37.109375 68.5 
L 28.515625 68.5 
Q 23.6875 68.5 21.796875 66.546875 
Q 19.921875 64.59375 19.921875 59.515625 
L 19.921875 54.6875 
L 34.71875 54.6875 
L 34.71875 47.703125 
L 19.921875 47.703125 
L 19.921875 0 
L 10.890625 0 
L 10.890625 47.703125 
L 2.296875 47.703125 
L 2.296875 54.6875 
L 10.890625 54.6875 
L 10.890625 58.5 
Q 10.890625 67.625 15.140625 71.796875 
Q 19.390625 75.984375 28.609375 75.984375 
z
" id="BitstreamVeraSans-Roman-66"/>
     <path d="M 52 44.1875 
Q 55.375 50.25 60.0625 53.125 
Q 64.75 56 71.09375 56 
Q 79.640625 56 84.28125 50.015625 
Q 88.921875 44.046875 88.921875 33.015625 
L 88.921875 0 
L 79.890625 0 
L 79.890625 32.71875 
Q 79.890625 40.578125 77.09375 44.375 
Q 74.3125 48.1875 68.609375 48.1875 
Q 61.625 48.1875 57.5625 43.546875 
Q 53.515625 38.921875 53.515625 30.90625 
L 53.515625 0 
L 44.484375 0 
L 44.484375 32.71875 
Q 44.484375 40.625 41.703125 44.40625 
Q 38.921875 48.1875 33.109375 48.1875 
Q 26.21875 48.1875 22.15625 43.53125 
Q 18.109375 38.875 18.109375 30.90625 
L 18.109375 0 
L 9.078125 0 
L 9.078125 54.6875 
L 18.109375 54.6875 
L 18.109375 46.1875 
Q 21.1875 51.21875 25.484375 53.609375 
Q 29.78125 56 35.6875 56 
Q 41.65625 56 45.828125 52.96875 
Q 50 49.953125 52 44.1875 
" id="BitstreamVeraSans-Roman-6d"/>
     <path d="M 9.421875 75.984375 
L 18.40625 75.984375 
L 18.40625 0 
L 9.421875 0 
z
" id="BitstreamVeraSans-Roman-6c"/>
     <path d="M 9.421875 54.6875 
L 18.40625 54.6875 
L 18.40625 0 
L 9.421875 0 
z
M 9.421875 75.984375 
L 18.40625 75.984375 
L 18.40625 64.59375 
L 9.421875 64.59375 
z
" id="BitstreamVeraSans-Roman-69"/>
     <path d="M 18.3125 70.21875 
L 18.3125 54.6875 
L 36.8125 54.6875 
L 36.8125 47.703125 
L 18.3125 47.703125 
L 18.3125 18.015625 
Q 18.3125 11.328125 20.140625 9.421875 
Q 21.96875 7.515625 27.59375 7.515625 
L 36.8125 7.515625 
L 36.8125 0 
L 27.59375 0 
Q 17.1875 0 13.234375 3.875 
Q 9.28125 7.765625 9.28125 18.015625 
L 9.28125 47.703125 
L 2.6875 47.703125 
L 2.6875 54.6875 
L 9.28125 54.6875 
L 9.28125 70.21875 
z
" id="BitstreamVeraSans-Roman-74"/>
     <path d="M 8.5 21.578125 
L 8.5 54.6875 
L 17.484375 54.6875 
L 17.484375 21.921875 
Q 17.484375 14.15625 20.5 10.265625 
Q 23.53125 6.390625 29.59375 6.390625 
Q 36.859375 6.390625 41.078125 11.03125 
Q 45.3125 15.671875 45.3125 23.6875 
L 45.3125 54.6875 
L 54.296875 54.6875 
L 54.296875 0 
L 45.3125 0 
L 45.3125 8.40625 
Q 42.046875 3.421875 37.71875 1 
Q 33.40625 -1.421875 27.6875 -1.421875 
Q 18.265625 -1.421875 13.375 4.4375 
Q 8.5 10.296875 8.5 21.578125 
" id="BitstreamVeraSans-Roman-75"/>
     <path d="M 41.109375 46.296875 
Q 39.59375 47.171875 37.8125 47.578125 
Q 36.03125 48 33.890625 48 
Q 26.265625 48 22.1875 43.046875 
Q 18.109375 38.09375 18.109375 28.8125 
L 18.109375 0 
L 9.078125 0 
L 9.078125 54.6875 
L 18.109375 54.6875 
L 18.109375 46.1875 
Q 20.953125 51.171875 25.484375 53.578125 
Q 30.03125 56 36.53125 56 
Q 37.453125 56 38.578125 55.875 
Q 39.703125 55.765625 41.0625 55.515625 
z
" id="BitstreamVeraSans-Roman-72"/>
     <path d="M 44.28125 53.078125 
L 44.28125 44.578125 
Q 40.484375 46.53125 36.375 47.5 
Q 32.28125 48.484375 27.875 48.484375 
Q 21.1875 48.484375 17.84375 46.4375 
Q 14.5 44.390625 14.5 40.28125 
Q 14.5 37.15625 16.890625 35.375 
Q 19.28125 33.59375 26.515625 31.984375 
L 29.59375 31.296875 
Q 39.15625 29.25 43.1875 25.515625 
Q 47.21875 21.78125 47.21875 15.09375 
Q 47.21875 7.46875 41.1875 3.015625 
Q 35.15625 -1.421875 24.609375 -1.421875 
Q 20.21875 -1.421875 15.453125 -0.5625 
Q 10.6875 0.296875 5.421875 2 
L 5.421875 11.28125 
Q 10.40625 8.6875 15.234375 7.390625 
Q 20.0625 6.109375 24.8125 6.109375 
Q 31.15625 6.109375 34.5625 8.28125 
Q 37.984375 10.453125 37.984375 14.40625 
Q 37.984375 18.0625 35.515625 20.015625 
Q 33.0625 21.96875 24.703125 23.78125 
L 21.578125 24.515625 
Q 13.234375 26.265625 9.515625 29.90625 
Q 5.8125 33.546875 5.8125 39.890625 
Q 5.8125 47.609375 11.28125 51.796875 
Q 16.75 56 26.8125 56 
Q 31.78125 56 36.171875 55.265625 
Q 40.578125 54.546875 44.28125 53.078125 
" id="BitstreamVeraSans-Roman-73"/>
     <path d="M 18.109375 8.203125 
L 18.109375 -20.796875 
L 9.078125 -20.796875 
L 9.078125 54.6875 
L 18.109375 54.6875 
L 18.109375 46.390625 
Q 20.953125 51.265625 25.265625 53.625 
Q 29.59375 56 35.59375 56 
Q 45.5625 56 51.78125 48.09375 
Q 58.015625 40.1875 58.015625 27.296875 
Q 58.015625 14.40625 51.78125 6.484375 
Q 45.5625 -1.421875 35.59375 -1.421875 
Q 29.59375 -1.421875 25.265625 0.953125 
Q 20.953125 3.328125 18.109375 8.203125 
M 48.6875 27.296875 
Q 48.6875 37.203125 44.609375 42.84375 
Q 40.53125 48.484375 33.40625 48.484375 
Q 26.265625 48.484375 22.1875 42.84375 
Q 18.109375 37.203125 18.109375 27.296875 
Q 18.109375 17.390625 22.1875 11.75 
Q 26.265625 6.109375 33.40625 6.109375 
Q 40.53125 6.109375 44.609375 11.75 
Q 48.6875 17.390625 48.6875 27.296875 
" id="BitstreamVeraSans-Roman-70"/>
     <path d="M 14.796875 27.296875 
Q 14.796875 17.390625 18.875 11.75 
Q 22.953125 6.109375 30.078125 6.109375 
Q 37.203125 6.109375 41.296875 11.75 
Q 45.40625 17.390625 45.40625 27.296875 
Q 45.40625 37.203125 41.296875 42.84375 
Q 37.203125 48.484375 30.078125 48.484375 
Q 22.953125 48.484375 18.875 42.84375 
Q 14.796875 37.203125 14.796875 27.296875 
M 45.40625 8.203125 
Q 42.578125 3.328125 38.25 0.953125 
Q 33.9375 -1.421875 27.875 -1.421875 
Q 17.96875 -1.421875 11.734375 6.484375 
Q 5.515625 14.40625 5.515625 27.296875 
Q 5.515625 40.1875 11.734375 48.09375 
Q 17.96875 56 27.875 56 
Q 33.9375 56 38.25 53.625 
Q 42.578125 51.265625 45.40625 46.390625 
L 45.40625 54.6875 
L 54.390625 54.6875 
L 54.390625 -20.796875 
L 45.40625 -20.796875 
z
" id="BitstreamVeraSans-Roman-71"/>
    </defs>
    <g transform="translate(150.0678125 13.6346456693)scale(0.14 -0.14)">
     <use xlink:href="#BitstreamVeraSans-Roman-4e"/>
     <use x="74.8046875" xlink:href="#BitstreamVeraSans-Roman-79"/>
     <use x="133.984375" xlink:href="#BitstreamVeraSans-Roman-71"/>
     <use x="197.4609375" xlink:href="#BitstreamVeraSans-Roman-75"/>
     <use x="260.83984375" xlink:href="#BitstreamVeraSans-Roman-69"/>
     <use x="288.623046875" xlink:href="#BitstreamVeraSans-Roman-73"/>
     <use x="340.72265625" xlink:href="#BitstreamVeraSans-Roman-74"/>
     <use x="379.931640625" xlink:href="#BitstreamVeraSans-Roman-20"/>
     <use x="411.71875" xlink:href="#BitstreamVeraSans-Roman-70"/>
     <use x="475.1953125" xlink:href="#BitstreamVeraSans-Roman-6c"/>
     <use x="502.978515625" xlink:href="#BitstreamVeraSans-Roman-6f"/>
     <use x="564.16015625" xlink:href="#BitstreamVeraSans-Roman-74"/>
     <use x="603.369140625" xlink:href="#BitstreamVeraSans-Roman-20"/>
     <use x="635.15625" xlink:href="#BitstreamVeraSans-Roman-66"/>
     <use x="670.361328125" xlink:href="#BitstreamVeraSans-Roman-72"/>
     <use x="711.443359375" xlink:href="#BitstreamVeraSans-Roman-6f"/>
     <use x="772.625" xlink:href="#BitstreamVeraSans-Roman-6d"/>
     <use x="870.037109375" xlink:href="#BitstreamVeraSans-Roman-3a"/>
     <use x="903.728515625" xlink:href="#BitstreamVeraSans-Roman-20"/>
     <use x="935.515625" xlink:href="#BitstreamVeraSans-Roman-75"/>
     <use x="998.89453125" xlink:href="#BitstreamVeraSans-Roman-28"/>
     <use x="1037.90820312" xlink:href="#BitstreamVeraSans-Roman-31"/>
     <use x="1101.53125" xlink:href="#BitstreamVeraSans-Roman-29"/>
    </g>
   </g>
   <g id="line2d_31">
    <path clip-path="url(#pe1c39db73c)" d="M 54.263251 173.972516 
L 54.226027 173.479909 
L 54.114507 172.989286 
L 53.929138 172.502621 
L 53.670667 172.021876 
L 53.340135 171.548985 
L 52.938874 171.085853 
L 52.468498 170.634344 
L 51.930902 170.196277 
L 51.32825 169.773416 
L 50.66297 169.367463 
L 49.937739 168.980053 
L 49.155479 168.612746 
L 48.319338 168.26702 
L 47.432685 167.944269 
L 46.499089 167.645791 
L 45.522309 167.372789 
L 44.506279 167.126361 
L 43.45509 166.907501 
L 42.372974 166.717089 
L 41.264289 166.555892 
L 40.1335 166.424559 
L 38.985158 166.323619 
L 37.823889 166.253478 
L 36.654369 166.214419 
L 35.481306 166.2066 
L 34.309425 166.230051 
L 33.143443 166.284678 
L 31.988056 166.370261 
L 30.847917 166.486456 
L 29.727615 166.632795 
L 28.631663 166.808688 
L 27.564473 167.013427 
L 26.530343 167.246189 
L 25.533436 167.506034 
L 24.577767 167.791918 
L 23.667184 168.102689 
L 22.805353 168.437096 
L 21.995746 168.793792 
L 21.24162 169.171341 
L 20.546015 169.568222 
L 19.911729 169.982838 
L 19.341318 170.413519 
L 18.837078 170.858531 
L 18.40104 171.316082 
L 18.034959 171.784329 
L 17.740309 172.261387 
L 17.518278 172.745336 
L 17.369758 173.234226 
L 17.295349 173.726088 
L 17.295349 174.218943 
L 17.369758 174.710806 
L 17.518278 175.199696 
L 17.740309 175.683644 
L 18.034959 176.160702 
L 18.40104 176.62895 
L 18.837078 177.0865 
L 19.341318 177.531512 
L 19.911729 177.962193 
L 20.546015 178.376809 
L 21.24162 178.773691 
L 21.995746 179.15124 
L 22.805353 179.507935 
L 23.667184 179.842342 
L 24.577767 180.153113 
L 25.533436 180.438997 
L 26.530343 180.698843 
L 27.564473 180.931604 
L 28.631663 181.136343 
L 29.727615 181.312236 
L 30.847917 181.458575 
L 31.988056 181.57477 
L 33.143443 181.660353 
L 34.309425 181.714981 
L 35.481306 181.738432 
L 36.654369 181.730612 
L 37.823889 181.691553 
L 38.985158 181.621413 
L 40.1335 181.520473 
L 41.264289 181.38914 
L 42.372974 181.227943 
L 43.45509 181.037531 
L 44.506279 180.81867 
L 45.522309 180.572243 
L 46.499089 180.29924 
L 47.432685 180.000763 
L 48.319338 179.678011 
L 49.155479 179.332286 
L 49.937739 178.964979 
L 50.66297 178.577568 
L 51.32825 178.171615 
L 51.930902 177.748754 
L 52.468498 177.310687 
L 52.938874 176.859178 
L 53.340135 176.396046 
L 53.670667 175.923155 
L 53.929138 175.44241 
L 54.114507 174.955746 
L 54.226027 174.465123 
L 54.263251 173.972516 
" style="fill:none;stroke:#ff0000;stroke-dasharray:6.000000,6.000000;stroke-dashoffset:0.0;"/>
   </g>
   <g id="legend_1">
    <g id="patch_7">
     <path d="M 39.774646 48.519646 
L 78.174646 48.519646 
L 78.174646 22.634646 
L 39.774646 22.634646 
z
" style="fill:#ffffff;stroke:#000000;stroke-linejoin:miter;"/>
    </g>
    <g id="line2d_32">
     <path d="M 45.374646 29.113396 
L 56.574646 29.113396 
" style="fill:none;stroke:#cc1414;stroke-linecap:round;"/>
    </g>
    <g id="line2d_33"/>
    <g id="text_12">
     <!-- $G_{1}$ -->
     <defs>
      <path d="M 14.59375 21.921875 
Q 14.59375 15.71875 17.0625 11.046875 
Q 19.53125 6.390625 24.171875 3.84375 
Q 28.8125 1.3125 34.90625 1.3125 
Q 40.875 1.3125 46.234375 4.125 
Q 51.609375 6.9375 52.984375 12.203125 
L 55.171875 20.796875 
Q 55.21875 21.09375 55.265625 21.40625 
Q 55.328125 21.734375 55.328125 21.921875 
Q 55.328125 22.953125 54.6875 23.09375 
Q 52.203125 23.78125 44.671875 23.78125 
Q 43.703125 23.78125 43.703125 25.09375 
Q 44 26.3125 44.234375 26.796875 
Q 44.484375 27.296875 45.40625 27.296875 
L 71.1875 27.296875 
Q 72.21875 27.296875 72.21875 25.984375 
Q 72.171875 25.734375 72.015625 25.140625 
Q 71.875 24.5625 71.625 24.171875 
Q 71.390625 23.78125 70.90625 23.78125 
Q 67.578125 23.78125 66.03125 23.234375 
Q 64.5 22.703125 63.921875 20.40625 
L 61.71875 11.8125 
L 58.890625 0.6875 
Q 58.734375 0 58.015625 0 
Q 57.171875 0 55.609375 2.25 
Q 54.046875 4.5 53.421875 6 
Q 49.953125 1.90625 44.140625 -0.140625 
Q 38.328125 -2.203125 32.171875 -2.203125 
Q 24.421875 -2.203125 18.1875 1.3125 
Q 11.96875 4.828125 8.515625 11.078125 
Q 5.078125 17.328125 5.078125 25.203125 
Q 5.078125 33.59375 8.8125 41.765625 
Q 12.546875 49.953125 18.9375 56.421875 
Q 25.34375 62.890625 33.46875 66.703125 
Q 41.609375 70.515625 49.90625 70.515625 
Q 53.21875 70.515625 56.265625 69.484375 
Q 59.328125 68.453125 61.9375 66.421875 
Q 64.546875 64.40625 66.21875 61.71875 
L 74.125 70.3125 
Q 74.125 70.515625 74.609375 70.515625 
L 75.203125 70.515625 
Q 75.59375 70.515625 75.859375 70.1875 
Q 76.125 69.875 76.125 69.484375 
L 69.28125 42.484375 
Q 69.28125 41.796875 68.5 41.796875 
L 66.703125 41.796875 
Q 65.921875 41.796875 65.921875 42.921875 
Q 66.3125 45.125 66.3125 48.09375 
Q 66.3125 53.03125 64.640625 57.375 
Q 62.984375 61.71875 59.46875 64.359375 
Q 55.953125 67 50.875 67 
Q 42.828125 67 35.984375 62.921875 
Q 29.15625 58.84375 24.40625 52.140625 
Q 19.671875 45.453125 17.125 37.4375 
Q 14.59375 29.4375 14.59375 21.921875 
" id="Cmmi10-47"/>
      <path d="M 9.28125 0 
L 9.28125 3.515625 
Q 21.78125 3.515625 21.78125 6.6875 
L 21.78125 59.1875 
Q 16.609375 56.6875 8.6875 56.6875 
L 8.6875 60.203125 
Q 20.953125 60.203125 27.203125 66.609375 
L 28.609375 66.609375 
Q 28.953125 66.609375 29.265625 66.328125 
Q 29.59375 66.0625 29.59375 65.71875 
L 29.59375 6.6875 
Q 29.59375 3.515625 42.09375 3.515625 
L 42.09375 0 
z
" id="Cmr10-31"/>
     </defs>
     <g transform="translate(65.3746456693 31.9133956693)scale(0.08 -0.08)">
      <use transform="translate(0.0 0.484375)" xlink:href="#Cmmi10-47"/>
      <use transform="translate(78.61328125 -16.521875)scale(0.7)" xlink:href="#Cmr10-31"/>
     </g>
    </g>
    <g id="line2d_34">
     <path d="M 45.374646 40.855896 
L 56.574646 40.855896 
" style="fill:none;stroke:#14cc2b;stroke-linecap:round;"/>
    </g>
    <g id="line2d_35"/>
    <g id="text_13">
     <!-- $G_{2}$ -->
     <defs>
      <path d="M 4.984375 0 
L 4.984375 2.6875 
Q 4.984375 2.9375 5.171875 3.21875 
L 20.703125 20.40625 
Q 24.21875 24.21875 26.40625 26.796875 
Q 28.609375 29.390625 30.75 32.765625 
Q 32.90625 36.140625 34.15625 39.625 
Q 35.40625 43.109375 35.40625 47.015625 
Q 35.40625 51.125 33.890625 54.859375 
Q 32.375 58.59375 29.375 60.84375 
Q 26.375 63.09375 22.125 63.09375 
Q 17.78125 63.09375 14.3125 60.46875 
Q 10.84375 57.859375 9.421875 53.71875 
Q 9.8125 53.8125 10.5 53.8125 
Q 12.75 53.8125 14.328125 52.296875 
Q 15.921875 50.78125 15.921875 48.390625 
Q 15.921875 46.09375 14.328125 44.5 
Q 12.75 42.921875 10.5 42.921875 
Q 8.15625 42.921875 6.5625 44.546875 
Q 4.984375 46.1875 4.984375 48.390625 
Q 4.984375 52.15625 6.390625 55.4375 
Q 7.8125 58.734375 10.46875 61.296875 
Q 13.140625 63.875 16.484375 65.234375 
Q 19.828125 66.609375 23.578125 66.609375 
Q 29.296875 66.609375 34.21875 64.1875 
Q 39.15625 61.765625 42.03125 57.34375 
Q 44.921875 52.9375 44.921875 47.015625 
Q 44.921875 42.671875 43.015625 38.765625 
Q 41.109375 34.859375 38.125 31.65625 
Q 35.15625 28.46875 30.515625 24.40625 
Q 25.875 20.359375 24.421875 19 
L 13.09375 8.109375 
L 22.703125 8.109375 
Q 29.78125 8.109375 34.546875 8.21875 
Q 39.3125 8.34375 39.59375 8.59375 
Q 40.765625 9.859375 42 17.828125 
L 44.921875 17.828125 
L 42.09375 0 
z
" id="Cmr10-32"/>
     </defs>
     <g transform="translate(65.3746456693 43.6558956693)scale(0.08 -0.08)">
      <use transform="translate(0.0 0.484375)" xlink:href="#Cmmi10-47"/>
      <use transform="translate(78.61328125 -16.521875)scale(0.7)" xlink:href="#Cmr10-32"/>
     </g>
    </g>
   </g>
  </g>
 </g>
 <defs>
  <clipPath id="pe1c39db73c">
   <rect height="255.330708661" width="388.260708661" x="35.7746456693" y="18.6346456693"/>
  </clipPath>
 </defs>
</svg>
