<?xml version="1.0" encoding="utf-8" standalone="no"?>
<!DOCTYPE svg PUBLIC "-//W3C//DTD SVG 1.1//EN"
  "http://www.w3.org/Graphics/SVG/1.1/DTD/svg11.dtd">
<!-- Created with matplotlib (http://matplotlib.org/) -->
<svg height="288pt" version="1.1" viewBox="0 0 432 288" width="432pt" xmlns="http://www.w3.org/2000/svg" xmlns:xlink="http://www.w3.org/1999/xlink">
 <defs>
  <style type="text/css">
*{stroke-linecap:butt;stroke-linejoin:round;stroke-miterlimit:100000;}
  </style>
 </defs>
 <g id="figure_1">
  <g id="patch_1">
   <path d="M 0 288 
L 432 288 
L 432 0 
L 0 0 
z
" style="fill:#ffffff;"/>
  </g>
  <g id="axes_1">
   <g id="patch_2">
    <path d="M 49.489688 263.2975 
L 413.95 263.2975 
L 413.95 26.318281 
L 49.489688 26.318281 
z
" style="fill:#ffffff;"/>
   </g>
   <g id="matplotlib.axis_1">
    <g id="xtick_1">
     <g id="line2d_1">
      <path clip-path="url(#p253e6538fa)" d="M 66.84494 263.2975 
L 66.84494 26.318281 
" style="fill:none;stroke:#000000;stroke-dasharray:1.000000,3.000000;stroke-dashoffset:0.0;stroke-width:0.5;"/>
     </g>
     <g id="line2d_2">
      <defs>
       <path d="M 0 0 
L 0 -4 
" id="me771970893" style="stroke:#000000;stroke-width:0.5;"/>
      </defs>
      <g>
       <use style="stroke:#000000;stroke-width:0.5;" x="66.8449404762" xlink:href="#me771970893" y="263.2975"/>
      </g>
     </g>
     <g id="line2d_3">
      <defs>
       <path d="M 0 0 
L 0 4 
" id="m712466ea19" style="stroke:#000000;stroke-width:0.5;"/>
      </defs>
      <g>
       <use style="stroke:#000000;stroke-width:0.5;" x="66.8449404762" xlink:href="#m712466ea19" y="26.31828125"/>
      </g>
     </g>
     <g id="text_1">
      <!-- 0 -->
      <defs>
       <path d="M 31.78125 66.40625 
Q 24.171875 66.40625 20.328125 58.90625 
Q 16.5 51.421875 16.5 36.375 
Q 16.5 21.390625 20.328125 13.890625 
Q 24.171875 6.390625 31.78125 6.390625 
Q 39.453125 6.390625 43.28125 13.890625 
Q 47.125 21.390625 47.125 36.375 
Q 47.125 51.421875 43.28125 58.90625 
Q 39.453125 66.40625 31.78125 66.40625 
M 31.78125 74.21875 
Q 44.046875 74.21875 50.515625 64.515625 
Q 56.984375 54.828125 56.984375 36.375 
Q 56.984375 17.96875 50.515625 8.265625 
Q 44.046875 -1.421875 31.78125 -1.421875 
Q 19.53125 -1.421875 13.0625 8.265625 
Q 6.59375 17.96875 6.59375 36.375 
Q 6.59375 54.828125 13.0625 64.515625 
Q 19.53125 74.21875 31.78125 74.21875 
" id="BitstreamVeraSans-Roman-30"/>
      </defs>
      <g transform="translate(64.2999404762 273.37625)scale(0.08 -0.08)">
       <use xlink:href="#BitstreamVeraSans-Roman-30"/>
      </g>
     </g>
    </g>
    <g id="xtick_2">
     <g id="line2d_4">
      <path clip-path="url(#p253e6538fa)" d="M 153.621205 263.2975 
L 153.621205 26.318281 
" style="fill:none;stroke:#000000;stroke-dasharray:1.000000,3.000000;stroke-dashoffset:0.0;stroke-width:0.5;"/>
     </g>
     <g id="line2d_5">
      <g>
       <use style="stroke:#000000;stroke-width:0.5;" x="153.621205357" xlink:href="#me771970893" y="263.2975"/>
      </g>
     </g>
     <g id="line2d_6">
      <g>
       <use style="stroke:#000000;stroke-width:0.5;" x="153.621205357" xlink:href="#m712466ea19" y="26.31828125"/>
      </g>
     </g>
     <g id="text_2">
      <!-- 5 -->
      <defs>
       <path d="M 10.796875 72.90625 
L 49.515625 72.90625 
L 49.515625 64.59375 
L 19.828125 64.59375 
L 19.828125 46.734375 
Q 21.96875 47.46875 24.109375 47.828125 
Q 26.265625 48.1875 28.421875 48.1875 
Q 40.625 48.1875 47.75 41.5 
Q 54.890625 34.8125 54.890625 23.390625 
Q 54.890625 11.625 47.5625 5.09375 
Q 40.234375 -1.421875 26.90625 -1.421875 
Q 22.3125 -1.421875 17.546875 -0.640625 
Q 12.796875 0.140625 7.71875 1.703125 
L 7.71875 11.625 
Q 12.109375 9.234375 16.796875 8.0625 
Q 21.484375 6.890625 26.703125 6.890625 
Q 35.15625 6.890625 40.078125 11.328125 
Q 45.015625 15.765625 45.015625 23.390625 
Q 45.015625 31 40.078125 35.4375 
Q 35.15625 39.890625 26.703125 39.890625 
Q 22.75 39.890625 18.8125 39.015625 
Q 14.890625 38.140625 10.796875 36.28125 
z
" id="BitstreamVeraSans-Roman-35"/>
      </defs>
      <g transform="translate(151.076205357 273.37625)scale(0.08 -0.08)">
       <use xlink:href="#BitstreamVeraSans-Roman-35"/>
      </g>
     </g>
    </g>
    <g id="xtick_3">
     <g id="line2d_7">
      <path clip-path="url(#p253e6538fa)" d="M 240.39747 263.2975 
L 240.39747 26.318281 
" style="fill:none;stroke:#000000;stroke-dasharray:1.000000,3.000000;stroke-dashoffset:0.0;stroke-width:0.5;"/>
     </g>
     <g id="line2d_8">
      <g>
       <use style="stroke:#000000;stroke-width:0.5;" x="240.397470238" xlink:href="#me771970893" y="263.2975"/>
      </g>
     </g>
     <g id="line2d_9">
      <g>
       <use style="stroke:#000000;stroke-width:0.5;" x="240.397470238" xlink:href="#m712466ea19" y="26.31828125"/>
      </g>
     </g>
     <g id="text_3">
      <!-- 10 -->
      <defs>
       <path d="M 12.40625 8.296875 
L 28.515625 8.296875 
L 28.515625 63.921875 
L 10.984375 60.40625 
L 10.984375 69.390625 
L 28.421875 72.90625 
L 38.28125 72.90625 
L 38.28125 8.296875 
L 54.390625 8.296875 
L 54.390625 0 
L 12.40625 0 
z
" id="BitstreamVeraSans-Roman-31"/>
      </defs>
      <g transform="translate(235.307470238 273.37625)scale(0.08 -0.08)">
       <use xlink:href="#BitstreamVeraSans-Roman-31"/>
       <use x="63.623046875" xlink:href="#BitstreamVeraSans-Roman-30"/>
      </g>
     </g>
    </g>
    <g id="xtick_4">
     <g id="line2d_10">
      <path clip-path="url(#p253e6538fa)" d="M 327.173735 263.2975 
L 327.173735 26.318281 
" style="fill:none;stroke:#000000;stroke-dasharray:1.000000,3.000000;stroke-dashoffset:0.0;stroke-width:0.5;"/>
     </g>
     <g id="line2d_11">
      <g>
       <use style="stroke:#000000;stroke-width:0.5;" x="327.173735119" xlink:href="#me771970893" y="263.2975"/>
      </g>
     </g>
     <g id="line2d_12">
      <g>
       <use style="stroke:#000000;stroke-width:0.5;" x="327.173735119" xlink:href="#m712466ea19" y="26.31828125"/>
      </g>
     </g>
     <g id="text_4">
      <!-- 15 -->
      <g transform="translate(322.083735119 273.37625)scale(0.08 -0.08)">
       <use xlink:href="#BitstreamVeraSans-Roman-31"/>
       <use x="63.623046875" xlink:href="#BitstreamVeraSans-Roman-35"/>
      </g>
     </g>
    </g>
    <g id="xtick_5">
     <g id="line2d_13">
      <path clip-path="url(#p253e6538fa)" d="M 413.95 263.2975 
L 413.95 26.318281 
" style="fill:none;stroke:#000000;stroke-dasharray:1.000000,3.000000;stroke-dashoffset:0.0;stroke-width:0.5;"/>
     </g>
     <g id="line2d_14">
      <g>
       <use style="stroke:#000000;stroke-width:0.5;" x="413.95" xlink:href="#me771970893" y="263.2975"/>
      </g>
     </g>
     <g id="line2d_15">
      <g>
       <use style="stroke:#000000;stroke-width:0.5;" x="413.95" xlink:href="#m712466ea19" y="26.31828125"/>
      </g>
     </g>
     <g id="text_5">
      <!-- 20 -->
      <defs>
       <path d="M 19.1875 8.296875 
L 53.609375 8.296875 
L 53.609375 0 
L 7.328125 0 
L 7.328125 8.296875 
Q 12.9375 14.109375 22.625 23.890625 
Q 32.328125 33.6875 34.8125 36.53125 
Q 39.546875 41.84375 41.421875 45.53125 
Q 43.3125 49.21875 43.3125 52.78125 
Q 43.3125 58.59375 39.234375 62.25 
Q 35.15625 65.921875 28.609375 65.921875 
Q 23.96875 65.921875 18.8125 64.3125 
Q 13.671875 62.703125 7.8125 59.421875 
L 7.8125 69.390625 
Q 13.765625 71.78125 18.9375 73 
Q 24.125 74.21875 28.421875 74.21875 
Q 39.75 74.21875 46.484375 68.546875 
Q 53.21875 62.890625 53.21875 53.421875 
Q 53.21875 48.921875 51.53125 44.890625 
Q 49.859375 40.875 45.40625 35.40625 
Q 44.1875 33.984375 37.640625 27.21875 
Q 31.109375 20.453125 19.1875 8.296875 
" id="BitstreamVeraSans-Roman-32"/>
      </defs>
      <g transform="translate(408.86 273.37625)scale(0.08 -0.08)">
       <use xlink:href="#BitstreamVeraSans-Roman-32"/>
       <use x="63.623046875" xlink:href="#BitstreamVeraSans-Roman-30"/>
      </g>
     </g>
    </g>
   </g>
   <g id="matplotlib.axis_2">
    <g id="ytick_1">
     <g id="line2d_16">
      <path clip-path="url(#p253e6538fa)" d="M 49.489688 242.578092 
L 413.95 242.578092 
" style="fill:none;stroke:#000000;stroke-dasharray:1.000000,3.000000;stroke-dashoffset:0.0;stroke-width:0.5;"/>
     </g>
     <g id="line2d_17">
      <defs>
       <path d="M 0 0 
L 4 0 
" id="m674b56f5fb" style="stroke:#000000;stroke-width:0.5;"/>
      </defs>
      <g>
       <use style="stroke:#000000;stroke-width:0.5;" x="49.4896875" xlink:href="#m674b56f5fb" y="242.578091558"/>
      </g>
     </g>
     <g id="line2d_18">
      <defs>
       <path d="M 0 0 
L -4 0 
" id="m615e1b4a7f" style="stroke:#000000;stroke-width:0.5;"/>
      </defs>
      <g>
       <use style="stroke:#000000;stroke-width:0.5;" x="413.95" xlink:href="#m615e1b4a7f" y="242.578091558"/>
      </g>
     </g>
     <g id="text_6">
      <!-- −10 -->
      <defs>
       <path d="M 10.59375 35.5 
L 73.1875 35.5 
L 73.1875 27.203125 
L 10.59375 27.203125 
z
" id="BitstreamVeraSans-Roman-2212"/>
      </defs>
      <g transform="translate(28.6059375 244.785591558)scale(0.08 -0.08)">
       <use xlink:href="#BitstreamVeraSans-Roman-2212"/>
       <use x="83.7890625" xlink:href="#BitstreamVeraSans-Roman-31"/>
       <use x="147.412109375" xlink:href="#BitstreamVeraSans-Roman-30"/>
      </g>
     </g>
    </g>
    <g id="ytick_2">
     <g id="line2d_19">
      <path clip-path="url(#p253e6538fa)" d="M 49.489688 206.53479 
L 413.95 206.53479 
" style="fill:none;stroke:#000000;stroke-dasharray:1.000000,3.000000;stroke-dashoffset:0.0;stroke-width:0.5;"/>
     </g>
     <g id="line2d_20">
      <g>
       <use style="stroke:#000000;stroke-width:0.5;" x="49.4896875" xlink:href="#m674b56f5fb" y="206.53478984"/>
      </g>
     </g>
     <g id="line2d_21">
      <g>
       <use style="stroke:#000000;stroke-width:0.5;" x="413.95" xlink:href="#m615e1b4a7f" y="206.53478984"/>
      </g>
     </g>
     <g id="text_7">
      <!-- −5 -->
      <g transform="translate(33.6959375 208.74228984)scale(0.08 -0.08)">
       <use xlink:href="#BitstreamVeraSans-Roman-2212"/>
       <use x="83.7890625" xlink:href="#BitstreamVeraSans-Roman-35"/>
      </g>
     </g>
    </g>
    <g id="ytick_3">
     <g id="line2d_22">
      <path clip-path="url(#p253e6538fa)" d="M 49.489688 170.491488 
L 413.95 170.491488 
" style="fill:none;stroke:#000000;stroke-dasharray:1.000000,3.000000;stroke-dashoffset:0.0;stroke-width:0.5;"/>
     </g>
     <g id="line2d_23">
      <g>
       <use style="stroke:#000000;stroke-width:0.5;" x="49.4896875" xlink:href="#m674b56f5fb" y="170.491488122"/>
      </g>
     </g>
     <g id="line2d_24">
      <g>
       <use style="stroke:#000000;stroke-width:0.5;" x="413.95" xlink:href="#m615e1b4a7f" y="170.491488122"/>
      </g>
     </g>
     <g id="text_8">
      <!-- 0 -->
      <g transform="translate(40.3996875 172.698988122)scale(0.08 -0.08)">
       <use xlink:href="#BitstreamVeraSans-Roman-30"/>
      </g>
     </g>
    </g>
    <g id="ytick_4">
     <g id="line2d_25">
      <path clip-path="url(#p253e6538fa)" d="M 49.489688 134.448186 
L 413.95 134.448186 
" style="fill:none;stroke:#000000;stroke-dasharray:1.000000,3.000000;stroke-dashoffset:0.0;stroke-width:0.5;"/>
     </g>
     <g id="line2d_26">
      <g>
       <use style="stroke:#000000;stroke-width:0.5;" x="49.4896875" xlink:href="#m674b56f5fb" y="134.448186404"/>
      </g>
     </g>
     <g id="line2d_27">
      <g>
       <use style="stroke:#000000;stroke-width:0.5;" x="413.95" xlink:href="#m615e1b4a7f" y="134.448186404"/>
      </g>
     </g>
     <g id="text_9">
      <!-- 5 -->
      <g transform="translate(40.3996875 136.655686404)scale(0.08 -0.08)">
       <use xlink:href="#BitstreamVeraSans-Roman-35"/>
      </g>
     </g>
    </g>
    <g id="ytick_5">
     <g id="line2d_28">
      <path clip-path="url(#p253e6538fa)" d="M 49.489688 98.404885 
L 413.95 98.404885 
" style="fill:none;stroke:#000000;stroke-dasharray:1.000000,3.000000;stroke-dashoffset:0.0;stroke-width:0.5;"/>
     </g>
     <g id="line2d_29">
      <g>
       <use style="stroke:#000000;stroke-width:0.5;" x="49.4896875" xlink:href="#m674b56f5fb" y="98.4048846861"/>
      </g>
     </g>
     <g id="line2d_30">
      <g>
       <use style="stroke:#000000;stroke-width:0.5;" x="413.95" xlink:href="#m615e1b4a7f" y="98.4048846861"/>
      </g>
     </g>
     <g id="text_10">
      <!-- 10 -->
      <g transform="translate(35.3096875 100.612384686)scale(0.08 -0.08)">
       <use xlink:href="#BitstreamVeraSans-Roman-31"/>
       <use x="63.623046875" xlink:href="#BitstreamVeraSans-Roman-30"/>
      </g>
     </g>
    </g>
    <g id="ytick_6">
     <g id="line2d_31">
      <path clip-path="url(#p253e6538fa)" d="M 49.489688 62.361583 
L 413.95 62.361583 
" style="fill:none;stroke:#000000;stroke-dasharray:1.000000,3.000000;stroke-dashoffset:0.0;stroke-width:0.5;"/>
     </g>
     <g id="line2d_32">
      <g>
       <use style="stroke:#000000;stroke-width:0.5;" x="49.4896875" xlink:href="#m674b56f5fb" y="62.3615829681"/>
      </g>
     </g>
     <g id="line2d_33">
      <g>
       <use style="stroke:#000000;stroke-width:0.5;" x="413.95" xlink:href="#m615e1b4a7f" y="62.3615829681"/>
      </g>
     </g>
     <g id="text_11">
      <!-- 15 -->
      <g transform="translate(35.3096875 64.5690829681)scale(0.08 -0.08)">
       <use xlink:href="#BitstreamVeraSans-Roman-31"/>
       <use x="63.623046875" xlink:href="#BitstreamVeraSans-Roman-35"/>
      </g>
     </g>
    </g>
    <g id="ytick_7">
     <g id="line2d_34">
      <path clip-path="url(#p253e6538fa)" d="M 49.489688 26.318281 
L 413.95 26.318281 
" style="fill:none;stroke:#000000;stroke-dasharray:1.000000,3.000000;stroke-dashoffset:0.0;stroke-width:0.5;"/>
     </g>
     <g id="line2d_35">
      <g>
       <use style="stroke:#000000;stroke-width:0.5;" x="49.4896875" xlink:href="#m674b56f5fb" y="26.31828125"/>
      </g>
     </g>
     <g id="line2d_36">
      <g>
       <use style="stroke:#000000;stroke-width:0.5;" x="413.95" xlink:href="#m615e1b4a7f" y="26.31828125"/>
      </g>
     </g>
     <g id="text_12">
      <!-- 20 -->
      <g transform="translate(35.3096875 28.52578125)scale(0.08 -0.08)">
       <use xlink:href="#BitstreamVeraSans-Roman-32"/>
       <use x="63.623046875" xlink:href="#BitstreamVeraSans-Roman-30"/>
      </g>
     </g>
    </g>
    <g id="text_13">
     <!-- To: y(1) -->
     <defs>
      <path id="BitstreamVeraSans-Roman-20"/>
      <path d="M 8.015625 75.875 
L 15.828125 75.875 
Q 23.140625 64.359375 26.78125 53.3125 
Q 30.421875 42.28125 30.421875 31.390625 
Q 30.421875 20.453125 26.78125 9.375 
Q 23.140625 -1.703125 15.828125 -13.1875 
L 8.015625 -13.1875 
Q 14.5 -2 17.703125 9.0625 
Q 20.90625 20.125 20.90625 31.390625 
Q 20.90625 42.671875 17.703125 53.65625 
Q 14.5 64.65625 8.015625 75.875 
" id="BitstreamVeraSans-Roman-29"/>
      <path d="M 31 75.875 
Q 24.46875 64.65625 21.28125 53.65625 
Q 18.109375 42.671875 18.109375 31.390625 
Q 18.109375 20.125 21.3125 9.0625 
Q 24.515625 -2 31 -13.1875 
L 23.1875 -13.1875 
Q 15.875 -1.703125 12.234375 9.375 
Q 8.59375 20.453125 8.59375 31.390625 
Q 8.59375 42.28125 12.203125 53.3125 
Q 15.828125 64.359375 23.1875 75.875 
z
" id="BitstreamVeraSans-Roman-28"/>
      <path d="M 30.609375 48.390625 
Q 23.390625 48.390625 19.1875 42.75 
Q 14.984375 37.109375 14.984375 27.296875 
Q 14.984375 17.484375 19.15625 11.84375 
Q 23.34375 6.203125 30.609375 6.203125 
Q 37.796875 6.203125 41.984375 11.859375 
Q 46.1875 17.53125 46.1875 27.296875 
Q 46.1875 37.015625 41.984375 42.703125 
Q 37.796875 48.390625 30.609375 48.390625 
M 30.609375 56 
Q 42.328125 56 49.015625 48.375 
Q 55.71875 40.765625 55.71875 27.296875 
Q 55.71875 13.875 49.015625 6.21875 
Q 42.328125 -1.421875 30.609375 -1.421875 
Q 18.84375 -1.421875 12.171875 6.21875 
Q 5.515625 13.875 5.515625 27.296875 
Q 5.515625 40.765625 12.171875 48.375 
Q 18.84375 56 30.609375 56 
" id="BitstreamVeraSans-Roman-6f"/>
      <path d="M 11.71875 12.40625 
L 22.015625 12.40625 
L 22.015625 0 
L 11.71875 0 
z
M 11.71875 51.703125 
L 22.015625 51.703125 
L 22.015625 39.3125 
L 11.71875 39.3125 
z
" id="BitstreamVeraSans-Roman-3a"/>
      <path d="M -0.296875 72.90625 
L 61.375 72.90625 
L 61.375 64.59375 
L 35.5 64.59375 
L 35.5 0 
L 25.59375 0 
L 25.59375 64.59375 
L -0.296875 64.59375 
z
" id="BitstreamVeraSans-Roman-54"/>
      <path d="M 32.171875 -5.078125 
Q 28.375 -14.84375 24.75 -17.8125 
Q 21.140625 -20.796875 15.09375 -20.796875 
L 7.90625 -20.796875 
L 7.90625 -13.28125 
L 13.1875 -13.28125 
Q 16.890625 -13.28125 18.9375 -11.515625 
Q 21 -9.765625 23.484375 -3.21875 
L 25.09375 0.875 
L 2.984375 54.6875 
L 12.5 54.6875 
L 29.59375 11.921875 
L 46.6875 54.6875 
L 56.203125 54.6875 
z
" id="BitstreamVeraSans-Roman-79"/>
     </defs>
     <g transform="translate(21.31828125 166.165078125)rotate(-90.0)scale(0.11 -0.11)">
      <use xlink:href="#BitstreamVeraSans-Roman-54"/>
      <use x="60.818359375" xlink:href="#BitstreamVeraSans-Roman-6f"/>
      <use x="122.0" xlink:href="#BitstreamVeraSans-Roman-3a"/>
      <use x="155.69140625" xlink:href="#BitstreamVeraSans-Roman-20"/>
      <use x="187.478515625" xlink:href="#BitstreamVeraSans-Roman-79"/>
      <use x="246.658203125" xlink:href="#BitstreamVeraSans-Roman-28"/>
      <use x="285.671875" xlink:href="#BitstreamVeraSans-Roman-31"/>
      <use x="349.294921875" xlink:href="#BitstreamVeraSans-Roman-29"/>
     </g>
    </g>
   </g>
   <g id="line2d_37">
    <path clip-path="url(#p253e6538fa)" d="M 84.182844 170.77969 
L 83.996596 171.475323 
L 83.559018 172.222925 
L 82.835145 172.982435 
L 81.905169 173.661324 
L 80.656078 174.327896 
L 78.812985 175.027458 
L 76.699988 175.567129 
L 74.587607 175.90434 
L 72.118234 176.086907 
L 69.386961 176.04027 
L 67.280714 175.813881 
L 65.258032 175.404025 
L 63.466495 174.8132 
L 62.05807 174.069369 
L 61.396041 173.514789 
L 60.984708 172.938561 
L 60.831538 172.365625 
L 60.925936 171.821274 
L 61.23949 171.328488 
L 61.72882 170.905437 
L 62.674799 170.424709 
L 64.043668 170.073205 
L 65.464848 169.992389 
L 66.53861 170.170144 
L 66.893527 170.422201 
L 66.844941 170.491488 
L 66.844941 170.491488 
" style="fill:none;stroke:#cc1414;stroke-linecap:round;"/>
   </g>
   <g id="line2d_38">
    <path clip-path="url(#p253e6538fa)" d="M 433 262.506114 
L 396.955392 263.2975 
L 355.904405 263.003749 
L 317.727304 261.59966 
L 282.514344 259.234368 
L 250.312642 256.058362 
L 221.126294 252.220567 
L 194.917843 247.865507 
L 171.611019 243.130668 
L 151.094598 238.144171 
L 133.227178 233.022832 
L 117.842623 227.870694 
L 104.755909 222.778044 
L 93.769087 217.820946 
L 84.677102 213.061242 
L 77.273236 208.547004 
L 71.353988 204.313352 
L 66.723243 200.383564 
L 63.195659 196.770412 
L 60.599222 193.477611 
L 58.777007 190.501328 
L 57.588183 187.83167 
L 56.90835 185.454097 
L 56.629321 183.350715 
L 56.658447 181.501429 
L 56.91761 179.884922 
L 57.341985 178.479476 
L 57.878664 177.263622 
L 59.128338 175.318934 
L 60.428146 173.899832 
L 61.643866 172.878653 
L 63.181551 171.873983 
L 64.928618 171.035289 
L 66.501351 170.546349 
L 66.844937 170.491488 
L 66.844937 170.491488 
" style="fill:none;stroke:#14cc2b;stroke-linecap:round;"/>
   </g>
   <g id="patch_3">
    <path d="M 49.489688 26.318281 
L 413.95 26.318281 
" style="fill:none;stroke:#000000;stroke-linecap:square;stroke-linejoin:miter;"/>
   </g>
   <g id="patch_4">
    <path d="M 413.95 263.2975 
L 413.95 26.318281 
" style="fill:none;stroke:#000000;stroke-linecap:square;stroke-linejoin:miter;"/>
   </g>
   <g id="patch_5">
    <path d="M 49.489688 263.2975 
L 413.95 263.2975 
" style="fill:none;stroke:#000000;stroke-linecap:square;stroke-linejoin:miter;"/>
   </g>
   <g id="patch_6">
    <path d="M 49.489688 263.2975 
L 49.489688 26.318281 
" style="fill:none;stroke:#000000;stroke-linecap:square;stroke-linejoin:miter;"/>
   </g>
   <g id="line2d_39">
    <path clip-path="url(#p253e6538fa)" d="M 84.200193 170.491488 
L 84.165252 170.034287 
L 84.060567 169.578926 
L 83.886561 169.12724 
L 83.643935 168.681048 
L 83.333665 168.242145 
L 82.957001 167.8123 
L 82.515459 167.393243 
L 82.010817 166.986661 
L 81.445108 166.594192 
L 80.82061 166.217416 
L 80.139836 165.857851 
L 79.405528 165.516943 
L 78.620643 165.196066 
L 77.788342 164.896512 
L 76.911975 164.619487 
L 75.995072 164.366106 
L 75.041324 164.13739 
L 74.054573 163.93426 
L 73.038791 163.757533 
L 71.998069 163.607922 
L 70.936596 163.486029 
L 69.858649 163.392344 
L 68.768565 163.327244 
L 67.670737 163.290993 
L 66.569583 163.283735 
L 65.469537 163.305501 
L 64.37503 163.356202 
L 63.290469 163.435634 
L 62.22022 163.543477 
L 61.168593 163.679298 
L 60.139823 163.842549 
L 59.138052 164.032573 
L 58.167314 164.248605 
L 57.231518 164.489775 
L 56.334431 164.755111 
L 55.479667 165.043546 
L 54.670666 165.353918 
L 53.910687 165.684977 
L 53.20279 166.03539 
L 52.549825 166.403746 
L 51.954421 166.788562 
L 51.418976 167.188289 
L 50.945646 167.601316 
L 50.536337 168.025981 
L 50.192697 168.460574 
L 49.91611 168.903344 
L 49.707689 169.35251 
L 49.568273 169.806261 
L 49.498425 170.262772 
L 49.498425 170.720204 
L 49.568273 171.176715 
L 49.707689 171.630467 
L 49.91611 172.079632 
L 50.192697 172.522402 
L 50.536337 172.956995 
L 50.945646 173.38166 
L 51.418976 173.794687 
L 51.954421 174.194414 
L 52.549825 174.57923 
L 53.20279 174.947586 
L 53.910687 175.297999 
L 54.670666 175.629058 
L 55.479667 175.93943 
L 56.334431 176.227865 
L 57.231518 176.493201 
L 58.167314 176.734371 
L 59.138052 176.950403 
L 60.139823 177.140427 
L 61.168593 177.303678 
L 62.22022 177.439499 
L 63.290469 177.547343 
L 64.37503 177.626775 
L 65.469537 177.677476 
L 66.569583 177.699241 
L 67.670737 177.691983 
L 68.768565 177.655732 
L 69.858649 177.590633 
L 70.936596 177.496948 
L 71.998069 177.375054 
L 73.038791 177.225443 
L 74.054573 177.048716 
L 75.041324 176.845586 
L 75.995072 176.61687 
L 76.911975 176.363489 
L 77.788342 176.086464 
L 78.620643 175.78691 
L 79.405528 175.466033 
L 80.139836 175.125126 
L 80.82061 174.76556 
L 81.445108 174.388784 
L 82.010817 173.996315 
L 82.515459 173.589734 
L 82.957001 173.170677 
L 83.333665 172.740831 
L 83.643935 172.301929 
L 83.886561 171.855736 
L 84.060567 171.40405 
L 84.165252 170.94869 
L 84.200193 170.491488 
" style="fill:none;stroke:#000000;stroke-dasharray:6.000000,6.000000;stroke-dashoffset:0.0;"/>
   </g>
   <g id="text_14">
    <!-- Nyquist plot from: u(1) -->
    <defs>
     <path d="M 9.8125 72.90625 
L 23.09375 72.90625 
L 55.421875 11.921875 
L 55.421875 72.90625 
L 64.984375 72.90625 
L 64.984375 0 
L 51.703125 0 
L 19.390625 60.984375 
L 19.390625 0 
L 9.8125 0 
z
" id="BitstreamVeraSans-Roman-4e"/>
     <path d="M 37.109375 75.984375 
L 37.109375 68.5 
L 28.515625 68.5 
Q 23.6875 68.5 21.796875 66.546875 
Q 19.921875 64.59375 19.921875 59.515625 
L 19.921875 54.6875 
L 34.71875 54.6875 
L 34.71875 47.703125 
L 19.921875 47.703125 
L 19.921875 0 
L 10.890625 0 
L 10.890625 47.703125 
L 2.296875 47.703125 
L 2.296875 54.6875 
L 10.890625 54.6875 
L 10.890625 58.5 
Q 10.890625 67.625 15.140625 71.796875 
Q 19.390625 75.984375 28.609375 75.984375 
z
" id="BitstreamVeraSans-Roman-66"/>
     <path d="M 52 44.1875 
Q 55.375 50.25 60.0625 53.125 
Q 64.75 56 71.09375 56 
Q 79.640625 56 84.28125 50.015625 
Q 88.921875 44.046875 88.921875 33.015625 
L 88.921875 0 
L 79.890625 0 
L 79.890625 32.71875 
Q 79.890625 40.578125 77.09375 44.375 
Q 74.3125 48.1875 68.609375 48.1875 
Q 61.625 48.1875 57.5625 43.546875 
Q 53.515625 38.921875 53.515625 30.90625 
L 53.515625 0 
L 44.484375 0 
L 44.484375 32.71875 
Q 44.484375 40.625 41.703125 44.40625 
Q 38.921875 48.1875 33.109375 48.1875 
Q 26.21875 48.1875 22.15625 43.53125 
Q 18.109375 38.875 18.109375 30.90625 
L 18.109375 0 
L 9.078125 0 
L 9.078125 54.6875 
L 18.109375 54.6875 
L 18.109375 46.1875 
Q 21.1875 51.21875 25.484375 53.609375 
Q 29.78125 56 35.6875 56 
Q 41.65625 56 45.828125 52.96875 
Q 50 49.953125 52 44.1875 
" id="BitstreamVeraSans-Roman-6d"/>
     <path d="M 9.421875 75.984375 
L 18.40625 75.984375 
L 18.40625 0 
L 9.421875 0 
z
" id="BitstreamVeraSans-Roman-6c"/>
     <path d="M 9.421875 54.6875 
L 18.40625 54.6875 
L 18.40625 0 
L 9.421875 0 
z
M 9.421875 75.984375 
L 18.40625 75.984375 
L 18.40625 64.59375 
L 9.421875 64.59375 
z
" id="BitstreamVeraSans-Roman-69"/>
     <path d="M 18.3125 70.21875 
L 18.3125 54.6875 
L 36.8125 54.6875 
L 36.8125 47.703125 
L 18.3125 47.703125 
L 18.3125 18.015625 
Q 18.3125 11.328125 20.140625 9.421875 
Q 21.96875 7.515625 27.59375 7.515625 
L 36.8125 7.515625 
L 36.8125 0 
L 27.59375 0 
Q 17.1875 0 13.234375 3.875 
Q 9.28125 7.765625 9.28125 18.015625 
L 9.28125 47.703125 
L 2.6875 47.703125 
L 2.6875 54.6875 
L 9.28125 54.6875 
L 9.28125 70.21875 
z
" id="BitstreamVeraSans-Roman-74"/>
     <path d="M 8.5 21.578125 
L 8.5 54.6875 
L 17.484375 54.6875 
L 17.484375 21.921875 
Q 17.484375 14.15625 20.5 10.265625 
Q 23.53125 6.390625 29.59375 6.390625 
Q 36.859375 6.390625 41.078125 11.03125 
Q 45.3125 15.671875 45.3125 23.6875 
L 45.3125 54.6875 
L 54.296875 54.6875 
L 54.296875 0 
L 45.3125 0 
L 45.3125 8.40625 
Q 42.046875 3.421875 37.71875 1 
Q 33.40625 -1.421875 27.6875 -1.421875 
Q 18.265625 -1.421875 13.375 4.4375 
Q 8.5 10.296875 8.5 21.578125 
" id="BitstreamVeraSans-Roman-75"/>
     <path d="M 41.109375 46.296875 
Q 39.59375 47.171875 37.8125 47.578125 
Q 36.03125 48 33.890625 48 
Q 26.265625 48 22.1875 43.046875 
Q 18.109375 38.09375 18.109375 28.8125 
L 18.109375 0 
L 9.078125 0 
L 9.078125 54.6875 
L 18.109375 54.6875 
L 18.109375 46.1875 
Q 20.953125 51.171875 25.484375 53.578125 
Q 30.03125 56 36.53125 56 
Q 37.453125 56 38.578125 55.875 
Q 39.703125 55.765625 41.0625 55.515625 
z
" id="BitstreamVeraSans-Roman-72"/>
     <path d="M 44.28125 53.078125 
L 44.28125 44.578125 
Q 40.484375 46.53125 36.375 47.5 
Q 32.28125 48.484375 27.875 48.484375 
Q 21.1875 48.484375 17.84375 46.4375 
Q 14.5 44.390625 14.5 40.28125 
Q 14.5 37.15625 16.890625 35.375 
Q 19.28125 33.59375 26.515625 31.984375 
L 29.59375 31.296875 
Q 39.15625 29.25 43.1875 25.515625 
Q 47.21875 21.78125 47.21875 15.09375 
Q 47.21875 7.46875 41.1875 3.015625 
Q 35.15625 -1.421875 24.609375 -1.421875 
Q 20.21875 -1.421875 15.453125 -0.5625 
Q 10.6875 0.296875 5.421875 2 
L 5.421875 11.28125 
Q 10.40625 8.6875 15.234375 7.390625 
Q 20.0625 6.109375 24.8125 6.109375 
Q 31.15625 6.109375 34.5625 8.28125 
Q 37.984375 10.453125 37.984375 14.40625 
Q 37.984375 18.0625 35.515625 20.015625 
Q 33.0625 21.96875 24.703125 23.78125 
L 21.578125 24.515625 
Q 13.234375 26.265625 9.515625 29.90625 
Q 5.8125 33.546875 5.8125 39.890625 
Q 5.8125 47.609375 11.28125 51.796875 
Q 16.75 56 26.8125 56 
Q 31.78125 56 36.171875 55.265625 
Q 40.578125 54.546875 44.28125 53.078125 
" id="BitstreamVeraSans-Roman-73"/>
     <path d="M 18.109375 8.203125 
L 18.109375 -20.796875 
L 9.078125 -20.796875 
L 9.078125 54.6875 
L 18.109375 54.6875 
L 18.109375 46.390625 
Q 20.953125 51.265625 25.265625 53.625 
Q 29.59375 56 35.59375 56 
Q 45.5625 56 51.78125 48.09375 
Q 58.015625 40.1875 58.015625 27.296875 
Q 58.015625 14.40625 51.78125 6.484375 
Q 45.5625 -1.421875 35.59375 -1.421875 
Q 29.59375 -1.421875 25.265625 0.953125 
Q 20.953125 3.328125 18.109375 8.203125 
M 48.6875 27.296875 
Q 48.6875 37.203125 44.609375 42.84375 
Q 40.53125 48.484375 33.40625 48.484375 
Q 26.265625 48.484375 22.1875 42.84375 
Q 18.109375 37.203125 18.109375 27.296875 
Q 18.109375 17.390625 22.1875 11.75 
Q 26.265625 6.109375 33.40625 6.109375 
Q 40.53125 6.109375 44.609375 11.75 
Q 48.6875 17.390625 48.6875 27.296875 
" id="BitstreamVeraSans-Roman-70"/>
     <path d="M 14.796875 27.296875 
Q 14.796875 17.390625 18.875 11.75 
Q 22.953125 6.109375 30.078125 6.109375 
Q 37.203125 6.109375 41.296875 11.75 
Q 45.40625 17.390625 45.40625 27.296875 
Q 45.40625 37.203125 41.296875 42.84375 
Q 37.203125 48.484375 30.078125 48.484375 
Q 22.953125 48.484375 18.875 42.84375 
Q 14.796875 37.203125 14.796875 27.296875 
M 45.40625 8.203125 
Q 42.578125 3.328125 38.25 0.953125 
Q 33.9375 -1.421875 27.875 -1.421875 
Q 17.96875 -1.421875 11.734375 6.484375 
Q 5.515625 14.40625 5.515625 27.296875 
Q 5.515625 40.1875 11.734375 48.09375 
Q 17.96875 56 27.875 56 
Q 33.9375 56 38.25 53.625 
Q 42.578125 51.265625 45.40625 46.390625 
L 45.40625 54.6875 
L 54.390625 54.6875 
L 54.390625 -20.796875 
L 45.40625 -20.796875 
z
" id="BitstreamVeraSans-Roman-71"/>
    </defs>
    <g transform="translate(168.990625 21.31828125)scale(0.11 -0.11)">
     <use xlink:href="#BitstreamVeraSans-Roman-4e"/>
     <use x="74.8046875" xlink:href="#BitstreamVeraSans-Roman-79"/>
     <use x="133.984375" xlink:href="#BitstreamVeraSans-Roman-71"/>
     <use x="197.4609375" xlink:href="#BitstreamVeraSans-Roman-75"/>
     <use x="260.83984375" xlink:href="#BitstreamVeraSans-Roman-69"/>
     <use x="288.623046875" xlink:href="#BitstreamVeraSans-Roman-73"/>
     <use x="340.72265625" xlink:href="#BitstreamVeraSans-Roman-74"/>
     <use x="379.931640625" xlink:href="#BitstreamVeraSans-Roman-20"/>
     <use x="411.71875" xlink:href="#BitstreamVeraSans-Roman-70"/>
     <use x="475.1953125" xlink:href="#BitstreamVeraSans-Roman-6c"/>
     <use x="502.978515625" xlink:href="#BitstreamVeraSans-Roman-6f"/>
     <use x="564.16015625" xlink:href="#BitstreamVeraSans-Roman-74"/>
     <use x="603.369140625" xlink:href="#BitstreamVeraSans-Roman-20"/>
     <use x="635.15625" xlink:href="#BitstreamVeraSans-Roman-66"/>
     <use x="670.361328125" xlink:href="#BitstreamVeraSans-Roman-72"/>
     <use x="711.443359375" xlink:href="#BitstreamVeraSans-Roman-6f"/>
     <use x="772.625" xlink:href="#BitstreamVeraSans-Roman-6d"/>
     <use x="870.037109375" xlink:href="#BitstreamVeraSans-Roman-3a"/>
     <use x="903.728515625" xlink:href="#BitstreamVeraSans-Roman-20"/>
     <use x="935.515625" xlink:href="#BitstreamVeraSans-Roman-75"/>
     <use x="998.89453125" xlink:href="#BitstreamVeraSans-Roman-28"/>
     <use x="1037.90820312" xlink:href="#BitstreamVeraSans-Roman-31"/>
     <use x="1101.53125" xlink:href="#BitstreamVeraSans-Roman-29"/>
    </g>
   </g>
   <g id="line2d_40">
    <path clip-path="url(#p253e6538fa)" d="M 66.84494 170.491488 
L 66.809999 170.034287 
L 66.705314 169.578926 
L 66.531308 169.12724 
L 66.288682 168.681048 
L 65.978412 168.242145 
L 65.601748 167.8123 
L 65.160206 167.393243 
L 64.655565 166.986661 
L 64.089855 166.594192 
L 63.465357 166.217416 
L 62.784583 165.857851 
L 62.050275 165.516943 
L 61.26539 165.196066 
L 60.433089 164.896512 
L 59.556722 164.619487 
L 58.639819 164.366106 
L 57.686071 164.13739 
L 56.69932 163.93426 
L 55.683538 163.757533 
L 54.642816 163.607922 
L 53.581343 163.486029 
L 52.503396 163.392344 
L 51.413312 163.327244 
L 50.315484 163.290993 
L 49.21433 163.283735 
L 48.114284 163.305501 
L 47.019777 163.356202 
L 45.935216 163.435634 
L 44.864967 163.543477 
L 43.81334 163.679298 
L 42.78457 163.842549 
L 41.782799 164.032573 
L 40.812061 164.248605 
L 39.876265 164.489775 
L 38.979178 164.755111 
L 38.124414 165.043546 
L 37.315413 165.353918 
L 36.555434 165.684977 
L 35.847537 166.03539 
L 35.194572 166.403746 
L 34.599168 166.788562 
L 34.063723 167.188289 
L 33.590393 167.601316 
L 33.181084 168.025981 
L 32.837444 168.460574 
L 32.560857 168.903344 
L 32.352436 169.35251 
L 32.21302 169.806261 
L 32.143172 170.262772 
L 32.143172 170.720204 
L 32.21302 171.176715 
L 32.352436 171.630467 
L 32.560857 172.079632 
L 32.837444 172.522402 
L 33.181084 172.956995 
L 33.590393 173.38166 
L 34.063723 173.794687 
L 34.599168 174.194414 
L 35.194572 174.57923 
L 35.847537 174.947586 
L 36.555434 175.297999 
L 37.315413 175.629058 
L 38.124414 175.93943 
L 38.979178 176.227865 
L 39.876265 176.493201 
L 40.812061 176.734371 
L 41.782799 176.950403 
L 42.78457 177.140427 
L 43.81334 177.303678 
L 44.864967 177.439499 
L 45.935216 177.547343 
L 47.019777 177.626775 
L 48.114284 177.677476 
L 49.21433 177.699241 
L 50.315484 177.691983 
L 51.413312 177.655732 
L 52.503396 177.590633 
L 53.581343 177.496948 
L 54.642816 177.375054 
L 55.683538 177.225443 
L 56.69932 177.048716 
L 57.686071 176.845586 
L 58.639819 176.61687 
L 59.556722 176.363489 
L 60.433089 176.086464 
L 61.26539 175.78691 
L 62.050275 175.466033 
L 62.784583 175.125126 
L 63.465357 174.76556 
L 64.089855 174.388784 
L 64.655565 173.996315 
L 65.160206 173.589734 
L 65.601748 173.170677 
L 65.978412 172.740831 
L 66.288682 172.301929 
L 66.531308 171.855736 
L 66.705314 171.40405 
L 66.809999 170.94869 
L 66.84494 170.491488 
" style="fill:none;stroke:#ff0000;stroke-dasharray:6.000000,6.000000;stroke-dashoffset:0.0;"/>
   </g>
   <g id="legend_1">
    <g id="patch_7">
     <path d="M 53.489688 56.203281 
L 92.114688 56.203281 
L 92.114688 30.318281 
L 53.489688 30.318281 
z
" style="fill:#ffffff;stroke:#000000;stroke-linejoin:miter;"/>
    </g>
    <g id="line2d_41">
     <path d="M 59.089688 36.797031 
L 70.289687 36.797031 
" style="fill:none;stroke:#cc1414;stroke-linecap:round;"/>
    </g>
    <g id="line2d_42"/>
    <g id="text_15">
     <!-- y1 -->
     <g transform="translate(79.0896875 39.59703125)scale(0.08 -0.08)">
      <use xlink:href="#BitstreamVeraSans-Roman-79"/>
      <use x="59.1796875" xlink:href="#BitstreamVeraSans-Roman-31"/>
     </g>
    </g>
    <g id="line2d_43">
     <path d="M 59.089688 48.539531 
L 70.289687 48.539531 
" style="fill:none;stroke:#14cc2b;stroke-linecap:round;"/>
    </g>
    <g id="line2d_44"/>
    <g id="text_16">
     <!-- y2 -->
     <g transform="translate(79.0896875 51.33953125)scale(0.08 -0.08)">
      <use xlink:href="#BitstreamVeraSans-Roman-79"/>
      <use x="59.1796875" xlink:href="#BitstreamVeraSans-Roman-32"/>
     </g>
    </g>
   </g>
  </g>
 </g>
 <defs>
  <clipPath id="p253e6538fa">
   <rect height="236.97921875" width="364.4603125" x="49.4896875" y="26.31828125"/>
  </clipPath>
 </defs>
</svg>
