<?xml version="1.0" encoding="utf-8" standalone="no"?>
<!DOCTYPE svg PUBLIC "-//W3C//DTD SVG 1.1//EN"
  "http://www.w3.org/Graphics/SVG/1.1/DTD/svg11.dtd">
<!-- Created with matplotlib (http://matplotlib.org/) -->
<svg height="288pt" version="1.1" viewBox="0 0 432 288" width="432pt" xmlns="http://www.w3.org/2000/svg" xmlns:xlink="http://www.w3.org/1999/xlink">
 <defs>
  <style type="text/css">
*{stroke-linecap:butt;stroke-linejoin:round;stroke-miterlimit:100000;}
  </style>
 </defs>
 <g id="figure_1">
  <g id="patch_1">
   <path d="M 0 288 
L 432 288 
L 432 0 
L 0 0 
z
" style="fill:#ffffff;"/>
  </g>
  <g id="axes_1">
   <g id="patch_2">
    <path d="M 33.84375 263.2975 
L 419.04 263.2975 
L 419.04 26.318281 
L 33.84375 26.318281 
z
" style="fill:#ffffff;"/>
   </g>
   <g id="matplotlib.axis_1">
    <g id="xtick_1">
     <g id="line2d_1">
      <path clip-path="url(#p9ce5beaa65)" d="M 33.84375 263.2975 
L 33.84375 26.318281 
" style="fill:none;stroke:#000000;stroke-dasharray:1.000000,3.000000;stroke-dashoffset:0.0;stroke-width:0.5;"/>
     </g>
     <g id="line2d_2">
      <defs>
       <path d="M 0 0 
L 0 -4 
" id="mf4b16ff782" style="stroke:#000000;stroke-width:0.5;"/>
      </defs>
      <g>
       <use style="stroke:#000000;stroke-width:0.5;" x="33.84375" xlink:href="#mf4b16ff782" y="263.2975"/>
      </g>
     </g>
     <g id="line2d_3">
      <defs>
       <path d="M 0 0 
L 0 4 
" id="mc5f042e4e7" style="stroke:#000000;stroke-width:0.5;"/>
      </defs>
      <g>
       <use style="stroke:#000000;stroke-width:0.5;" x="33.84375" xlink:href="#mc5f042e4e7" y="26.31828125"/>
      </g>
     </g>
     <g id="text_1">
      <!-- −20 -->
      <defs>
       <path d="M 10.59375 35.5 
L 73.1875 35.5 
L 73.1875 27.203125 
L 10.59375 27.203125 
z
" id="BitstreamVeraSans-Roman-2212"/>
       <path d="M 19.1875 8.296875 
L 53.609375 8.296875 
L 53.609375 0 
L 7.328125 0 
L 7.328125 8.296875 
Q 12.9375 14.109375 22.625 23.890625 
Q 32.328125 33.6875 34.8125 36.53125 
Q 39.546875 41.84375 41.421875 45.53125 
Q 43.3125 49.21875 43.3125 52.78125 
Q 43.3125 58.59375 39.234375 62.25 
Q 35.15625 65.921875 28.609375 65.921875 
Q 23.96875 65.921875 18.8125 64.3125 
Q 13.671875 62.703125 7.8125 59.421875 
L 7.8125 69.390625 
Q 13.765625 71.78125 18.9375 73 
Q 24.125 74.21875 28.421875 74.21875 
Q 39.75 74.21875 46.484375 68.546875 
Q 53.21875 62.890625 53.21875 53.421875 
Q 53.21875 48.921875 51.53125 44.890625 
Q 49.859375 40.875 45.40625 35.40625 
Q 44.1875 33.984375 37.640625 27.21875 
Q 31.109375 20.453125 19.1875 8.296875 
" id="BitstreamVeraSans-Roman-32"/>
       <path d="M 31.78125 66.40625 
Q 24.171875 66.40625 20.328125 58.90625 
Q 16.5 51.421875 16.5 36.375 
Q 16.5 21.390625 20.328125 13.890625 
Q 24.171875 6.390625 31.78125 6.390625 
Q 39.453125 6.390625 43.28125 13.890625 
Q 47.125 21.390625 47.125 36.375 
Q 47.125 51.421875 43.28125 58.90625 
Q 39.453125 66.40625 31.78125 66.40625 
M 31.78125 74.21875 
Q 44.046875 74.21875 50.515625 64.515625 
Q 56.984375 54.828125 56.984375 36.375 
Q 56.984375 17.96875 50.515625 8.265625 
Q 44.046875 -1.421875 31.78125 -1.421875 
Q 19.53125 -1.421875 13.0625 8.265625 
Q 6.59375 17.96875 6.59375 36.375 
Q 6.59375 54.828125 13.0625 64.515625 
Q 19.53125 74.21875 31.78125 74.21875 
" id="BitstreamVeraSans-Roman-30"/>
      </defs>
      <g transform="translate(25.401875 273.37625)scale(0.08 -0.08)">
       <use xlink:href="#BitstreamVeraSans-Roman-2212"/>
       <use x="83.7890625" xlink:href="#BitstreamVeraSans-Roman-32"/>
       <use x="147.412109375" xlink:href="#BitstreamVeraSans-Roman-30"/>
      </g>
     </g>
    </g>
    <g id="xtick_2">
     <g id="line2d_4">
      <path clip-path="url(#p9ce5beaa65)" d="M 135.157866 263.2975 
L 135.157866 26.318281 
" style="fill:none;stroke:#000000;stroke-dasharray:1.000000,3.000000;stroke-dashoffset:0.0;stroke-width:0.5;"/>
     </g>
     <g id="line2d_5">
      <g>
       <use style="stroke:#000000;stroke-width:0.5;" x="135.157866323" xlink:href="#mf4b16ff782" y="263.2975"/>
      </g>
     </g>
     <g id="line2d_6">
      <g>
       <use style="stroke:#000000;stroke-width:0.5;" x="135.157866323" xlink:href="#mc5f042e4e7" y="26.31828125"/>
      </g>
     </g>
     <g id="text_2">
      <!-- −15 -->
      <defs>
       <path d="M 12.40625 8.296875 
L 28.515625 8.296875 
L 28.515625 63.921875 
L 10.984375 60.40625 
L 10.984375 69.390625 
L 28.421875 72.90625 
L 38.28125 72.90625 
L 38.28125 8.296875 
L 54.390625 8.296875 
L 54.390625 0 
L 12.40625 0 
z
" id="BitstreamVeraSans-Roman-31"/>
       <path d="M 10.796875 72.90625 
L 49.515625 72.90625 
L 49.515625 64.59375 
L 19.828125 64.59375 
L 19.828125 46.734375 
Q 21.96875 47.46875 24.109375 47.828125 
Q 26.265625 48.1875 28.421875 48.1875 
Q 40.625 48.1875 47.75 41.5 
Q 54.890625 34.8125 54.890625 23.390625 
Q 54.890625 11.625 47.5625 5.09375 
Q 40.234375 -1.421875 26.90625 -1.421875 
Q 22.3125 -1.421875 17.546875 -0.640625 
Q 12.796875 0.140625 7.71875 1.703125 
L 7.71875 11.625 
Q 12.109375 9.234375 16.796875 8.0625 
Q 21.484375 6.890625 26.703125 6.890625 
Q 35.15625 6.890625 40.078125 11.328125 
Q 45.015625 15.765625 45.015625 23.390625 
Q 45.015625 31 40.078125 35.4375 
Q 35.15625 39.890625 26.703125 39.890625 
Q 22.75 39.890625 18.8125 39.015625 
Q 14.890625 38.140625 10.796875 36.28125 
z
" id="BitstreamVeraSans-Roman-35"/>
      </defs>
      <g transform="translate(126.715991323 273.37625)scale(0.08 -0.08)">
       <use xlink:href="#BitstreamVeraSans-Roman-2212"/>
       <use x="83.7890625" xlink:href="#BitstreamVeraSans-Roman-31"/>
       <use x="147.412109375" xlink:href="#BitstreamVeraSans-Roman-35"/>
      </g>
     </g>
    </g>
    <g id="xtick_3">
     <g id="line2d_7">
      <path clip-path="url(#p9ce5beaa65)" d="M 236.471983 263.2975 
L 236.471983 26.318281 
" style="fill:none;stroke:#000000;stroke-dasharray:1.000000,3.000000;stroke-dashoffset:0.0;stroke-width:0.5;"/>
     </g>
     <g id="line2d_8">
      <g>
       <use style="stroke:#000000;stroke-width:0.5;" x="236.471982646" xlink:href="#mf4b16ff782" y="263.2975"/>
      </g>
     </g>
     <g id="line2d_9">
      <g>
       <use style="stroke:#000000;stroke-width:0.5;" x="236.471982646" xlink:href="#mc5f042e4e7" y="26.31828125"/>
      </g>
     </g>
     <g id="text_3">
      <!-- −10 -->
      <g transform="translate(228.030107646 273.37625)scale(0.08 -0.08)">
       <use xlink:href="#BitstreamVeraSans-Roman-2212"/>
       <use x="83.7890625" xlink:href="#BitstreamVeraSans-Roman-31"/>
       <use x="147.412109375" xlink:href="#BitstreamVeraSans-Roman-30"/>
      </g>
     </g>
    </g>
    <g id="xtick_4">
     <g id="line2d_10">
      <path clip-path="url(#p9ce5beaa65)" d="M 337.786099 263.2975 
L 337.786099 26.318281 
" style="fill:none;stroke:#000000;stroke-dasharray:1.000000,3.000000;stroke-dashoffset:0.0;stroke-width:0.5;"/>
     </g>
     <g id="line2d_11">
      <g>
       <use style="stroke:#000000;stroke-width:0.5;" x="337.78609897" xlink:href="#mf4b16ff782" y="263.2975"/>
      </g>
     </g>
     <g id="line2d_12">
      <g>
       <use style="stroke:#000000;stroke-width:0.5;" x="337.78609897" xlink:href="#mc5f042e4e7" y="26.31828125"/>
      </g>
     </g>
     <g id="text_4">
      <!-- −5 -->
      <g transform="translate(331.88922397 273.37625)scale(0.08 -0.08)">
       <use xlink:href="#BitstreamVeraSans-Roman-2212"/>
       <use x="83.7890625" xlink:href="#BitstreamVeraSans-Roman-35"/>
      </g>
     </g>
    </g>
   </g>
   <g id="matplotlib.axis_2">
    <g id="ytick_1">
     <g id="line2d_13">
      <path clip-path="url(#p9ce5beaa65)" d="M 33.84375 263.2975 
L 419.04 263.2975 
" style="fill:none;stroke:#000000;stroke-dasharray:1.000000,3.000000;stroke-dashoffset:0.0;stroke-width:0.5;"/>
     </g>
     <g id="line2d_14">
      <defs>
       <path d="M 0 0 
L 4 0 
" id="mc622294c55" style="stroke:#000000;stroke-width:0.5;"/>
      </defs>
      <g>
       <use style="stroke:#000000;stroke-width:0.5;" x="33.84375" xlink:href="#mc622294c55" y="263.2975"/>
      </g>
     </g>
     <g id="line2d_15">
      <defs>
       <path d="M 0 0 
L -4 0 
" id="m8aebdb6068" style="stroke:#000000;stroke-width:0.5;"/>
      </defs>
      <g>
       <use style="stroke:#000000;stroke-width:0.5;" x="419.04" xlink:href="#m8aebdb6068" y="263.2975"/>
      </g>
     </g>
     <g id="text_5">
      <!-- −20 -->
      <g transform="translate(12.96 265.505)scale(0.08 -0.08)">
       <use xlink:href="#BitstreamVeraSans-Roman-2212"/>
       <use x="83.7890625" xlink:href="#BitstreamVeraSans-Roman-32"/>
       <use x="147.412109375" xlink:href="#BitstreamVeraSans-Roman-30"/>
      </g>
     </g>
    </g>
    <g id="ytick_2">
     <g id="line2d_16">
      <path clip-path="url(#p9ce5beaa65)" d="M 33.84375 200.934876 
L 419.04 200.934876 
" style="fill:none;stroke:#000000;stroke-dasharray:1.000000,3.000000;stroke-dashoffset:0.0;stroke-width:0.5;"/>
     </g>
     <g id="line2d_17">
      <g>
       <use style="stroke:#000000;stroke-width:0.5;" x="33.84375" xlink:href="#mc622294c55" y="200.934875889"/>
      </g>
     </g>
     <g id="line2d_18">
      <g>
       <use style="stroke:#000000;stroke-width:0.5;" x="419.04" xlink:href="#m8aebdb6068" y="200.934875889"/>
      </g>
     </g>
     <g id="text_6">
      <!-- −15 -->
      <g transform="translate(12.96 203.142375889)scale(0.08 -0.08)">
       <use xlink:href="#BitstreamVeraSans-Roman-2212"/>
       <use x="83.7890625" xlink:href="#BitstreamVeraSans-Roman-31"/>
       <use x="147.412109375" xlink:href="#BitstreamVeraSans-Roman-35"/>
      </g>
     </g>
    </g>
    <g id="ytick_3">
     <g id="line2d_19">
      <path clip-path="url(#p9ce5beaa65)" d="M 33.84375 138.572252 
L 419.04 138.572252 
" style="fill:none;stroke:#000000;stroke-dasharray:1.000000,3.000000;stroke-dashoffset:0.0;stroke-width:0.5;"/>
     </g>
     <g id="line2d_20">
      <g>
       <use style="stroke:#000000;stroke-width:0.5;" x="33.84375" xlink:href="#mc622294c55" y="138.572251778"/>
      </g>
     </g>
     <g id="line2d_21">
      <g>
       <use style="stroke:#000000;stroke-width:0.5;" x="419.04" xlink:href="#m8aebdb6068" y="138.572251778"/>
      </g>
     </g>
     <g id="text_7">
      <!-- −10 -->
      <g transform="translate(12.96 140.779751778)scale(0.08 -0.08)">
       <use xlink:href="#BitstreamVeraSans-Roman-2212"/>
       <use x="83.7890625" xlink:href="#BitstreamVeraSans-Roman-31"/>
       <use x="147.412109375" xlink:href="#BitstreamVeraSans-Roman-30"/>
      </g>
     </g>
    </g>
    <g id="ytick_4">
     <g id="line2d_22">
      <path clip-path="url(#p9ce5beaa65)" d="M 33.84375 76.209628 
L 419.04 76.209628 
" style="fill:none;stroke:#000000;stroke-dasharray:1.000000,3.000000;stroke-dashoffset:0.0;stroke-width:0.5;"/>
     </g>
     <g id="line2d_23">
      <g>
       <use style="stroke:#000000;stroke-width:0.5;" x="33.84375" xlink:href="#mc622294c55" y="76.2096276667"/>
      </g>
     </g>
     <g id="line2d_24">
      <g>
       <use style="stroke:#000000;stroke-width:0.5;" x="419.04" xlink:href="#m8aebdb6068" y="76.2096276667"/>
      </g>
     </g>
     <g id="text_8">
      <!-- −5 -->
      <g transform="translate(18.05 78.4171276667)scale(0.08 -0.08)">
       <use xlink:href="#BitstreamVeraSans-Roman-2212"/>
       <use x="83.7890625" xlink:href="#BitstreamVeraSans-Roman-35"/>
      </g>
     </g>
    </g>
   </g>
   <g id="line2d_25">
    <path clip-path="url(#p9ce5beaa65)" d="M 420.66289 26.20604 
L 420.775499 14.533762 
L 421.003153 13.222573 
L 421.387988 12.253943 
L 421.977327 11.374605 
L 422.766327 10.584855 
L 423.839477 9.833349 
L 425.177095 9.185079 
L 426.698525 8.699498 
L 428.445926 8.387051 
L 430.305757 8.297142 
L 432.13155 8.440954 
L 433 8.594617 
L 433 8.594617 
" style="fill:none;stroke:#cc1414;stroke-linecap:square;"/>
   </g>
   <g id="line2d_26">
    <path clip-path="url(#p9ce5beaa65)" d="M 422.816633 103.509746 
L 422.927844 23.761651 
L 423.128292 18.87931 
L 423.434646 16.442589 
L 423.863501 14.808569 
L 424.39131 13.625093 
L 425.071483 12.621949 
L 425.888845 11.785381 
L 426.915734 11.043294 
L 428.14722 10.429424 
L 429.544283 9.980672 
L 431.032754 9.724523 
L 432.660481 9.671715 
L 433 9.69005 
L 433 9.69005 
" style="fill:none;stroke:#cc4514;stroke-linecap:square;"/>
   </g>
   <g id="patch_3">
    <path d="M 33.84375 26.318281 
L 419.04 26.318281 
" style="fill:none;stroke:#000000;stroke-linecap:square;stroke-linejoin:miter;"/>
   </g>
   <g id="patch_4">
    <path d="M 419.04 263.2975 
L 419.04 26.318281 
" style="fill:none;stroke:#000000;stroke-linecap:square;stroke-linejoin:miter;"/>
   </g>
   <g id="patch_5">
    <path d="M 33.84375 263.2975 
L 419.04 263.2975 
" style="fill:none;stroke:#000000;stroke-linecap:square;stroke-linejoin:miter;"/>
   </g>
   <g id="patch_6">
    <path d="M 33.84375 263.2975 
L 33.84375 26.318281 
" style="fill:none;stroke:#000000;stroke-linecap:square;stroke-linejoin:miter;"/>
   </g>
   <g id="line2d_27">
    <path clip-path="url(#p9ce5beaa65)" d="M 422.934075 289 
L 423.054944 84.793175 
L 423.259695 56.884544 
L 423.562859 43.797459 
L 423.931185 36.527704 
L 424.389479 31.466015 
L 424.961008 27.569332 
L 425.629175 24.551087 
L 426.360836 22.214442 
L 427.227248 20.17982 
L 428.221319 18.433505 
L 429.321346 16.966662 
L 430.490956 15.770425 
L 431.830907 14.730868 
L 433 14.048397 
L 433 14.048397 
" style="fill:none;stroke:#cc9e14;stroke-linecap:square;"/>
   </g>
   <g id="text_9">
    <!-- Nyquist curves -->
    <defs>
     <path id="BitstreamVeraSans-Roman-20"/>
     <path d="M 9.8125 72.90625 
L 23.09375 72.90625 
L 55.421875 11.921875 
L 55.421875 72.90625 
L 64.984375 72.90625 
L 64.984375 0 
L 51.703125 0 
L 19.390625 60.984375 
L 19.390625 0 
L 9.8125 0 
z
" id="BitstreamVeraSans-Roman-4e"/>
     <path d="M 56.203125 29.59375 
L 56.203125 25.203125 
L 14.890625 25.203125 
Q 15.484375 15.921875 20.484375 11.0625 
Q 25.484375 6.203125 34.421875 6.203125 
Q 39.59375 6.203125 44.453125 7.46875 
Q 49.3125 8.734375 54.109375 11.28125 
L 54.109375 2.78125 
Q 49.265625 0.734375 44.1875 -0.34375 
Q 39.109375 -1.421875 33.890625 -1.421875 
Q 20.796875 -1.421875 13.15625 6.1875 
Q 5.515625 13.8125 5.515625 26.8125 
Q 5.515625 40.234375 12.765625 48.109375 
Q 20.015625 56 32.328125 56 
Q 43.359375 56 49.78125 48.890625 
Q 56.203125 41.796875 56.203125 29.59375 
M 47.21875 32.234375 
Q 47.125 39.59375 43.09375 43.984375 
Q 39.0625 48.390625 32.421875 48.390625 
Q 24.90625 48.390625 20.390625 44.140625 
Q 15.875 39.890625 15.1875 32.171875 
z
" id="BitstreamVeraSans-Roman-65"/>
     <path d="M 9.421875 54.6875 
L 18.40625 54.6875 
L 18.40625 0 
L 9.421875 0 
z
M 9.421875 75.984375 
L 18.40625 75.984375 
L 18.40625 64.59375 
L 9.421875 64.59375 
z
" id="BitstreamVeraSans-Roman-69"/>
     <path d="M 32.171875 -5.078125 
Q 28.375 -14.84375 24.75 -17.8125 
Q 21.140625 -20.796875 15.09375 -20.796875 
L 7.90625 -20.796875 
L 7.90625 -13.28125 
L 13.1875 -13.28125 
Q 16.890625 -13.28125 18.9375 -11.515625 
Q 21 -9.765625 23.484375 -3.21875 
L 25.09375 0.875 
L 2.984375 54.6875 
L 12.5 54.6875 
L 29.59375 11.921875 
L 46.6875 54.6875 
L 56.203125 54.6875 
z
" id="BitstreamVeraSans-Roman-79"/>
     <path d="M 2.984375 54.6875 
L 12.5 54.6875 
L 29.59375 8.796875 
L 46.6875 54.6875 
L 56.203125 54.6875 
L 35.6875 0 
L 23.484375 0 
z
" id="BitstreamVeraSans-Roman-76"/>
     <path d="M 18.3125 70.21875 
L 18.3125 54.6875 
L 36.8125 54.6875 
L 36.8125 47.703125 
L 18.3125 47.703125 
L 18.3125 18.015625 
Q 18.3125 11.328125 20.140625 9.421875 
Q 21.96875 7.515625 27.59375 7.515625 
L 36.8125 7.515625 
L 36.8125 0 
L 27.59375 0 
Q 17.1875 0 13.234375 3.875 
Q 9.28125 7.765625 9.28125 18.015625 
L 9.28125 47.703125 
L 2.6875 47.703125 
L 2.6875 54.6875 
L 9.28125 54.6875 
L 9.28125 70.21875 
z
" id="BitstreamVeraSans-Roman-74"/>
     <path d="M 8.5 21.578125 
L 8.5 54.6875 
L 17.484375 54.6875 
L 17.484375 21.921875 
Q 17.484375 14.15625 20.5 10.265625 
Q 23.53125 6.390625 29.59375 6.390625 
Q 36.859375 6.390625 41.078125 11.03125 
Q 45.3125 15.671875 45.3125 23.6875 
L 45.3125 54.6875 
L 54.296875 54.6875 
L 54.296875 0 
L 45.3125 0 
L 45.3125 8.40625 
Q 42.046875 3.421875 37.71875 1 
Q 33.40625 -1.421875 27.6875 -1.421875 
Q 18.265625 -1.421875 13.375 4.4375 
Q 8.5 10.296875 8.5 21.578125 
" id="BitstreamVeraSans-Roman-75"/>
     <path d="M 41.109375 46.296875 
Q 39.59375 47.171875 37.8125 47.578125 
Q 36.03125 48 33.890625 48 
Q 26.265625 48 22.1875 43.046875 
Q 18.109375 38.09375 18.109375 28.8125 
L 18.109375 0 
L 9.078125 0 
L 9.078125 54.6875 
L 18.109375 54.6875 
L 18.109375 46.1875 
Q 20.953125 51.171875 25.484375 53.578125 
Q 30.03125 56 36.53125 56 
Q 37.453125 56 38.578125 55.875 
Q 39.703125 55.765625 41.0625 55.515625 
z
" id="BitstreamVeraSans-Roman-72"/>
     <path d="M 44.28125 53.078125 
L 44.28125 44.578125 
Q 40.484375 46.53125 36.375 47.5 
Q 32.28125 48.484375 27.875 48.484375 
Q 21.1875 48.484375 17.84375 46.4375 
Q 14.5 44.390625 14.5 40.28125 
Q 14.5 37.15625 16.890625 35.375 
Q 19.28125 33.59375 26.515625 31.984375 
L 29.59375 31.296875 
Q 39.15625 29.25 43.1875 25.515625 
Q 47.21875 21.78125 47.21875 15.09375 
Q 47.21875 7.46875 41.1875 3.015625 
Q 35.15625 -1.421875 24.609375 -1.421875 
Q 20.21875 -1.421875 15.453125 -0.5625 
Q 10.6875 0.296875 5.421875 2 
L 5.421875 11.28125 
Q 10.40625 8.6875 15.234375 7.390625 
Q 20.0625 6.109375 24.8125 6.109375 
Q 31.15625 6.109375 34.5625 8.28125 
Q 37.984375 10.453125 37.984375 14.40625 
Q 37.984375 18.0625 35.515625 20.015625 
Q 33.0625 21.96875 24.703125 23.78125 
L 21.578125 24.515625 
Q 13.234375 26.265625 9.515625 29.90625 
Q 5.8125 33.546875 5.8125 39.890625 
Q 5.8125 47.609375 11.28125 51.796875 
Q 16.75 56 26.8125 56 
Q 31.78125 56 36.171875 55.265625 
Q 40.578125 54.546875 44.28125 53.078125 
" id="BitstreamVeraSans-Roman-73"/>
     <path d="M 48.78125 52.59375 
L 48.78125 44.1875 
Q 44.96875 46.296875 41.140625 47.34375 
Q 37.3125 48.390625 33.40625 48.390625 
Q 24.65625 48.390625 19.8125 42.84375 
Q 14.984375 37.3125 14.984375 27.296875 
Q 14.984375 17.28125 19.8125 11.734375 
Q 24.65625 6.203125 33.40625 6.203125 
Q 37.3125 6.203125 41.140625 7.25 
Q 44.96875 8.296875 48.78125 10.40625 
L 48.78125 2.09375 
Q 45.015625 0.34375 40.984375 -0.53125 
Q 36.96875 -1.421875 32.421875 -1.421875 
Q 20.0625 -1.421875 12.78125 6.34375 
Q 5.515625 14.109375 5.515625 27.296875 
Q 5.515625 40.671875 12.859375 48.328125 
Q 20.21875 56 33.015625 56 
Q 37.15625 56 41.109375 55.140625 
Q 45.0625 54.296875 48.78125 52.59375 
" id="BitstreamVeraSans-Roman-63"/>
     <path d="M 14.796875 27.296875 
Q 14.796875 17.390625 18.875 11.75 
Q 22.953125 6.109375 30.078125 6.109375 
Q 37.203125 6.109375 41.296875 11.75 
Q 45.40625 17.390625 45.40625 27.296875 
Q 45.40625 37.203125 41.296875 42.84375 
Q 37.203125 48.484375 30.078125 48.484375 
Q 22.953125 48.484375 18.875 42.84375 
Q 14.796875 37.203125 14.796875 27.296875 
M 45.40625 8.203125 
Q 42.578125 3.328125 38.25 0.953125 
Q 33.9375 -1.421875 27.875 -1.421875 
Q 17.96875 -1.421875 11.734375 6.484375 
Q 5.515625 14.40625 5.515625 27.296875 
Q 5.515625 40.1875 11.734375 48.09375 
Q 17.96875 56 27.875 56 
Q 33.9375 56 38.25 53.625 
Q 42.578125 51.265625 45.40625 46.390625 
L 45.40625 54.6875 
L 54.390625 54.6875 
L 54.390625 -20.796875 
L 45.40625 -20.796875 
z
" id="BitstreamVeraSans-Roman-71"/>
    </defs>
    <g transform="translate(185.521875 21.31828125)scale(0.11 -0.11)">
     <use xlink:href="#BitstreamVeraSans-Roman-4e"/>
     <use x="74.8046875" xlink:href="#BitstreamVeraSans-Roman-79"/>
     <use x="133.984375" xlink:href="#BitstreamVeraSans-Roman-71"/>
     <use x="197.4609375" xlink:href="#BitstreamVeraSans-Roman-75"/>
     <use x="260.83984375" xlink:href="#BitstreamVeraSans-Roman-69"/>
     <use x="288.623046875" xlink:href="#BitstreamVeraSans-Roman-73"/>
     <use x="340.72265625" xlink:href="#BitstreamVeraSans-Roman-74"/>
     <use x="379.931640625" xlink:href="#BitstreamVeraSans-Roman-20"/>
     <use x="411.71875" xlink:href="#BitstreamVeraSans-Roman-63"/>
     <use x="466.69921875" xlink:href="#BitstreamVeraSans-Roman-75"/>
     <use x="530.078125" xlink:href="#BitstreamVeraSans-Roman-72"/>
     <use x="571.19140625" xlink:href="#BitstreamVeraSans-Roman-76"/>
     <use x="630.37109375" xlink:href="#BitstreamVeraSans-Roman-65"/>
     <use x="691.89453125" xlink:href="#BitstreamVeraSans-Roman-73"/>
    </g>
   </g>
   <g id="line2d_28">
    <path clip-path="url(#p9ce5beaa65)" d="M 383.939741 289 
L 384.508295 245.409337 
L 385.09307 215.722788 
L 385.831916 189.455634 
L 386.613708 169.342062 
L 387.557726 151.19919 
L 388.486531 137.438222 
L 389.560213 124.801038 
L 390.792701 113.19656 
L 391.901292 104.602694 
L 393.124261 96.582899 
L 394.464835 89.105556 
L 395.924093 82.142807 
L 397.500511 75.670136 
L 399.189569 69.665871 
L 400.983471 64.11062 
L 402.871013 58.986642 
L 404.837671 54.277206 
L 406.865899 49.965947 
L 408.93567 46.036292 
L 411.025215 42.470978 
L 413.6305 38.498717 
L 416.18772 35.02874 
L 418.656408 32.019922 
L 421.453387 28.957083 
L 424.431806 26.042286 
L 427.408855 23.43393 
L 430.73472 20.820423 
L 433 19.182755 
L 433 19.182755 
" style="fill:none;stroke:#87cc14;stroke-linecap:square;"/>
   </g>
   <g id="line2d_29">
    <path clip-path="url(#p9ce5beaa65)" d="M 161.894376 289 
L 169.823003 273.484405 
L 178.087244 258.232375 
L 186.435805 243.687398 
L 194.846929 229.834625 
L 203.298192 216.658666 
L 211.766736 204.143519 
L 220.229515 192.27252 
L 228.663545 181.028315 
L 237.046154 170.39285 
L 245.355224 160.347391 
L 253.569418 150.872559 
L 261.668394 141.948385 
L 269.632993 133.554382 
L 277.445406 125.669634 
L 285.089308 118.272892 
L 292.549966 111.34268 
L 299.814319 104.857403 
L 306.871022 98.795466 
L 313.710467 93.135382 
L 323.545502 85.352282 
L 332.854865 78.355226 
L 341.627157 72.07619 
L 349.858441 66.450064 
L 357.551455 61.41513 
L 366.986994 55.521876 
L 375.514763 50.450629 
L 384.967479 45.095914 
L 394.681399 39.862583 
L 405.200589 34.462578 
L 421.008565 26.663656 
L 428.89858 22.654038 
L 433 20.333272 
L 433 20.333272 
" style="fill:none;stroke:#14cc2b;stroke-linecap:square;"/>
   </g>
   <g id="line2d_30">
    <path clip-path="url(#p9ce5beaa65)" d="M -1 173.697194 
L 22.26661 163.702386 
L 48.761133 152.628585 
L 73.761867 142.467239 
L 97.329182 133.143699 
L 119.524087 124.588678 
L 140.40774 116.737996 
L 160.041009 109.532325 
L 187.277883 99.814659 
L 212.035393 91.259298 
L 234.505416 83.719269 
L 261.223017 75.024535 
L 284.608031 67.644703 
L 309.723903 59.938786 
L 338.372455 51.381884 
L 398.396962 33.584914 
L 409.81075 29.932129 
L 418.042614 27.084299 
L 423.970561 24.822893 
L 428.62738 22.819236 
L 432.11584 21.076587 
L 433 20.580196 
L 433 20.580196 
" style="fill:none;stroke:#14ccc6;stroke-linecap:square;"/>
   </g>
   <g id="line2d_31">
    <path clip-path="url(#p9ce5beaa65)" d="M -1 106.232613 
L 44.549923 97.859649 
L 110.251179 85.997644 
L 193.587516 71.217286 
L 286.645169 54.695321 
L 321.212767 48.34615 
L 347.968716 43.213657 
L 368.667752 39.007714 
L 384.674702 35.518719 
L 397.049399 32.593486 
L 406.613809 30.118564 
L 414.913508 27.733068 
L 421.094175 25.729318 
L 426.18177 23.842692 
L 430.168132 22.113693 
L 433 20.652084 
L 433 20.652084 
" style="fill:none;stroke:#1427cc;stroke-linecap:square;"/>
   </g>
   <g id="line2d_32">
    <path clip-path="url(#p9ce5beaa65)" d="M -1 84.444797 
L 82.560825 75.207316 
L 142.5643 68.376923 
L 192.48198 62.491751 
L 234.005319 57.385723 
L 268.543286 52.927332 
L 297.269178 49.011806 
L 321.159784 45.555108 
L 341.028127 42.48934 
L 360.505161 39.249323 
L 376.115287 36.416031 
L 388.625795 33.927879 
L 398.651879 31.735093 
L 407.861285 29.496232 
L 414.974116 27.551459 
L 419.04 26.318281 
L 419.04 26.318281 
" style="fill:none;stroke:#bc14cc;stroke-linecap:square;"/>
   </g>
   <g id="legend_1">
    <g id="patch_7">
     <path d="M 37.84375 259.2975 
L 203.60375 259.2975 
L 203.60375 156.4275 
L 37.84375 156.4275 
z
" style="fill:#ffffff;stroke:#000000;stroke-linejoin:miter;"/>
    </g>
    <g id="line2d_33">
     <path d="M 43.44375 162.90625 
L 54.64375 162.90625 
" style="fill:none;stroke:#cc1414;stroke-linecap:square;"/>
    </g>
    <g id="line2d_34"/>
    <g id="text_10">
     <!-- $k_p = -0.9, \quad k_i = 0.01, \quad k_d = 0.0$ -->
     <defs>
      <path d="M 9.28125 0 
L 9.28125 3.515625 
Q 21.78125 3.515625 21.78125 6.6875 
L 21.78125 59.1875 
Q 16.609375 56.6875 8.6875 56.6875 
L 8.6875 60.203125 
Q 20.953125 60.203125 27.203125 66.609375 
L 28.609375 66.609375 
Q 28.953125 66.609375 29.265625 66.328125 
Q 29.59375 66.0625 29.59375 65.71875 
L 29.59375 6.6875 
Q 29.59375 3.515625 42.09375 3.515625 
L 42.09375 0 
z
" id="Cmr10-31"/>
      <path d="M 10.203125 23 
Q 9.375 23 8.828125 23.625 
Q 8.296875 24.265625 8.296875 25 
Q 8.296875 25.734375 8.828125 26.359375 
Q 9.375 27 10.203125 27 
L 67.578125 27 
Q 68.359375 27 68.875 26.359375 
Q 69.390625 25.734375 69.390625 25 
Q 69.390625 24.265625 68.875 23.625 
Q 68.359375 23 67.578125 23 
z
" id="Cmsy10-a1"/>
      <path d="M 11.28125 4.203125 
Q 14.015625 0.984375 20.796875 0.984375 
Q 24.609375 0.984375 27.90625 3.5625 
Q 31.203125 6.15625 33.015625 9.90625 
Q 35.109375 14.15625 35.6875 18.96875 
Q 36.28125 23.78125 36.28125 30.90625 
Q 34.578125 26.859375 31.375 24.265625 
Q 28.171875 21.6875 24.03125 21.6875 
Q 18.21875 21.6875 13.640625 24.828125 
Q 9.078125 27.984375 6.640625 33.125 
Q 4.203125 38.28125 4.203125 44.09375 
Q 4.203125 50.09375 6.9375 55.296875 
Q 9.671875 60.5 14.5 63.546875 
Q 19.34375 66.609375 25.484375 66.609375 
Q 31.546875 66.609375 35.625 63.3125 
Q 39.703125 60.015625 41.84375 54.8125 
Q 44 49.609375 44.84375 43.796875 
Q 45.703125 37.984375 45.703125 32.328125 
Q 45.703125 24.609375 42.875 16.578125 
Q 40.046875 8.546875 34.40625 3.171875 
Q 28.765625 -2.203125 20.796875 -2.203125 
Q 14.890625 -2.203125 10.78125 0.578125 
Q 6.6875 3.375 6.6875 8.984375 
Q 6.6875 11.03125 8.078125 12.421875 
Q 9.46875 13.8125 11.53125 13.8125 
Q 13.53125 13.8125 14.921875 12.421875 
Q 16.3125 11.03125 16.3125 8.984375 
Q 16.3125 7.03125 14.890625 5.609375 
Q 13.484375 4.203125 11.53125 4.203125 
z
M 24.421875 24.3125 
Q 28.515625 24.3125 31.125 27.0625 
Q 33.734375 29.828125 34.90625 33.921875 
Q 36.078125 38.03125 36.078125 42.09375 
L 36.078125 44 
L 36.078125 44.390625 
Q 36.078125 51.90625 33.875 57.8125 
Q 31.6875 63.71875 25.484375 63.71875 
Q 21.53125 63.71875 19.0625 61.984375 
Q 16.609375 60.25 15.4375 57.375 
Q 14.265625 54.5 13.9375 51.21875 
Q 13.625 47.953125 13.625 44.09375 
Q 13.625 38.421875 14.15625 34.421875 
Q 14.703125 30.421875 17.09375 27.359375 
Q 19.484375 24.3125 24.421875 24.3125 
" id="Cmr10-39"/>
      <path d="M -2.484375 -19.390625 
Q -3.421875 -19.390625 -3.421875 -18.109375 
Q -3.078125 -15.921875 -2.09375 -15.921875 
Q 1.03125 -15.921875 2.265625 -15.359375 
Q 3.515625 -14.796875 4.203125 -12.5 
L 15.484375 32.515625 
Q 16.21875 34.375 16.21875 37.3125 
Q 16.21875 41.609375 13.28125 41.609375 
Q 10.15625 41.609375 8.640625 37.859375 
Q 7.125 34.125 5.71875 28.421875 
Q 5.71875 27.78125 4.890625 27.78125 
L 3.71875 27.78125 
Q 3.46875 27.78125 3.171875 28.140625 
Q 2.875 28.515625 2.875 28.8125 
Q 3.953125 33.15625 4.953125 36.171875 
Q 5.953125 39.203125 8.078125 41.6875 
Q 10.203125 44.1875 13.375 44.1875 
Q 16.796875 44.1875 19.375 42.25 
Q 21.96875 40.328125 22.703125 37.015625 
Q 25.4375 40.1875 28.75 42.1875 
Q 32.078125 44.1875 35.59375 44.1875 
Q 39.796875 44.1875 42.890625 41.9375 
Q 46 39.703125 47.5625 36.0625 
Q 49.125 32.421875 49.125 28.21875 
Q 49.125 21.78125 45.828125 14.890625 
Q 42.53125 8.015625 36.890625 3.4375 
Q 31.25 -1.125 24.8125 -1.125 
Q 21.875 -1.125 19.5 0.53125 
Q 17.140625 2.203125 15.828125 4.890625 
L 11.28125 -12.890625 
Q 11.03125 -14.359375 10.984375 -14.59375 
Q 10.984375 -15.921875 17.578125 -15.921875 
Q 18.609375 -15.921875 18.609375 -17.1875 
Q 18.265625 -18.5 18.046875 -18.9375 
Q 17.828125 -19.390625 16.890625 -19.390625 
z
M 24.90625 1.515625 
Q 28.375 1.515625 31.34375 4.375 
Q 34.328125 7.234375 36.1875 10.796875 
Q 37.546875 13.484375 38.734375 17.359375 
Q 39.9375 21.234375 40.8125 25.625 
Q 41.703125 30.03125 41.703125 32.625 
Q 41.703125 34.90625 41.09375 36.90625 
Q 40.484375 38.921875 39.09375 40.265625 
Q 37.703125 41.609375 35.40625 41.609375 
Q 31.734375 41.609375 28.484375 38.984375 
Q 25.25 36.375 22.609375 32.515625 
L 22.609375 32.171875 
L 17.09375 10.109375 
Q 17.78125 6.546875 19.734375 4.03125 
Q 21.6875 1.515625 24.90625 1.515625 
" id="Cmmi10-70"/>
      <path d="M 5.328125 1.8125 
Q 5.328125 2.390625 5.421875 2.6875 
L 19.921875 60.5 
Q 20.3125 62.203125 20.40625 63.1875 
Q 20.40625 64.796875 13.921875 64.796875 
Q 12.890625 64.796875 12.890625 66.109375 
Q 12.9375 66.359375 13.109375 66.984375 
Q 13.28125 67.625 13.546875 67.96875 
Q 13.8125 68.3125 14.3125 68.3125 
L 27.78125 69.390625 
L 28.078125 69.390625 
Q 28.078125 69.28125 28.421875 69.109375 
Q 28.765625 68.953125 28.8125 68.890625 
Q 29 68.40625 29 68.109375 
L 18.5 26.3125 
Q 22.125 27.828125 27.609375 33.515625 
Q 33.109375 39.203125 36.203125 41.6875 
Q 39.3125 44.1875 44 44.1875 
Q 46.78125 44.1875 48.734375 42.28125 
Q 50.6875 40.375 50.6875 37.59375 
Q 50.6875 35.84375 49.953125 34.34375 
Q 49.21875 32.859375 47.890625 31.921875 
Q 46.578125 31 44.828125 31 
Q 43.21875 31 42.109375 32 
Q 41.015625 33.015625 41.015625 34.625 
Q 41.015625 37.015625 42.703125 38.640625 
Q 44.390625 40.28125 46.78125 40.28125 
Q 45.796875 41.609375 43.796875 41.609375 
Q 40.828125 41.609375 38.0625 39.890625 
Q 35.296875 38.1875 32.09375 34.984375 
Q 28.90625 31.78125 26.265625 29.125 
Q 23.640625 26.46875 21.390625 25.09375 
Q 27.296875 24.421875 31.640625 22 
Q 35.984375 19.578125 35.984375 14.59375 
Q 35.984375 13.578125 35.59375 12.015625 
Q 34.71875 8.25 34.71875 6 
Q 34.71875 1.515625 37.796875 1.515625 
Q 41.40625 1.515625 43.28125 5.46875 
Q 45.171875 9.421875 46.390625 14.703125 
Q 46.578125 15.28125 47.21875 15.28125 
L 48.390625 15.28125 
Q 48.78125 15.28125 49.046875 15.03125 
Q 49.3125 14.796875 49.3125 14.40625 
Q 49.3125 14.3125 49.21875 14.109375 
Q 45.453125 -1.125 37.59375 -1.125 
Q 34.765625 -1.125 32.59375 0.1875 
Q 30.421875 1.515625 29.25 3.78125 
Q 28.078125 6.0625 28.078125 8.890625 
Q 28.078125 10.5 28.515625 12.203125 
Q 28.8125 13.375 28.8125 14.40625 
Q 28.8125 18.265625 25.390625 20.265625 
Q 21.96875 22.265625 17.578125 22.703125 
L 12.5 2.296875 
Q 12.109375 0.78125 10.984375 -0.171875 
Q 9.859375 -1.125 8.40625 -1.125 
Q 7.125 -1.125 6.21875 -0.265625 
Q 5.328125 0.59375 5.328125 1.8125 
" id="Cmmi10-6b"/>
      <path d="M 17.390625 -1.125 
Q 11.078125 -1.125 7.4375 3.640625 
Q 3.8125 8.40625 3.8125 14.890625 
Q 3.8125 21.296875 7.125 28.171875 
Q 10.453125 35.0625 16.09375 39.625 
Q 21.734375 44.1875 28.21875 44.1875 
Q 31.15625 44.1875 33.515625 42.546875 
Q 35.890625 40.921875 37.203125 38.1875 
L 42.828125 60.5 
Q 43.21875 62.203125 43.3125 63.1875 
Q 43.3125 64.796875 36.8125 64.796875 
Q 35.796875 64.796875 35.796875 66.109375 
Q 35.84375 66.359375 36.015625 66.984375 
Q 36.1875 67.625 36.453125 67.96875 
Q 36.71875 68.3125 37.203125 68.3125 
L 50.6875 69.390625 
Q 51.90625 69.390625 51.90625 68.109375 
L 37.5 10.59375 
Q 36.8125 8.9375 36.8125 5.8125 
Q 36.8125 1.515625 39.703125 1.515625 
Q 42.828125 1.515625 44.453125 5.484375 
Q 46.09375 9.46875 47.21875 14.703125 
Q 47.40625 15.28125 48 15.28125 
L 49.21875 15.28125 
Q 49.609375 15.28125 49.84375 14.9375 
Q 50.09375 14.59375 50.09375 14.3125 
Q 48.34375 7.328125 46.265625 3.09375 
Q 44.1875 -1.125 39.5 -1.125 
Q 36.140625 -1.125 33.546875 0.84375 
Q 30.953125 2.828125 30.328125 6.109375 
Q 23.875 -1.125 17.390625 -1.125 
M 17.484375 1.515625 
Q 21.09375 1.515625 24.484375 4.21875 
Q 27.875 6.9375 30.328125 10.59375 
Q 30.421875 10.6875 30.421875 10.984375 
L 35.890625 33.015625 
Q 35.296875 36.53125 33.296875 39.0625 
Q 31.296875 41.609375 27.984375 41.609375 
Q 24.609375 41.609375 21.703125 38.84375 
Q 18.796875 36.078125 16.796875 32.328125 
Q 14.84375 28.328125 13.0625 21.34375 
Q 11.28125 14.359375 11.28125 10.5 
Q 11.28125 7.03125 12.765625 4.265625 
Q 14.265625 1.515625 17.484375 1.515625 
" id="Cmmi10-64"/>
      <path d="M 7.515625 13.28125 
Q 6.6875 13.28125 6.140625 13.90625 
Q 5.609375 14.546875 5.609375 15.28125 
Q 5.609375 16.109375 6.140625 16.6875 
Q 6.6875 17.28125 7.515625 17.28125 
L 70.3125 17.28125 
Q 71.046875 17.28125 71.578125 16.6875 
Q 72.125 16.109375 72.125 15.28125 
Q 72.125 14.546875 71.578125 13.90625 
Q 71.046875 13.28125 70.3125 13.28125 
z
M 7.515625 32.71875 
Q 6.6875 32.71875 6.140625 33.296875 
Q 5.609375 33.890625 5.609375 34.71875 
Q 5.609375 35.453125 6.140625 36.078125 
Q 6.6875 36.71875 7.515625 36.71875 
L 70.3125 36.71875 
Q 71.046875 36.71875 71.578125 36.078125 
Q 72.125 35.453125 72.125 34.71875 
Q 72.125 33.890625 71.578125 33.296875 
Q 71.046875 32.71875 70.3125 32.71875 
z
" id="Cmr10-3d"/>
      <path d="M 7.8125 7.171875 
Q 7.8125 9.03125 8.59375 11.078125 
L 16.703125 32.625 
Q 18.015625 36.28125 18.015625 38.625 
Q 18.015625 41.609375 15.828125 41.609375 
Q 11.859375 41.609375 9.296875 37.53125 
Q 6.734375 33.453125 5.515625 28.421875 
Q 5.328125 27.78125 4.6875 27.78125 
L 3.515625 27.78125 
Q 2.6875 27.78125 2.6875 28.71875 
L 2.6875 29 
Q 4.296875 34.96875 7.609375 39.578125 
Q 10.9375 44.1875 16.015625 44.1875 
Q 19.578125 44.1875 22.046875 41.84375 
Q 24.515625 39.5 24.515625 35.890625 
Q 24.515625 34.03125 23.6875 31.984375 
L 15.578125 10.5 
Q 14.203125 7.171875 14.203125 4.5 
Q 14.203125 1.515625 16.5 1.515625 
Q 20.40625 1.515625 23.015625 5.6875 
Q 25.640625 9.859375 26.703125 14.703125 
Q 26.90625 15.28125 27.484375 15.28125 
L 28.71875 15.28125 
Q 29.109375 15.28125 29.34375 15.015625 
Q 29.59375 14.75 29.59375 14.40625 
Q 29.59375 14.3125 29.5 14.109375 
Q 28.125 8.453125 24.734375 3.65625 
Q 21.34375 -1.125 16.3125 -1.125 
Q 12.796875 -1.125 10.296875 1.296875 
Q 7.8125 3.71875 7.8125 7.171875 
M 19.09375 60.59375 
Q 19.09375 62.703125 20.84375 64.40625 
Q 22.609375 66.109375 24.703125 66.109375 
Q 26.421875 66.109375 27.515625 65.0625 
Q 28.609375 64.015625 28.609375 62.40625 
Q 28.609375 60.15625 26.828125 58.46875 
Q 25.046875 56.78125 22.90625 56.78125 
Q 21.296875 56.78125 20.1875 57.875 
Q 19.09375 58.984375 19.09375 60.59375 
" id="Cmmi10-69"/>
      <path d="M 25 -2.203125 
Q 12.75 -2.203125 8.328125 7.875 
Q 3.90625 17.96875 3.90625 31.890625 
Q 3.90625 40.578125 5.484375 48.234375 
Q 7.078125 55.90625 11.78125 61.25 
Q 16.5 66.609375 25 66.609375 
Q 31.59375 66.609375 35.78125 63.375 
Q 39.984375 60.15625 42.1875 55.046875 
Q 44.390625 49.953125 45.1875 44.109375 
Q 46 38.28125 46 31.890625 
Q 46 23.296875 44.40625 15.796875 
Q 42.828125 8.296875 38.1875 3.046875 
Q 33.546875 -2.203125 25 -2.203125 
M 25 0.390625 
Q 30.5625 0.390625 33.296875 6.09375 
Q 36.03125 11.8125 36.671875 18.75 
Q 37.3125 25.6875 37.3125 33.5 
Q 37.3125 41.015625 36.671875 47.359375 
Q 36.03125 53.71875 33.3125 58.859375 
Q 30.609375 64.015625 25 64.015625 
Q 19.34375 64.015625 16.609375 58.828125 
Q 13.875 53.65625 13.234375 47.328125 
Q 12.59375 41.015625 12.59375 33.5 
Q 12.59375 27.9375 12.859375 23 
Q 13.140625 18.0625 14.3125 12.8125 
Q 15.484375 7.5625 18.09375 3.96875 
Q 20.703125 0.390625 25 0.390625 
" id="Cmr10-30"/>
      <path d="M 9.90625 -18.015625 
Q 9.90625 -17.578125 10.296875 -17.1875 
Q 13.921875 -13.71875 15.921875 -9.171875 
Q 17.921875 -4.640625 17.921875 0.390625 
L 17.921875 1.609375 
Q 16.3125 0 13.921875 0 
Q 11.625 0 10.015625 1.609375 
Q 8.40625 3.21875 8.40625 5.515625 
Q 8.40625 7.859375 10.015625 9.421875 
Q 11.625 10.984375 13.921875 10.984375 
Q 17.484375 10.984375 19 7.6875 
Q 20.515625 4.390625 20.515625 0.390625 
Q 20.515625 -5.171875 18.28125 -10.171875 
Q 16.0625 -15.1875 12.015625 -19.1875 
Q 11.625 -19.390625 11.375 -19.390625 
Q 10.890625 -19.390625 10.390625 -18.9375 
Q 9.90625 -18.5 9.90625 -18.015625 
" id="Cmmi10-3b"/>
      <path d="M 8.40625 5.515625 
Q 8.40625 7.765625 10.0625 9.375 
Q 11.71875 10.984375 13.921875 10.984375 
Q 15.28125 10.984375 16.59375 10.25 
Q 17.921875 9.515625 18.65625 8.203125 
Q 19.390625 6.890625 19.390625 5.515625 
Q 19.390625 3.328125 17.765625 1.65625 
Q 16.15625 0 13.921875 0 
Q 11.71875 0 10.0625 1.65625 
Q 8.40625 3.328125 8.40625 5.515625 
" id="Cmmi10-3a"/>
     </defs>
     <g transform="translate(63.44375 165.70625)scale(0.08 -0.08)">
      <use transform="translate(0.0 0.609375)" xlink:href="#Cmmi10-6b"/>
      <use transform="translate(52.001953125 -16.396875)scale(0.7)" xlink:href="#Cmmi10-70"/>
      <use transform="translate(111.14296875 0.609375)" xlink:href="#Cmr10-3d"/>
      <use transform="translate(223.945703125 0.609375)" xlink:href="#Cmsy10-a1"/>
      <use transform="translate(319.18984375 0.609375)" xlink:href="#Cmr10-30"/>
      <use transform="translate(369.18984375 0.609375)" xlink:href="#Cmmi10-3a"/>
      <use transform="translate(414.433984375 0.609375)" xlink:href="#Cmr10-39"/>
      <use transform="translate(464.433984375 0.609375)" xlink:href="#Cmmi10-3b"/>
      <use transform="translate(597.47109375 0.609375)" xlink:href="#Cmmi10-6b"/>
      <use transform="translate(649.473046875 -16.396875)scale(0.7)" xlink:href="#Cmmi10-69"/>
      <use transform="translate(697.505664063 0.609375)" xlink:href="#Cmr10-3d"/>
      <use transform="translate(792.749804688 0.609375)" xlink:href="#Cmr10-30"/>
      <use transform="translate(842.749804688 0.609375)" xlink:href="#Cmmi10-3a"/>
      <use transform="translate(887.993945313 0.609375)" xlink:href="#Cmr10-30"/>
      <use transform="translate(937.993945313 0.609375)" xlink:href="#Cmr10-31"/>
      <use transform="translate(987.993945313 0.609375)" xlink:href="#Cmmi10-3b"/>
      <use transform="translate(1121.03105469 0.609375)" xlink:href="#Cmmi10-6b"/>
      <use transform="translate(1173.03300781 -16.396875)scale(0.7)" xlink:href="#Cmmi10-64"/>
      <use transform="translate(1233.3703125 0.609375)" xlink:href="#Cmr10-3d"/>
      <use transform="translate(1328.61445312 0.609375)" xlink:href="#Cmr10-30"/>
      <use transform="translate(1378.61445312 0.609375)" xlink:href="#Cmmi10-3a"/>
      <use transform="translate(1423.85859375 0.609375)" xlink:href="#Cmr10-30"/>
     </g>
    </g>
    <g id="line2d_35">
     <path d="M 43.44375 175.465 
L 54.64375 175.465 
" style="fill:none;stroke:#cc4514;stroke-linecap:square;"/>
    </g>
    <g id="line2d_36"/>
    <g id="text_11">
     <!-- $k_p = -0.732, \quad k_i = 0.072, \quad k_d = 0.0$ -->
     <defs>
      <path d="M 9.515625 7.71875 
Q 11.859375 4.296875 15.8125 2.640625 
Q 19.78125 0.984375 24.3125 0.984375 
Q 30.125 0.984375 32.5625 5.9375 
Q 35.015625 10.890625 35.015625 17.1875 
Q 35.015625 20.015625 34.5 22.84375 
Q 33.984375 25.6875 32.765625 28.125 
Q 31.546875 30.5625 29.421875 32.03125 
Q 27.296875 33.5 24.21875 33.5 
L 17.578125 33.5 
Q 16.703125 33.5 16.703125 34.421875 
L 16.703125 35.296875 
Q 16.703125 36.078125 17.578125 36.078125 
L 23.09375 36.53125 
Q 26.609375 36.53125 28.921875 39.15625 
Q 31.25 41.796875 32.328125 45.578125 
Q 33.40625 49.359375 33.40625 52.78125 
Q 33.40625 57.5625 31.15625 60.640625 
Q 28.90625 63.71875 24.3125 63.71875 
Q 20.515625 63.71875 17.046875 62.28125 
Q 13.578125 60.84375 11.53125 57.90625 
Q 11.71875 57.953125 11.859375 57.984375 
Q 12.015625 58.015625 12.203125 58.015625 
Q 14.453125 58.015625 15.96875 56.453125 
Q 17.484375 54.890625 17.484375 52.6875 
Q 17.484375 50.53125 15.96875 48.96875 
Q 14.453125 47.40625 12.203125 47.40625 
Q 10.015625 47.40625 8.453125 48.96875 
Q 6.890625 50.53125 6.890625 52.6875 
Q 6.890625 56.984375 9.46875 60.15625 
Q 12.0625 63.328125 16.140625 64.96875 
Q 20.21875 66.609375 24.3125 66.609375 
Q 27.34375 66.609375 30.703125 65.703125 
Q 34.078125 64.796875 36.8125 63.109375 
Q 39.546875 61.421875 41.28125 58.78125 
Q 43.015625 56.15625 43.015625 52.78125 
Q 43.015625 48.578125 41.140625 45.015625 
Q 39.265625 41.453125 35.984375 38.859375 
Q 32.71875 36.28125 28.8125 35.015625 
Q 33.15625 34.1875 37.0625 31.734375 
Q 40.96875 29.296875 43.328125 25.484375 
Q 45.703125 21.6875 45.703125 17.28125 
Q 45.703125 11.765625 42.671875 7.296875 
Q 39.65625 2.828125 34.71875 0.3125 
Q 29.78125 -2.203125 24.3125 -2.203125 
Q 19.625 -2.203125 14.90625 -0.40625 
Q 10.203125 1.375 7.203125 4.9375 
Q 4.203125 8.5 4.203125 13.484375 
Q 4.203125 15.96875 5.859375 17.625 
Q 7.515625 19.28125 10.015625 19.28125 
Q 11.625 19.28125 12.96875 18.53125 
Q 14.3125 17.78125 15.0625 16.40625 
Q 15.828125 15.046875 15.828125 13.484375 
Q 15.828125 11.03125 14.109375 9.375 
Q 12.40625 7.71875 10.015625 7.71875 
z
" id="Cmr10-33"/>
      <path d="M 4.984375 0 
L 4.984375 2.6875 
Q 4.984375 2.9375 5.171875 3.21875 
L 20.703125 20.40625 
Q 24.21875 24.21875 26.40625 26.796875 
Q 28.609375 29.390625 30.75 32.765625 
Q 32.90625 36.140625 34.15625 39.625 
Q 35.40625 43.109375 35.40625 47.015625 
Q 35.40625 51.125 33.890625 54.859375 
Q 32.375 58.59375 29.375 60.84375 
Q 26.375 63.09375 22.125 63.09375 
Q 17.78125 63.09375 14.3125 60.46875 
Q 10.84375 57.859375 9.421875 53.71875 
Q 9.8125 53.8125 10.5 53.8125 
Q 12.75 53.8125 14.328125 52.296875 
Q 15.921875 50.78125 15.921875 48.390625 
Q 15.921875 46.09375 14.328125 44.5 
Q 12.75 42.921875 10.5 42.921875 
Q 8.15625 42.921875 6.5625 44.546875 
Q 4.984375 46.1875 4.984375 48.390625 
Q 4.984375 52.15625 6.390625 55.4375 
Q 7.8125 58.734375 10.46875 61.296875 
Q 13.140625 63.875 16.484375 65.234375 
Q 19.828125 66.609375 23.578125 66.609375 
Q 29.296875 66.609375 34.21875 64.1875 
Q 39.15625 61.765625 42.03125 57.34375 
Q 44.921875 52.9375 44.921875 47.015625 
Q 44.921875 42.671875 43.015625 38.765625 
Q 41.109375 34.859375 38.125 31.65625 
Q 35.15625 28.46875 30.515625 24.40625 
Q 25.875 20.359375 24.421875 19 
L 13.09375 8.109375 
L 22.703125 8.109375 
Q 29.78125 8.109375 34.546875 8.21875 
Q 39.3125 8.34375 39.59375 8.59375 
Q 40.765625 9.859375 42 17.828125 
L 44.921875 17.828125 
L 42.09375 0 
z
" id="Cmr10-32"/>
      <path d="M 17.390625 2.59375 
Q 17.390625 8.15625 18.359375 13.46875 
Q 19.34375 18.796875 21.21875 24 
Q 23.09375 29.203125 25.75 34.203125 
Q 28.421875 39.203125 31.59375 43.609375 
L 40.71875 56.296875 
L 29.296875 56.296875 
Q 11.53125 56.296875 10.984375 55.8125 
Q 9.671875 54.203125 8.5 46.578125 
L 5.609375 46.578125 
L 8.890625 67.578125 
L 11.8125 67.578125 
L 11.8125 67.28125 
Q 11.8125 65.484375 17.921875 64.9375 
Q 24.03125 64.40625 29.890625 64.40625 
L 48.484375 64.40625 
L 48.484375 61.8125 
Q 48.484375 61.71875 48.453125 61.671875 
Q 48.4375 61.625 48.390625 61.53125 
L 34.625 42.1875 
Q 29.546875 34.671875 28.265625 25.484375 
Q 27 16.3125 27 2.59375 
Q 27 0.640625 25.578125 -0.78125 
Q 24.171875 -2.203125 22.21875 -2.203125 
Q 20.21875 -2.203125 18.796875 -0.78125 
Q 17.390625 0.640625 17.390625 2.59375 
" id="Cmr10-37"/>
     </defs>
     <g transform="translate(63.44375 178.265)scale(0.08 -0.08)">
      <use transform="translate(0.0 0.609375)" xlink:href="#Cmmi10-6b"/>
      <use transform="translate(52.001953125 -16.396875)scale(0.7)" xlink:href="#Cmmi10-70"/>
      <use transform="translate(111.14296875 0.609375)" xlink:href="#Cmr10-3d"/>
      <use transform="translate(223.945703125 0.609375)" xlink:href="#Cmsy10-a1"/>
      <use transform="translate(319.18984375 0.609375)" xlink:href="#Cmr10-30"/>
      <use transform="translate(369.18984375 0.609375)" xlink:href="#Cmmi10-3a"/>
      <use transform="translate(414.433984375 0.609375)" xlink:href="#Cmr10-37"/>
      <use transform="translate(464.433984375 0.609375)" xlink:href="#Cmr10-33"/>
      <use transform="translate(514.433984375 0.609375)" xlink:href="#Cmr10-32"/>
      <use transform="translate(564.433984375 0.609375)" xlink:href="#Cmmi10-3b"/>
      <use transform="translate(697.47109375 0.609375)" xlink:href="#Cmmi10-6b"/>
      <use transform="translate(749.473046875 -16.396875)scale(0.7)" xlink:href="#Cmmi10-69"/>
      <use transform="translate(797.505664063 0.609375)" xlink:href="#Cmr10-3d"/>
      <use transform="translate(892.749804688 0.609375)" xlink:href="#Cmr10-30"/>
      <use transform="translate(942.749804688 0.609375)" xlink:href="#Cmmi10-3a"/>
      <use transform="translate(987.993945313 0.609375)" xlink:href="#Cmr10-30"/>
      <use transform="translate(1037.99394531 0.609375)" xlink:href="#Cmr10-37"/>
      <use transform="translate(1087.99394531 0.609375)" xlink:href="#Cmr10-32"/>
      <use transform="translate(1137.99394531 0.609375)" xlink:href="#Cmmi10-3b"/>
      <use transform="translate(1271.03105469 0.609375)" xlink:href="#Cmmi10-6b"/>
      <use transform="translate(1323.03300781 -16.396875)scale(0.7)" xlink:href="#Cmmi10-64"/>
      <use transform="translate(1383.3703125 0.609375)" xlink:href="#Cmr10-3d"/>
      <use transform="translate(1478.61445312 0.609375)" xlink:href="#Cmr10-30"/>
      <use transform="translate(1528.61445312 0.609375)" xlink:href="#Cmmi10-3a"/>
      <use transform="translate(1573.85859375 0.609375)" xlink:href="#Cmr10-30"/>
     </g>
    </g>
    <g id="line2d_37">
     <path d="M 43.44375 188.02375 
L 54.64375 188.02375 
" style="fill:none;stroke:#cc9e14;stroke-linecap:square;"/>
    </g>
    <g id="line2d_38"/>
    <g id="text_12">
     <!-- $k_p = -0.28, \quad k_i = 0.518, \quad k_d = 0.0$ -->
     <defs>
      <path d="M 4.203125 15.1875 
Q 4.203125 21.1875 8.15625 25.796875 
Q 12.109375 30.421875 18.3125 33.5 
L 14.59375 35.890625 
Q 11.1875 38.140625 9.03125 41.875 
Q 6.890625 45.609375 6.890625 49.703125 
Q 6.890625 54.5 9.40625 58.34375 
Q 11.921875 62.203125 16.09375 64.40625 
Q 20.265625 66.609375 25 66.609375 
Q 29.4375 66.609375 33.5625 64.796875 
Q 37.703125 62.984375 40.359375 59.609375 
Q 43.015625 56.25 43.015625 51.609375 
Q 43.015625 48.25 41.421875 45.359375 
Q 39.84375 42.484375 37.078125 40.1875 
Q 34.328125 37.890625 31.203125 36.28125 
L 36.921875 32.625 
Q 40.875 30.03125 43.28125 25.828125 
Q 45.703125 21.625 45.703125 17 
Q 45.703125 11.578125 42.796875 7.125 
Q 39.890625 2.6875 35.109375 0.234375 
Q 30.328125 -2.203125 25 -2.203125 
Q 19.828125 -2.203125 15.015625 -0.09375 
Q 10.203125 2 7.203125 5.984375 
Q 4.203125 9.96875 4.203125 15.1875 
M 9.625 15.1875 
Q 9.625 11.234375 11.796875 7.953125 
Q 13.96875 4.6875 17.53125 2.828125 
Q 21.09375 0.984375 25 0.984375 
Q 30.8125 0.984375 35.546875 4.375 
Q 40.28125 7.765625 40.28125 13.375 
Q 40.28125 15.28125 39.515625 17.15625 
Q 38.765625 19.046875 37.421875 20.578125 
Q 36.078125 22.125 34.421875 23.09375 
L 21 31.78125 
Q 17.875 30.125 15.25 27.578125 
Q 12.640625 25.046875 11.125 21.875 
Q 9.625 18.703125 9.625 15.1875 
M 16.5 45.703125 
L 28.609375 37.890625 
Q 32.8125 40.328125 35.5 43.796875 
Q 38.1875 47.265625 38.1875 51.609375 
Q 38.1875 54.984375 36.296875 57.78125 
Q 34.421875 60.59375 31.390625 62.15625 
Q 28.375 63.71875 24.90625 63.71875 
Q 21.875 63.71875 18.796875 62.546875 
Q 15.71875 61.375 13.71875 59.046875 
Q 11.71875 56.734375 11.71875 53.609375 
Q 11.71875 48.921875 16.5 45.703125 
" id="Cmr10-38"/>
      <path d="M 8.6875 11.375 
Q 9.71875 8.453125 11.84375 6.046875 
Q 13.96875 3.65625 16.875 2.3125 
Q 19.78125 0.984375 22.90625 0.984375 
Q 30.125 0.984375 32.859375 6.59375 
Q 35.59375 12.203125 35.59375 20.21875 
Q 35.59375 23.6875 35.46875 26.046875 
Q 35.359375 28.421875 34.8125 30.609375 
Q 33.890625 34.125 31.5625 36.765625 
Q 29.25 39.40625 25.875 39.40625 
Q 22.515625 39.40625 20.09375 38.375 
Q 17.671875 37.359375 16.15625 35.984375 
Q 14.65625 34.625 13.484375 33.109375 
Q 12.3125 31.59375 12.015625 31.5 
L 10.890625 31.5 
Q 10.640625 31.5 10.265625 31.8125 
Q 9.90625 32.125 9.90625 32.421875 
L 9.90625 65.828125 
Q 9.90625 66.0625 10.21875 66.328125 
Q 10.546875 66.609375 10.890625 66.609375 
L 11.1875 66.609375 
Q 17.921875 63.375 25.484375 63.375 
Q 32.90625 63.375 39.796875 66.609375 
L 40.09375 66.609375 
Q 40.4375 66.609375 40.71875 66.359375 
Q 41.015625 66.109375 41.015625 65.828125 
L 41.015625 64.890625 
Q 41.015625 64.40625 40.828125 64.40625 
Q 37.40625 59.859375 32.25 57.3125 
Q 27.09375 54.78125 21.578125 54.78125 
Q 17.578125 54.78125 13.375 55.90625 
L 13.375 37.015625 
Q 16.703125 39.703125 19.3125 40.84375 
Q 21.921875 42 25.984375 42 
Q 31.5 42 35.859375 38.8125 
Q 40.234375 35.640625 42.578125 30.53125 
Q 44.921875 25.4375 44.921875 20.125 
Q 44.921875 14.109375 41.96875 8.984375 
Q 39.015625 3.859375 33.9375 0.828125 
Q 28.859375 -2.203125 22.90625 -2.203125 
Q 17.96875 -2.203125 13.84375 0.328125 
Q 9.71875 2.875 7.34375 7.171875 
Q 4.984375 11.46875 4.984375 16.3125 
Q 4.984375 18.5625 6.4375 19.96875 
Q 7.90625 21.390625 10.109375 21.390625 
Q 12.3125 21.390625 13.796875 19.9375 
Q 15.28125 18.5 15.28125 16.3125 
Q 15.28125 14.15625 13.796875 12.671875 
Q 12.3125 11.1875 10.109375 11.1875 
Q 9.765625 11.1875 9.328125 11.25 
Q 8.890625 11.328125 8.6875 11.375 
" id="Cmr10-35"/>
     </defs>
     <g transform="translate(63.44375 190.82375)scale(0.08 -0.08)">
      <use transform="translate(0.0 0.609375)" xlink:href="#Cmmi10-6b"/>
      <use transform="translate(52.001953125 -16.396875)scale(0.7)" xlink:href="#Cmmi10-70"/>
      <use transform="translate(111.14296875 0.609375)" xlink:href="#Cmr10-3d"/>
      <use transform="translate(223.945703125 0.609375)" xlink:href="#Cmsy10-a1"/>
      <use transform="translate(319.18984375 0.609375)" xlink:href="#Cmr10-30"/>
      <use transform="translate(369.18984375 0.609375)" xlink:href="#Cmmi10-3a"/>
      <use transform="translate(414.433984375 0.609375)" xlink:href="#Cmr10-32"/>
      <use transform="translate(464.433984375 0.609375)" xlink:href="#Cmr10-38"/>
      <use transform="translate(514.433984375 0.609375)" xlink:href="#Cmmi10-3b"/>
      <use transform="translate(647.47109375 0.609375)" xlink:href="#Cmmi10-6b"/>
      <use transform="translate(699.473046875 -16.396875)scale(0.7)" xlink:href="#Cmmi10-69"/>
      <use transform="translate(747.505664063 0.609375)" xlink:href="#Cmr10-3d"/>
      <use transform="translate(842.749804688 0.609375)" xlink:href="#Cmr10-30"/>
      <use transform="translate(892.749804688 0.609375)" xlink:href="#Cmmi10-3a"/>
      <use transform="translate(937.993945313 0.609375)" xlink:href="#Cmr10-35"/>
      <use transform="translate(987.993945313 0.609375)" xlink:href="#Cmr10-31"/>
      <use transform="translate(1037.99394531 0.609375)" xlink:href="#Cmr10-38"/>
      <use transform="translate(1087.99394531 0.609375)" xlink:href="#Cmmi10-3b"/>
      <use transform="translate(1221.03105469 0.609375)" xlink:href="#Cmmi10-6b"/>
      <use transform="translate(1273.03300781 -16.396875)scale(0.7)" xlink:href="#Cmmi10-64"/>
      <use transform="translate(1333.3703125 0.609375)" xlink:href="#Cmr10-3d"/>
      <use transform="translate(1428.61445312 0.609375)" xlink:href="#Cmr10-30"/>
      <use transform="translate(1478.61445312 0.609375)" xlink:href="#Cmmi10-3a"/>
      <use transform="translate(1523.85859375 0.609375)" xlink:href="#Cmr10-30"/>
     </g>
    </g>
    <g id="line2d_39">
     <path d="M 43.44375 200.5825 
L 54.64375 200.5825 
" style="fill:none;stroke:#87cc14;stroke-linecap:square;"/>
    </g>
    <g id="line2d_40"/>
    <g id="text_13">
     <!-- $k_p = 0.931, \quad k_i = 3.728, \quad k_d = 0.0$ -->
     <g transform="translate(63.44375 203.3825)scale(0.08 -0.08)">
      <use transform="translate(0.0 0.609375)" xlink:href="#Cmmi10-6b"/>
      <use transform="translate(52.001953125 -16.396875)scale(0.7)" xlink:href="#Cmmi10-70"/>
      <use transform="translate(111.14296875 0.609375)" xlink:href="#Cmr10-3d"/>
      <use transform="translate(206.387109375 0.609375)" xlink:href="#Cmr10-30"/>
      <use transform="translate(256.387109375 0.609375)" xlink:href="#Cmmi10-3a"/>
      <use transform="translate(301.63125 0.609375)" xlink:href="#Cmr10-39"/>
      <use transform="translate(351.63125 0.609375)" xlink:href="#Cmr10-33"/>
      <use transform="translate(401.63125 0.609375)" xlink:href="#Cmr10-31"/>
      <use transform="translate(451.63125 0.609375)" xlink:href="#Cmmi10-3b"/>
      <use transform="translate(584.668359375 0.609375)" xlink:href="#Cmmi10-6b"/>
      <use transform="translate(636.6703125 -16.396875)scale(0.7)" xlink:href="#Cmmi10-69"/>
      <use transform="translate(684.702929688 0.609375)" xlink:href="#Cmr10-3d"/>
      <use transform="translate(779.947070313 0.609375)" xlink:href="#Cmr10-33"/>
      <use transform="translate(829.947070313 0.609375)" xlink:href="#Cmmi10-3a"/>
      <use transform="translate(875.191210938 0.609375)" xlink:href="#Cmr10-37"/>
      <use transform="translate(925.191210938 0.609375)" xlink:href="#Cmr10-32"/>
      <use transform="translate(975.191210938 0.609375)" xlink:href="#Cmr10-38"/>
      <use transform="translate(1025.19121094 0.609375)" xlink:href="#Cmmi10-3b"/>
      <use transform="translate(1158.22832031 0.609375)" xlink:href="#Cmmi10-6b"/>
      <use transform="translate(1210.23027344 -16.396875)scale(0.7)" xlink:href="#Cmmi10-64"/>
      <use transform="translate(1270.56757812 0.609375)" xlink:href="#Cmr10-3d"/>
      <use transform="translate(1365.81171875 0.609375)" xlink:href="#Cmr10-30"/>
      <use transform="translate(1415.81171875 0.609375)" xlink:href="#Cmmi10-3a"/>
      <use transform="translate(1461.05585937 0.609375)" xlink:href="#Cmr10-30"/>
     </g>
    </g>
    <g id="line2d_41">
     <path d="M 43.44375 213.14125 
L 54.64375 213.14125 
" style="fill:none;stroke:#14cc2b;stroke-linecap:square;"/>
    </g>
    <g id="line2d_42"/>
    <g id="text_14">
     <!-- $k_p = 4.179, \quad k_i = 26.827, \quad k_d = 0.0$ -->
     <defs>
      <path d="M 25 -2.203125 
Q 18.796875 -2.203125 14.640625 1.09375 
Q 10.5 4.390625 8.21875 9.640625 
Q 5.953125 14.890625 5.078125 20.65625 
Q 4.203125 26.421875 4.203125 32.328125 
Q 4.203125 40.234375 7.28125 48.1875 
Q 10.359375 56.15625 16.328125 61.375 
Q 22.3125 66.609375 30.515625 66.609375 
Q 33.9375 66.609375 36.890625 65.3125 
Q 39.84375 64.015625 41.53125 61.5 
Q 43.21875 58.984375 43.21875 55.421875 
Q 43.21875 53.375 41.828125 51.984375 
Q 40.4375 50.59375 38.375 50.59375 
Q 36.421875 50.59375 35 52 
Q 33.59375 53.421875 33.59375 55.421875 
Q 33.59375 57.375 35 58.78125 
Q 36.421875 60.203125 38.375 60.203125 
L 38.921875 60.203125 
Q 37.640625 62.015625 35.328125 62.859375 
Q 33.015625 63.71875 30.515625 63.71875 
Q 27.484375 63.71875 24.921875 62.390625 
Q 22.359375 61.078125 20.3125 58.828125 
Q 18.265625 56.59375 16.890625 53.875 
Q 15.53125 51.171875 14.765625 47.703125 
Q 14.015625 44.234375 13.8125 41.203125 
Q 13.625 38.1875 13.625 33.59375 
Q 15.375 37.703125 18.59375 40.3125 
Q 21.828125 42.921875 25.875 42.921875 
Q 30.328125 42.921875 33.984375 41.109375 
Q 37.640625 39.3125 40.28125 36.109375 
Q 42.921875 32.90625 44.3125 28.796875 
Q 45.703125 24.703125 45.703125 20.515625 
Q 45.703125 14.65625 43.09375 9.34375 
Q 40.484375 4.046875 35.734375 0.921875 
Q 31 -2.203125 25 -2.203125 
M 25 0.984375 
Q 28.859375 0.984375 31.203125 2.734375 
Q 33.546875 4.5 34.640625 7.390625 
Q 35.75 10.296875 36.015625 13.25 
Q 36.28125 16.21875 36.28125 20.515625 
Q 36.28125 26.171875 35.734375 30.171875 
Q 35.203125 34.1875 32.8125 37.234375 
Q 30.421875 40.28125 25.484375 40.28125 
Q 21.4375 40.28125 18.828125 37.546875 
Q 16.21875 34.8125 15.015625 30.640625 
Q 13.8125 26.46875 13.8125 22.609375 
Q 13.8125 21.296875 13.921875 20.609375 
Q 13.921875 20.453125 13.890625 20.359375 
Q 13.875 20.265625 13.8125 20.125 
Q 13.8125 15.828125 14.6875 11.421875 
Q 15.578125 7.03125 18.0625 4 
Q 20.5625 0.984375 25 0.984375 
" id="Cmr10-36"/>
      <path d="M 2.78125 16.5 
L 2.78125 20.015625 
L 33.6875 66.109375 
Q 34.03125 66.609375 34.71875 66.609375 
L 36.1875 66.609375 
Q 37.3125 66.609375 37.3125 65.484375 
L 37.3125 20.015625 
L 47.125 20.015625 
L 47.125 16.5 
L 37.3125 16.5 
L 37.3125 6.6875 
Q 37.3125 4.640625 40.234375 4.078125 
Q 43.171875 3.515625 47.015625 3.515625 
L 47.015625 0 
L 19.484375 0 
L 19.484375 3.515625 
Q 23.34375 3.515625 26.265625 4.078125 
Q 29.203125 4.640625 29.203125 6.6875 
L 29.203125 16.5 
z
M 6.109375 20.015625 
L 29.78125 20.015625 
L 29.78125 55.421875 
z
" id="Cmr10-34"/>
     </defs>
     <g transform="translate(63.44375 215.94125)scale(0.08 -0.08)">
      <use transform="translate(0.0 0.609375)" xlink:href="#Cmmi10-6b"/>
      <use transform="translate(52.001953125 -16.396875)scale(0.7)" xlink:href="#Cmmi10-70"/>
      <use transform="translate(111.14296875 0.609375)" xlink:href="#Cmr10-3d"/>
      <use transform="translate(206.387109375 0.609375)" xlink:href="#Cmr10-34"/>
      <use transform="translate(256.387109375 0.609375)" xlink:href="#Cmmi10-3a"/>
      <use transform="translate(301.63125 0.609375)" xlink:href="#Cmr10-31"/>
      <use transform="translate(351.63125 0.609375)" xlink:href="#Cmr10-37"/>
      <use transform="translate(401.63125 0.609375)" xlink:href="#Cmr10-39"/>
      <use transform="translate(451.63125 0.609375)" xlink:href="#Cmmi10-3b"/>
      <use transform="translate(584.668359375 0.609375)" xlink:href="#Cmmi10-6b"/>
      <use transform="translate(636.6703125 -16.396875)scale(0.7)" xlink:href="#Cmmi10-69"/>
      <use transform="translate(684.702929688 0.609375)" xlink:href="#Cmr10-3d"/>
      <use transform="translate(779.947070313 0.609375)" xlink:href="#Cmr10-32"/>
      <use transform="translate(829.947070313 0.609375)" xlink:href="#Cmr10-36"/>
      <use transform="translate(879.947070313 0.609375)" xlink:href="#Cmmi10-3a"/>
      <use transform="translate(925.191210938 0.609375)" xlink:href="#Cmr10-38"/>
      <use transform="translate(975.191210938 0.609375)" xlink:href="#Cmr10-32"/>
      <use transform="translate(1025.19121094 0.609375)" xlink:href="#Cmr10-37"/>
      <use transform="translate(1075.19121094 0.609375)" xlink:href="#Cmmi10-3b"/>
      <use transform="translate(1208.22832031 0.609375)" xlink:href="#Cmmi10-6b"/>
      <use transform="translate(1260.23027344 -16.396875)scale(0.7)" xlink:href="#Cmmi10-64"/>
      <use transform="translate(1320.56757812 0.609375)" xlink:href="#Cmr10-3d"/>
      <use transform="translate(1415.81171875 0.609375)" xlink:href="#Cmr10-30"/>
      <use transform="translate(1465.81171875 0.609375)" xlink:href="#Cmmi10-3a"/>
      <use transform="translate(1511.05585937 0.609375)" xlink:href="#Cmr10-30"/>
     </g>
    </g>
    <g id="line2d_43">
     <path d="M 43.44375 225.7 
L 54.64375 225.7 
" style="fill:none;stroke:#14ccc6;stroke-linecap:square;"/>
    </g>
    <g id="line2d_44"/>
    <g id="text_15">
     <!-- $k_p = 12.895, \quad k_i = 193.07, \quad k_d = 0.0$ -->
     <g transform="translate(63.44375 228.5)scale(0.08 -0.08)">
      <use transform="translate(0.0 0.609375)" xlink:href="#Cmmi10-6b"/>
      <use transform="translate(52.001953125 -16.396875)scale(0.7)" xlink:href="#Cmmi10-70"/>
      <use transform="translate(111.14296875 0.609375)" xlink:href="#Cmr10-3d"/>
      <use transform="translate(206.387109375 0.609375)" xlink:href="#Cmr10-31"/>
      <use transform="translate(256.387109375 0.609375)" xlink:href="#Cmr10-32"/>
      <use transform="translate(306.387109375 0.609375)" xlink:href="#Cmmi10-3a"/>
      <use transform="translate(351.63125 0.609375)" xlink:href="#Cmr10-38"/>
      <use transform="translate(401.63125 0.609375)" xlink:href="#Cmr10-39"/>
      <use transform="translate(451.63125 0.609375)" xlink:href="#Cmr10-35"/>
      <use transform="translate(501.63125 0.609375)" xlink:href="#Cmmi10-3b"/>
      <use transform="translate(634.668359375 0.609375)" xlink:href="#Cmmi10-6b"/>
      <use transform="translate(686.6703125 -16.396875)scale(0.7)" xlink:href="#Cmmi10-69"/>
      <use transform="translate(734.702929688 0.609375)" xlink:href="#Cmr10-3d"/>
      <use transform="translate(829.947070313 0.609375)" xlink:href="#Cmr10-31"/>
      <use transform="translate(879.947070313 0.609375)" xlink:href="#Cmr10-39"/>
      <use transform="translate(929.947070313 0.609375)" xlink:href="#Cmr10-33"/>
      <use transform="translate(979.947070313 0.609375)" xlink:href="#Cmmi10-3a"/>
      <use transform="translate(1025.19121094 0.609375)" xlink:href="#Cmr10-30"/>
      <use transform="translate(1075.19121094 0.609375)" xlink:href="#Cmr10-37"/>
      <use transform="translate(1125.19121094 0.609375)" xlink:href="#Cmmi10-3b"/>
      <use transform="translate(1258.22832031 0.609375)" xlink:href="#Cmmi10-6b"/>
      <use transform="translate(1310.23027344 -16.396875)scale(0.7)" xlink:href="#Cmmi10-64"/>
      <use transform="translate(1370.56757812 0.609375)" xlink:href="#Cmr10-3d"/>
      <use transform="translate(1465.81171875 0.609375)" xlink:href="#Cmr10-30"/>
      <use transform="translate(1515.81171875 0.609375)" xlink:href="#Cmmi10-3a"/>
      <use transform="translate(1561.05585937 0.609375)" xlink:href="#Cmr10-30"/>
     </g>
    </g>
    <g id="line2d_45">
     <path d="M 43.44375 238.25875 
L 54.64375 238.25875 
" style="fill:none;stroke:#1427cc;stroke-linecap:square;"/>
    </g>
    <g id="line2d_46"/>
    <g id="text_16">
     <!-- $k_p = 36.276, \quad k_i = 1389.495, \quad k_d = 0.0$ -->
     <g transform="translate(63.44375 241.05875)scale(0.08 -0.08)">
      <use transform="translate(0.0 0.609375)" xlink:href="#Cmmi10-6b"/>
      <use transform="translate(52.001953125 -16.396875)scale(0.7)" xlink:href="#Cmmi10-70"/>
      <use transform="translate(111.14296875 0.609375)" xlink:href="#Cmr10-3d"/>
      <use transform="translate(206.387109375 0.609375)" xlink:href="#Cmr10-33"/>
      <use transform="translate(256.387109375 0.609375)" xlink:href="#Cmr10-36"/>
      <use transform="translate(306.387109375 0.609375)" xlink:href="#Cmmi10-3a"/>
      <use transform="translate(351.63125 0.609375)" xlink:href="#Cmr10-32"/>
      <use transform="translate(401.63125 0.609375)" xlink:href="#Cmr10-37"/>
      <use transform="translate(451.63125 0.609375)" xlink:href="#Cmr10-36"/>
      <use transform="translate(501.63125 0.609375)" xlink:href="#Cmmi10-3b"/>
      <use transform="translate(634.668359375 0.609375)" xlink:href="#Cmmi10-6b"/>
      <use transform="translate(686.6703125 -16.396875)scale(0.7)" xlink:href="#Cmmi10-69"/>
      <use transform="translate(734.702929688 0.609375)" xlink:href="#Cmr10-3d"/>
      <use transform="translate(829.947070313 0.609375)" xlink:href="#Cmr10-31"/>
      <use transform="translate(879.947070313 0.609375)" xlink:href="#Cmr10-33"/>
      <use transform="translate(929.947070313 0.609375)" xlink:href="#Cmr10-38"/>
      <use transform="translate(979.947070313 0.609375)" xlink:href="#Cmr10-39"/>
      <use transform="translate(1029.94707031 0.609375)" xlink:href="#Cmmi10-3a"/>
      <use transform="translate(1075.19121094 0.609375)" xlink:href="#Cmr10-34"/>
      <use transform="translate(1125.19121094 0.609375)" xlink:href="#Cmr10-39"/>
      <use transform="translate(1175.19121094 0.609375)" xlink:href="#Cmr10-35"/>
      <use transform="translate(1225.19121094 0.609375)" xlink:href="#Cmmi10-3b"/>
      <use transform="translate(1358.22832031 0.609375)" xlink:href="#Cmmi10-6b"/>
      <use transform="translate(1410.23027344 -16.396875)scale(0.7)" xlink:href="#Cmmi10-64"/>
      <use transform="translate(1470.56757812 0.609375)" xlink:href="#Cmr10-3d"/>
      <use transform="translate(1565.81171875 0.609375)" xlink:href="#Cmr10-30"/>
      <use transform="translate(1615.81171875 0.609375)" xlink:href="#Cmmi10-3a"/>
      <use transform="translate(1661.05585937 0.609375)" xlink:href="#Cmr10-30"/>
     </g>
    </g>
    <g id="line2d_47">
     <path d="M 43.44375 250.8175 
L 54.64375 250.8175 
" style="fill:none;stroke:#bc14cc;stroke-linecap:square;"/>
    </g>
    <g id="line2d_48"/>
    <g id="text_17">
     <!-- $k_p = 99.0, \quad k_i = 10000.0, \quad k_d = 0.0$ -->
     <g transform="translate(63.44375 253.6175)scale(0.08 -0.08)">
      <use transform="translate(0.0 0.609375)" xlink:href="#Cmmi10-6b"/>
      <use transform="translate(52.001953125 -16.396875)scale(0.7)" xlink:href="#Cmmi10-70"/>
      <use transform="translate(111.14296875 0.609375)" xlink:href="#Cmr10-3d"/>
      <use transform="translate(206.387109375 0.609375)" xlink:href="#Cmr10-39"/>
      <use transform="translate(256.387109375 0.609375)" xlink:href="#Cmr10-39"/>
      <use transform="translate(306.387109375 0.609375)" xlink:href="#Cmmi10-3a"/>
      <use transform="translate(351.63125 0.609375)" xlink:href="#Cmr10-30"/>
      <use transform="translate(401.63125 0.609375)" xlink:href="#Cmmi10-3b"/>
      <use transform="translate(534.668359375 0.609375)" xlink:href="#Cmmi10-6b"/>
      <use transform="translate(586.6703125 -16.396875)scale(0.7)" xlink:href="#Cmmi10-69"/>
      <use transform="translate(634.702929688 0.609375)" xlink:href="#Cmr10-3d"/>
      <use transform="translate(729.947070313 0.609375)" xlink:href="#Cmr10-31"/>
      <use transform="translate(779.947070313 0.609375)" xlink:href="#Cmr10-30"/>
      <use transform="translate(829.947070313 0.609375)" xlink:href="#Cmr10-30"/>
      <use transform="translate(879.947070313 0.609375)" xlink:href="#Cmr10-30"/>
      <use transform="translate(929.947070313 0.609375)" xlink:href="#Cmr10-30"/>
      <use transform="translate(979.947070313 0.609375)" xlink:href="#Cmmi10-3a"/>
      <use transform="translate(1025.19121094 0.609375)" xlink:href="#Cmr10-30"/>
      <use transform="translate(1075.19121094 0.609375)" xlink:href="#Cmmi10-3b"/>
      <use transform="translate(1208.22832031 0.609375)" xlink:href="#Cmmi10-6b"/>
      <use transform="translate(1260.23027344 -16.396875)scale(0.7)" xlink:href="#Cmmi10-64"/>
      <use transform="translate(1320.56757812 0.609375)" xlink:href="#Cmr10-3d"/>
      <use transform="translate(1415.81171875 0.609375)" xlink:href="#Cmr10-30"/>
      <use transform="translate(1465.81171875 0.609375)" xlink:href="#Cmmi10-3a"/>
      <use transform="translate(1511.05585937 0.609375)" xlink:href="#Cmr10-30"/>
     </g>
    </g>
   </g>
  </g>
 </g>
 <defs>
  <clipPath id="p9ce5beaa65">
   <rect height="236.97921875" width="385.19625" x="33.84375" y="26.31828125"/>
  </clipPath>
 </defs>
</svg>
