<?xml version="1.0" encoding="utf-8" standalone="no"?>
<!DOCTYPE svg PUBLIC "-//W3C//DTD SVG 1.1//EN"
  "http://www.w3.org/Graphics/SVG/1.1/DTD/svg11.dtd">
<!-- Created with matplotlib (http://matplotlib.org/) -->
<svg height="288pt" version="1.1" viewBox="0 0 432 288" width="432pt" xmlns="http://www.w3.org/2000/svg" xmlns:xlink="http://www.w3.org/1999/xlink">
 <defs>
  <style type="text/css">
*{stroke-linecap:butt;stroke-linejoin:round;stroke-miterlimit:100000;}
  </style>
 </defs>
 <g id="figure_1">
  <g id="patch_1">
   <path d="M 0 288 
L 432 288 
L 432 0 
L 0 0 
z
" style="fill:#ffffff;"/>
  </g>
  <g id="axes_1">
   <g id="patch_2">
    <path d="M 38.384646 273.965354 
L 422.730354 273.965354 
L 422.730354 18.634646 
L 38.384646 18.634646 
z
" style="fill:#ffffff;"/>
   </g>
   <g id="matplotlib.axis_1">
    <g id="xtick_1">
     <g id="line2d_1">
      <path clip-path="url(#p2c7de3eb93)" d="M 38.384646 273.965354 
L 38.384646 18.634646 
" style="fill:none;stroke:#000000;stroke-dasharray:1.000000,3.000000;stroke-dashoffset:0.0;stroke-width:0.5;"/>
     </g>
     <g id="line2d_2">
      <defs>
       <path d="M 0 0 
L 0 -4 
" id="mcae8140a52" style="stroke:#000000;stroke-width:0.5;"/>
      </defs>
      <g>
       <use style="stroke:#000000;stroke-width:0.5;" x="38.3846456693" xlink:href="#mcae8140a52" y="273.965354331"/>
      </g>
     </g>
     <g id="line2d_3">
      <defs>
       <path d="M 0 0 
L 0 4 
" id="m5564d11056" style="stroke:#000000;stroke-width:0.5;"/>
      </defs>
      <g>
       <use style="stroke:#000000;stroke-width:0.5;" x="38.3846456693" xlink:href="#m5564d11056" y="18.6346456693"/>
      </g>
     </g>
     <g id="text_1">
      <!-- -1.0 -->
      <defs>
       <path d="M 31.78125 66.40625 
Q 24.171875 66.40625 20.328125 58.90625 
Q 16.5 51.421875 16.5 36.375 
Q 16.5 21.390625 20.328125 13.890625 
Q 24.171875 6.390625 31.78125 6.390625 
Q 39.453125 6.390625 43.28125 13.890625 
Q 47.125 21.390625 47.125 36.375 
Q 47.125 51.421875 43.28125 58.90625 
Q 39.453125 66.40625 31.78125 66.40625 
M 31.78125 74.21875 
Q 44.046875 74.21875 50.515625 64.515625 
Q 56.984375 54.828125 56.984375 36.375 
Q 56.984375 17.96875 50.515625 8.265625 
Q 44.046875 -1.421875 31.78125 -1.421875 
Q 19.53125 -1.421875 13.0625 8.265625 
Q 6.59375 17.96875 6.59375 36.375 
Q 6.59375 54.828125 13.0625 64.515625 
Q 19.53125 74.21875 31.78125 74.21875 
" id="BitstreamVeraSans-Roman-30"/>
       <path d="M 12.40625 8.296875 
L 28.515625 8.296875 
L 28.515625 63.921875 
L 10.984375 60.40625 
L 10.984375 69.390625 
L 28.421875 72.90625 
L 38.28125 72.90625 
L 38.28125 8.296875 
L 54.390625 8.296875 
L 54.390625 0 
L 12.40625 0 
z
" id="BitstreamVeraSans-Roman-31"/>
       <path d="M 10.6875 12.40625 
L 21 12.40625 
L 21 0 
L 10.6875 0 
z
" id="BitstreamVeraSans-Roman-2e"/>
       <path d="M 4.890625 31.390625 
L 31.203125 31.390625 
L 31.203125 23.390625 
L 4.890625 23.390625 
z
" id="BitstreamVeraSans-Roman-2d"/>
      </defs>
      <g transform="translate(30.5802706693 284.044104331)scale(0.08 -0.08)">
       <use xlink:href="#BitstreamVeraSans-Roman-2d"/>
       <use x="36.083984375" xlink:href="#BitstreamVeraSans-Roman-31"/>
       <use x="99.70703125" xlink:href="#BitstreamVeraSans-Roman-2e"/>
       <use x="131.494140625" xlink:href="#BitstreamVeraSans-Roman-30"/>
      </g>
     </g>
    </g>
    <g id="xtick_2">
     <g id="line2d_4">
      <path clip-path="url(#p2c7de3eb93)" d="M 134.471073 273.965354 
L 134.471073 18.634646 
" style="fill:none;stroke:#000000;stroke-dasharray:1.000000,3.000000;stroke-dashoffset:0.0;stroke-width:0.5;"/>
     </g>
     <g id="line2d_5">
      <g>
       <use style="stroke:#000000;stroke-width:0.5;" x="134.471072835" xlink:href="#mcae8140a52" y="273.965354331"/>
      </g>
     </g>
     <g id="line2d_6">
      <g>
       <use style="stroke:#000000;stroke-width:0.5;" x="134.471072835" xlink:href="#m5564d11056" y="18.6346456693"/>
      </g>
     </g>
     <g id="text_2">
      <!-- -0.5 -->
      <defs>
       <path d="M 10.796875 72.90625 
L 49.515625 72.90625 
L 49.515625 64.59375 
L 19.828125 64.59375 
L 19.828125 46.734375 
Q 21.96875 47.46875 24.109375 47.828125 
Q 26.265625 48.1875 28.421875 48.1875 
Q 40.625 48.1875 47.75 41.5 
Q 54.890625 34.8125 54.890625 23.390625 
Q 54.890625 11.625 47.5625 5.09375 
Q 40.234375 -1.421875 26.90625 -1.421875 
Q 22.3125 -1.421875 17.546875 -0.640625 
Q 12.796875 0.140625 7.71875 1.703125 
L 7.71875 11.625 
Q 12.109375 9.234375 16.796875 8.0625 
Q 21.484375 6.890625 26.703125 6.890625 
Q 35.15625 6.890625 40.078125 11.328125 
Q 45.015625 15.765625 45.015625 23.390625 
Q 45.015625 31 40.078125 35.4375 
Q 35.15625 39.890625 26.703125 39.890625 
Q 22.75 39.890625 18.8125 39.015625 
Q 14.890625 38.140625 10.796875 36.28125 
z
" id="BitstreamVeraSans-Roman-35"/>
      </defs>
      <g transform="translate(126.666697835 284.044104331)scale(0.08 -0.08)">
       <use xlink:href="#BitstreamVeraSans-Roman-2d"/>
       <use x="36.083984375" xlink:href="#BitstreamVeraSans-Roman-30"/>
       <use x="99.70703125" xlink:href="#BitstreamVeraSans-Roman-2e"/>
       <use x="131.494140625" xlink:href="#BitstreamVeraSans-Roman-35"/>
      </g>
     </g>
    </g>
    <g id="xtick_3">
     <g id="line2d_7">
      <path clip-path="url(#p2c7de3eb93)" d="M 230.5575 273.965354 
L 230.5575 18.634646 
" style="fill:none;stroke:#000000;stroke-dasharray:1.000000,3.000000;stroke-dashoffset:0.0;stroke-width:0.5;"/>
     </g>
     <g id="line2d_8">
      <g>
       <use style="stroke:#000000;stroke-width:0.5;" x="230.5575" xlink:href="#mcae8140a52" y="273.965354331"/>
      </g>
     </g>
     <g id="line2d_9">
      <g>
       <use style="stroke:#000000;stroke-width:0.5;" x="230.5575" xlink:href="#m5564d11056" y="18.6346456693"/>
      </g>
     </g>
     <g id="text_3">
      <!-- 0.0 -->
      <g transform="translate(224.19625 284.044104331)scale(0.08 -0.08)">
       <use xlink:href="#BitstreamVeraSans-Roman-30"/>
       <use x="63.623046875" xlink:href="#BitstreamVeraSans-Roman-2e"/>
       <use x="95.41015625" xlink:href="#BitstreamVeraSans-Roman-30"/>
      </g>
     </g>
    </g>
    <g id="xtick_4">
     <g id="line2d_10">
      <path clip-path="url(#p2c7de3eb93)" d="M 326.643927 273.965354 
L 326.643927 18.634646 
" style="fill:none;stroke:#000000;stroke-dasharray:1.000000,3.000000;stroke-dashoffset:0.0;stroke-width:0.5;"/>
     </g>
     <g id="line2d_11">
      <g>
       <use style="stroke:#000000;stroke-width:0.5;" x="326.643927165" xlink:href="#mcae8140a52" y="273.965354331"/>
      </g>
     </g>
     <g id="line2d_12">
      <g>
       <use style="stroke:#000000;stroke-width:0.5;" x="326.643927165" xlink:href="#m5564d11056" y="18.6346456693"/>
      </g>
     </g>
     <g id="text_4">
      <!-- 0.5 -->
      <g transform="translate(320.282677165 284.044104331)scale(0.08 -0.08)">
       <use xlink:href="#BitstreamVeraSans-Roman-30"/>
       <use x="63.623046875" xlink:href="#BitstreamVeraSans-Roman-2e"/>
       <use x="95.41015625" xlink:href="#BitstreamVeraSans-Roman-35"/>
      </g>
     </g>
    </g>
    <g id="xtick_5">
     <g id="line2d_13">
      <path clip-path="url(#p2c7de3eb93)" d="M 422.730354 273.965354 
L 422.730354 18.634646 
" style="fill:none;stroke:#000000;stroke-dasharray:1.000000,3.000000;stroke-dashoffset:0.0;stroke-width:0.5;"/>
     </g>
     <g id="line2d_14">
      <g>
       <use style="stroke:#000000;stroke-width:0.5;" x="422.730354331" xlink:href="#mcae8140a52" y="273.965354331"/>
      </g>
     </g>
     <g id="line2d_15">
      <g>
       <use style="stroke:#000000;stroke-width:0.5;" x="422.730354331" xlink:href="#m5564d11056" y="18.6346456693"/>
      </g>
     </g>
     <g id="text_5">
      <!-- 1.0 -->
      <g transform="translate(416.369104331 284.044104331)scale(0.08 -0.08)">
       <use xlink:href="#BitstreamVeraSans-Roman-31"/>
       <use x="63.623046875" xlink:href="#BitstreamVeraSans-Roman-2e"/>
       <use x="95.41015625" xlink:href="#BitstreamVeraSans-Roman-30"/>
      </g>
     </g>
    </g>
   </g>
   <g id="matplotlib.axis_2">
    <g id="ytick_1">
     <g id="line2d_16">
      <path clip-path="url(#p2c7de3eb93)" d="M 38.384646 273.965354 
L 422.730354 273.965354 
" style="fill:none;stroke:#000000;stroke-dasharray:1.000000,3.000000;stroke-dashoffset:0.0;stroke-width:0.5;"/>
     </g>
     <g id="line2d_17">
      <defs>
       <path d="M 0 0 
L 4 0 
" id="m48cd576ed3" style="stroke:#000000;stroke-width:0.5;"/>
      </defs>
      <g>
       <use style="stroke:#000000;stroke-width:0.5;" x="38.3846456693" xlink:href="#m48cd576ed3" y="273.965354331"/>
      </g>
     </g>
     <g id="line2d_18">
      <defs>
       <path d="M 0 0 
L -4 0 
" id="md1551de980" style="stroke:#000000;stroke-width:0.5;"/>
      </defs>
      <g>
       <use style="stroke:#000000;stroke-width:0.5;" x="422.730354331" xlink:href="#md1551de980" y="273.965354331"/>
      </g>
     </g>
     <g id="text_6">
      <!-- -1.0 -->
      <g transform="translate(18.7758956693 276.172854331)scale(0.08 -0.08)">
       <use xlink:href="#BitstreamVeraSans-Roman-2d"/>
       <use x="36.083984375" xlink:href="#BitstreamVeraSans-Roman-31"/>
       <use x="99.70703125" xlink:href="#BitstreamVeraSans-Roman-2e"/>
       <use x="131.494140625" xlink:href="#BitstreamVeraSans-Roman-30"/>
      </g>
     </g>
    </g>
    <g id="ytick_2">
     <g id="line2d_19">
      <path clip-path="url(#p2c7de3eb93)" d="M 38.384646 210.132677 
L 422.730354 210.132677 
" style="fill:none;stroke:#000000;stroke-dasharray:1.000000,3.000000;stroke-dashoffset:0.0;stroke-width:0.5;"/>
     </g>
     <g id="line2d_20">
      <g>
       <use style="stroke:#000000;stroke-width:0.5;" x="38.3846456693" xlink:href="#m48cd576ed3" y="210.132677165"/>
      </g>
     </g>
     <g id="line2d_21">
      <g>
       <use style="stroke:#000000;stroke-width:0.5;" x="422.730354331" xlink:href="#md1551de980" y="210.132677165"/>
      </g>
     </g>
     <g id="text_7">
      <!-- -0.5 -->
      <g transform="translate(18.7758956693 212.340177165)scale(0.08 -0.08)">
       <use xlink:href="#BitstreamVeraSans-Roman-2d"/>
       <use x="36.083984375" xlink:href="#BitstreamVeraSans-Roman-30"/>
       <use x="99.70703125" xlink:href="#BitstreamVeraSans-Roman-2e"/>
       <use x="131.494140625" xlink:href="#BitstreamVeraSans-Roman-35"/>
      </g>
     </g>
    </g>
    <g id="ytick_3">
     <g id="line2d_22">
      <path clip-path="url(#p2c7de3eb93)" d="M 38.384646 146.3 
L 422.730354 146.3 
" style="fill:none;stroke:#000000;stroke-dasharray:1.000000,3.000000;stroke-dashoffset:0.0;stroke-width:0.5;"/>
     </g>
     <g id="line2d_23">
      <g>
       <use style="stroke:#000000;stroke-width:0.5;" x="38.3846456693" xlink:href="#m48cd576ed3" y="146.3"/>
      </g>
     </g>
     <g id="line2d_24">
      <g>
       <use style="stroke:#000000;stroke-width:0.5;" x="422.730354331" xlink:href="#md1551de980" y="146.3"/>
      </g>
     </g>
     <g id="text_8">
      <!-- 0.0 -->
      <g transform="translate(21.6621456693 148.5075)scale(0.08 -0.08)">
       <use xlink:href="#BitstreamVeraSans-Roman-30"/>
       <use x="63.623046875" xlink:href="#BitstreamVeraSans-Roman-2e"/>
       <use x="95.41015625" xlink:href="#BitstreamVeraSans-Roman-30"/>
      </g>
     </g>
    </g>
    <g id="ytick_4">
     <g id="line2d_25">
      <path clip-path="url(#p2c7de3eb93)" d="M 38.384646 82.467323 
L 422.730354 82.467323 
" style="fill:none;stroke:#000000;stroke-dasharray:1.000000,3.000000;stroke-dashoffset:0.0;stroke-width:0.5;"/>
     </g>
     <g id="line2d_26">
      <g>
       <use style="stroke:#000000;stroke-width:0.5;" x="38.3846456693" xlink:href="#m48cd576ed3" y="82.4673228346"/>
      </g>
     </g>
     <g id="line2d_27">
      <g>
       <use style="stroke:#000000;stroke-width:0.5;" x="422.730354331" xlink:href="#md1551de980" y="82.4673228346"/>
      </g>
     </g>
     <g id="text_9">
      <!-- 0.5 -->
      <g transform="translate(21.6621456693 84.6748228346)scale(0.08 -0.08)">
       <use xlink:href="#BitstreamVeraSans-Roman-30"/>
       <use x="63.623046875" xlink:href="#BitstreamVeraSans-Roman-2e"/>
       <use x="95.41015625" xlink:href="#BitstreamVeraSans-Roman-35"/>
      </g>
     </g>
    </g>
    <g id="ytick_5">
     <g id="line2d_28">
      <path clip-path="url(#p2c7de3eb93)" d="M 38.384646 18.634646 
L 422.730354 18.634646 
" style="fill:none;stroke:#000000;stroke-dasharray:1.000000,3.000000;stroke-dashoffset:0.0;stroke-width:0.5;"/>
     </g>
     <g id="line2d_29">
      <g>
       <use style="stroke:#000000;stroke-width:0.5;" x="38.3846456693" xlink:href="#m48cd576ed3" y="18.6346456693"/>
      </g>
     </g>
     <g id="line2d_30">
      <g>
       <use style="stroke:#000000;stroke-width:0.5;" x="422.730354331" xlink:href="#md1551de980" y="18.6346456693"/>
      </g>
     </g>
     <g id="text_10">
      <!-- 1.0 -->
      <g transform="translate(21.6621456693 20.8421456693)scale(0.08 -0.08)">
       <use xlink:href="#BitstreamVeraSans-Roman-31"/>
       <use x="63.623046875" xlink:href="#BitstreamVeraSans-Roman-2e"/>
       <use x="95.41015625" xlink:href="#BitstreamVeraSans-Roman-30"/>
      </g>
     </g>
    </g>
    <g id="text_11">
     <!-- To: y(1) -->
     <defs>
      <path id="BitstreamVeraSans-Roman-20"/>
      <path d="M 8.015625 75.875 
L 15.828125 75.875 
Q 23.140625 64.359375 26.78125 53.3125 
Q 30.421875 42.28125 30.421875 31.390625 
Q 30.421875 20.453125 26.78125 9.375 
Q 23.140625 -1.703125 15.828125 -13.1875 
L 8.015625 -13.1875 
Q 14.5 -2 17.703125 9.0625 
Q 20.90625 20.125 20.90625 31.390625 
Q 20.90625 42.671875 17.703125 53.65625 
Q 14.5 64.65625 8.015625 75.875 
" id="BitstreamVeraSans-Roman-29"/>
      <path d="M 31 75.875 
Q 24.46875 64.65625 21.28125 53.65625 
Q 18.109375 42.671875 18.109375 31.390625 
Q 18.109375 20.125 21.3125 9.0625 
Q 24.515625 -2 31 -13.1875 
L 23.1875 -13.1875 
Q 15.875 -1.703125 12.234375 9.375 
Q 8.59375 20.453125 8.59375 31.390625 
Q 8.59375 42.28125 12.203125 53.3125 
Q 15.828125 64.359375 23.1875 75.875 
z
" id="BitstreamVeraSans-Roman-28"/>
      <path d="M 30.609375 48.390625 
Q 23.390625 48.390625 19.1875 42.75 
Q 14.984375 37.109375 14.984375 27.296875 
Q 14.984375 17.484375 19.15625 11.84375 
Q 23.34375 6.203125 30.609375 6.203125 
Q 37.796875 6.203125 41.984375 11.859375 
Q 46.1875 17.53125 46.1875 27.296875 
Q 46.1875 37.015625 41.984375 42.703125 
Q 37.796875 48.390625 30.609375 48.390625 
M 30.609375 56 
Q 42.328125 56 49.015625 48.375 
Q 55.71875 40.765625 55.71875 27.296875 
Q 55.71875 13.875 49.015625 6.21875 
Q 42.328125 -1.421875 30.609375 -1.421875 
Q 18.84375 -1.421875 12.171875 6.21875 
Q 5.515625 13.875 5.515625 27.296875 
Q 5.515625 40.765625 12.171875 48.375 
Q 18.84375 56 30.609375 56 
" id="BitstreamVeraSans-Roman-6f"/>
      <path d="M 11.71875 12.40625 
L 22.015625 12.40625 
L 22.015625 0 
L 11.71875 0 
z
M 11.71875 51.703125 
L 22.015625 51.703125 
L 22.015625 39.3125 
L 11.71875 39.3125 
z
" id="BitstreamVeraSans-Roman-3a"/>
      <path d="M -0.296875 72.90625 
L 61.375 72.90625 
L 61.375 64.59375 
L 35.5 64.59375 
L 35.5 0 
L 25.59375 0 
L 25.59375 64.59375 
L -0.296875 64.59375 
z
" id="BitstreamVeraSans-Roman-54"/>
      <path d="M 32.171875 -5.078125 
Q 28.375 -14.84375 24.75 -17.8125 
Q 21.140625 -20.796875 15.09375 -20.796875 
L 7.90625 -20.796875 
L 7.90625 -13.28125 
L 13.1875 -13.28125 
Q 16.890625 -13.28125 18.9375 -11.515625 
Q 21 -9.765625 23.484375 -3.21875 
L 25.09375 0.875 
L 2.984375 54.6875 
L 12.5 54.6875 
L 29.59375 11.921875 
L 46.6875 54.6875 
L 56.203125 54.6875 
z
" id="BitstreamVeraSans-Roman-79"/>
     </defs>
     <g transform="translate(11.4882394193 167.6571875)rotate(-90.0)scale(0.11 -0.11)">
      <use xlink:href="#BitstreamVeraSans-Roman-54"/>
      <use x="60.818359375" xlink:href="#BitstreamVeraSans-Roman-6f"/>
      <use x="122.0" xlink:href="#BitstreamVeraSans-Roman-3a"/>
      <use x="155.69140625" xlink:href="#BitstreamVeraSans-Roman-20"/>
      <use x="187.478515625" xlink:href="#BitstreamVeraSans-Roman-79"/>
      <use x="246.658203125" xlink:href="#BitstreamVeraSans-Roman-28"/>
      <use x="285.671875" xlink:href="#BitstreamVeraSans-Roman-31"/>
      <use x="349.294921875" xlink:href="#BitstreamVeraSans-Roman-29"/>
     </g>
    </g>
   </g>
   <g id="line2d_31">
    <path clip-path="url(#p2c7de3eb93)" d="M 38.384838 146.172335 
L 38.502951 143.133386 
L 38.830729 140.156293 
L 39.405196 137.021281 
L 40.153177 134.109381 
L 41.124804 131.164517 
L 42.395069 128.050852 
L 43.929904 124.928755 
L 45.632059 121.979592 
L 47.345171 119.383097 
L 49.439014 116.574487 
L 51.985811 113.560248 
L 54.240914 111.174049 
L 56.831293 108.692678 
L 59.793469 106.132425 
L 63.163468 103.515021 
L 66.975127 100.868194 
L 71.257978 98.226016 
L 76.034735 95.628909 
L 81.318522 93.1232 
L 85.123656 91.528642 
L 89.151311 90.013461 
L 93.394762 88.59408 
L 97.843765 87.286933 
L 102.484435 86.108077 
L 107.299222 85.072771 
L 112.267034 84.195031 
L 117.363495 83.487204 
L 122.561342 82.959556 
L 127.830957 82.619925 
L 133.141014 82.473439 
L 138.45921 82.52233 
L 143.753042 82.765851 
L 148.990598 83.200307 
L 154.14132 83.819184 
L 159.176696 84.613389 
L 164.070845 85.57157 
L 168.800992 86.680491 
L 173.347795 87.92546 
L 177.695528 89.290765 
L 181.832137 90.760108 
L 185.74916 92.317015 
L 191.202801 94.781075 
L 196.147667 97.353132 
L 200.593044 99.985084 
L 204.558768 102.634464 
L 208.072392 105.265066 
L 211.166575 107.84707 
L 213.876823 110.356801 
L 216.956334 113.560248 
L 219.503132 116.574487 
L 221.596975 119.383097 
L 223.686529 122.595544 
L 225.302784 125.47997 
L 226.758838 128.529198 
L 227.962955 131.5665 
L 228.972842 134.754922 
L 229.692446 137.75388 
L 230.199878 140.797822 
L 230.48948 143.898578 
L 230.557308 146.172335 
L 230.557308 146.172335 
" style="fill:none;stroke:#cc1414;stroke-linecap:round;"/>
   </g>
   <g id="line2d_32">
    <path clip-path="url(#p2c7de3eb93)" d="M 80.384154 289 
L 80.68758 257.761269 
L 81.084679 235.2308 
L 81.568834 218.632129 
L 82.111415 206.366057 
L 82.821058 195.281035 
L 83.541573 187.128848 
L 84.430931 179.514652 
L 85.525814 172.358504 
L 86.507547 167.249697 
L 87.649716 162.333746 
L 88.975188 157.588898 
L 90.508879 152.997345 
L 92.277491 148.545588 
L 94.30905 144.224851 
L 96.632199 140.031518 
L 98.356966 137.307469 
L 100.231933 134.642821 
L 102.264567 132.040801 
L 104.461551 129.505843 
L 106.828516 127.043573 
L 109.369756 124.660763 
L 112.08793 122.365244 
L 114.983765 120.165786 
L 118.055773 118.071927 
L 121.299996 116.093759 
L 124.709798 114.24167 
L 128.275724 112.526044 
L 131.985442 110.956937 
L 135.823782 109.543727 
L 139.772881 108.294764 
L 143.812444 107.217033 
L 147.920108 106.315847 
L 152.071908 105.594595 
L 156.242815 105.054551 
L 160.40734 104.694761 
L 164.540147 104.512018 
L 168.616668 104.500924 
L 172.613675 104.654028 
L 176.509787 104.962046 
L 180.285886 105.414129 
L 185.689579 106.335651 
L 190.74267 107.509567 
L 195.415613 108.889488 
L 199.692745 110.429298 
L 203.570861 112.085105 
L 207.057242 113.816689 
L 210.167445 115.588449 
L 212.923079 117.369878 
L 216.090327 119.717095 
L 218.739236 121.990567 
L 220.93738 124.157707 
L 223.149578 126.686076 
L 224.873563 128.994986 
L 226.436378 131.469512 
L 227.735796 133.96313 
L 228.73341 136.340826 
L 229.55998 138.910737 
L 230.12116 141.401927 
L 230.453858 143.909688 
L 230.557349 146.208811 
L 230.557349 146.208811 
" style="fill:none;stroke:#cc9e14;stroke-linecap:round;"/>
   </g>
   <g id="patch_3">
    <path d="M 38.384646 18.634646 
L 422.730354 18.634646 
" style="fill:none;stroke:#000000;stroke-linecap:square;stroke-linejoin:miter;"/>
   </g>
   <g id="patch_4">
    <path d="M 422.730354 273.965354 
L 422.730354 18.634646 
" style="fill:none;stroke:#000000;stroke-linecap:square;stroke-linejoin:miter;"/>
   </g>
   <g id="patch_5">
    <path d="M 38.384646 273.965354 
L 422.730354 273.965354 
" style="fill:none;stroke:#000000;stroke-linecap:square;stroke-linejoin:miter;"/>
   </g>
   <g id="patch_6">
    <path d="M 38.384646 273.965354 
L 38.384646 18.634646 
" style="fill:none;stroke:#000000;stroke-linecap:square;stroke-linejoin:miter;"/>
   </g>
   <g id="line2d_33">
    <path clip-path="url(#p2c7de3eb93)" d="M 131.438441 289 
L 131.804209 256.215927 
L 132.256665 234.351621 
L 132.805946 218.305334 
L 133.418445 206.501715 
L 134.21468 195.894905 
L 135.017541 188.146636 
L 136.000884 180.964919 
L 136.877899 175.908091 
L 137.892683 171.105511 
L 139.062906 166.536068 
L 140.407111 162.182744 
L 141.94425 158.032832 
L 143.693017 154.078134 
L 145.670972 150.315114 
L 147.893439 146.74496 
L 150.372204 143.373467 
L 152.170716 141.240986 
L 154.086779 139.20512 
L 156.119409 137.270399 
L 158.265988 135.441815 
L 160.522123 133.724647 
L 162.88156 132.12426 
L 165.336139 130.645879 
L 167.875821 129.29436 
L 170.488789 128.07395 
L 174.515894 126.496351 
L 178.626585 125.228131 
L 182.765651 124.269796 
L 186.876342 123.61473 
L 190.903447 123.249151 
L 194.796195 123.152699 
L 198.510676 123.29955 
L 202.011529 123.659914 
L 205.272827 124.201697 
L 208.278158 124.892146 
L 211.875304 125.989042 
L 215.008278 127.223762 
L 217.699219 128.535802 
L 219.982971 129.875564 
L 222.32933 131.53143 
L 224.192234 133.117523 
L 225.907685 134.883127 
L 227.353776 136.719542 
L 228.476402 138.514079 
L 229.350569 140.332766 
L 229.997931 142.217868 
L 230.391344 144.069297 
L 230.55269 145.920026 
L 230.5574 146.245286 
L 230.5574 146.245286 
" style="fill:none;stroke:#14cc2b;stroke-linecap:round;"/>
   </g>
   <g id="text_12">
    <!-- Nyquist curves -->
    <defs>
     <path d="M 9.8125 72.90625 
L 23.09375 72.90625 
L 55.421875 11.921875 
L 55.421875 72.90625 
L 64.984375 72.90625 
L 64.984375 0 
L 51.703125 0 
L 19.390625 60.984375 
L 19.390625 0 
L 9.8125 0 
z
" id="BitstreamVeraSans-Roman-4e"/>
     <path d="M 56.203125 29.59375 
L 56.203125 25.203125 
L 14.890625 25.203125 
Q 15.484375 15.921875 20.484375 11.0625 
Q 25.484375 6.203125 34.421875 6.203125 
Q 39.59375 6.203125 44.453125 7.46875 
Q 49.3125 8.734375 54.109375 11.28125 
L 54.109375 2.78125 
Q 49.265625 0.734375 44.1875 -0.34375 
Q 39.109375 -1.421875 33.890625 -1.421875 
Q 20.796875 -1.421875 13.15625 6.1875 
Q 5.515625 13.8125 5.515625 26.8125 
Q 5.515625 40.234375 12.765625 48.109375 
Q 20.015625 56 32.328125 56 
Q 43.359375 56 49.78125 48.890625 
Q 56.203125 41.796875 56.203125 29.59375 
M 47.21875 32.234375 
Q 47.125 39.59375 43.09375 43.984375 
Q 39.0625 48.390625 32.421875 48.390625 
Q 24.90625 48.390625 20.390625 44.140625 
Q 15.875 39.890625 15.1875 32.171875 
z
" id="BitstreamVeraSans-Roman-65"/>
     <path d="M 9.421875 54.6875 
L 18.40625 54.6875 
L 18.40625 0 
L 9.421875 0 
z
M 9.421875 75.984375 
L 18.40625 75.984375 
L 18.40625 64.59375 
L 9.421875 64.59375 
z
" id="BitstreamVeraSans-Roman-69"/>
     <path d="M 2.984375 54.6875 
L 12.5 54.6875 
L 29.59375 8.796875 
L 46.6875 54.6875 
L 56.203125 54.6875 
L 35.6875 0 
L 23.484375 0 
z
" id="BitstreamVeraSans-Roman-76"/>
     <path d="M 18.3125 70.21875 
L 18.3125 54.6875 
L 36.8125 54.6875 
L 36.8125 47.703125 
L 18.3125 47.703125 
L 18.3125 18.015625 
Q 18.3125 11.328125 20.140625 9.421875 
Q 21.96875 7.515625 27.59375 7.515625 
L 36.8125 7.515625 
L 36.8125 0 
L 27.59375 0 
Q 17.1875 0 13.234375 3.875 
Q 9.28125 7.765625 9.28125 18.015625 
L 9.28125 47.703125 
L 2.6875 47.703125 
L 2.6875 54.6875 
L 9.28125 54.6875 
L 9.28125 70.21875 
z
" id="BitstreamVeraSans-Roman-74"/>
     <path d="M 8.5 21.578125 
L 8.5 54.6875 
L 17.484375 54.6875 
L 17.484375 21.921875 
Q 17.484375 14.15625 20.5 10.265625 
Q 23.53125 6.390625 29.59375 6.390625 
Q 36.859375 6.390625 41.078125 11.03125 
Q 45.3125 15.671875 45.3125 23.6875 
L 45.3125 54.6875 
L 54.296875 54.6875 
L 54.296875 0 
L 45.3125 0 
L 45.3125 8.40625 
Q 42.046875 3.421875 37.71875 1 
Q 33.40625 -1.421875 27.6875 -1.421875 
Q 18.265625 -1.421875 13.375 4.4375 
Q 8.5 10.296875 8.5 21.578125 
" id="BitstreamVeraSans-Roman-75"/>
     <path d="M 41.109375 46.296875 
Q 39.59375 47.171875 37.8125 47.578125 
Q 36.03125 48 33.890625 48 
Q 26.265625 48 22.1875 43.046875 
Q 18.109375 38.09375 18.109375 28.8125 
L 18.109375 0 
L 9.078125 0 
L 9.078125 54.6875 
L 18.109375 54.6875 
L 18.109375 46.1875 
Q 20.953125 51.171875 25.484375 53.578125 
Q 30.03125 56 36.53125 56 
Q 37.453125 56 38.578125 55.875 
Q 39.703125 55.765625 41.0625 55.515625 
z
" id="BitstreamVeraSans-Roman-72"/>
     <path d="M 44.28125 53.078125 
L 44.28125 44.578125 
Q 40.484375 46.53125 36.375 47.5 
Q 32.28125 48.484375 27.875 48.484375 
Q 21.1875 48.484375 17.84375 46.4375 
Q 14.5 44.390625 14.5 40.28125 
Q 14.5 37.15625 16.890625 35.375 
Q 19.28125 33.59375 26.515625 31.984375 
L 29.59375 31.296875 
Q 39.15625 29.25 43.1875 25.515625 
Q 47.21875 21.78125 47.21875 15.09375 
Q 47.21875 7.46875 41.1875 3.015625 
Q 35.15625 -1.421875 24.609375 -1.421875 
Q 20.21875 -1.421875 15.453125 -0.5625 
Q 10.6875 0.296875 5.421875 2 
L 5.421875 11.28125 
Q 10.40625 8.6875 15.234375 7.390625 
Q 20.0625 6.109375 24.8125 6.109375 
Q 31.15625 6.109375 34.5625 8.28125 
Q 37.984375 10.453125 37.984375 14.40625 
Q 37.984375 18.0625 35.515625 20.015625 
Q 33.0625 21.96875 24.703125 23.78125 
L 21.578125 24.515625 
Q 13.234375 26.265625 9.515625 29.90625 
Q 5.8125 33.546875 5.8125 39.890625 
Q 5.8125 47.609375 11.28125 51.796875 
Q 16.75 56 26.8125 56 
Q 31.78125 56 36.171875 55.265625 
Q 40.578125 54.546875 44.28125 53.078125 
" id="BitstreamVeraSans-Roman-73"/>
     <path d="M 48.78125 52.59375 
L 48.78125 44.1875 
Q 44.96875 46.296875 41.140625 47.34375 
Q 37.3125 48.390625 33.40625 48.390625 
Q 24.65625 48.390625 19.8125 42.84375 
Q 14.984375 37.3125 14.984375 27.296875 
Q 14.984375 17.28125 19.8125 11.734375 
Q 24.65625 6.203125 33.40625 6.203125 
Q 37.3125 6.203125 41.140625 7.25 
Q 44.96875 8.296875 48.78125 10.40625 
L 48.78125 2.09375 
Q 45.015625 0.34375 40.984375 -0.53125 
Q 36.96875 -1.421875 32.421875 -1.421875 
Q 20.0625 -1.421875 12.78125 6.34375 
Q 5.515625 14.109375 5.515625 27.296875 
Q 5.515625 40.671875 12.859375 48.328125 
Q 20.21875 56 33.015625 56 
Q 37.15625 56 41.109375 55.140625 
Q 45.0625 54.296875 48.78125 52.59375 
" id="BitstreamVeraSans-Roman-63"/>
     <path d="M 14.796875 27.296875 
Q 14.796875 17.390625 18.875 11.75 
Q 22.953125 6.109375 30.078125 6.109375 
Q 37.203125 6.109375 41.296875 11.75 
Q 45.40625 17.390625 45.40625 27.296875 
Q 45.40625 37.203125 41.296875 42.84375 
Q 37.203125 48.484375 30.078125 48.484375 
Q 22.953125 48.484375 18.875 42.84375 
Q 14.796875 37.203125 14.796875 27.296875 
M 45.40625 8.203125 
Q 42.578125 3.328125 38.25 0.953125 
Q 33.9375 -1.421875 27.875 -1.421875 
Q 17.96875 -1.421875 11.734375 6.484375 
Q 5.515625 14.40625 5.515625 27.296875 
Q 5.515625 40.1875 11.734375 48.09375 
Q 17.96875 56 27.875 56 
Q 33.9375 56 38.25 53.625 
Q 42.578125 51.265625 45.40625 46.390625 
L 45.40625 54.6875 
L 54.390625 54.6875 
L 54.390625 -20.796875 
L 45.40625 -20.796875 
z
" id="BitstreamVeraSans-Roman-71"/>
    </defs>
    <g transform="translate(178.4775 13.6346456693)scale(0.14 -0.14)">
     <use xlink:href="#BitstreamVeraSans-Roman-4e"/>
     <use x="74.8046875" xlink:href="#BitstreamVeraSans-Roman-79"/>
     <use x="133.984375" xlink:href="#BitstreamVeraSans-Roman-71"/>
     <use x="197.4609375" xlink:href="#BitstreamVeraSans-Roman-75"/>
     <use x="260.83984375" xlink:href="#BitstreamVeraSans-Roman-69"/>
     <use x="288.623046875" xlink:href="#BitstreamVeraSans-Roman-73"/>
     <use x="340.72265625" xlink:href="#BitstreamVeraSans-Roman-74"/>
     <use x="379.931640625" xlink:href="#BitstreamVeraSans-Roman-20"/>
     <use x="411.71875" xlink:href="#BitstreamVeraSans-Roman-63"/>
     <use x="466.69921875" xlink:href="#BitstreamVeraSans-Roman-75"/>
     <use x="530.078125" xlink:href="#BitstreamVeraSans-Roman-72"/>
     <use x="571.19140625" xlink:href="#BitstreamVeraSans-Roman-76"/>
     <use x="630.37109375" xlink:href="#BitstreamVeraSans-Roman-65"/>
     <use x="691.89453125" xlink:href="#BitstreamVeraSans-Roman-73"/>
    </g>
   </g>
   <g id="line2d_34">
    <path clip-path="url(#p2c7de3eb93)" d="M 184.432722 289 
L 184.711498 250.745831 
L 185.107903 225.954865 
L 185.577075 210.210398 
L 186.139427 198.691959 
L 186.757349 190.257245 
L 187.546561 182.726703 
L 188.32667 177.272901 
L 189.261382 172.272181 
L 190.371367 167.685178 
L 191.675578 163.482472 
L 192.790453 160.570404 
L 194.027186 157.858217 
L 195.387019 155.343461 
L 196.867744 153.025772 
L 198.463142 150.906277 
L 200.162621 148.986849 
L 201.951142 147.269281 
L 203.8095 145.754411 
L 205.714989 144.44131 
L 207.642428 143.32661 
L 210.200926 142.137745 
L 212.690413 141.267056 
L 215.056153 140.682824 
L 217.254323 140.346898 
L 219.721433 140.212741 
L 221.851103 140.320396 
L 223.963017 140.665072 
L 225.62949 141.146232 
L 227.094994 141.777997 
L 228.390563 142.585023 
L 229.353423 143.456051 
L 230.02499 144.374549 
L 230.415317 145.294906 
L 230.556281 146.206594 
L 230.557454 146.281762 
L 230.557454 146.281762 
" style="fill:none;stroke:#1427cc;stroke-dasharray:6.000000,6.000000;stroke-dashoffset:0.0;"/>
   </g>
   <g id="line2d_35">
    <path clip-path="url(#p2c7de3eb93)" d="M 238.924518 289 
L 238.759993 222.574656 
L 238.505488 198.750249 
L 238.181094 186.726902 
L 237.793948 179.327473 
L 237.26359 173.459962 
L 236.670853 169.314125 
L 235.96642 165.885322 
L 235.065429 162.635617 
L 233.799667 159.011333 
L 231.593486 152.867731 
L 230.972 150.383958 
L 230.644104 148.151906 
L 230.557508 146.318238 
L 230.557508 146.318238 
" style="fill:none;stroke:#cc1414;stroke-dasharray:6.000000,6.000000;stroke-dashoffset:0.0;"/>
   </g>
   <g id="line2d_36">
    <path clip-path="url(#p2c7de3eb93)" d="M 295.110473 289 
L 294.809567 258.03284 
L 294.40184 237.850112 
L 293.958814 225.693279 
L 293.466218 217.225699 
L 292.828077 210.08268 
L 292.187158 205.217689 
L 291.405603 201.029554 
L 290.711734 198.29205 
L 289.912576 195.870121 
L 288.995915 193.736993 
L 287.949398 191.865981 
L 286.761018 190.230137 
L 285.419728 188.801939 
L 283.91621 187.553099 
L 282.243754 186.454489 
L 280.39922 185.476251 
L 277.675316 184.306874 
L 273.874454 182.96258 
L 260.810088 178.601202 
L 256.403029 176.804137 
L 253.044659 175.228961 
L 249.907003 173.553342 
L 247.037423 171.807319 
L 244.463763 170.025302 
L 241.675939 167.799473 
L 239.350808 165.631049 
L 237.449716 163.566948 
L 235.654182 161.272112 
L 234.10591 158.881473 
L 232.881404 156.538467 
L 231.913908 154.156206 
L 231.224984 151.82813 
L 230.779563 149.494911 
L 230.574943 147.196258 
L 230.557565 146.354714 
L 230.557565 146.354714 
" style="fill:none;stroke:#cc9e14;stroke-dasharray:6.000000,6.000000;stroke-dashoffset:0.0;"/>
   </g>
   <g id="line2d_37">
    <path clip-path="url(#p2c7de3eb93)" d="M 353.852767 289 
L 353.555036 262.430009 
L 353.170817 244.546209 
L 352.70286 232.166592 
L 352.179076 223.655837 
L 351.646736 217.902579 
L 350.988911 213.002636 
L 350.177946 208.886292 
L 349.449734 206.274915 
L 348.601258 204.043489 
L 347.614911 202.167913 
L 346.471333 200.624521 
L 345.611291 199.768419 
L 344.665497 199.042212 
L 343.627161 198.438501 
L 341.880948 197.745696 
L 339.887365 197.283558 
L 337.623536 197.022158 
L 334.148788 196.928903 
L 329.018282 197.100028 
L 316.064998 197.67054 
L 309.972845 197.697765 
L 303.488431 197.466686 
L 298.446388 197.078916 
L 293.32297 196.482731 
L 288.187784 195.666297 
L 283.111079 194.627854 
L 278.159944 193.375412 
L 273.394872 191.92571 
L 268.867028 190.30256 
L 264.616484 188.534831 
L 260.671458 186.654298 
L 257.048518 184.693601 
L 253.753547 182.684485 
L 250.783239 180.656434 
L 247.308491 177.967787 
L 244.351211 175.34356 
L 241.860901 172.82319 
L 239.782493 170.434428 
L 237.679833 167.659482 
L 236.033531 165.133445 
L 234.535283 162.432247 
L 233.28529 159.714683 
L 232.229166 156.838041 
L 231.472252 154.114711 
L 230.936312 151.337694 
L 230.633724 148.562004 
L 230.557624 146.391189 
L 230.557624 146.391189 
" style="fill:none;stroke:#14cc2b;stroke-dasharray:6.000000,6.000000;stroke-dashoffset:0.0;"/>
   </g>
   <g id="line2d_38">
    <path clip-path="url(#p2c7de3eb93)" d="M 422.730162 146.427665 
L 422.612049 149.466614 
L 422.284271 152.443707 
L 421.709804 155.578719 
L 420.961823 158.490619 
L 419.990196 161.435483 
L 418.719931 164.549148 
L 417.185096 167.671245 
L 415.482941 170.620408 
L 413.769829 173.216903 
L 411.675986 176.025513 
L 409.129189 179.039752 
L 406.874086 181.425951 
L 404.283707 183.907322 
L 401.321531 186.467575 
L 397.951532 189.084979 
L 394.139873 191.731806 
L 389.857022 194.373984 
L 385.080265 196.971091 
L 379.796478 199.4768 
L 375.991344 201.071358 
L 371.963689 202.586539 
L 367.720238 204.00592 
L 363.271235 205.313067 
L 358.630565 206.491923 
L 353.815778 207.527229 
L 348.847966 208.404969 
L 343.751505 209.112796 
L 338.553658 209.640444 
L 333.284043 209.980075 
L 327.973986 210.126561 
L 322.65579 210.07767 
L 317.361958 209.834149 
L 312.124402 209.399693 
L 306.97368 208.780816 
L 301.938304 207.986611 
L 297.044155 207.02843 
L 292.314008 205.919509 
L 287.767205 204.67454 
L 283.419472 203.309235 
L 279.282863 201.839892 
L 275.36584 200.282985 
L 269.912199 197.818925 
L 264.967333 195.246868 
L 260.521956 192.614916 
L 256.556232 189.965536 
L 253.042608 187.334934 
L 249.948425 184.75293 
L 247.238177 182.243199 
L 244.158666 179.039752 
L 241.611868 176.025513 
L 239.518025 173.216903 
L 237.428471 170.004456 
L 235.812216 167.12003 
L 234.356162 164.070802 
L 233.152045 161.0335 
L 232.142158 157.845078 
L 231.422554 154.84612 
L 230.915122 151.802178 
L 230.62552 148.701422 
L 230.557692 146.427665 
L 230.557692 146.427665 
" style="fill:none;stroke:#1427cc;stroke-dasharray:1.000000,3.000000;stroke-dashoffset:0.0;"/>
   </g>
   <g id="line2d_39">
    <path clip-path="url(#p2c7de3eb93)" d="M 422.730354 146.3 
L 422.343448 138.202963 
L 421.184288 130.13853 
L 419.257541 122.139173 
L 416.570965 114.237103 
L 413.135379 106.46414 
L 408.964616 98.851581 
L 404.07547 91.43008 
L 398.487629 84.229521 
L 392.223593 77.278898 
L 385.308584 70.606199 
L 377.770447 64.238292 
L 369.639536 58.200818 
L 360.94859 52.518089 
L 351.732606 47.212987 
L 342.028692 42.306872 
L 331.875923 37.819502 
L 321.31518 33.768944 
L 310.388989 30.171509 
L 299.141344 27.041682 
L 287.617536 24.392067 
L 275.863968 22.233332 
L 263.927966 20.574169 
L 251.857593 19.42126 
L 239.701453 18.779247 
L 227.508492 18.650715 
L 215.32781 19.036182 
L 203.208451 19.934095 
L 191.199218 21.340839 
L 179.348467 23.250749 
L 167.703916 25.656136 
L 156.312454 28.547312 
L 145.219952 31.912637 
L 134.471073 35.73856 
L 124.1091 40.009675 
L 114.175758 44.708783 
L 104.711044 49.816963 
L 95.753069 55.313646 
L 87.337903 61.176699 
L 79.499433 67.382514 
L 72.26922 73.906102 
L 65.676379 80.721194 
L 59.747455 87.800349 
L 54.506323 95.115061 
L 49.974087 102.635877 
L 46.168997 110.332513 
L 43.106374 118.173978 
L 40.79855 126.128696 
L 39.254819 134.164637 
L 38.481397 142.249442 
L 38.481397 150.350558 
L 39.254819 158.435363 
L 40.79855 166.471304 
L 43.106374 174.426022 
L 46.168997 182.267487 
L 49.974087 189.964123 
L 54.506323 197.484939 
L 59.747455 204.799651 
L 65.676379 211.878806 
L 72.26922 218.693898 
L 79.499433 225.217486 
L 87.337903 231.423301 
L 95.753069 237.286354 
L 104.711044 242.783037 
L 114.175758 247.891217 
L 124.1091 252.590325 
L 134.471073 256.86144 
L 145.219952 260.687363 
L 156.312454 264.052688 
L 167.703916 266.943864 
L 179.348467 269.349251 
L 191.199218 271.259161 
L 203.208451 272.665905 
L 215.32781 273.563818 
L 227.508492 273.949285 
L 239.701453 273.820753 
L 251.857593 273.17874 
L 263.927966 272.025831 
L 275.863968 270.366668 
L 287.617536 268.207933 
L 299.141344 265.558318 
L 310.388989 262.428491 
L 321.31518 258.831056 
L 331.875923 254.780498 
L 342.028692 250.293128 
L 351.732606 245.387013 
L 360.94859 240.081911 
L 369.639536 234.399182 
L 377.770447 228.361708 
L 385.308584 221.993801 
L 392.223593 215.321102 
L 398.487629 208.370479 
L 404.07547 201.16992 
L 408.964616 193.748419 
L 413.135379 186.13586 
L 416.570965 178.362897 
L 419.257541 170.460827 
L 421.184288 162.46147 
L 422.343448 154.397037 
L 422.730354 146.3 
" style="fill:none;stroke:#000000;stroke-dasharray:6.000000,6.000000;stroke-dashoffset:0.0;"/>
   </g>
   <g id="line2d_40">
    <path clip-path="url(#p2c7de3eb93)" d="M 230.5575 146.3 
L 230.170594 138.202963 
L 229.011433 130.13853 
L 227.084686 122.139173 
L 224.39811 114.237103 
L 220.962524 106.46414 
L 216.791761 98.851581 
L 211.902616 91.43008 
L 206.314775 84.229521 
L 200.050738 77.278898 
L 193.13573 70.606199 
L 185.597593 64.238292 
L 177.466682 58.200818 
L 168.775736 52.518089 
L 159.559752 47.212987 
L 149.855838 42.306872 
L 139.703069 37.819502 
L 129.142326 33.768944 
L 118.216134 30.171509 
L 106.96849 27.041682 
L 95.444682 24.392067 
L 83.691113 22.233332 
L 71.755112 20.574169 
L 59.684739 19.42126 
L 47.528598 18.779247 
L 35.335638 18.650715 
L 23.154955 19.036182 
L 11.035597 19.934095 
L -0.973636 21.340839 
L -1 21.345088 
M -1 271.254912 
L -0.973636 271.259161 
L 11.035597 272.665905 
L 23.154955 273.563818 
L 35.335638 273.949285 
L 47.528598 273.820753 
L 59.684739 273.17874 
L 71.755112 272.025831 
L 83.691113 270.366668 
L 95.444682 268.207933 
L 106.96849 265.558318 
L 118.216134 262.428491 
L 129.142326 258.831056 
L 139.703069 254.780498 
L 149.855838 250.293128 
L 159.559752 245.387013 
L 168.775736 240.081911 
L 177.466682 234.399182 
L 185.597593 228.361708 
L 193.13573 221.993801 
L 200.050738 215.321102 
L 206.314775 208.370479 
L 211.902616 201.16992 
L 216.791761 193.748419 
L 220.962524 186.13586 
L 224.39811 178.362897 
L 227.084686 170.460827 
L 229.011433 162.46147 
L 230.170594 154.397037 
L 230.5575 146.3 
" style="fill:none;stroke:#ff0000;stroke-dasharray:6.000000,6.000000;stroke-dashoffset:0.0;"/>
   </g>
   <g id="legend_1">
    <g id="patch_7">
     <path d="M 276.010354 125.504646 
L 418.730354 125.504646 
L 418.730354 22.634646 
L 276.010354 22.634646 
z
" style="fill:#ffffff;stroke:#000000;stroke-linejoin:miter;"/>
    </g>
    <g id="line2d_41">
     <path d="M 281.610354 29.113396 
L 292.810354 29.113396 
" style="fill:none;stroke:#cc1414;stroke-linecap:round;"/>
    </g>
    <g id="line2d_42"/>
    <g id="text_13">
     <!-- $k_p = -1.0, \quad k_i = 0.0, \quad k_d = 0.0$ -->
     <defs>
      <path d="M 9.28125 0 
L 9.28125 3.515625 
Q 21.78125 3.515625 21.78125 6.6875 
L 21.78125 59.1875 
Q 16.609375 56.6875 8.6875 56.6875 
L 8.6875 60.203125 
Q 20.953125 60.203125 27.203125 66.609375 
L 28.609375 66.609375 
Q 28.953125 66.609375 29.265625 66.328125 
Q 29.59375 66.0625 29.59375 65.71875 
L 29.59375 6.6875 
Q 29.59375 3.515625 42.09375 3.515625 
L 42.09375 0 
z
" id="Cmr10-31"/>
      <path d="M 10.203125 23 
Q 9.375 23 8.828125 23.625 
Q 8.296875 24.265625 8.296875 25 
Q 8.296875 25.734375 8.828125 26.359375 
Q 9.375 27 10.203125 27 
L 67.578125 27 
Q 68.359375 27 68.875 26.359375 
Q 69.390625 25.734375 69.390625 25 
Q 69.390625 24.265625 68.875 23.625 
Q 68.359375 23 67.578125 23 
z
" id="Cmsy10-a1"/>
      <path d="M -2.484375 -19.390625 
Q -3.421875 -19.390625 -3.421875 -18.109375 
Q -3.078125 -15.921875 -2.09375 -15.921875 
Q 1.03125 -15.921875 2.265625 -15.359375 
Q 3.515625 -14.796875 4.203125 -12.5 
L 15.484375 32.515625 
Q 16.21875 34.375 16.21875 37.3125 
Q 16.21875 41.609375 13.28125 41.609375 
Q 10.15625 41.609375 8.640625 37.859375 
Q 7.125 34.125 5.71875 28.421875 
Q 5.71875 27.78125 4.890625 27.78125 
L 3.71875 27.78125 
Q 3.46875 27.78125 3.171875 28.140625 
Q 2.875 28.515625 2.875 28.8125 
Q 3.953125 33.15625 4.953125 36.171875 
Q 5.953125 39.203125 8.078125 41.6875 
Q 10.203125 44.1875 13.375 44.1875 
Q 16.796875 44.1875 19.375 42.25 
Q 21.96875 40.328125 22.703125 37.015625 
Q 25.4375 40.1875 28.75 42.1875 
Q 32.078125 44.1875 35.59375 44.1875 
Q 39.796875 44.1875 42.890625 41.9375 
Q 46 39.703125 47.5625 36.0625 
Q 49.125 32.421875 49.125 28.21875 
Q 49.125 21.78125 45.828125 14.890625 
Q 42.53125 8.015625 36.890625 3.4375 
Q 31.25 -1.125 24.8125 -1.125 
Q 21.875 -1.125 19.5 0.53125 
Q 17.140625 2.203125 15.828125 4.890625 
L 11.28125 -12.890625 
Q 11.03125 -14.359375 10.984375 -14.59375 
Q 10.984375 -15.921875 17.578125 -15.921875 
Q 18.609375 -15.921875 18.609375 -17.1875 
Q 18.265625 -18.5 18.046875 -18.9375 
Q 17.828125 -19.390625 16.890625 -19.390625 
z
M 24.90625 1.515625 
Q 28.375 1.515625 31.34375 4.375 
Q 34.328125 7.234375 36.1875 10.796875 
Q 37.546875 13.484375 38.734375 17.359375 
Q 39.9375 21.234375 40.8125 25.625 
Q 41.703125 30.03125 41.703125 32.625 
Q 41.703125 34.90625 41.09375 36.90625 
Q 40.484375 38.921875 39.09375 40.265625 
Q 37.703125 41.609375 35.40625 41.609375 
Q 31.734375 41.609375 28.484375 38.984375 
Q 25.25 36.375 22.609375 32.515625 
L 22.609375 32.171875 
L 17.09375 10.109375 
Q 17.78125 6.546875 19.734375 4.03125 
Q 21.6875 1.515625 24.90625 1.515625 
" id="Cmmi10-70"/>
      <path d="M 5.328125 1.8125 
Q 5.328125 2.390625 5.421875 2.6875 
L 19.921875 60.5 
Q 20.3125 62.203125 20.40625 63.1875 
Q 20.40625 64.796875 13.921875 64.796875 
Q 12.890625 64.796875 12.890625 66.109375 
Q 12.9375 66.359375 13.109375 66.984375 
Q 13.28125 67.625 13.546875 67.96875 
Q 13.8125 68.3125 14.3125 68.3125 
L 27.78125 69.390625 
L 28.078125 69.390625 
Q 28.078125 69.28125 28.421875 69.109375 
Q 28.765625 68.953125 28.8125 68.890625 
Q 29 68.40625 29 68.109375 
L 18.5 26.3125 
Q 22.125 27.828125 27.609375 33.515625 
Q 33.109375 39.203125 36.203125 41.6875 
Q 39.3125 44.1875 44 44.1875 
Q 46.78125 44.1875 48.734375 42.28125 
Q 50.6875 40.375 50.6875 37.59375 
Q 50.6875 35.84375 49.953125 34.34375 
Q 49.21875 32.859375 47.890625 31.921875 
Q 46.578125 31 44.828125 31 
Q 43.21875 31 42.109375 32 
Q 41.015625 33.015625 41.015625 34.625 
Q 41.015625 37.015625 42.703125 38.640625 
Q 44.390625 40.28125 46.78125 40.28125 
Q 45.796875 41.609375 43.796875 41.609375 
Q 40.828125 41.609375 38.0625 39.890625 
Q 35.296875 38.1875 32.09375 34.984375 
Q 28.90625 31.78125 26.265625 29.125 
Q 23.640625 26.46875 21.390625 25.09375 
Q 27.296875 24.421875 31.640625 22 
Q 35.984375 19.578125 35.984375 14.59375 
Q 35.984375 13.578125 35.59375 12.015625 
Q 34.71875 8.25 34.71875 6 
Q 34.71875 1.515625 37.796875 1.515625 
Q 41.40625 1.515625 43.28125 5.46875 
Q 45.171875 9.421875 46.390625 14.703125 
Q 46.578125 15.28125 47.21875 15.28125 
L 48.390625 15.28125 
Q 48.78125 15.28125 49.046875 15.03125 
Q 49.3125 14.796875 49.3125 14.40625 
Q 49.3125 14.3125 49.21875 14.109375 
Q 45.453125 -1.125 37.59375 -1.125 
Q 34.765625 -1.125 32.59375 0.1875 
Q 30.421875 1.515625 29.25 3.78125 
Q 28.078125 6.0625 28.078125 8.890625 
Q 28.078125 10.5 28.515625 12.203125 
Q 28.8125 13.375 28.8125 14.40625 
Q 28.8125 18.265625 25.390625 20.265625 
Q 21.96875 22.265625 17.578125 22.703125 
L 12.5 2.296875 
Q 12.109375 0.78125 10.984375 -0.171875 
Q 9.859375 -1.125 8.40625 -1.125 
Q 7.125 -1.125 6.21875 -0.265625 
Q 5.328125 0.59375 5.328125 1.8125 
" id="Cmmi10-6b"/>
      <path d="M 17.390625 -1.125 
Q 11.078125 -1.125 7.4375 3.640625 
Q 3.8125 8.40625 3.8125 14.890625 
Q 3.8125 21.296875 7.125 28.171875 
Q 10.453125 35.0625 16.09375 39.625 
Q 21.734375 44.1875 28.21875 44.1875 
Q 31.15625 44.1875 33.515625 42.546875 
Q 35.890625 40.921875 37.203125 38.1875 
L 42.828125 60.5 
Q 43.21875 62.203125 43.3125 63.1875 
Q 43.3125 64.796875 36.8125 64.796875 
Q 35.796875 64.796875 35.796875 66.109375 
Q 35.84375 66.359375 36.015625 66.984375 
Q 36.1875 67.625 36.453125 67.96875 
Q 36.71875 68.3125 37.203125 68.3125 
L 50.6875 69.390625 
Q 51.90625 69.390625 51.90625 68.109375 
L 37.5 10.59375 
Q 36.8125 8.9375 36.8125 5.8125 
Q 36.8125 1.515625 39.703125 1.515625 
Q 42.828125 1.515625 44.453125 5.484375 
Q 46.09375 9.46875 47.21875 14.703125 
Q 47.40625 15.28125 48 15.28125 
L 49.21875 15.28125 
Q 49.609375 15.28125 49.84375 14.9375 
Q 50.09375 14.59375 50.09375 14.3125 
Q 48.34375 7.328125 46.265625 3.09375 
Q 44.1875 -1.125 39.5 -1.125 
Q 36.140625 -1.125 33.546875 0.84375 
Q 30.953125 2.828125 30.328125 6.109375 
Q 23.875 -1.125 17.390625 -1.125 
M 17.484375 1.515625 
Q 21.09375 1.515625 24.484375 4.21875 
Q 27.875 6.9375 30.328125 10.59375 
Q 30.421875 10.6875 30.421875 10.984375 
L 35.890625 33.015625 
Q 35.296875 36.53125 33.296875 39.0625 
Q 31.296875 41.609375 27.984375 41.609375 
Q 24.609375 41.609375 21.703125 38.84375 
Q 18.796875 36.078125 16.796875 32.328125 
Q 14.84375 28.328125 13.0625 21.34375 
Q 11.28125 14.359375 11.28125 10.5 
Q 11.28125 7.03125 12.765625 4.265625 
Q 14.265625 1.515625 17.484375 1.515625 
" id="Cmmi10-64"/>
      <path d="M 7.515625 13.28125 
Q 6.6875 13.28125 6.140625 13.90625 
Q 5.609375 14.546875 5.609375 15.28125 
Q 5.609375 16.109375 6.140625 16.6875 
Q 6.6875 17.28125 7.515625 17.28125 
L 70.3125 17.28125 
Q 71.046875 17.28125 71.578125 16.6875 
Q 72.125 16.109375 72.125 15.28125 
Q 72.125 14.546875 71.578125 13.90625 
Q 71.046875 13.28125 70.3125 13.28125 
z
M 7.515625 32.71875 
Q 6.6875 32.71875 6.140625 33.296875 
Q 5.609375 33.890625 5.609375 34.71875 
Q 5.609375 35.453125 6.140625 36.078125 
Q 6.6875 36.71875 7.515625 36.71875 
L 70.3125 36.71875 
Q 71.046875 36.71875 71.578125 36.078125 
Q 72.125 35.453125 72.125 34.71875 
Q 72.125 33.890625 71.578125 33.296875 
Q 71.046875 32.71875 70.3125 32.71875 
z
" id="Cmr10-3d"/>
      <path d="M 7.8125 7.171875 
Q 7.8125 9.03125 8.59375 11.078125 
L 16.703125 32.625 
Q 18.015625 36.28125 18.015625 38.625 
Q 18.015625 41.609375 15.828125 41.609375 
Q 11.859375 41.609375 9.296875 37.53125 
Q 6.734375 33.453125 5.515625 28.421875 
Q 5.328125 27.78125 4.6875 27.78125 
L 3.515625 27.78125 
Q 2.6875 27.78125 2.6875 28.71875 
L 2.6875 29 
Q 4.296875 34.96875 7.609375 39.578125 
Q 10.9375 44.1875 16.015625 44.1875 
Q 19.578125 44.1875 22.046875 41.84375 
Q 24.515625 39.5 24.515625 35.890625 
Q 24.515625 34.03125 23.6875 31.984375 
L 15.578125 10.5 
Q 14.203125 7.171875 14.203125 4.5 
Q 14.203125 1.515625 16.5 1.515625 
Q 20.40625 1.515625 23.015625 5.6875 
Q 25.640625 9.859375 26.703125 14.703125 
Q 26.90625 15.28125 27.484375 15.28125 
L 28.71875 15.28125 
Q 29.109375 15.28125 29.34375 15.015625 
Q 29.59375 14.75 29.59375 14.40625 
Q 29.59375 14.3125 29.5 14.109375 
Q 28.125 8.453125 24.734375 3.65625 
Q 21.34375 -1.125 16.3125 -1.125 
Q 12.796875 -1.125 10.296875 1.296875 
Q 7.8125 3.71875 7.8125 7.171875 
M 19.09375 60.59375 
Q 19.09375 62.703125 20.84375 64.40625 
Q 22.609375 66.109375 24.703125 66.109375 
Q 26.421875 66.109375 27.515625 65.0625 
Q 28.609375 64.015625 28.609375 62.40625 
Q 28.609375 60.15625 26.828125 58.46875 
Q 25.046875 56.78125 22.90625 56.78125 
Q 21.296875 56.78125 20.1875 57.875 
Q 19.09375 58.984375 19.09375 60.59375 
" id="Cmmi10-69"/>
      <path d="M 25 -2.203125 
Q 12.75 -2.203125 8.328125 7.875 
Q 3.90625 17.96875 3.90625 31.890625 
Q 3.90625 40.578125 5.484375 48.234375 
Q 7.078125 55.90625 11.78125 61.25 
Q 16.5 66.609375 25 66.609375 
Q 31.59375 66.609375 35.78125 63.375 
Q 39.984375 60.15625 42.1875 55.046875 
Q 44.390625 49.953125 45.1875 44.109375 
Q 46 38.28125 46 31.890625 
Q 46 23.296875 44.40625 15.796875 
Q 42.828125 8.296875 38.1875 3.046875 
Q 33.546875 -2.203125 25 -2.203125 
M 25 0.390625 
Q 30.5625 0.390625 33.296875 6.09375 
Q 36.03125 11.8125 36.671875 18.75 
Q 37.3125 25.6875 37.3125 33.5 
Q 37.3125 41.015625 36.671875 47.359375 
Q 36.03125 53.71875 33.3125 58.859375 
Q 30.609375 64.015625 25 64.015625 
Q 19.34375 64.015625 16.609375 58.828125 
Q 13.875 53.65625 13.234375 47.328125 
Q 12.59375 41.015625 12.59375 33.5 
Q 12.59375 27.9375 12.859375 23 
Q 13.140625 18.0625 14.3125 12.8125 
Q 15.484375 7.5625 18.09375 3.96875 
Q 20.703125 0.390625 25 0.390625 
" id="Cmr10-30"/>
      <path d="M 9.90625 -18.015625 
Q 9.90625 -17.578125 10.296875 -17.1875 
Q 13.921875 -13.71875 15.921875 -9.171875 
Q 17.921875 -4.640625 17.921875 0.390625 
L 17.921875 1.609375 
Q 16.3125 0 13.921875 0 
Q 11.625 0 10.015625 1.609375 
Q 8.40625 3.21875 8.40625 5.515625 
Q 8.40625 7.859375 10.015625 9.421875 
Q 11.625 10.984375 13.921875 10.984375 
Q 17.484375 10.984375 19 7.6875 
Q 20.515625 4.390625 20.515625 0.390625 
Q 20.515625 -5.171875 18.28125 -10.171875 
Q 16.0625 -15.1875 12.015625 -19.1875 
Q 11.625 -19.390625 11.375 -19.390625 
Q 10.890625 -19.390625 10.390625 -18.9375 
Q 9.90625 -18.5 9.90625 -18.015625 
" id="Cmmi10-3b"/>
      <path d="M 8.40625 5.515625 
Q 8.40625 7.765625 10.0625 9.375 
Q 11.71875 10.984375 13.921875 10.984375 
Q 15.28125 10.984375 16.59375 10.25 
Q 17.921875 9.515625 18.65625 8.203125 
Q 19.390625 6.890625 19.390625 5.515625 
Q 19.390625 3.328125 17.765625 1.65625 
Q 16.15625 0 13.921875 0 
Q 11.71875 0 10.0625 1.65625 
Q 8.40625 3.328125 8.40625 5.515625 
" id="Cmmi10-3a"/>
     </defs>
     <g transform="translate(301.610354331 31.9133956693)scale(0.08 -0.08)">
      <use transform="translate(0.0 0.609375)" xlink:href="#Cmmi10-6b"/>
      <use transform="translate(52.001953125 -16.396875)scale(0.7)" xlink:href="#Cmmi10-70"/>
      <use transform="translate(111.14296875 0.609375)" xlink:href="#Cmr10-3d"/>
      <use transform="translate(223.945703125 0.609375)" xlink:href="#Cmsy10-a1"/>
      <use transform="translate(319.18984375 0.609375)" xlink:href="#Cmr10-31"/>
      <use transform="translate(369.18984375 0.609375)" xlink:href="#Cmmi10-3a"/>
      <use transform="translate(414.433984375 0.609375)" xlink:href="#Cmr10-30"/>
      <use transform="translate(464.433984375 0.609375)" xlink:href="#Cmmi10-3b"/>
      <use transform="translate(597.47109375 0.609375)" xlink:href="#Cmmi10-6b"/>
      <use transform="translate(649.473046875 -16.396875)scale(0.7)" xlink:href="#Cmmi10-69"/>
      <use transform="translate(697.505664063 0.609375)" xlink:href="#Cmr10-3d"/>
      <use transform="translate(792.749804688 0.609375)" xlink:href="#Cmr10-30"/>
      <use transform="translate(842.749804688 0.609375)" xlink:href="#Cmmi10-3a"/>
      <use transform="translate(887.993945313 0.609375)" xlink:href="#Cmr10-30"/>
      <use transform="translate(937.993945313 0.609375)" xlink:href="#Cmmi10-3b"/>
      <use transform="translate(1071.03105469 0.609375)" xlink:href="#Cmmi10-6b"/>
      <use transform="translate(1123.03300781 -16.396875)scale(0.7)" xlink:href="#Cmmi10-64"/>
      <use transform="translate(1183.3703125 0.609375)" xlink:href="#Cmr10-3d"/>
      <use transform="translate(1278.61445312 0.609375)" xlink:href="#Cmr10-30"/>
      <use transform="translate(1328.61445312 0.609375)" xlink:href="#Cmmi10-3a"/>
      <use transform="translate(1373.85859375 0.609375)" xlink:href="#Cmr10-30"/>
     </g>
    </g>
    <g id="line2d_43">
     <path d="M 281.610354 41.672146 
L 292.810354 41.672146 
" style="fill:none;stroke:#cc9e14;stroke-linecap:round;"/>
    </g>
    <g id="line2d_44"/>
    <g id="text_14">
     <!-- $k_p = -1.0, \quad k_i = 0.0, \quad k_d = 0.0$ -->
     <g transform="translate(301.610354331 44.4721456693)scale(0.08 -0.08)">
      <use transform="translate(0.0 0.609375)" xlink:href="#Cmmi10-6b"/>
      <use transform="translate(52.001953125 -16.396875)scale(0.7)" xlink:href="#Cmmi10-70"/>
      <use transform="translate(111.14296875 0.609375)" xlink:href="#Cmr10-3d"/>
      <use transform="translate(223.945703125 0.609375)" xlink:href="#Cmsy10-a1"/>
      <use transform="translate(319.18984375 0.609375)" xlink:href="#Cmr10-31"/>
      <use transform="translate(369.18984375 0.609375)" xlink:href="#Cmmi10-3a"/>
      <use transform="translate(414.433984375 0.609375)" xlink:href="#Cmr10-30"/>
      <use transform="translate(464.433984375 0.609375)" xlink:href="#Cmmi10-3b"/>
      <use transform="translate(597.47109375 0.609375)" xlink:href="#Cmmi10-6b"/>
      <use transform="translate(649.473046875 -16.396875)scale(0.7)" xlink:href="#Cmmi10-69"/>
      <use transform="translate(697.505664063 0.609375)" xlink:href="#Cmr10-3d"/>
      <use transform="translate(792.749804688 0.609375)" xlink:href="#Cmr10-30"/>
      <use transform="translate(842.749804688 0.609375)" xlink:href="#Cmmi10-3a"/>
      <use transform="translate(887.993945313 0.609375)" xlink:href="#Cmr10-30"/>
      <use transform="translate(937.993945313 0.609375)" xlink:href="#Cmmi10-3b"/>
      <use transform="translate(1071.03105469 0.609375)" xlink:href="#Cmmi10-6b"/>
      <use transform="translate(1123.03300781 -16.396875)scale(0.7)" xlink:href="#Cmmi10-64"/>
      <use transform="translate(1183.3703125 0.609375)" xlink:href="#Cmr10-3d"/>
      <use transform="translate(1278.61445312 0.609375)" xlink:href="#Cmr10-30"/>
      <use transform="translate(1328.61445312 0.609375)" xlink:href="#Cmmi10-3a"/>
      <use transform="translate(1373.85859375 0.609375)" xlink:href="#Cmr10-30"/>
     </g>
    </g>
    <g id="line2d_45">
     <path d="M 281.610354 54.230896 
L 292.810354 54.230896 
" style="fill:none;stroke:#14cc2b;stroke-linecap:round;"/>
    </g>
    <g id="line2d_46"/>
    <g id="text_15">
     <!-- $k_p = -1.0, \quad k_i = 0.0, \quad k_d = 0.0$ -->
     <g transform="translate(301.610354331 57.0308956693)scale(0.08 -0.08)">
      <use transform="translate(0.0 0.609375)" xlink:href="#Cmmi10-6b"/>
      <use transform="translate(52.001953125 -16.396875)scale(0.7)" xlink:href="#Cmmi10-70"/>
      <use transform="translate(111.14296875 0.609375)" xlink:href="#Cmr10-3d"/>
      <use transform="translate(223.945703125 0.609375)" xlink:href="#Cmsy10-a1"/>
      <use transform="translate(319.18984375 0.609375)" xlink:href="#Cmr10-31"/>
      <use transform="translate(369.18984375 0.609375)" xlink:href="#Cmmi10-3a"/>
      <use transform="translate(414.433984375 0.609375)" xlink:href="#Cmr10-30"/>
      <use transform="translate(464.433984375 0.609375)" xlink:href="#Cmmi10-3b"/>
      <use transform="translate(597.47109375 0.609375)" xlink:href="#Cmmi10-6b"/>
      <use transform="translate(649.473046875 -16.396875)scale(0.7)" xlink:href="#Cmmi10-69"/>
      <use transform="translate(697.505664063 0.609375)" xlink:href="#Cmr10-3d"/>
      <use transform="translate(792.749804688 0.609375)" xlink:href="#Cmr10-30"/>
      <use transform="translate(842.749804688 0.609375)" xlink:href="#Cmmi10-3a"/>
      <use transform="translate(887.993945313 0.609375)" xlink:href="#Cmr10-30"/>
      <use transform="translate(937.993945313 0.609375)" xlink:href="#Cmmi10-3b"/>
      <use transform="translate(1071.03105469 0.609375)" xlink:href="#Cmmi10-6b"/>
      <use transform="translate(1123.03300781 -16.396875)scale(0.7)" xlink:href="#Cmmi10-64"/>
      <use transform="translate(1183.3703125 0.609375)" xlink:href="#Cmr10-3d"/>
      <use transform="translate(1278.61445312 0.609375)" xlink:href="#Cmr10-30"/>
      <use transform="translate(1328.61445312 0.609375)" xlink:href="#Cmmi10-3a"/>
      <use transform="translate(1373.85859375 0.609375)" xlink:href="#Cmr10-30"/>
     </g>
    </g>
    <g id="line2d_47">
     <path d="M 281.610354 66.789646 
L 292.810354 66.789646 
" style="fill:none;stroke:#1427cc;stroke-dasharray:6.000000,6.000000;stroke-dashoffset:0.0;"/>
    </g>
    <g id="line2d_48"/>
    <g id="text_16">
     <!-- $k_p = -1.0, \quad k_i = 0.0, \quad k_d = 0.0$ -->
     <g transform="translate(301.610354331 69.5896456693)scale(0.08 -0.08)">
      <use transform="translate(0.0 0.609375)" xlink:href="#Cmmi10-6b"/>
      <use transform="translate(52.001953125 -16.396875)scale(0.7)" xlink:href="#Cmmi10-70"/>
      <use transform="translate(111.14296875 0.609375)" xlink:href="#Cmr10-3d"/>
      <use transform="translate(223.945703125 0.609375)" xlink:href="#Cmsy10-a1"/>
      <use transform="translate(319.18984375 0.609375)" xlink:href="#Cmr10-31"/>
      <use transform="translate(369.18984375 0.609375)" xlink:href="#Cmmi10-3a"/>
      <use transform="translate(414.433984375 0.609375)" xlink:href="#Cmr10-30"/>
      <use transform="translate(464.433984375 0.609375)" xlink:href="#Cmmi10-3b"/>
      <use transform="translate(597.47109375 0.609375)" xlink:href="#Cmmi10-6b"/>
      <use transform="translate(649.473046875 -16.396875)scale(0.7)" xlink:href="#Cmmi10-69"/>
      <use transform="translate(697.505664063 0.609375)" xlink:href="#Cmr10-3d"/>
      <use transform="translate(792.749804688 0.609375)" xlink:href="#Cmr10-30"/>
      <use transform="translate(842.749804688 0.609375)" xlink:href="#Cmmi10-3a"/>
      <use transform="translate(887.993945313 0.609375)" xlink:href="#Cmr10-30"/>
      <use transform="translate(937.993945313 0.609375)" xlink:href="#Cmmi10-3b"/>
      <use transform="translate(1071.03105469 0.609375)" xlink:href="#Cmmi10-6b"/>
      <use transform="translate(1123.03300781 -16.396875)scale(0.7)" xlink:href="#Cmmi10-64"/>
      <use transform="translate(1183.3703125 0.609375)" xlink:href="#Cmr10-3d"/>
      <use transform="translate(1278.61445312 0.609375)" xlink:href="#Cmr10-30"/>
      <use transform="translate(1328.61445312 0.609375)" xlink:href="#Cmmi10-3a"/>
      <use transform="translate(1373.85859375 0.609375)" xlink:href="#Cmr10-30"/>
     </g>
    </g>
    <g id="line2d_49">
     <path d="M 281.610354 79.348396 
L 292.810354 79.348396 
" style="fill:none;stroke:#cc1414;stroke-dasharray:6.000000,6.000000;stroke-dashoffset:0.0;"/>
    </g>
    <g id="line2d_50"/>
    <g id="text_17">
     <!-- $k_p = -1.0, \quad k_i = 0.0, \quad k_d = 0.0$ -->
     <g transform="translate(301.610354331 82.1483956693)scale(0.08 -0.08)">
      <use transform="translate(0.0 0.609375)" xlink:href="#Cmmi10-6b"/>
      <use transform="translate(52.001953125 -16.396875)scale(0.7)" xlink:href="#Cmmi10-70"/>
      <use transform="translate(111.14296875 0.609375)" xlink:href="#Cmr10-3d"/>
      <use transform="translate(223.945703125 0.609375)" xlink:href="#Cmsy10-a1"/>
      <use transform="translate(319.18984375 0.609375)" xlink:href="#Cmr10-31"/>
      <use transform="translate(369.18984375 0.609375)" xlink:href="#Cmmi10-3a"/>
      <use transform="translate(414.433984375 0.609375)" xlink:href="#Cmr10-30"/>
      <use transform="translate(464.433984375 0.609375)" xlink:href="#Cmmi10-3b"/>
      <use transform="translate(597.47109375 0.609375)" xlink:href="#Cmmi10-6b"/>
      <use transform="translate(649.473046875 -16.396875)scale(0.7)" xlink:href="#Cmmi10-69"/>
      <use transform="translate(697.505664063 0.609375)" xlink:href="#Cmr10-3d"/>
      <use transform="translate(792.749804688 0.609375)" xlink:href="#Cmr10-30"/>
      <use transform="translate(842.749804688 0.609375)" xlink:href="#Cmmi10-3a"/>
      <use transform="translate(887.993945313 0.609375)" xlink:href="#Cmr10-30"/>
      <use transform="translate(937.993945313 0.609375)" xlink:href="#Cmmi10-3b"/>
      <use transform="translate(1071.03105469 0.609375)" xlink:href="#Cmmi10-6b"/>
      <use transform="translate(1123.03300781 -16.396875)scale(0.7)" xlink:href="#Cmmi10-64"/>
      <use transform="translate(1183.3703125 0.609375)" xlink:href="#Cmr10-3d"/>
      <use transform="translate(1278.61445312 0.609375)" xlink:href="#Cmr10-30"/>
      <use transform="translate(1328.61445312 0.609375)" xlink:href="#Cmmi10-3a"/>
      <use transform="translate(1373.85859375 0.609375)" xlink:href="#Cmr10-30"/>
     </g>
    </g>
    <g id="line2d_51">
     <path d="M 281.610354 91.907146 
L 292.810354 91.907146 
" style="fill:none;stroke:#cc9e14;stroke-dasharray:6.000000,6.000000;stroke-dashoffset:0.0;"/>
    </g>
    <g id="line2d_52"/>
    <g id="text_18">
     <!-- $k_p = -1.0, \quad k_i = 0.0, \quad k_d = 0.0$ -->
     <g transform="translate(301.610354331 94.7071456693)scale(0.08 -0.08)">
      <use transform="translate(0.0 0.609375)" xlink:href="#Cmmi10-6b"/>
      <use transform="translate(52.001953125 -16.396875)scale(0.7)" xlink:href="#Cmmi10-70"/>
      <use transform="translate(111.14296875 0.609375)" xlink:href="#Cmr10-3d"/>
      <use transform="translate(223.945703125 0.609375)" xlink:href="#Cmsy10-a1"/>
      <use transform="translate(319.18984375 0.609375)" xlink:href="#Cmr10-31"/>
      <use transform="translate(369.18984375 0.609375)" xlink:href="#Cmmi10-3a"/>
      <use transform="translate(414.433984375 0.609375)" xlink:href="#Cmr10-30"/>
      <use transform="translate(464.433984375 0.609375)" xlink:href="#Cmmi10-3b"/>
      <use transform="translate(597.47109375 0.609375)" xlink:href="#Cmmi10-6b"/>
      <use transform="translate(649.473046875 -16.396875)scale(0.7)" xlink:href="#Cmmi10-69"/>
      <use transform="translate(697.505664063 0.609375)" xlink:href="#Cmr10-3d"/>
      <use transform="translate(792.749804688 0.609375)" xlink:href="#Cmr10-30"/>
      <use transform="translate(842.749804688 0.609375)" xlink:href="#Cmmi10-3a"/>
      <use transform="translate(887.993945313 0.609375)" xlink:href="#Cmr10-30"/>
      <use transform="translate(937.993945313 0.609375)" xlink:href="#Cmmi10-3b"/>
      <use transform="translate(1071.03105469 0.609375)" xlink:href="#Cmmi10-6b"/>
      <use transform="translate(1123.03300781 -16.396875)scale(0.7)" xlink:href="#Cmmi10-64"/>
      <use transform="translate(1183.3703125 0.609375)" xlink:href="#Cmr10-3d"/>
      <use transform="translate(1278.61445312 0.609375)" xlink:href="#Cmr10-30"/>
      <use transform="translate(1328.61445312 0.609375)" xlink:href="#Cmmi10-3a"/>
      <use transform="translate(1373.85859375 0.609375)" xlink:href="#Cmr10-30"/>
     </g>
    </g>
    <g id="line2d_53">
     <path d="M 281.610354 104.465896 
L 292.810354 104.465896 
" style="fill:none;stroke:#14cc2b;stroke-dasharray:6.000000,6.000000;stroke-dashoffset:0.0;"/>
    </g>
    <g id="line2d_54"/>
    <g id="text_19">
     <!-- $k_p = -1.0, \quad k_i = 0.0, \quad k_d = 0.0$ -->
     <g transform="translate(301.610354331 107.265895669)scale(0.08 -0.08)">
      <use transform="translate(0.0 0.609375)" xlink:href="#Cmmi10-6b"/>
      <use transform="translate(52.001953125 -16.396875)scale(0.7)" xlink:href="#Cmmi10-70"/>
      <use transform="translate(111.14296875 0.609375)" xlink:href="#Cmr10-3d"/>
      <use transform="translate(223.945703125 0.609375)" xlink:href="#Cmsy10-a1"/>
      <use transform="translate(319.18984375 0.609375)" xlink:href="#Cmr10-31"/>
      <use transform="translate(369.18984375 0.609375)" xlink:href="#Cmmi10-3a"/>
      <use transform="translate(414.433984375 0.609375)" xlink:href="#Cmr10-30"/>
      <use transform="translate(464.433984375 0.609375)" xlink:href="#Cmmi10-3b"/>
      <use transform="translate(597.47109375 0.609375)" xlink:href="#Cmmi10-6b"/>
      <use transform="translate(649.473046875 -16.396875)scale(0.7)" xlink:href="#Cmmi10-69"/>
      <use transform="translate(697.505664063 0.609375)" xlink:href="#Cmr10-3d"/>
      <use transform="translate(792.749804688 0.609375)" xlink:href="#Cmr10-30"/>
      <use transform="translate(842.749804688 0.609375)" xlink:href="#Cmmi10-3a"/>
      <use transform="translate(887.993945313 0.609375)" xlink:href="#Cmr10-30"/>
      <use transform="translate(937.993945313 0.609375)" xlink:href="#Cmmi10-3b"/>
      <use transform="translate(1071.03105469 0.609375)" xlink:href="#Cmmi10-6b"/>
      <use transform="translate(1123.03300781 -16.396875)scale(0.7)" xlink:href="#Cmmi10-64"/>
      <use transform="translate(1183.3703125 0.609375)" xlink:href="#Cmr10-3d"/>
      <use transform="translate(1278.61445312 0.609375)" xlink:href="#Cmr10-30"/>
      <use transform="translate(1328.61445312 0.609375)" xlink:href="#Cmmi10-3a"/>
      <use transform="translate(1373.85859375 0.609375)" xlink:href="#Cmr10-30"/>
     </g>
    </g>
    <g id="line2d_55">
     <path d="M 281.610354 117.024646 
L 292.810354 117.024646 
" style="fill:none;stroke:#1427cc;stroke-dasharray:1.000000,3.000000;stroke-dashoffset:0.0;"/>
    </g>
    <g id="line2d_56"/>
    <g id="text_20">
     <!-- $k_p = -1.0, \quad k_i = 0.0, \quad k_d = 0.0$ -->
     <g transform="translate(301.610354331 119.824645669)scale(0.08 -0.08)">
      <use transform="translate(0.0 0.609375)" xlink:href="#Cmmi10-6b"/>
      <use transform="translate(52.001953125 -16.396875)scale(0.7)" xlink:href="#Cmmi10-70"/>
      <use transform="translate(111.14296875 0.609375)" xlink:href="#Cmr10-3d"/>
      <use transform="translate(223.945703125 0.609375)" xlink:href="#Cmsy10-a1"/>
      <use transform="translate(319.18984375 0.609375)" xlink:href="#Cmr10-31"/>
      <use transform="translate(369.18984375 0.609375)" xlink:href="#Cmmi10-3a"/>
      <use transform="translate(414.433984375 0.609375)" xlink:href="#Cmr10-30"/>
      <use transform="translate(464.433984375 0.609375)" xlink:href="#Cmmi10-3b"/>
      <use transform="translate(597.47109375 0.609375)" xlink:href="#Cmmi10-6b"/>
      <use transform="translate(649.473046875 -16.396875)scale(0.7)" xlink:href="#Cmmi10-69"/>
      <use transform="translate(697.505664063 0.609375)" xlink:href="#Cmr10-3d"/>
      <use transform="translate(792.749804688 0.609375)" xlink:href="#Cmr10-30"/>
      <use transform="translate(842.749804688 0.609375)" xlink:href="#Cmmi10-3a"/>
      <use transform="translate(887.993945313 0.609375)" xlink:href="#Cmr10-30"/>
      <use transform="translate(937.993945313 0.609375)" xlink:href="#Cmmi10-3b"/>
      <use transform="translate(1071.03105469 0.609375)" xlink:href="#Cmmi10-6b"/>
      <use transform="translate(1123.03300781 -16.396875)scale(0.7)" xlink:href="#Cmmi10-64"/>
      <use transform="translate(1183.3703125 0.609375)" xlink:href="#Cmr10-3d"/>
      <use transform="translate(1278.61445312 0.609375)" xlink:href="#Cmr10-30"/>
      <use transform="translate(1328.61445312 0.609375)" xlink:href="#Cmmi10-3a"/>
      <use transform="translate(1373.85859375 0.609375)" xlink:href="#Cmr10-30"/>
     </g>
    </g>
   </g>
  </g>
 </g>
 <defs>
  <clipPath id="p2c7de3eb93">
   <rect height="255.330708661" width="384.345708661" x="38.3846456693" y="18.6346456693"/>
  </clipPath>
 </defs>
</svg>
