<?xml version="1.0" encoding="utf-8"?>
<svg xmlns="http://www.w3.org/2000/svg" xmlns:xlink="http://www.w3.org/1999/xlink" width="600" height="400" viewBox="0 0 600 400">
<defs>
  <clipPath id="clip8600">
    <rect x="0" y="0" width="600" height="400"/>
  </clipPath>
</defs>
<polygon clip-path="url(#clip8600)" points="
0,400 600,400 600,0 0,0 
  " fill="#ffffff" fill-opacity="1"/>
<defs>
  <clipPath id="clip8601">
    <rect x="120" y="0" width="421" height="400"/>
  </clipPath>
</defs>
<polygon clip-path="url(#clip8600)" points="
23.622,384.252 580.315,384.252 580.315,31.4961 23.622,31.4961 
  " fill="#ffffff" fill-opacity="1"/>
<defs>
  <clipPath id="clip8602">
    <rect x="23" y="31" width="558" height="354"/>
  </clipPath>
</defs>
<polyline clip-path="url(#clip8602)" style="stroke:#000000; stroke-width:0.5; stroke-opacity:0.1; fill:none" points="
  34.0737,384.252 34.0737,31.4961 
  "/>
<polyline clip-path="url(#clip8602)" style="stroke:#000000; stroke-width:0.5; stroke-opacity:0.1; fill:none" points="
  166.682,384.252 166.682,31.4961 
  "/>
<polyline clip-path="url(#clip8602)" style="stroke:#000000; stroke-width:0.5; stroke-opacity:0.1; fill:none" points="
  299.29,384.252 299.29,31.4961 
  "/>
<polyline clip-path="url(#clip8602)" style="stroke:#000000; stroke-width:0.5; stroke-opacity:0.1; fill:none" points="
  431.898,384.252 431.898,31.4961 
  "/>
<polyline clip-path="url(#clip8602)" style="stroke:#000000; stroke-width:0.5; stroke-opacity:0.1; fill:none" points="
  564.506,384.252 564.506,31.4961 
  "/>
<polyline clip-path="url(#clip8602)" style="stroke:#000000; stroke-width:0.5; stroke-opacity:0.1; fill:none" points="
  23.622,374.301 580.315,374.301 
  "/>
<polyline clip-path="url(#clip8602)" style="stroke:#000000; stroke-width:0.5; stroke-opacity:0.1; fill:none" points="
  23.622,291.096 580.315,291.096 
  "/>
<polyline clip-path="url(#clip8602)" style="stroke:#000000; stroke-width:0.5; stroke-opacity:0.1; fill:none" points="
  23.622,207.891 580.315,207.891 
  "/>
<polyline clip-path="url(#clip8602)" style="stroke:#000000; stroke-width:0.5; stroke-opacity:0.1; fill:none" points="
  23.622,124.685 580.315,124.685 
  "/>
<polyline clip-path="url(#clip8602)" style="stroke:#000000; stroke-width:0.5; stroke-opacity:0.1; fill:none" points="
  23.622,41.4801 580.315,41.4801 
  "/>
<polyline clip-path="url(#clip8600)" style="stroke:#000000; stroke-width:1; stroke-opacity:1; fill:none" points="
  23.622,384.252 580.315,384.252 
  "/>
<polyline clip-path="url(#clip8600)" style="stroke:#000000; stroke-width:1; stroke-opacity:1; fill:none" points="
  23.622,384.252 23.622,31.4961 
  "/>
<polyline clip-path="url(#clip8600)" style="stroke:#000000; stroke-width:1; stroke-opacity:1; fill:none" points="
  34.0737,384.252 34.0737,378.961 
  "/>
<polyline clip-path="url(#clip8600)" style="stroke:#000000; stroke-width:1; stroke-opacity:1; fill:none" points="
  166.682,384.252 166.682,378.961 
  "/>
<polyline clip-path="url(#clip8600)" style="stroke:#000000; stroke-width:1; stroke-opacity:1; fill:none" points="
  299.29,384.252 299.29,378.961 
  "/>
<polyline clip-path="url(#clip8600)" style="stroke:#000000; stroke-width:1; stroke-opacity:1; fill:none" points="
  431.898,384.252 431.898,378.961 
  "/>
<polyline clip-path="url(#clip8600)" style="stroke:#000000; stroke-width:1; stroke-opacity:1; fill:none" points="
  564.506,384.252 564.506,378.961 
  "/>
<polyline clip-path="url(#clip8600)" style="stroke:#000000; stroke-width:1; stroke-opacity:1; fill:none" points="
  23.622,374.301 31.9724,374.301 
  "/>
<polyline clip-path="url(#clip8600)" style="stroke:#000000; stroke-width:1; stroke-opacity:1; fill:none" points="
  23.622,291.096 31.9724,291.096 
  "/>
<polyline clip-path="url(#clip8600)" style="stroke:#000000; stroke-width:1; stroke-opacity:1; fill:none" points="
  23.622,207.891 31.9724,207.891 
  "/>
<polyline clip-path="url(#clip8600)" style="stroke:#000000; stroke-width:1; stroke-opacity:1; fill:none" points="
  23.622,124.685 31.9724,124.685 
  "/>
<polyline clip-path="url(#clip8600)" style="stroke:#000000; stroke-width:1; stroke-opacity:1; fill:none" points="
  23.622,41.4801 31.9724,41.4801 
  "/>
<g clip-path="url(#clip8600)">
<text style="fill:#000000; fill-opacity:1; font-family:Arial,Helvetica Neue,Helvetica,sans-serif; font-size:12; text-anchor:middle;" transform="rotate(0, 34.0737, 398.052)" x="34.0737" y="398.052">-10000</text>
</g>
<g clip-path="url(#clip8600)">
<text style="fill:#000000; fill-opacity:1; font-family:Arial,Helvetica Neue,Helvetica,sans-serif; font-size:12; text-anchor:middle;" transform="rotate(0, 166.682, 398.052)" x="166.682" y="398.052">-7500</text>
</g>
<g clip-path="url(#clip8600)">
<text style="fill:#000000; fill-opacity:1; font-family:Arial,Helvetica Neue,Helvetica,sans-serif; font-size:12; text-anchor:middle;" transform="rotate(0, 299.29, 398.052)" x="299.29" y="398.052">-5000</text>
</g>
<g clip-path="url(#clip8600)">
<text style="fill:#000000; fill-opacity:1; font-family:Arial,Helvetica Neue,Helvetica,sans-serif; font-size:12; text-anchor:middle;" transform="rotate(0, 431.898, 398.052)" x="431.898" y="398.052">-2500</text>
</g>
<g clip-path="url(#clip8600)">
<text style="fill:#000000; fill-opacity:1; font-family:Arial,Helvetica Neue,Helvetica,sans-serif; font-size:12; text-anchor:middle;" transform="rotate(0, 564.506, 398.052)" x="564.506" y="398.052">0</text>
</g>
<g clip-path="url(#clip8600)">
<text style="fill:#000000; fill-opacity:1; font-family:Arial,Helvetica Neue,Helvetica,sans-serif; font-size:12; text-anchor:start;" transform="rotate(0, -31.9767, 380.233)" x="-31.9767" y="380.233">-</text>
</g>
<g clip-path="url(#clip8600)">
<text style="fill:#000000; fill-opacity:1; font-family:Arial,Helvetica Neue,Helvetica,sans-serif; font-size:12; text-anchor:start;" transform="rotate(0, -24.9492, 380.233)" x="-24.9492" y="380.233">1.0×10</text>
</g>
<g clip-path="url(#clip8600)">
<text style="fill:#000000; fill-opacity:1; font-family:Arial,Helvetica Neue,Helvetica,sans-serif; font-size:10; text-anchor:start;" transform="rotate(0, 12.1859, 373.381)" x="12.1859" y="373.381">6</text>
</g>
<g clip-path="url(#clip8600)">
<text style="fill:#000000; fill-opacity:1; font-family:Arial,Helvetica Neue,Helvetica,sans-serif; font-size:12; text-anchor:start;" transform="rotate(0, -31.9767, 297.028)" x="-31.9767" y="297.028">-</text>
</g>
<g clip-path="url(#clip8600)">
<text style="fill:#000000; fill-opacity:1; font-family:Arial,Helvetica Neue,Helvetica,sans-serif; font-size:12; text-anchor:start;" transform="rotate(0, -24.9492, 297.028)" x="-24.9492" y="297.028">7.5×10</text>
</g>
<g clip-path="url(#clip8600)">
<text style="fill:#000000; fill-opacity:1; font-family:Arial,Helvetica Neue,Helvetica,sans-serif; font-size:10; text-anchor:start;" transform="rotate(0, 12.1859, 290.175)" x="12.1859" y="290.175">5</text>
</g>
<g clip-path="url(#clip8600)">
<text style="fill:#000000; fill-opacity:1; font-family:Arial,Helvetica Neue,Helvetica,sans-serif; font-size:12; text-anchor:start;" transform="rotate(0, -31.9767, 213.823)" x="-31.9767" y="213.823">-</text>
</g>
<g clip-path="url(#clip8600)">
<text style="fill:#000000; fill-opacity:1; font-family:Arial,Helvetica Neue,Helvetica,sans-serif; font-size:12; text-anchor:start;" transform="rotate(0, -24.9492, 213.823)" x="-24.9492" y="213.823">5.0×10</text>
</g>
<g clip-path="url(#clip8600)">
<text style="fill:#000000; fill-opacity:1; font-family:Arial,Helvetica Neue,Helvetica,sans-serif; font-size:10; text-anchor:start;" transform="rotate(0, 12.1859, 206.97)" x="12.1859" y="206.97">5</text>
</g>
<g clip-path="url(#clip8600)">
<text style="fill:#000000; fill-opacity:1; font-family:Arial,Helvetica Neue,Helvetica,sans-serif; font-size:12; text-anchor:start;" transform="rotate(0, -31.9767, 130.617)" x="-31.9767" y="130.617">-</text>
</g>
<g clip-path="url(#clip8600)">
<text style="fill:#000000; fill-opacity:1; font-family:Arial,Helvetica Neue,Helvetica,sans-serif; font-size:12; text-anchor:start;" transform="rotate(0, -24.9492, 130.617)" x="-24.9492" y="130.617">2.5×10</text>
</g>
<g clip-path="url(#clip8600)">
<text style="fill:#000000; fill-opacity:1; font-family:Arial,Helvetica Neue,Helvetica,sans-serif; font-size:10; text-anchor:start;" transform="rotate(0, 12.1859, 123.765)" x="12.1859" y="123.765">5</text>
</g>
<g clip-path="url(#clip8600)">
<text style="fill:#000000; fill-opacity:1; font-family:Arial,Helvetica Neue,Helvetica,sans-serif; font-size:12; text-anchor:end;" transform="rotate(0, 17.622, 45.9801)" x="17.622" y="45.9801">0</text>
</g>
<g clip-path="url(#clip8600)">
<text style="fill:#000000; fill-opacity:1; font-family:Arial,Helvetica Neue,Helvetica,sans-serif; font-size:21; text-anchor:middle;" transform="rotate(0, 301.969, 18)" x="301.969" y="18">Nyquist curves</text>
</g>
<polyline clip-path="url(#clip8602)" style="stroke:#cc1414; stroke-width:1; stroke-opacity:1; fill:none" points="
  564.458,41.4804 564.458,41.4804 564.458,41.4804 564.458,41.4804 564.458,41.4804 564.458,41.4804 564.458,41.4803 564.458,41.4803 564.458,41.4803 564.458,41.4803 
  564.458,41.4803 564.458,41.4803 564.458,41.4803 564.458,41.4803 564.458,41.4803 564.458,41.4803 564.458,41.4803 564.458,41.4803 564.458,41.4803 564.458,41.4803 
  564.458,41.4803 564.458,41.4803 564.458,41.4803 564.458,41.4803 564.458,41.4803 564.458,41.4803 564.458,41.4803 564.458,41.4803 564.458,41.4802 564.458,41.4802 
  564.458,41.4802 564.458,41.4802 564.458,41.4802 564.458,41.4802 564.458,41.4802 564.458,41.4802 564.458,41.4802 564.458,41.4802 564.458,41.4802 564.458,41.4802 
  564.458,41.4802 564.458,41.4802 564.458,41.4802 564.458,41.4802 564.458,41.4802 564.458,41.4802 564.458,41.4802 564.458,41.4802 564.458,41.4802 564.458,41.4802 
  564.458,41.4802 564.458,41.4802 564.458,41.4802 564.458,41.4802 564.458,41.4802 564.458,41.4802 564.458,41.4802 564.458,41.4802 564.458,41.4802 564.458,41.4802 
  564.458,41.4802 564.458,41.4802 564.458,41.4801 564.458,41.4801 564.458,41.4801 564.458,41.4801 564.458,41.4801 564.458,41.4801 564.458,41.4801 564.458,41.4801 
  564.458,41.4801 564.458,41.4801 564.458,41.4801 564.458,41.4801 564.458,41.4801 564.458,41.4801 564.458,41.4801 564.458,41.4801 564.458,41.4801 564.458,41.4801 
  564.458,41.4801 564.458,41.4801 564.458,41.4801 564.458,41.4801 564.458,41.4801 564.458,41.4801 564.458,41.4801 564.458,41.4801 564.458,41.4801 564.458,41.4801 
  564.458,41.4801 564.458,41.4801 564.458,41.4801 564.458,41.4801 564.458,41.4801 564.458,41.4801 564.458,41.4801 564.458,41.4801 564.458,41.4801 564.458,41.4801 
  564.458,41.4801 564.458,41.4801 564.458,41.4801 564.458,41.4801 564.458,41.4801 564.458,41.4801 564.458,41.4801 564.458,41.4801 564.458,41.4801 564.458,41.4801 
  564.458,41.4801 564.458,41.4801 564.458,41.4801 564.458,41.4801 564.459,41.4801 564.459,41.4801 564.459,41.4801 564.459,41.4801 564.459,41.4801 564.459,41.4801 
  564.459,41.4801 564.459,41.4801 564.459,41.4801 564.459,41.4801 564.459,41.4801 564.459,41.4801 564.459,41.4801 564.459,41.4801 564.459,41.4801 564.459,41.4801 
  564.459,41.4801 564.459,41.48 564.459,41.48 564.459,41.48 564.459,41.48 564.459,41.48 564.459,41.48 564.459,41.48 564.459,41.48 564.459,41.48 
  564.459,41.48 564.459,41.48 564.459,41.48 564.459,41.48 564.459,41.48 564.459,41.48 564.459,41.48 564.459,41.48 564.459,41.48 564.459,41.48 
  564.459,41.48 564.459,41.48 564.459,41.48 564.46,41.48 564.46,41.48 564.46,41.48 564.46,41.48 564.46,41.48 564.46,41.48 564.46,41.48 
  564.46,41.48 564.46,41.48 564.46,41.48 564.46,41.48 564.46,41.48 564.46,41.48 564.46,41.48 564.46,41.48 564.46,41.48 564.461,41.48 
  564.461,41.48 564.461,41.48 564.461,41.48 564.461,41.48 564.461,41.48 564.461,41.48 564.461,41.48 564.461,41.48 564.461,41.48 564.462,41.48 
  564.462,41.48 564.462,41.48 564.462,41.48 564.462,41.48 564.462,41.48 564.462,41.48 564.462,41.48 564.463,41.48 564.463,41.48 564.463,41.48 
  564.463,41.48 564.463,41.48 564.463,41.48 564.464,41.48 564.464,41.48 564.464,41.48 564.464,41.48 564.464,41.48 564.464,41.48 564.465,41.48 
  564.465,41.48 564.465,41.48 564.465,41.48 564.466,41.48 564.466,41.48 564.466,41.4799 564.466,41.4799 564.467,41.4799 564.467,41.4799 564.467,41.4799 
  564.467,41.4799 564.468,41.4799 564.468,41.4799 564.468,41.4799 564.468,41.4799 564.469,41.4799 564.469,41.4799 564.469,41.4799 564.47,41.4799 564.47,41.4799 
  564.47,41.4799 564.471,41.4799 564.471,41.4799 564.471,41.4799 564.472,41.4799 564.472,41.4799 564.472,41.4799 564.473,41.4799 564.473,41.4799 564.474,41.4799 
  564.474,41.4799 564.474,41.4799 564.475,41.4799 564.475,41.4799 564.476,41.4799 564.476,41.4799 564.476,41.4799 564.477,41.4799 564.477,41.4799 564.478,41.4799 
  564.478,41.4799 564.479,41.4799 564.479,41.4799 564.479,41.4799 564.48,41.4799 564.48,41.4799 564.481,41.4799 564.481,41.4799 564.482,41.4799 564.482,41.4799 
  564.483,41.4799 564.483,41.4799 564.483,41.4799 564.484,41.4799 564.484,41.4799 564.485,41.4799 564.485,41.4799 564.486,41.4799 564.486,41.4799 564.487,41.4799 
  564.487,41.4799 564.487,41.4799 564.488,41.4799 564.488,41.4799 564.489,41.4799 564.489,41.4799 564.489,41.4799 564.49,41.4799 564.49,41.4799 564.491,41.4799 
  564.491,41.4799 564.491,41.4799 564.492,41.4799 564.492,41.4799 564.493,41.4799 564.493,41.4799 564.493,41.4799 564.494,41.4799 564.494,41.4799 564.494,41.4799 
  564.495,41.4799 564.495,41.4799 564.495,41.4799 564.496,41.4799 564.496,41.4799 564.496,41.4799 564.496,41.4799 564.497,41.4799 564.497,41.4799 564.497,41.4799 
  564.498,41.4799 564.498,41.4799 564.498,41.4799 564.498,41.4799 564.499,41.4799 564.499,41.4799 564.499,41.4799 564.499,41.4799 564.5,41.4799 564.5,41.48 
  564.5,41.48 564.5,41.48 564.5,41.48 564.501,41.48 564.501,41.48 564.501,41.48 564.501,41.48 564.501,41.48 564.501,41.48 564.502,41.48 
  564.502,41.48 564.502,41.48 564.502,41.48 564.502,41.48 564.502,41.48 564.503,41.48 564.503,41.48 564.503,41.48 564.503,41.48 564.503,41.48 
  564.503,41.48 564.503,41.48 564.503,41.48 564.503,41.48 564.504,41.48 564.504,41.48 564.504,41.48 564.504,41.48 564.504,41.48 564.504,41.48 
  564.504,41.48 564.504,41.48 564.504,41.48 564.504,41.48 564.504,41.48 564.504,41.48 564.505,41.48 564.505,41.48 564.505,41.48 564.505,41.48 
  564.505,41.48 564.505,41.48 564.505,41.48 564.505,41.48 564.505,41.48 564.505,41.48 564.505,41.48 564.505,41.48 564.505,41.48 564.505,41.48 
  564.505,41.48 564.505,41.48 564.505,41.48 564.505,41.48 564.505,41.48 564.505,41.48 564.506,41.48 564.506,41.48 564.506,41.48 564.506,41.48 
  564.506,41.48 564.506,41.48 564.506,41.48 564.506,41.48 564.506,41.48 564.506,41.48 564.506,41.48 564.506,41.48 564.506,41.48 564.506,41.48 
  564.506,41.48 564.506,41.48 564.506,41.48 564.506,41.48 564.506,41.48 564.506,41.48 564.506,41.48 564.506,41.48 564.506,41.48 564.506,41.48 
  564.506,41.48 564.506,41.48 564.506,41.48 564.506,41.48 564.506,41.48 564.506,41.48 564.506,41.48 564.506,41.48 564.506,41.48 564.506,41.48 
  564.506,41.48 564.506,41.48 564.506,41.48 564.506,41.48 564.506,41.48 564.506,41.48 564.506,41.48 564.506,41.48 564.506,41.48 564.506,41.48 
  564.506,41.48 564.506,41.48 564.506,41.48 564.506,41.48 564.506,41.48 564.506,41.48 564.506,41.48 564.506,41.48 564.506,41.48 564.506,41.48 
  564.506,41.48 564.506,41.48 564.506,41.48 564.506,41.48 564.506,41.48 564.506,41.48 564.506,41.48 564.506,41.48 564.506,41.48 564.506,41.48 
  564.506,41.48 564.506,41.48 564.506,41.48 564.506,41.48 564.506,41.48 564.506,41.48 564.506,41.48 564.506,41.48 564.506,41.48 564.506,41.48 
  564.506,41.48 564.506,41.48 564.506,41.48 564.506,41.48 564.506,41.48 564.506,41.48 564.506,41.48 564.506,41.48 564.506,41.48 564.506,41.48 
  564.506,41.48 564.506,41.48 564.506,41.48 564.506,41.48 564.506,41.48 564.506,41.48 564.506,41.48 564.506,41.48 564.506,41.48 564.506,41.48 
  564.506,41.48 564.506,41.48 564.506,41.48 564.506,41.48 564.506,41.48 564.506,41.48 564.506,41.48 564.506,41.48 564.506,41.48 564.506,41.48 
  564.506,41.48 564.506,41.48 564.506,41.48 564.506,41.48 564.506,41.48 564.506,41.48 564.506,41.48 564.506,41.48 564.506,41.48 564.506,41.48 
  564.506,41.48 564.506,41.48 564.506,41.48 564.506,41.48 564.506,41.48 564.506,41.48 564.506,41.48 564.506,41.48 564.506,41.48 564.506,41.48 
  564.506,41.48 564.506,41.48 564.506,41.48 564.506,41.48 564.506,41.48 564.506,41.48 564.506,41.48 564.506,41.48 564.506,41.48 564.506,41.48 
  564.506,41.48 564.506,41.4801 564.506,41.4801 564.506,41.4801 564.506,41.4801 564.506,41.4801 564.506,41.4801 564.506,41.4801 564.506,41.4801 564.506,41.4801 
  
  "/>
<polyline clip-path="url(#clip8602)" style="stroke:#cc9e14; stroke-width:1; stroke-opacity:1; fill:none" points="
  564.464,41.4824 564.464,41.4824 564.464,41.4824 564.464,41.4823 564.464,41.4823 564.464,41.4822 564.464,41.4822 564.464,41.4822 564.464,41.4821 564.464,41.4821 
  564.464,41.482 564.464,41.482 564.464,41.482 564.464,41.4819 564.464,41.4819 564.464,41.4819 564.464,41.4818 564.464,41.4818 564.464,41.4818 564.464,41.4817 
  564.464,41.4817 564.464,41.4817 564.464,41.4816 564.464,41.4816 564.464,41.4816 564.464,41.4816 564.464,41.4815 564.464,41.4815 564.464,41.4815 564.464,41.4815 
  564.464,41.4814 564.464,41.4814 564.464,41.4814 564.464,41.4814 564.464,41.4813 564.464,41.4813 564.464,41.4813 564.464,41.4813 564.464,41.4812 564.464,41.4812 
  564.464,41.4812 564.464,41.4812 564.464,41.4812 564.464,41.4811 564.464,41.4811 564.464,41.4811 564.464,41.4811 564.464,41.4811 564.464,41.481 564.464,41.481 
  564.464,41.481 564.464,41.481 564.464,41.481 564.464,41.4809 564.464,41.4809 564.464,41.4809 564.464,41.4809 564.464,41.4809 564.464,41.4809 564.464,41.4809 
  564.464,41.4808 564.464,41.4808 564.464,41.4808 564.464,41.4808 564.464,41.4808 564.464,41.4808 564.464,41.4808 564.464,41.4807 564.464,41.4807 564.464,41.4807 
  564.464,41.4807 564.464,41.4807 564.464,41.4807 564.464,41.4807 564.464,41.4807 564.464,41.4806 564.464,41.4806 564.464,41.4806 564.464,41.4806 564.464,41.4806 
  564.464,41.4806 564.464,41.4806 564.464,41.4806 564.464,41.4806 564.464,41.4805 564.464,41.4805 564.464,41.4805 564.464,41.4805 564.464,41.4805 564.464,41.4805 
  564.464,41.4805 564.464,41.4805 564.464,41.4805 564.464,41.4805 564.464,41.4805 564.464,41.4805 564.464,41.4804 564.464,41.4804 564.464,41.4804 564.464,41.4804 
  564.464,41.4804 564.464,41.4804 564.464,41.4804 564.464,41.4804 564.464,41.4804 564.464,41.4804 564.464,41.4804 564.464,41.4804 564.464,41.4804 564.464,41.4804 
  564.464,41.4803 564.464,41.4803 564.464,41.4803 564.464,41.4803 564.464,41.4803 564.464,41.4803 564.464,41.4803 564.464,41.4803 564.464,41.4803 564.464,41.4803 
  564.464,41.4803 564.464,41.4803 564.464,41.4803 564.464,41.4803 564.464,41.4803 564.464,41.4803 564.464,41.4803 564.464,41.4803 564.464,41.4803 564.464,41.4802 
  564.464,41.4802 564.464,41.4802 564.464,41.4802 564.464,41.4802 564.464,41.4802 564.464,41.4802 564.464,41.4802 564.464,41.4802 564.465,41.4802 564.465,41.4802 
  564.465,41.4802 564.465,41.4802 564.465,41.4802 564.465,41.4802 564.465,41.4802 564.465,41.4802 564.465,41.4802 564.465,41.4802 564.465,41.4802 564.465,41.4802 
  564.465,41.4802 564.465,41.4802 564.465,41.4802 564.465,41.4802 564.465,41.4801 564.465,41.4801 564.465,41.4801 564.465,41.4801 564.465,41.4801 564.465,41.4801 
  564.465,41.4801 564.465,41.4801 564.465,41.4801 564.466,41.4801 564.466,41.4801 564.466,41.4801 564.466,41.4801 564.466,41.4801 564.466,41.4801 564.466,41.4801 
  564.466,41.4801 564.466,41.4801 564.466,41.4801 564.466,41.4801 564.466,41.4801 564.466,41.4801 564.466,41.4801 564.467,41.4801 564.467,41.4801 564.467,41.4801 
  564.467,41.4801 564.467,41.4801 564.467,41.4801 564.467,41.4801 564.467,41.4801 564.467,41.4801 564.468,41.4801 564.468,41.4801 564.468,41.4801 564.468,41.48 
  564.468,41.48 564.468,41.48 564.468,41.48 564.469,41.48 564.469,41.48 564.469,41.48 564.469,41.48 564.469,41.48 564.469,41.48 564.47,41.48 
  564.47,41.48 564.47,41.48 564.47,41.48 564.47,41.48 564.471,41.48 564.471,41.48 564.471,41.48 564.471,41.48 564.471,41.48 564.472,41.48 
  564.472,41.48 564.472,41.48 564.472,41.48 564.473,41.48 564.473,41.48 564.473,41.48 564.473,41.48 564.474,41.48 564.474,41.48 564.474,41.48 
  564.475,41.48 564.475,41.48 564.475,41.48 564.475,41.48 564.476,41.48 564.476,41.48 564.476,41.48 564.477,41.48 564.477,41.48 564.477,41.48 
  564.478,41.48 564.478,41.48 564.478,41.48 564.479,41.48 564.479,41.48 564.48,41.48 564.48,41.48 564.48,41.48 564.481,41.48 564.481,41.48 
  564.481,41.48 564.482,41.4799 564.482,41.4799 564.483,41.4799 564.483,41.4799 564.483,41.4799 564.484,41.4799 564.484,41.4799 564.485,41.4799 564.485,41.4799 
  564.485,41.4799 564.486,41.4799 564.486,41.4799 564.487,41.4799 564.487,41.4799 564.487,41.4799 564.488,41.4799 564.488,41.4799 564.488,41.4799 564.489,41.4799 
  564.489,41.4799 564.49,41.4799 564.49,41.4799 564.49,41.4799 564.491,41.4799 564.491,41.4799 564.491,41.4799 564.492,41.4799 564.492,41.4799 564.492,41.4799 
  564.493,41.4799 564.493,41.4799 564.494,41.4799 564.494,41.4799 564.494,41.4799 564.494,41.4799 564.495,41.4799 564.495,41.4799 564.495,41.48 564.496,41.48 
  564.496,41.48 564.496,41.48 564.497,41.48 564.497,41.48 564.497,41.48 564.497,41.48 564.498,41.48 564.498,41.48 564.498,41.48 564.498,41.48 
  564.499,41.48 564.499,41.48 564.499,41.48 564.499,41.48 564.5,41.48 564.5,41.48 564.5,41.48 564.5,41.48 564.5,41.48 564.501,41.48 
  564.501,41.48 564.501,41.48 564.501,41.48 564.501,41.48 564.501,41.48 564.502,41.48 564.502,41.48 564.502,41.48 564.502,41.48 564.502,41.48 
  564.502,41.48 564.502,41.48 564.503,41.48 564.503,41.48 564.503,41.48 564.503,41.48 564.503,41.48 564.503,41.48 564.503,41.48 564.503,41.48 
  564.504,41.48 564.504,41.48 564.504,41.48 564.504,41.48 564.504,41.48 564.504,41.48 564.504,41.48 564.504,41.48 564.504,41.48 564.504,41.48 
  564.504,41.48 564.504,41.48 564.505,41.48 564.505,41.48 564.505,41.48 564.505,41.48 564.505,41.48 564.505,41.48 564.505,41.48 564.505,41.48 
  564.505,41.48 564.505,41.48 564.505,41.48 564.505,41.48 564.505,41.48 564.505,41.48 564.505,41.48 564.505,41.48 564.505,41.48 564.505,41.48 
  564.505,41.48 564.505,41.48 564.506,41.48 564.506,41.48 564.506,41.48 564.506,41.48 564.506,41.48 564.506,41.48 564.506,41.48 564.506,41.48 
  564.506,41.48 564.506,41.48 564.506,41.48 564.506,41.48 564.506,41.48 564.506,41.48 564.506,41.48 564.506,41.48 564.506,41.48 564.506,41.48 
  564.506,41.48 564.506,41.48 564.506,41.48 564.506,41.48 564.506,41.48 564.506,41.48 564.506,41.48 564.506,41.48 564.506,41.48 564.506,41.48 
  564.506,41.48 564.506,41.48 564.506,41.48 564.506,41.48 564.506,41.48 564.506,41.48 564.506,41.48 564.506,41.48 564.506,41.48 564.506,41.48 
  564.506,41.48 564.506,41.48 564.506,41.48 564.506,41.48 564.506,41.48 564.506,41.48 564.506,41.48 564.506,41.48 564.506,41.48 564.506,41.48 
  564.506,41.48 564.506,41.48 564.506,41.48 564.506,41.48 564.506,41.48 564.506,41.48 564.506,41.48 564.506,41.48 564.506,41.48 564.506,41.48 
  564.506,41.48 564.506,41.48 564.506,41.48 564.506,41.48 564.506,41.48 564.506,41.48 564.506,41.48 564.506,41.48 564.506,41.48 564.506,41.48 
  564.506,41.48 564.506,41.48 564.506,41.48 564.506,41.48 564.506,41.48 564.506,41.48 564.506,41.48 564.506,41.48 564.506,41.48 564.506,41.48 
  564.506,41.48 564.506,41.48 564.506,41.48 564.506,41.48 564.506,41.48 564.506,41.48 564.506,41.48 564.506,41.48 564.506,41.48 564.506,41.48 
  564.506,41.48 564.506,41.48 564.506,41.48 564.506,41.48 564.506,41.48 564.506,41.48 564.506,41.48 564.506,41.48 564.506,41.48 564.506,41.48 
  564.506,41.48 564.506,41.48 564.506,41.48 564.506,41.48 564.506,41.48 564.506,41.48 564.506,41.48 564.506,41.48 564.506,41.48 564.506,41.48 
  564.506,41.48 564.506,41.48 564.506,41.48 564.506,41.48 564.506,41.48 564.506,41.48 564.506,41.48 564.506,41.48 564.506,41.48 564.506,41.48 
  564.506,41.48 564.506,41.48 564.506,41.48 564.506,41.48 564.506,41.48 564.506,41.48 564.506,41.48 564.506,41.48 564.506,41.48 564.506,41.48 
  564.506,41.4801 564.506,41.4801 564.506,41.4801 564.506,41.4801 564.506,41.4801 564.506,41.4801 564.506,41.4801 564.506,41.4801 564.506,41.4801 564.506,41.4801 
  564.506,41.4801 564.506,41.4801 564.506,41.4801 564.506,41.4801 564.506,41.4801 564.506,41.4801 564.506,41.4801 564.506,41.4801 564.506,41.4801 564.506,41.4801 
  
  "/>
<polyline clip-path="url(#clip8602)" style="stroke:#14cc2a; stroke-width:1; stroke-opacity:1; fill:none" points="
  564.464,41.4973 564.464,41.497 564.464,41.4967 564.464,41.4964 564.464,41.4961 564.464,41.4958 564.464,41.4955 564.464,41.4952 564.464,41.4949 564.464,41.4947 
  564.464,41.4944 564.464,41.4941 564.464,41.4939 564.464,41.4936 564.464,41.4934 564.464,41.4931 564.464,41.4929 564.464,41.4926 564.464,41.4924 564.464,41.4922 
  564.464,41.492 564.464,41.4917 564.464,41.4915 564.464,41.4913 564.464,41.4911 564.464,41.4909 564.464,41.4907 564.464,41.4905 564.464,41.4903 564.464,41.4901 
  564.464,41.49 564.464,41.4898 564.464,41.4896 564.464,41.4894 564.464,41.4893 564.464,41.4891 564.464,41.4889 564.464,41.4888 564.464,41.4886 564.464,41.4884 
  564.464,41.4883 564.464,41.4881 564.464,41.488 564.464,41.4878 564.464,41.4877 564.464,41.4876 564.464,41.4874 564.464,41.4873 564.464,41.4872 564.464,41.487 
  564.464,41.4869 564.464,41.4868 564.464,41.4866 564.464,41.4865 564.464,41.4864 564.464,41.4863 564.464,41.4862 564.464,41.4861 564.464,41.486 564.464,41.4858 
  564.464,41.4857 564.464,41.4856 564.464,41.4855 564.464,41.4854 564.464,41.4853 564.464,41.4852 564.464,41.4851 564.464,41.485 564.464,41.485 564.464,41.4849 
  564.464,41.4848 564.464,41.4847 564.464,41.4846 564.464,41.4845 564.464,41.4844 564.464,41.4844 564.464,41.4843 564.464,41.4842 564.464,41.4841 564.464,41.4841 
  564.464,41.484 564.464,41.4839 564.464,41.4838 564.464,41.4838 564.464,41.4837 564.464,41.4836 564.464,41.4836 564.464,41.4835 564.464,41.4834 564.464,41.4834 
  564.464,41.4833 564.464,41.4833 564.464,41.4832 564.464,41.4831 564.464,41.4831 564.464,41.483 564.464,41.483 564.464,41.4829 564.464,41.4829 564.464,41.4828 
  564.464,41.4828 564.464,41.4827 564.464,41.4827 564.464,41.4826 564.464,41.4826 564.464,41.4825 564.464,41.4825 564.464,41.4824 564.464,41.4824 564.464,41.4823 
  564.464,41.4823 564.464,41.4823 564.464,41.4822 564.464,41.4822 564.464,41.4821 564.464,41.4821 564.464,41.4821 564.464,41.482 564.464,41.482 564.464,41.4819 
  564.464,41.4819 564.464,41.4819 564.464,41.4818 564.465,41.4818 564.465,41.4818 564.465,41.4817 564.465,41.4817 564.465,41.4817 564.465,41.4816 564.465,41.4816 
  564.465,41.4816 564.465,41.4816 564.465,41.4815 564.465,41.4815 564.465,41.4815 564.465,41.4814 564.465,41.4814 564.465,41.4814 564.465,41.4814 564.465,41.4813 
  564.465,41.4813 564.465,41.4813 564.465,41.4813 564.465,41.4812 564.465,41.4812 564.465,41.4812 564.465,41.4812 564.465,41.4812 564.465,41.4811 564.465,41.4811 
  564.465,41.4811 564.465,41.4811 564.465,41.4811 564.465,41.481 564.465,41.481 564.465,41.481 564.465,41.481 564.465,41.481 564.466,41.4809 564.466,41.4809 
  564.466,41.4809 564.466,41.4809 564.466,41.4809 564.466,41.4809 564.466,41.4808 564.466,41.4808 564.466,41.4808 564.466,41.4808 564.466,41.4808 564.466,41.4808 
  564.466,41.4807 564.466,41.4807 564.466,41.4807 564.466,41.4807 564.467,41.4807 564.467,41.4807 564.467,41.4807 564.467,41.4806 564.467,41.4806 564.467,41.4806 
  564.467,41.4806 564.467,41.4806 564.467,41.4806 564.467,41.4806 564.468,41.4806 564.468,41.4805 564.468,41.4805 564.468,41.4805 564.468,41.4805 564.468,41.4805 
  564.468,41.4805 564.468,41.4805 564.469,41.4805 564.469,41.4805 564.469,41.4804 564.469,41.4804 564.469,41.4804 564.469,41.4804 564.47,41.4804 564.47,41.4804 
  564.47,41.4804 564.47,41.4804 564.47,41.4804 564.471,41.4804 564.471,41.4804 564.471,41.4803 564.471,41.4803 564.471,41.4803 564.472,41.4803 564.472,41.4803 
  564.472,41.4803 564.472,41.4803 564.473,41.4803 564.473,41.4803 564.473,41.4803 564.473,41.4803 564.474,41.4803 564.474,41.4803 564.474,41.4802 564.474,41.4802 
  564.475,41.4802 564.475,41.4802 564.475,41.4802 564.476,41.4802 564.476,41.4802 564.476,41.4802 564.477,41.4802 564.477,41.4802 564.477,41.4802 564.478,41.4802 
  564.478,41.4802 564.478,41.4802 564.479,41.4802 564.479,41.4802 564.479,41.4802 564.48,41.4802 564.48,41.4801 564.48,41.4801 564.481,41.4801 564.481,41.4801 
  564.482,41.4801 564.482,41.4801 564.482,41.4801 564.483,41.4801 564.483,41.4801 564.484,41.4801 564.484,41.4801 564.484,41.4801 564.485,41.4801 564.485,41.4801 
  564.485,41.4801 564.486,41.4801 564.486,41.4801 564.487,41.4801 564.487,41.4801 564.487,41.4801 564.488,41.4801 564.488,41.4801 564.489,41.4801 564.489,41.4801 
  564.489,41.4801 564.49,41.4801 564.49,41.4801 564.49,41.4801 564.491,41.4801 564.491,41.4801 564.492,41.4801 564.492,41.4801 564.492,41.4801 564.493,41.48 
  564.493,41.48 564.493,41.48 564.494,41.48 564.494,41.48 564.494,41.48 564.495,41.48 564.495,41.48 564.495,41.48 564.495,41.48 564.496,41.48 
  564.496,41.48 564.496,41.48 564.497,41.48 564.497,41.48 564.497,41.48 564.497,41.48 564.498,41.48 564.498,41.48 564.498,41.48 564.498,41.48 
  564.499,41.48 564.499,41.48 564.499,41.48 564.499,41.48 564.5,41.48 564.5,41.48 564.5,41.48 564.5,41.48 564.5,41.48 564.501,41.48 
  564.501,41.48 564.501,41.48 564.501,41.48 564.501,41.48 564.501,41.48 564.502,41.48 564.502,41.48 564.502,41.48 564.502,41.48 564.502,41.48 
  564.502,41.48 564.502,41.48 564.503,41.48 564.503,41.48 564.503,41.48 564.503,41.48 564.503,41.48 564.503,41.48 564.503,41.48 564.503,41.48 
  564.504,41.48 564.504,41.48 564.504,41.48 564.504,41.48 564.504,41.48 564.504,41.48 564.504,41.48 564.504,41.48 564.504,41.48 564.504,41.48 
  564.504,41.48 564.504,41.48 564.505,41.48 564.505,41.48 564.505,41.48 564.505,41.48 564.505,41.48 564.505,41.48 564.505,41.48 564.505,41.48 
  564.505,41.48 564.505,41.48 564.505,41.48 564.505,41.48 564.505,41.48 564.505,41.48 564.505,41.48 564.505,41.48 564.505,41.48 564.505,41.48 
  564.505,41.48 564.505,41.48 564.506,41.48 564.506,41.48 564.506,41.48 564.506,41.48 564.506,41.48 564.506,41.48 564.506,41.48 564.506,41.48 
  564.506,41.48 564.506,41.48 564.506,41.48 564.506,41.48 564.506,41.48 564.506,41.48 564.506,41.48 564.506,41.48 564.506,41.48 564.506,41.48 
  564.506,41.48 564.506,41.48 564.506,41.48 564.506,41.48 564.506,41.48 564.506,41.48 564.506,41.48 564.506,41.48 564.506,41.48 564.506,41.48 
  564.506,41.48 564.506,41.48 564.506,41.48 564.506,41.48 564.506,41.48 564.506,41.48 564.506,41.48 564.506,41.48 564.506,41.48 564.506,41.48 
  564.506,41.48 564.506,41.48 564.506,41.48 564.506,41.48 564.506,41.48 564.506,41.48 564.506,41.48 564.506,41.48 564.506,41.48 564.506,41.48 
  564.506,41.48 564.506,41.48 564.506,41.48 564.506,41.48 564.506,41.48 564.506,41.48 564.506,41.48 564.506,41.48 564.506,41.48 564.506,41.48 
  564.506,41.48 564.506,41.48 564.506,41.48 564.506,41.48 564.506,41.48 564.506,41.48 564.506,41.48 564.506,41.48 564.506,41.48 564.506,41.48 
  564.506,41.48 564.506,41.48 564.506,41.48 564.506,41.48 564.506,41.48 564.506,41.48 564.506,41.48 564.506,41.48 564.506,41.4801 564.506,41.4801 
  564.506,41.4801 564.506,41.4801 564.506,41.4801 564.506,41.4801 564.506,41.4801 564.506,41.4801 564.506,41.4801 564.506,41.4801 564.506,41.4801 564.506,41.4801 
  564.506,41.4801 564.506,41.4801 564.506,41.4801 564.506,41.4801 564.506,41.4801 564.506,41.4801 564.506,41.4801 564.506,41.4801 564.506,41.4801 564.506,41.4801 
  564.506,41.4801 564.506,41.4801 564.506,41.4801 564.506,41.4801 564.506,41.4801 564.506,41.4801 564.506,41.4801 564.506,41.4801 564.506,41.4801 564.506,41.4801 
  564.506,41.4801 564.506,41.4801 564.506,41.4801 564.506,41.4801 564.506,41.4801 564.506,41.4801 564.506,41.4801 564.506,41.4801 564.506,41.4801 564.506,41.4801 
  564.506,41.4801 564.506,41.4801 564.506,41.4801 564.506,41.4801 564.506,41.4801 564.506,41.4801 564.506,41.4801 564.506,41.4801 564.506,41.4801 564.506,41.4801 
  564.506,41.4801 564.506,41.4801 564.506,41.4801 564.506,41.4801 564.506,41.4801 564.506,41.4801 564.506,41.4801 564.506,41.4801 564.506,41.4801 564.506,41.4801 
  564.506,41.4801 564.506,41.4801 564.506,41.4801 564.506,41.4801 564.506,41.4801 564.506,41.4801 564.506,41.4801 564.506,41.4801 564.506,41.4801 564.506,41.4801 
  
  "/>
<polyline clip-path="url(#clip8602)" style="stroke:#1427cc; stroke-width:1; stroke-opacity:1; fill:none" stroke-dasharray="8, 5" points="
  564.358,41.6041 564.358,41.6018 564.358,41.5996 564.358,41.5974 564.358,41.5953 564.358,41.5932 564.358,41.5911 564.358,41.5891 564.358,41.5871 564.358,41.5851 
  564.358,41.5832 564.358,41.5813 564.358,41.5795 564.358,41.5776 564.358,41.5759 564.358,41.5741 564.358,41.5724 564.358,41.5707 564.358,41.569 564.358,41.5674 
  564.358,41.5658 564.358,41.5642 564.358,41.5627 564.358,41.5612 564.358,41.5597 564.358,41.5582 564.358,41.5568 564.358,41.5554 564.358,41.554 564.358,41.5527 
  564.358,41.5513 564.358,41.55 564.358,41.5488 564.358,41.5475 564.358,41.5463 564.358,41.5451 564.358,41.5439 564.358,41.5427 564.358,41.5416 564.358,41.5404 
  564.358,41.5393 564.358,41.5382 564.358,41.5372 564.358,41.5361 564.358,41.5351 564.358,41.5341 564.358,41.5331 564.358,41.5321 564.358,41.5312 564.358,41.5302 
  564.358,41.5293 564.358,41.5284 564.358,41.5275 564.358,41.5267 564.358,41.5258 564.358,41.525 564.358,41.5242 564.358,41.5234 564.358,41.5226 564.358,41.5218 
  564.358,41.521 564.358,41.5203 564.358,41.5195 564.358,41.5188 564.358,41.5181 564.358,41.5174 564.358,41.5167 564.358,41.516 564.358,41.5154 564.358,41.5147 
  564.358,41.5141 564.358,41.5135 564.358,41.5129 564.358,41.5123 564.358,41.5117 564.358,41.5111 564.358,41.5105 564.358,41.51 564.358,41.5094 564.358,41.5089 
  564.358,41.5084 564.358,41.5078 564.358,41.5073 564.358,41.5068 564.358,41.5063 564.358,41.5058 564.358,41.5054 564.358,41.5049 564.358,41.5045 564.358,41.504 
  564.359,41.5036 564.359,41.5031 564.359,41.5027 564.359,41.5023 564.359,41.5019 564.359,41.5015 564.359,41.5011 564.359,41.5007 564.359,41.5003 564.359,41.5 
  564.359,41.4996 564.359,41.4992 564.359,41.4989 564.359,41.4985 564.359,41.4982 564.359,41.4979 564.359,41.4975 564.359,41.4972 564.359,41.4969 564.359,41.4966 
  564.359,41.4963 564.359,41.496 564.359,41.4957 564.359,41.4954 564.359,41.4951 564.359,41.4948 564.359,41.4946 564.359,41.4943 564.359,41.494 564.359,41.4938 
  564.359,41.4935 564.359,41.4933 564.359,41.493 564.359,41.4928 564.36,41.4925 564.36,41.4923 564.36,41.4921 564.36,41.4919 564.36,41.4916 564.36,41.4914 
  564.36,41.4912 564.36,41.491 564.36,41.4908 564.36,41.4906 564.36,41.4904 564.36,41.4902 564.36,41.49 564.36,41.4898 564.36,41.4897 564.361,41.4895 
  564.361,41.4893 564.361,41.4891 564.361,41.489 564.361,41.4888 564.361,41.4886 564.361,41.4885 564.361,41.4883 564.361,41.4881 564.362,41.488 564.362,41.4878 
  564.362,41.4877 564.362,41.4875 564.362,41.4874 564.362,41.4873 564.362,41.4871 564.362,41.487 564.363,41.4869 564.363,41.4867 564.363,41.4866 564.363,41.4865 
  564.363,41.4864 564.364,41.4862 564.364,41.4861 564.364,41.486 564.364,41.4859 564.364,41.4858 564.365,41.4857 564.365,41.4855 564.365,41.4854 564.365,41.4853 
  564.366,41.4852 564.366,41.4851 564.366,41.485 564.366,41.4849 564.367,41.4848 564.367,41.4847 564.367,41.4846 564.368,41.4846 564.368,41.4845 564.368,41.4844 
  564.369,41.4843 564.369,41.4842 564.369,41.4841 564.37,41.484 564.37,41.484 564.371,41.4839 564.371,41.4838 564.372,41.4837 564.372,41.4836 564.372,41.4836 
  564.373,41.4835 564.373,41.4834 564.374,41.4834 564.374,41.4833 564.375,41.4832 564.376,41.4831 564.376,41.4831 564.377,41.483 564.377,41.483 564.378,41.4829 
  564.379,41.4828 564.379,41.4828 564.38,41.4827 564.381,41.4826 564.381,41.4826 564.382,41.4825 564.383,41.4825 564.384,41.4824 564.384,41.4824 564.385,41.4823 
  564.386,41.4823 564.387,41.4822 564.388,41.4822 564.389,41.4821 564.39,41.4821 564.391,41.482 564.391,41.482 564.392,41.4819 564.393,41.4819 564.394,41.4818 
  564.395,41.4818 564.396,41.4817 564.398,41.4817 564.399,41.4817 564.4,41.4816 564.401,41.4816 564.402,41.4815 564.403,41.4815 564.404,41.4815 564.405,41.4814 
  564.407,41.4814 564.408,41.4814 564.409,41.4813 564.41,41.4813 564.412,41.4813 564.413,41.4812 564.414,41.4812 564.415,41.4812 564.417,41.4811 564.418,41.4811 
  564.419,41.4811 564.421,41.481 564.422,41.481 564.423,41.481 564.425,41.481 564.426,41.4809 564.427,41.4809 564.429,41.4809 564.43,41.4809 564.432,41.4808 
  564.433,41.4808 564.434,41.4808 564.436,41.4808 564.437,41.4808 564.438,41.4807 564.44,41.4807 564.441,41.4807 564.442,41.4807 564.444,41.4807 564.445,41.4806 
  564.446,41.4806 564.448,41.4806 564.449,41.4806 564.45,41.4806 564.452,41.4806 564.453,41.4805 564.454,41.4805 564.455,41.4805 564.457,41.4805 564.458,41.4805 
  564.459,41.4805 564.46,41.4805 564.461,41.4804 564.463,41.4804 564.464,41.4804 564.465,41.4804 564.466,41.4804 564.467,41.4804 564.468,41.4804 564.469,41.4804 
  564.47,41.4804 564.471,41.4804 564.472,41.4803 564.473,41.4803 564.474,41.4803 564.475,41.4803 564.476,41.4803 564.477,41.4803 564.478,41.4803 564.478,41.4803 
  564.479,41.4803 564.48,41.4803 564.481,41.4803 564.482,41.4803 564.482,41.4803 564.483,41.4803 564.484,41.4802 564.485,41.4802 564.485,41.4802 564.486,41.4802 
  564.487,41.4802 564.487,41.4802 564.488,41.4802 564.488,41.4802 564.489,41.4802 564.49,41.4802 564.49,41.4802 564.491,41.4802 564.491,41.4802 564.492,41.4802 
  564.492,41.4802 564.493,41.4802 564.493,41.4802 564.493,41.4802 564.494,41.4802 564.494,41.4802 564.495,41.4802 564.495,41.4802 564.495,41.4802 564.496,41.4802 
  564.496,41.4802 564.497,41.4802 564.497,41.4802 564.497,41.4801 564.498,41.4801 564.498,41.4801 564.498,41.4801 564.498,41.4801 564.499,41.4801 564.499,41.4801 
  564.499,41.4801 564.499,41.4801 564.5,41.4801 564.5,41.4801 564.5,41.4801 564.5,41.4801 564.501,41.4801 564.501,41.4801 564.501,41.4801 564.501,41.4801 
  564.501,41.4801 564.502,41.4801 564.502,41.4801 564.502,41.4801 564.502,41.4801 564.502,41.4801 564.502,41.4801 564.503,41.4801 564.503,41.4801 564.503,41.4801 
  564.503,41.4801 564.503,41.4801 564.503,41.4801 564.503,41.4801 564.503,41.4801 564.503,41.4801 564.504,41.4801 564.504,41.4801 564.504,41.4801 564.504,41.4801 
  564.504,41.4801 564.504,41.4801 564.504,41.4801 564.504,41.4801 564.504,41.4801 564.504,41.4801 564.504,41.4801 564.505,41.4801 564.505,41.4801 564.505,41.4801 
  564.505,41.4801 564.505,41.4801 564.505,41.4801 564.505,41.4801 564.505,41.4801 564.505,41.4801 564.505,41.4801 564.505,41.4801 564.505,41.4801 564.505,41.4801 
  564.505,41.4801 564.505,41.4801 564.505,41.4801 564.505,41.4801 564.505,41.4801 564.505,41.4801 564.506,41.4801 564.506,41.4801 564.506,41.4801 564.506,41.4801 
  564.506,41.4801 564.506,41.4801 564.506,41.4801 564.506,41.4801 564.506,41.4801 564.506,41.4801 564.506,41.4801 564.506,41.4801 564.506,41.4801 564.506,41.4801 
  564.506,41.4801 564.506,41.4801 564.506,41.4801 564.506,41.4801 564.506,41.4801 564.506,41.4801 564.506,41.4801 564.506,41.4801 564.506,41.4801 564.506,41.4801 
  564.506,41.4801 564.506,41.4801 564.506,41.4801 564.506,41.4801 564.506,41.4801 564.506,41.4801 564.506,41.4801 564.506,41.4801 564.506,41.4801 564.506,41.4801 
  564.506,41.4801 564.506,41.4801 564.506,41.4801 564.506,41.4801 564.506,41.4801 564.506,41.4801 564.506,41.4801 564.506,41.4801 564.506,41.4801 564.506,41.4801 
  564.506,41.4801 564.506,41.4801 564.506,41.4801 564.506,41.4801 564.506,41.4801 564.506,41.4801 564.506,41.4801 564.506,41.4801 564.506,41.4801 564.506,41.4801 
  564.506,41.4801 564.506,41.4801 564.506,41.4801 564.506,41.4801 564.506,41.4801 564.506,41.4801 564.506,41.4801 564.506,41.4801 564.506,41.4801 564.506,41.4801 
  564.506,41.4801 564.506,41.4801 564.506,41.4801 564.506,41.4801 564.506,41.4801 564.506,41.4801 564.506,41.4801 564.506,41.4801 564.506,41.4801 564.506,41.4801 
  564.506,41.4801 564.506,41.4801 564.506,41.4801 564.506,41.4801 564.506,41.4801 564.506,41.4801 564.506,41.4801 564.506,41.4801 564.506,41.4801 564.506,41.4801 
  564.506,41.4801 564.506,41.4801 564.506,41.4801 564.506,41.4801 564.506,41.4801 564.506,41.4801 564.506,41.4801 564.506,41.4801 564.506,41.4801 564.506,41.4801 
  564.506,41.4801 564.506,41.4801 564.506,41.4801 564.506,41.4801 564.506,41.4801 564.506,41.4801 564.506,41.4801 564.506,41.4801 564.506,41.4801 564.506,41.4801 
  564.506,41.4801 564.506,41.4801 564.506,41.4801 564.506,41.4801 564.506,41.4801 564.506,41.4801 564.506,41.4801 564.506,41.4801 564.506,41.4801 564.506,41.4801 
  
  "/>
<polyline clip-path="url(#clip8602)" style="stroke:#cc1414; stroke-width:1; stroke-opacity:1; fill:none" stroke-dasharray="8, 5" points="
  563.305,42.3728 563.305,42.3565 563.305,42.3405 563.305,42.3247 563.305,42.3093 563.305,42.2941 563.305,42.2792 563.305,42.2646 563.305,42.2503 563.305,42.2362 
  563.305,42.2223 563.305,42.2088 563.305,42.1954 563.305,42.1823 563.305,42.1695 563.305,42.1569 563.305,42.1445 563.305,42.1323 563.305,42.1204 563.305,42.1087 
  563.305,42.0972 563.305,42.0859 563.305,42.0748 563.305,42.0639 563.305,42.0533 563.305,42.0428 563.305,42.0325 563.305,42.0224 563.305,42.0124 563.306,42.0027 
  563.306,41.9931 563.306,41.9838 563.306,41.9745 563.306,41.9655 563.306,41.9566 563.306,41.9479 563.306,41.9393 563.306,41.9309 563.306,41.9227 563.306,41.9146 
  563.306,41.9066 563.306,41.8988 563.306,41.8911 563.306,41.8836 563.306,41.8762 563.306,41.869 563.306,41.8619 563.306,41.8549 563.306,41.848 563.306,41.8413 
  563.306,41.8347 563.306,41.8282 563.306,41.8218 563.306,41.8155 563.306,41.8094 563.306,41.8034 563.306,41.7974 563.306,41.7916 563.306,41.7859 563.306,41.7803 
  563.306,41.7748 563.306,41.7694 563.306,41.7641 563.306,41.7589 563.306,41.7538 563.306,41.7488 563.307,41.7439 563.307,41.739 563.307,41.7343 563.307,41.7296 
  563.307,41.7251 563.307,41.7206 563.307,41.7162 563.307,41.7118 563.307,41.7076 563.307,41.7034 563.307,41.6993 563.307,41.6953 563.307,41.6913 563.307,41.6875 
  563.307,41.6837 563.308,41.6799 563.308,41.6763 563.308,41.6727 563.308,41.6691 563.308,41.6657 563.308,41.6622 563.308,41.6589 563.308,41.6556 563.308,41.6524 
  563.308,41.6492 563.309,41.6461 563.309,41.6431 563.309,41.6401 563.309,41.6371 563.309,41.6342 563.309,41.6314 563.309,41.6286 563.31,41.6259 563.31,41.6232 
  563.31,41.6206 563.31,41.618 563.31,41.6154 563.311,41.6129 563.311,41.6105 563.311,41.6081 563.311,41.6057 563.311,41.6034 563.312,41.6011 563.312,41.5989 
  563.312,41.5967 563.312,41.5946 563.313,41.5924 563.313,41.5904 563.313,41.5883 563.313,41.5863 563.314,41.5844 563.314,41.5824 563.314,41.5805 563.315,41.5787 
  563.315,41.5768 563.316,41.575 563.316,41.5733 563.316,41.5715 563.317,41.5698 563.317,41.5682 563.318,41.5665 563.318,41.5649 563.319,41.5633 563.319,41.5618 
  563.32,41.5603 563.32,41.5588 563.321,41.5573 563.321,41.5559 563.322,41.5544 563.322,41.5531 563.323,41.5517 563.324,41.5503 563.324,41.549 563.325,41.5477 
  563.326,41.5465 563.327,41.5452 563.327,41.544 563.328,41.5428 563.329,41.5416 563.33,41.5404 563.331,41.5393 563.332,41.5382 563.333,41.5371 563.334,41.536 
  563.335,41.5349 563.336,41.5339 563.337,41.5328 563.338,41.5318 563.34,41.5308 563.341,41.5299 563.342,41.5289 563.343,41.528 563.345,41.527 563.346,41.5261 
  563.348,41.5252 563.349,41.5244 563.351,41.5235 563.353,41.5227 563.354,41.5218 563.356,41.521 563.358,41.5202 563.36,41.5194 563.362,41.5186 563.364,41.5179 
  563.366,41.5171 563.368,41.5164 563.37,41.5157 563.372,41.515 563.375,41.5143 563.377,41.5136 563.38,41.5129 563.383,41.5122 563.385,41.5116 563.388,41.5109 
  563.391,41.5103 563.394,41.5097 563.397,41.5091 563.4,41.5085 563.403,41.5079 563.407,41.5073 563.41,41.5068 563.414,41.5062 563.418,41.5056 563.421,41.5051 
  563.425,41.5046 563.429,41.504 563.434,41.5035 563.438,41.503 563.442,41.5025 563.447,41.502 563.452,41.5016 563.456,41.5011 563.461,41.5006 563.466,41.5002 
  563.472,41.4997 563.477,41.4993 563.482,41.4988 563.488,41.4984 563.494,41.498 563.5,41.4976 563.506,41.4972 563.512,41.4968 563.519,41.4964 563.525,41.496 
  563.532,41.4956 563.539,41.4952 563.546,41.4949 563.553,41.4945 563.56,41.4942 563.568,41.4938 563.575,41.4935 563.583,41.4931 563.591,41.4928 563.599,41.4925 
  563.608,41.4922 563.616,41.4919 563.625,41.4916 563.633,41.4913 563.642,41.491 563.651,41.4907 563.66,41.4904 563.67,41.4901 563.679,41.4898 563.689,41.4896 
  563.698,41.4893 563.708,41.4891 563.718,41.4888 563.728,41.4886 563.739,41.4883 563.749,41.4881 563.759,41.4879 563.77,41.4876 563.78,41.4874 563.791,41.4872 
  563.802,41.487 563.812,41.4868 563.823,41.4866 563.834,41.4864 563.845,41.4862 563.856,41.486 563.867,41.4858 563.878,41.4856 563.889,41.4855 563.9,41.4853 
  563.911,41.4851 563.922,41.485 563.934,41.4848 563.945,41.4847 563.956,41.4845 563.967,41.4844 563.978,41.4842 563.988,41.4841 563.999,41.484 564.01,41.4838 
  564.021,41.4837 564.031,41.4836 564.042,41.4835 564.052,41.4834 564.063,41.4832 564.073,41.4831 564.083,41.483 564.093,41.4829 564.103,41.4828 564.113,41.4827 
  564.123,41.4827 564.132,41.4826 564.142,41.4825 564.151,41.4824 564.16,41.4823 564.169,41.4822 564.178,41.4822 564.187,41.4821 564.196,41.482 564.204,41.482 
  564.212,41.4819 564.22,41.4818 564.228,41.4818 564.236,41.4817 564.244,41.4817 564.251,41.4816 564.259,41.4816 564.266,41.4815 564.273,41.4815 564.28,41.4814 
  564.286,41.4814 564.293,41.4813 564.299,41.4813 564.306,41.4812 564.312,41.4812 564.318,41.4812 564.323,41.4811 564.329,41.4811 564.335,41.4811 564.34,41.481 
  564.345,41.481 564.35,41.481 564.355,41.4809 564.36,41.4809 564.365,41.4809 564.369,41.4809 564.374,41.4808 564.378,41.4808 564.382,41.4808 564.386,41.4808 
  564.39,41.4807 564.394,41.4807 564.398,41.4807 564.401,41.4807 564.405,41.4807 564.408,41.4807 564.411,41.4806 564.415,41.4806 564.418,41.4806 564.421,41.4806 
  564.424,41.4806 564.426,41.4806 564.429,41.4805 564.432,41.4805 564.434,41.4805 564.437,41.4805 564.439,41.4805 564.441,41.4805 564.444,41.4805 564.446,41.4805 
  564.448,41.4805 564.45,41.4804 564.452,41.4804 564.454,41.4804 564.456,41.4804 564.457,41.4804 564.459,41.4804 564.461,41.4804 564.462,41.4804 564.464,41.4804 
  564.465,41.4804 564.467,41.4804 564.468,41.4803 564.47,41.4803 564.471,41.4803 564.472,41.4803 564.473,41.4803 564.474,41.4803 564.476,41.4803 564.477,41.4803 
  564.478,41.4803 564.479,41.4803 564.48,41.4803 564.481,41.4803 564.482,41.4803 564.482,41.4803 564.483,41.4803 564.484,41.4803 564.485,41.4803 564.486,41.4803 
  564.486,41.4803 564.487,41.4802 564.488,41.4802 564.489,41.4802 564.489,41.4802 564.49,41.4802 564.49,41.4802 564.491,41.4802 564.492,41.4802 564.492,41.4802 
  564.493,41.4802 564.493,41.4802 564.494,41.4802 564.494,41.4802 564.494,41.4802 564.495,41.4802 564.495,41.4802 564.496,41.4802 564.496,41.4802 564.496,41.4802 
  564.497,41.4802 564.497,41.4802 564.498,41.4802 564.498,41.4802 564.498,41.4802 564.498,41.4802 564.499,41.4802 564.499,41.4802 564.499,41.4802 564.5,41.4802 
  564.5,41.4802 564.5,41.4802 564.5,41.4802 564.5,41.4802 564.501,41.4802 564.501,41.4802 564.501,41.4801 564.501,41.4801 564.501,41.4801 564.502,41.4801 
  564.502,41.4801 564.502,41.4801 564.502,41.4801 564.502,41.4801 564.502,41.4801 564.503,41.4801 564.503,41.4801 564.503,41.4801 564.503,41.4801 564.503,41.4801 
  564.503,41.4801 564.503,41.4801 564.503,41.4801 564.504,41.4801 564.504,41.4801 564.504,41.4801 564.504,41.4801 564.504,41.4801 564.504,41.4801 564.504,41.4801 
  564.504,41.4801 564.504,41.4801 564.504,41.4801 564.504,41.4801 564.505,41.4801 564.505,41.4801 564.505,41.4801 564.505,41.4801 564.505,41.4801 564.505,41.4801 
  564.505,41.4801 564.505,41.4801 564.505,41.4801 564.505,41.4801 564.505,41.4801 564.505,41.4801 564.505,41.4801 564.505,41.4801 564.505,41.4801 564.505,41.4801 
  564.505,41.4801 564.505,41.4801 564.505,41.4801 564.506,41.4801 564.506,41.4801 564.506,41.4801 564.506,41.4801 564.506,41.4801 564.506,41.4801 564.506,41.4801 
  564.506,41.4801 564.506,41.4801 564.506,41.4801 564.506,41.4801 564.506,41.4801 564.506,41.4801 564.506,41.4801 564.506,41.4801 564.506,41.4801 564.506,41.4801 
  564.506,41.4801 564.506,41.4801 564.506,41.4801 564.506,41.4801 564.506,41.4801 564.506,41.4801 564.506,41.4801 564.506,41.4801 564.506,41.4801 564.506,41.4801 
  564.506,41.4801 564.506,41.4801 564.506,41.4801 564.506,41.4801 564.506,41.4801 564.506,41.4801 564.506,41.4801 564.506,41.4801 564.506,41.4801 564.506,41.4801 
  564.506,41.4801 564.506,41.4801 564.506,41.4801 564.506,41.4801 564.506,41.4801 564.506,41.4801 564.506,41.4801 564.506,41.4801 564.506,41.4801 564.506,41.4801 
  564.506,41.4801 564.506,41.4801 564.506,41.4801 564.506,41.4801 564.506,41.4801 564.506,41.4801 564.506,41.4801 564.506,41.4801 564.506,41.4801 564.506,41.4801 
  
  "/>
<polyline clip-path="url(#clip8602)" style="stroke:#cc9e14; stroke-width:1; stroke-opacity:1; fill:none" stroke-dasharray="8, 5" points="
  554.95,47.9052 554.95,47.7877 554.95,47.6723 554.95,47.5591 554.951,47.4479 554.951,47.3387 554.951,47.2315 554.951,47.1263 554.951,47.023 554.951,46.9216 
  554.951,46.8221 554.951,46.7244 554.951,46.6284 554.951,46.5342 554.951,46.4418 554.951,46.351 554.951,46.2619 554.951,46.1744 554.951,46.0885 554.951,46.0042 
  554.951,45.9215 554.951,45.8402 554.952,45.7604 554.952,45.6821 554.952,45.6052 554.952,45.5298 554.952,45.4557 554.952,45.3829 554.952,45.3115 554.952,45.2414 
  554.952,45.1726 554.952,45.105 554.953,45.0387 554.953,44.9735 554.953,44.9096 554.953,44.8468 554.953,44.7852 554.953,44.7247 554.953,44.6654 554.953,44.6071 
  554.954,44.5498 554.954,44.4936 554.954,44.4385 554.954,44.3843 554.954,44.3312 554.954,44.279 554.955,44.2277 554.955,44.1774 554.955,44.1281 554.955,44.0796 
  554.955,44.032 554.956,43.9852 554.956,43.9394 554.956,43.8943 554.956,43.8501 554.957,43.8067 554.957,43.7641 554.957,43.7223 554.958,43.6812 554.958,43.6409 
  554.958,43.6013 554.958,43.5624 554.959,43.5243 554.959,43.4868 554.96,43.4501 554.96,43.414 554.96,43.3785 554.961,43.3437 554.961,43.3096 554.962,43.276 
  554.962,43.2431 554.963,43.2108 554.963,43.1791 554.964,43.1479 554.964,43.1173 554.965,43.0873 554.965,43.0578 554.966,43.0289 554.966,43.0004 554.967,42.9725 
  554.968,42.9452 554.968,42.9183 554.969,42.8919 554.97,42.8659 554.971,42.8405 554.971,42.8155 554.972,42.791 554.973,42.7669 554.974,42.7433 554.975,42.72 
  554.976,42.6972 554.977,42.6749 554.978,42.6529 554.979,42.6313 554.98,42.6102 554.981,42.5894 554.982,42.5689 554.984,42.5489 554.985,42.5292 554.986,42.5099 
  554.988,42.4909 554.989,42.4723 554.99,42.454 554.992,42.4361 554.994,42.4184 554.995,42.4011 554.997,42.3841 554.999,42.3674 555.001,42.351 555.003,42.335 
  555.005,42.3192 555.007,42.3036 555.009,42.2884 555.011,42.2735 555.013,42.2588 555.016,42.2444 555.018,42.2302 555.021,42.2163 555.023,42.2026 555.026,42.1892 
  555.029,42.1761 555.032,42.1631 555.035,42.1504 555.038,42.138 555.041,42.1257 555.045,42.1137 555.048,42.1019 555.052,42.0903 555.056,42.0789 555.06,42.0677 
  555.064,42.0568 555.068,42.046 555.073,42.0354 555.077,42.025 555.082,42.0148 555.087,42.0047 555.092,41.9949 555.097,41.9852 555.103,41.9757 555.108,41.9663 
  555.114,41.9572 555.12,41.9482 555.127,41.9393 555.133,41.9306 555.14,41.9221 555.147,41.9137 555.154,41.9055 555.162,41.8974 555.17,41.8894 555.178,41.8816 
  555.186,41.8739 555.195,41.8664 555.204,41.859 555.213,41.8517 555.223,41.8446 555.233,41.8375 555.243,41.8306 555.254,41.8239 555.265,41.8172 555.276,41.8106 
  555.288,41.8042 555.3,41.7979 555.313,41.7917 555.326,41.7856 555.34,41.7796 555.354,41.7737 555.368,41.7679 555.383,41.7622 555.399,41.7566 555.415,41.7511 
  555.432,41.7457 555.449,41.7404 555.467,41.7351 555.485,41.73 555.504,41.7249 555.524,41.72 555.544,41.7151 555.565,41.7103 555.586,41.7056 555.609,41.7009 
  555.632,41.6964 555.655,41.6919 555.68,41.6875 555.705,41.6831 555.731,41.6789 555.758,41.6747 555.786,41.6706 555.815,41.6665 555.844,41.6625 555.874,41.6586 
  555.906,41.6548 555.938,41.651 555.971,41.6472 556.005,41.6436 556.041,41.64 556.077,41.6364 556.114,41.6329 556.152,41.6295 556.192,41.6261 556.232,41.6228 
  556.274,41.6196 556.316,41.6164 556.36,41.6132 556.405,41.6101 556.451,41.607 556.499,41.604 556.547,41.6011 556.597,41.5982 556.648,41.5954 556.7,41.5926 
  556.753,41.5898 556.808,41.5871 556.864,41.5844 556.921,41.5818 556.979,41.5793 557.039,41.5767 557.1,41.5743 557.162,41.5718 557.225,41.5694 557.29,41.5671 
  557.356,41.5648 557.423,41.5625 557.491,41.5603 557.561,41.5581 557.631,41.556 557.703,41.5539 557.776,41.5518 557.85,41.5498 557.925,41.5478 558.001,41.5459 
  558.079,41.544 558.157,41.5421 558.236,41.5403 558.316,41.5385 558.397,41.5368 558.479,41.5351 558.561,41.5334 558.645,41.5318 558.729,41.5302 558.813,41.5286 
  558.899,41.5271 558.984,41.5256 559.071,41.5242 559.157,41.5227 559.244,41.5213 559.332,41.52 559.42,41.5187 559.508,41.5174 559.596,41.5161 559.684,41.5149 
  559.772,41.5137 559.86,41.5126 559.948,41.5115 560.036,41.5104 560.124,41.5093 560.211,41.5083 560.298,41.5073 560.385,41.5063 560.472,41.5054 560.557,41.5044 
  560.643,41.5036 560.727,41.5027 560.811,41.5019 560.895,41.5011 560.977,41.5003 561.059,41.4995 561.14,41.4988 561.22,41.4981 561.299,41.4974 561.377,41.4967 
  561.454,41.4961 561.531,41.4955 561.606,41.4949 561.68,41.4943 561.753,41.4938 561.824,41.4932 561.895,41.4927 561.965,41.4922 562.033,41.4918 562.1,41.4913 
  562.166,41.4909 562.23,41.4904 562.294,41.49 562.356,41.4896 562.417,41.4893 562.476,41.4889 562.535,41.4885 562.592,41.4882 562.648,41.4879 562.703,41.4876 
  562.756,41.4873 562.808,41.487 562.859,41.4867 562.909,41.4865 562.957,41.4862 563.005,41.486 563.051,41.4857 563.096,41.4855 563.14,41.4853 563.182,41.4851 
  563.224,41.4849 563.264,41.4847 563.304,41.4845 563.342,41.4844 563.379,41.4842 563.415,41.4841 563.45,41.4839 563.485,41.4838 563.518,41.4836 563.55,41.4835 
  563.581,41.4834 563.612,41.4832 563.641,41.4831 563.67,41.483 563.698,41.4829 563.725,41.4828 563.751,41.4827 563.776,41.4826 563.8,41.4825 563.824,41.4824 
  563.847,41.4823 563.87,41.4823 563.891,41.4822 563.912,41.4821 563.932,41.482 563.952,41.482 563.971,41.4819 563.989,41.4819 564.007,41.4818 564.024,41.4817 
  564.041,41.4817 564.057,41.4816 564.072,41.4816 564.087,41.4815 564.102,41.4815 564.116,41.4814 564.13,41.4814 564.143,41.4814 564.156,41.4813 564.168,41.4813 
  564.18,41.4812 564.191,41.4812 564.202,41.4812 564.213,41.4811 564.223,41.4811 564.233,41.4811 564.243,41.4811 564.252,41.481 564.261,41.481 564.27,41.481 
  564.278,41.4809 564.286,41.4809 564.294,41.4809 564.302,41.4809 564.309,41.4809 564.316,41.4808 564.323,41.4808 564.329,41.4808 564.335,41.4808 564.342,41.4808 
  564.347,41.4807 564.353,41.4807 564.359,41.4807 564.364,41.4807 564.369,41.4807 564.374,41.4807 564.379,41.4806 564.383,41.4806 564.388,41.4806 564.392,41.4806 
  564.396,41.4806 564.4,41.4806 564.404,41.4806 564.407,41.4806 564.411,41.4805 564.414,41.4805 564.418,41.4805 564.421,41.4805 564.424,41.4805 564.427,41.4805 
  564.43,41.4805 564.433,41.4805 564.435,41.4805 564.438,41.4805 564.44,41.4804 564.443,41.4804 564.445,41.4804 564.447,41.4804 564.449,41.4804 564.451,41.4804 
  564.453,41.4804 564.455,41.4804 564.457,41.4804 564.459,41.4804 564.461,41.4804 564.462,41.4804 564.464,41.4804 564.465,41.4804 564.467,41.4803 564.468,41.4803 
  564.47,41.4803 564.471,41.4803 564.472,41.4803 564.474,41.4803 564.475,41.4803 564.476,41.4803 564.477,41.4803 564.478,41.4803 564.479,41.4803 564.48,41.4803 
  564.481,41.4803 564.482,41.4803 564.483,41.4803 564.484,41.4803 564.484,41.4803 564.485,41.4803 564.486,41.4803 564.487,41.4803 564.487,41.4803 564.488,41.4802 
  564.489,41.4802 564.489,41.4802 564.49,41.4802 564.491,41.4802 564.491,41.4802 564.492,41.4802 564.492,41.4802 564.493,41.4802 564.493,41.4802 564.494,41.4802 
  564.494,41.4802 564.495,41.4802 564.495,41.4802 564.496,41.4802 564.496,41.4802 564.496,41.4802 564.497,41.4802 564.497,41.4802 564.497,41.4802 564.498,41.4802 
  564.498,41.4802 564.498,41.4802 564.499,41.4802 564.499,41.4802 564.499,41.4802 564.499,41.4802 564.5,41.4802 564.5,41.4802 564.5,41.4802 564.5,41.4802 
  564.501,41.4802 564.501,41.4802 564.501,41.4802 564.501,41.4802 564.501,41.4802 564.502,41.4802 564.502,41.4801 564.502,41.4801 564.502,41.4801 564.502,41.4801 
  564.502,41.4801 564.503,41.4801 564.503,41.4801 564.503,41.4801 564.503,41.4801 564.503,41.4801 564.503,41.4801 564.503,41.4801 564.503,41.4801 564.504,41.4801 
  564.504,41.4801 564.504,41.4801 564.504,41.4801 564.504,41.4801 564.504,41.4801 564.504,41.4801 564.504,41.4801 564.504,41.4801 564.504,41.4801 564.504,41.4801 
  564.505,41.4801 564.505,41.4801 564.505,41.4801 564.505,41.4801 564.505,41.4801 564.505,41.4801 564.505,41.4801 564.505,41.4801 564.505,41.4801 564.505,41.4801 
  564.505,41.4801 564.505,41.4801 564.505,41.4801 564.505,41.4801 564.505,41.4801 564.505,41.4801 564.505,41.4801 564.505,41.4801 564.505,41.4801 564.506,41.4801 
  
  "/>
<polyline clip-path="url(#clip8602)" style="stroke:#14cc2a; stroke-width:1; stroke-opacity:1; fill:none" stroke-dasharray="8, 5" points="
  492.734,87.7209 492.735,86.8751 492.735,86.0447 492.735,85.2295 492.736,84.4292 492.736,83.6436 492.736,82.8723 492.737,82.1151 492.737,81.3718 492.737,80.6421 
  492.738,79.9257 492.738,79.2223 492.738,78.5319 492.739,77.8541 492.739,77.1886 492.74,76.5354 492.74,75.8941 492.741,75.2645 492.741,74.6464 492.742,74.0396 
  492.742,73.4439 492.743,72.8591 492.743,72.285 492.744,71.7214 492.745,71.168 492.745,70.6248 492.746,70.0916 492.747,69.568 492.747,69.0541 492.748,68.5495 
  492.749,68.0542 492.75,67.5679 492.751,67.0905 492.752,66.6218 492.752,66.1617 492.753,65.71 492.754,65.2666 492.755,64.8313 492.756,64.4039 492.758,63.9843 
  492.759,63.5724 492.76,63.168 492.761,62.771 492.762,62.3813 492.764,61.9987 492.765,61.623 492.766,61.2543 492.768,60.8923 492.769,60.5368 492.771,60.1879 
  492.773,59.8454 492.774,59.5091 492.776,59.1789 492.778,58.8548 492.78,58.5366 492.782,58.2243 492.784,57.9176 492.786,57.6165 492.788,57.3209 492.791,57.0307 
  492.793,56.7458 492.795,56.4661 492.798,56.1916 492.801,55.922 492.803,55.6573 492.806,55.3975 492.809,55.1424 492.812,54.892 492.815,54.6462 492.819,54.4048 
  492.822,54.1678 492.826,53.9352 492.83,53.7068 492.833,53.4826 492.837,53.2624 492.841,53.0463 492.846,52.8341 492.85,52.6258 492.855,52.4213 492.86,52.2205 
  492.865,52.0233 492.87,51.8298 492.875,51.6398 492.881,51.4532 492.886,51.2701 492.892,51.0902 492.899,50.9137 492.905,50.7404 492.912,50.5702 492.919,50.4031 
  492.926,50.239 492.933,50.078 492.941,49.9199 492.949,49.7646 492.957,49.6122 492.966,49.4625 492.975,49.3156 492.984,49.1713 492.994,49.0297 493.004,48.8906 
  493.014,48.754 493.025,48.62 493.036,48.4883 493.047,48.3591 493.059,48.2322 493.072,48.1076 493.085,47.9852 493.098,47.8651 493.112,47.7471 493.126,47.6313 
  493.141,47.5176 493.157,47.4059 493.173,47.2963 493.189,47.1886 493.207,47.0829 493.225,46.9791 493.243,46.8771 493.262,46.777 493.282,46.6787 493.303,46.5822 
  493.325,46.4874 493.347,46.3944 493.37,46.303 493.394,46.2132 493.419,46.1251 493.444,46.0385 493.471,45.9535 493.499,45.87 493.528,45.788 493.557,45.7075 
  493.588,45.6285 493.62,45.5508 493.653,45.4745 493.688,45.3996 493.723,45.3261 493.76,45.2538 493.798,45.1829 493.838,45.1131 493.879,45.0447 493.922,44.9774 
  493.966,44.9114 494.012,44.8465 494.059,44.7828 494.108,44.7202 494.159,44.6587 494.212,44.5983 494.266,44.5389 494.323,44.4806 494.382,44.4234 494.442,44.3671 
  494.505,44.3118 494.57,44.2575 494.638,44.2042 494.708,44.1517 494.78,44.1002 494.855,44.0496 494.932,43.9999 495.013,43.951 495.096,43.903 495.182,43.8558 
  495.271,43.8095 495.363,43.7639 495.458,43.7191 495.557,43.6751 495.659,43.6319 495.765,43.5894 495.874,43.5476 495.987,43.5065 496.104,43.4662 496.224,43.4265 
  496.349,43.3875 496.478,43.3492 496.612,43.3115 496.75,43.2745 496.892,43.238 497.039,43.2022 497.192,43.167 497.349,43.1324 497.511,43.0984 497.678,43.0649 
  497.851,43.032 498.03,42.9997 498.214,42.9679 498.404,42.9366 498.6,42.9059 498.802,42.8756 499.01,42.8459 499.225,42.8166 499.447,42.7878 499.675,42.7595 
  499.91,42.7317 500.152,42.7044 500.402,42.6774 500.658,42.651 500.923,42.6249 501.194,42.5993 501.474,42.5742 501.762,42.5494 502.057,42.525 502.361,42.5011 
  502.673,42.4775 502.994,42.4544 503.323,42.4316 503.66,42.4092 504.007,42.3872 504.362,42.3655 504.727,42.3442 505.1,42.3233 505.483,42.3027 505.875,42.2824 
  506.276,42.2626 506.686,42.243 507.106,42.2238 507.535,42.2049 507.974,42.1864 508.421,42.1681 508.879,42.1502 509.346,42.1326 509.822,42.1153 510.307,42.0984 
  510.802,42.0817 511.306,42.0654 511.818,42.0493 512.34,42.0336 512.871,42.0181 513.41,42.003 513.958,41.9881 514.514,41.9735 515.078,41.9592 515.65,41.9452 
  516.23,41.9315 516.817,41.9181 517.411,41.9049 518.013,41.892 518.62,41.8794 519.234,41.8671 519.855,41.855 520.48,41.8432 521.111,41.8317 521.747,41.8204 
  522.387,41.8094 523.032,41.7986 523.68,41.7881 524.332,41.7779 524.986,41.7679 525.643,41.7581 526.302,41.7486 526.962,41.7394 527.623,41.7304 528.286,41.7216 
  528.948,41.7131 529.61,41.7048 530.272,41.6967 530.932,41.6889 531.591,41.6812 532.248,41.6738 532.902,41.6666 533.554,41.6597 534.202,41.6529 534.846,41.6464 
  535.487,41.64 536.122,41.6339 536.753,41.6279 537.379,41.6221 537.999,41.6166 538.613,41.6112 539.221,41.606 539.822,41.6009 540.417,41.5961 541.004,41.5914 
  541.584,41.5868 542.156,41.5825 542.72,41.5783 543.276,41.5742 543.824,41.5703 544.363,41.5665 544.894,41.5629 545.415,41.5594 545.928,41.5561 546.432,41.5528 
  546.927,41.5498 547.412,41.5468 547.888,41.5439 548.355,41.5412 548.812,41.5385 549.26,41.536 549.699,41.5336 550.128,41.5312 550.548,41.529 550.958,41.5269 
  551.359,41.5248 551.751,41.5229 552.134,41.521 552.507,41.5192 552.871,41.5175 553.227,41.5158 553.573,41.5143 553.911,41.5127 554.24,41.5113 554.561,41.5099 
  554.873,41.5086 555.177,41.5073 555.472,41.5061 555.76,41.505 556.039,41.5039 556.311,41.5028 556.575,41.5018 556.832,41.5009 557.081,41.5 557.324,41.4991 
  557.559,41.4983 557.787,41.4975 558.008,41.4967 558.223,41.496 558.432,41.4953 558.634,41.4947 558.83,41.494 559.02,41.4934 559.204,41.4929 559.382,41.4923 
  559.555,41.4918 559.723,41.4913 559.885,41.4908 560.042,41.4904 560.194,41.4899 560.341,41.4895 560.484,41.4891 560.622,41.4888 560.755,41.4884 560.884,41.4881 
  561.009,41.4878 561.13,41.4874 561.247,41.4871 561.36,41.4869 561.469,41.4866 561.575,41.4863 561.677,41.4861 561.775,41.4859 561.871,41.4856 561.963,41.4854 
  562.052,41.4852 562.138,41.485 562.221,41.4848 562.301,41.4847 562.379,41.4845 562.454,41.4843 562.526,41.4842 562.596,41.484 562.663,41.4839 562.729,41.4838 
  562.791,41.4836 562.852,41.4835 562.911,41.4834 562.967,41.4833 563.022,41.4832 563.075,41.4831 563.126,41.483 563.175,41.4829 563.222,41.4828 563.268,41.4827 
  563.312,41.4826 563.355,41.4825 563.396,41.4824 563.435,41.4824 563.474,41.4823 563.511,41.4822 563.546,41.4822 563.58,41.4821 563.614,41.482 563.646,41.482 
  563.676,41.4819 563.706,41.4819 563.735,41.4818 563.763,41.4818 563.789,41.4817 563.815,41.4817 563.84,41.4816 563.864,41.4816 563.887,41.4815 563.909,41.4815 
  563.931,41.4815 563.951,41.4814 563.971,41.4814 563.991,41.4814 564.009,41.4813 564.027,41.4813 564.044,41.4813 564.061,41.4812 564.077,41.4812 564.092,41.4812 
  564.107,41.4811 564.122,41.4811 564.136,41.4811 564.149,41.4811 564.162,41.481 564.174,41.481 564.186,41.481 564.198,41.481 564.209,41.481 564.22,41.4809 
  564.23,41.4809 564.24,41.4809 564.25,41.4809 564.259,41.4809 564.268,41.4808 564.277,41.4808 564.285,41.4808 564.293,41.4808 564.301,41.4808 564.308,41.4808 
  564.315,41.4807 564.322,41.4807 564.329,41.4807 564.335,41.4807 564.341,41.4807 564.347,41.4807 564.353,41.4807 564.359,41.4806 564.364,41.4806 564.369,41.4806 
  564.374,41.4806 564.379,41.4806 564.384,41.4806 564.388,41.4806 564.392,41.4806 564.396,41.4806 564.4,41.4805 564.404,41.4805 564.408,41.4805 564.411,41.4805 
  564.415,41.4805 564.418,41.4805 564.421,41.4805 564.424,41.4805 564.427,41.4805 564.43,41.4805 564.433,41.4805 564.436,41.4804 564.438,41.4804 564.441,41.4804 
  564.443,41.4804 564.445,41.4804 564.448,41.4804 564.45,41.4804 564.452,41.4804 564.454,41.4804 564.456,41.4804 564.458,41.4804 564.459,41.4804 564.461,41.4804 
  564.463,41.4804 564.464,41.4804 564.466,41.4803 564.467,41.4803 564.469,41.4803 564.47,41.4803 564.471,41.4803 564.473,41.4803 564.474,41.4803 564.475,41.4803 
  564.476,41.4803 564.477,41.4803 564.478,41.4803 564.479,41.4803 564.48,41.4803 564.481,41.4803 564.482,41.4803 564.483,41.4803 564.484,41.4803 564.485,41.4803 
  564.486,41.4803 564.486,41.4803 564.487,41.4803 564.488,41.4803 564.488,41.4802 564.489,41.4802 564.49,41.4802 564.49,41.4802 564.491,41.4802 564.491,41.4802 
  564.492,41.4802 564.493,41.4802 564.493,41.4802 564.494,41.4802 564.494,41.4802 564.494,41.4802 564.495,41.4802 564.495,41.4802 564.496,41.4802 564.496,41.4802 
  564.496,41.4802 564.497,41.4802 564.497,41.4802 564.498,41.4802 564.498,41.4802 564.498,41.4802 564.498,41.4802 564.499,41.4802 564.499,41.4802 564.499,41.4802 
  
  "/>
<polyline clip-path="url(#clip8602)" style="stroke:#1427cc; stroke-width:1; stroke-opacity:1; fill:none" stroke-dasharray="1, 2" points="
  39.3775,374.268 39.3795,368.181 39.3815,362.205 39.3837,356.338 39.3859,350.579 39.3882,344.924 39.3905,339.374 39.393,333.924 39.3955,328.575 39.3982,323.323 
  39.401,318.167 39.4038,313.105 39.4068,308.136 39.4098,303.258 39.413,298.469 39.4163,293.768 39.4198,289.152 39.4233,284.621 39.427,280.173 39.4309,275.806 
  39.4349,271.518 39.439,267.31 39.4433,263.178 39.4477,259.122 39.4523,255.139 39.4571,251.23 39.4621,247.392 39.4672,243.624 39.4726,239.926 39.4781,236.294 
  39.4839,232.729 39.4899,229.23 39.4961,225.794 39.5025,222.421 39.5092,219.11 39.5161,215.859 39.5233,212.667 39.5307,209.534 39.5385,206.458 39.5465,203.439 
  39.5548,200.474 39.5635,197.564 39.5724,194.707 39.5817,191.902 39.5914,189.148 39.6014,186.445 39.6118,183.791 39.6226,181.186 39.6337,178.628 39.6453,176.117 
  39.6574,173.651 39.6699,171.231 39.6828,168.855 39.6963,166.522 39.7102,164.232 39.7247,161.984 39.7397,159.777 39.7553,157.61 39.7715,155.483 39.7882,153.394 
  39.8057,151.344 39.8237,149.331 39.8424,147.355 39.8619,145.415 39.8821,143.51 39.903,141.64 39.9247,139.805 39.9472,138.002 39.9706,136.233 39.9948,134.496 
  40.02,132.79 40.0461,131.116 40.0732,129.472 40.1013,127.858 40.1304,126.274 40.1606,124.718 40.192,123.191 40.2246,121.692 40.2583,120.22 40.2934,118.775 
  40.3297,117.356 40.3674,115.963 40.4065,114.596 40.4471,113.253 40.4892,111.935 40.5329,110.641 40.5782,109.37 40.6252,108.122 40.674,106.898 40.7246,105.695 
  40.7771,104.514 40.8315,103.355 40.888,102.217 40.9466,101.1 41.0074,100.003 41.0705,98.9256 41.1359,97.8681 41.2037,96.8297 41.2741,95.8102 41.3471,94.8092 
  41.4229,93.8264 41.5014,92.8615 41.5829,91.914 41.6674,90.9837 41.7551,90.0703 41.8461,89.1735 41.9404,88.2929 42.0382,87.4282 42.1397,86.5793 42.245,85.7456 
  42.3542,84.9271 42.4674,84.1234 42.5848,83.3342 42.7066,82.5592 42.8329,81.7983 42.964,81.0511 43.0998,80.3174 43.2407,79.5969 43.3868,78.8895 43.5383,78.1947 
  43.6955,77.5125 43.8584,76.8426 44.0273,76.1847 44.2025,75.5387 44.3842,74.9042 44.5725,74.2812 44.7678,73.6694 44.9703,73.0685 45.1802,72.4784 45.3979,71.8988 
  45.6235,71.3297 45.8574,70.7707 46.0999,70.2217 46.3513,69.6825 46.6118,69.153 46.8819,68.6329 47.1618,68.122 47.452,67.6203 47.7527,67.1274 48.0643,66.6434 
  48.3873,66.1679 48.722,65.7008 49.0688,65.242 49.4282,64.7914 49.8005,64.3487 50.1863,63.9138 50.586,63.4866 51.0001,63.0669 51.429,62.6546 51.8733,62.2495 
  52.3335,61.8515 52.8101,61.4606 53.3037,61.0764 53.8149,60.699 54.3442,60.3282 54.8922,59.9638 55.4597,59.6057 56.0471,59.2539 56.6552,58.9082 57.2846,58.5685 
  57.936,58.2347 58.6102,57.9066 59.3078,57.5842 60.0296,57.2673 60.7764,56.9559 61.549,56.6498 62.3481,56.3489 63.1745,56.0532 64.0292,55.7626 64.913,55.4769 
  65.8266,55.196 66.7711,54.9199 67.7474,54.6485 68.7563,54.3817 69.7989,54.1194 70.876,53.8615 71.9887,53.608 73.1379,53.3587 74.3247,53.1136 75.5501,52.8726 
  76.8151,52.6356 78.1208,52.4026 79.4682,52.1734 80.8584,51.9481 82.2924,51.7265 83.7715,51.5086 85.2966,51.2943 86.8689,51.0836 88.4894,50.8763 90.1592,50.6724 
  91.8796,50.472 93.6515,50.2748 95.476,50.0809 97.3542,49.8901 99.2873,49.7025 101.276,49.518 103.322,49.3366 105.426,49.1581 107.588,48.9826 109.811,48.81 
  112.094,48.6402 114.439,48.4732 116.847,48.309 119.318,48.1475 121.854,47.9888 124.454,47.8326 127.12,47.6791 129.853,47.5282 132.652,47.3798 135.519,47.2339 
  138.453,47.0905 141.456,46.9496 144.527,46.811 147.667,46.6749 150.876,46.5411 154.154,46.4097 157.5,46.2806 160.915,46.1537 164.399,46.0292 167.95,45.9068 
  171.569,45.7867 175.255,45.6688 179.007,45.5531 182.825,45.4396 186.707,45.3282 190.652,45.2189 194.66,45.1117 198.728,45.0066 202.856,44.9036 207.042,44.8026 
  211.284,44.7037 215.58,44.6068 219.929,44.512 224.328,44.4191 228.775,44.3282 233.268,44.2393 237.805,44.1523 242.383,44.0672 247,43.9841 251.652,43.9029 
  256.337,43.8235 261.053,43.7461 265.795,43.6704 270.562,43.5967 275.35,43.5247 280.155,43.4545 284.976,43.3862 289.807,43.3196 294.647,43.2547 299.492,43.1916 
  304.339,43.1301 309.184,43.0704 314.024,43.0123 318.856,42.9559 323.676,42.901 328.482,42.8478 333.27,42.7961 338.036,42.746 342.779,42.6974 347.494,42.6504 
  352.179,42.6047 356.832,42.5606 361.448,42.5178 366.026,42.4764 370.563,42.4364 375.056,42.3978 379.504,42.3604 383.903,42.3243 388.252,42.2895 392.548,42.2559 
  396.79,42.2234 400.976,42.1922 405.103,42.1621 409.172,42.1331 413.179,42.1051 417.125,42.0782 421.007,42.0523 424.824,42.0275 428.576,42.0035 432.262,41.9805 
  435.881,41.9585 439.433,41.9373 442.916,41.9169 446.331,41.8974 449.678,41.8786 452.955,41.8606 456.164,41.8434 459.304,41.8269 462.375,41.8111 465.378,41.796 
  468.313,41.7815 471.18,41.7676 473.979,41.7543 476.711,41.7416 479.377,41.7295 481.978,41.7179 484.513,41.7068 486.984,41.6962 489.392,41.6861 491.737,41.6764 
  494.021,41.6672 496.243,41.6583 498.406,41.6499 500.51,41.6419 502.555,41.6343 504.544,41.627 506.477,41.62 508.355,41.6134 510.18,41.607 511.952,41.601 
  513.672,41.5953 515.342,41.5898 516.963,41.5846 518.535,41.5796 520.06,41.5749 521.539,41.5704 522.973,41.5661 524.363,41.562 525.711,41.5581 527.016,41.5544 
  528.281,41.5509 529.507,41.5475 530.694,41.5444 531.843,41.5413 532.955,41.5384 534.033,41.5357 535.075,41.5331 536.084,41.5306 537.06,41.5282 538.005,41.526 
  538.918,41.5238 539.802,41.5218 540.657,41.5199 541.483,41.518 542.282,41.5163 543.055,41.5146 543.802,41.513 544.524,41.5115 545.221,41.5101 545.895,41.5088 
  546.547,41.5075 547.176,41.5062 547.784,41.5051 548.372,41.5039 548.939,41.5029 549.487,41.5019 550.017,41.5009 550.528,41.5 551.021,41.4991 551.498,41.4983 
  551.958,41.4975 552.402,41.4968 552.831,41.4961 553.245,41.4954 553.645,41.4947 554.031,41.4941 554.403,41.4935 554.763,41.493 555.109,41.4925 555.444,41.492 
  555.767,41.4915 556.079,41.491 556.379,41.4906 556.67,41.4902 556.95,41.4898 557.22,41.4894 557.48,41.489 557.732,41.4887 557.974,41.4884 558.208,41.488 
  558.434,41.4877 558.651,41.4875 558.861,41.4872 559.064,41.4869 559.259,41.4867 559.447,41.4864 559.629,41.4862 559.804,41.486 559.973,41.4858 560.136,41.4856 
  560.293,41.4854 560.445,41.4852 560.591,41.485 560.732,41.4849 560.867,41.4847 560.999,41.4846 561.125,41.4844 561.247,41.4843 561.364,41.4841 561.477,41.484 
  561.586,41.4839 561.692,41.4838 561.793,41.4837 561.891,41.4835 561.985,41.4834 562.076,41.4833 562.164,41.4832 562.249,41.4831 562.33,41.4831 562.409,41.483 
  562.484,41.4829 562.557,41.4828 562.628,41.4827 562.696,41.4827 562.761,41.4826 562.824,41.4825 562.885,41.4825 562.943,41.4824 563,41.4823 563.054,41.4823 
  563.107,41.4822 563.157,41.4822 563.206,41.4821 563.253,41.482 563.299,41.482 563.342,41.482 563.384,41.4819 563.425,41.4819 563.464,41.4818 563.502,41.4818 
  563.538,41.4817 563.573,41.4817 563.607,41.4817 563.639,41.4816 563.671,41.4816 563.701,41.4815 563.73,41.4815 563.758,41.4815 563.785,41.4814 563.811,41.4814 
  563.837,41.4814 563.861,41.4814 563.884,41.4813 563.907,41.4813 563.928,41.4813 563.949,41.4812 563.97,41.4812 563.989,41.4812 564.008,41.4812 564.026,41.4811 
  564.043,41.4811 564.06,41.4811 564.076,41.4811 564.092,41.4811 564.107,41.481 564.121,41.481 564.135,41.481 564.149,41.481 564.162,41.481 564.174,41.4809 
  564.186,41.4809 564.198,41.4809 564.209,41.4809 564.22,41.4809 564.23,41.4808 564.24,41.4808 564.25,41.4808 564.259,41.4808 564.268,41.4808 564.277,41.4808 
  564.285,41.4808 564.293,41.4807 564.301,41.4807 564.308,41.4807 564.315,41.4807 564.322,41.4807 564.329,41.4807 564.335,41.4807 564.342,41.4807 564.348,41.4806 
  564.353,41.4806 564.359,41.4806 564.364,41.4806 564.369,41.4806 564.374,41.4806 564.379,41.4806 564.384,41.4806 564.388,41.4806 564.392,41.4805 564.397,41.4805 
  564.401,41.4805 564.404,41.4805 564.408,41.4805 564.412,41.4805 564.415,41.4805 564.418,41.4805 564.422,41.4805 564.425,41.4805 564.428,41.4805 564.431,41.4805 
  564.433,41.4804 564.436,41.4804 564.438,41.4804 564.441,41.4804 564.443,41.4804 564.446,41.4804 564.448,41.4804 564.45,41.4804 564.452,41.4804 564.454,41.4804 
  
  "/>
<polyline clip-path="url(#clip8602)" style="stroke:#000000; stroke-width:1; stroke-opacity:1; fill:none" stroke-dasharray="8, 5" points="
  564.56,41.4801 564.559,41.48 564.559,41.48 564.559,41.48 564.558,41.48 564.557,41.4799 564.556,41.4799 564.554,41.4799 564.553,41.4799 564.551,41.4799 
  564.549,41.4799 564.547,41.4798 564.545,41.4798 564.542,41.4798 564.54,41.4798 564.537,41.4798 564.534,41.4798 564.532,41.4798 564.528,41.4798 564.525,41.4797 
  564.522,41.4797 564.519,41.4797 564.516,41.4797 564.512,41.4797 564.509,41.4797 564.506,41.4797 564.502,41.4797 564.499,41.4797 564.496,41.4797 564.492,41.4797 
  564.489,41.4797 564.486,41.4797 564.483,41.4798 564.48,41.4798 564.477,41.4798 564.474,41.4798 564.472,41.4798 564.469,41.4798 564.467,41.4798 564.465,41.4798 
  564.463,41.4799 564.461,41.4799 564.459,41.4799 564.458,41.4799 564.457,41.4799 564.456,41.48 564.455,41.48 564.454,41.48 564.454,41.48 564.453,41.48 
  564.453,41.4801 564.454,41.4801 564.454,41.4801 564.455,41.4801 564.456,41.4801 564.457,41.4802 564.458,41.4802 564.459,41.4802 564.461,41.4802 564.463,41.4802 
  564.465,41.4803 564.467,41.4803 564.469,41.4803 564.472,41.4803 564.474,41.4803 564.477,41.4803 564.48,41.4803 564.483,41.4804 564.486,41.4804 564.489,41.4804 
  564.492,41.4804 564.496,41.4804 564.499,41.4804 564.502,41.4804 564.506,41.4804 564.509,41.4804 564.512,41.4804 564.516,41.4804 564.519,41.4804 564.522,41.4804 
  564.525,41.4804 564.528,41.4804 564.532,41.4803 564.534,41.4803 564.537,41.4803 564.54,41.4803 564.542,41.4803 564.545,41.4803 564.547,41.4803 564.549,41.4803 
  564.551,41.4802 564.553,41.4802 564.554,41.4802 564.556,41.4802 564.557,41.4802 564.558,41.4801 564.559,41.4801 564.559,41.4801 564.559,41.4801 564.56,41.4801 
  
  "/>
<polyline clip-path="url(#clip8602)" style="stroke:#000000; stroke-width:1; stroke-opacity:1; fill:none" stroke-dasharray="8, 5" points="
  564.506,41.4801 564.506,41.48 564.506,41.48 564.505,41.48 564.505,41.48 564.504,41.4799 564.503,41.4799 564.501,41.4799 564.5,41.4799 564.498,41.4799 
  564.496,41.4799 564.494,41.4798 564.492,41.4798 564.489,41.4798 564.487,41.4798 564.484,41.4798 564.481,41.4798 564.478,41.4798 564.475,41.4798 564.472,41.4797 
  564.469,41.4797 564.466,41.4797 564.463,41.4797 564.459,41.4797 564.456,41.4797 564.453,41.4797 564.449,41.4797 564.446,41.4797 564.443,41.4797 564.439,41.4797 
  564.436,41.4797 564.433,41.4797 564.43,41.4798 564.427,41.4798 564.424,41.4798 564.421,41.4798 564.419,41.4798 564.416,41.4798 564.414,41.4798 564.412,41.4798 
  564.41,41.4799 564.408,41.4799 564.406,41.4799 564.405,41.4799 564.404,41.4799 564.403,41.48 564.402,41.48 564.401,41.48 564.401,41.48 564.4,41.48 
  564.4,41.4801 564.401,41.4801 564.401,41.4801 564.402,41.4801 564.403,41.4801 564.404,41.4802 564.405,41.4802 564.406,41.4802 564.408,41.4802 564.41,41.4802 
  564.412,41.4803 564.414,41.4803 564.416,41.4803 564.419,41.4803 564.421,41.4803 564.424,41.4803 564.427,41.4803 564.43,41.4804 564.433,41.4804 564.436,41.4804 
  564.439,41.4804 564.443,41.4804 564.446,41.4804 564.449,41.4804 564.453,41.4804 564.456,41.4804 564.459,41.4804 564.463,41.4804 564.466,41.4804 564.469,41.4804 
  564.472,41.4804 564.475,41.4804 564.478,41.4803 564.481,41.4803 564.484,41.4803 564.487,41.4803 564.489,41.4803 564.492,41.4803 564.494,41.4803 564.496,41.4803 
  564.498,41.4802 564.5,41.4802 564.501,41.4802 564.503,41.4802 564.504,41.4802 564.505,41.4801 564.505,41.4801 564.506,41.4801 564.506,41.4801 564.506,41.4801 
  
  "/>
<polygon clip-path="url(#clip8600)" points="
216.304,188.456 562.315,188.456 562.315,52.3761 216.304,52.3761 
  " fill="#ffffff" fill-opacity="1"/>
<polyline clip-path="url(#clip8600)" style="stroke:#000000; stroke-width:1; stroke-opacity:1; fill:none" points="
  216.304,188.456 562.315,188.456 562.315,52.3761 216.304,52.3761 216.304,188.456 
  "/>
<polyline clip-path="url(#clip8600)" style="stroke:#cc1414; stroke-width:1; stroke-opacity:1; fill:none" points="
  222.304,67.4961 258.304,67.4961 
  "/>
<g clip-path="url(#clip8600)">
<text style="fill:#000000; fill-opacity:1; font-family:Arial,Helvetica Neue,Helvetica,sans-serif; font-size:12; text-anchor:start;" transform="rotate(0, 264.304, 71.9961)" x="264.304" y="71.9961">$k_p$ = -0.9,      $k_i$ = 0.01,      $k_d$ = 0.0</text>
</g>
<polyline clip-path="url(#clip8600)" style="stroke:#cc9e14; stroke-width:1; stroke-opacity:1; fill:none" points="
  222.304,82.6161 258.304,82.6161 
  "/>
<g clip-path="url(#clip8600)">
<text style="fill:#000000; fill-opacity:1; font-family:Arial,Helvetica Neue,Helvetica,sans-serif; font-size:12; text-anchor:start;" transform="rotate(0, 264.304, 87.1161)" x="264.304" y="87.1161">$k_p$ = -0.732,      $k_i$ = 0.072,      $k_d$ = 0.0</text>
</g>
<polyline clip-path="url(#clip8600)" style="stroke:#14cc2a; stroke-width:1; stroke-opacity:1; fill:none" points="
  222.304,97.7361 258.304,97.7361 
  "/>
<g clip-path="url(#clip8600)">
<text style="fill:#000000; fill-opacity:1; font-family:Arial,Helvetica Neue,Helvetica,sans-serif; font-size:12; text-anchor:start;" transform="rotate(0, 264.304, 102.236)" x="264.304" y="102.236">$k_p$ = -0.28,      $k_i$ = 0.518,      $k_d$ = 0.0</text>
</g>
<polyline clip-path="url(#clip8600)" style="stroke:#1427cc; stroke-width:1; stroke-opacity:1; fill:none" stroke-dasharray="8, 5" points="
  222.304,112.856 258.304,112.856 
  "/>
<g clip-path="url(#clip8600)">
<text style="fill:#000000; fill-opacity:1; font-family:Arial,Helvetica Neue,Helvetica,sans-serif; font-size:12; text-anchor:start;" transform="rotate(0, 264.304, 117.356)" x="264.304" y="117.356">$k_p$ = 0.931,      $k_i$ = 3.728,      $k_d$ = 0.0</text>
</g>
<polyline clip-path="url(#clip8600)" style="stroke:#cc1414; stroke-width:1; stroke-opacity:1; fill:none" stroke-dasharray="8, 5" points="
  222.304,127.976 258.304,127.976 
  "/>
<g clip-path="url(#clip8600)">
<text style="fill:#000000; fill-opacity:1; font-family:Arial,Helvetica Neue,Helvetica,sans-serif; font-size:12; text-anchor:start;" transform="rotate(0, 264.304, 132.476)" x="264.304" y="132.476">$k_p$ = 4.179,      $k_i$ = 26.827,      $k_d$ = 0.0</text>
</g>
<polyline clip-path="url(#clip8600)" style="stroke:#cc9e14; stroke-width:1; stroke-opacity:1; fill:none" stroke-dasharray="8, 5" points="
  222.304,143.096 258.304,143.096 
  "/>
<g clip-path="url(#clip8600)">
<text style="fill:#000000; fill-opacity:1; font-family:Arial,Helvetica Neue,Helvetica,sans-serif; font-size:12; text-anchor:start;" transform="rotate(0, 264.304, 147.596)" x="264.304" y="147.596">$k_p$ = 12.895,      $k_i$ = 193.07,      $k_d$ = 0.0</text>
</g>
<polyline clip-path="url(#clip8600)" style="stroke:#14cc2a; stroke-width:1; stroke-opacity:1; fill:none" stroke-dasharray="8, 5" points="
  222.304,158.216 258.304,158.216 
  "/>
<g clip-path="url(#clip8600)">
<text style="fill:#000000; fill-opacity:1; font-family:Arial,Helvetica Neue,Helvetica,sans-serif; font-size:12; text-anchor:start;" transform="rotate(0, 264.304, 162.716)" x="264.304" y="162.716">$k_p$ = 36.276,      $k_i$ = 1389.495,      $k_d$ = 0.0</text>
</g>
<polyline clip-path="url(#clip8600)" style="stroke:#1427cc; stroke-width:1; stroke-opacity:1; fill:none" stroke-dasharray="1, 2" points="
  222.304,173.336 258.304,173.336 
  "/>
<g clip-path="url(#clip8600)">
<text style="fill:#000000; fill-opacity:1; font-family:Arial,Helvetica Neue,Helvetica,sans-serif; font-size:12; text-anchor:start;" transform="rotate(0, 264.304, 177.836)" x="264.304" y="177.836">$k_p$ = 99.0,      $k_i$ = 10000.0,      $k_d$ = 0.0</text>
</g>
</svg>
