<?xml version="1.0" encoding="utf-8" standalone="no"?>
<!DOCTYPE svg PUBLIC "-//W3C//DTD SVG 1.1//EN"
  "http://www.w3.org/Graphics/SVG/1.1/DTD/svg11.dtd">
<!-- Created with matplotlib (http://matplotlib.org/) -->
<svg height="288pt" version="1.1" viewBox="0 0 432 288" width="432pt" xmlns="http://www.w3.org/2000/svg" xmlns:xlink="http://www.w3.org/1999/xlink">
 <defs>
  <style type="text/css">
*{stroke-linecap:butt;stroke-linejoin:round;stroke-miterlimit:100000;}
  </style>
 </defs>
 <g id="figure_1">
  <g id="patch_1">
   <path d="M 0 288 
L 432 288 
L 432 0 
L 0 0 
z
" style="fill:#ffffff;"/>
  </g>
  <g id="axes_1">
   <g id="patch_2">
    <path d="M 35.774646 273.965354 
L 429.165354 273.965354 
L 429.165354 18.634646 
L 35.774646 18.634646 
z
" style="fill:#ffffff;"/>
   </g>
   <g id="matplotlib.axis_1">
    <g id="xtick_1">
     <g id="line2d_1">
      <path clip-path="url(#pe56549e7a3)" d="M 35.774646 273.965354 
L 35.774646 18.634646 
" style="fill:none;stroke:#000000;stroke-dasharray:1.000000,3.000000;stroke-dashoffset:0.0;stroke-width:0.5;"/>
     </g>
     <g id="line2d_2">
      <defs>
       <path d="M 0 0 
L 0 -4 
" id="mae78cdcc3a" style="stroke:#000000;stroke-width:0.5;"/>
      </defs>
      <g>
       <use style="stroke:#000000;stroke-width:0.5;" x="35.7746456693" xlink:href="#mae78cdcc3a" y="273.965354331"/>
      </g>
     </g>
     <g id="line2d_3">
      <defs>
       <path d="M 0 0 
L 0 4 
" id="m564a93fe4d" style="stroke:#000000;stroke-width:0.5;"/>
      </defs>
      <g>
       <use style="stroke:#000000;stroke-width:0.5;" x="35.7746456693" xlink:href="#m564a93fe4d" y="18.6346456693"/>
      </g>
     </g>
     <g id="text_1">
      <!-- -20 -->
      <defs>
       <path d="M 19.1875 8.296875 
L 53.609375 8.296875 
L 53.609375 0 
L 7.328125 0 
L 7.328125 8.296875 
Q 12.9375 14.109375 22.625 23.890625 
Q 32.328125 33.6875 34.8125 36.53125 
Q 39.546875 41.84375 41.421875 45.53125 
Q 43.3125 49.21875 43.3125 52.78125 
Q 43.3125 58.59375 39.234375 62.25 
Q 35.15625 65.921875 28.609375 65.921875 
Q 23.96875 65.921875 18.8125 64.3125 
Q 13.671875 62.703125 7.8125 59.421875 
L 7.8125 69.390625 
Q 13.765625 71.78125 18.9375 73 
Q 24.125 74.21875 28.421875 74.21875 
Q 39.75 74.21875 46.484375 68.546875 
Q 53.21875 62.890625 53.21875 53.421875 
Q 53.21875 48.921875 51.53125 44.890625 
Q 49.859375 40.875 45.40625 35.40625 
Q 44.1875 33.984375 37.640625 27.21875 
Q 31.109375 20.453125 19.1875 8.296875 
" id="BitstreamVeraSans-Roman-32"/>
       <path d="M 31.78125 66.40625 
Q 24.171875 66.40625 20.328125 58.90625 
Q 16.5 51.421875 16.5 36.375 
Q 16.5 21.390625 20.328125 13.890625 
Q 24.171875 6.390625 31.78125 6.390625 
Q 39.453125 6.390625 43.28125 13.890625 
Q 47.125 21.390625 47.125 36.375 
Q 47.125 51.421875 43.28125 58.90625 
Q 39.453125 66.40625 31.78125 66.40625 
M 31.78125 74.21875 
Q 44.046875 74.21875 50.515625 64.515625 
Q 56.984375 54.828125 56.984375 36.375 
Q 56.984375 17.96875 50.515625 8.265625 
Q 44.046875 -1.421875 31.78125 -1.421875 
Q 19.53125 -1.421875 13.0625 8.265625 
Q 6.59375 17.96875 6.59375 36.375 
Q 6.59375 54.828125 13.0625 64.515625 
Q 19.53125 74.21875 31.78125 74.21875 
" id="BitstreamVeraSans-Roman-30"/>
       <path d="M 4.890625 31.390625 
L 31.203125 31.390625 
L 31.203125 23.390625 
L 4.890625 23.390625 
z
" id="BitstreamVeraSans-Roman-2d"/>
      </defs>
      <g transform="translate(29.2415206693 284.044104331)scale(0.08 -0.08)">
       <use xlink:href="#BitstreamVeraSans-Roman-2d"/>
       <use x="36.083984375" xlink:href="#BitstreamVeraSans-Roman-32"/>
       <use x="99.70703125" xlink:href="#BitstreamVeraSans-Roman-30"/>
      </g>
     </g>
    </g>
    <g id="xtick_2">
     <g id="line2d_4">
      <path clip-path="url(#pe56549e7a3)" d="M 129.4391 273.965354 
L 129.4391 18.634646 
" style="fill:none;stroke:#000000;stroke-dasharray:1.000000,3.000000;stroke-dashoffset:0.0;stroke-width:0.5;"/>
     </g>
     <g id="line2d_5">
      <g>
       <use style="stroke:#000000;stroke-width:0.5;" x="129.439100112" xlink:href="#mae78cdcc3a" y="273.965354331"/>
      </g>
     </g>
     <g id="line2d_6">
      <g>
       <use style="stroke:#000000;stroke-width:0.5;" x="129.439100112" xlink:href="#m564a93fe4d" y="18.6346456693"/>
      </g>
     </g>
     <g id="text_2">
      <!-- -15 -->
      <defs>
       <path d="M 12.40625 8.296875 
L 28.515625 8.296875 
L 28.515625 63.921875 
L 10.984375 60.40625 
L 10.984375 69.390625 
L 28.421875 72.90625 
L 38.28125 72.90625 
L 38.28125 8.296875 
L 54.390625 8.296875 
L 54.390625 0 
L 12.40625 0 
z
" id="BitstreamVeraSans-Roman-31"/>
       <path d="M 10.796875 72.90625 
L 49.515625 72.90625 
L 49.515625 64.59375 
L 19.828125 64.59375 
L 19.828125 46.734375 
Q 21.96875 47.46875 24.109375 47.828125 
Q 26.265625 48.1875 28.421875 48.1875 
Q 40.625 48.1875 47.75 41.5 
Q 54.890625 34.8125 54.890625 23.390625 
Q 54.890625 11.625 47.5625 5.09375 
Q 40.234375 -1.421875 26.90625 -1.421875 
Q 22.3125 -1.421875 17.546875 -0.640625 
Q 12.796875 0.140625 7.71875 1.703125 
L 7.71875 11.625 
Q 12.109375 9.234375 16.796875 8.0625 
Q 21.484375 6.890625 26.703125 6.890625 
Q 35.15625 6.890625 40.078125 11.328125 
Q 45.015625 15.765625 45.015625 23.390625 
Q 45.015625 31 40.078125 35.4375 
Q 35.15625 39.890625 26.703125 39.890625 
Q 22.75 39.890625 18.8125 39.015625 
Q 14.890625 38.140625 10.796875 36.28125 
z
" id="BitstreamVeraSans-Roman-35"/>
      </defs>
      <g transform="translate(122.905975112 284.044104331)scale(0.08 -0.08)">
       <use xlink:href="#BitstreamVeraSans-Roman-2d"/>
       <use x="36.083984375" xlink:href="#BitstreamVeraSans-Roman-31"/>
       <use x="99.70703125" xlink:href="#BitstreamVeraSans-Roman-35"/>
      </g>
     </g>
    </g>
    <g id="xtick_3">
     <g id="line2d_7">
      <path clip-path="url(#pe56549e7a3)" d="M 223.103555 273.965354 
L 223.103555 18.634646 
" style="fill:none;stroke:#000000;stroke-dasharray:1.000000,3.000000;stroke-dashoffset:0.0;stroke-width:0.5;"/>
     </g>
     <g id="line2d_8">
      <g>
       <use style="stroke:#000000;stroke-width:0.5;" x="223.103554556" xlink:href="#mae78cdcc3a" y="273.965354331"/>
      </g>
     </g>
     <g id="line2d_9">
      <g>
       <use style="stroke:#000000;stroke-width:0.5;" x="223.103554556" xlink:href="#m564a93fe4d" y="18.6346456693"/>
      </g>
     </g>
     <g id="text_3">
      <!-- -10 -->
      <g transform="translate(216.570429556 284.044104331)scale(0.08 -0.08)">
       <use xlink:href="#BitstreamVeraSans-Roman-2d"/>
       <use x="36.083984375" xlink:href="#BitstreamVeraSans-Roman-31"/>
       <use x="99.70703125" xlink:href="#BitstreamVeraSans-Roman-30"/>
      </g>
     </g>
    </g>
    <g id="xtick_4">
     <g id="line2d_10">
      <path clip-path="url(#pe56549e7a3)" d="M 316.768009 273.965354 
L 316.768009 18.634646 
" style="fill:none;stroke:#000000;stroke-dasharray:1.000000,3.000000;stroke-dashoffset:0.0;stroke-width:0.5;"/>
     </g>
     <g id="line2d_11">
      <g>
       <use style="stroke:#000000;stroke-width:0.5;" x="316.768008999" xlink:href="#mae78cdcc3a" y="273.965354331"/>
      </g>
     </g>
     <g id="line2d_12">
      <g>
       <use style="stroke:#000000;stroke-width:0.5;" x="316.768008999" xlink:href="#m564a93fe4d" y="18.6346456693"/>
      </g>
     </g>
     <g id="text_4">
      <!-- -5 -->
      <g transform="translate(312.779883999 284.044104331)scale(0.08 -0.08)">
       <use xlink:href="#BitstreamVeraSans-Roman-2d"/>
       <use x="36.083984375" xlink:href="#BitstreamVeraSans-Roman-35"/>
      </g>
     </g>
    </g>
    <g id="xtick_5">
     <g id="line2d_13">
      <path clip-path="url(#pe56549e7a3)" d="M 410.432463 273.965354 
L 410.432463 18.634646 
" style="fill:none;stroke:#000000;stroke-dasharray:1.000000,3.000000;stroke-dashoffset:0.0;stroke-width:0.5;"/>
     </g>
     <g id="line2d_14">
      <g>
       <use style="stroke:#000000;stroke-width:0.5;" x="410.432463442" xlink:href="#mae78cdcc3a" y="273.965354331"/>
      </g>
     </g>
     <g id="line2d_15">
      <g>
       <use style="stroke:#000000;stroke-width:0.5;" x="410.432463442" xlink:href="#m564a93fe4d" y="18.6346456693"/>
      </g>
     </g>
     <g id="text_5">
      <!-- 0 -->
      <g transform="translate(407.887463442 284.044104331)scale(0.08 -0.08)">
       <use xlink:href="#BitstreamVeraSans-Roman-30"/>
      </g>
     </g>
    </g>
   </g>
   <g id="matplotlib.axis_2">
    <g id="ytick_1">
     <g id="line2d_16">
      <path clip-path="url(#pe56549e7a3)" d="M 35.774646 273.965354 
L 429.165354 273.965354 
" style="fill:none;stroke:#000000;stroke-dasharray:1.000000,3.000000;stroke-dashoffset:0.0;stroke-width:0.5;"/>
     </g>
     <g id="line2d_17">
      <defs>
       <path d="M 0 0 
L 4 0 
" id="m12b9952c4d" style="stroke:#000000;stroke-width:0.5;"/>
      </defs>
      <g>
       <use style="stroke:#000000;stroke-width:0.5;" x="35.7746456693" xlink:href="#m12b9952c4d" y="273.965354331"/>
      </g>
     </g>
     <g id="line2d_18">
      <defs>
       <path d="M 0 0 
L -4 0 
" id="m18b9d1e0d6" style="stroke:#000000;stroke-width:0.5;"/>
      </defs>
      <g>
       <use style="stroke:#000000;stroke-width:0.5;" x="429.165354331" xlink:href="#m18b9d1e0d6" y="273.965354331"/>
      </g>
     </g>
     <g id="text_6">
      <!-- -20 -->
      <g transform="translate(18.7083956693 276.172854331)scale(0.08 -0.08)">
       <use xlink:href="#BitstreamVeraSans-Roman-2d"/>
       <use x="36.083984375" xlink:href="#BitstreamVeraSans-Roman-32"/>
       <use x="99.70703125" xlink:href="#BitstreamVeraSans-Roman-30"/>
      </g>
     </g>
    </g>
    <g id="ytick_2">
     <g id="line2d_19">
      <path clip-path="url(#pe56549e7a3)" d="M 35.774646 213.172328 
L 429.165354 213.172328 
" style="fill:none;stroke:#000000;stroke-dasharray:1.000000,3.000000;stroke-dashoffset:0.0;stroke-width:0.5;"/>
     </g>
     <g id="line2d_20">
      <g>
       <use style="stroke:#000000;stroke-width:0.5;" x="35.7746456693" xlink:href="#m12b9952c4d" y="213.172328459"/>
      </g>
     </g>
     <g id="line2d_21">
      <g>
       <use style="stroke:#000000;stroke-width:0.5;" x="429.165354331" xlink:href="#m18b9d1e0d6" y="213.172328459"/>
      </g>
     </g>
     <g id="text_7">
      <!-- -15 -->
      <g transform="translate(18.7083956693 215.379828459)scale(0.08 -0.08)">
       <use xlink:href="#BitstreamVeraSans-Roman-2d"/>
       <use x="36.083984375" xlink:href="#BitstreamVeraSans-Roman-31"/>
       <use x="99.70703125" xlink:href="#BitstreamVeraSans-Roman-35"/>
      </g>
     </g>
    </g>
    <g id="ytick_3">
     <g id="line2d_22">
      <path clip-path="url(#pe56549e7a3)" d="M 35.774646 152.379303 
L 429.165354 152.379303 
" style="fill:none;stroke:#000000;stroke-dasharray:1.000000,3.000000;stroke-dashoffset:0.0;stroke-width:0.5;"/>
     </g>
     <g id="line2d_23">
      <g>
       <use style="stroke:#000000;stroke-width:0.5;" x="35.7746456693" xlink:href="#m12b9952c4d" y="152.379302587"/>
      </g>
     </g>
     <g id="line2d_24">
      <g>
       <use style="stroke:#000000;stroke-width:0.5;" x="429.165354331" xlink:href="#m18b9d1e0d6" y="152.379302587"/>
      </g>
     </g>
     <g id="text_8">
      <!-- -10 -->
      <g transform="translate(18.7083956693 154.586802587)scale(0.08 -0.08)">
       <use xlink:href="#BitstreamVeraSans-Roman-2d"/>
       <use x="36.083984375" xlink:href="#BitstreamVeraSans-Roman-31"/>
       <use x="99.70703125" xlink:href="#BitstreamVeraSans-Roman-30"/>
      </g>
     </g>
    </g>
    <g id="ytick_4">
     <g id="line2d_25">
      <path clip-path="url(#pe56549e7a3)" d="M 35.774646 91.586277 
L 429.165354 91.586277 
" style="fill:none;stroke:#000000;stroke-dasharray:1.000000,3.000000;stroke-dashoffset:0.0;stroke-width:0.5;"/>
     </g>
     <g id="line2d_26">
      <g>
       <use style="stroke:#000000;stroke-width:0.5;" x="35.7746456693" xlink:href="#m12b9952c4d" y="91.5862767154"/>
      </g>
     </g>
     <g id="line2d_27">
      <g>
       <use style="stroke:#000000;stroke-width:0.5;" x="429.165354331" xlink:href="#m18b9d1e0d6" y="91.5862767154"/>
      </g>
     </g>
     <g id="text_9">
      <!-- -5 -->
      <g transform="translate(23.7983956693 93.7937767154)scale(0.08 -0.08)">
       <use xlink:href="#BitstreamVeraSans-Roman-2d"/>
       <use x="36.083984375" xlink:href="#BitstreamVeraSans-Roman-35"/>
      </g>
     </g>
    </g>
    <g id="ytick_5">
     <g id="line2d_28">
      <path clip-path="url(#pe56549e7a3)" d="M 35.774646 30.793251 
L 429.165354 30.793251 
" style="fill:none;stroke:#000000;stroke-dasharray:1.000000,3.000000;stroke-dashoffset:0.0;stroke-width:0.5;"/>
     </g>
     <g id="line2d_29">
      <g>
       <use style="stroke:#000000;stroke-width:0.5;" x="35.7746456693" xlink:href="#m12b9952c4d" y="30.7932508436"/>
      </g>
     </g>
     <g id="line2d_30">
      <g>
       <use style="stroke:#000000;stroke-width:0.5;" x="429.165354331" xlink:href="#m18b9d1e0d6" y="30.7932508436"/>
      </g>
     </g>
     <g id="text_10">
      <!-- 0 -->
      <g transform="translate(26.6846456693 33.0007508436)scale(0.08 -0.08)">
       <use xlink:href="#BitstreamVeraSans-Roman-30"/>
      </g>
     </g>
    </g>
    <g id="text_11">
     <!-- To: y(1) -->
     <defs>
      <path id="BitstreamVeraSans-Roman-20"/>
      <path d="M 8.015625 75.875 
L 15.828125 75.875 
Q 23.140625 64.359375 26.78125 53.3125 
Q 30.421875 42.28125 30.421875 31.390625 
Q 30.421875 20.453125 26.78125 9.375 
Q 23.140625 -1.703125 15.828125 -13.1875 
L 8.015625 -13.1875 
Q 14.5 -2 17.703125 9.0625 
Q 20.90625 20.125 20.90625 31.390625 
Q 20.90625 42.671875 17.703125 53.65625 
Q 14.5 64.65625 8.015625 75.875 
" id="BitstreamVeraSans-Roman-29"/>
      <path d="M 31 75.875 
Q 24.46875 64.65625 21.28125 53.65625 
Q 18.109375 42.671875 18.109375 31.390625 
Q 18.109375 20.125 21.3125 9.0625 
Q 24.515625 -2 31 -13.1875 
L 23.1875 -13.1875 
Q 15.875 -1.703125 12.234375 9.375 
Q 8.59375 20.453125 8.59375 31.390625 
Q 8.59375 42.28125 12.203125 53.3125 
Q 15.828125 64.359375 23.1875 75.875 
z
" id="BitstreamVeraSans-Roman-28"/>
      <path d="M 30.609375 48.390625 
Q 23.390625 48.390625 19.1875 42.75 
Q 14.984375 37.109375 14.984375 27.296875 
Q 14.984375 17.484375 19.15625 11.84375 
Q 23.34375 6.203125 30.609375 6.203125 
Q 37.796875 6.203125 41.984375 11.859375 
Q 46.1875 17.53125 46.1875 27.296875 
Q 46.1875 37.015625 41.984375 42.703125 
Q 37.796875 48.390625 30.609375 48.390625 
M 30.609375 56 
Q 42.328125 56 49.015625 48.375 
Q 55.71875 40.765625 55.71875 27.296875 
Q 55.71875 13.875 49.015625 6.21875 
Q 42.328125 -1.421875 30.609375 -1.421875 
Q 18.84375 -1.421875 12.171875 6.21875 
Q 5.515625 13.875 5.515625 27.296875 
Q 5.515625 40.765625 12.171875 48.375 
Q 18.84375 56 30.609375 56 
" id="BitstreamVeraSans-Roman-6f"/>
      <path d="M 11.71875 12.40625 
L 22.015625 12.40625 
L 22.015625 0 
L 11.71875 0 
z
M 11.71875 51.703125 
L 22.015625 51.703125 
L 22.015625 39.3125 
L 11.71875 39.3125 
z
" id="BitstreamVeraSans-Roman-3a"/>
      <path d="M -0.296875 72.90625 
L 61.375 72.90625 
L 61.375 64.59375 
L 35.5 64.59375 
L 35.5 0 
L 25.59375 0 
L 25.59375 64.59375 
L -0.296875 64.59375 
z
" id="BitstreamVeraSans-Roman-54"/>
      <path d="M 32.171875 -5.078125 
Q 28.375 -14.84375 24.75 -17.8125 
Q 21.140625 -20.796875 15.09375 -20.796875 
L 7.90625 -20.796875 
L 7.90625 -13.28125 
L 13.1875 -13.28125 
Q 16.890625 -13.28125 18.9375 -11.515625 
Q 21 -9.765625 23.484375 -3.21875 
L 25.09375 0.875 
L 2.984375 54.6875 
L 12.5 54.6875 
L 29.59375 11.921875 
L 46.6875 54.6875 
L 56.203125 54.6875 
z
" id="BitstreamVeraSans-Roman-79"/>
     </defs>
     <g transform="translate(11.4207394193 167.6571875)rotate(-90.0)scale(0.11 -0.11)">
      <use xlink:href="#BitstreamVeraSans-Roman-54"/>
      <use x="60.818359375" xlink:href="#BitstreamVeraSans-Roman-6f"/>
      <use x="122.0" xlink:href="#BitstreamVeraSans-Roman-3a"/>
      <use x="155.69140625" xlink:href="#BitstreamVeraSans-Roman-20"/>
      <use x="187.478515625" xlink:href="#BitstreamVeraSans-Roman-79"/>
      <use x="246.658203125" xlink:href="#BitstreamVeraSans-Roman-28"/>
      <use x="285.671875" xlink:href="#BitstreamVeraSans-Roman-31"/>
      <use x="349.294921875" xlink:href="#BitstreamVeraSans-Roman-29"/>
     </g>
    </g>
   </g>
   <g id="line2d_31">
    <path clip-path="url(#pe56549e7a3)" d="M 393.387237 42.841224 
L 393.499398 31.374717 
L 393.738082 30.055317 
L 394.132842 29.095828 
L 394.73367 28.222231 
L 395.531102 27.443699 
L 396.603148 26.715733 
L 397.9195 26.106484 
L 399.390559 25.67296 
L 401.046684 25.424047 
L 402.771313 25.399319 
L 404.427437 25.597752 
L 406.020286 26.019041 
L 407.403154 26.620284 
L 408.548885 27.36739 
L 409.408345 28.194792 
L 409.994749 29.062945 
L 410.334139 29.964642 
L 410.430759 30.683834 
L 410.430759 30.683834 
" style="fill:none;stroke:#cc1414;stroke-linecap:round;"/>
   </g>
   <g id="line2d_32">
    <path clip-path="url(#pe56549e7a3)" d="M 395.378363 118.199282 
L 395.489111 40.04866 
L 395.699682 35.289109 
L 396.013963 32.988829 
L 396.451603 31.433348 
L 396.986563 30.302665 
L 397.670056 29.346263 
L 398.574744 28.481448 
L 399.601917 27.803676 
L 400.807907 27.26554 
L 402.143077 26.900924 
L 403.666245 26.722957 
L 405.12891 26.770771 
L 406.535692 27.030374 
L 407.83727 27.501712 
L 408.875063 28.114587 
L 409.645653 28.823988 
L 410.153133 29.594939 
L 410.399088 30.374917 
L 410.430958 30.704292 
L 410.430958 30.704292 
" style="fill:none;stroke:#cc9e14;stroke-linecap:round;"/>
   </g>
   <g id="patch_3">
    <path d="M 35.774646 18.634646 
L 429.165354 18.634646 
" style="fill:none;stroke:#000000;stroke-linecap:square;stroke-linejoin:miter;"/>
   </g>
   <g id="patch_4">
    <path d="M 429.165354 273.965354 
L 429.165354 18.634646 
" style="fill:none;stroke:#000000;stroke-linecap:square;stroke-linejoin:miter;"/>
   </g>
   <g id="patch_5">
    <path d="M 35.774646 273.965354 
L 429.165354 273.965354 
" style="fill:none;stroke:#000000;stroke-linecap:square;stroke-linejoin:miter;"/>
   </g>
   <g id="patch_6">
    <path d="M 35.774646 273.965354 
L 35.774646 18.634646 
" style="fill:none;stroke:#000000;stroke-linecap:square;stroke-linejoin:miter;"/>
   </g>
   <g id="line2d_33">
    <path clip-path="url(#pe56549e7a3)" d="M 395.487588 289 
L 395.607794 97.383872 
L 395.811142 71.127334 
L 396.111507 58.798162 
L 396.475277 51.940231 
L 396.926141 47.160579 
L 397.485689 43.479563 
L 398.136055 40.629837 
L 398.843577 38.42728 
L 399.675188 36.515121 
L 400.621127 34.881592 
L 401.657813 33.518537 
L 402.886587 32.296489 
L 404.119101 31.382604 
L 405.413873 30.685995 
L 406.77005 30.205995 
L 408.082586 29.980177 
L 409.20903 30.012914 
L 409.98921 30.247852 
L 410.368173 30.572036 
L 410.430968 30.759178 
L 410.430968 30.759178 
" style="fill:none;stroke:#14cc2b;stroke-linecap:round;"/>
   </g>
   <g id="text_12">
    <!-- Nyquist curves -->
    <defs>
     <path d="M 9.8125 72.90625 
L 23.09375 72.90625 
L 55.421875 11.921875 
L 55.421875 72.90625 
L 64.984375 72.90625 
L 64.984375 0 
L 51.703125 0 
L 19.390625 60.984375 
L 19.390625 0 
L 9.8125 0 
z
" id="BitstreamVeraSans-Roman-4e"/>
     <path d="M 56.203125 29.59375 
L 56.203125 25.203125 
L 14.890625 25.203125 
Q 15.484375 15.921875 20.484375 11.0625 
Q 25.484375 6.203125 34.421875 6.203125 
Q 39.59375 6.203125 44.453125 7.46875 
Q 49.3125 8.734375 54.109375 11.28125 
L 54.109375 2.78125 
Q 49.265625 0.734375 44.1875 -0.34375 
Q 39.109375 -1.421875 33.890625 -1.421875 
Q 20.796875 -1.421875 13.15625 6.1875 
Q 5.515625 13.8125 5.515625 26.8125 
Q 5.515625 40.234375 12.765625 48.109375 
Q 20.015625 56 32.328125 56 
Q 43.359375 56 49.78125 48.890625 
Q 56.203125 41.796875 56.203125 29.59375 
M 47.21875 32.234375 
Q 47.125 39.59375 43.09375 43.984375 
Q 39.0625 48.390625 32.421875 48.390625 
Q 24.90625 48.390625 20.390625 44.140625 
Q 15.875 39.890625 15.1875 32.171875 
z
" id="BitstreamVeraSans-Roman-65"/>
     <path d="M 9.421875 54.6875 
L 18.40625 54.6875 
L 18.40625 0 
L 9.421875 0 
z
M 9.421875 75.984375 
L 18.40625 75.984375 
L 18.40625 64.59375 
L 9.421875 64.59375 
z
" id="BitstreamVeraSans-Roman-69"/>
     <path d="M 2.984375 54.6875 
L 12.5 54.6875 
L 29.59375 8.796875 
L 46.6875 54.6875 
L 56.203125 54.6875 
L 35.6875 0 
L 23.484375 0 
z
" id="BitstreamVeraSans-Roman-76"/>
     <path d="M 18.3125 70.21875 
L 18.3125 54.6875 
L 36.8125 54.6875 
L 36.8125 47.703125 
L 18.3125 47.703125 
L 18.3125 18.015625 
Q 18.3125 11.328125 20.140625 9.421875 
Q 21.96875 7.515625 27.59375 7.515625 
L 36.8125 7.515625 
L 36.8125 0 
L 27.59375 0 
Q 17.1875 0 13.234375 3.875 
Q 9.28125 7.765625 9.28125 18.015625 
L 9.28125 47.703125 
L 2.6875 47.703125 
L 2.6875 54.6875 
L 9.28125 54.6875 
L 9.28125 70.21875 
z
" id="BitstreamVeraSans-Roman-74"/>
     <path d="M 8.5 21.578125 
L 8.5 54.6875 
L 17.484375 54.6875 
L 17.484375 21.921875 
Q 17.484375 14.15625 20.5 10.265625 
Q 23.53125 6.390625 29.59375 6.390625 
Q 36.859375 6.390625 41.078125 11.03125 
Q 45.3125 15.671875 45.3125 23.6875 
L 45.3125 54.6875 
L 54.296875 54.6875 
L 54.296875 0 
L 45.3125 0 
L 45.3125 8.40625 
Q 42.046875 3.421875 37.71875 1 
Q 33.40625 -1.421875 27.6875 -1.421875 
Q 18.265625 -1.421875 13.375 4.4375 
Q 8.5 10.296875 8.5 21.578125 
" id="BitstreamVeraSans-Roman-75"/>
     <path d="M 41.109375 46.296875 
Q 39.59375 47.171875 37.8125 47.578125 
Q 36.03125 48 33.890625 48 
Q 26.265625 48 22.1875 43.046875 
Q 18.109375 38.09375 18.109375 28.8125 
L 18.109375 0 
L 9.078125 0 
L 9.078125 54.6875 
L 18.109375 54.6875 
L 18.109375 46.1875 
Q 20.953125 51.171875 25.484375 53.578125 
Q 30.03125 56 36.53125 56 
Q 37.453125 56 38.578125 55.875 
Q 39.703125 55.765625 41.0625 55.515625 
z
" id="BitstreamVeraSans-Roman-72"/>
     <path d="M 44.28125 53.078125 
L 44.28125 44.578125 
Q 40.484375 46.53125 36.375 47.5 
Q 32.28125 48.484375 27.875 48.484375 
Q 21.1875 48.484375 17.84375 46.4375 
Q 14.5 44.390625 14.5 40.28125 
Q 14.5 37.15625 16.890625 35.375 
Q 19.28125 33.59375 26.515625 31.984375 
L 29.59375 31.296875 
Q 39.15625 29.25 43.1875 25.515625 
Q 47.21875 21.78125 47.21875 15.09375 
Q 47.21875 7.46875 41.1875 3.015625 
Q 35.15625 -1.421875 24.609375 -1.421875 
Q 20.21875 -1.421875 15.453125 -0.5625 
Q 10.6875 0.296875 5.421875 2 
L 5.421875 11.28125 
Q 10.40625 8.6875 15.234375 7.390625 
Q 20.0625 6.109375 24.8125 6.109375 
Q 31.15625 6.109375 34.5625 8.28125 
Q 37.984375 10.453125 37.984375 14.40625 
Q 37.984375 18.0625 35.515625 20.015625 
Q 33.0625 21.96875 24.703125 23.78125 
L 21.578125 24.515625 
Q 13.234375 26.265625 9.515625 29.90625 
Q 5.8125 33.546875 5.8125 39.890625 
Q 5.8125 47.609375 11.28125 51.796875 
Q 16.75 56 26.8125 56 
Q 31.78125 56 36.171875 55.265625 
Q 40.578125 54.546875 44.28125 53.078125 
" id="BitstreamVeraSans-Roman-73"/>
     <path d="M 48.78125 52.59375 
L 48.78125 44.1875 
Q 44.96875 46.296875 41.140625 47.34375 
Q 37.3125 48.390625 33.40625 48.390625 
Q 24.65625 48.390625 19.8125 42.84375 
Q 14.984375 37.3125 14.984375 27.296875 
Q 14.984375 17.28125 19.8125 11.734375 
Q 24.65625 6.203125 33.40625 6.203125 
Q 37.3125 6.203125 41.140625 7.25 
Q 44.96875 8.296875 48.78125 10.40625 
L 48.78125 2.09375 
Q 45.015625 0.34375 40.984375 -0.53125 
Q 36.96875 -1.421875 32.421875 -1.421875 
Q 20.0625 -1.421875 12.78125 6.34375 
Q 5.515625 14.109375 5.515625 27.296875 
Q 5.515625 40.671875 12.859375 48.328125 
Q 20.21875 56 33.015625 56 
Q 37.15625 56 41.109375 55.140625 
Q 45.0625 54.296875 48.78125 52.59375 
" id="BitstreamVeraSans-Roman-63"/>
     <path d="M 14.796875 27.296875 
Q 14.796875 17.390625 18.875 11.75 
Q 22.953125 6.109375 30.078125 6.109375 
Q 37.203125 6.109375 41.296875 11.75 
Q 45.40625 17.390625 45.40625 27.296875 
Q 45.40625 37.203125 41.296875 42.84375 
Q 37.203125 48.484375 30.078125 48.484375 
Q 22.953125 48.484375 18.875 42.84375 
Q 14.796875 37.203125 14.796875 27.296875 
M 45.40625 8.203125 
Q 42.578125 3.328125 38.25 0.953125 
Q 33.9375 -1.421875 27.875 -1.421875 
Q 17.96875 -1.421875 11.734375 6.484375 
Q 5.515625 14.40625 5.515625 27.296875 
Q 5.515625 40.1875 11.734375 48.09375 
Q 17.96875 56 27.875 56 
Q 33.9375 56 38.25 53.625 
Q 42.578125 51.265625 45.40625 46.390625 
L 45.40625 54.6875 
L 54.390625 54.6875 
L 54.390625 -20.796875 
L 45.40625 -20.796875 
z
" id="BitstreamVeraSans-Roman-71"/>
    </defs>
    <g transform="translate(180.39 13.6346456693)scale(0.14 -0.14)">
     <use xlink:href="#BitstreamVeraSans-Roman-4e"/>
     <use x="74.8046875" xlink:href="#BitstreamVeraSans-Roman-79"/>
     <use x="133.984375" xlink:href="#BitstreamVeraSans-Roman-71"/>
     <use x="197.4609375" xlink:href="#BitstreamVeraSans-Roman-75"/>
     <use x="260.83984375" xlink:href="#BitstreamVeraSans-Roman-69"/>
     <use x="288.623046875" xlink:href="#BitstreamVeraSans-Roman-73"/>
     <use x="340.72265625" xlink:href="#BitstreamVeraSans-Roman-74"/>
     <use x="379.931640625" xlink:href="#BitstreamVeraSans-Roman-20"/>
     <use x="411.71875" xlink:href="#BitstreamVeraSans-Roman-63"/>
     <use x="466.69921875" xlink:href="#BitstreamVeraSans-Roman-75"/>
     <use x="530.078125" xlink:href="#BitstreamVeraSans-Roman-72"/>
     <use x="571.19140625" xlink:href="#BitstreamVeraSans-Roman-76"/>
     <use x="630.37109375" xlink:href="#BitstreamVeraSans-Roman-65"/>
     <use x="691.89453125" xlink:href="#BitstreamVeraSans-Roman-73"/>
    </g>
   </g>
   <g id="line2d_34">
    <path clip-path="url(#pe56549e7a3)" d="M 359.539886 289 
L 360.104084 247.892639 
L 360.682412 219.950918 
L 361.411812 195.219432 
L 362.182031 176.276131 
L 363.10992 159.184957 
L 364.020563 146.219939 
L 365.070426 134.313514 
L 366.271857 123.381472 
L 367.635132 113.350549 
L 368.847127 105.931885 
L 370.168805 99.02133 
L 371.599396 92.594213 
L 373.135443 86.628764 
L 374.770513 81.105577 
L 376.495037 76.007016 
L 378.296337 71.316583 
L 380.158851 67.018294 
L 382.06458 63.096089 
L 384.477249 58.696792 
L 386.885824 54.824508 
L 389.249963 51.441867 
L 391.975942 47.97242 
L 394.529855 45.077198 
L 397.239302 42.325715 
L 400.243514 39.602566 
L 403.400553 37.045588 
L 409.99645 31.855787 
L 410.368057 31.19171 
L 410.427225 30.906445 
L 410.427225 30.906445 
" style="fill:none;stroke:#1427cc;stroke-dasharray:6.000000,6.000000;stroke-dashoffset:0.0;"/>
   </g>
   <g id="line2d_35">
    <path clip-path="url(#pe56549e7a3)" d="M 158.977005 289 
L 165.296022 276.374746 
L 172.977721 261.853001 
L 180.727406 248.013337 
L 188.524629 234.841023 
L 196.348431 222.320768 
L 204.177562 210.436653 
L 211.990718 199.172101 
L 219.766766 188.509852 
L 227.484973 178.431971 
L 235.125228 168.919876 
L 242.668241 159.954381 
L 250.095733 151.515756 
L 257.390597 143.583812 
L 264.537041 136.137982 
L 271.520698 129.157428 
L 278.328713 122.621144 
L 284.9498 116.508064 
L 291.374274 110.797176 
L 300.625091 102.939404 
L 309.39508 95.870529 
L 317.671263 89.523416 
L 325.447776 83.833591 
L 332.72518 78.739742 
L 341.663425 72.775723 
L 349.753572 67.642647 
L 358.734356 62.222719 
L 367.977745 56.927275 
L 378.003949 51.467575 
L 391.166292 44.604319 
L 400.654604 39.573101 
L 404.546015 37.274171 
L 407.028835 35.561888 
L 408.608467 34.21023 
L 409.590372 33.083856 
L 410.143398 32.125053 
L 410.390042 31.301692 
L 410.390042 31.301692 
" style="fill:none;stroke:#cc1414;stroke-dasharray:6.000000,6.000000;stroke-dashoffset:0.0;"/>
   </g>
   <g id="line2d_36">
    <path clip-path="url(#pe56549e7a3)" d="M -1 188.705523 
L 12.289568 182.632265 
L 37.494742 171.363452 
L 61.291391 161.022542 
L 83.73484 151.53407 
L 104.881257 142.827907 
L 124.787166 134.839031 
L 143.50902 127.507275 
L 169.494013 117.621382 
L 193.126219 108.9205 
L 214.585323 101.255124 
L 240.113813 92.420596 
L 262.469551 84.927615 
L 286.491943 77.111044 
L 313.90837 68.44389 
L 375.452884 49.161 
L 385.267274 45.797642 
L 392.342906 43.164047 
L 397.90606 40.858653 
L 401.762774 39.035168 
L 404.651193 37.443067 
L 406.852405 35.977894 
L 408.373707 34.699634 
L 409.372828 33.583876 
L 410.011313 32.547763 
L 410.094978 32.363288 
L 410.094978 32.363288 
" style="fill:none;stroke:#cc9e14;stroke-dasharray:6.000000,6.000000;stroke-dashoffset:0.0;"/>
   </g>
   <g id="line2d_37">
    <path clip-path="url(#pe56549e7a3)" d="M -1 121.747461 
L 45.672455 112.691391 
L 106.412977 101.127939 
L 183.457054 86.719587 
L 269.488445 70.613461 
L 301.446036 64.424092 
L 326.181793 59.420778 
L 345.317961 55.320694 
L 360.116316 51.919513 
L 371.556669 49.067905 
L 380.398924 46.655274 
L 388.071959 44.329818 
L 393.785959 42.3765 
L 398.489417 40.537359 
L 402.174791 38.851877 
L 404.930064 37.344761 
L 406.898996 36.028038 
L 407.897745 35.22035 
L 407.897745 35.22035 
" style="fill:none;stroke:#14cc2b;stroke-dasharray:6.000000,6.000000;stroke-dashoffset:0.0;"/>
   </g>
   <g id="line2d_38">
    <path clip-path="url(#pe56549e7a3)" d="M -1 100.13997 
L 68.440889 92.068649 
L 125.992854 85.202816 
L 173.872077 79.295671 
L 213.700435 74.177461 
L 246.829037 69.713925 
L 274.383059 65.798237 
L 297.299277 62.344828 
L 316.357437 59.284666 
L 335.040382 56.05328 
L 350.014175 53.229744 
L 362.014765 50.751784 
L 373.038154 48.231117 
L 381.55221 46.048605 
L 388.127991 44.15278 
L 391.886883 42.95064 
L 391.886883 42.95064 
" style="fill:none;stroke:#1427cc;stroke-dasharray:1.000000,3.000000;stroke-dashoffset:0.0;"/>
   </g>
   <g id="line2d_39">
    <path clip-path="url(#pe56549e7a3)" d="M 429.165354 30.793251 
L 429.127639 30.022104 
L 429.014645 29.254063 
L 428.826827 28.49222 
L 428.564941 27.739642 
L 428.230042 26.999359 
L 427.823479 26.274354 
L 427.346888 25.567544 
L 426.802188 24.881777 
L 426.191574 24.219813 
L 425.517503 23.584317 
L 424.78269 22.97785 
L 423.990094 22.402853 
L 423.142906 21.86164 
L 422.244538 21.356392 
L 421.298606 20.889143 
L 420.308921 20.461775 
L 419.279466 20.076007 
L 418.214388 19.733395 
L 417.117974 19.435316 
L 415.99464 19.182972 
L 414.84891 18.977378 
L 413.685396 18.819362 
L 412.508783 18.709561 
L 411.32381 18.648417 
L 410.135248 18.636176 
L 408.947883 18.672887 
L 407.766495 18.758403 
L 406.595842 18.892378 
L 405.440639 19.074275 
L 404.305535 19.303359 
L 403.195102 19.578709 
L 402.113812 19.899216 
L 401.066018 20.26359 
L 400.055939 20.670363 
L 399.087643 21.117897 
L 398.165029 21.60439 
L 397.291811 22.127884 
L 396.471506 22.68627 
L 395.707417 23.2773 
L 395.00262 23.898594 
L 394.359954 24.54765 
L 393.782006 25.221855 
L 393.271104 25.918495 
L 392.829304 26.634763 
L 392.458386 27.367776 
L 392.159844 28.114582 
L 391.934878 28.872174 
L 391.784397 29.637502 
L 391.709004 30.407483 
L 391.709004 31.179018 
L 391.784397 31.949 
L 391.934878 32.714327 
L 392.159844 33.47192 
L 392.458386 34.218726 
L 392.829304 34.951739 
L 393.271104 35.668007 
L 393.782006 36.364646 
L 394.359954 37.038851 
L 395.00262 37.687908 
L 395.707417 38.309202 
L 396.471506 38.900232 
L 397.291811 39.458618 
L 398.165029 39.982112 
L 399.087643 40.468605 
L 400.055939 40.916139 
L 401.066018 41.322912 
L 402.113812 41.687285 
L 403.195102 42.007793 
L 404.305535 42.283143 
L 405.440639 42.512227 
L 406.595842 42.694123 
L 407.766495 42.828099 
L 408.947883 42.913614 
L 410.135248 42.950326 
L 411.32381 42.938084 
L 412.508783 42.87694 
L 413.685396 42.767139 
L 414.84891 42.609124 
L 415.99464 42.40353 
L 417.117974 42.151186 
L 418.214388 41.853107 
L 419.279466 41.510494 
L 420.308921 41.124727 
L 421.298606 40.697358 
L 422.244538 40.230109 
L 423.142906 39.724861 
L 423.990094 39.183649 
L 424.78269 38.608652 
L 425.517503 38.002184 
L 426.191574 37.366689 
L 426.802188 36.704725 
L 427.346888 36.018957 
L 427.823479 35.312148 
L 428.230042 34.587142 
L 428.564941 33.84686 
L 428.826827 33.094282 
L 429.014645 32.332439 
L 429.127639 31.564397 
L 429.165354 30.793251 
" style="fill:none;stroke:#000000;stroke-dasharray:6.000000,6.000000;stroke-dashoffset:0.0;"/>
   </g>
   <g id="line2d_40">
    <path clip-path="url(#pe56549e7a3)" d="M 410.432463 30.793251 
L 410.394748 30.022104 
L 410.281754 29.254063 
L 410.093936 28.49222 
L 409.83205 27.739642 
L 409.497151 26.999359 
L 409.090588 26.274354 
L 408.613997 25.567544 
L 408.069298 24.881777 
L 407.458683 24.219813 
L 406.784612 23.584317 
L 406.0498 22.97785 
L 405.257203 22.402853 
L 404.410015 21.86164 
L 403.511647 21.356392 
L 402.565715 20.889143 
L 401.57603 20.461775 
L 400.546575 20.076007 
L 399.481497 19.733395 
L 398.385083 19.435316 
L 397.26175 19.182972 
L 396.116019 18.977378 
L 394.952505 18.819362 
L 393.775892 18.709561 
L 392.590919 18.648417 
L 391.402357 18.636176 
L 390.214992 18.672887 
L 389.033604 18.758403 
L 387.862952 18.892378 
L 386.707748 19.074275 
L 385.572644 19.303359 
L 384.462211 19.578709 
L 383.380921 19.899216 
L 382.333127 20.26359 
L 381.323048 20.670363 
L 380.354752 21.117897 
L 379.432138 21.60439 
L 378.55892 22.127884 
L 377.738615 22.68627 
L 376.974526 23.2773 
L 376.269729 23.898594 
L 375.627063 24.54765 
L 375.049115 25.221855 
L 374.538213 25.918495 
L 374.096413 26.634763 
L 373.725495 27.367776 
L 373.426953 28.114582 
L 373.201988 28.872174 
L 373.051506 29.637502 
L 372.976113 30.407483 
L 372.976113 31.179018 
L 373.051506 31.949 
L 373.201988 32.714327 
L 373.426953 33.47192 
L 373.725495 34.218726 
L 374.096413 34.951739 
L 374.538213 35.668007 
L 375.049115 36.364646 
L 375.627063 37.038851 
L 376.269729 37.687908 
L 376.974526 38.309202 
L 377.738615 38.900232 
L 378.55892 39.458618 
L 379.432138 39.982112 
L 380.354752 40.468605 
L 381.323048 40.916139 
L 382.333127 41.322912 
L 383.380921 41.687285 
L 384.462211 42.007793 
L 385.572644 42.283143 
L 386.707748 42.512227 
L 387.862952 42.694123 
L 389.033604 42.828099 
L 390.214992 42.913614 
L 391.402357 42.950326 
L 392.590919 42.938084 
L 393.775892 42.87694 
L 394.952505 42.767139 
L 396.116019 42.609124 
L 397.26175 42.40353 
L 398.385083 42.151186 
L 399.481497 41.853107 
L 400.546575 41.510494 
L 401.57603 41.124727 
L 402.565715 40.697358 
L 403.511647 40.230109 
L 404.410015 39.724861 
L 405.257203 39.183649 
L 406.0498 38.608652 
L 406.784612 38.002184 
L 407.458683 37.366689 
L 408.069298 36.704725 
L 408.613997 36.018957 
L 409.090588 35.312148 
L 409.497151 34.587142 
L 409.83205 33.84686 
L 410.093936 33.094282 
L 410.281754 32.332439 
L 410.394748 31.564397 
L 410.432463 30.793251 
" style="fill:none;stroke:#ff0000;stroke-dasharray:6.000000,6.000000;stroke-dashoffset:0.0;"/>
   </g>
   <g id="legend_1">
    <g id="patch_7">
     <path d="M 39.774646 269.965354 
L 186.494646 269.965354 
L 186.494646 167.095354 
L 39.774646 167.095354 
z
" style="fill:#ffffff;stroke:#000000;stroke-linejoin:miter;"/>
    </g>
    <g id="line2d_41">
     <path d="M 45.374646 173.574104 
L 56.574646 173.574104 
" style="fill:none;stroke:#cc1414;stroke-linecap:round;"/>
    </g>
    <g id="line2d_42"/>
    <g id="text_13">
     <!-- $k_p = -0.9, \quad k_i = 0.01, \quad k_d = 0.0$ -->
     <defs>
      <path d="M 9.28125 0 
L 9.28125 3.515625 
Q 21.78125 3.515625 21.78125 6.6875 
L 21.78125 59.1875 
Q 16.609375 56.6875 8.6875 56.6875 
L 8.6875 60.203125 
Q 20.953125 60.203125 27.203125 66.609375 
L 28.609375 66.609375 
Q 28.953125 66.609375 29.265625 66.328125 
Q 29.59375 66.0625 29.59375 65.71875 
L 29.59375 6.6875 
Q 29.59375 3.515625 42.09375 3.515625 
L 42.09375 0 
z
" id="Cmr10-31"/>
      <path d="M 10.203125 23 
Q 9.375 23 8.828125 23.625 
Q 8.296875 24.265625 8.296875 25 
Q 8.296875 25.734375 8.828125 26.359375 
Q 9.375 27 10.203125 27 
L 67.578125 27 
Q 68.359375 27 68.875 26.359375 
Q 69.390625 25.734375 69.390625 25 
Q 69.390625 24.265625 68.875 23.625 
Q 68.359375 23 67.578125 23 
z
" id="Cmsy10-a1"/>
      <path d="M 11.28125 4.203125 
Q 14.015625 0.984375 20.796875 0.984375 
Q 24.609375 0.984375 27.90625 3.5625 
Q 31.203125 6.15625 33.015625 9.90625 
Q 35.109375 14.15625 35.6875 18.96875 
Q 36.28125 23.78125 36.28125 30.90625 
Q 34.578125 26.859375 31.375 24.265625 
Q 28.171875 21.6875 24.03125 21.6875 
Q 18.21875 21.6875 13.640625 24.828125 
Q 9.078125 27.984375 6.640625 33.125 
Q 4.203125 38.28125 4.203125 44.09375 
Q 4.203125 50.09375 6.9375 55.296875 
Q 9.671875 60.5 14.5 63.546875 
Q 19.34375 66.609375 25.484375 66.609375 
Q 31.546875 66.609375 35.625 63.3125 
Q 39.703125 60.015625 41.84375 54.8125 
Q 44 49.609375 44.84375 43.796875 
Q 45.703125 37.984375 45.703125 32.328125 
Q 45.703125 24.609375 42.875 16.578125 
Q 40.046875 8.546875 34.40625 3.171875 
Q 28.765625 -2.203125 20.796875 -2.203125 
Q 14.890625 -2.203125 10.78125 0.578125 
Q 6.6875 3.375 6.6875 8.984375 
Q 6.6875 11.03125 8.078125 12.421875 
Q 9.46875 13.8125 11.53125 13.8125 
Q 13.53125 13.8125 14.921875 12.421875 
Q 16.3125 11.03125 16.3125 8.984375 
Q 16.3125 7.03125 14.890625 5.609375 
Q 13.484375 4.203125 11.53125 4.203125 
z
M 24.421875 24.3125 
Q 28.515625 24.3125 31.125 27.0625 
Q 33.734375 29.828125 34.90625 33.921875 
Q 36.078125 38.03125 36.078125 42.09375 
L 36.078125 44 
L 36.078125 44.390625 
Q 36.078125 51.90625 33.875 57.8125 
Q 31.6875 63.71875 25.484375 63.71875 
Q 21.53125 63.71875 19.0625 61.984375 
Q 16.609375 60.25 15.4375 57.375 
Q 14.265625 54.5 13.9375 51.21875 
Q 13.625 47.953125 13.625 44.09375 
Q 13.625 38.421875 14.15625 34.421875 
Q 14.703125 30.421875 17.09375 27.359375 
Q 19.484375 24.3125 24.421875 24.3125 
" id="Cmr10-39"/>
      <path d="M -2.484375 -19.390625 
Q -3.421875 -19.390625 -3.421875 -18.109375 
Q -3.078125 -15.921875 -2.09375 -15.921875 
Q 1.03125 -15.921875 2.265625 -15.359375 
Q 3.515625 -14.796875 4.203125 -12.5 
L 15.484375 32.515625 
Q 16.21875 34.375 16.21875 37.3125 
Q 16.21875 41.609375 13.28125 41.609375 
Q 10.15625 41.609375 8.640625 37.859375 
Q 7.125 34.125 5.71875 28.421875 
Q 5.71875 27.78125 4.890625 27.78125 
L 3.71875 27.78125 
Q 3.46875 27.78125 3.171875 28.140625 
Q 2.875 28.515625 2.875 28.8125 
Q 3.953125 33.15625 4.953125 36.171875 
Q 5.953125 39.203125 8.078125 41.6875 
Q 10.203125 44.1875 13.375 44.1875 
Q 16.796875 44.1875 19.375 42.25 
Q 21.96875 40.328125 22.703125 37.015625 
Q 25.4375 40.1875 28.75 42.1875 
Q 32.078125 44.1875 35.59375 44.1875 
Q 39.796875 44.1875 42.890625 41.9375 
Q 46 39.703125 47.5625 36.0625 
Q 49.125 32.421875 49.125 28.21875 
Q 49.125 21.78125 45.828125 14.890625 
Q 42.53125 8.015625 36.890625 3.4375 
Q 31.25 -1.125 24.8125 -1.125 
Q 21.875 -1.125 19.5 0.53125 
Q 17.140625 2.203125 15.828125 4.890625 
L 11.28125 -12.890625 
Q 11.03125 -14.359375 10.984375 -14.59375 
Q 10.984375 -15.921875 17.578125 -15.921875 
Q 18.609375 -15.921875 18.609375 -17.1875 
Q 18.265625 -18.5 18.046875 -18.9375 
Q 17.828125 -19.390625 16.890625 -19.390625 
z
M 24.90625 1.515625 
Q 28.375 1.515625 31.34375 4.375 
Q 34.328125 7.234375 36.1875 10.796875 
Q 37.546875 13.484375 38.734375 17.359375 
Q 39.9375 21.234375 40.8125 25.625 
Q 41.703125 30.03125 41.703125 32.625 
Q 41.703125 34.90625 41.09375 36.90625 
Q 40.484375 38.921875 39.09375 40.265625 
Q 37.703125 41.609375 35.40625 41.609375 
Q 31.734375 41.609375 28.484375 38.984375 
Q 25.25 36.375 22.609375 32.515625 
L 22.609375 32.171875 
L 17.09375 10.109375 
Q 17.78125 6.546875 19.734375 4.03125 
Q 21.6875 1.515625 24.90625 1.515625 
" id="Cmmi10-70"/>
      <path d="M 5.328125 1.8125 
Q 5.328125 2.390625 5.421875 2.6875 
L 19.921875 60.5 
Q 20.3125 62.203125 20.40625 63.1875 
Q 20.40625 64.796875 13.921875 64.796875 
Q 12.890625 64.796875 12.890625 66.109375 
Q 12.9375 66.359375 13.109375 66.984375 
Q 13.28125 67.625 13.546875 67.96875 
Q 13.8125 68.3125 14.3125 68.3125 
L 27.78125 69.390625 
L 28.078125 69.390625 
Q 28.078125 69.28125 28.421875 69.109375 
Q 28.765625 68.953125 28.8125 68.890625 
Q 29 68.40625 29 68.109375 
L 18.5 26.3125 
Q 22.125 27.828125 27.609375 33.515625 
Q 33.109375 39.203125 36.203125 41.6875 
Q 39.3125 44.1875 44 44.1875 
Q 46.78125 44.1875 48.734375 42.28125 
Q 50.6875 40.375 50.6875 37.59375 
Q 50.6875 35.84375 49.953125 34.34375 
Q 49.21875 32.859375 47.890625 31.921875 
Q 46.578125 31 44.828125 31 
Q 43.21875 31 42.109375 32 
Q 41.015625 33.015625 41.015625 34.625 
Q 41.015625 37.015625 42.703125 38.640625 
Q 44.390625 40.28125 46.78125 40.28125 
Q 45.796875 41.609375 43.796875 41.609375 
Q 40.828125 41.609375 38.0625 39.890625 
Q 35.296875 38.1875 32.09375 34.984375 
Q 28.90625 31.78125 26.265625 29.125 
Q 23.640625 26.46875 21.390625 25.09375 
Q 27.296875 24.421875 31.640625 22 
Q 35.984375 19.578125 35.984375 14.59375 
Q 35.984375 13.578125 35.59375 12.015625 
Q 34.71875 8.25 34.71875 6 
Q 34.71875 1.515625 37.796875 1.515625 
Q 41.40625 1.515625 43.28125 5.46875 
Q 45.171875 9.421875 46.390625 14.703125 
Q 46.578125 15.28125 47.21875 15.28125 
L 48.390625 15.28125 
Q 48.78125 15.28125 49.046875 15.03125 
Q 49.3125 14.796875 49.3125 14.40625 
Q 49.3125 14.3125 49.21875 14.109375 
Q 45.453125 -1.125 37.59375 -1.125 
Q 34.765625 -1.125 32.59375 0.1875 
Q 30.421875 1.515625 29.25 3.78125 
Q 28.078125 6.0625 28.078125 8.890625 
Q 28.078125 10.5 28.515625 12.203125 
Q 28.8125 13.375 28.8125 14.40625 
Q 28.8125 18.265625 25.390625 20.265625 
Q 21.96875 22.265625 17.578125 22.703125 
L 12.5 2.296875 
Q 12.109375 0.78125 10.984375 -0.171875 
Q 9.859375 -1.125 8.40625 -1.125 
Q 7.125 -1.125 6.21875 -0.265625 
Q 5.328125 0.59375 5.328125 1.8125 
" id="Cmmi10-6b"/>
      <path d="M 17.390625 -1.125 
Q 11.078125 -1.125 7.4375 3.640625 
Q 3.8125 8.40625 3.8125 14.890625 
Q 3.8125 21.296875 7.125 28.171875 
Q 10.453125 35.0625 16.09375 39.625 
Q 21.734375 44.1875 28.21875 44.1875 
Q 31.15625 44.1875 33.515625 42.546875 
Q 35.890625 40.921875 37.203125 38.1875 
L 42.828125 60.5 
Q 43.21875 62.203125 43.3125 63.1875 
Q 43.3125 64.796875 36.8125 64.796875 
Q 35.796875 64.796875 35.796875 66.109375 
Q 35.84375 66.359375 36.015625 66.984375 
Q 36.1875 67.625 36.453125 67.96875 
Q 36.71875 68.3125 37.203125 68.3125 
L 50.6875 69.390625 
Q 51.90625 69.390625 51.90625 68.109375 
L 37.5 10.59375 
Q 36.8125 8.9375 36.8125 5.8125 
Q 36.8125 1.515625 39.703125 1.515625 
Q 42.828125 1.515625 44.453125 5.484375 
Q 46.09375 9.46875 47.21875 14.703125 
Q 47.40625 15.28125 48 15.28125 
L 49.21875 15.28125 
Q 49.609375 15.28125 49.84375 14.9375 
Q 50.09375 14.59375 50.09375 14.3125 
Q 48.34375 7.328125 46.265625 3.09375 
Q 44.1875 -1.125 39.5 -1.125 
Q 36.140625 -1.125 33.546875 0.84375 
Q 30.953125 2.828125 30.328125 6.109375 
Q 23.875 -1.125 17.390625 -1.125 
M 17.484375 1.515625 
Q 21.09375 1.515625 24.484375 4.21875 
Q 27.875 6.9375 30.328125 10.59375 
Q 30.421875 10.6875 30.421875 10.984375 
L 35.890625 33.015625 
Q 35.296875 36.53125 33.296875 39.0625 
Q 31.296875 41.609375 27.984375 41.609375 
Q 24.609375 41.609375 21.703125 38.84375 
Q 18.796875 36.078125 16.796875 32.328125 
Q 14.84375 28.328125 13.0625 21.34375 
Q 11.28125 14.359375 11.28125 10.5 
Q 11.28125 7.03125 12.765625 4.265625 
Q 14.265625 1.515625 17.484375 1.515625 
" id="Cmmi10-64"/>
      <path d="M 7.515625 13.28125 
Q 6.6875 13.28125 6.140625 13.90625 
Q 5.609375 14.546875 5.609375 15.28125 
Q 5.609375 16.109375 6.140625 16.6875 
Q 6.6875 17.28125 7.515625 17.28125 
L 70.3125 17.28125 
Q 71.046875 17.28125 71.578125 16.6875 
Q 72.125 16.109375 72.125 15.28125 
Q 72.125 14.546875 71.578125 13.90625 
Q 71.046875 13.28125 70.3125 13.28125 
z
M 7.515625 32.71875 
Q 6.6875 32.71875 6.140625 33.296875 
Q 5.609375 33.890625 5.609375 34.71875 
Q 5.609375 35.453125 6.140625 36.078125 
Q 6.6875 36.71875 7.515625 36.71875 
L 70.3125 36.71875 
Q 71.046875 36.71875 71.578125 36.078125 
Q 72.125 35.453125 72.125 34.71875 
Q 72.125 33.890625 71.578125 33.296875 
Q 71.046875 32.71875 70.3125 32.71875 
z
" id="Cmr10-3d"/>
      <path d="M 7.8125 7.171875 
Q 7.8125 9.03125 8.59375 11.078125 
L 16.703125 32.625 
Q 18.015625 36.28125 18.015625 38.625 
Q 18.015625 41.609375 15.828125 41.609375 
Q 11.859375 41.609375 9.296875 37.53125 
Q 6.734375 33.453125 5.515625 28.421875 
Q 5.328125 27.78125 4.6875 27.78125 
L 3.515625 27.78125 
Q 2.6875 27.78125 2.6875 28.71875 
L 2.6875 29 
Q 4.296875 34.96875 7.609375 39.578125 
Q 10.9375 44.1875 16.015625 44.1875 
Q 19.578125 44.1875 22.046875 41.84375 
Q 24.515625 39.5 24.515625 35.890625 
Q 24.515625 34.03125 23.6875 31.984375 
L 15.578125 10.5 
Q 14.203125 7.171875 14.203125 4.5 
Q 14.203125 1.515625 16.5 1.515625 
Q 20.40625 1.515625 23.015625 5.6875 
Q 25.640625 9.859375 26.703125 14.703125 
Q 26.90625 15.28125 27.484375 15.28125 
L 28.71875 15.28125 
Q 29.109375 15.28125 29.34375 15.015625 
Q 29.59375 14.75 29.59375 14.40625 
Q 29.59375 14.3125 29.5 14.109375 
Q 28.125 8.453125 24.734375 3.65625 
Q 21.34375 -1.125 16.3125 -1.125 
Q 12.796875 -1.125 10.296875 1.296875 
Q 7.8125 3.71875 7.8125 7.171875 
M 19.09375 60.59375 
Q 19.09375 62.703125 20.84375 64.40625 
Q 22.609375 66.109375 24.703125 66.109375 
Q 26.421875 66.109375 27.515625 65.0625 
Q 28.609375 64.015625 28.609375 62.40625 
Q 28.609375 60.15625 26.828125 58.46875 
Q 25.046875 56.78125 22.90625 56.78125 
Q 21.296875 56.78125 20.1875 57.875 
Q 19.09375 58.984375 19.09375 60.59375 
" id="Cmmi10-69"/>
      <path d="M 25 -2.203125 
Q 12.75 -2.203125 8.328125 7.875 
Q 3.90625 17.96875 3.90625 31.890625 
Q 3.90625 40.578125 5.484375 48.234375 
Q 7.078125 55.90625 11.78125 61.25 
Q 16.5 66.609375 25 66.609375 
Q 31.59375 66.609375 35.78125 63.375 
Q 39.984375 60.15625 42.1875 55.046875 
Q 44.390625 49.953125 45.1875 44.109375 
Q 46 38.28125 46 31.890625 
Q 46 23.296875 44.40625 15.796875 
Q 42.828125 8.296875 38.1875 3.046875 
Q 33.546875 -2.203125 25 -2.203125 
M 25 0.390625 
Q 30.5625 0.390625 33.296875 6.09375 
Q 36.03125 11.8125 36.671875 18.75 
Q 37.3125 25.6875 37.3125 33.5 
Q 37.3125 41.015625 36.671875 47.359375 
Q 36.03125 53.71875 33.3125 58.859375 
Q 30.609375 64.015625 25 64.015625 
Q 19.34375 64.015625 16.609375 58.828125 
Q 13.875 53.65625 13.234375 47.328125 
Q 12.59375 41.015625 12.59375 33.5 
Q 12.59375 27.9375 12.859375 23 
Q 13.140625 18.0625 14.3125 12.8125 
Q 15.484375 7.5625 18.09375 3.96875 
Q 20.703125 0.390625 25 0.390625 
" id="Cmr10-30"/>
      <path d="M 9.90625 -18.015625 
Q 9.90625 -17.578125 10.296875 -17.1875 
Q 13.921875 -13.71875 15.921875 -9.171875 
Q 17.921875 -4.640625 17.921875 0.390625 
L 17.921875 1.609375 
Q 16.3125 0 13.921875 0 
Q 11.625 0 10.015625 1.609375 
Q 8.40625 3.21875 8.40625 5.515625 
Q 8.40625 7.859375 10.015625 9.421875 
Q 11.625 10.984375 13.921875 10.984375 
Q 17.484375 10.984375 19 7.6875 
Q 20.515625 4.390625 20.515625 0.390625 
Q 20.515625 -5.171875 18.28125 -10.171875 
Q 16.0625 -15.1875 12.015625 -19.1875 
Q 11.625 -19.390625 11.375 -19.390625 
Q 10.890625 -19.390625 10.390625 -18.9375 
Q 9.90625 -18.5 9.90625 -18.015625 
" id="Cmmi10-3b"/>
      <path d="M 8.40625 5.515625 
Q 8.40625 7.765625 10.0625 9.375 
Q 11.71875 10.984375 13.921875 10.984375 
Q 15.28125 10.984375 16.59375 10.25 
Q 17.921875 9.515625 18.65625 8.203125 
Q 19.390625 6.890625 19.390625 5.515625 
Q 19.390625 3.328125 17.765625 1.65625 
Q 16.15625 0 13.921875 0 
Q 11.71875 0 10.0625 1.65625 
Q 8.40625 3.328125 8.40625 5.515625 
" id="Cmmi10-3a"/>
     </defs>
     <g transform="translate(65.3746456693 176.374104331)scale(0.08 -0.08)">
      <use transform="translate(0.0 0.609375)" xlink:href="#Cmmi10-6b"/>
      <use transform="translate(52.001953125 -16.396875)scale(0.7)" xlink:href="#Cmmi10-70"/>
      <use transform="translate(111.14296875 0.609375)" xlink:href="#Cmr10-3d"/>
      <use transform="translate(223.945703125 0.609375)" xlink:href="#Cmsy10-a1"/>
      <use transform="translate(319.18984375 0.609375)" xlink:href="#Cmr10-30"/>
      <use transform="translate(369.18984375 0.609375)" xlink:href="#Cmmi10-3a"/>
      <use transform="translate(414.433984375 0.609375)" xlink:href="#Cmr10-39"/>
      <use transform="translate(464.433984375 0.609375)" xlink:href="#Cmmi10-3b"/>
      <use transform="translate(597.47109375 0.609375)" xlink:href="#Cmmi10-6b"/>
      <use transform="translate(649.473046875 -16.396875)scale(0.7)" xlink:href="#Cmmi10-69"/>
      <use transform="translate(697.505664063 0.609375)" xlink:href="#Cmr10-3d"/>
      <use transform="translate(792.749804688 0.609375)" xlink:href="#Cmr10-30"/>
      <use transform="translate(842.749804688 0.609375)" xlink:href="#Cmmi10-3a"/>
      <use transform="translate(887.993945313 0.609375)" xlink:href="#Cmr10-30"/>
      <use transform="translate(937.993945313 0.609375)" xlink:href="#Cmr10-31"/>
      <use transform="translate(987.993945313 0.609375)" xlink:href="#Cmmi10-3b"/>
      <use transform="translate(1121.03105469 0.609375)" xlink:href="#Cmmi10-6b"/>
      <use transform="translate(1173.03300781 -16.396875)scale(0.7)" xlink:href="#Cmmi10-64"/>
      <use transform="translate(1233.3703125 0.609375)" xlink:href="#Cmr10-3d"/>
      <use transform="translate(1328.61445312 0.609375)" xlink:href="#Cmr10-30"/>
      <use transform="translate(1378.61445312 0.609375)" xlink:href="#Cmmi10-3a"/>
      <use transform="translate(1423.85859375 0.609375)" xlink:href="#Cmr10-30"/>
     </g>
    </g>
    <g id="line2d_43">
     <path d="M 45.374646 186.132854 
L 56.574646 186.132854 
" style="fill:none;stroke:#cc9e14;stroke-linecap:round;"/>
    </g>
    <g id="line2d_44"/>
    <g id="text_14">
     <!-- $k_p = -0.9, \quad k_i = 0.01, \quad k_d = 0.0$ -->
     <g transform="translate(65.3746456693 188.932854331)scale(0.08 -0.08)">
      <use transform="translate(0.0 0.609375)" xlink:href="#Cmmi10-6b"/>
      <use transform="translate(52.001953125 -16.396875)scale(0.7)" xlink:href="#Cmmi10-70"/>
      <use transform="translate(111.14296875 0.609375)" xlink:href="#Cmr10-3d"/>
      <use transform="translate(223.945703125 0.609375)" xlink:href="#Cmsy10-a1"/>
      <use transform="translate(319.18984375 0.609375)" xlink:href="#Cmr10-30"/>
      <use transform="translate(369.18984375 0.609375)" xlink:href="#Cmmi10-3a"/>
      <use transform="translate(414.433984375 0.609375)" xlink:href="#Cmr10-39"/>
      <use transform="translate(464.433984375 0.609375)" xlink:href="#Cmmi10-3b"/>
      <use transform="translate(597.47109375 0.609375)" xlink:href="#Cmmi10-6b"/>
      <use transform="translate(649.473046875 -16.396875)scale(0.7)" xlink:href="#Cmmi10-69"/>
      <use transform="translate(697.505664063 0.609375)" xlink:href="#Cmr10-3d"/>
      <use transform="translate(792.749804688 0.609375)" xlink:href="#Cmr10-30"/>
      <use transform="translate(842.749804688 0.609375)" xlink:href="#Cmmi10-3a"/>
      <use transform="translate(887.993945313 0.609375)" xlink:href="#Cmr10-30"/>
      <use transform="translate(937.993945313 0.609375)" xlink:href="#Cmr10-31"/>
      <use transform="translate(987.993945313 0.609375)" xlink:href="#Cmmi10-3b"/>
      <use transform="translate(1121.03105469 0.609375)" xlink:href="#Cmmi10-6b"/>
      <use transform="translate(1173.03300781 -16.396875)scale(0.7)" xlink:href="#Cmmi10-64"/>
      <use transform="translate(1233.3703125 0.609375)" xlink:href="#Cmr10-3d"/>
      <use transform="translate(1328.61445312 0.609375)" xlink:href="#Cmr10-30"/>
      <use transform="translate(1378.61445312 0.609375)" xlink:href="#Cmmi10-3a"/>
      <use transform="translate(1423.85859375 0.609375)" xlink:href="#Cmr10-30"/>
     </g>
    </g>
    <g id="line2d_45">
     <path d="M 45.374646 198.691604 
L 56.574646 198.691604 
" style="fill:none;stroke:#14cc2b;stroke-linecap:round;"/>
    </g>
    <g id="line2d_46"/>
    <g id="text_15">
     <!-- $k_p = -0.9, \quad k_i = 0.01, \quad k_d = 0.0$ -->
     <g transform="translate(65.3746456693 201.491604331)scale(0.08 -0.08)">
      <use transform="translate(0.0 0.609375)" xlink:href="#Cmmi10-6b"/>
      <use transform="translate(52.001953125 -16.396875)scale(0.7)" xlink:href="#Cmmi10-70"/>
      <use transform="translate(111.14296875 0.609375)" xlink:href="#Cmr10-3d"/>
      <use transform="translate(223.945703125 0.609375)" xlink:href="#Cmsy10-a1"/>
      <use transform="translate(319.18984375 0.609375)" xlink:href="#Cmr10-30"/>
      <use transform="translate(369.18984375 0.609375)" xlink:href="#Cmmi10-3a"/>
      <use transform="translate(414.433984375 0.609375)" xlink:href="#Cmr10-39"/>
      <use transform="translate(464.433984375 0.609375)" xlink:href="#Cmmi10-3b"/>
      <use transform="translate(597.47109375 0.609375)" xlink:href="#Cmmi10-6b"/>
      <use transform="translate(649.473046875 -16.396875)scale(0.7)" xlink:href="#Cmmi10-69"/>
      <use transform="translate(697.505664063 0.609375)" xlink:href="#Cmr10-3d"/>
      <use transform="translate(792.749804688 0.609375)" xlink:href="#Cmr10-30"/>
      <use transform="translate(842.749804688 0.609375)" xlink:href="#Cmmi10-3a"/>
      <use transform="translate(887.993945313 0.609375)" xlink:href="#Cmr10-30"/>
      <use transform="translate(937.993945313 0.609375)" xlink:href="#Cmr10-31"/>
      <use transform="translate(987.993945313 0.609375)" xlink:href="#Cmmi10-3b"/>
      <use transform="translate(1121.03105469 0.609375)" xlink:href="#Cmmi10-6b"/>
      <use transform="translate(1173.03300781 -16.396875)scale(0.7)" xlink:href="#Cmmi10-64"/>
      <use transform="translate(1233.3703125 0.609375)" xlink:href="#Cmr10-3d"/>
      <use transform="translate(1328.61445312 0.609375)" xlink:href="#Cmr10-30"/>
      <use transform="translate(1378.61445312 0.609375)" xlink:href="#Cmmi10-3a"/>
      <use transform="translate(1423.85859375 0.609375)" xlink:href="#Cmr10-30"/>
     </g>
    </g>
    <g id="line2d_47">
     <path d="M 45.374646 211.250354 
L 56.574646 211.250354 
" style="fill:none;stroke:#1427cc;stroke-dasharray:6.000000,6.000000;stroke-dashoffset:0.0;"/>
    </g>
    <g id="line2d_48"/>
    <g id="text_16">
     <!-- $k_p = -0.9, \quad k_i = 0.01, \quad k_d = 0.0$ -->
     <g transform="translate(65.3746456693 214.050354331)scale(0.08 -0.08)">
      <use transform="translate(0.0 0.609375)" xlink:href="#Cmmi10-6b"/>
      <use transform="translate(52.001953125 -16.396875)scale(0.7)" xlink:href="#Cmmi10-70"/>
      <use transform="translate(111.14296875 0.609375)" xlink:href="#Cmr10-3d"/>
      <use transform="translate(223.945703125 0.609375)" xlink:href="#Cmsy10-a1"/>
      <use transform="translate(319.18984375 0.609375)" xlink:href="#Cmr10-30"/>
      <use transform="translate(369.18984375 0.609375)" xlink:href="#Cmmi10-3a"/>
      <use transform="translate(414.433984375 0.609375)" xlink:href="#Cmr10-39"/>
      <use transform="translate(464.433984375 0.609375)" xlink:href="#Cmmi10-3b"/>
      <use transform="translate(597.47109375 0.609375)" xlink:href="#Cmmi10-6b"/>
      <use transform="translate(649.473046875 -16.396875)scale(0.7)" xlink:href="#Cmmi10-69"/>
      <use transform="translate(697.505664063 0.609375)" xlink:href="#Cmr10-3d"/>
      <use transform="translate(792.749804688 0.609375)" xlink:href="#Cmr10-30"/>
      <use transform="translate(842.749804688 0.609375)" xlink:href="#Cmmi10-3a"/>
      <use transform="translate(887.993945313 0.609375)" xlink:href="#Cmr10-30"/>
      <use transform="translate(937.993945313 0.609375)" xlink:href="#Cmr10-31"/>
      <use transform="translate(987.993945313 0.609375)" xlink:href="#Cmmi10-3b"/>
      <use transform="translate(1121.03105469 0.609375)" xlink:href="#Cmmi10-6b"/>
      <use transform="translate(1173.03300781 -16.396875)scale(0.7)" xlink:href="#Cmmi10-64"/>
      <use transform="translate(1233.3703125 0.609375)" xlink:href="#Cmr10-3d"/>
      <use transform="translate(1328.61445312 0.609375)" xlink:href="#Cmr10-30"/>
      <use transform="translate(1378.61445312 0.609375)" xlink:href="#Cmmi10-3a"/>
      <use transform="translate(1423.85859375 0.609375)" xlink:href="#Cmr10-30"/>
     </g>
    </g>
    <g id="line2d_49">
     <path d="M 45.374646 223.809104 
L 56.574646 223.809104 
" style="fill:none;stroke:#cc1414;stroke-dasharray:6.000000,6.000000;stroke-dashoffset:0.0;"/>
    </g>
    <g id="line2d_50"/>
    <g id="text_17">
     <!-- $k_p = -0.9, \quad k_i = 0.01, \quad k_d = 0.0$ -->
     <g transform="translate(65.3746456693 226.609104331)scale(0.08 -0.08)">
      <use transform="translate(0.0 0.609375)" xlink:href="#Cmmi10-6b"/>
      <use transform="translate(52.001953125 -16.396875)scale(0.7)" xlink:href="#Cmmi10-70"/>
      <use transform="translate(111.14296875 0.609375)" xlink:href="#Cmr10-3d"/>
      <use transform="translate(223.945703125 0.609375)" xlink:href="#Cmsy10-a1"/>
      <use transform="translate(319.18984375 0.609375)" xlink:href="#Cmr10-30"/>
      <use transform="translate(369.18984375 0.609375)" xlink:href="#Cmmi10-3a"/>
      <use transform="translate(414.433984375 0.609375)" xlink:href="#Cmr10-39"/>
      <use transform="translate(464.433984375 0.609375)" xlink:href="#Cmmi10-3b"/>
      <use transform="translate(597.47109375 0.609375)" xlink:href="#Cmmi10-6b"/>
      <use transform="translate(649.473046875 -16.396875)scale(0.7)" xlink:href="#Cmmi10-69"/>
      <use transform="translate(697.505664063 0.609375)" xlink:href="#Cmr10-3d"/>
      <use transform="translate(792.749804688 0.609375)" xlink:href="#Cmr10-30"/>
      <use transform="translate(842.749804688 0.609375)" xlink:href="#Cmmi10-3a"/>
      <use transform="translate(887.993945313 0.609375)" xlink:href="#Cmr10-30"/>
      <use transform="translate(937.993945313 0.609375)" xlink:href="#Cmr10-31"/>
      <use transform="translate(987.993945313 0.609375)" xlink:href="#Cmmi10-3b"/>
      <use transform="translate(1121.03105469 0.609375)" xlink:href="#Cmmi10-6b"/>
      <use transform="translate(1173.03300781 -16.396875)scale(0.7)" xlink:href="#Cmmi10-64"/>
      <use transform="translate(1233.3703125 0.609375)" xlink:href="#Cmr10-3d"/>
      <use transform="translate(1328.61445312 0.609375)" xlink:href="#Cmr10-30"/>
      <use transform="translate(1378.61445312 0.609375)" xlink:href="#Cmmi10-3a"/>
      <use transform="translate(1423.85859375 0.609375)" xlink:href="#Cmr10-30"/>
     </g>
    </g>
    <g id="line2d_51">
     <path d="M 45.374646 236.367854 
L 56.574646 236.367854 
" style="fill:none;stroke:#cc9e14;stroke-dasharray:6.000000,6.000000;stroke-dashoffset:0.0;"/>
    </g>
    <g id="line2d_52"/>
    <g id="text_18">
     <!-- $k_p = -0.9, \quad k_i = 0.01, \quad k_d = 0.0$ -->
     <g transform="translate(65.3746456693 239.167854331)scale(0.08 -0.08)">
      <use transform="translate(0.0 0.609375)" xlink:href="#Cmmi10-6b"/>
      <use transform="translate(52.001953125 -16.396875)scale(0.7)" xlink:href="#Cmmi10-70"/>
      <use transform="translate(111.14296875 0.609375)" xlink:href="#Cmr10-3d"/>
      <use transform="translate(223.945703125 0.609375)" xlink:href="#Cmsy10-a1"/>
      <use transform="translate(319.18984375 0.609375)" xlink:href="#Cmr10-30"/>
      <use transform="translate(369.18984375 0.609375)" xlink:href="#Cmmi10-3a"/>
      <use transform="translate(414.433984375 0.609375)" xlink:href="#Cmr10-39"/>
      <use transform="translate(464.433984375 0.609375)" xlink:href="#Cmmi10-3b"/>
      <use transform="translate(597.47109375 0.609375)" xlink:href="#Cmmi10-6b"/>
      <use transform="translate(649.473046875 -16.396875)scale(0.7)" xlink:href="#Cmmi10-69"/>
      <use transform="translate(697.505664063 0.609375)" xlink:href="#Cmr10-3d"/>
      <use transform="translate(792.749804688 0.609375)" xlink:href="#Cmr10-30"/>
      <use transform="translate(842.749804688 0.609375)" xlink:href="#Cmmi10-3a"/>
      <use transform="translate(887.993945313 0.609375)" xlink:href="#Cmr10-30"/>
      <use transform="translate(937.993945313 0.609375)" xlink:href="#Cmr10-31"/>
      <use transform="translate(987.993945313 0.609375)" xlink:href="#Cmmi10-3b"/>
      <use transform="translate(1121.03105469 0.609375)" xlink:href="#Cmmi10-6b"/>
      <use transform="translate(1173.03300781 -16.396875)scale(0.7)" xlink:href="#Cmmi10-64"/>
      <use transform="translate(1233.3703125 0.609375)" xlink:href="#Cmr10-3d"/>
      <use transform="translate(1328.61445312 0.609375)" xlink:href="#Cmr10-30"/>
      <use transform="translate(1378.61445312 0.609375)" xlink:href="#Cmmi10-3a"/>
      <use transform="translate(1423.85859375 0.609375)" xlink:href="#Cmr10-30"/>
     </g>
    </g>
    <g id="line2d_53">
     <path d="M 45.374646 248.926604 
L 56.574646 248.926604 
" style="fill:none;stroke:#14cc2b;stroke-dasharray:6.000000,6.000000;stroke-dashoffset:0.0;"/>
    </g>
    <g id="line2d_54"/>
    <g id="text_19">
     <!-- $k_p = -0.9, \quad k_i = 0.01, \quad k_d = 0.0$ -->
     <g transform="translate(65.3746456693 251.726604331)scale(0.08 -0.08)">
      <use transform="translate(0.0 0.609375)" xlink:href="#Cmmi10-6b"/>
      <use transform="translate(52.001953125 -16.396875)scale(0.7)" xlink:href="#Cmmi10-70"/>
      <use transform="translate(111.14296875 0.609375)" xlink:href="#Cmr10-3d"/>
      <use transform="translate(223.945703125 0.609375)" xlink:href="#Cmsy10-a1"/>
      <use transform="translate(319.18984375 0.609375)" xlink:href="#Cmr10-30"/>
      <use transform="translate(369.18984375 0.609375)" xlink:href="#Cmmi10-3a"/>
      <use transform="translate(414.433984375 0.609375)" xlink:href="#Cmr10-39"/>
      <use transform="translate(464.433984375 0.609375)" xlink:href="#Cmmi10-3b"/>
      <use transform="translate(597.47109375 0.609375)" xlink:href="#Cmmi10-6b"/>
      <use transform="translate(649.473046875 -16.396875)scale(0.7)" xlink:href="#Cmmi10-69"/>
      <use transform="translate(697.505664063 0.609375)" xlink:href="#Cmr10-3d"/>
      <use transform="translate(792.749804688 0.609375)" xlink:href="#Cmr10-30"/>
      <use transform="translate(842.749804688 0.609375)" xlink:href="#Cmmi10-3a"/>
      <use transform="translate(887.993945313 0.609375)" xlink:href="#Cmr10-30"/>
      <use transform="translate(937.993945313 0.609375)" xlink:href="#Cmr10-31"/>
      <use transform="translate(987.993945313 0.609375)" xlink:href="#Cmmi10-3b"/>
      <use transform="translate(1121.03105469 0.609375)" xlink:href="#Cmmi10-6b"/>
      <use transform="translate(1173.03300781 -16.396875)scale(0.7)" xlink:href="#Cmmi10-64"/>
      <use transform="translate(1233.3703125 0.609375)" xlink:href="#Cmr10-3d"/>
      <use transform="translate(1328.61445312 0.609375)" xlink:href="#Cmr10-30"/>
      <use transform="translate(1378.61445312 0.609375)" xlink:href="#Cmmi10-3a"/>
      <use transform="translate(1423.85859375 0.609375)" xlink:href="#Cmr10-30"/>
     </g>
    </g>
    <g id="line2d_55">
     <path d="M 45.374646 261.485354 
L 56.574646 261.485354 
" style="fill:none;stroke:#1427cc;stroke-dasharray:1.000000,3.000000;stroke-dashoffset:0.0;"/>
    </g>
    <g id="line2d_56"/>
    <g id="text_20">
     <!-- $k_p = -0.9, \quad k_i = 0.01, \quad k_d = 0.0$ -->
     <g transform="translate(65.3746456693 264.285354331)scale(0.08 -0.08)">
      <use transform="translate(0.0 0.609375)" xlink:href="#Cmmi10-6b"/>
      <use transform="translate(52.001953125 -16.396875)scale(0.7)" xlink:href="#Cmmi10-70"/>
      <use transform="translate(111.14296875 0.609375)" xlink:href="#Cmr10-3d"/>
      <use transform="translate(223.945703125 0.609375)" xlink:href="#Cmsy10-a1"/>
      <use transform="translate(319.18984375 0.609375)" xlink:href="#Cmr10-30"/>
      <use transform="translate(369.18984375 0.609375)" xlink:href="#Cmmi10-3a"/>
      <use transform="translate(414.433984375 0.609375)" xlink:href="#Cmr10-39"/>
      <use transform="translate(464.433984375 0.609375)" xlink:href="#Cmmi10-3b"/>
      <use transform="translate(597.47109375 0.609375)" xlink:href="#Cmmi10-6b"/>
      <use transform="translate(649.473046875 -16.396875)scale(0.7)" xlink:href="#Cmmi10-69"/>
      <use transform="translate(697.505664063 0.609375)" xlink:href="#Cmr10-3d"/>
      <use transform="translate(792.749804688 0.609375)" xlink:href="#Cmr10-30"/>
      <use transform="translate(842.749804688 0.609375)" xlink:href="#Cmmi10-3a"/>
      <use transform="translate(887.993945313 0.609375)" xlink:href="#Cmr10-30"/>
      <use transform="translate(937.993945313 0.609375)" xlink:href="#Cmr10-31"/>
      <use transform="translate(987.993945313 0.609375)" xlink:href="#Cmmi10-3b"/>
      <use transform="translate(1121.03105469 0.609375)" xlink:href="#Cmmi10-6b"/>
      <use transform="translate(1173.03300781 -16.396875)scale(0.7)" xlink:href="#Cmmi10-64"/>
      <use transform="translate(1233.3703125 0.609375)" xlink:href="#Cmr10-3d"/>
      <use transform="translate(1328.61445312 0.609375)" xlink:href="#Cmr10-30"/>
      <use transform="translate(1378.61445312 0.609375)" xlink:href="#Cmmi10-3a"/>
      <use transform="translate(1423.85859375 0.609375)" xlink:href="#Cmr10-30"/>
     </g>
    </g>
   </g>
  </g>
 </g>
 <defs>
  <clipPath id="pe56549e7a3">
   <rect height="255.330708661" width="393.390708661" x="35.7746456693" y="18.6346456693"/>
  </clipPath>
 </defs>
</svg>
