<?xml version="1.0" encoding="utf-8" standalone="no"?>
<!DOCTYPE svg PUBLIC "-//W3C//DTD SVG 1.1//EN"
  "http://www.w3.org/Graphics/SVG/1.1/DTD/svg11.dtd">
<!-- Created with matplotlib (http://matplotlib.org/) -->
<svg height="288pt" version="1.1" viewBox="0 0 432 288" width="432pt" xmlns="http://www.w3.org/2000/svg" xmlns:xlink="http://www.w3.org/1999/xlink">
 <defs>
  <style type="text/css">
*{stroke-linecap:butt;stroke-linejoin:round;stroke-miterlimit:100000;}
  </style>
 </defs>
 <g id="figure_1">
  <g id="patch_1">
   <path d="M 0 288 
L 432 288 
L 432 0 
L 0 0 
z
" style="fill:#ffffff;"/>
  </g>
  <g id="axes_1">
   <g id="patch_2">
    <path d="M 36.38625 263.2975 
L 412.678374 263.2975 
L 412.678374 26.318281 
L 36.38625 26.318281 
z
" style="fill:#ffffff;"/>
   </g>
   <g id="matplotlib.axis_1">
    <g id="xtick_1">
     <g id="text_1">
      <!-- 0.0 -->
      <defs>
       <path d="M 31.78125 66.40625 
Q 24.171875 66.40625 20.328125 58.90625 
Q 16.5 51.421875 16.5 36.375 
Q 16.5 21.390625 20.328125 13.890625 
Q 24.171875 6.390625 31.78125 6.390625 
Q 39.453125 6.390625 43.28125 13.890625 
Q 47.125 21.390625 47.125 36.375 
Q 47.125 51.421875 43.28125 58.90625 
Q 39.453125 66.40625 31.78125 66.40625 
M 31.78125 74.21875 
Q 44.046875 74.21875 50.515625 64.515625 
Q 56.984375 54.828125 56.984375 36.375 
Q 56.984375 17.96875 50.515625 8.265625 
Q 44.046875 -1.421875 31.78125 -1.421875 
Q 19.53125 -1.421875 13.0625 8.265625 
Q 6.59375 17.96875 6.59375 36.375 
Q 6.59375 54.828125 13.0625 64.515625 
Q 19.53125 74.21875 31.78125 74.21875 
" id="BitstreamVeraSans-Roman-30"/>
       <path d="M 10.6875 12.40625 
L 21 12.40625 
L 21 0 
L 10.6875 0 
z
" id="BitstreamVeraSans-Roman-2e"/>
      </defs>
      <g transform="translate(30.0246237075 273.37625)scale(0.08 -0.08)">
       <use xlink:href="#BitstreamVeraSans-Roman-30"/>
       <use x="63.623046875" xlink:href="#BitstreamVeraSans-Roman-2e"/>
       <use x="95.41015625" xlink:href="#BitstreamVeraSans-Roman-30"/>
      </g>
     </g>
    </g>
    <g id="xtick_2">
     <g id="line2d_1">
      <path clip-path="url(#pc4f366a934)" d="M 111.644449 263.2975 
L 111.644449 26.318281 
" style="fill:none;stroke:#000000;stroke-dasharray:1.000000,3.000000;stroke-dashoffset:0.0;stroke-width:0.5;"/>
     </g>
     <g id="line2d_2">
      <defs>
       <path d="M 0 0 
L 0 -4 
" id="m61f44b5128" style="stroke:#000000;stroke-width:0.5;"/>
      </defs>
      <g>
       <use style="stroke:#000000;stroke-width:0.5;" x="111.644449019" xlink:href="#m61f44b5128" y="263.2975"/>
      </g>
     </g>
     <g id="line2d_3">
      <defs>
       <path d="M 0 0 
L 0 4 
" id="m18e4de354f" style="stroke:#000000;stroke-width:0.5;"/>
      </defs>
      <g>
       <use style="stroke:#000000;stroke-width:0.5;" x="111.644449019" xlink:href="#m18e4de354f" y="26.31828125"/>
      </g>
     </g>
     <g id="text_2">
      <!-- 0.2 -->
      <defs>
       <path d="M 19.1875 8.296875 
L 53.609375 8.296875 
L 53.609375 0 
L 7.328125 0 
L 7.328125 8.296875 
Q 12.9375 14.109375 22.625 23.890625 
Q 32.328125 33.6875 34.8125 36.53125 
Q 39.546875 41.84375 41.421875 45.53125 
Q 43.3125 49.21875 43.3125 52.78125 
Q 43.3125 58.59375 39.234375 62.25 
Q 35.15625 65.921875 28.609375 65.921875 
Q 23.96875 65.921875 18.8125 64.3125 
Q 13.671875 62.703125 7.8125 59.421875 
L 7.8125 69.390625 
Q 13.765625 71.78125 18.9375 73 
Q 24.125 74.21875 28.421875 74.21875 
Q 39.75 74.21875 46.484375 68.546875 
Q 53.21875 62.890625 53.21875 53.421875 
Q 53.21875 48.921875 51.53125 44.890625 
Q 49.859375 40.875 45.40625 35.40625 
Q 44.1875 33.984375 37.640625 27.21875 
Q 31.109375 20.453125 19.1875 8.296875 
" id="BitstreamVeraSans-Roman-32"/>
      </defs>
      <g transform="translate(105.283199019 273.37625)scale(0.08 -0.08)">
       <use xlink:href="#BitstreamVeraSans-Roman-30"/>
       <use x="63.623046875" xlink:href="#BitstreamVeraSans-Roman-2e"/>
       <use x="95.41015625" xlink:href="#BitstreamVeraSans-Roman-32"/>
      </g>
     </g>
    </g>
    <g id="xtick_3">
     <g id="line2d_4">
      <path clip-path="url(#pc4f366a934)" d="M 186.903024 263.2975 
L 186.903024 26.318281 
" style="fill:none;stroke:#000000;stroke-dasharray:1.000000,3.000000;stroke-dashoffset:0.0;stroke-width:0.5;"/>
     </g>
     <g id="line2d_5">
      <g>
       <use style="stroke:#000000;stroke-width:0.5;" x="186.903024331" xlink:href="#m61f44b5128" y="263.2975"/>
      </g>
     </g>
     <g id="line2d_6">
      <g>
       <use style="stroke:#000000;stroke-width:0.5;" x="186.903024331" xlink:href="#m18e4de354f" y="26.31828125"/>
      </g>
     </g>
     <g id="text_3">
      <!-- 0.4 -->
      <defs>
       <path d="M 37.796875 64.3125 
L 12.890625 25.390625 
L 37.796875 25.390625 
z
M 35.203125 72.90625 
L 47.609375 72.90625 
L 47.609375 25.390625 
L 58.015625 25.390625 
L 58.015625 17.1875 
L 47.609375 17.1875 
L 47.609375 0 
L 37.796875 0 
L 37.796875 17.1875 
L 4.890625 17.1875 
L 4.890625 26.703125 
z
" id="BitstreamVeraSans-Roman-34"/>
      </defs>
      <g transform="translate(180.541774331 273.37625)scale(0.08 -0.08)">
       <use xlink:href="#BitstreamVeraSans-Roman-30"/>
       <use x="63.623046875" xlink:href="#BitstreamVeraSans-Roman-2e"/>
       <use x="95.41015625" xlink:href="#BitstreamVeraSans-Roman-34"/>
      </g>
     </g>
    </g>
    <g id="xtick_4">
     <g id="line2d_7">
      <path clip-path="url(#pc4f366a934)" d="M 262.1616 263.2975 
L 262.1616 26.318281 
" style="fill:none;stroke:#000000;stroke-dasharray:1.000000,3.000000;stroke-dashoffset:0.0;stroke-width:0.5;"/>
     </g>
     <g id="line2d_8">
      <g>
       <use style="stroke:#000000;stroke-width:0.5;" x="262.161599643" xlink:href="#m61f44b5128" y="263.2975"/>
      </g>
     </g>
     <g id="line2d_9">
      <g>
       <use style="stroke:#000000;stroke-width:0.5;" x="262.161599643" xlink:href="#m18e4de354f" y="26.31828125"/>
      </g>
     </g>
     <g id="text_4">
      <!-- 0.6 -->
      <defs>
       <path d="M 33.015625 40.375 
Q 26.375 40.375 22.484375 35.828125 
Q 18.609375 31.296875 18.609375 23.390625 
Q 18.609375 15.53125 22.484375 10.953125 
Q 26.375 6.390625 33.015625 6.390625 
Q 39.65625 6.390625 43.53125 10.953125 
Q 47.40625 15.53125 47.40625 23.390625 
Q 47.40625 31.296875 43.53125 35.828125 
Q 39.65625 40.375 33.015625 40.375 
M 52.59375 71.296875 
L 52.59375 62.3125 
Q 48.875 64.0625 45.09375 64.984375 
Q 41.3125 65.921875 37.59375 65.921875 
Q 27.828125 65.921875 22.671875 59.328125 
Q 17.53125 52.734375 16.796875 39.40625 
Q 19.671875 43.65625 24.015625 45.921875 
Q 28.375 48.1875 33.59375 48.1875 
Q 44.578125 48.1875 50.953125 41.515625 
Q 57.328125 34.859375 57.328125 23.390625 
Q 57.328125 12.15625 50.6875 5.359375 
Q 44.046875 -1.421875 33.015625 -1.421875 
Q 20.359375 -1.421875 13.671875 8.265625 
Q 6.984375 17.96875 6.984375 36.375 
Q 6.984375 53.65625 15.1875 63.9375 
Q 23.390625 74.21875 37.203125 74.21875 
Q 40.921875 74.21875 44.703125 73.484375 
Q 48.484375 72.75 52.59375 71.296875 
" id="BitstreamVeraSans-Roman-36"/>
      </defs>
      <g transform="translate(255.800349643 273.37625)scale(0.08 -0.08)">
       <use xlink:href="#BitstreamVeraSans-Roman-30"/>
       <use x="63.623046875" xlink:href="#BitstreamVeraSans-Roman-2e"/>
       <use x="95.41015625" xlink:href="#BitstreamVeraSans-Roman-36"/>
      </g>
     </g>
    </g>
    <g id="xtick_5">
     <g id="line2d_10">
      <path clip-path="url(#pc4f366a934)" d="M 337.420175 263.2975 
L 337.420175 26.318281 
" style="fill:none;stroke:#000000;stroke-dasharray:1.000000,3.000000;stroke-dashoffset:0.0;stroke-width:0.5;"/>
     </g>
     <g id="line2d_11">
      <g>
       <use style="stroke:#000000;stroke-width:0.5;" x="337.420174955" xlink:href="#m61f44b5128" y="263.2975"/>
      </g>
     </g>
     <g id="line2d_12">
      <g>
       <use style="stroke:#000000;stroke-width:0.5;" x="337.420174955" xlink:href="#m18e4de354f" y="26.31828125"/>
      </g>
     </g>
     <g id="text_5">
      <!-- 0.8 -->
      <defs>
       <path d="M 31.78125 34.625 
Q 24.75 34.625 20.71875 30.859375 
Q 16.703125 27.09375 16.703125 20.515625 
Q 16.703125 13.921875 20.71875 10.15625 
Q 24.75 6.390625 31.78125 6.390625 
Q 38.8125 6.390625 42.859375 10.171875 
Q 46.921875 13.96875 46.921875 20.515625 
Q 46.921875 27.09375 42.890625 30.859375 
Q 38.875 34.625 31.78125 34.625 
M 21.921875 38.8125 
Q 15.578125 40.375 12.03125 44.71875 
Q 8.5 49.078125 8.5 55.328125 
Q 8.5 64.0625 14.71875 69.140625 
Q 20.953125 74.21875 31.78125 74.21875 
Q 42.671875 74.21875 48.875 69.140625 
Q 55.078125 64.0625 55.078125 55.328125 
Q 55.078125 49.078125 51.53125 44.71875 
Q 48 40.375 41.703125 38.8125 
Q 48.828125 37.15625 52.796875 32.3125 
Q 56.78125 27.484375 56.78125 20.515625 
Q 56.78125 9.90625 50.3125 4.234375 
Q 43.84375 -1.421875 31.78125 -1.421875 
Q 19.734375 -1.421875 13.25 4.234375 
Q 6.78125 9.90625 6.78125 20.515625 
Q 6.78125 27.484375 10.78125 32.3125 
Q 14.796875 37.15625 21.921875 38.8125 
M 18.3125 54.390625 
Q 18.3125 48.734375 21.84375 45.5625 
Q 25.390625 42.390625 31.78125 42.390625 
Q 38.140625 42.390625 41.71875 45.5625 
Q 45.3125 48.734375 45.3125 54.390625 
Q 45.3125 60.0625 41.71875 63.234375 
Q 38.140625 66.40625 31.78125 66.40625 
Q 25.390625 66.40625 21.84375 63.234375 
Q 18.3125 60.0625 18.3125 54.390625 
" id="BitstreamVeraSans-Roman-38"/>
      </defs>
      <g transform="translate(331.058924955 273.37625)scale(0.08 -0.08)">
       <use xlink:href="#BitstreamVeraSans-Roman-30"/>
       <use x="63.623046875" xlink:href="#BitstreamVeraSans-Roman-2e"/>
       <use x="95.41015625" xlink:href="#BitstreamVeraSans-Roman-38"/>
      </g>
     </g>
    </g>
    <g id="xtick_6">
     <g id="text_6">
      <!-- 1.0 -->
      <defs>
       <path d="M 12.40625 8.296875 
L 28.515625 8.296875 
L 28.515625 63.921875 
L 10.984375 60.40625 
L 10.984375 69.390625 
L 28.421875 72.90625 
L 38.28125 72.90625 
L 38.28125 8.296875 
L 54.390625 8.296875 
L 54.390625 0 
L 12.40625 0 
z
" id="BitstreamVeraSans-Roman-31"/>
      </defs>
      <g transform="translate(406.317500267 273.37625)scale(0.08 -0.08)">
       <use xlink:href="#BitstreamVeraSans-Roman-31"/>
       <use x="63.623046875" xlink:href="#BitstreamVeraSans-Roman-2e"/>
       <use x="95.41015625" xlink:href="#BitstreamVeraSans-Roman-30"/>
      </g>
     </g>
    </g>
   </g>
   <g id="matplotlib.axis_2">
    <g id="ytick_1">
     <g id="text_7">
      <!-- −0.5 -->
      <defs>
       <path d="M 10.59375 35.5 
L 73.1875 35.5 
L 73.1875 27.203125 
L 10.59375 27.203125 
z
" id="BitstreamVeraSans-Roman-2212"/>
       <path d="M 10.796875 72.90625 
L 49.515625 72.90625 
L 49.515625 64.59375 
L 19.828125 64.59375 
L 19.828125 46.734375 
Q 21.96875 47.46875 24.109375 47.828125 
Q 26.265625 48.1875 28.421875 48.1875 
Q 40.625 48.1875 47.75 41.5 
Q 54.890625 34.8125 54.890625 23.390625 
Q 54.890625 11.625 47.5625 5.09375 
Q 40.234375 -1.421875 26.90625 -1.421875 
Q 22.3125 -1.421875 17.546875 -0.640625 
Q 12.796875 0.140625 7.71875 1.703125 
L 7.71875 11.625 
Q 12.109375 9.234375 16.796875 8.0625 
Q 21.484375 6.890625 26.703125 6.890625 
Q 35.15625 6.890625 40.078125 11.328125 
Q 45.015625 15.765625 45.015625 23.390625 
Q 45.015625 31 40.078125 35.4375 
Q 35.15625 39.890625 26.703125 39.890625 
Q 22.75 39.890625 18.8125 39.015625 
Q 14.890625 38.140625 10.796875 36.28125 
z
" id="BitstreamVeraSans-Roman-35"/>
      </defs>
      <g transform="translate(12.96 265.527752522)scale(0.08 -0.08)">
       <use xlink:href="#BitstreamVeraSans-Roman-2212"/>
       <use x="83.7890625" xlink:href="#BitstreamVeraSans-Roman-30"/>
       <use x="147.412109375" xlink:href="#BitstreamVeraSans-Roman-2e"/>
       <use x="179.19921875" xlink:href="#BitstreamVeraSans-Roman-35"/>
      </g>
     </g>
    </g>
    <g id="ytick_2">
     <g id="line2d_13">
      <path clip-path="url(#pc4f366a934)" d="M 36.38625 215.824868 
L 412.678374 215.824868 
" style="fill:none;stroke:#000000;stroke-dasharray:1.000000,3.000000;stroke-dashoffset:0.0;stroke-width:0.5;"/>
     </g>
     <g id="line2d_14">
      <defs>
       <path d="M 0 0 
L 4 0 
" id="ma9a65f23f5" style="stroke:#000000;stroke-width:0.5;"/>
      </defs>
      <g>
       <use style="stroke:#000000;stroke-width:0.5;" x="36.38625" xlink:href="#ma9a65f23f5" y="215.824867593"/>
      </g>
     </g>
     <g id="line2d_15">
      <defs>
       <path d="M 0 0 
L -4 0 
" id="m2d21421e89" style="stroke:#000000;stroke-width:0.5;"/>
      </defs>
      <g>
       <use style="stroke:#000000;stroke-width:0.5;" x="412.678373975" xlink:href="#m2d21421e89" y="215.824867593"/>
      </g>
     </g>
     <g id="text_8">
      <!-- −0.4 -->
      <g transform="translate(12.96 218.032367593)scale(0.08 -0.08)">
       <use xlink:href="#BitstreamVeraSans-Roman-2212"/>
       <use x="83.7890625" xlink:href="#BitstreamVeraSans-Roman-30"/>
       <use x="147.412109375" xlink:href="#BitstreamVeraSans-Roman-2e"/>
       <use x="179.19921875" xlink:href="#BitstreamVeraSans-Roman-34"/>
      </g>
     </g>
    </g>
    <g id="ytick_3">
     <g id="line2d_16">
      <path clip-path="url(#pc4f366a934)" d="M 36.38625 168.329483 
L 412.678374 168.329483 
" style="fill:none;stroke:#000000;stroke-dasharray:1.000000,3.000000;stroke-dashoffset:0.0;stroke-width:0.5;"/>
     </g>
     <g id="line2d_17">
      <g>
       <use style="stroke:#000000;stroke-width:0.5;" x="36.38625" xlink:href="#ma9a65f23f5" y="168.329482663"/>
      </g>
     </g>
     <g id="line2d_18">
      <g>
       <use style="stroke:#000000;stroke-width:0.5;" x="412.678373975" xlink:href="#m2d21421e89" y="168.329482663"/>
      </g>
     </g>
     <g id="text_9">
      <!-- −0.3 -->
      <defs>
       <path d="M 40.578125 39.3125 
Q 47.65625 37.796875 51.625 33 
Q 55.609375 28.21875 55.609375 21.1875 
Q 55.609375 10.40625 48.1875 4.484375 
Q 40.765625 -1.421875 27.09375 -1.421875 
Q 22.515625 -1.421875 17.65625 -0.515625 
Q 12.796875 0.390625 7.625 2.203125 
L 7.625 11.71875 
Q 11.71875 9.328125 16.59375 8.109375 
Q 21.484375 6.890625 26.8125 6.890625 
Q 36.078125 6.890625 40.9375 10.546875 
Q 45.796875 14.203125 45.796875 21.1875 
Q 45.796875 27.640625 41.28125 31.265625 
Q 36.765625 34.90625 28.71875 34.90625 
L 20.21875 34.90625 
L 20.21875 43.015625 
L 29.109375 43.015625 
Q 36.375 43.015625 40.234375 45.921875 
Q 44.09375 48.828125 44.09375 54.296875 
Q 44.09375 59.90625 40.109375 62.90625 
Q 36.140625 65.921875 28.71875 65.921875 
Q 24.65625 65.921875 20.015625 65.03125 
Q 15.375 64.15625 9.8125 62.3125 
L 9.8125 71.09375 
Q 15.4375 72.65625 20.34375 73.4375 
Q 25.25 74.21875 29.59375 74.21875 
Q 40.828125 74.21875 47.359375 69.109375 
Q 53.90625 64.015625 53.90625 55.328125 
Q 53.90625 49.265625 50.4375 45.09375 
Q 46.96875 40.921875 40.578125 39.3125 
" id="BitstreamVeraSans-Roman-33"/>
      </defs>
      <g transform="translate(12.96 170.536982663)scale(0.08 -0.08)">
       <use xlink:href="#BitstreamVeraSans-Roman-2212"/>
       <use x="83.7890625" xlink:href="#BitstreamVeraSans-Roman-30"/>
       <use x="147.412109375" xlink:href="#BitstreamVeraSans-Roman-2e"/>
       <use x="179.19921875" xlink:href="#BitstreamVeraSans-Roman-33"/>
      </g>
     </g>
    </g>
    <g id="ytick_4">
     <g id="line2d_19">
      <path clip-path="url(#pc4f366a934)" d="M 36.38625 120.834098 
L 412.678374 120.834098 
" style="fill:none;stroke:#000000;stroke-dasharray:1.000000,3.000000;stroke-dashoffset:0.0;stroke-width:0.5;"/>
     </g>
     <g id="line2d_20">
      <g>
       <use style="stroke:#000000;stroke-width:0.5;" x="36.38625" xlink:href="#ma9a65f23f5" y="120.834097734"/>
      </g>
     </g>
     <g id="line2d_21">
      <g>
       <use style="stroke:#000000;stroke-width:0.5;" x="412.678373975" xlink:href="#m2d21421e89" y="120.834097734"/>
      </g>
     </g>
     <g id="text_10">
      <!-- −0.2 -->
      <g transform="translate(12.96 123.041597734)scale(0.08 -0.08)">
       <use xlink:href="#BitstreamVeraSans-Roman-2212"/>
       <use x="83.7890625" xlink:href="#BitstreamVeraSans-Roman-30"/>
       <use x="147.412109375" xlink:href="#BitstreamVeraSans-Roman-2e"/>
       <use x="179.19921875" xlink:href="#BitstreamVeraSans-Roman-32"/>
      </g>
     </g>
    </g>
    <g id="ytick_5">
     <g id="line2d_22">
      <path clip-path="url(#pc4f366a934)" d="M 36.38625 73.338713 
L 412.678374 73.338713 
" style="fill:none;stroke:#000000;stroke-dasharray:1.000000,3.000000;stroke-dashoffset:0.0;stroke-width:0.5;"/>
     </g>
     <g id="line2d_23">
      <g>
       <use style="stroke:#000000;stroke-width:0.5;" x="36.38625" xlink:href="#ma9a65f23f5" y="73.3387128049"/>
      </g>
     </g>
     <g id="line2d_24">
      <g>
       <use style="stroke:#000000;stroke-width:0.5;" x="412.678373975" xlink:href="#m2d21421e89" y="73.3387128049"/>
      </g>
     </g>
     <g id="text_11">
      <!-- −0.1 -->
      <g transform="translate(12.96 75.5462128049)scale(0.08 -0.08)">
       <use xlink:href="#BitstreamVeraSans-Roman-2212"/>
       <use x="83.7890625" xlink:href="#BitstreamVeraSans-Roman-30"/>
       <use x="147.412109375" xlink:href="#BitstreamVeraSans-Roman-2e"/>
       <use x="179.19921875" xlink:href="#BitstreamVeraSans-Roman-31"/>
      </g>
     </g>
    </g>
    <g id="ytick_6">
     <g id="text_12">
      <!-- 0.0 -->
      <g transform="translate(19.66375 28.0508278757)scale(0.08 -0.08)">
       <use xlink:href="#BitstreamVeraSans-Roman-30"/>
       <use x="63.623046875" xlink:href="#BitstreamVeraSans-Roman-2e"/>
       <use x="95.41015625" xlink:href="#BitstreamVeraSans-Roman-30"/>
      </g>
     </g>
    </g>
   </g>
   <g id="line2d_25">
    <path clip-path="url(#pc4f366a934)" d="M 35.179909 -1 
L 35.792624 6.999698 
L 36.200222 15.296291 
L 36.377038 23.541823 
L 36.385497 25.368375 
L 36.385497 25.368375 
" style="fill:none;stroke:#cc1414;stroke-linecap:square;"/>
   </g>
   <g id="line2d_26">
    <path clip-path="url(#pc4f366a934)" d="M 34.524023 -1 
L 35.259977 4.936723 
L 35.866213 11.622352 
L 36.240273 18.310094 
L 36.383934 24.973691 
L 36.385579 25.504075 
L 36.385579 25.504075 
" style="fill:none;stroke:#cc4514;stroke-linecap:square;"/>
   </g>
   <g id="patch_3">
    <path d="M 36.38625 26.318281 
L 412.678374 26.318281 
" style="fill:none;stroke:#000000;stroke-linecap:square;stroke-linejoin:miter;"/>
   </g>
   <g id="patch_4">
    <path d="M 412.678374 263.2975 
L 412.678374 26.318281 
" style="fill:none;stroke:#000000;stroke-linecap:square;stroke-linejoin:miter;"/>
   </g>
   <g id="patch_5">
    <path d="M 36.38625 263.2975 
L 412.678374 263.2975 
" style="fill:none;stroke:#000000;stroke-linecap:square;stroke-linejoin:miter;"/>
   </g>
   <g id="patch_6">
    <path d="M 36.38625 263.2975 
L 36.38625 26.318281 
" style="fill:none;stroke:#000000;stroke-linecap:square;stroke-linejoin:miter;"/>
   </g>
   <g id="line2d_27">
    <path clip-path="url(#pc4f366a934)" d="M 32.901378 -1 
L 33.889755 3.039264 
L 34.861762 7.960077 
L 35.598668 12.956183 
L 36.078023 17.770175 
L 36.338962 22.688839 
L 36.385678 25.639776 
L 36.385678 25.639776 
" style="fill:none;stroke:#cc9e14;stroke-linecap:square;"/>
   </g>
   <g id="text_13">
    <!-- Nyquist curves -->
    <defs>
     <path id="BitstreamVeraSans-Roman-20"/>
     <path d="M 9.8125 72.90625 
L 23.09375 72.90625 
L 55.421875 11.921875 
L 55.421875 72.90625 
L 64.984375 72.90625 
L 64.984375 0 
L 51.703125 0 
L 19.390625 60.984375 
L 19.390625 0 
L 9.8125 0 
z
" id="BitstreamVeraSans-Roman-4e"/>
     <path d="M 56.203125 29.59375 
L 56.203125 25.203125 
L 14.890625 25.203125 
Q 15.484375 15.921875 20.484375 11.0625 
Q 25.484375 6.203125 34.421875 6.203125 
Q 39.59375 6.203125 44.453125 7.46875 
Q 49.3125 8.734375 54.109375 11.28125 
L 54.109375 2.78125 
Q 49.265625 0.734375 44.1875 -0.34375 
Q 39.109375 -1.421875 33.890625 -1.421875 
Q 20.796875 -1.421875 13.15625 6.1875 
Q 5.515625 13.8125 5.515625 26.8125 
Q 5.515625 40.234375 12.765625 48.109375 
Q 20.015625 56 32.328125 56 
Q 43.359375 56 49.78125 48.890625 
Q 56.203125 41.796875 56.203125 29.59375 
M 47.21875 32.234375 
Q 47.125 39.59375 43.09375 43.984375 
Q 39.0625 48.390625 32.421875 48.390625 
Q 24.90625 48.390625 20.390625 44.140625 
Q 15.875 39.890625 15.1875 32.171875 
z
" id="BitstreamVeraSans-Roman-65"/>
     <path d="M 9.421875 54.6875 
L 18.40625 54.6875 
L 18.40625 0 
L 9.421875 0 
z
M 9.421875 75.984375 
L 18.40625 75.984375 
L 18.40625 64.59375 
L 9.421875 64.59375 
z
" id="BitstreamVeraSans-Roman-69"/>
     <path d="M 32.171875 -5.078125 
Q 28.375 -14.84375 24.75 -17.8125 
Q 21.140625 -20.796875 15.09375 -20.796875 
L 7.90625 -20.796875 
L 7.90625 -13.28125 
L 13.1875 -13.28125 
Q 16.890625 -13.28125 18.9375 -11.515625 
Q 21 -9.765625 23.484375 -3.21875 
L 25.09375 0.875 
L 2.984375 54.6875 
L 12.5 54.6875 
L 29.59375 11.921875 
L 46.6875 54.6875 
L 56.203125 54.6875 
z
" id="BitstreamVeraSans-Roman-79"/>
     <path d="M 2.984375 54.6875 
L 12.5 54.6875 
L 29.59375 8.796875 
L 46.6875 54.6875 
L 56.203125 54.6875 
L 35.6875 0 
L 23.484375 0 
z
" id="BitstreamVeraSans-Roman-76"/>
     <path d="M 18.3125 70.21875 
L 18.3125 54.6875 
L 36.8125 54.6875 
L 36.8125 47.703125 
L 18.3125 47.703125 
L 18.3125 18.015625 
Q 18.3125 11.328125 20.140625 9.421875 
Q 21.96875 7.515625 27.59375 7.515625 
L 36.8125 7.515625 
L 36.8125 0 
L 27.59375 0 
Q 17.1875 0 13.234375 3.875 
Q 9.28125 7.765625 9.28125 18.015625 
L 9.28125 47.703125 
L 2.6875 47.703125 
L 2.6875 54.6875 
L 9.28125 54.6875 
L 9.28125 70.21875 
z
" id="BitstreamVeraSans-Roman-74"/>
     <path d="M 8.5 21.578125 
L 8.5 54.6875 
L 17.484375 54.6875 
L 17.484375 21.921875 
Q 17.484375 14.15625 20.5 10.265625 
Q 23.53125 6.390625 29.59375 6.390625 
Q 36.859375 6.390625 41.078125 11.03125 
Q 45.3125 15.671875 45.3125 23.6875 
L 45.3125 54.6875 
L 54.296875 54.6875 
L 54.296875 0 
L 45.3125 0 
L 45.3125 8.40625 
Q 42.046875 3.421875 37.71875 1 
Q 33.40625 -1.421875 27.6875 -1.421875 
Q 18.265625 -1.421875 13.375 4.4375 
Q 8.5 10.296875 8.5 21.578125 
" id="BitstreamVeraSans-Roman-75"/>
     <path d="M 41.109375 46.296875 
Q 39.59375 47.171875 37.8125 47.578125 
Q 36.03125 48 33.890625 48 
Q 26.265625 48 22.1875 43.046875 
Q 18.109375 38.09375 18.109375 28.8125 
L 18.109375 0 
L 9.078125 0 
L 9.078125 54.6875 
L 18.109375 54.6875 
L 18.109375 46.1875 
Q 20.953125 51.171875 25.484375 53.578125 
Q 30.03125 56 36.53125 56 
Q 37.453125 56 38.578125 55.875 
Q 39.703125 55.765625 41.0625 55.515625 
z
" id="BitstreamVeraSans-Roman-72"/>
     <path d="M 44.28125 53.078125 
L 44.28125 44.578125 
Q 40.484375 46.53125 36.375 47.5 
Q 32.28125 48.484375 27.875 48.484375 
Q 21.1875 48.484375 17.84375 46.4375 
Q 14.5 44.390625 14.5 40.28125 
Q 14.5 37.15625 16.890625 35.375 
Q 19.28125 33.59375 26.515625 31.984375 
L 29.59375 31.296875 
Q 39.15625 29.25 43.1875 25.515625 
Q 47.21875 21.78125 47.21875 15.09375 
Q 47.21875 7.46875 41.1875 3.015625 
Q 35.15625 -1.421875 24.609375 -1.421875 
Q 20.21875 -1.421875 15.453125 -0.5625 
Q 10.6875 0.296875 5.421875 2 
L 5.421875 11.28125 
Q 10.40625 8.6875 15.234375 7.390625 
Q 20.0625 6.109375 24.8125 6.109375 
Q 31.15625 6.109375 34.5625 8.28125 
Q 37.984375 10.453125 37.984375 14.40625 
Q 37.984375 18.0625 35.515625 20.015625 
Q 33.0625 21.96875 24.703125 23.78125 
L 21.578125 24.515625 
Q 13.234375 26.265625 9.515625 29.90625 
Q 5.8125 33.546875 5.8125 39.890625 
Q 5.8125 47.609375 11.28125 51.796875 
Q 16.75 56 26.8125 56 
Q 31.78125 56 36.171875 55.265625 
Q 40.578125 54.546875 44.28125 53.078125 
" id="BitstreamVeraSans-Roman-73"/>
     <path d="M 48.78125 52.59375 
L 48.78125 44.1875 
Q 44.96875 46.296875 41.140625 47.34375 
Q 37.3125 48.390625 33.40625 48.390625 
Q 24.65625 48.390625 19.8125 42.84375 
Q 14.984375 37.3125 14.984375 27.296875 
Q 14.984375 17.28125 19.8125 11.734375 
Q 24.65625 6.203125 33.40625 6.203125 
Q 37.3125 6.203125 41.140625 7.25 
Q 44.96875 8.296875 48.78125 10.40625 
L 48.78125 2.09375 
Q 45.015625 0.34375 40.984375 -0.53125 
Q 36.96875 -1.421875 32.421875 -1.421875 
Q 20.0625 -1.421875 12.78125 6.34375 
Q 5.515625 14.109375 5.515625 27.296875 
Q 5.515625 40.671875 12.859375 48.328125 
Q 20.21875 56 33.015625 56 
Q 37.15625 56 41.109375 55.140625 
Q 45.0625 54.296875 48.78125 52.59375 
" id="BitstreamVeraSans-Roman-63"/>
     <path d="M 14.796875 27.296875 
Q 14.796875 17.390625 18.875 11.75 
Q 22.953125 6.109375 30.078125 6.109375 
Q 37.203125 6.109375 41.296875 11.75 
Q 45.40625 17.390625 45.40625 27.296875 
Q 45.40625 37.203125 41.296875 42.84375 
Q 37.203125 48.484375 30.078125 48.484375 
Q 22.953125 48.484375 18.875 42.84375 
Q 14.796875 37.203125 14.796875 27.296875 
M 45.40625 8.203125 
Q 42.578125 3.328125 38.25 0.953125 
Q 33.9375 -1.421875 27.875 -1.421875 
Q 17.96875 -1.421875 11.734375 6.484375 
Q 5.515625 14.40625 5.515625 27.296875 
Q 5.515625 40.1875 11.734375 48.09375 
Q 17.96875 56 27.875 56 
Q 33.9375 56 38.25 53.625 
Q 42.578125 51.265625 45.40625 46.390625 
L 45.40625 54.6875 
L 54.390625 54.6875 
L 54.390625 -20.796875 
L 45.40625 -20.796875 
z
" id="BitstreamVeraSans-Roman-71"/>
    </defs>
    <g transform="translate(183.612311987 21.31828125)scale(0.11 -0.11)">
     <use xlink:href="#BitstreamVeraSans-Roman-4e"/>
     <use x="74.8046875" xlink:href="#BitstreamVeraSans-Roman-79"/>
     <use x="133.984375" xlink:href="#BitstreamVeraSans-Roman-71"/>
     <use x="197.4609375" xlink:href="#BitstreamVeraSans-Roman-75"/>
     <use x="260.83984375" xlink:href="#BitstreamVeraSans-Roman-69"/>
     <use x="288.623046875" xlink:href="#BitstreamVeraSans-Roman-73"/>
     <use x="340.72265625" xlink:href="#BitstreamVeraSans-Roman-74"/>
     <use x="379.931640625" xlink:href="#BitstreamVeraSans-Roman-20"/>
     <use x="411.71875" xlink:href="#BitstreamVeraSans-Roman-63"/>
     <use x="466.69921875" xlink:href="#BitstreamVeraSans-Roman-75"/>
     <use x="530.078125" xlink:href="#BitstreamVeraSans-Roman-72"/>
     <use x="571.19140625" xlink:href="#BitstreamVeraSans-Roman-76"/>
     <use x="630.37109375" xlink:href="#BitstreamVeraSans-Roman-65"/>
     <use x="691.89453125" xlink:href="#BitstreamVeraSans-Roman-73"/>
    </g>
   </g>
   <g id="line2d_28">
    <path clip-path="url(#pc4f366a934)" d="M -1 8.589363 
L 0.20058 7.824051 
L 1.400404 7.119249 
L 3.752809 5.907708 
L 6.032751 4.945729 
L 8.230243 4.214894 
L 10.336977 3.695981 
L 12.346374 3.369346 
L 14.253587 3.215284 
L 16.91627 3.265419 
L 19.337913 3.597386 
L 21.520945 4.152941 
L 23.473245 4.879685 
L 25.206787 5.731703 
L 27.203704 6.9957 
L 28.877467 8.338025 
L 30.577413 10.040801 
L 31.9131 11.700408 
L 33.132268 13.568721 
L 34.152062 15.527085 
L 35.015566 17.667655 
L 35.675597 19.904885 
L 36.122419 22.205161 
L 36.355399 24.602155 
L 36.385783 25.775477 
L 36.385783 25.775477 
" style="fill:none;stroke:#87cc14;stroke-linecap:square;"/>
   </g>
   <g id="line2d_29">
    <path clip-path="url(#pc4f366a934)" d="M 52.373833 289 
L 52.043216 231.573998 
L 51.603824 192.601338 
L 51.059072 165.163594 
L 50.441976 145.703167 
L 49.805135 131.882132 
L 49.048428 119.905788 
L 48.171822 109.492762 
L 47.185681 100.39013 
L 46.112267 92.374898 
L 44.756556 83.926994 
L 42.952068 74.237649 
L 38.842561 52.912845 
L 37.81919 46.204108 
L 37.078492 39.857345 
L 36.621327 33.968027 
L 36.406741 28.255937 
L 36.38589 25.911178 
L 36.38589 25.911178 
" style="fill:none;stroke:#14cc2b;stroke-linecap:square;"/>
   </g>
   <g id="line2d_30">
    <path clip-path="url(#pc4f366a934)" d="M 159.539172 289 
L 158.856157 273.210803 
L 158.027145 258.359102 
L 157.062654 245.035006 
L 155.943375 233.126999 
L 154.648268 222.528906 
L 153.676098 216.140585 
L 152.608805 210.259218 
L 151.439258 204.855366 
L 150.160271 199.899657 
L 148.764713 195.362603 
L 147.245659 191.214433 
L 145.596547 187.424954 
L 143.811377 183.963436 
L 141.88492 180.798547 
L 139.812955 177.898323 
L 137.592515 175.230209 
L 135.222139 172.76116 
L 132.702119 170.457815 
L 130.03473 168.286745 
L 125.767708 165.20577 
L 121.204623 162.239249 
L 113.047866 157.277685 
L 104.418422 151.958799 
L 99.140026 148.477732 
L 93.873727 144.73655 
L 88.691073 140.7245 
L 83.659128 136.450483 
L 78.837141 131.940496 
L 74.274056 127.234026 
L 70.007034 122.379899 
L 66.061023 117.432032 
L 62.449249 112.445541 
L 59.17442 107.473481 
L 56.230387 102.564396 
L 53.604014 97.760695 
L 51.277051 93.097788 
L 48.602506 87.147288 
L 46.365667 81.544127 
L 44.50947 76.316579 
L 42.641405 70.327604 
L 41.185607 64.940551 
L 39.865906 59.23585 
L 38.768628 53.544017 
L 37.844182 47.56002 
L 37.140435 41.48969 
L 36.665422 35.37708 
L 36.421974 29.271245 
L 36.386001 26.046879 
L 36.386001 26.046879 
" style="fill:none;stroke:#14ccc6;stroke-linecap:square;"/>
   </g>
   <g id="line2d_31">
    <path clip-path="url(#pc4f366a934)" d="M 273.292368 289 
L 272.549981 278.271703 
L 271.449396 265.991166 
L 270.614177 258.683321 
L 269.688135 252.045008 
L 268.662265 246.048435 
L 267.52687 240.666624 
L 266.271564 235.873167 
L 264.885274 231.641977 
L 263.356274 227.947026 
L 261.67223 224.762067 
L 259.820274 222.060358 
L 257.787113 219.814369 
L 255.559162 217.995494 
L 253.122728 216.573775 
L 250.464233 215.51763 
L 247.570479 214.793613 
L 244.42897 214.366224 
L 241.028274 214.197752 
L 237.35843 214.248215 
L 231.332065 214.641418 
L 206.655619 216.820897 
L 200.919365 217.054908 
L 194.951803 217.110958 
L 188.777336 216.94585 
L 182.424698 216.52031 
L 175.926537 215.799979 
L 169.318827 214.756302 
L 162.64012 213.367277 
L 155.930675 211.61799 
L 149.231497 209.500929 
L 142.583341 207.016027 
L 136.025729 204.170453 
L 129.596024 200.978144 
L 123.328624 197.459124 
L 117.25428 193.638645 
L 111.399604 189.5462 
L 105.786733 185.214478 
L 100.433188 180.678292 
L 95.351891 175.973559 
L 90.551328 171.136349 
L 86.035831 166.202048 
L 81.805959 161.204652 
L 77.858928 156.176195 
L 74.189084 151.146327 
L 70.788388 146.142019 
L 67.646879 141.187391 
L 64.753125 136.303645 
L 62.09463 131.509084 
L 58.519016 124.51764 
L 55.397084 117.80239 
L 52.682933 111.392586 
L 50.332084 105.30708 
L 47.690488 97.713977 
L 45.529223 90.719564 
L 43.767962 84.312314 
L 42.024179 77.09321 
L 40.457093 69.507703 
L 39.163908 61.99059 
L 38.177046 54.916423 
L 37.363278 47.348773 
L 36.812789 40.06922 
L 36.487189 32.777281 
L 36.386116 26.18258 
L 36.386116 26.18258 
" style="fill:none;stroke:#1427cc;stroke-linecap:square;"/>
   </g>
   <g id="line2d_32">
    <path clip-path="url(#pc4f366a934)" d="M 412.678374 26.318281 
L 412.559519 34.296404 
L 412.228802 42.257159 
L 411.703248 49.994539 
L 410.984891 57.637488 
L 410.047429 65.421117 
L 408.814413 73.726664 
L 407.313258 82.151915 
L 405.63378 90.219332 
L 403.927698 97.42617 
L 401.820603 105.350843 
L 399.924903 111.788512 
L 397.711791 118.66337 
L 395.133183 125.982373 
L 392.135574 133.745821 
L 388.66012 141.945402 
L 386.046364 147.645137 
L 383.171997 153.521597 
L 380.016385 159.562934 
L 376.558446 165.753974 
L 372.776928 172.07586 
L 368.650753 178.505732 
L 364.159441 185.016431 
L 359.283595 191.576267 
L 354.005472 198.148867 
L 348.309613 204.693134 
L 342.183539 211.163334 
L 335.618476 217.509357 
L 332.169779 220.61905 
L 328.610103 223.677156 
L 324.939725 226.676411 
L 321.159286 229.609397 
L 317.269817 232.468577 
L 313.272751 235.246328 
L 309.16994 237.934979 
L 304.963668 240.526856 
L 300.656661 243.014326 
L 296.252092 245.389841 
L 291.753586 247.645988 
L 287.165216 249.775542 
L 282.491504 251.771511 
L 277.737402 253.627196 
L 272.90829 255.336234 
L 268.009949 256.892654 
L 263.048543 258.290921 
L 258.03059 259.525987 
L 252.962934 260.59333 
L 247.852708 261.488997 
L 242.707297 262.209636 
L 237.534296 262.752527 
L 232.341468 263.115611 
L 227.136694 263.2975 
L 221.92793 263.2975 
L 216.723156 263.115611 
L 211.530328 262.752527 
L 206.357327 262.209636 
L 201.211916 261.488997 
L 196.10169 260.59333 
L 191.034034 259.525987 
L 186.016081 258.290921 
L 181.054675 256.892654 
L 176.156334 255.336234 
L 171.327222 253.627196 
L 166.57312 251.771511 
L 161.899408 249.775542 
L 157.311038 247.645988 
L 152.812532 245.389841 
L 148.407963 243.014326 
L 144.100956 240.526856 
L 139.894684 237.934979 
L 135.791873 235.246328 
L 131.794807 232.468577 
L 127.905338 229.609397 
L 124.124899 226.676411 
L 120.454521 223.677156 
L 116.894845 220.61905 
L 110.10836 214.35516 
L 103.763627 207.940526 
L 97.854007 201.427294 
L 92.368779 194.86343 
L 87.293884 188.292369 
L 82.612641 181.752851 
L 78.306402 175.278892 
L 74.355164 168.899892 
L 70.738089 162.640829 
L 67.433967 156.522522 
L 64.421591 150.561943 
L 61.680072 144.772559 
L 58.031386 136.431256 
L 54.88129 128.521019 
L 52.169228 121.053519 
L 49.839894 114.031094 
L 47.244021 105.350843 
L 45.136926 97.42617 
L 43.430844 90.219332 
L 41.751366 82.151915 
L 40.250211 73.726664 
L 39.017195 65.421117 
L 38.079733 57.637488 
L 37.308957 49.338332 
L 36.767025 40.951687 
L 36.462443 32.617741 
L 36.38625 26.318281 
L 36.38625 26.318281 
" style="fill:none;stroke:#bc14cc;stroke-linecap:square;"/>
   </g>
   <g id="legend_1">
    <g id="patch_7">
     <path d="M 145.172312 133.188281 
L 303.892312 133.188281 
L 303.892312 30.318281 
L 145.172312 30.318281 
z
" style="fill:#ffffff;stroke:#000000;stroke-linejoin:miter;"/>
    </g>
    <g id="line2d_33">
     <path d="M 150.772312 36.797031 
L 161.972312 36.797031 
" style="fill:none;stroke:#cc1414;stroke-linecap:square;"/>
    </g>
    <g id="line2d_34"/>
    <g id="text_14">
     <!-- $k_p = -1.0, \quad k_i = 0.0, \quad k_d = 0.0$ -->
     <defs>
      <path d="M 9.28125 0 
L 9.28125 3.515625 
Q 21.78125 3.515625 21.78125 6.6875 
L 21.78125 59.1875 
Q 16.609375 56.6875 8.6875 56.6875 
L 8.6875 60.203125 
Q 20.953125 60.203125 27.203125 66.609375 
L 28.609375 66.609375 
Q 28.953125 66.609375 29.265625 66.328125 
Q 29.59375 66.0625 29.59375 65.71875 
L 29.59375 6.6875 
Q 29.59375 3.515625 42.09375 3.515625 
L 42.09375 0 
z
" id="Cmr10-31"/>
      <path d="M 10.203125 23 
Q 9.375 23 8.828125 23.625 
Q 8.296875 24.265625 8.296875 25 
Q 8.296875 25.734375 8.828125 26.359375 
Q 9.375 27 10.203125 27 
L 67.578125 27 
Q 68.359375 27 68.875 26.359375 
Q 69.390625 25.734375 69.390625 25 
Q 69.390625 24.265625 68.875 23.625 
Q 68.359375 23 67.578125 23 
z
" id="Cmsy10-a1"/>
      <path d="M -2.484375 -19.390625 
Q -3.421875 -19.390625 -3.421875 -18.109375 
Q -3.078125 -15.921875 -2.09375 -15.921875 
Q 1.03125 -15.921875 2.265625 -15.359375 
Q 3.515625 -14.796875 4.203125 -12.5 
L 15.484375 32.515625 
Q 16.21875 34.375 16.21875 37.3125 
Q 16.21875 41.609375 13.28125 41.609375 
Q 10.15625 41.609375 8.640625 37.859375 
Q 7.125 34.125 5.71875 28.421875 
Q 5.71875 27.78125 4.890625 27.78125 
L 3.71875 27.78125 
Q 3.46875 27.78125 3.171875 28.140625 
Q 2.875 28.515625 2.875 28.8125 
Q 3.953125 33.15625 4.953125 36.171875 
Q 5.953125 39.203125 8.078125 41.6875 
Q 10.203125 44.1875 13.375 44.1875 
Q 16.796875 44.1875 19.375 42.25 
Q 21.96875 40.328125 22.703125 37.015625 
Q 25.4375 40.1875 28.75 42.1875 
Q 32.078125 44.1875 35.59375 44.1875 
Q 39.796875 44.1875 42.890625 41.9375 
Q 46 39.703125 47.5625 36.0625 
Q 49.125 32.421875 49.125 28.21875 
Q 49.125 21.78125 45.828125 14.890625 
Q 42.53125 8.015625 36.890625 3.4375 
Q 31.25 -1.125 24.8125 -1.125 
Q 21.875 -1.125 19.5 0.53125 
Q 17.140625 2.203125 15.828125 4.890625 
L 11.28125 -12.890625 
Q 11.03125 -14.359375 10.984375 -14.59375 
Q 10.984375 -15.921875 17.578125 -15.921875 
Q 18.609375 -15.921875 18.609375 -17.1875 
Q 18.265625 -18.5 18.046875 -18.9375 
Q 17.828125 -19.390625 16.890625 -19.390625 
z
M 24.90625 1.515625 
Q 28.375 1.515625 31.34375 4.375 
Q 34.328125 7.234375 36.1875 10.796875 
Q 37.546875 13.484375 38.734375 17.359375 
Q 39.9375 21.234375 40.8125 25.625 
Q 41.703125 30.03125 41.703125 32.625 
Q 41.703125 34.90625 41.09375 36.90625 
Q 40.484375 38.921875 39.09375 40.265625 
Q 37.703125 41.609375 35.40625 41.609375 
Q 31.734375 41.609375 28.484375 38.984375 
Q 25.25 36.375 22.609375 32.515625 
L 22.609375 32.171875 
L 17.09375 10.109375 
Q 17.78125 6.546875 19.734375 4.03125 
Q 21.6875 1.515625 24.90625 1.515625 
" id="Cmmi10-70"/>
      <path d="M 5.328125 1.8125 
Q 5.328125 2.390625 5.421875 2.6875 
L 19.921875 60.5 
Q 20.3125 62.203125 20.40625 63.1875 
Q 20.40625 64.796875 13.921875 64.796875 
Q 12.890625 64.796875 12.890625 66.109375 
Q 12.9375 66.359375 13.109375 66.984375 
Q 13.28125 67.625 13.546875 67.96875 
Q 13.8125 68.3125 14.3125 68.3125 
L 27.78125 69.390625 
L 28.078125 69.390625 
Q 28.078125 69.28125 28.421875 69.109375 
Q 28.765625 68.953125 28.8125 68.890625 
Q 29 68.40625 29 68.109375 
L 18.5 26.3125 
Q 22.125 27.828125 27.609375 33.515625 
Q 33.109375 39.203125 36.203125 41.6875 
Q 39.3125 44.1875 44 44.1875 
Q 46.78125 44.1875 48.734375 42.28125 
Q 50.6875 40.375 50.6875 37.59375 
Q 50.6875 35.84375 49.953125 34.34375 
Q 49.21875 32.859375 47.890625 31.921875 
Q 46.578125 31 44.828125 31 
Q 43.21875 31 42.109375 32 
Q 41.015625 33.015625 41.015625 34.625 
Q 41.015625 37.015625 42.703125 38.640625 
Q 44.390625 40.28125 46.78125 40.28125 
Q 45.796875 41.609375 43.796875 41.609375 
Q 40.828125 41.609375 38.0625 39.890625 
Q 35.296875 38.1875 32.09375 34.984375 
Q 28.90625 31.78125 26.265625 29.125 
Q 23.640625 26.46875 21.390625 25.09375 
Q 27.296875 24.421875 31.640625 22 
Q 35.984375 19.578125 35.984375 14.59375 
Q 35.984375 13.578125 35.59375 12.015625 
Q 34.71875 8.25 34.71875 6 
Q 34.71875 1.515625 37.796875 1.515625 
Q 41.40625 1.515625 43.28125 5.46875 
Q 45.171875 9.421875 46.390625 14.703125 
Q 46.578125 15.28125 47.21875 15.28125 
L 48.390625 15.28125 
Q 48.78125 15.28125 49.046875 15.03125 
Q 49.3125 14.796875 49.3125 14.40625 
Q 49.3125 14.3125 49.21875 14.109375 
Q 45.453125 -1.125 37.59375 -1.125 
Q 34.765625 -1.125 32.59375 0.1875 
Q 30.421875 1.515625 29.25 3.78125 
Q 28.078125 6.0625 28.078125 8.890625 
Q 28.078125 10.5 28.515625 12.203125 
Q 28.8125 13.375 28.8125 14.40625 
Q 28.8125 18.265625 25.390625 20.265625 
Q 21.96875 22.265625 17.578125 22.703125 
L 12.5 2.296875 
Q 12.109375 0.78125 10.984375 -0.171875 
Q 9.859375 -1.125 8.40625 -1.125 
Q 7.125 -1.125 6.21875 -0.265625 
Q 5.328125 0.59375 5.328125 1.8125 
" id="Cmmi10-6b"/>
      <path d="M 17.390625 -1.125 
Q 11.078125 -1.125 7.4375 3.640625 
Q 3.8125 8.40625 3.8125 14.890625 
Q 3.8125 21.296875 7.125 28.171875 
Q 10.453125 35.0625 16.09375 39.625 
Q 21.734375 44.1875 28.21875 44.1875 
Q 31.15625 44.1875 33.515625 42.546875 
Q 35.890625 40.921875 37.203125 38.1875 
L 42.828125 60.5 
Q 43.21875 62.203125 43.3125 63.1875 
Q 43.3125 64.796875 36.8125 64.796875 
Q 35.796875 64.796875 35.796875 66.109375 
Q 35.84375 66.359375 36.015625 66.984375 
Q 36.1875 67.625 36.453125 67.96875 
Q 36.71875 68.3125 37.203125 68.3125 
L 50.6875 69.390625 
Q 51.90625 69.390625 51.90625 68.109375 
L 37.5 10.59375 
Q 36.8125 8.9375 36.8125 5.8125 
Q 36.8125 1.515625 39.703125 1.515625 
Q 42.828125 1.515625 44.453125 5.484375 
Q 46.09375 9.46875 47.21875 14.703125 
Q 47.40625 15.28125 48 15.28125 
L 49.21875 15.28125 
Q 49.609375 15.28125 49.84375 14.9375 
Q 50.09375 14.59375 50.09375 14.3125 
Q 48.34375 7.328125 46.265625 3.09375 
Q 44.1875 -1.125 39.5 -1.125 
Q 36.140625 -1.125 33.546875 0.84375 
Q 30.953125 2.828125 30.328125 6.109375 
Q 23.875 -1.125 17.390625 -1.125 
M 17.484375 1.515625 
Q 21.09375 1.515625 24.484375 4.21875 
Q 27.875 6.9375 30.328125 10.59375 
Q 30.421875 10.6875 30.421875 10.984375 
L 35.890625 33.015625 
Q 35.296875 36.53125 33.296875 39.0625 
Q 31.296875 41.609375 27.984375 41.609375 
Q 24.609375 41.609375 21.703125 38.84375 
Q 18.796875 36.078125 16.796875 32.328125 
Q 14.84375 28.328125 13.0625 21.34375 
Q 11.28125 14.359375 11.28125 10.5 
Q 11.28125 7.03125 12.765625 4.265625 
Q 14.265625 1.515625 17.484375 1.515625 
" id="Cmmi10-64"/>
      <path d="M 7.515625 13.28125 
Q 6.6875 13.28125 6.140625 13.90625 
Q 5.609375 14.546875 5.609375 15.28125 
Q 5.609375 16.109375 6.140625 16.6875 
Q 6.6875 17.28125 7.515625 17.28125 
L 70.3125 17.28125 
Q 71.046875 17.28125 71.578125 16.6875 
Q 72.125 16.109375 72.125 15.28125 
Q 72.125 14.546875 71.578125 13.90625 
Q 71.046875 13.28125 70.3125 13.28125 
z
M 7.515625 32.71875 
Q 6.6875 32.71875 6.140625 33.296875 
Q 5.609375 33.890625 5.609375 34.71875 
Q 5.609375 35.453125 6.140625 36.078125 
Q 6.6875 36.71875 7.515625 36.71875 
L 70.3125 36.71875 
Q 71.046875 36.71875 71.578125 36.078125 
Q 72.125 35.453125 72.125 34.71875 
Q 72.125 33.890625 71.578125 33.296875 
Q 71.046875 32.71875 70.3125 32.71875 
z
" id="Cmr10-3d"/>
      <path d="M 7.8125 7.171875 
Q 7.8125 9.03125 8.59375 11.078125 
L 16.703125 32.625 
Q 18.015625 36.28125 18.015625 38.625 
Q 18.015625 41.609375 15.828125 41.609375 
Q 11.859375 41.609375 9.296875 37.53125 
Q 6.734375 33.453125 5.515625 28.421875 
Q 5.328125 27.78125 4.6875 27.78125 
L 3.515625 27.78125 
Q 2.6875 27.78125 2.6875 28.71875 
L 2.6875 29 
Q 4.296875 34.96875 7.609375 39.578125 
Q 10.9375 44.1875 16.015625 44.1875 
Q 19.578125 44.1875 22.046875 41.84375 
Q 24.515625 39.5 24.515625 35.890625 
Q 24.515625 34.03125 23.6875 31.984375 
L 15.578125 10.5 
Q 14.203125 7.171875 14.203125 4.5 
Q 14.203125 1.515625 16.5 1.515625 
Q 20.40625 1.515625 23.015625 5.6875 
Q 25.640625 9.859375 26.703125 14.703125 
Q 26.90625 15.28125 27.484375 15.28125 
L 28.71875 15.28125 
Q 29.109375 15.28125 29.34375 15.015625 
Q 29.59375 14.75 29.59375 14.40625 
Q 29.59375 14.3125 29.5 14.109375 
Q 28.125 8.453125 24.734375 3.65625 
Q 21.34375 -1.125 16.3125 -1.125 
Q 12.796875 -1.125 10.296875 1.296875 
Q 7.8125 3.71875 7.8125 7.171875 
M 19.09375 60.59375 
Q 19.09375 62.703125 20.84375 64.40625 
Q 22.609375 66.109375 24.703125 66.109375 
Q 26.421875 66.109375 27.515625 65.0625 
Q 28.609375 64.015625 28.609375 62.40625 
Q 28.609375 60.15625 26.828125 58.46875 
Q 25.046875 56.78125 22.90625 56.78125 
Q 21.296875 56.78125 20.1875 57.875 
Q 19.09375 58.984375 19.09375 60.59375 
" id="Cmmi10-69"/>
      <path d="M 25 -2.203125 
Q 12.75 -2.203125 8.328125 7.875 
Q 3.90625 17.96875 3.90625 31.890625 
Q 3.90625 40.578125 5.484375 48.234375 
Q 7.078125 55.90625 11.78125 61.25 
Q 16.5 66.609375 25 66.609375 
Q 31.59375 66.609375 35.78125 63.375 
Q 39.984375 60.15625 42.1875 55.046875 
Q 44.390625 49.953125 45.1875 44.109375 
Q 46 38.28125 46 31.890625 
Q 46 23.296875 44.40625 15.796875 
Q 42.828125 8.296875 38.1875 3.046875 
Q 33.546875 -2.203125 25 -2.203125 
M 25 0.390625 
Q 30.5625 0.390625 33.296875 6.09375 
Q 36.03125 11.8125 36.671875 18.75 
Q 37.3125 25.6875 37.3125 33.5 
Q 37.3125 41.015625 36.671875 47.359375 
Q 36.03125 53.71875 33.3125 58.859375 
Q 30.609375 64.015625 25 64.015625 
Q 19.34375 64.015625 16.609375 58.828125 
Q 13.875 53.65625 13.234375 47.328125 
Q 12.59375 41.015625 12.59375 33.5 
Q 12.59375 27.9375 12.859375 23 
Q 13.140625 18.0625 14.3125 12.8125 
Q 15.484375 7.5625 18.09375 3.96875 
Q 20.703125 0.390625 25 0.390625 
" id="Cmr10-30"/>
      <path d="M 9.90625 -18.015625 
Q 9.90625 -17.578125 10.296875 -17.1875 
Q 13.921875 -13.71875 15.921875 -9.171875 
Q 17.921875 -4.640625 17.921875 0.390625 
L 17.921875 1.609375 
Q 16.3125 0 13.921875 0 
Q 11.625 0 10.015625 1.609375 
Q 8.40625 3.21875 8.40625 5.515625 
Q 8.40625 7.859375 10.015625 9.421875 
Q 11.625 10.984375 13.921875 10.984375 
Q 17.484375 10.984375 19 7.6875 
Q 20.515625 4.390625 20.515625 0.390625 
Q 20.515625 -5.171875 18.28125 -10.171875 
Q 16.0625 -15.1875 12.015625 -19.1875 
Q 11.625 -19.390625 11.375 -19.390625 
Q 10.890625 -19.390625 10.390625 -18.9375 
Q 9.90625 -18.5 9.90625 -18.015625 
" id="Cmmi10-3b"/>
      <path d="M 8.40625 5.515625 
Q 8.40625 7.765625 10.0625 9.375 
Q 11.71875 10.984375 13.921875 10.984375 
Q 15.28125 10.984375 16.59375 10.25 
Q 17.921875 9.515625 18.65625 8.203125 
Q 19.390625 6.890625 19.390625 5.515625 
Q 19.390625 3.328125 17.765625 1.65625 
Q 16.15625 0 13.921875 0 
Q 11.71875 0 10.0625 1.65625 
Q 8.40625 3.328125 8.40625 5.515625 
" id="Cmmi10-3a"/>
     </defs>
     <g transform="translate(170.772311987 39.59703125)scale(0.08 -0.08)">
      <use transform="translate(0.0 0.609375)" xlink:href="#Cmmi10-6b"/>
      <use transform="translate(52.001953125 -16.396875)scale(0.7)" xlink:href="#Cmmi10-70"/>
      <use transform="translate(111.14296875 0.609375)" xlink:href="#Cmr10-3d"/>
      <use transform="translate(223.945703125 0.609375)" xlink:href="#Cmsy10-a1"/>
      <use transform="translate(319.18984375 0.609375)" xlink:href="#Cmr10-31"/>
      <use transform="translate(369.18984375 0.609375)" xlink:href="#Cmmi10-3a"/>
      <use transform="translate(414.433984375 0.609375)" xlink:href="#Cmr10-30"/>
      <use transform="translate(464.433984375 0.609375)" xlink:href="#Cmmi10-3b"/>
      <use transform="translate(597.47109375 0.609375)" xlink:href="#Cmmi10-6b"/>
      <use transform="translate(649.473046875 -16.396875)scale(0.7)" xlink:href="#Cmmi10-69"/>
      <use transform="translate(697.505664063 0.609375)" xlink:href="#Cmr10-3d"/>
      <use transform="translate(792.749804688 0.609375)" xlink:href="#Cmr10-30"/>
      <use transform="translate(842.749804688 0.609375)" xlink:href="#Cmmi10-3a"/>
      <use transform="translate(887.993945313 0.609375)" xlink:href="#Cmr10-30"/>
      <use transform="translate(937.993945313 0.609375)" xlink:href="#Cmmi10-3b"/>
      <use transform="translate(1071.03105469 0.609375)" xlink:href="#Cmmi10-6b"/>
      <use transform="translate(1123.03300781 -16.396875)scale(0.7)" xlink:href="#Cmmi10-64"/>
      <use transform="translate(1183.3703125 0.609375)" xlink:href="#Cmr10-3d"/>
      <use transform="translate(1278.61445312 0.609375)" xlink:href="#Cmr10-30"/>
      <use transform="translate(1328.61445312 0.609375)" xlink:href="#Cmmi10-3a"/>
      <use transform="translate(1373.85859375 0.609375)" xlink:href="#Cmr10-30"/>
     </g>
    </g>
    <g id="line2d_35">
     <path d="M 150.772312 49.355781 
L 161.972312 49.355781 
" style="fill:none;stroke:#cc4514;stroke-linecap:square;"/>
    </g>
    <g id="line2d_36"/>
    <g id="text_15">
     <!-- $k_p = -0.714, \quad k_i = 0.07, \quad k_d = 0.0$ -->
     <defs>
      <path d="M 17.390625 2.59375 
Q 17.390625 8.15625 18.359375 13.46875 
Q 19.34375 18.796875 21.21875 24 
Q 23.09375 29.203125 25.75 34.203125 
Q 28.421875 39.203125 31.59375 43.609375 
L 40.71875 56.296875 
L 29.296875 56.296875 
Q 11.53125 56.296875 10.984375 55.8125 
Q 9.671875 54.203125 8.5 46.578125 
L 5.609375 46.578125 
L 8.890625 67.578125 
L 11.8125 67.578125 
L 11.8125 67.28125 
Q 11.8125 65.484375 17.921875 64.9375 
Q 24.03125 64.40625 29.890625 64.40625 
L 48.484375 64.40625 
L 48.484375 61.8125 
Q 48.484375 61.71875 48.453125 61.671875 
Q 48.4375 61.625 48.390625 61.53125 
L 34.625 42.1875 
Q 29.546875 34.671875 28.265625 25.484375 
Q 27 16.3125 27 2.59375 
Q 27 0.640625 25.578125 -0.78125 
Q 24.171875 -2.203125 22.21875 -2.203125 
Q 20.21875 -2.203125 18.796875 -0.78125 
Q 17.390625 0.640625 17.390625 2.59375 
" id="Cmr10-37"/>
      <path d="M 2.78125 16.5 
L 2.78125 20.015625 
L 33.6875 66.109375 
Q 34.03125 66.609375 34.71875 66.609375 
L 36.1875 66.609375 
Q 37.3125 66.609375 37.3125 65.484375 
L 37.3125 20.015625 
L 47.125 20.015625 
L 47.125 16.5 
L 37.3125 16.5 
L 37.3125 6.6875 
Q 37.3125 4.640625 40.234375 4.078125 
Q 43.171875 3.515625 47.015625 3.515625 
L 47.015625 0 
L 19.484375 0 
L 19.484375 3.515625 
Q 23.34375 3.515625 26.265625 4.078125 
Q 29.203125 4.640625 29.203125 6.6875 
L 29.203125 16.5 
z
M 6.109375 20.015625 
L 29.78125 20.015625 
L 29.78125 55.421875 
z
" id="Cmr10-34"/>
     </defs>
     <g transform="translate(170.772311987 52.15578125)scale(0.08 -0.08)">
      <use transform="translate(0.0 0.609375)" xlink:href="#Cmmi10-6b"/>
      <use transform="translate(52.001953125 -16.396875)scale(0.7)" xlink:href="#Cmmi10-70"/>
      <use transform="translate(111.14296875 0.609375)" xlink:href="#Cmr10-3d"/>
      <use transform="translate(223.945703125 0.609375)" xlink:href="#Cmsy10-a1"/>
      <use transform="translate(319.18984375 0.609375)" xlink:href="#Cmr10-30"/>
      <use transform="translate(369.18984375 0.609375)" xlink:href="#Cmmi10-3a"/>
      <use transform="translate(414.433984375 0.609375)" xlink:href="#Cmr10-37"/>
      <use transform="translate(464.433984375 0.609375)" xlink:href="#Cmr10-31"/>
      <use transform="translate(514.433984375 0.609375)" xlink:href="#Cmr10-34"/>
      <use transform="translate(564.433984375 0.609375)" xlink:href="#Cmmi10-3b"/>
      <use transform="translate(697.47109375 0.609375)" xlink:href="#Cmmi10-6b"/>
      <use transform="translate(749.473046875 -16.396875)scale(0.7)" xlink:href="#Cmmi10-69"/>
      <use transform="translate(797.505664063 0.609375)" xlink:href="#Cmr10-3d"/>
      <use transform="translate(892.749804688 0.609375)" xlink:href="#Cmr10-30"/>
      <use transform="translate(942.749804688 0.609375)" xlink:href="#Cmmi10-3a"/>
      <use transform="translate(987.993945313 0.609375)" xlink:href="#Cmr10-30"/>
      <use transform="translate(1037.99394531 0.609375)" xlink:href="#Cmr10-37"/>
      <use transform="translate(1087.99394531 0.609375)" xlink:href="#Cmmi10-3b"/>
      <use transform="translate(1221.03105469 0.609375)" xlink:href="#Cmmi10-6b"/>
      <use transform="translate(1273.03300781 -16.396875)scale(0.7)" xlink:href="#Cmmi10-64"/>
      <use transform="translate(1333.3703125 0.609375)" xlink:href="#Cmr10-3d"/>
      <use transform="translate(1428.61445312 0.609375)" xlink:href="#Cmr10-30"/>
      <use transform="translate(1478.61445312 0.609375)" xlink:href="#Cmmi10-3a"/>
      <use transform="translate(1523.85859375 0.609375)" xlink:href="#Cmr10-30"/>
     </g>
    </g>
    <g id="line2d_37">
     <path d="M 150.772312 61.914531 
L 161.972312 61.914531 
" style="fill:none;stroke:#cc9e14;stroke-linecap:square;"/>
    </g>
    <g id="line2d_38"/>
    <g id="text_16">
     <!-- $k_p = -0.429, \quad k_i = 0.09, \quad k_d = 0.0$ -->
     <defs>
      <path d="M 4.984375 0 
L 4.984375 2.6875 
Q 4.984375 2.9375 5.171875 3.21875 
L 20.703125 20.40625 
Q 24.21875 24.21875 26.40625 26.796875 
Q 28.609375 29.390625 30.75 32.765625 
Q 32.90625 36.140625 34.15625 39.625 
Q 35.40625 43.109375 35.40625 47.015625 
Q 35.40625 51.125 33.890625 54.859375 
Q 32.375 58.59375 29.375 60.84375 
Q 26.375 63.09375 22.125 63.09375 
Q 17.78125 63.09375 14.3125 60.46875 
Q 10.84375 57.859375 9.421875 53.71875 
Q 9.8125 53.8125 10.5 53.8125 
Q 12.75 53.8125 14.328125 52.296875 
Q 15.921875 50.78125 15.921875 48.390625 
Q 15.921875 46.09375 14.328125 44.5 
Q 12.75 42.921875 10.5 42.921875 
Q 8.15625 42.921875 6.5625 44.546875 
Q 4.984375 46.1875 4.984375 48.390625 
Q 4.984375 52.15625 6.390625 55.4375 
Q 7.8125 58.734375 10.46875 61.296875 
Q 13.140625 63.875 16.484375 65.234375 
Q 19.828125 66.609375 23.578125 66.609375 
Q 29.296875 66.609375 34.21875 64.1875 
Q 39.15625 61.765625 42.03125 57.34375 
Q 44.921875 52.9375 44.921875 47.015625 
Q 44.921875 42.671875 43.015625 38.765625 
Q 41.109375 34.859375 38.125 31.65625 
Q 35.15625 28.46875 30.515625 24.40625 
Q 25.875 20.359375 24.421875 19 
L 13.09375 8.109375 
L 22.703125 8.109375 
Q 29.78125 8.109375 34.546875 8.21875 
Q 39.3125 8.34375 39.59375 8.59375 
Q 40.765625 9.859375 42 17.828125 
L 44.921875 17.828125 
L 42.09375 0 
z
" id="Cmr10-32"/>
      <path d="M 11.28125 4.203125 
Q 14.015625 0.984375 20.796875 0.984375 
Q 24.609375 0.984375 27.90625 3.5625 
Q 31.203125 6.15625 33.015625 9.90625 
Q 35.109375 14.15625 35.6875 18.96875 
Q 36.28125 23.78125 36.28125 30.90625 
Q 34.578125 26.859375 31.375 24.265625 
Q 28.171875 21.6875 24.03125 21.6875 
Q 18.21875 21.6875 13.640625 24.828125 
Q 9.078125 27.984375 6.640625 33.125 
Q 4.203125 38.28125 4.203125 44.09375 
Q 4.203125 50.09375 6.9375 55.296875 
Q 9.671875 60.5 14.5 63.546875 
Q 19.34375 66.609375 25.484375 66.609375 
Q 31.546875 66.609375 35.625 63.3125 
Q 39.703125 60.015625 41.84375 54.8125 
Q 44 49.609375 44.84375 43.796875 
Q 45.703125 37.984375 45.703125 32.328125 
Q 45.703125 24.609375 42.875 16.578125 
Q 40.046875 8.546875 34.40625 3.171875 
Q 28.765625 -2.203125 20.796875 -2.203125 
Q 14.890625 -2.203125 10.78125 0.578125 
Q 6.6875 3.375 6.6875 8.984375 
Q 6.6875 11.03125 8.078125 12.421875 
Q 9.46875 13.8125 11.53125 13.8125 
Q 13.53125 13.8125 14.921875 12.421875 
Q 16.3125 11.03125 16.3125 8.984375 
Q 16.3125 7.03125 14.890625 5.609375 
Q 13.484375 4.203125 11.53125 4.203125 
z
M 24.421875 24.3125 
Q 28.515625 24.3125 31.125 27.0625 
Q 33.734375 29.828125 34.90625 33.921875 
Q 36.078125 38.03125 36.078125 42.09375 
L 36.078125 44 
L 36.078125 44.390625 
Q 36.078125 51.90625 33.875 57.8125 
Q 31.6875 63.71875 25.484375 63.71875 
Q 21.53125 63.71875 19.0625 61.984375 
Q 16.609375 60.25 15.4375 57.375 
Q 14.265625 54.5 13.9375 51.21875 
Q 13.625 47.953125 13.625 44.09375 
Q 13.625 38.421875 14.15625 34.421875 
Q 14.703125 30.421875 17.09375 27.359375 
Q 19.484375 24.3125 24.421875 24.3125 
" id="Cmr10-39"/>
     </defs>
     <g transform="translate(170.772311987 64.71453125)scale(0.08 -0.08)">
      <use transform="translate(0.0 0.609375)" xlink:href="#Cmmi10-6b"/>
      <use transform="translate(52.001953125 -16.396875)scale(0.7)" xlink:href="#Cmmi10-70"/>
      <use transform="translate(111.14296875 0.609375)" xlink:href="#Cmr10-3d"/>
      <use transform="translate(223.945703125 0.609375)" xlink:href="#Cmsy10-a1"/>
      <use transform="translate(319.18984375 0.609375)" xlink:href="#Cmr10-30"/>
      <use transform="translate(369.18984375 0.609375)" xlink:href="#Cmmi10-3a"/>
      <use transform="translate(414.433984375 0.609375)" xlink:href="#Cmr10-34"/>
      <use transform="translate(464.433984375 0.609375)" xlink:href="#Cmr10-32"/>
      <use transform="translate(514.433984375 0.609375)" xlink:href="#Cmr10-39"/>
      <use transform="translate(564.433984375 0.609375)" xlink:href="#Cmmi10-3b"/>
      <use transform="translate(697.47109375 0.609375)" xlink:href="#Cmmi10-6b"/>
      <use transform="translate(749.473046875 -16.396875)scale(0.7)" xlink:href="#Cmmi10-69"/>
      <use transform="translate(797.505664063 0.609375)" xlink:href="#Cmr10-3d"/>
      <use transform="translate(892.749804688 0.609375)" xlink:href="#Cmr10-30"/>
      <use transform="translate(942.749804688 0.609375)" xlink:href="#Cmmi10-3a"/>
      <use transform="translate(987.993945313 0.609375)" xlink:href="#Cmr10-30"/>
      <use transform="translate(1037.99394531 0.609375)" xlink:href="#Cmr10-39"/>
      <use transform="translate(1087.99394531 0.609375)" xlink:href="#Cmmi10-3b"/>
      <use transform="translate(1221.03105469 0.609375)" xlink:href="#Cmmi10-6b"/>
      <use transform="translate(1273.03300781 -16.396875)scale(0.7)" xlink:href="#Cmmi10-64"/>
      <use transform="translate(1333.3703125 0.609375)" xlink:href="#Cmr10-3d"/>
      <use transform="translate(1428.61445312 0.609375)" xlink:href="#Cmr10-30"/>
      <use transform="translate(1478.61445312 0.609375)" xlink:href="#Cmmi10-3a"/>
      <use transform="translate(1523.85859375 0.609375)" xlink:href="#Cmr10-30"/>
     </g>
    </g>
    <g id="line2d_39">
     <path d="M 150.772312 74.473281 
L 161.972312 74.473281 
" style="fill:none;stroke:#87cc14;stroke-linecap:square;"/>
    </g>
    <g id="line2d_40"/>
    <g id="text_17">
     <!-- $k_p = -0.143, \quad k_i = 0.099, \quad k_d = 0.0$ -->
     <defs>
      <path d="M 9.515625 7.71875 
Q 11.859375 4.296875 15.8125 2.640625 
Q 19.78125 0.984375 24.3125 0.984375 
Q 30.125 0.984375 32.5625 5.9375 
Q 35.015625 10.890625 35.015625 17.1875 
Q 35.015625 20.015625 34.5 22.84375 
Q 33.984375 25.6875 32.765625 28.125 
Q 31.546875 30.5625 29.421875 32.03125 
Q 27.296875 33.5 24.21875 33.5 
L 17.578125 33.5 
Q 16.703125 33.5 16.703125 34.421875 
L 16.703125 35.296875 
Q 16.703125 36.078125 17.578125 36.078125 
L 23.09375 36.53125 
Q 26.609375 36.53125 28.921875 39.15625 
Q 31.25 41.796875 32.328125 45.578125 
Q 33.40625 49.359375 33.40625 52.78125 
Q 33.40625 57.5625 31.15625 60.640625 
Q 28.90625 63.71875 24.3125 63.71875 
Q 20.515625 63.71875 17.046875 62.28125 
Q 13.578125 60.84375 11.53125 57.90625 
Q 11.71875 57.953125 11.859375 57.984375 
Q 12.015625 58.015625 12.203125 58.015625 
Q 14.453125 58.015625 15.96875 56.453125 
Q 17.484375 54.890625 17.484375 52.6875 
Q 17.484375 50.53125 15.96875 48.96875 
Q 14.453125 47.40625 12.203125 47.40625 
Q 10.015625 47.40625 8.453125 48.96875 
Q 6.890625 50.53125 6.890625 52.6875 
Q 6.890625 56.984375 9.46875 60.15625 
Q 12.0625 63.328125 16.140625 64.96875 
Q 20.21875 66.609375 24.3125 66.609375 
Q 27.34375 66.609375 30.703125 65.703125 
Q 34.078125 64.796875 36.8125 63.109375 
Q 39.546875 61.421875 41.28125 58.78125 
Q 43.015625 56.15625 43.015625 52.78125 
Q 43.015625 48.578125 41.140625 45.015625 
Q 39.265625 41.453125 35.984375 38.859375 
Q 32.71875 36.28125 28.8125 35.015625 
Q 33.15625 34.1875 37.0625 31.734375 
Q 40.96875 29.296875 43.328125 25.484375 
Q 45.703125 21.6875 45.703125 17.28125 
Q 45.703125 11.765625 42.671875 7.296875 
Q 39.65625 2.828125 34.71875 0.3125 
Q 29.78125 -2.203125 24.3125 -2.203125 
Q 19.625 -2.203125 14.90625 -0.40625 
Q 10.203125 1.375 7.203125 4.9375 
Q 4.203125 8.5 4.203125 13.484375 
Q 4.203125 15.96875 5.859375 17.625 
Q 7.515625 19.28125 10.015625 19.28125 
Q 11.625 19.28125 12.96875 18.53125 
Q 14.3125 17.78125 15.0625 16.40625 
Q 15.828125 15.046875 15.828125 13.484375 
Q 15.828125 11.03125 14.109375 9.375 
Q 12.40625 7.71875 10.015625 7.71875 
z
" id="Cmr10-33"/>
     </defs>
     <g transform="translate(170.772311987 77.27328125)scale(0.08 -0.08)">
      <use transform="translate(0.0 0.609375)" xlink:href="#Cmmi10-6b"/>
      <use transform="translate(52.001953125 -16.396875)scale(0.7)" xlink:href="#Cmmi10-70"/>
      <use transform="translate(111.14296875 0.609375)" xlink:href="#Cmr10-3d"/>
      <use transform="translate(223.945703125 0.609375)" xlink:href="#Cmsy10-a1"/>
      <use transform="translate(319.18984375 0.609375)" xlink:href="#Cmr10-30"/>
      <use transform="translate(369.18984375 0.609375)" xlink:href="#Cmmi10-3a"/>
      <use transform="translate(414.433984375 0.609375)" xlink:href="#Cmr10-31"/>
      <use transform="translate(464.433984375 0.609375)" xlink:href="#Cmr10-34"/>
      <use transform="translate(514.433984375 0.609375)" xlink:href="#Cmr10-33"/>
      <use transform="translate(564.433984375 0.609375)" xlink:href="#Cmmi10-3b"/>
      <use transform="translate(697.47109375 0.609375)" xlink:href="#Cmmi10-6b"/>
      <use transform="translate(749.473046875 -16.396875)scale(0.7)" xlink:href="#Cmmi10-69"/>
      <use transform="translate(797.505664063 0.609375)" xlink:href="#Cmr10-3d"/>
      <use transform="translate(892.749804688 0.609375)" xlink:href="#Cmr10-30"/>
      <use transform="translate(942.749804688 0.609375)" xlink:href="#Cmmi10-3a"/>
      <use transform="translate(987.993945313 0.609375)" xlink:href="#Cmr10-30"/>
      <use transform="translate(1037.99394531 0.609375)" xlink:href="#Cmr10-39"/>
      <use transform="translate(1087.99394531 0.609375)" xlink:href="#Cmr10-39"/>
      <use transform="translate(1137.99394531 0.609375)" xlink:href="#Cmmi10-3b"/>
      <use transform="translate(1271.03105469 0.609375)" xlink:href="#Cmmi10-6b"/>
      <use transform="translate(1323.03300781 -16.396875)scale(0.7)" xlink:href="#Cmmi10-64"/>
      <use transform="translate(1383.3703125 0.609375)" xlink:href="#Cmr10-3d"/>
      <use transform="translate(1478.61445312 0.609375)" xlink:href="#Cmr10-30"/>
      <use transform="translate(1528.61445312 0.609375)" xlink:href="#Cmmi10-3a"/>
      <use transform="translate(1573.85859375 0.609375)" xlink:href="#Cmr10-30"/>
     </g>
    </g>
    <g id="line2d_41">
     <path d="M 150.772312 87.032031 
L 161.972312 87.032031 
" style="fill:none;stroke:#14cc2b;stroke-linecap:square;"/>
    </g>
    <g id="line2d_42"/>
    <g id="text_18">
     <!-- $k_p = 0.143, \quad k_i = 0.099, \quad k_d = 0.0$ -->
     <g transform="translate(170.772311987 89.83203125)scale(0.08 -0.08)">
      <use transform="translate(0.0 0.609375)" xlink:href="#Cmmi10-6b"/>
      <use transform="translate(52.001953125 -16.396875)scale(0.7)" xlink:href="#Cmmi10-70"/>
      <use transform="translate(111.14296875 0.609375)" xlink:href="#Cmr10-3d"/>
      <use transform="translate(206.387109375 0.609375)" xlink:href="#Cmr10-30"/>
      <use transform="translate(256.387109375 0.609375)" xlink:href="#Cmmi10-3a"/>
      <use transform="translate(301.63125 0.609375)" xlink:href="#Cmr10-31"/>
      <use transform="translate(351.63125 0.609375)" xlink:href="#Cmr10-34"/>
      <use transform="translate(401.63125 0.609375)" xlink:href="#Cmr10-33"/>
      <use transform="translate(451.63125 0.609375)" xlink:href="#Cmmi10-3b"/>
      <use transform="translate(584.668359375 0.609375)" xlink:href="#Cmmi10-6b"/>
      <use transform="translate(636.6703125 -16.396875)scale(0.7)" xlink:href="#Cmmi10-69"/>
      <use transform="translate(684.702929688 0.609375)" xlink:href="#Cmr10-3d"/>
      <use transform="translate(779.947070313 0.609375)" xlink:href="#Cmr10-30"/>
      <use transform="translate(829.947070313 0.609375)" xlink:href="#Cmmi10-3a"/>
      <use transform="translate(875.191210938 0.609375)" xlink:href="#Cmr10-30"/>
      <use transform="translate(925.191210938 0.609375)" xlink:href="#Cmr10-39"/>
      <use transform="translate(975.191210938 0.609375)" xlink:href="#Cmr10-39"/>
      <use transform="translate(1025.19121094 0.609375)" xlink:href="#Cmmi10-3b"/>
      <use transform="translate(1158.22832031 0.609375)" xlink:href="#Cmmi10-6b"/>
      <use transform="translate(1210.23027344 -16.396875)scale(0.7)" xlink:href="#Cmmi10-64"/>
      <use transform="translate(1270.56757812 0.609375)" xlink:href="#Cmr10-3d"/>
      <use transform="translate(1365.81171875 0.609375)" xlink:href="#Cmr10-30"/>
      <use transform="translate(1415.81171875 0.609375)" xlink:href="#Cmmi10-3a"/>
      <use transform="translate(1461.05585937 0.609375)" xlink:href="#Cmr10-30"/>
     </g>
    </g>
    <g id="line2d_43">
     <path d="M 150.772312 99.590781 
L 161.972312 99.590781 
" style="fill:none;stroke:#14ccc6;stroke-linecap:square;"/>
    </g>
    <g id="line2d_44"/>
    <g id="text_19">
     <!-- $k_p = 0.429, \quad k_i = 0.09, \quad k_d = 0.0$ -->
     <g transform="translate(170.772311987 102.39078125)scale(0.08 -0.08)">
      <use transform="translate(0.0 0.609375)" xlink:href="#Cmmi10-6b"/>
      <use transform="translate(52.001953125 -16.396875)scale(0.7)" xlink:href="#Cmmi10-70"/>
      <use transform="translate(111.14296875 0.609375)" xlink:href="#Cmr10-3d"/>
      <use transform="translate(206.387109375 0.609375)" xlink:href="#Cmr10-30"/>
      <use transform="translate(256.387109375 0.609375)" xlink:href="#Cmmi10-3a"/>
      <use transform="translate(301.63125 0.609375)" xlink:href="#Cmr10-34"/>
      <use transform="translate(351.63125 0.609375)" xlink:href="#Cmr10-32"/>
      <use transform="translate(401.63125 0.609375)" xlink:href="#Cmr10-39"/>
      <use transform="translate(451.63125 0.609375)" xlink:href="#Cmmi10-3b"/>
      <use transform="translate(584.668359375 0.609375)" xlink:href="#Cmmi10-6b"/>
      <use transform="translate(636.6703125 -16.396875)scale(0.7)" xlink:href="#Cmmi10-69"/>
      <use transform="translate(684.702929688 0.609375)" xlink:href="#Cmr10-3d"/>
      <use transform="translate(779.947070313 0.609375)" xlink:href="#Cmr10-30"/>
      <use transform="translate(829.947070313 0.609375)" xlink:href="#Cmmi10-3a"/>
      <use transform="translate(875.191210938 0.609375)" xlink:href="#Cmr10-30"/>
      <use transform="translate(925.191210938 0.609375)" xlink:href="#Cmr10-39"/>
      <use transform="translate(975.191210938 0.609375)" xlink:href="#Cmmi10-3b"/>
      <use transform="translate(1108.22832031 0.609375)" xlink:href="#Cmmi10-6b"/>
      <use transform="translate(1160.23027344 -16.396875)scale(0.7)" xlink:href="#Cmmi10-64"/>
      <use transform="translate(1220.56757812 0.609375)" xlink:href="#Cmr10-3d"/>
      <use transform="translate(1315.81171875 0.609375)" xlink:href="#Cmr10-30"/>
      <use transform="translate(1365.81171875 0.609375)" xlink:href="#Cmmi10-3a"/>
      <use transform="translate(1411.05585937 0.609375)" xlink:href="#Cmr10-30"/>
     </g>
    </g>
    <g id="line2d_45">
     <path d="M 150.772312 112.149531 
L 161.972312 112.149531 
" style="fill:none;stroke:#1427cc;stroke-linecap:square;"/>
    </g>
    <g id="line2d_46"/>
    <g id="text_20">
     <!-- $k_p = 0.714, \quad k_i = 0.07, \quad k_d = 0.0$ -->
     <g transform="translate(170.772311987 114.94953125)scale(0.08 -0.08)">
      <use transform="translate(0.0 0.609375)" xlink:href="#Cmmi10-6b"/>
      <use transform="translate(52.001953125 -16.396875)scale(0.7)" xlink:href="#Cmmi10-70"/>
      <use transform="translate(111.14296875 0.609375)" xlink:href="#Cmr10-3d"/>
      <use transform="translate(206.387109375 0.609375)" xlink:href="#Cmr10-30"/>
      <use transform="translate(256.387109375 0.609375)" xlink:href="#Cmmi10-3a"/>
      <use transform="translate(301.63125 0.609375)" xlink:href="#Cmr10-37"/>
      <use transform="translate(351.63125 0.609375)" xlink:href="#Cmr10-31"/>
      <use transform="translate(401.63125 0.609375)" xlink:href="#Cmr10-34"/>
      <use transform="translate(451.63125 0.609375)" xlink:href="#Cmmi10-3b"/>
      <use transform="translate(584.668359375 0.609375)" xlink:href="#Cmmi10-6b"/>
      <use transform="translate(636.6703125 -16.396875)scale(0.7)" xlink:href="#Cmmi10-69"/>
      <use transform="translate(684.702929688 0.609375)" xlink:href="#Cmr10-3d"/>
      <use transform="translate(779.947070313 0.609375)" xlink:href="#Cmr10-30"/>
      <use transform="translate(829.947070313 0.609375)" xlink:href="#Cmmi10-3a"/>
      <use transform="translate(875.191210938 0.609375)" xlink:href="#Cmr10-30"/>
      <use transform="translate(925.191210938 0.609375)" xlink:href="#Cmr10-37"/>
      <use transform="translate(975.191210938 0.609375)" xlink:href="#Cmmi10-3b"/>
      <use transform="translate(1108.22832031 0.609375)" xlink:href="#Cmmi10-6b"/>
      <use transform="translate(1160.23027344 -16.396875)scale(0.7)" xlink:href="#Cmmi10-64"/>
      <use transform="translate(1220.56757812 0.609375)" xlink:href="#Cmr10-3d"/>
      <use transform="translate(1315.81171875 0.609375)" xlink:href="#Cmr10-30"/>
      <use transform="translate(1365.81171875 0.609375)" xlink:href="#Cmmi10-3a"/>
      <use transform="translate(1411.05585937 0.609375)" xlink:href="#Cmr10-30"/>
     </g>
    </g>
    <g id="line2d_47">
     <path d="M 150.772312 124.708281 
L 161.972312 124.708281 
" style="fill:none;stroke:#bc14cc;stroke-linecap:square;"/>
    </g>
    <g id="line2d_48"/>
    <g id="text_21">
     <!-- $k_p = 1.0, \quad k_i = 0.0, \quad k_d = 0.0$ -->
     <g transform="translate(170.772311987 127.50828125)scale(0.08 -0.08)">
      <use transform="translate(0.0 0.609375)" xlink:href="#Cmmi10-6b"/>
      <use transform="translate(52.001953125 -16.396875)scale(0.7)" xlink:href="#Cmmi10-70"/>
      <use transform="translate(111.14296875 0.609375)" xlink:href="#Cmr10-3d"/>
      <use transform="translate(206.387109375 0.609375)" xlink:href="#Cmr10-31"/>
      <use transform="translate(256.387109375 0.609375)" xlink:href="#Cmmi10-3a"/>
      <use transform="translate(301.63125 0.609375)" xlink:href="#Cmr10-30"/>
      <use transform="translate(351.63125 0.609375)" xlink:href="#Cmmi10-3b"/>
      <use transform="translate(484.668359375 0.609375)" xlink:href="#Cmmi10-6b"/>
      <use transform="translate(536.6703125 -16.396875)scale(0.7)" xlink:href="#Cmmi10-69"/>
      <use transform="translate(584.702929688 0.609375)" xlink:href="#Cmr10-3d"/>
      <use transform="translate(679.947070313 0.609375)" xlink:href="#Cmr10-30"/>
      <use transform="translate(729.947070313 0.609375)" xlink:href="#Cmmi10-3a"/>
      <use transform="translate(775.191210938 0.609375)" xlink:href="#Cmr10-30"/>
      <use transform="translate(825.191210938 0.609375)" xlink:href="#Cmmi10-3b"/>
      <use transform="translate(958.228320313 0.609375)" xlink:href="#Cmmi10-6b"/>
      <use transform="translate(1010.23027344 -16.396875)scale(0.7)" xlink:href="#Cmmi10-64"/>
      <use transform="translate(1070.56757812 0.609375)" xlink:href="#Cmr10-3d"/>
      <use transform="translate(1165.81171875 0.609375)" xlink:href="#Cmr10-30"/>
      <use transform="translate(1215.81171875 0.609375)" xlink:href="#Cmmi10-3a"/>
      <use transform="translate(1261.05585937 0.609375)" xlink:href="#Cmr10-30"/>
     </g>
    </g>
   </g>
  </g>
 </g>
 <defs>
  <clipPath id="pc4f366a934">
   <rect height="236.97921875" width="376.292123975" x="36.38625" y="26.31828125"/>
  </clipPath>
 </defs>
</svg>
