<?xml version="1.0" encoding="utf-8"?>
<svg xmlns="http://www.w3.org/2000/svg" xmlns:xlink="http://www.w3.org/1999/xlink" width="600" height="400" viewBox="0 0 600 400">
<defs>
  <clipPath id="clip9600">
    <rect x="0" y="0" width="600" height="400"/>
  </clipPath>
</defs>
<polygon clip-path="url(#clip9600)" points="
0,400 600,400 600,0 0,0 
  " fill="#ffffff" fill-opacity="1"/>
<defs>
  <clipPath id="clip9601">
    <rect x="120" y="0" width="421" height="400"/>
  </clipPath>
</defs>
<polygon clip-path="url(#clip9600)" points="
39.3701,368.504 580.315,368.504 580.315,31.4961 39.3701,31.4961 
  " fill="#ffffff" fill-opacity="1"/>
<defs>
  <clipPath id="clip9602">
    <rect x="39" y="31" width="542" height="338"/>
  </clipPath>
</defs>
<polyline clip-path="url(#clip9602)" style="stroke:#000000; stroke-width:0.5; stroke-opacity:0.1; fill:none" points="
  54.6798,368.504 54.6798,31.4961 
  "/>
<polyline clip-path="url(#clip9602)" style="stroke:#000000; stroke-width:0.5; stroke-opacity:0.1; fill:none" points="
  165.978,368.504 165.978,31.4961 
  "/>
<polyline clip-path="url(#clip9602)" style="stroke:#000000; stroke-width:0.5; stroke-opacity:0.1; fill:none" points="
  277.276,368.504 277.276,31.4961 
  "/>
<polyline clip-path="url(#clip9602)" style="stroke:#000000; stroke-width:0.5; stroke-opacity:0.1; fill:none" points="
  388.575,368.504 388.575,31.4961 
  "/>
<polyline clip-path="url(#clip9602)" style="stroke:#000000; stroke-width:0.5; stroke-opacity:0.1; fill:none" points="
  499.873,368.504 499.873,31.4961 
  "/>
<polyline clip-path="url(#clip9602)" style="stroke:#000000; stroke-width:0.5; stroke-opacity:0.1; fill:none" points="
  39.3701,342.84 580.315,342.84 
  "/>
<polyline clip-path="url(#clip9602)" style="stroke:#000000; stroke-width:0.5; stroke-opacity:0.1; fill:none" points="
  39.3701,267.846 580.315,267.846 
  "/>
<polyline clip-path="url(#clip9602)" style="stroke:#000000; stroke-width:0.5; stroke-opacity:0.1; fill:none" points="
  39.3701,192.851 580.315,192.851 
  "/>
<polyline clip-path="url(#clip9602)" style="stroke:#000000; stroke-width:0.5; stroke-opacity:0.1; fill:none" points="
  39.3701,117.856 580.315,117.856 
  "/>
<polyline clip-path="url(#clip9602)" style="stroke:#000000; stroke-width:0.5; stroke-opacity:0.1; fill:none" points="
  39.3701,42.8613 580.315,42.8613 
  "/>
<polyline clip-path="url(#clip9600)" style="stroke:#000000; stroke-width:1; stroke-opacity:1; fill:none" points="
  39.3701,368.504 580.315,368.504 
  "/>
<polyline clip-path="url(#clip9600)" style="stroke:#000000; stroke-width:1; stroke-opacity:1; fill:none" points="
  39.3701,368.504 39.3701,31.4961 
  "/>
<polyline clip-path="url(#clip9600)" style="stroke:#000000; stroke-width:1; stroke-opacity:1; fill:none" points="
  54.6798,368.504 54.6798,363.449 
  "/>
<polyline clip-path="url(#clip9600)" style="stroke:#000000; stroke-width:1; stroke-opacity:1; fill:none" points="
  165.978,368.504 165.978,363.449 
  "/>
<polyline clip-path="url(#clip9600)" style="stroke:#000000; stroke-width:1; stroke-opacity:1; fill:none" points="
  277.276,368.504 277.276,363.449 
  "/>
<polyline clip-path="url(#clip9600)" style="stroke:#000000; stroke-width:1; stroke-opacity:1; fill:none" points="
  388.575,368.504 388.575,363.449 
  "/>
<polyline clip-path="url(#clip9600)" style="stroke:#000000; stroke-width:1; stroke-opacity:1; fill:none" points="
  499.873,368.504 499.873,363.449 
  "/>
<polyline clip-path="url(#clip9600)" style="stroke:#000000; stroke-width:1; stroke-opacity:1; fill:none" points="
  39.3701,342.84 47.4843,342.84 
  "/>
<polyline clip-path="url(#clip9600)" style="stroke:#000000; stroke-width:1; stroke-opacity:1; fill:none" points="
  39.3701,267.846 47.4843,267.846 
  "/>
<polyline clip-path="url(#clip9600)" style="stroke:#000000; stroke-width:1; stroke-opacity:1; fill:none" points="
  39.3701,192.851 47.4843,192.851 
  "/>
<polyline clip-path="url(#clip9600)" style="stroke:#000000; stroke-width:1; stroke-opacity:1; fill:none" points="
  39.3701,117.856 47.4843,117.856 
  "/>
<polyline clip-path="url(#clip9600)" style="stroke:#000000; stroke-width:1; stroke-opacity:1; fill:none" points="
  39.3701,42.8613 47.4843,42.8613 
  "/>
<g clip-path="url(#clip9600)">
<text style="fill:#000000; fill-opacity:1; font-family:Arial,Helvetica Neue,Helvetica,sans-serif; font-size:12; text-anchor:middle;" transform="rotate(0, 54.6798, 382.304)" x="54.6798" y="382.304">0</text>
</g>
<g clip-path="url(#clip9600)">
<text style="fill:#000000; fill-opacity:1; font-family:Arial,Helvetica Neue,Helvetica,sans-serif; font-size:12; text-anchor:middle;" transform="rotate(0, 165.978, 382.304)" x="165.978" y="382.304">2000</text>
</g>
<g clip-path="url(#clip9600)">
<text style="fill:#000000; fill-opacity:1; font-family:Arial,Helvetica Neue,Helvetica,sans-serif; font-size:12; text-anchor:middle;" transform="rotate(0, 277.276, 382.304)" x="277.276" y="382.304">4000</text>
</g>
<g clip-path="url(#clip9600)">
<text style="fill:#000000; fill-opacity:1; font-family:Arial,Helvetica Neue,Helvetica,sans-serif; font-size:12; text-anchor:middle;" transform="rotate(0, 388.575, 382.304)" x="388.575" y="382.304">6000</text>
</g>
<g clip-path="url(#clip9600)">
<text style="fill:#000000; fill-opacity:1; font-family:Arial,Helvetica Neue,Helvetica,sans-serif; font-size:12; text-anchor:middle;" transform="rotate(0, 499.873, 382.304)" x="499.873" y="382.304">8000</text>
</g>
<g clip-path="url(#clip9600)">
<text style="fill:#000000; fill-opacity:1; font-family:Arial,Helvetica Neue,Helvetica,sans-serif; font-size:12; text-anchor:start;" transform="rotate(0, -6.19282, 348.772)" x="-6.19282" y="348.772">-</text>
</g>
<g clip-path="url(#clip9600)">
<text style="fill:#000000; fill-opacity:1; font-family:Arial,Helvetica Neue,Helvetica,sans-serif; font-size:12; text-anchor:start;" transform="rotate(0, 0.834703, 348.772)" x="0.834703" y="348.772">8×10</text>
</g>
<g clip-path="url(#clip9600)">
<text style="fill:#000000; fill-opacity:1; font-family:Arial,Helvetica Neue,Helvetica,sans-serif; font-size:10; text-anchor:start;" transform="rotate(0, 27.934, 341.92)" x="27.934" y="341.92">5</text>
</g>
<g clip-path="url(#clip9600)">
<text style="fill:#000000; fill-opacity:1; font-family:Arial,Helvetica Neue,Helvetica,sans-serif; font-size:12; text-anchor:start;" transform="rotate(0, -6.19282, 273.777)" x="-6.19282" y="273.777">-</text>
</g>
<g clip-path="url(#clip9600)">
<text style="fill:#000000; fill-opacity:1; font-family:Arial,Helvetica Neue,Helvetica,sans-serif; font-size:12; text-anchor:start;" transform="rotate(0, 0.834703, 273.777)" x="0.834703" y="273.777">6×10</text>
</g>
<g clip-path="url(#clip9600)">
<text style="fill:#000000; fill-opacity:1; font-family:Arial,Helvetica Neue,Helvetica,sans-serif; font-size:10; text-anchor:start;" transform="rotate(0, 27.934, 266.925)" x="27.934" y="266.925">5</text>
</g>
<g clip-path="url(#clip9600)">
<text style="fill:#000000; fill-opacity:1; font-family:Arial,Helvetica Neue,Helvetica,sans-serif; font-size:12; text-anchor:start;" transform="rotate(0, -6.19282, 198.783)" x="-6.19282" y="198.783">-</text>
</g>
<g clip-path="url(#clip9600)">
<text style="fill:#000000; fill-opacity:1; font-family:Arial,Helvetica Neue,Helvetica,sans-serif; font-size:12; text-anchor:start;" transform="rotate(0, 0.834703, 198.783)" x="0.834703" y="198.783">4×10</text>
</g>
<g clip-path="url(#clip9600)">
<text style="fill:#000000; fill-opacity:1; font-family:Arial,Helvetica Neue,Helvetica,sans-serif; font-size:10; text-anchor:start;" transform="rotate(0, 27.934, 191.93)" x="27.934" y="191.93">5</text>
</g>
<g clip-path="url(#clip9600)">
<text style="fill:#000000; fill-opacity:1; font-family:Arial,Helvetica Neue,Helvetica,sans-serif; font-size:12; text-anchor:start;" transform="rotate(0, -6.19282, 123.788)" x="-6.19282" y="123.788">-</text>
</g>
<g clip-path="url(#clip9600)">
<text style="fill:#000000; fill-opacity:1; font-family:Arial,Helvetica Neue,Helvetica,sans-serif; font-size:12; text-anchor:start;" transform="rotate(0, 0.834703, 123.788)" x="0.834703" y="123.788">2×10</text>
</g>
<g clip-path="url(#clip9600)">
<text style="fill:#000000; fill-opacity:1; font-family:Arial,Helvetica Neue,Helvetica,sans-serif; font-size:10; text-anchor:start;" transform="rotate(0, 27.934, 116.935)" x="27.934" y="116.935">5</text>
</g>
<g clip-path="url(#clip9600)">
<text style="fill:#000000; fill-opacity:1; font-family:Arial,Helvetica Neue,Helvetica,sans-serif; font-size:12; text-anchor:end;" transform="rotate(0, 33.3701, 47.3613)" x="33.3701" y="47.3613">0</text>
</g>
<g clip-path="url(#clip9600)">
<text style="fill:#000000; fill-opacity:1; font-family:Arial,Helvetica Neue,Helvetica,sans-serif; font-size:21; text-anchor:middle;" transform="rotate(0, 309.843, 18)" x="309.843" y="18">Stability region of P,     $k_d$ = 0.0</text>
</g>
<polyline clip-path="url(#clip9602)" style="stroke:#009af9; stroke-width:1.5; stroke-opacity:1; fill:none" points="
  54.6798,42.8613 54.6798,42.8613 54.6798,42.8613 54.6798,42.8613 54.6798,42.8613 54.6798,42.8613 54.6798,42.8613 54.6798,42.8613 54.6798,42.8613 54.6798,42.8613 
  54.6798,42.8613 54.6798,42.8613 54.6798,42.8613 54.6798,42.8613 54.6798,42.8613 54.6798,42.8613 54.6798,42.8613 54.6798,42.8613 54.6798,42.8613 54.6798,42.8613 
  54.6798,42.8613 54.6798,42.8613 54.6798,42.8613 54.6798,42.8613 54.6798,42.8613 54.6798,42.8613 54.6798,42.8613 54.6798,42.8613 54.6798,42.8613 54.6798,42.8613 
  54.6798,42.8613 54.6798,42.8613 54.6798,42.8613 54.6798,42.8613 54.6798,42.8613 54.6798,42.8613 54.6798,42.8613 54.6798,42.8613 54.6798,42.8613 54.6798,42.8613 
  54.6798,42.8613 54.6798,42.8613 54.6798,42.8613 54.6798,42.8613 54.6798,42.8613 54.6798,42.8613 54.6798,42.8613 54.6798,42.8613 54.6798,42.8613 54.6798,42.8613 
  54.6798,42.8613 54.6798,42.8613 54.6798,42.8613 54.6798,42.8613 54.6798,42.8613 54.6798,42.8613 54.6798,42.8613 54.6798,42.8613 54.6798,42.8613 54.6798,42.8613 
  54.6798,42.8613 54.6798,42.8613 54.6798,42.8613 54.6798,42.8613 54.6798,42.8613 54.6798,42.8613 54.6798,42.8613 54.6798,42.8613 54.6798,42.8613 54.6798,42.8613 
  54.6798,42.8613 54.6798,42.8613 54.6798,42.8613 54.6798,42.8613 54.6798,42.8613 54.6798,42.8613 54.6798,42.8613 54.6798,42.8613 54.6798,42.8613 54.6798,42.8613 
  54.6798,42.8613 54.6798,42.8613 54.6798,42.8613 54.6798,42.8613 54.6798,42.8613 54.6798,42.8613 54.6798,42.8613 54.6798,42.8613 54.6798,42.8613 54.6798,42.8613 
  54.6798,42.8613 54.6798,42.8613 54.6798,42.8613 54.6798,42.8613 54.6798,42.8613 54.6798,42.8613 54.6798,42.8613 54.6798,42.8613 54.6798,42.8613 54.6798,42.8613 
  54.6798,42.8613 54.6798,42.8613 54.6798,42.8613 54.6798,42.8613 54.6798,42.8613 54.6798,42.8613 54.6798,42.8613 54.6798,42.8613 54.6798,42.8613 54.6798,42.8613 
  54.6798,42.8613 54.6798,42.8613 54.6798,42.8613 54.6798,42.8613 54.6798,42.8613 54.6798,42.8613 54.6798,42.8613 54.6798,42.8613 54.6798,42.8613 54.6798,42.8613 
  54.6798,42.8613 54.6798,42.8613 54.6798,42.8613 54.6798,42.8613 54.6798,42.8613 54.6798,42.8613 54.6798,42.8613 54.6798,42.8613 54.6798,42.8613 54.6798,42.8613 
  54.6798,42.8613 54.6798,42.8613 54.6798,42.8613 54.6798,42.8613 54.6798,42.8613 54.6798,42.8613 54.6798,42.8613 54.6798,42.8613 54.6798,42.8613 54.6798,42.8613 
  54.6798,42.8613 54.6798,42.8613 54.6798,42.8613 54.6798,42.8613 54.6798,42.8613 54.6798,42.8613 54.6798,42.8613 54.6798,42.8613 54.6798,42.8613 54.6798,42.8613 
  54.6798,42.8613 54.6798,42.8613 54.6798,42.8613 54.6798,42.8613 54.6798,42.8613 54.6798,42.8613 54.6798,42.8613 54.6798,42.8613 54.6798,42.8613 54.6798,42.8613 
  54.6798,42.8613 54.6798,42.8613 54.6798,42.8613 54.6798,42.8613 54.6798,42.8613 54.6798,42.8613 54.6798,42.8613 54.6798,42.8613 54.6798,42.8613 54.6798,42.8613 
  54.6798,42.8613 54.6798,42.8613 54.6798,42.8613 54.6798,42.8613 54.6798,42.8613 54.6798,42.8613 54.6798,42.8613 54.6798,42.8613 54.6798,42.8613 54.6798,42.8613 
  54.6798,42.8613 54.6798,42.8613 54.6798,42.8613 54.6798,42.8613 54.6798,42.8613 54.6798,42.8613 54.6798,42.8613 54.6798,42.8613 54.6798,42.8613 54.6798,42.8613 
  54.6798,42.8613 54.6798,42.8613 54.6798,42.8613 54.6798,42.8613 54.6798,42.8613 54.6798,42.8613 54.6798,42.8613 54.6798,42.8613 54.6798,42.8613 54.6798,42.8613 
  54.6798,42.8613 54.6798,42.8613 54.6798,42.8613 54.6798,42.8613 54.6798,42.8613 54.6798,42.8613 54.6798,42.8613 54.6798,42.8613 54.6798,42.8613 54.6798,42.8613 
  54.6798,42.8613 54.6798,42.8613 54.6798,42.8613 54.6798,42.8613 54.6798,42.8613 54.6798,42.8613 54.6798,42.8613 54.6798,42.8613 54.6798,42.8613 54.6798,42.8613 
  54.6798,42.8613 54.6798,42.8613 54.6798,42.8613 54.6798,42.8613 54.6798,42.8613 54.6798,42.8613 54.6798,42.8613 54.6798,42.8613 54.6798,42.8613 54.6798,42.8613 
  54.6798,42.8613 54.6798,42.8613 54.6798,42.8613 54.6798,42.8613 54.6798,42.8613 54.6798,42.8613 54.6798,42.8613 54.6798,42.8613 54.6798,42.8613 54.6798,42.8613 
  54.6798,42.8613 54.6798,42.8613 54.6798,42.8613 54.6798,42.8613 54.6798,42.8613 54.6798,42.8613 54.6798,42.8613 54.6798,42.8613 54.6798,42.8613 54.6798,42.8613 
  54.6798,42.8613 54.6798,42.8613 54.6798,42.8613 54.6798,42.8613 54.6798,42.8613 54.6798,42.8613 54.6798,42.8613 54.6798,42.8613 54.6798,42.8613 54.6798,42.8613 
  54.6798,42.8613 54.6798,42.8613 54.6798,42.8613 54.6798,42.8613 54.6798,42.8613 54.6798,42.8613 54.6798,42.8613 54.6798,42.8613 54.6798,42.8613 54.6798,42.8613 
  54.6798,42.8613 54.6798,42.8613 54.6798,42.8613 54.6798,42.8613 54.6798,42.8613 54.6798,42.8613 54.6798,42.8613 54.6798,42.8613 54.6798,42.8613 54.6798,42.8613 
  54.6798,42.8613 54.6798,42.8613 54.6798,42.8613 54.6798,42.8613 54.6798,42.8613 54.6798,42.8613 54.6798,42.8613 54.6798,42.8613 54.6798,42.8613 54.6798,42.8613 
  54.6798,42.8613 54.6798,42.8613 54.6798,42.8613 54.6798,42.8613 54.6798,42.8613 54.6798,42.8613 54.6798,42.8613 54.6798,42.8613 54.6798,42.8613 54.6798,42.8613 
  54.6798,42.8613 54.6798,42.8613 54.6798,42.8613 54.6798,42.8613 54.6798,42.8613 54.6798,42.8613 54.6798,42.8613 54.6798,42.8613 54.6798,42.8613 54.6798,42.8613 
  54.6798,42.8613 54.6798,42.8613 54.6798,42.8613 54.6798,42.8613 54.6798,42.8613 54.6798,42.8613 54.6798,42.8613 54.6798,42.8613 54.6798,42.8613 54.6798,42.8613 
  54.6798,42.8613 54.6798,42.8613 54.6798,42.8613 54.6798,42.8613 54.6798,42.8613 54.6798,42.8613 54.6798,42.8613 54.6798,42.8613 54.6798,42.8613 54.6798,42.8613 
  54.6798,42.8613 54.6798,42.8613 54.6798,42.8613 54.6798,42.8613 54.6798,42.8613 54.6798,42.8613 54.6798,42.8613 54.6798,42.8613 54.6798,42.8613 54.6798,42.8613 
  54.6798,42.8613 54.6798,42.8613 54.6798,42.8613 54.6798,42.8613 54.6798,42.8613 54.6798,42.8613 54.6798,42.8613 54.6798,42.8613 54.6798,42.8613 54.6798,42.8613 
  54.6798,42.8613 54.6798,42.8613 54.6798,42.8613 54.6798,42.8613 54.6798,42.8613 54.6798,42.8613 54.6798,42.8613 54.6798,42.8613 54.6798,42.8613 54.6798,42.8613 
  54.6798,42.8613 54.6798,42.8613 54.6798,42.8613 54.6798,42.8613 54.6798,42.8613 54.6798,42.8613 54.6798,42.8613 54.6798,42.8613 54.6798,42.8613 54.6798,42.8613 
  54.6798,42.8613 54.6798,42.8613 54.6798,42.8613 54.6798,42.8613 54.6798,42.8613 54.6798,42.8613 54.6798,42.8613 54.6798,42.8613 54.6798,42.8613 54.6798,42.8613 
  54.6798,42.8613 54.6798,42.8613 54.6798,42.8613 54.6798,42.8613 54.6798,42.8613 54.6798,42.8613 54.6798,42.8613 54.6798,42.8613 54.6798,42.8613 54.6798,42.8613 
  54.6798,42.8613 54.6798,42.8613 54.6798,42.8613 54.6798,42.8613 54.6798,42.8613 54.6798,42.8613 54.6798,42.8613 54.6798,42.8613 54.6798,42.8613 54.6798,42.8613 
  54.6798,42.8613 54.6798,42.8613 54.6798,42.8613 54.6798,42.8613 54.6798,42.8613 54.6798,42.8613 54.6798,42.8613 54.6798,42.8613 54.6798,42.8613 54.6798,42.8613 
  54.6798,42.8613 54.6798,42.8613 54.6798,42.8613 54.6798,42.8613 54.6798,42.8613 54.6798,42.8613 54.6798,42.8613 54.6798,42.8613 54.6798,42.8613 54.6798,42.8613 
  54.6798,42.8613 54.6798,42.8613 54.6798,42.8613 54.6798,42.8613 54.6798,42.8613 54.6798,42.8613 54.6798,42.8613 54.6798,42.8613 54.6798,42.8613 54.6798,42.8613 
  54.6798,42.8613 54.6798,42.8613 54.6798,42.8613 54.6798,42.8613 54.6798,42.8613 54.6798,42.8613 54.6798,42.8613 54.6798,42.8613 54.6798,42.8613 54.6798,42.8613 
  54.6798,42.8613 54.6798,42.8613 54.6798,42.8613 54.6799,42.8613 54.6799,42.8613 54.6799,42.8613 54.6799,42.8613 54.6799,42.8613 54.6799,42.8613 54.6799,42.8613 
  54.6799,42.8613 54.6799,42.8613 54.6799,42.8613 54.6799,42.8613 54.6799,42.8613 54.6799,42.8613 54.6799,42.8613 54.6799,42.8613 54.6799,42.8613 54.6799,42.8613 
  54.6799,42.8613 54.6799,42.8613 54.6799,42.8613 54.6799,42.8613 54.6799,42.8613 54.6799,42.8613 54.6799,42.8613 54.6799,42.8613 54.6799,42.8613 54.6799,42.8613 
  54.6799,42.8613 54.6799,42.8613 54.6799,42.8613 54.6799,42.8613 54.6799,42.8613 54.6799,42.8613 54.6799,42.8613 54.6799,42.8613 54.6799,42.8613 54.6799,42.8613 
  54.6799,42.8613 54.6799,42.8613 54.6799,42.8613 54.6799,42.8613 54.6799,42.8613 54.6799,42.8613 54.6799,42.8613 54.6799,42.8613 54.6799,42.8613 54.6799,42.8613 
  54.6799,42.8613 54.6799,42.8613 54.6799,42.8613 54.6799,42.8613 54.6799,42.8613 54.6799,42.8613 54.6799,42.8613 54.6799,42.8613 54.6799,42.8613 54.6799,42.8613 
  54.6799,42.8613 54.6799,42.8613 54.6799,42.8613 54.6799,42.8613 54.6799,42.8613 54.6799,42.8613 54.6799,42.8613 54.6799,42.8613 54.6799,42.8613 54.6799,42.8613 
  54.6799,42.8613 54.6799,42.8613 54.6799,42.8613 54.6799,42.8613 54.6799,42.8613 54.6799,42.8613 54.68,42.8613 54.68,42.8613 54.68,42.8613 54.68,42.8613 
  54.68,42.8613 54.68,42.8613 54.68,42.8613 54.68,42.8613 54.68,42.8613 54.68,42.8613 54.68,42.8613 54.68,42.8613 54.68,42.8613 54.68,42.8613 
  54.68,42.8613 54.68,42.8613 54.68,42.8613 54.68,42.8613 54.68,42.8613 54.68,42.8613 54.6801,42.8613 54.6801,42.8613 54.6801,42.8613 54.6801,42.8613 
  54.6801,42.8613 54.6801,42.8613 54.6801,42.8613 54.6801,42.8613 54.6801,42.8613 54.6801,42.8613 54.6801,42.8613 54.6801,42.8613 54.6802,42.8613 54.6802,42.8613 
  54.6802,42.8613 54.6802,42.8613 54.6802,42.8613 54.6802,42.8613 54.6802,42.8613 54.6802,42.8613 54.6802,42.8613 54.6803,42.8613 54.6803,42.8613 54.6803,42.8613 
  54.6803,42.8613 54.6803,42.8613 54.6803,42.8613 54.6804,42.8613 54.6804,42.8613 54.6804,42.8613 54.6804,42.8613 54.6804,42.8613 54.6804,42.8613 54.6805,42.8613 
  54.6805,42.8613 54.6805,42.8613 54.6805,42.8613 54.6805,42.8613 54.6806,42.8613 54.6806,42.8613 54.6806,42.8613 54.6806,42.8613 54.6807,42.8613 54.6807,42.8613 
  54.6807,42.8613 54.6808,42.8613 54.6808,42.8613 54.6808,42.8613 54.6808,42.8613 54.6809,42.8613 54.6809,42.8613 54.681,42.8613 54.681,42.8613 54.681,42.8613 
  54.6811,42.8613 54.6811,42.8613 54.6811,42.8613 54.6812,42.8613 54.6812,42.8613 54.6813,42.8613 54.6813,42.8613 54.6814,42.8613 54.6814,42.8613 54.6815,42.8613 
  54.6815,42.8613 54.6816,42.8613 54.6816,42.8613 54.6817,42.8613 54.6818,42.8613 54.6818,42.8613 54.6819,42.8613 54.682,42.8613 54.682,42.8613 54.6821,42.8613 
  54.6822,42.8613 54.6823,42.8613 54.6823,42.8613 54.6824,42.8613 54.6825,42.8613 54.6826,42.8613 54.6827,42.8613 54.6828,42.8613 54.6829,42.8613 54.683,42.8613 
  54.6831,42.8613 54.6832,42.8613 54.6833,42.8613 54.6834,42.8613 54.6835,42.8613 54.6836,42.8613 54.6838,42.8613 54.6839,42.8613 54.684,42.8613 54.6842,42.8613 
  54.6843,42.8613 54.6845,42.8613 54.6846,42.8613 54.6848,42.8613 54.6849,42.8613 54.6851,42.8613 54.6853,42.8613 54.6855,42.8613 54.6856,42.8613 54.6858,42.8613 
  54.686,42.8613 54.6862,42.8613 54.6865,42.8613 54.6867,42.8613 54.6869,42.8613 54.6871,42.8613 54.6874,42.8613 54.6876,42.8613 54.6879,42.8613 54.6881,42.8613 
  54.6884,42.8613 54.6887,42.8613 54.689,42.8613 54.6893,42.8613 54.6896,42.8613 54.69,42.8613 54.6903,42.8613 54.6906,42.8613 54.691,42.8613 54.6914,42.8613 
  54.6918,42.8613 54.6921,42.8613 54.6926,42.8613 54.693,42.8613 54.6934,42.8613 54.6939,42.8613 54.6943,42.8613 54.6948,42.8613 54.6953,42.8613 54.6959,42.8613 
  54.6964,42.8613 54.6969,42.8613 54.6975,42.8613 54.6981,42.8613 54.6987,42.8613 54.6994,42.8613 54.7,42.8613 54.7007,42.8613 54.7014,42.8613 54.7021,42.8613 
  54.7029,42.8613 54.7037,42.8612 54.7045,42.8612 54.7053,42.8612 54.7062,42.8612 54.7071,42.8612 54.708,42.8612 54.709,42.8612 54.71,42.8612 54.711,42.8612 
  54.712,42.8612 54.7131,42.8612 54.7143,42.8612 54.7155,42.8612 54.7167,42.8612 54.718,42.8612 54.7193,42.8612 54.7206,42.8612 54.722,42.8612 54.7235,42.8612 
  54.725,42.8612 54.7266,42.8612 54.7282,42.8612 54.7299,42.8612 54.7316,42.8612 54.7334,42.8612 54.7353,42.8612 54.7372,42.8612 54.7393,42.8612 54.7413,42.8612 
  54.7435,42.8612 54.7458,42.8612 54.7481,42.8612 54.7505,42.8612 54.753,42.8612 54.7556,42.8612 54.7583,42.8612 54.7611,42.8612 54.764,42.8612 54.767,42.8612 
  54.7702,42.8612 54.7734,42.8612 54.7768,42.8612 54.7803,42.8612 54.7839,42.8612 54.7877,42.8612 54.7916,42.8612 54.7957,42.8612 54.8,42.8612 54.8044,42.8612 
  54.8089,42.8612 54.8137,42.8612 54.8186,42.8612 54.8238,42.8612 54.8291,42.8612 54.8347,42.8612 54.8404,42.8612 54.8464,42.8612 54.8527,42.8613 54.8592,42.8613 
  54.8659,42.8613 54.8729,42.8613 54.8802,42.8613 54.8879,42.8613 54.8958,42.8613 54.904,42.8614 54.9126,42.8614 54.9215,42.8614 54.9308,42.8614 54.9404,42.8614 
  54.9505,42.8615 54.9609,42.8615 54.9718,42.8615 54.9832,42.8616 54.995,42.8616 55.0073,42.8616 55.0201,42.8617 55.0334,42.8617 55.0473,42.8618 55.0617,42.8618 
  55.0767,42.8619 55.0924,42.8619 55.1087,42.862 55.1256,42.862 55.1433,42.8621 55.1617,42.8621 55.1808,42.8622 55.2007,42.8623 55.2215,42.8624 55.243,42.8624 
  55.2655,42.8625 55.2888,42.8626 55.3131,42.8627 55.3384,42.8628 55.3647,42.8628 55.392,42.8629 55.4205,42.863 55.45,42.8631 55.4808,42.8632 55.5127,42.8633 
  55.5459,42.8634 55.5804,42.8635 55.6162,42.8636 55.6534,42.8637 55.692,42.8638 55.7321,42.8639 55.7737,42.864 55.8169,42.8641 55.8616,42.8642 55.908,42.8643 
  55.9562,42.8643 56.006,42.8644 56.0577,42.8645 56.1112,42.8645 56.1666,42.8646 56.224,42.8646 56.2833,42.8646 56.3447,42.8646 56.4082,42.8646 56.4738,42.8645 
  56.5415,42.8645 56.6116,42.8644 56.6838,42.8643 56.7584,42.8641 56.8354,42.8639 56.9147,42.8637 56.9965,42.8634 57.0808,42.8631 57.1677,42.8628 57.2571,42.8624 
  57.3491,42.8619 57.4437,42.8614 57.541,42.8608 57.6411,42.8601 57.7438,42.8594 57.8494,42.8586 57.9578,42.8577 58.069,42.8567 58.1831,42.8556 58.3,42.8544 
  58.4199,42.853 58.5428,42.8516 58.6686,42.85 58.7974,42.8483 58.9292,42.8465 59.064,42.8445 59.2019,42.8423 59.3429,42.84 59.4869,42.8375 59.6341,42.8349 
  59.7844,42.832 59.9379,42.8289 60.0945,42.8256 60.2543,42.8221 60.4174,42.8184 60.5837,42.8144 60.7532,42.8101 60.9261,42.8056 61.1022,42.8008 61.2817,42.7958 
  61.4646,42.7904 61.651,42.7847 61.8407,42.7788 62.034,42.7724 62.2308,42.7658 62.4313,42.7587 62.6353,42.7514 62.8431,42.7436 63.0546,42.7354 63.27,42.7269 
  63.4893,42.7179 63.7125,42.7085 63.9399,42.6986 64.1713,42.6883 64.4071,42.6776 64.6472,42.6663 64.8917,42.6546 65.1408,42.6424 65.3947,42.6296 65.6533,42.6164 
  65.9169,42.6026 66.1856,42.5882 66.4596,42.5733 66.739,42.5578 67.0241,42.5418 67.3149,42.5251 67.6116,42.5078 67.9145,42.49 68.2238,42.4715 68.5397,42.4524 
  68.8624,42.4326 69.1921,42.4122 69.5292,42.3911 69.8738,42.3694 70.2262,42.347 70.5867,42.324 70.9557,42.3003 71.3333,42.2759 71.7199,42.2508 72.1159,42.225 
  72.5216,42.1986 72.9373,42.1715 73.3634,42.1437 73.8003,42.1153 74.2484,42.0862 74.7081,42.0565 75.1797,42.0261 75.6638,41.9952 76.1609,41.9636 76.6712,41.9315 
  77.1954,41.8988 77.734,41.8656 78.2874,41.8319 78.8563,41.7977 79.4411,41.7632 80.0424,41.7283 80.6608,41.693 81.297,41.6575 81.9515,41.6218 82.625,41.586 
  83.3182,41.5501 84.0317,41.5143 84.7664,41.4786 85.5229,41.4431 86.3019,41.408 87.1044,41.3733 87.931,41.3393 88.7827,41.3059 89.6603,41.2735 90.5647,41.2421 
  91.4968,41.212 92.4575,41.1833 93.448,41.1564 94.4691,41.1313 95.5219,41.1084 96.6075,41.088 97.7271,41.0703 98.8817,41.0557 100.073,41.0445 101.301,41.0372 
  102.568,41.034 103.876,41.0356 105.224,41.0422 106.616,41.0546 108.052,41.0732 109.533,41.0985 111.062,41.1314 112.64,41.1724 114.268,41.2223 115.948,41.2819 
  117.683,41.352 119.473,41.4337 121.321,41.5278 123.228,41.6354 125.197,41.7578 127.229,41.8961 129.327,42.0516 131.493,42.2258 133.729,42.4202 136.037,42.6364 
  138.42,42.8761 140.881,43.1413 143.421,43.434 146.044,43.7562 148.752,44.1104 151.548,44.499 154.436,44.9246 157.417,45.39 160.495,45.8984 163.673,46.453 
  166.955,47.0572 170.344,47.7148 173.844,48.4297 177.458,49.2063 181.189,50.0491 185.043,50.9631 189.022,51.9533 193.131,53.0255 197.375,54.1856 201.757,55.4401 
  206.282,56.7957 210.956,58.2598 215.782,59.8402 220.766,61.5453 225.913,63.3841 231.228,65.3661 236.717,67.5015 242.386,69.8013 248.241,72.2771 254.287,74.9415 
  260.531,77.8077 266.979,80.8901 273.639,84.2038 280.516,87.7651 287.619,91.5915 294.955,95.7014 302.53,100.115 310.354,104.853 318.435,109.938 326.78,115.395 
  335.398,121.249 344.299,127.528 353.491,134.261 362.985,141.48 372.789,149.218 382.915,157.512 393.373,166.399 404.174,175.92 415.329,186.12 426.849,197.045 
  438.747,208.744 451.035,221.27 463.725,234.682 476.832,249.038 490.369,264.404 504.349,280.849 518.787,298.446 533.699,317.274 549.1,337.418 565.005,358.966 
  
  "/>
<polygon clip-path="url(#clip9600)" points="
489.608,82.6161 562.315,82.6161 562.315,52.3761 489.608,52.3761 
  " fill="#ffffff" fill-opacity="1"/>
<polyline clip-path="url(#clip9600)" style="stroke:#000000; stroke-width:1; stroke-opacity:1; fill:none" points="
  489.608,82.6161 562.315,82.6161 562.315,52.3761 489.608,52.3761 489.608,82.6161 
  "/>
<polyline clip-path="url(#clip9600)" style="stroke:#009af9; stroke-width:1.5; stroke-opacity:1; fill:none" points="
  495.608,67.4961 531.608,67.4961 
  "/>
<g clip-path="url(#clip9600)">
<text style="fill:#000000; fill-opacity:1; font-family:Arial,Helvetica Neue,Helvetica,sans-serif; font-size:12; text-anchor:start;" transform="rotate(0, 537.608, 71.9961)" x="537.608" y="71.9961">y1</text>
</g>
</svg>
