<?xml version="1.0" encoding="utf-8"?>
<svg xmlns="http://www.w3.org/2000/svg" xmlns:xlink="http://www.w3.org/1999/xlink" width="600" height="400" viewBox="0 0 600 400">
<defs>
  <clipPath id="clip9700">
    <rect x="0" y="0" width="600" height="400"/>
  </clipPath>
</defs>
<polygon clip-path="url(#clip9700)" points="
0,400 600,400 600,0 0,0 
  " fill="#ffffff" fill-opacity="1"/>
<defs>
  <clipPath id="clip9701">
    <rect x="120" y="0" width="421" height="400"/>
  </clipPath>
</defs>
<polygon clip-path="url(#clip9700)" points="
39.3701,368.504 580.315,368.504 580.315,31.4961 39.3701,31.4961 
  " fill="#ffffff" fill-opacity="1"/>
<defs>
  <clipPath id="clip9702">
    <rect x="39" y="31" width="542" height="338"/>
  </clipPath>
</defs>
<polyline clip-path="url(#clip9702)" style="stroke:#000000; stroke-width:0.5; stroke-opacity:0.1; fill:none" points="
  54.6798,368.504 54.6798,31.4961 
  "/>
<polyline clip-path="url(#clip9702)" style="stroke:#000000; stroke-width:0.5; stroke-opacity:0.1; fill:none" points="
  156.745,368.504 156.745,31.4961 
  "/>
<polyline clip-path="url(#clip9702)" style="stroke:#000000; stroke-width:0.5; stroke-opacity:0.1; fill:none" points="
  258.81,368.504 258.81,31.4961 
  "/>
<polyline clip-path="url(#clip9702)" style="stroke:#000000; stroke-width:0.5; stroke-opacity:0.1; fill:none" points="
  360.875,368.504 360.875,31.4961 
  "/>
<polyline clip-path="url(#clip9702)" style="stroke:#000000; stroke-width:0.5; stroke-opacity:0.1; fill:none" points="
  462.94,368.504 462.94,31.4961 
  "/>
<polyline clip-path="url(#clip9702)" style="stroke:#000000; stroke-width:0.5; stroke-opacity:0.1; fill:none" points="
  565.005,368.504 565.005,31.4961 
  "/>
<polyline clip-path="url(#clip9702)" style="stroke:#000000; stroke-width:0.5; stroke-opacity:0.1; fill:none" points="
  39.3701,358.966 580.315,358.966 
  "/>
<polyline clip-path="url(#clip9702)" style="stroke:#000000; stroke-width:0.5; stroke-opacity:0.1; fill:none" points="
  39.3701,279.483 580.315,279.483 
  "/>
<polyline clip-path="url(#clip9702)" style="stroke:#000000; stroke-width:0.5; stroke-opacity:0.1; fill:none" points="
  39.3701,200 580.315,200 
  "/>
<polyline clip-path="url(#clip9702)" style="stroke:#000000; stroke-width:0.5; stroke-opacity:0.1; fill:none" points="
  39.3701,120.516 580.315,120.516 
  "/>
<polyline clip-path="url(#clip9702)" style="stroke:#000000; stroke-width:0.5; stroke-opacity:0.1; fill:none" points="
  39.3701,41.0331 580.315,41.0331 
  "/>
<polyline clip-path="url(#clip9700)" style="stroke:#000000; stroke-width:1; stroke-opacity:1; fill:none" points="
  39.3701,368.504 580.315,368.504 
  "/>
<polyline clip-path="url(#clip9700)" style="stroke:#000000; stroke-width:1; stroke-opacity:1; fill:none" points="
  39.3701,368.504 39.3701,31.4961 
  "/>
<polyline clip-path="url(#clip9700)" style="stroke:#000000; stroke-width:1; stroke-opacity:1; fill:none" points="
  54.6798,368.504 54.6798,363.449 
  "/>
<polyline clip-path="url(#clip9700)" style="stroke:#000000; stroke-width:1; stroke-opacity:1; fill:none" points="
  156.745,368.504 156.745,363.449 
  "/>
<polyline clip-path="url(#clip9700)" style="stroke:#000000; stroke-width:1; stroke-opacity:1; fill:none" points="
  258.81,368.504 258.81,363.449 
  "/>
<polyline clip-path="url(#clip9700)" style="stroke:#000000; stroke-width:1; stroke-opacity:1; fill:none" points="
  360.875,368.504 360.875,363.449 
  "/>
<polyline clip-path="url(#clip9700)" style="stroke:#000000; stroke-width:1; stroke-opacity:1; fill:none" points="
  462.94,368.504 462.94,363.449 
  "/>
<polyline clip-path="url(#clip9700)" style="stroke:#000000; stroke-width:1; stroke-opacity:1; fill:none" points="
  565.005,368.504 565.005,363.449 
  "/>
<polyline clip-path="url(#clip9700)" style="stroke:#000000; stroke-width:1; stroke-opacity:1; fill:none" points="
  39.3701,358.966 47.4843,358.966 
  "/>
<polyline clip-path="url(#clip9700)" style="stroke:#000000; stroke-width:1; stroke-opacity:1; fill:none" points="
  39.3701,279.483 47.4843,279.483 
  "/>
<polyline clip-path="url(#clip9700)" style="stroke:#000000; stroke-width:1; stroke-opacity:1; fill:none" points="
  39.3701,200 47.4843,200 
  "/>
<polyline clip-path="url(#clip9700)" style="stroke:#000000; stroke-width:1; stroke-opacity:1; fill:none" points="
  39.3701,120.516 47.4843,120.516 
  "/>
<polyline clip-path="url(#clip9700)" style="stroke:#000000; stroke-width:1; stroke-opacity:1; fill:none" points="
  39.3701,41.0331 47.4843,41.0331 
  "/>
<g clip-path="url(#clip9700)">
<text style="fill:#000000; fill-opacity:1; font-family:Arial,Helvetica Neue,Helvetica,sans-serif; font-size:12; text-anchor:middle;" transform="rotate(0, 54.6798, 382.304)" x="54.6798" y="382.304">-1</text>
</g>
<g clip-path="url(#clip9700)">
<text style="fill:#000000; fill-opacity:1; font-family:Arial,Helvetica Neue,Helvetica,sans-serif; font-size:12; text-anchor:middle;" transform="rotate(0, 156.745, 382.304)" x="156.745" y="382.304">0</text>
</g>
<g clip-path="url(#clip9700)">
<text style="fill:#000000; fill-opacity:1; font-family:Arial,Helvetica Neue,Helvetica,sans-serif; font-size:12; text-anchor:middle;" transform="rotate(0, 258.81, 382.304)" x="258.81" y="382.304">1</text>
</g>
<g clip-path="url(#clip9700)">
<text style="fill:#000000; fill-opacity:1; font-family:Arial,Helvetica Neue,Helvetica,sans-serif; font-size:12; text-anchor:middle;" transform="rotate(0, 360.875, 382.304)" x="360.875" y="382.304">2</text>
</g>
<g clip-path="url(#clip9700)">
<text style="fill:#000000; fill-opacity:1; font-family:Arial,Helvetica Neue,Helvetica,sans-serif; font-size:12; text-anchor:middle;" transform="rotate(0, 462.94, 382.304)" x="462.94" y="382.304">3</text>
</g>
<g clip-path="url(#clip9700)">
<text style="fill:#000000; fill-opacity:1; font-family:Arial,Helvetica Neue,Helvetica,sans-serif; font-size:12; text-anchor:middle;" transform="rotate(0, 565.005, 382.304)" x="565.005" y="382.304">4</text>
</g>
<g clip-path="url(#clip9700)">
<text style="fill:#000000; fill-opacity:1; font-family:Arial,Helvetica Neue,Helvetica,sans-serif; font-size:12; text-anchor:end;" transform="rotate(0, 33.3701, 363.466)" x="33.3701" y="363.466">0.00</text>
</g>
<g clip-path="url(#clip9700)">
<text style="fill:#000000; fill-opacity:1; font-family:Arial,Helvetica Neue,Helvetica,sans-serif; font-size:12; text-anchor:end;" transform="rotate(0, 33.3701, 283.983)" x="33.3701" y="283.983">0.25</text>
</g>
<g clip-path="url(#clip9700)">
<text style="fill:#000000; fill-opacity:1; font-family:Arial,Helvetica Neue,Helvetica,sans-serif; font-size:12; text-anchor:end;" transform="rotate(0, 33.3701, 204.5)" x="33.3701" y="204.5">0.50</text>
</g>
<g clip-path="url(#clip9700)">
<text style="fill:#000000; fill-opacity:1; font-family:Arial,Helvetica Neue,Helvetica,sans-serif; font-size:12; text-anchor:end;" transform="rotate(0, 33.3701, 125.016)" x="33.3701" y="125.016">0.75</text>
</g>
<g clip-path="url(#clip9700)">
<text style="fill:#000000; fill-opacity:1; font-family:Arial,Helvetica Neue,Helvetica,sans-serif; font-size:12; text-anchor:end;" transform="rotate(0, 33.3701, 45.5331)" x="33.3701" y="45.5331">1.00</text>
</g>
<g clip-path="url(#clip9700)">
<text style="fill:#000000; fill-opacity:1; font-family:Arial,Helvetica Neue,Helvetica,sans-serif; font-size:21; text-anchor:middle;" transform="rotate(0, 309.843, 18)" x="309.843" y="18">Stability region of P,     $k_d$ = 0.0</text>
</g>
<polyline clip-path="url(#clip9702)" style="stroke:#009af9; stroke-width:1.5; stroke-opacity:1; fill:none" points="
  54.6798,358.966 54.6798,358.966 54.6798,358.966 54.6798,358.966 54.6798,358.966 54.6798,358.966 54.6798,358.966 54.6798,358.966 54.6798,358.966 54.6798,358.966 
  54.6798,358.966 54.6798,358.966 54.6798,358.966 54.6798,358.966 54.6798,358.966 54.6798,358.966 54.6798,358.966 54.6798,358.966 54.6798,358.966 54.6798,358.966 
  54.6798,358.966 54.6798,358.966 54.6798,358.966 54.6798,358.966 54.6798,358.966 54.6798,358.966 54.6798,358.966 54.6798,358.966 54.6798,358.966 54.6798,358.966 
  54.6798,358.966 54.6798,358.966 54.6798,358.966 54.6798,358.966 54.6798,358.966 54.6798,358.966 54.6798,358.966 54.6798,358.966 54.6798,358.966 54.6798,358.966 
  54.6798,358.966 54.6798,358.966 54.6798,358.966 54.6798,358.966 54.6798,358.966 54.6798,358.966 54.6798,358.966 54.6798,358.966 54.6798,358.966 54.6798,358.966 
  54.6798,358.966 54.6798,358.966 54.6798,358.966 54.6798,358.966 54.6798,358.966 54.6798,358.966 54.6798,358.966 54.6798,358.966 54.6798,358.966 54.6798,358.966 
  54.6798,358.966 54.6798,358.966 54.6798,358.966 54.6798,358.966 54.6798,358.966 54.6798,358.966 54.6798,358.966 54.6798,358.966 54.6798,358.966 54.6798,358.966 
  54.6798,358.966 54.6798,358.966 54.6798,358.966 54.6798,358.966 54.6798,358.966 54.6798,358.966 54.6798,358.966 54.6798,358.966 54.6798,358.966 54.6798,358.966 
  54.6798,358.966 54.6798,358.966 54.6798,358.966 54.6798,358.966 54.6798,358.966 54.6798,358.966 54.6798,358.966 54.6798,358.966 54.6798,358.966 54.6798,358.966 
  54.6798,358.966 54.6798,358.966 54.6798,358.966 54.6798,358.966 54.6798,358.966 54.6798,358.966 54.6798,358.966 54.6798,358.966 54.6798,358.966 54.6798,358.966 
  54.6798,358.966 54.6798,358.966 54.6798,358.966 54.6798,358.966 54.6798,358.966 54.6798,358.966 54.6798,358.966 54.6798,358.966 54.6798,358.966 54.6798,358.966 
  54.6798,358.966 54.6798,358.966 54.6798,358.966 54.6798,358.966 54.6798,358.966 54.6798,358.966 54.6798,358.966 54.6798,358.966 54.6798,358.966 54.6798,358.966 
  54.6798,358.966 54.6798,358.966 54.6798,358.966 54.6798,358.966 54.6798,358.966 54.6798,358.966 54.6798,358.966 54.6798,358.966 54.6798,358.966 54.6798,358.966 
  54.6798,358.966 54.6798,358.966 54.6798,358.966 54.6798,358.966 54.6798,358.966 54.6798,358.966 54.6798,358.966 54.6798,358.966 54.6798,358.966 54.6798,358.966 
  54.6798,358.966 54.6798,358.966 54.6798,358.966 54.6798,358.966 54.6798,358.966 54.6798,358.966 54.6798,358.966 54.6798,358.966 54.6798,358.966 54.6798,358.966 
  54.6798,358.966 54.6798,358.966 54.6798,358.966 54.6798,358.966 54.6798,358.966 54.6798,358.966 54.6798,358.966 54.6798,358.966 54.6798,358.966 54.6798,358.966 
  54.6798,358.966 54.6798,358.966 54.6798,358.966 54.6798,358.966 54.6798,358.966 54.6798,358.966 54.6798,358.966 54.6798,358.966 54.6798,358.966 54.6798,358.966 
  54.6798,358.966 54.6798,358.966 54.6798,358.966 54.6798,358.966 54.6798,358.966 54.6798,358.966 54.6798,358.966 54.6798,358.966 54.6798,358.966 54.6798,358.966 
  54.6798,358.966 54.6798,358.966 54.6798,358.966 54.6798,358.966 54.6798,358.966 54.6798,358.966 54.6798,358.966 54.6798,358.966 54.6798,358.966 54.6798,358.966 
  54.6798,358.966 54.6798,358.966 54.6798,358.966 54.6798,358.966 54.6798,358.966 54.6798,358.966 54.6798,358.966 54.6798,358.966 54.6798,358.966 54.6798,358.966 
  54.6798,358.966 54.6798,358.966 54.6798,358.966 54.6798,358.966 54.6798,358.966 54.6798,358.966 54.6798,358.966 54.6798,358.966 54.6798,358.966 54.6798,358.966 
  54.6798,358.966 54.6798,358.966 54.6798,358.966 54.6798,358.966 54.6798,358.966 54.6798,358.966 54.6798,358.966 54.6798,358.966 54.6798,358.966 54.6798,358.966 
  54.6798,358.966 54.6798,358.966 54.6798,358.966 54.6798,358.966 54.6799,358.966 54.6799,358.966 54.6799,358.966 54.6799,358.966 54.6799,358.966 54.6799,358.966 
  54.6799,358.966 54.6799,358.966 54.6799,358.966 54.6799,358.966 54.6799,358.966 54.6799,358.966 54.6799,358.966 54.6799,358.966 54.6799,358.966 54.6799,358.966 
  54.6799,358.966 54.6799,358.966 54.6799,358.966 54.6799,358.966 54.6799,358.966 54.6799,358.966 54.6799,358.966 54.6799,358.966 54.6799,358.966 54.6799,358.966 
  54.6799,358.966 54.6799,358.966 54.6799,358.966 54.6799,358.966 54.6799,358.966 54.6799,358.966 54.6799,358.966 54.6799,358.966 54.6799,358.966 54.6799,358.966 
  54.6799,358.966 54.6799,358.966 54.6799,358.966 54.6799,358.966 54.6799,358.966 54.6799,358.966 54.6799,358.966 54.6799,358.966 54.6799,358.966 54.6799,358.966 
  54.6799,358.966 54.6799,358.966 54.6799,358.966 54.6799,358.966 54.6799,358.966 54.6799,358.966 54.6799,358.966 54.6799,358.966 54.6799,358.966 54.6799,358.966 
  54.6799,358.966 54.6799,358.966 54.6799,358.966 54.6799,358.966 54.6799,358.966 54.6799,358.966 54.6799,358.966 54.6799,358.966 54.6799,358.966 54.6799,358.966 
  54.6799,358.966 54.6799,358.966 54.6799,358.966 54.6799,358.966 54.6799,358.966 54.6799,358.966 54.6799,358.966 54.6799,358.966 54.6799,358.966 54.6799,358.966 
  54.6799,358.966 54.6799,358.966 54.6799,358.966 54.6799,358.966 54.6799,358.966 54.6799,358.966 54.6799,358.966 54.6799,358.966 54.6799,358.966 54.6799,358.966 
  54.6799,358.966 54.6799,358.966 54.6799,358.966 54.6799,358.966 54.6799,358.966 54.6799,358.966 54.6799,358.966 54.6799,358.966 54.6799,358.966 54.6799,358.966 
  54.6799,358.966 54.6799,358.966 54.6799,358.966 54.6799,358.966 54.6799,358.966 54.6799,358.966 54.68,358.966 54.68,358.966 54.68,358.966 54.68,358.966 
  54.68,358.966 54.68,358.966 54.68,358.966 54.68,358.966 54.68,358.966 54.68,358.966 54.68,358.966 54.68,358.966 54.68,358.966 54.68,358.966 
  54.68,358.966 54.68,358.966 54.68,358.966 54.68,358.966 54.68,358.966 54.68,358.966 54.68,358.966 54.68,358.966 54.68,358.966 54.68,358.966 
  54.68,358.966 54.68,358.966 54.68,358.966 54.68,358.966 54.6801,358.966 54.6801,358.966 54.6801,358.966 54.6801,358.966 54.6801,358.965 54.6801,358.965 
  54.6801,358.965 54.6801,358.965 54.6801,358.965 54.6801,358.965 54.6801,358.965 54.6801,358.965 54.6801,358.965 54.6801,358.965 54.6801,358.965 54.6801,358.965 
  54.6801,358.965 54.6802,358.965 54.6802,358.965 54.6802,358.965 54.6802,358.965 54.6802,358.965 54.6802,358.965 54.6802,358.965 54.6802,358.965 54.6802,358.965 
  54.6802,358.965 54.6802,358.965 54.6802,358.965 54.6803,358.965 54.6803,358.965 54.6803,358.965 54.6803,358.965 54.6803,358.965 54.6803,358.965 54.6803,358.965 
  54.6803,358.965 54.6803,358.965 54.6804,358.965 54.6804,358.965 54.6804,358.965 54.6804,358.965 54.6804,358.965 54.6804,358.965 54.6804,358.965 54.6804,358.965 
  54.6805,358.965 54.6805,358.965 54.6805,358.965 54.6805,358.965 54.6805,358.965 54.6805,358.965 54.6805,358.965 54.6806,358.964 54.6806,358.964 54.6806,358.964 
  54.6806,358.964 54.6806,358.964 54.6807,358.964 54.6807,358.964 54.6807,358.964 54.6807,358.964 54.6807,358.964 54.6808,358.964 54.6808,358.964 54.6808,358.964 
  54.6808,358.964 54.6808,358.964 54.6809,358.964 54.6809,358.964 54.6809,358.964 54.6809,358.964 54.681,358.964 54.681,358.964 54.681,358.964 54.681,358.963 
  54.6811,358.963 54.6811,358.963 54.6811,358.963 54.6812,358.963 54.6812,358.963 54.6812,358.963 54.6813,358.963 54.6813,358.963 54.6813,358.963 54.6814,358.963 
  54.6814,358.963 54.6814,358.963 54.6815,358.963 54.6815,358.963 54.6815,358.962 54.6816,358.962 54.6816,358.962 54.6817,358.962 54.6817,358.962 54.6818,358.962 
  54.6818,358.962 54.6818,358.962 54.6819,358.962 54.6819,358.962 54.682,358.962 54.682,358.961 54.6821,358.961 54.6821,358.961 54.6822,358.961 54.6822,358.961 
  54.6823,358.961 54.6824,358.961 54.6824,358.961 54.6825,358.96 54.6825,358.96 54.6826,358.96 54.6827,358.96 54.6827,358.96 54.6828,358.96 54.6829,358.96 
  54.6829,358.96 54.683,358.959 54.6831,358.959 54.6832,358.959 54.6832,358.959 54.6833,358.959 54.6834,358.959 54.6835,358.958 54.6836,358.958 54.6837,358.958 
  54.6837,358.958 54.6838,358.958 54.6839,358.957 54.684,358.957 54.6841,358.957 54.6842,358.957 54.6843,358.957 54.6844,358.956 54.6845,358.956 54.6846,358.956 
  54.6848,358.956 54.6849,358.956 54.685,358.955 54.6851,358.955 54.6852,358.955 54.6854,358.955 54.6855,358.954 54.6856,358.954 54.6858,358.954 54.6859,358.953 
  54.686,358.953 54.6862,358.953 54.6863,358.953 54.6865,358.952 54.6866,358.952 54.6868,358.952 54.687,358.951 54.6871,358.951 54.6873,358.951 54.6875,358.95 
  54.6876,358.95 54.6878,358.949 54.688,358.949 54.6882,358.949 54.6884,358.948 54.6886,358.948 54.6888,358.947 54.689,358.947 54.6892,358.946 54.6894,358.946 
  54.6897,358.946 54.6899,358.945 54.6901,358.945 54.6904,358.944 54.6906,358.944 54.6909,358.943 54.6911,358.943 54.6914,358.942 54.6917,358.941 54.6919,358.941 
  54.6922,358.94 54.6925,358.94 54.6928,358.939 54.6931,358.938 54.6934,358.938 54.6937,358.937 54.694,358.936 54.6944,358.936 54.6947,358.935 54.6951,358.934 
  54.6954,358.934 54.6958,358.933 54.6961,358.932 54.6965,358.931 54.6969,358.931 54.6973,358.93 54.6977,358.929 54.6981,358.928 54.6986,358.927 54.699,358.926 
  54.6995,358.925 54.6999,358.924 54.7004,358.923 54.7009,358.922 54.7013,358.921 54.7018,358.92 54.7024,358.919 54.7029,358.918 54.7034,358.917 54.704,358.916 
  54.7045,358.915 54.7051,358.913 54.7057,358.912 54.7063,358.911 54.7069,358.91 54.7076,358.908 54.7082,358.907 54.7089,358.906 54.7095,358.904 54.7102,358.903 
  54.7109,358.901 54.7117,358.9 54.7124,358.898 54.7132,358.897 54.7139,358.895 54.7147,358.894 54.7155,358.892 54.7164,358.89 54.7172,358.888 54.7181,358.887 
  54.719,358.885 54.7199,358.883 54.7208,358.881 54.7218,358.879 54.7228,358.877 54.7238,358.875 54.7248,358.873 54.7259,358.87 54.7269,358.868 54.728,358.866 
  54.7291,358.864 54.7303,358.861 54.7315,358.859 54.7327,358.856 54.7339,358.854 54.7352,358.851 54.7365,358.848 54.7378,358.846 54.7391,358.843 54.7405,358.84 
  54.7419,358.837 54.7434,358.834 54.7449,358.831 54.7464,358.828 54.7479,358.825 54.7495,358.821 54.7511,358.818 54.7528,358.814 54.7545,358.811 54.7562,358.807 
  54.758,358.804 54.7598,358.8 54.7617,358.796 54.7636,358.792 54.7656,358.788 54.7676,358.784 54.7696,358.78 54.7717,358.775 54.7739,358.771 54.776,358.766 
  54.7783,358.762 54.7806,358.757 54.7829,358.752 54.7853,358.747 54.7878,358.742 54.7903,358.737 54.7929,358.731 54.7955,358.726 54.7982,358.72 54.801,358.714 
  54.8038,358.709 54.8067,358.703 54.8097,358.696 54.8127,358.69 54.8158,358.684 54.819,358.677 54.8222,358.67 54.8255,358.664 54.8289,358.656 54.8324,358.649 
  54.8359,358.642 54.8396,358.634 54.8433,358.627 54.8471,358.619 54.851,358.611 54.855,358.602 54.8591,358.594 54.8633,358.585 54.8676,358.576 54.8719,358.567 
  54.8764,358.558 54.881,358.548 54.8857,358.539 54.8905,358.529 54.8954,358.518 54.9004,358.508 54.9056,358.497 54.9108,358.486 54.9162,358.475 54.9217,358.464 
  54.9274,358.452 54.9331,358.44 54.939,358.428 54.9451,358.415 54.9513,358.403 54.9576,358.389 54.9641,358.376 54.9707,358.362 54.9775,358.348 54.9844,358.334 
  54.9915,358.319 54.9988,358.304 55.0062,358.289 55.0138,358.273 55.0216,358.257 55.0296,358.24 55.0377,358.223 55.0461,358.206 55.0546,358.188 55.0634,358.17 
  55.0723,358.151 55.0814,358.132 55.0908,358.113 55.1004,358.093 55.1102,358.073 55.1202,358.052 55.1305,358.031 55.141,358.009 55.1517,357.987 55.1628,357.964 
  55.174,357.94 55.1855,357.917 55.1973,357.892 55.2094,357.867 55.2217,357.841 55.2344,357.815 55.2473,357.788 55.2605,357.761 55.2741,357.733 55.2879,357.704 
  55.3021,357.675 55.3166,357.645 55.3314,357.614 55.3466,357.583 55.3622,357.55 55.3781,357.517 55.3944,357.484 55.411,357.449 55.4281,357.414 55.4455,357.378 
  55.4633,357.341 55.4816,357.303 55.5003,357.264 55.5194,357.224 55.539,357.184 55.559,357.142 55.5795,357.1 55.6005,357.056 55.622,357.012 55.6439,356.967 
  55.6664,356.92 55.6894,356.872 55.7129,356.824 55.737,356.774 55.7616,356.723 55.7869,356.671 55.8127,356.617 55.8391,356.562 55.8661,356.507 55.8937,356.449 
  55.922,356.391 55.951,356.331 55.9806,356.269 56.0109,356.207 56.042,356.143 56.0737,356.077 56.1062,356.01 56.1394,355.941 56.1735,355.871 56.2083,355.799 
  56.2439,355.725 56.2803,355.65 56.3176,355.572 56.3558,355.493 56.3949,355.413 56.4348,355.33 56.4757,355.246 56.5176,355.159 56.5604,355.071 56.6043,354.98 
  56.6491,354.887 56.695,354.793 56.742,354.696 56.79,354.596 56.8392,354.495 56.8895,354.391 56.941,354.285 56.9937,354.176 57.0476,354.065 57.1028,353.951 
  57.1592,353.835 57.217,353.715 57.2761,353.593 57.3366,353.469 57.3985,353.341 57.4618,353.211 57.5267,353.077 57.593,352.94 57.6608,352.801 57.7303,352.658 
  57.8014,352.511 57.8741,352.361 57.9485,352.208 58.0246,352.052 58.1026,351.891 58.1823,351.727 58.2639,351.56 58.3474,351.388 58.4328,351.212 58.5202,351.033 
  58.6096,350.849 58.7012,350.661 58.7948,350.468 58.8907,350.272 58.9887,350.07 59.0891,349.865 59.1918,349.654 59.2968,349.438 59.4043,349.218 59.5144,348.993 
  59.6269,348.762 59.7421,348.526 59.86,348.285 59.9806,348.038 60.104,347.785 60.2303,347.527 60.3595,347.263 60.4917,346.992 60.627,346.716 60.7655,346.433 
  60.9071,346.144 61.0521,345.848 61.2004,345.546 61.3521,345.236 61.5074,344.92 61.6663,344.596 61.8289,344.265 61.9953,343.926 62.1655,343.58 62.3397,343.226 
  62.5179,342.863 62.7002,342.493 62.8868,342.114 63.0777,341.727 63.2731,341.33 63.473,340.925 63.6775,340.511 63.8868,340.087 64.1009,339.654 64.32,339.211 
  64.5441,338.758 64.7735,338.294 65.0082,337.821 65.2483,337.336 65.494,336.841 65.7454,336.335 66.0026,335.817 66.2658,335.288 66.535,334.746 66.8105,334.193 
  67.0924,333.628 67.3808,333.049 67.6759,332.458 67.9778,331.854 68.2867,331.236 68.6028,330.605 68.9262,329.959 69.257,329.299 69.5955,328.625 69.9418,327.936 
  70.2962,327.231 70.6587,326.511 71.0296,325.775 71.4091,325.023 71.7973,324.255 72.1945,323.469 72.6009,322.666 73.0166,321.846 73.442,321.008 73.8771,320.152 
  74.3223,319.277 74.7778,318.383 75.2437,317.47 75.7205,316.537 76.2081,315.584 76.7071,314.611 77.2175,313.616 77.7396,312.6 78.2738,311.563 78.8203,310.503 
  79.3793,309.421 79.9512,308.316 80.5362,307.187 81.1347,306.035 81.7469,304.858 82.3732,303.657 83.0139,302.43 83.6692,301.178 84.3396,299.899 85.0254,298.594 
  85.7269,297.263 86.4444,295.903 87.1784,294.516 87.9292,293.1 88.6971,291.655 89.4826,290.181 90.2861,288.678 91.1079,287.143 91.9485,285.578 92.8083,283.982 
  93.6876,282.353 94.5871,280.693 95.507,279 96.4479,277.273 97.4102,275.513 98.3944,273.718 99.4009,271.889 100.43,270.024 101.483,268.124 102.56,266.188 
  103.661,264.215 104.787,262.205 105.939,260.158 107.116,258.073 108.32,255.95 109.552,253.788 110.811,251.586 112.099,249.346 113.416,247.065 114.762,244.744 
  116.139,242.383 117.546,239.981 118.985,237.538 120.457,235.054 121.962,232.528 123.5,229.96 125.073,227.35 126.68,224.698 128.324,222.005 130.005,219.268 
  131.722,216.49 133.479,213.67 135.274,210.807 137.109,207.902 138.984,204.956 140.902,201.968 142.861,198.939 144.865,195.869 146.912,192.759 149.004,189.608 
  151.142,186.419 153.328,183.191 155.561,179.925 157.843,176.623 160.175,173.284 162.558,169.911 164.993,166.504 167.481,163.065 170.023,159.595 172.621,156.097 
  175.274,152.571 177.985,149.019 180.754,145.444 183.582,141.848 186.472,138.234 189.423,134.603 192.437,130.96 195.516,127.306 198.66,123.646 201.871,119.982 
  205.149,116.319 208.497,112.661 211.916,109.011 215.406,105.376 218.969,101.759 222.607,98.1659 226.321,94.6025 230.111,91.0749 233.98,87.5893 237.929,84.1527 
  241.958,80.7724 246.071,77.4561 250.267,74.2121 254.548,71.049 258.916,67.9761 263.372,65.0034 267.918,62.1412 272.555,59.4006 277.283,56.7933 282.106,54.3317 
  287.023,52.029 292.037,49.899 297.149,47.9566 302.36,46.2171 307.672,44.6972 313.086,43.4142 318.603,42.3864 324.225,41.6332 329.953,41.1752 335.788,41.034 
  341.731,41.2324 347.785,41.7945 353.949,42.7458 360.226,44.113 366.615,45.9244 373.119,48.2098 379.739,51.0008 386.474,54.3302 393.327,58.2332 400.299,62.7463 
  407.389,67.9085 414.598,73.7603 421.928,80.3449 429.379,87.7073 436.951,95.8953 444.644,104.959 452.46,114.951 460.397,125.926 468.457,137.944 476.638,151.065 
  484.94,165.354 493.364,180.88 501.909,197.712 510.573,215.928 519.356,235.604 528.257,256.825 537.274,279.678 546.405,304.254 555.65,330.649 565.005,358.966 
  
  "/>
<polygon clip-path="url(#clip9700)" points="
489.608,82.6161 562.315,82.6161 562.315,52.3761 489.608,52.3761 
  " fill="#ffffff" fill-opacity="1"/>
<polyline clip-path="url(#clip9700)" style="stroke:#000000; stroke-width:1; stroke-opacity:1; fill:none" points="
  489.608,82.6161 562.315,82.6161 562.315,52.3761 489.608,52.3761 489.608,82.6161 
  "/>
<polyline clip-path="url(#clip9700)" style="stroke:#009af9; stroke-width:1.5; stroke-opacity:1; fill:none" points="
  495.608,67.4961 531.608,67.4961 
  "/>
<g clip-path="url(#clip9700)">
<text style="fill:#000000; fill-opacity:1; font-family:Arial,Helvetica Neue,Helvetica,sans-serif; font-size:12; text-anchor:start;" transform="rotate(0, 537.608, 71.9961)" x="537.608" y="71.9961">y1</text>
</g>
</svg>
