<?xml version="1.0" encoding="utf-8"?>
<svg xmlns="http://www.w3.org/2000/svg" xmlns:xlink="http://www.w3.org/1999/xlink" width="800" height="450" viewBox="0 0 3200 1800">
<defs>
  <clipPath id="clip810">
    <rect x="0" y="0" width="3200" height="1800"/>
  </clipPath>
</defs>
<path clip-path="url(#clip810)" d="M0 1800 L3200 1800 L3200 0 L0 0  Z" fill="#ffffff" fill-rule="evenodd" fill-opacity="1"/>
<defs>
  <clipPath id="clip811">
    <rect x="640" y="0" width="2241" height="1800"/>
  </clipPath>
</defs>
<path clip-path="url(#clip810)" d="M217.029 1689.85 L3152.76 1689.85 L3152.76 114.022 L217.029 114.022  Z" fill="#ffffff" fill-rule="evenodd" fill-opacity="1"/>
<defs>
  <clipPath id="clip812">
    <rect x="217" y="114" width="2937" height="1577"/>
  </clipPath>
</defs>
<polyline clip-path="url(#clip812)" style="stroke:#000000; stroke-linecap:round; stroke-linejoin:round; stroke-width:2; stroke-opacity:0.1; fill:none" points="266.498,1689.85 266.498,114.022 "/>
<polyline clip-path="url(#clip812)" style="stroke:#000000; stroke-linecap:round; stroke-linejoin:round; stroke-width:2; stroke-opacity:0.1; fill:none" points="1151.93,1689.85 1151.93,114.022 "/>
<polyline clip-path="url(#clip812)" style="stroke:#000000; stroke-linecap:round; stroke-linejoin:round; stroke-width:2; stroke-opacity:0.1; fill:none" points="2037.36,1689.85 2037.36,114.022 "/>
<polyline clip-path="url(#clip812)" style="stroke:#000000; stroke-linecap:round; stroke-linejoin:round; stroke-width:2; stroke-opacity:0.1; fill:none" points="2922.78,1689.85 2922.78,114.022 "/>
<polyline clip-path="url(#clip810)" style="stroke:#000000; stroke-linecap:round; stroke-linejoin:round; stroke-width:4; stroke-opacity:1; fill:none" points="217.029,901.935 3152.76,901.935 "/>
<polyline clip-path="url(#clip810)" style="stroke:#000000; stroke-linecap:round; stroke-linejoin:round; stroke-width:4; stroke-opacity:0; fill:none" points="266.498,901.935 266.498,901.935 "/>
<polyline clip-path="url(#clip810)" style="stroke:#000000; stroke-linecap:round; stroke-linejoin:round; stroke-width:4; stroke-opacity:0; fill:none" points="1151.93,901.935 1151.93,901.935 "/>
<polyline clip-path="url(#clip810)" style="stroke:#000000; stroke-linecap:round; stroke-linejoin:round; stroke-width:4; stroke-opacity:0; fill:none" points="2037.36,901.935 2037.36,901.935 "/>
<polyline clip-path="url(#clip810)" style="stroke:#000000; stroke-linecap:round; stroke-linejoin:round; stroke-width:4; stroke-opacity:0; fill:none" points="2922.78,901.935 2922.78,901.935 "/>
<path clip-path="url(#clip810)" d="M221.058 1741.82 L250.734 1741.82 L250.734 1745.75 L221.058 1745.75 L221.058 1741.82 Z" fill="#000000" fill-rule="nonzero" fill-opacity="1" /><path clip-path="url(#clip810)" d="M261.637 1754.71 L269.275 1754.71 L269.275 1728.35 L260.965 1730.01 L260.965 1725.75 L269.229 1724.09 L273.905 1724.09 L273.905 1754.71 L281.544 1754.71 L281.544 1758.65 L261.637 1758.65 L261.637 1754.71 Z" fill="#000000" fill-rule="nonzero" fill-opacity="1" /><path clip-path="url(#clip810)" d="M291.035 1724.09 L309.391 1724.09 L309.391 1728.02 L295.317 1728.02 L295.317 1736.5 Q296.336 1736.15 297.354 1735.99 Q298.373 1735.8 299.391 1735.8 Q305.178 1735.8 308.558 1738.97 Q311.937 1742.14 311.937 1747.56 Q311.937 1753.14 308.465 1756.24 Q304.993 1759.32 298.673 1759.32 Q296.498 1759.32 294.229 1758.95 Q291.984 1758.58 289.576 1757.84 L289.576 1753.14 Q291.66 1754.27 293.882 1754.83 Q296.104 1755.38 298.581 1755.38 Q302.586 1755.38 304.923 1753.28 Q307.261 1751.17 307.261 1747.56 Q307.261 1743.95 304.923 1741.84 Q302.586 1739.74 298.581 1739.74 Q296.706 1739.74 294.831 1740.15 Q292.979 1740.57 291.035 1741.45 L291.035 1724.09 Z" fill="#000000" fill-rule="nonzero" fill-opacity="1" /><path clip-path="url(#clip810)" d="M1105.99 1741.82 L1135.67 1741.82 L1135.67 1745.75 L1105.99 1745.75 L1105.99 1741.82 Z" fill="#000000" fill-rule="nonzero" fill-opacity="1" /><path clip-path="url(#clip810)" d="M1146.57 1754.71 L1154.21 1754.71 L1154.21 1728.35 L1145.9 1730.01 L1145.9 1725.75 L1154.16 1724.09 L1158.84 1724.09 L1158.84 1754.71 L1166.48 1754.71 L1166.48 1758.65 L1146.57 1758.65 L1146.57 1754.71 Z" fill="#000000" fill-rule="nonzero" fill-opacity="1" /><path clip-path="url(#clip810)" d="M1185.92 1727.17 Q1182.31 1727.17 1180.48 1730.73 Q1178.67 1734.27 1178.67 1741.4 Q1178.67 1748.51 1180.48 1752.07 Q1182.31 1755.62 1185.92 1755.62 Q1189.55 1755.62 1191.36 1752.07 Q1193.19 1748.51 1193.19 1741.4 Q1193.19 1734.27 1191.36 1730.73 Q1189.55 1727.17 1185.92 1727.17 M1185.92 1723.46 Q1191.73 1723.46 1194.79 1728.07 Q1197.86 1732.65 1197.86 1741.4 Q1197.86 1750.13 1194.79 1754.74 Q1191.73 1759.32 1185.92 1759.32 Q1180.11 1759.32 1177.03 1754.74 Q1173.98 1750.13 1173.98 1741.4 Q1173.98 1732.65 1177.03 1728.07 Q1180.11 1723.46 1185.92 1723.46 Z" fill="#000000" fill-rule="nonzero" fill-opacity="1" /><path clip-path="url(#clip810)" d="M2007 1741.82 L2036.67 1741.82 L2036.67 1745.75 L2007 1745.75 L2007 1741.82 Z" fill="#000000" fill-rule="nonzero" fill-opacity="1" /><path clip-path="url(#clip810)" d="M2046.81 1724.09 L2065.17 1724.09 L2065.17 1728.02 L2051.09 1728.02 L2051.09 1736.5 Q2052.11 1736.15 2053.13 1735.99 Q2054.15 1735.8 2055.17 1735.8 Q2060.96 1735.8 2064.33 1738.97 Q2067.71 1742.14 2067.71 1747.56 Q2067.71 1753.14 2064.24 1756.24 Q2060.77 1759.32 2054.45 1759.32 Q2052.27 1759.32 2050.01 1758.95 Q2047.76 1758.58 2045.35 1757.84 L2045.35 1753.14 Q2047.44 1754.27 2049.66 1754.83 Q2051.88 1755.38 2054.36 1755.38 Q2058.36 1755.38 2060.7 1753.28 Q2063.04 1751.17 2063.04 1747.56 Q2063.04 1743.95 2060.7 1741.84 Q2058.36 1739.74 2054.36 1739.74 Q2052.48 1739.74 2050.61 1740.15 Q2048.76 1740.57 2046.81 1741.45 L2046.81 1724.09 Z" fill="#000000" fill-rule="nonzero" fill-opacity="1" /><path clip-path="url(#clip810)" d="M2922.78 1727.17 Q2919.17 1727.17 2917.35 1730.73 Q2915.54 1734.27 2915.54 1741.4 Q2915.54 1748.51 2917.35 1752.07 Q2919.17 1755.62 2922.78 1755.62 Q2926.42 1755.62 2928.22 1752.07 Q2930.05 1748.51 2930.05 1741.4 Q2930.05 1734.27 2928.22 1730.73 Q2926.42 1727.17 2922.78 1727.17 M2922.78 1723.46 Q2928.6 1723.46 2931.65 1728.07 Q2934.73 1732.65 2934.73 1741.4 Q2934.73 1750.13 2931.65 1754.74 Q2928.6 1759.32 2922.78 1759.32 Q2916.97 1759.32 2913.9 1754.74 Q2910.84 1750.13 2910.84 1741.4 Q2910.84 1732.65 2913.9 1728.07 Q2916.97 1723.46 2922.78 1723.46 Z" fill="#000000" fill-rule="nonzero" fill-opacity="1" /><polyline clip-path="url(#clip812)" style="stroke:#000000; stroke-linecap:round; stroke-linejoin:round; stroke-width:2; stroke-opacity:0.1; fill:none" points="217.029,1569.87 3152.76,1569.87 "/>
<polyline clip-path="url(#clip812)" style="stroke:#000000; stroke-linecap:round; stroke-linejoin:round; stroke-width:2; stroke-opacity:0.1; fill:none" points="217.029,1235.9 3152.76,1235.9 "/>
<polyline clip-path="url(#clip812)" style="stroke:#000000; stroke-linecap:round; stroke-linejoin:round; stroke-width:2; stroke-opacity:0.1; fill:none" points="217.029,901.935 3152.76,901.935 "/>
<polyline clip-path="url(#clip812)" style="stroke:#000000; stroke-linecap:round; stroke-linejoin:round; stroke-width:2; stroke-opacity:0.1; fill:none" points="217.029,567.965 3152.76,567.965 "/>
<polyline clip-path="url(#clip812)" style="stroke:#000000; stroke-linecap:round; stroke-linejoin:round; stroke-width:2; stroke-opacity:0.1; fill:none" points="217.029,233.995 3152.76,233.995 "/>
<polyline clip-path="url(#clip810)" style="stroke:#000000; stroke-linecap:round; stroke-linejoin:round; stroke-width:4; stroke-opacity:1; fill:none" points="2922.78,1689.85 2922.78,114.022 "/>
<polyline clip-path="url(#clip810)" style="stroke:#000000; stroke-linecap:round; stroke-linejoin:round; stroke-width:4; stroke-opacity:0; fill:none" points="2922.78,1569.87 2922.78,1569.87 "/>
<polyline clip-path="url(#clip810)" style="stroke:#000000; stroke-linecap:round; stroke-linejoin:round; stroke-width:4; stroke-opacity:0; fill:none" points="2922.78,1235.9 2922.78,1235.9 "/>
<polyline clip-path="url(#clip810)" style="stroke:#000000; stroke-linecap:round; stroke-linejoin:round; stroke-width:4; stroke-opacity:0; fill:none" points="2922.78,901.935 2922.78,901.935 "/>
<polyline clip-path="url(#clip810)" style="stroke:#000000; stroke-linecap:round; stroke-linejoin:round; stroke-width:4; stroke-opacity:0; fill:none" points="2922.78,567.965 2922.78,567.965 "/>
<polyline clip-path="url(#clip810)" style="stroke:#000000; stroke-linecap:round; stroke-linejoin:round; stroke-width:4; stroke-opacity:0; fill:none" points="2922.78,233.995 2922.78,233.995 "/>
<path clip-path="url(#clip810)" d="M46.9921 1570.33 L76.6679 1570.33 L76.6679 1574.26 L46.9921 1574.26 L46.9921 1570.33 Z" fill="#000000" fill-rule="nonzero" fill-opacity="1" /><path clip-path="url(#clip810)" d="M87.5706 1583.22 L95.2095 1583.22 L95.2095 1556.85 L86.8993 1558.52 L86.8993 1554.26 L95.1632 1552.59 L99.8391 1552.59 L99.8391 1583.22 L107.478 1583.22 L107.478 1587.15 L87.5706 1587.15 L87.5706 1583.22 Z" fill="#000000" fill-rule="nonzero" fill-opacity="1" /><path clip-path="url(#clip810)" d="M126.922 1555.67 Q123.311 1555.67 121.482 1559.24 Q119.677 1562.78 119.677 1569.91 Q119.677 1577.02 121.482 1580.58 Q123.311 1584.12 126.922 1584.12 Q130.556 1584.12 132.362 1580.58 Q134.191 1577.02 134.191 1569.91 Q134.191 1562.78 132.362 1559.24 Q130.556 1555.67 126.922 1555.67 M126.922 1551.97 Q132.732 1551.97 135.788 1556.58 Q138.867 1561.16 138.867 1569.91 Q138.867 1578.64 135.788 1583.24 Q132.732 1587.83 126.922 1587.83 Q121.112 1587.83 118.033 1583.24 Q114.978 1578.64 114.978 1569.91 Q114.978 1561.16 118.033 1556.58 Q121.112 1551.97 126.922 1551.97 Z" fill="#000000" fill-rule="nonzero" fill-opacity="1" /><path clip-path="url(#clip810)" d="M157.084 1555.67 Q153.473 1555.67 151.644 1559.24 Q149.839 1562.78 149.839 1569.91 Q149.839 1577.02 151.644 1580.58 Q153.473 1584.12 157.084 1584.12 Q160.718 1584.12 162.524 1580.58 Q164.353 1577.02 164.353 1569.91 Q164.353 1562.78 162.524 1559.24 Q160.718 1555.67 157.084 1555.67 M157.084 1551.97 Q162.894 1551.97 165.95 1556.58 Q169.029 1561.16 169.029 1569.91 Q169.029 1578.64 165.95 1583.24 Q162.894 1587.83 157.084 1587.83 Q151.274 1587.83 148.195 1583.24 Q145.14 1578.64 145.14 1569.91 Q145.14 1561.16 148.195 1556.58 Q151.274 1551.97 157.084 1551.97 Z" fill="#000000" fill-rule="nonzero" fill-opacity="1" /><path clip-path="url(#clip810)" d="M77.154 1236.36 L106.83 1236.36 L106.83 1240.29 L77.154 1240.29 L77.154 1236.36 Z" fill="#000000" fill-rule="nonzero" fill-opacity="1" /><path clip-path="url(#clip810)" d="M116.969 1218.62 L135.325 1218.62 L135.325 1222.56 L121.251 1222.56 L121.251 1231.03 Q122.27 1230.68 123.288 1230.52 Q124.307 1230.34 125.325 1230.34 Q131.112 1230.34 134.492 1233.51 Q137.871 1236.68 137.871 1242.1 Q137.871 1247.68 134.399 1250.78 Q130.927 1253.86 124.607 1253.86 Q122.432 1253.86 120.163 1253.49 Q117.918 1253.12 115.51 1252.37 L115.51 1247.68 Q117.594 1248.81 119.816 1249.37 Q122.038 1249.92 124.515 1249.92 Q128.519 1249.92 130.857 1247.81 Q133.195 1245.71 133.195 1242.1 Q133.195 1238.49 130.857 1236.38 Q128.519 1234.27 124.515 1234.27 Q122.64 1234.27 120.765 1234.69 Q118.913 1235.11 116.969 1235.99 L116.969 1218.62 Z" fill="#000000" fill-rule="nonzero" fill-opacity="1" /><path clip-path="url(#clip810)" d="M157.084 1221.7 Q153.473 1221.7 151.644 1225.27 Q149.839 1228.81 149.839 1235.94 Q149.839 1243.05 151.644 1246.61 Q153.473 1250.15 157.084 1250.15 Q160.718 1250.15 162.524 1246.61 Q164.353 1243.05 164.353 1235.94 Q164.353 1228.81 162.524 1225.27 Q160.718 1221.7 157.084 1221.7 M157.084 1218 Q162.894 1218 165.95 1222.61 Q169.029 1227.19 169.029 1235.94 Q169.029 1244.67 165.95 1249.27 Q162.894 1253.86 157.084 1253.86 Q151.274 1253.86 148.195 1249.27 Q145.14 1244.67 145.14 1235.94 Q145.14 1227.19 148.195 1222.61 Q151.274 1218 157.084 1218 Z" fill="#000000" fill-rule="nonzero" fill-opacity="1" /><path clip-path="url(#clip810)" d="M157.084 887.734 Q153.473 887.734 151.644 891.298 Q149.839 894.84 149.839 901.97 Q149.839 909.076 151.644 912.641 Q153.473 916.183 157.084 916.183 Q160.718 916.183 162.524 912.641 Q164.353 909.076 164.353 901.97 Q164.353 894.84 162.524 891.298 Q160.718 887.734 157.084 887.734 M157.084 884.03 Q162.894 884.03 165.95 888.636 Q169.029 893.22 169.029 901.97 Q169.029 910.697 165.95 915.303 Q162.894 919.886 157.084 919.886 Q151.274 919.886 148.195 915.303 Q145.14 910.697 145.14 901.97 Q145.14 893.22 148.195 888.636 Q151.274 884.03 157.084 884.03 Z" fill="#000000" fill-rule="nonzero" fill-opacity="1" /><path clip-path="url(#clip810)" d="M116.969 550.685 L135.325 550.685 L135.325 554.62 L121.251 554.62 L121.251 563.093 Q122.27 562.745 123.288 562.583 Q124.307 562.398 125.325 562.398 Q131.112 562.398 134.492 565.569 Q137.871 568.741 137.871 574.157 Q137.871 579.736 134.399 582.838 Q130.927 585.916 124.607 585.916 Q122.432 585.916 120.163 585.546 Q117.918 585.176 115.51 584.435 L115.51 579.736 Q117.594 580.87 119.816 581.426 Q122.038 581.981 124.515 581.981 Q128.519 581.981 130.857 579.875 Q133.195 577.768 133.195 574.157 Q133.195 570.546 130.857 568.44 Q128.519 566.333 124.515 566.333 Q122.64 566.333 120.765 566.75 Q118.913 567.167 116.969 568.046 L116.969 550.685 Z" fill="#000000" fill-rule="nonzero" fill-opacity="1" /><path clip-path="url(#clip810)" d="M157.084 553.764 Q153.473 553.764 151.644 557.329 Q149.839 560.87 149.839 568 Q149.839 575.106 151.644 578.671 Q153.473 582.213 157.084 582.213 Q160.718 582.213 162.524 578.671 Q164.353 575.106 164.353 568 Q164.353 560.87 162.524 557.329 Q160.718 553.764 157.084 553.764 M157.084 550.06 Q162.894 550.06 165.95 554.667 Q169.029 559.25 169.029 568 Q169.029 576.727 165.95 581.333 Q162.894 585.916 157.084 585.916 Q151.274 585.916 148.195 581.333 Q145.14 576.727 145.14 568 Q145.14 559.25 148.195 554.667 Q151.274 550.06 157.084 550.06 Z" fill="#000000" fill-rule="nonzero" fill-opacity="1" /><path clip-path="url(#clip810)" d="M87.5706 247.34 L95.2095 247.34 L95.2095 220.975 L86.8993 222.641 L86.8993 218.382 L95.1632 216.715 L99.8391 216.715 L99.8391 247.34 L107.478 247.34 L107.478 251.275 L87.5706 251.275 L87.5706 247.34 Z" fill="#000000" fill-rule="nonzero" fill-opacity="1" /><path clip-path="url(#clip810)" d="M126.922 219.794 Q123.311 219.794 121.482 223.359 Q119.677 226.901 119.677 234.03 Q119.677 241.137 121.482 244.701 Q123.311 248.243 126.922 248.243 Q130.556 248.243 132.362 244.701 Q134.191 241.137 134.191 234.03 Q134.191 226.901 132.362 223.359 Q130.556 219.794 126.922 219.794 M126.922 216.09 Q132.732 216.09 135.788 220.697 Q138.867 225.28 138.867 234.03 Q138.867 242.757 135.788 247.363 Q132.732 251.947 126.922 251.947 Q121.112 251.947 118.033 247.363 Q114.978 242.757 114.978 234.03 Q114.978 225.28 118.033 220.697 Q121.112 216.09 126.922 216.09 Z" fill="#000000" fill-rule="nonzero" fill-opacity="1" /><path clip-path="url(#clip810)" d="M157.084 219.794 Q153.473 219.794 151.644 223.359 Q149.839 226.901 149.839 234.03 Q149.839 241.137 151.644 244.701 Q153.473 248.243 157.084 248.243 Q160.718 248.243 162.524 244.701 Q164.353 241.137 164.353 234.03 Q164.353 226.901 162.524 223.359 Q160.718 219.794 157.084 219.794 M157.084 216.09 Q162.894 216.09 165.95 220.697 Q169.029 225.28 169.029 234.03 Q169.029 242.757 165.95 247.363 Q162.894 251.947 157.084 251.947 Q151.274 251.947 148.195 247.363 Q145.14 242.757 145.14 234.03 Q145.14 225.28 148.195 220.697 Q151.274 216.09 157.084 216.09 Z" fill="#000000" fill-rule="nonzero" fill-opacity="1" /><path clip-path="url(#clip810)" d="M1404.33 18.8205 L1404.33 41.5461 L1414.62 41.5461 Q1420.33 41.5461 1423.45 38.5889 Q1426.57 35.6318 1426.57 30.163 Q1426.57 24.7348 1423.45 21.7777 Q1420.33 18.8205 1414.62 18.8205 L1404.33 18.8205 M1396.14 12.096 L1414.62 12.096 Q1424.78 12.096 1429.97 16.714 Q1435.19 21.2916 1435.19 30.163 Q1435.19 39.1155 1429.97 43.6931 Q1424.78 48.2706 1414.62 48.2706 L1404.33 48.2706 L1404.33 72.576 L1396.14 72.576 L1396.14 12.096 Z" fill="#000000" fill-rule="nonzero" fill-opacity="1" /><path clip-path="url(#clip810)" d="M1460.47 32.4315 Q1454.48 32.4315 1450.99 37.1306 Q1447.51 41.7891 1447.51 49.9314 Q1447.51 58.0738 1450.95 62.7728 Q1454.44 67.4314 1460.47 67.4314 Q1466.43 67.4314 1469.91 62.7323 Q1473.39 58.0333 1473.39 49.9314 Q1473.39 41.8701 1469.91 37.1711 Q1466.43 32.4315 1460.47 32.4315 M1460.47 26.1121 Q1470.19 26.1121 1475.74 32.4315 Q1481.29 38.7509 1481.29 49.9314 Q1481.29 61.0714 1475.74 67.4314 Q1470.19 73.7508 1460.47 73.7508 Q1450.71 73.7508 1445.16 67.4314 Q1439.65 61.0714 1439.65 49.9314 Q1439.65 38.7509 1445.16 32.4315 Q1450.71 26.1121 1460.47 26.1121 Z" fill="#000000" fill-rule="nonzero" fill-opacity="1" /><path clip-path="url(#clip810)" d="M1493.65 9.54393 L1501.1 9.54393 L1501.1 72.576 L1493.65 72.576 L1493.65 9.54393 Z" fill="#000000" fill-rule="nonzero" fill-opacity="1" /><path clip-path="url(#clip810)" d="M1555.51 48.0275 L1555.51 51.6733 L1521.24 51.6733 Q1521.72 59.3701 1525.85 63.421 Q1530.03 67.4314 1537.44 67.4314 Q1541.73 67.4314 1545.74 66.3781 Q1549.79 65.3249 1553.76 63.2184 L1553.76 70.267 Q1549.75 71.9684 1545.54 72.8596 Q1541.33 73.7508 1536.99 73.7508 Q1526.14 73.7508 1519.78 67.4314 Q1513.46 61.1119 1513.46 50.3365 Q1513.46 39.1965 1519.45 32.6746 Q1525.49 26.1121 1535.7 26.1121 Q1544.85 26.1121 1550.16 32.0264 Q1555.51 37.9003 1555.51 48.0275 M1548.05 45.84 Q1547.97 39.7232 1544.61 36.0774 Q1541.29 32.4315 1535.78 32.4315 Q1529.54 32.4315 1525.77 35.9558 Q1522.05 39.4801 1521.48 45.8805 L1548.05 45.84 Z" fill="#000000" fill-rule="nonzero" fill-opacity="1" /><path clip-path="url(#clip810)" d="M1563.97 46.5287 L1585.81 46.5287 L1585.81 53.1722 L1563.97 53.1722 L1563.97 46.5287 Z" fill="#000000" fill-rule="nonzero" fill-opacity="1" /><path clip-path="url(#clip810)" d="M1594.44 27.2059 L1629.84 27.2059 L1629.84 34.0114 L1601.81 66.6212 L1629.84 66.6212 L1629.84 72.576 L1593.42 72.576 L1593.42 65.7705 L1621.46 33.1607 L1594.44 33.1607 L1594.44 27.2059 Z" fill="#000000" fill-rule="nonzero" fill-opacity="1" /><path clip-path="url(#clip810)" d="M1680.03 48.0275 L1680.03 51.6733 L1645.76 51.6733 Q1646.25 59.3701 1650.38 63.421 Q1654.55 67.4314 1661.96 67.4314 Q1666.26 67.4314 1670.27 66.3781 Q1674.32 65.3249 1678.29 63.2184 L1678.29 70.267 Q1674.28 71.9684 1670.07 72.8596 Q1665.85 73.7508 1661.52 73.7508 Q1650.66 73.7508 1644.3 67.4314 Q1637.98 61.1119 1637.98 50.3365 Q1637.98 39.1965 1643.98 32.6746 Q1650.01 26.1121 1660.22 26.1121 Q1669.38 26.1121 1674.68 32.0264 Q1680.03 37.9003 1680.03 48.0275 M1672.58 45.84 Q1672.5 39.7232 1669.13 36.0774 Q1665.81 32.4315 1660.3 32.4315 Q1654.06 32.4315 1650.3 35.9558 Q1646.57 39.4801 1646 45.8805 L1672.58 45.84 Z" fill="#000000" fill-rule="nonzero" fill-opacity="1" /><path clip-path="url(#clip810)" d="M1718.56 34.1734 Q1717.3 33.4443 1715.8 33.1202 Q1714.34 32.7556 1712.56 32.7556 Q1706.24 32.7556 1702.84 36.8875 Q1699.48 40.9789 1699.48 48.6757 L1699.48 72.576 L1691.98 72.576 L1691.98 27.2059 L1699.48 27.2059 L1699.48 34.2544 Q1701.82 30.1225 1705.59 28.1376 Q1709.36 26.1121 1714.75 26.1121 Q1715.52 26.1121 1716.45 26.2337 Q1717.38 26.3147 1718.51 26.5172 L1718.56 34.1734 Z" fill="#000000" fill-rule="nonzero" fill-opacity="1" /><path clip-path="url(#clip810)" d="M1742.13 32.4315 Q1736.14 32.4315 1732.65 37.1306 Q1729.17 41.7891 1729.17 49.9314 Q1729.17 58.0738 1732.61 62.7728 Q1736.1 67.4314 1742.13 67.4314 Q1748.09 67.4314 1751.57 62.7323 Q1755.05 58.0333 1755.05 49.9314 Q1755.05 41.8701 1751.57 37.1711 Q1748.09 32.4315 1742.13 32.4315 M1742.13 26.1121 Q1751.85 26.1121 1757.4 32.4315 Q1762.95 38.7509 1762.95 49.9314 Q1762.95 61.0714 1757.4 67.4314 Q1751.85 73.7508 1742.13 73.7508 Q1732.37 73.7508 1726.82 67.4314 Q1721.31 61.0714 1721.31 49.9314 Q1721.31 38.7509 1726.82 32.4315 Q1732.37 26.1121 1742.13 26.1121 Z" fill="#000000" fill-rule="nonzero" fill-opacity="1" /><path clip-path="url(#clip810)" d="M1837 35.9153 Q1839.8 30.8922 1843.69 28.5022 Q1847.58 26.1121 1852.84 26.1121 Q1859.93 26.1121 1863.78 31.0947 Q1867.63 36.0368 1867.63 45.1919 L1867.63 72.576 L1860.13 72.576 L1860.13 45.4349 Q1860.13 38.913 1857.83 35.7533 Q1855.52 32.5936 1850.78 32.5936 Q1844.98 32.5936 1841.62 36.4419 Q1838.26 40.2903 1838.26 46.9338 L1838.26 72.576 L1830.77 72.576 L1830.77 45.4349 Q1830.77 38.8725 1828.46 35.7533 Q1826.15 32.5936 1821.33 32.5936 Q1815.61 32.5936 1812.25 36.4824 Q1808.89 40.3308 1808.89 46.9338 L1808.89 72.576 L1801.4 72.576 L1801.4 27.2059 L1808.89 27.2059 L1808.89 34.2544 Q1811.44 30.082 1815.01 28.0971 Q1818.57 26.1121 1823.47 26.1121 Q1828.42 26.1121 1831.86 28.6237 Q1835.34 31.1352 1837 35.9153 Z" fill="#000000" fill-rule="nonzero" fill-opacity="1" /><path clip-path="url(#clip810)" d="M1903.11 49.7694 Q1894.08 49.7694 1890.6 51.8354 Q1887.11 53.9013 1887.11 58.8839 Q1887.11 62.8538 1889.71 65.2034 Q1892.34 67.5124 1896.84 67.5124 Q1903.03 67.5124 1906.76 63.1374 Q1910.53 58.7219 1910.53 51.4303 L1910.53 49.7694 L1903.11 49.7694 M1917.98 46.6907 L1917.98 72.576 L1910.53 72.576 L1910.53 65.6895 Q1907.98 69.8214 1904.17 71.8063 Q1900.36 73.7508 1894.85 73.7508 Q1887.88 73.7508 1883.75 69.8619 Q1879.66 65.9325 1879.66 59.3701 Q1879.66 51.7138 1884.76 47.825 Q1889.91 43.9361 1900.08 43.9361 L1910.53 43.9361 L1910.53 43.2069 Q1910.53 38.0623 1907.12 35.2672 Q1903.76 32.4315 1897.65 32.4315 Q1893.76 32.4315 1890.07 33.3632 Q1886.38 34.295 1882.98 36.1584 L1882.98 29.2718 Q1887.07 27.692 1890.92 26.9223 Q1894.77 26.1121 1898.42 26.1121 Q1908.26 26.1121 1913.12 31.2163 Q1917.98 36.3204 1917.98 46.6907 Z" fill="#000000" fill-rule="nonzero" fill-opacity="1" /><path clip-path="url(#clip810)" d="M1940.54 65.7705 L1940.54 89.8329 L1933.05 89.8329 L1933.05 27.2059 L1940.54 27.2059 L1940.54 34.0924 Q1942.89 30.0415 1946.46 28.0971 Q1950.06 26.1121 1955.05 26.1121 Q1963.31 26.1121 1968.46 32.6746 Q1973.64 39.2371 1973.64 49.9314 Q1973.64 60.6258 1968.46 67.1883 Q1963.31 73.7508 1955.05 73.7508 Q1950.06 73.7508 1946.46 71.8063 Q1942.89 69.8214 1940.54 65.7705 M1965.9 49.9314 Q1965.9 41.7081 1962.5 37.0496 Q1959.14 32.3505 1953.22 32.3505 Q1947.31 32.3505 1943.91 37.0496 Q1940.54 41.7081 1940.54 49.9314 Q1940.54 58.1548 1943.91 62.8538 Q1947.31 67.5124 1953.22 67.5124 Q1959.14 67.5124 1962.5 62.8538 Q1965.9 58.1548 1965.9 49.9314 Z" fill="#000000" fill-rule="nonzero" fill-opacity="1" /><circle clip-path="url(#clip812)" cx="300.115" cy="158.621" r="54" fill="#009af9" fill-rule="evenodd" fill-opacity="0.5" stroke="#000000" stroke-opacity="0.5" stroke-width="3.6"/>
<circle clip-path="url(#clip812)" cx="300.115" cy="1645.25" r="54" fill="#009af9" fill-rule="evenodd" fill-opacity="0.5" stroke="#000000" stroke-opacity="0.5" stroke-width="3.6"/>
<circle clip-path="url(#clip812)" cx="3069.67" cy="765.742" r="54" fill="#009af9" fill-rule="evenodd" fill-opacity="0.5" stroke="#000000" stroke-opacity="0.5" stroke-width="3.6"/>
<circle clip-path="url(#clip812)" cx="3069.67" cy="1038.13" r="54" fill="#009af9" fill-rule="evenodd" fill-opacity="0.5" stroke="#000000" stroke-opacity="0.5" stroke-width="3.6"/>
<line clip-path="url(#clip812)" x1="2922.78" y1="901.935" x2="2862.78" y2="841.935" style="stroke:#e26f46; stroke-width:3.6; stroke-opacity:0.5"/>
<line clip-path="url(#clip812)" x1="2922.78" y1="901.935" x2="2862.78" y2="961.935" style="stroke:#e26f46; stroke-width:3.6; stroke-opacity:0.5"/>
<line clip-path="url(#clip812)" x1="2922.78" y1="901.935" x2="2982.78" y2="961.935" style="stroke:#e26f46; stroke-width:3.6; stroke-opacity:0.5"/>
<line clip-path="url(#clip812)" x1="2922.78" y1="901.935" x2="2982.78" y2="841.935" style="stroke:#e26f46; stroke-width:3.6; stroke-opacity:0.5"/>
<line clip-path="url(#clip812)" x1="2858.14" y1="370.106" x2="2798.14" y2="310.106" style="stroke:#e26f46; stroke-width:3.6; stroke-opacity:0.5"/>
<line clip-path="url(#clip812)" x1="2858.14" y1="370.106" x2="2798.14" y2="430.106" style="stroke:#e26f46; stroke-width:3.6; stroke-opacity:0.5"/>
<line clip-path="url(#clip812)" x1="2858.14" y1="370.106" x2="2918.14" y2="430.106" style="stroke:#e26f46; stroke-width:3.6; stroke-opacity:0.5"/>
<line clip-path="url(#clip812)" x1="2858.14" y1="370.106" x2="2918.14" y2="310.106" style="stroke:#e26f46; stroke-width:3.6; stroke-opacity:0.5"/>
<line clip-path="url(#clip812)" x1="2858.14" y1="1433.76" x2="2798.14" y2="1373.76" style="stroke:#e26f46; stroke-width:3.6; stroke-opacity:0.5"/>
<line clip-path="url(#clip812)" x1="2858.14" y1="1433.76" x2="2798.14" y2="1493.76" style="stroke:#e26f46; stroke-width:3.6; stroke-opacity:0.5"/>
<line clip-path="url(#clip812)" x1="2858.14" y1="1433.76" x2="2918.14" y2="1493.76" style="stroke:#e26f46; stroke-width:3.6; stroke-opacity:0.5"/>
<line clip-path="url(#clip812)" x1="2858.14" y1="1433.76" x2="2918.14" y2="1373.76" style="stroke:#e26f46; stroke-width:3.6; stroke-opacity:0.5"/>
<line clip-path="url(#clip812)" x1="2907.45" y1="657.579" x2="2847.45" y2="597.579" style="stroke:#e26f46; stroke-width:3.6; stroke-opacity:0.5"/>
<line clip-path="url(#clip812)" x1="2907.45" y1="657.579" x2="2847.45" y2="717.579" style="stroke:#e26f46; stroke-width:3.6; stroke-opacity:0.5"/>
<line clip-path="url(#clip812)" x1="2907.45" y1="657.579" x2="2967.45" y2="717.579" style="stroke:#e26f46; stroke-width:3.6; stroke-opacity:0.5"/>
<line clip-path="url(#clip812)" x1="2907.45" y1="657.579" x2="2967.45" y2="597.579" style="stroke:#e26f46; stroke-width:3.6; stroke-opacity:0.5"/>
<line clip-path="url(#clip812)" x1="2907.45" y1="1146.29" x2="2847.45" y2="1086.29" style="stroke:#e26f46; stroke-width:3.6; stroke-opacity:0.5"/>
<line clip-path="url(#clip812)" x1="2907.45" y1="1146.29" x2="2847.45" y2="1206.29" style="stroke:#e26f46; stroke-width:3.6; stroke-opacity:0.5"/>
<line clip-path="url(#clip812)" x1="2907.45" y1="1146.29" x2="2967.45" y2="1206.29" style="stroke:#e26f46; stroke-width:3.6; stroke-opacity:0.5"/>
<line clip-path="url(#clip812)" x1="2907.45" y1="1146.29" x2="2967.45" y2="1086.29" style="stroke:#e26f46; stroke-width:3.6; stroke-opacity:0.5"/>
</svg>
