<?xml version="1.0" encoding="utf-8"?>
<svg xmlns="http://www.w3.org/2000/svg" xmlns:xlink="http://www.w3.org/1999/xlink" width="800" height="450" viewBox="0 0 3200 1800">
<defs>
  <clipPath id="clip510">
    <rect x="0" y="0" width="3200" height="1800"/>
  </clipPath>
</defs>
<path clip-path="url(#clip510)" d="M0 1800 L3200 1800 L3200 0 L0 0  Z" fill="#ffffff" fill-rule="evenodd" fill-opacity="1"/>
<defs>
  <clipPath id="clip511">
    <rect x="640" y="0" width="2241" height="1800"/>
  </clipPath>
</defs>
<path clip-path="url(#clip510)" d="M272.872 751.562 L3152.76 751.562 L3152.76 114.022 L272.872 114.022  Z" fill="#ffffff" fill-rule="evenodd" fill-opacity="1"/>
<defs>
  <clipPath id="clip512">
    <rect x="272" y="114" width="2881" height="639"/>
  </clipPath>
</defs>
<polyline clip-path="url(#clip512)" style="stroke:#000000; stroke-linecap:round; stroke-linejoin:round; stroke-width:2; stroke-opacity:0.1; fill:none" points="354.378,751.562 354.378,114.022 "/>
<polyline clip-path="url(#clip512)" style="stroke:#000000; stroke-linecap:round; stroke-linejoin:round; stroke-width:2; stroke-opacity:0.1; fill:none" points="1033.6,751.562 1033.6,114.022 "/>
<polyline clip-path="url(#clip512)" style="stroke:#000000; stroke-linecap:round; stroke-linejoin:round; stroke-width:2; stroke-opacity:0.1; fill:none" points="1712.81,751.562 1712.81,114.022 "/>
<polyline clip-path="url(#clip512)" style="stroke:#000000; stroke-linecap:round; stroke-linejoin:round; stroke-width:2; stroke-opacity:0.1; fill:none" points="2392.03,751.562 2392.03,114.022 "/>
<polyline clip-path="url(#clip512)" style="stroke:#000000; stroke-linecap:round; stroke-linejoin:round; stroke-width:2; stroke-opacity:0.1; fill:none" points="3071.25,751.562 3071.25,114.022 "/>
<polyline clip-path="url(#clip512)" style="stroke:#000000; stroke-linecap:round; stroke-linejoin:round; stroke-width:2; stroke-opacity:0.1; fill:none" points="272.872,563.217 3152.76,563.217 "/>
<polyline clip-path="url(#clip512)" style="stroke:#000000; stroke-linecap:round; stroke-linejoin:round; stroke-width:2; stroke-opacity:0.1; fill:none" points="272.872,262.49 3152.76,262.49 "/>
<polyline clip-path="url(#clip510)" style="stroke:#000000; stroke-linecap:round; stroke-linejoin:round; stroke-width:4; stroke-opacity:1; fill:none" points="272.872,751.562 3152.76,751.562 "/>
<polyline clip-path="url(#clip510)" style="stroke:#000000; stroke-linecap:round; stroke-linejoin:round; stroke-width:4; stroke-opacity:1; fill:none" points="354.378,751.562 354.378,732.665 "/>
<polyline clip-path="url(#clip510)" style="stroke:#000000; stroke-linecap:round; stroke-linejoin:round; stroke-width:4; stroke-opacity:1; fill:none" points="1033.6,751.562 1033.6,732.665 "/>
<polyline clip-path="url(#clip510)" style="stroke:#000000; stroke-linecap:round; stroke-linejoin:round; stroke-width:4; stroke-opacity:1; fill:none" points="1712.81,751.562 1712.81,732.665 "/>
<polyline clip-path="url(#clip510)" style="stroke:#000000; stroke-linecap:round; stroke-linejoin:round; stroke-width:4; stroke-opacity:1; fill:none" points="2392.03,751.562 2392.03,732.665 "/>
<polyline clip-path="url(#clip510)" style="stroke:#000000; stroke-linecap:round; stroke-linejoin:round; stroke-width:4; stroke-opacity:1; fill:none" points="3071.25,751.562 3071.25,732.665 "/>
<path clip-path="url(#clip510)" d="M304.643 832.087 L312.282 832.087 L312.282 805.722 L303.972 807.388 L303.972 803.129 L312.236 801.462 L316.912 801.462 L316.912 832.087 L324.551 832.087 L324.551 836.022 L304.643 836.022 L304.643 832.087 Z" fill="#000000" fill-rule="nonzero" fill-opacity="1" /><path clip-path="url(#clip510)" d="M343.995 804.541 Q340.384 804.541 338.555 808.106 Q336.75 811.648 336.75 818.777 Q336.75 825.884 338.555 829.448 Q340.384 832.99 343.995 832.99 Q347.629 832.99 349.435 829.448 Q351.264 825.884 351.264 818.777 Q351.264 811.648 349.435 808.106 Q347.629 804.541 343.995 804.541 M343.995 800.837 Q349.805 800.837 352.861 805.444 Q355.939 810.027 355.939 818.777 Q355.939 827.504 352.861 832.11 Q349.805 836.694 343.995 836.694 Q338.185 836.694 335.106 832.11 Q332.051 827.504 332.051 818.777 Q332.051 810.027 335.106 805.444 Q338.185 800.837 343.995 800.837 Z" fill="#000000" fill-rule="nonzero" fill-opacity="1" /><path clip-path="url(#clip510)" d="M355.939 794.939 L380.051 794.939 L380.051 798.136 L355.939 798.136 L355.939 794.939 Z" fill="#000000" fill-rule="nonzero" fill-opacity="1" /><path clip-path="url(#clip510)" d="M391.524 805.415 L404.783 805.415 L404.783 808.612 L386.953 808.612 L386.953 805.415 Q389.116 803.177 392.84 799.415 Q396.583 795.635 397.542 794.544 Q399.367 792.494 400.081 791.083 Q400.815 789.654 400.815 788.281 Q400.815 786.043 399.235 784.632 Q397.674 783.222 395.154 783.222 Q393.367 783.222 391.373 783.842 Q389.398 784.463 387.142 785.723 L387.142 781.886 Q389.436 780.965 391.43 780.494 Q393.423 780.024 395.078 780.024 Q399.442 780.024 402.037 782.206 Q404.633 784.388 404.633 788.036 Q404.633 789.767 403.975 791.328 Q403.335 792.87 401.624 794.976 Q401.153 795.522 398.633 798.136 Q396.113 800.732 391.524 805.415 Z" fill="#000000" fill-rule="nonzero" fill-opacity="1" /><path clip-path="url(#clip510)" d="M983.711 832.087 L991.35 832.087 L991.35 805.722 L983.04 807.388 L983.04 803.129 L991.304 801.462 L995.979 801.462 L995.979 832.087 L1003.62 832.087 L1003.62 836.022 L983.711 836.022 L983.711 832.087 Z" fill="#000000" fill-rule="nonzero" fill-opacity="1" /><path clip-path="url(#clip510)" d="M1023.06 804.541 Q1019.45 804.541 1017.62 808.106 Q1015.82 811.648 1015.82 818.777 Q1015.82 825.884 1017.62 829.448 Q1019.45 832.99 1023.06 832.99 Q1026.7 832.99 1028.5 829.448 Q1030.33 825.884 1030.33 818.777 Q1030.33 811.648 1028.5 808.106 Q1026.7 804.541 1023.06 804.541 M1023.06 800.837 Q1028.87 800.837 1031.93 805.444 Q1035.01 810.027 1035.01 818.777 Q1035.01 827.504 1031.93 832.11 Q1028.87 836.694 1023.06 836.694 Q1017.25 836.694 1014.17 832.11 Q1011.12 827.504 1011.12 818.777 Q1011.12 810.027 1014.17 805.444 Q1017.25 800.837 1023.06 800.837 Z" fill="#000000" fill-rule="nonzero" fill-opacity="1" /><path clip-path="url(#clip510)" d="M1035.01 794.939 L1059.12 794.939 L1059.12 798.136 L1035.01 798.136 L1035.01 794.939 Z" fill="#000000" fill-rule="nonzero" fill-opacity="1" /><path clip-path="url(#clip510)" d="M1067.98 805.415 L1074.18 805.415 L1074.18 783.993 L1067.43 785.347 L1067.43 781.886 L1074.15 780.532 L1077.95 780.532 L1077.95 805.415 L1084.15 805.415 L1084.15 808.612 L1067.98 808.612 L1067.98 805.415 Z" fill="#000000" fill-rule="nonzero" fill-opacity="1" /><path clip-path="url(#clip510)" d="M1677.8 832.087 L1685.44 832.087 L1685.44 805.722 L1677.13 807.388 L1677.13 803.129 L1685.39 801.462 L1690.07 801.462 L1690.07 832.087 L1697.7 832.087 L1697.7 836.022 L1677.8 836.022 L1677.8 832.087 Z" fill="#000000" fill-rule="nonzero" fill-opacity="1" /><path clip-path="url(#clip510)" d="M1717.15 804.541 Q1713.54 804.541 1711.71 808.106 Q1709.9 811.648 1709.9 818.777 Q1709.9 825.884 1711.71 829.448 Q1713.54 832.99 1717.15 832.99 Q1720.78 832.99 1722.59 829.448 Q1724.42 825.884 1724.42 818.777 Q1724.42 811.648 1722.59 808.106 Q1720.78 804.541 1717.15 804.541 M1717.15 800.837 Q1722.96 800.837 1726.01 805.444 Q1729.09 810.027 1729.09 818.777 Q1729.09 827.504 1726.01 832.11 Q1722.96 836.694 1717.15 836.694 Q1711.34 836.694 1708.26 832.11 Q1705.2 827.504 1705.2 818.777 Q1705.2 810.027 1708.26 805.444 Q1711.34 800.837 1717.15 800.837 Z" fill="#000000" fill-rule="nonzero" fill-opacity="1" /><path clip-path="url(#clip510)" d="M1738.8 783.033 Q1735.86 783.033 1734.38 785.93 Q1732.91 788.807 1732.91 794.6 Q1732.91 800.374 1734.38 803.271 Q1735.86 806.148 1738.8 806.148 Q1741.75 806.148 1743.22 803.271 Q1744.7 800.374 1744.7 794.6 Q1744.7 788.807 1743.22 785.93 Q1741.75 783.033 1738.8 783.033 M1738.8 780.024 Q1743.52 780.024 1746 783.767 Q1748.5 787.491 1748.5 794.6 Q1748.5 801.691 1746 805.433 Q1743.52 809.157 1738.8 809.157 Q1734.08 809.157 1731.58 805.433 Q1729.09 801.691 1729.09 794.6 Q1729.09 787.491 1731.58 783.767 Q1734.08 780.024 1738.8 780.024 Z" fill="#000000" fill-rule="nonzero" fill-opacity="1" /><path clip-path="url(#clip510)" d="M2358.36 832.087 L2366 832.087 L2366 805.722 L2357.69 807.388 L2357.69 803.129 L2365.95 801.462 L2370.63 801.462 L2370.63 832.087 L2378.27 832.087 L2378.27 836.022 L2358.36 836.022 L2358.36 832.087 Z" fill="#000000" fill-rule="nonzero" fill-opacity="1" /><path clip-path="url(#clip510)" d="M2397.71 804.541 Q2394.1 804.541 2392.27 808.106 Q2390.47 811.648 2390.47 818.777 Q2390.47 825.884 2392.27 829.448 Q2394.1 832.99 2397.71 832.99 Q2401.35 832.99 2403.15 829.448 Q2404.98 825.884 2404.98 818.777 Q2404.98 811.648 2403.15 808.106 Q2401.35 804.541 2397.71 804.541 M2397.71 800.837 Q2403.52 800.837 2406.58 805.444 Q2409.66 810.027 2409.66 818.777 Q2409.66 827.504 2406.58 832.11 Q2403.52 836.694 2397.71 836.694 Q2391.9 836.694 2388.82 832.11 Q2385.77 827.504 2385.77 818.777 Q2385.77 810.027 2388.82 805.444 Q2391.9 800.837 2397.71 800.837 Z" fill="#000000" fill-rule="nonzero" fill-opacity="1" /><path clip-path="url(#clip510)" d="M2410.2 805.415 L2416.41 805.415 L2416.41 783.993 L2409.66 785.347 L2409.66 781.886 L2416.37 780.532 L2420.17 780.532 L2420.17 805.415 L2426.38 805.415 L2426.38 808.612 L2410.2 808.612 L2410.2 805.415 Z" fill="#000000" fill-rule="nonzero" fill-opacity="1" /><path clip-path="url(#clip510)" d="M3037.02 832.087 L3044.66 832.087 L3044.66 805.722 L3036.35 807.388 L3036.35 803.129 L3044.62 801.462 L3049.29 801.462 L3049.29 832.087 L3056.93 832.087 L3056.93 836.022 L3037.02 836.022 L3037.02 832.087 Z" fill="#000000" fill-rule="nonzero" fill-opacity="1" /><path clip-path="url(#clip510)" d="M3076.37 804.541 Q3072.76 804.541 3070.93 808.106 Q3069.13 811.648 3069.13 818.777 Q3069.13 825.884 3070.93 829.448 Q3072.76 832.99 3076.37 832.99 Q3080.01 832.99 3081.81 829.448 Q3083.64 825.884 3083.64 818.777 Q3083.64 811.648 3081.81 808.106 Q3080.01 804.541 3076.37 804.541 M3076.37 800.837 Q3082.18 800.837 3085.24 805.444 Q3088.32 810.027 3088.32 818.777 Q3088.32 827.504 3085.24 832.11 Q3082.18 836.694 3076.37 836.694 Q3070.56 836.694 3067.49 832.11 Q3064.43 827.504 3064.43 818.777 Q3064.43 810.027 3067.49 805.444 Q3070.56 800.837 3076.37 800.837 Z" fill="#000000" fill-rule="nonzero" fill-opacity="1" /><path clip-path="url(#clip510)" d="M3092.89 805.415 L3106.15 805.415 L3106.15 808.612 L3088.32 808.612 L3088.32 805.415 Q3090.48 803.177 3094.21 799.415 Q3097.95 795.635 3098.91 794.544 Q3100.73 792.494 3101.45 791.083 Q3102.18 789.654 3102.18 788.281 Q3102.18 786.043 3100.6 784.632 Q3099.04 783.222 3096.52 783.222 Q3094.73 783.222 3092.74 783.842 Q3090.76 784.463 3088.51 785.723 L3088.51 781.886 Q3090.8 780.965 3092.79 780.494 Q3094.79 780.024 3096.44 780.024 Q3100.81 780.024 3103.4 782.206 Q3106 784.388 3106 788.036 Q3106 789.767 3105.34 791.328 Q3104.7 792.87 3102.99 794.976 Q3102.52 795.522 3100 798.136 Q3097.48 800.732 3092.89 805.415 Z" fill="#000000" fill-rule="nonzero" fill-opacity="1" /><polyline clip-path="url(#clip510)" style="stroke:#000000; stroke-linecap:round; stroke-linejoin:round; stroke-width:4; stroke-opacity:1; fill:none" points="272.872,751.562 272.872,114.022 "/>
<polyline clip-path="url(#clip510)" style="stroke:#000000; stroke-linecap:round; stroke-linejoin:round; stroke-width:4; stroke-opacity:1; fill:none" points="272.872,563.217 291.769,563.217 "/>
<polyline clip-path="url(#clip510)" style="stroke:#000000; stroke-linecap:round; stroke-linejoin:round; stroke-width:4; stroke-opacity:1; fill:none" points="272.872,262.49 291.769,262.49 "/>
<path clip-path="url(#clip510)" d="M123.961 583.009 L131.599 583.009 L131.599 556.644 L123.289 558.31 L123.289 554.051 L131.553 552.384 L136.229 552.384 L136.229 583.009 L143.868 583.009 L143.868 586.944 L123.961 586.944 L123.961 583.009 Z" fill="#000000" fill-rule="nonzero" fill-opacity="1" /><path clip-path="url(#clip510)" d="M163.312 555.463 Q159.701 555.463 157.872 559.028 Q156.067 562.57 156.067 569.699 Q156.067 576.806 157.872 580.37 Q159.701 583.912 163.312 583.912 Q166.947 583.912 168.752 580.37 Q170.581 576.806 170.581 569.699 Q170.581 562.57 168.752 559.028 Q166.947 555.463 163.312 555.463 M163.312 551.759 Q169.122 551.759 172.178 556.366 Q175.257 560.949 175.257 569.699 Q175.257 578.426 172.178 583.032 Q169.122 587.616 163.312 587.616 Q157.502 587.616 154.423 583.032 Q151.368 578.426 151.368 569.699 Q151.368 560.949 154.423 556.366 Q157.502 551.759 163.312 551.759 Z" fill="#000000" fill-rule="nonzero" fill-opacity="1" /><path clip-path="url(#clip510)" d="M175.257 545.861 L199.368 545.861 L199.368 549.058 L175.257 549.058 L175.257 545.861 Z" fill="#000000" fill-rule="nonzero" fill-opacity="1" /><path clip-path="url(#clip510)" d="M219.079 544.394 Q221.806 544.977 223.329 546.82 Q224.872 548.663 224.872 551.371 Q224.872 555.528 222.013 557.804 Q219.154 560.079 213.888 560.079 Q212.12 560.079 210.239 559.722 Q208.377 559.384 206.384 558.688 L206.384 555.02 Q207.963 555.942 209.844 556.412 Q211.725 556.882 213.775 556.882 Q217.348 556.882 219.21 555.472 Q221.091 554.061 221.091 551.371 Q221.091 548.889 219.342 547.497 Q217.612 546.086 214.508 546.086 L211.236 546.086 L211.236 542.964 L214.659 542.964 Q217.461 542.964 218.947 541.855 Q220.433 540.726 220.433 538.62 Q220.433 536.457 218.891 535.31 Q217.367 534.144 214.508 534.144 Q212.947 534.144 211.161 534.482 Q209.374 534.821 207.23 535.535 L207.23 532.15 Q209.393 531.548 211.274 531.247 Q213.173 530.946 214.847 530.946 Q219.173 530.946 221.693 532.921 Q224.213 534.877 224.213 538.225 Q224.213 540.557 222.878 542.174 Q221.543 543.773 219.079 544.394 Z" fill="#000000" fill-rule="nonzero" fill-opacity="1" /><path clip-path="url(#clip510)" d="M154.166 282.283 L161.805 282.283 L161.805 255.917 L153.495 257.584 L153.495 253.325 L161.758 251.658 L166.434 251.658 L166.434 282.283 L174.073 282.283 L174.073 286.218 L154.166 286.218 L154.166 282.283 Z" fill="#000000" fill-rule="nonzero" fill-opacity="1" /><path clip-path="url(#clip510)" d="M193.518 254.737 Q189.906 254.737 188.078 258.301 Q186.272 261.843 186.272 268.973 Q186.272 276.079 188.078 279.644 Q189.906 283.185 193.518 283.185 Q197.152 283.185 198.957 279.644 Q200.786 276.079 200.786 268.973 Q200.786 261.843 198.957 258.301 Q197.152 254.737 193.518 254.737 M193.518 251.033 Q199.328 251.033 202.383 255.639 Q205.462 260.223 205.462 268.973 Q205.462 277.699 202.383 282.306 Q199.328 286.889 193.518 286.889 Q187.707 286.889 184.629 282.306 Q181.573 277.699 181.573 268.973 Q181.573 260.223 184.629 255.639 Q187.707 251.033 193.518 251.033 Z" fill="#000000" fill-rule="nonzero" fill-opacity="1" /><path clip-path="url(#clip510)" d="M215.167 233.229 Q212.233 233.229 210.747 236.125 Q209.28 239.003 209.28 244.796 Q209.28 250.57 210.747 253.466 Q212.233 256.344 215.167 256.344 Q218.12 256.344 219.587 253.466 Q221.072 250.57 221.072 244.796 Q221.072 239.003 219.587 236.125 Q218.12 233.229 215.167 233.229 M215.167 230.22 Q219.887 230.22 222.37 233.962 Q224.872 237.686 224.872 244.796 Q224.872 251.886 222.37 255.629 Q219.887 259.353 215.167 259.353 Q210.446 259.353 207.945 255.629 Q205.462 251.886 205.462 244.796 Q205.462 237.686 207.945 233.962 Q210.446 230.22 215.167 230.22 Z" fill="#000000" fill-rule="nonzero" fill-opacity="1" /><path clip-path="url(#clip510)" d="M13.5133 600.529 L13.5133 590.948 L45.8511 578.822 L13.5133 566.631 L13.5133 557.051 L61.0333 557.051 L61.0333 563.321 L19.3061 563.321 L51.8985 575.575 L51.8985 582.036 L19.3061 594.29 L61.0333 594.29 L61.0333 600.529 L13.5133 600.529 Z" fill="#000000" fill-rule="nonzero" fill-opacity="1" /><path clip-path="url(#clip510)" d="M43.1139 528.342 Q43.1139 535.439 44.7371 538.177 Q46.3604 540.914 50.2753 540.914 Q53.3945 540.914 55.2405 538.877 Q57.0548 536.808 57.0548 533.275 Q57.0548 528.405 53.6173 525.477 Q50.148 522.517 44.4188 522.517 L43.1139 522.517 L43.1139 528.342 M40.6949 516.66 L61.0333 516.66 L61.0333 522.517 L55.6225 522.517 Q58.869 524.522 60.4286 527.514 Q61.9564 530.506 61.9564 534.835 Q61.9564 540.309 58.9008 543.556 Q55.8135 546.77 50.6572 546.77 Q44.6416 546.77 41.5861 542.76 Q38.5306 538.718 38.5306 530.729 L38.5306 522.517 L37.9576 522.517 Q33.9154 522.517 31.7193 525.19 Q29.4913 527.832 29.4913 532.638 Q29.4913 535.694 30.2233 538.59 Q30.9554 541.487 32.4195 544.16 L27.0086 544.16 Q25.7673 540.946 25.1626 537.922 Q24.526 534.898 24.526 532.034 Q24.526 524.299 28.5364 520.48 Q32.5468 516.66 40.6949 516.66 Z" fill="#000000" fill-rule="nonzero" fill-opacity="1" /><path clip-path="url(#clip510)" d="M42.7956 481.14 Q36.4299 481.14 32.9287 483.782 Q29.4276 486.392 29.4276 491.134 Q29.4276 495.845 32.9287 498.486 Q36.4299 501.096 42.7956 501.096 Q49.1295 501.096 52.6306 498.486 Q56.1317 495.845 56.1317 491.134 Q56.1317 486.392 52.6306 483.782 Q49.1295 481.14 42.7956 481.14 M56.6092 475.283 Q65.7121 475.283 70.1363 479.326 Q74.5923 483.368 74.5923 491.707 Q74.5923 494.794 74.1149 497.532 Q73.6693 500.269 72.7144 502.847 L67.0171 502.847 Q68.4175 500.269 69.0859 497.754 Q69.7543 495.24 69.7543 492.63 Q69.7543 486.869 66.7306 484.004 Q63.7388 481.14 57.6595 481.14 L54.7631 481.14 Q57.9141 482.954 59.4737 485.787 Q61.0333 488.62 61.0333 492.566 Q61.0333 499.123 56.0363 503.133 Q51.0392 507.144 42.7956 507.144 Q34.5202 507.144 29.5231 503.133 Q24.526 499.123 24.526 492.566 Q24.526 488.62 26.0856 485.787 Q27.6452 482.954 30.7962 481.14 L25.3854 481.14 L25.3854 475.283 L56.6092 475.283 Z" fill="#000000" fill-rule="nonzero" fill-opacity="1" /><path clip-path="url(#clip510)" d="M39.5172 433.588 L61.0333 433.588 L61.0333 439.444 L39.7082 439.444 Q34.6475 439.444 32.133 441.418 Q29.6186 443.391 29.6186 447.338 Q29.6186 452.08 32.6423 454.818 Q35.666 457.555 40.8859 457.555 L61.0333 457.555 L61.0333 463.443 L25.3854 463.443 L25.3854 457.555 L30.9235 457.555 Q27.7089 455.454 26.1174 452.621 Q24.526 449.757 24.526 446.033 Q24.526 439.89 28.3454 436.739 Q32.133 433.588 39.5172 433.588 Z" fill="#000000" fill-rule="nonzero" fill-opacity="1" /><path clip-path="url(#clip510)" d="M25.3854 421.907 L25.3854 416.05 L61.0333 416.05 L61.0333 421.907 L25.3854 421.907 M11.5081 421.907 L11.5081 416.05 L18.9242 416.05 L18.9242 421.907 L11.5081 421.907 Z" fill="#000000" fill-rule="nonzero" fill-opacity="1" /><path clip-path="url(#clip510)" d="M15.2639 398.004 L25.3854 398.004 L25.3854 385.941 L29.9369 385.941 L29.9369 398.004 L49.2886 398.004 Q53.6491 398.004 54.8904 396.826 Q56.1317 395.617 56.1317 391.956 L56.1317 385.941 L61.0333 385.941 L61.0333 391.956 Q61.0333 398.736 58.5189 401.314 Q55.9726 403.892 49.2886 403.892 L29.9369 403.892 L29.9369 408.189 L25.3854 408.189 L25.3854 403.892 L15.2639 403.892 L15.2639 398.004 Z" fill="#000000" fill-rule="nonzero" fill-opacity="1" /><path clip-path="url(#clip510)" d="M46.9651 378.843 L25.3854 378.843 L25.3854 372.986 L46.7423 372.986 Q51.8031 372.986 54.3493 371.013 Q56.8638 369.04 56.8638 365.093 Q56.8638 360.351 53.8401 357.613 Q50.8164 354.844 45.5965 354.844 L25.3854 354.844 L25.3854 348.988 L61.0333 348.988 L61.0333 354.844 L55.5588 354.844 Q58.8053 356.977 60.3968 359.809 Q61.9564 362.61 61.9564 366.334 Q61.9564 372.477 58.1369 375.66 Q54.3175 378.843 46.9651 378.843 M24.526 364.106 L24.526 364.106 Z" fill="#000000" fill-rule="nonzero" fill-opacity="1" /><path clip-path="url(#clip510)" d="M30.7962 313.467 L11.5081 313.467 L11.5081 307.611 L61.0333 307.611 L61.0333 313.467 L55.6861 313.467 Q58.869 315.313 60.4286 318.146 Q61.9564 320.947 61.9564 324.894 Q61.9564 331.355 56.8001 335.429 Q51.6439 339.471 43.2412 339.471 Q34.8384 339.471 29.6822 335.429 Q24.526 331.355 24.526 324.894 Q24.526 320.947 26.0856 318.146 Q27.6134 315.313 30.7962 313.467 M43.2412 333.424 Q49.7024 333.424 53.3945 330.782 Q57.0548 328.108 57.0548 323.461 Q57.0548 318.814 53.3945 316.141 Q49.7024 313.467 43.2412 313.467 Q36.78 313.467 33.1197 316.141 Q29.4276 318.814 29.4276 323.461 Q29.4276 328.108 33.1197 330.782 Q36.78 333.424 43.2412 333.424 Z" fill="#000000" fill-rule="nonzero" fill-opacity="1" /><path clip-path="url(#clip510)" d="M41.7452 265.056 L44.6098 265.056 L44.6098 291.983 Q50.6572 291.601 53.8401 288.354 Q56.9911 285.076 56.9911 279.251 Q56.9911 275.878 56.1636 272.727 Q55.336 269.544 53.6809 266.425 L59.2191 266.425 Q60.5559 269.576 61.2561 272.886 Q61.9564 276.196 61.9564 279.602 Q61.9564 288.132 56.9911 293.129 Q52.0259 298.094 43.5595 298.094 Q34.8066 298.094 29.6822 293.383 Q24.526 288.641 24.526 280.62 Q24.526 273.427 29.173 269.257 Q33.7881 265.056 41.7452 265.056 M40.0265 270.912 Q35.2204 270.976 32.3558 273.618 Q29.4913 276.228 29.4913 280.556 Q29.4913 285.458 32.2603 288.418 Q35.0294 291.346 40.0583 291.792 L40.0265 270.912 Z" fill="#000000" fill-rule="nonzero" fill-opacity="1" /><path clip-path="url(#clip510)" d="M1282.1 63.9476 L1282.1 47.7034 L1268.73 47.7034 L1268.73 40.9789 L1290.2 40.9789 L1290.2 66.9452 Q1285.46 70.3075 1279.75 72.0494 Q1274.04 73.7508 1267.56 73.7508 Q1253.38 73.7508 1245.36 65.4869 Q1237.38 57.1826 1237.38 42.3968 Q1237.38 27.5705 1245.36 19.3066 Q1253.38 11.0023 1267.56 11.0023 Q1273.47 11.0023 1278.78 12.4606 Q1284.13 13.9189 1288.62 16.7545 L1288.62 25.464 Q1284.09 21.6156 1278.98 19.6712 Q1273.88 17.7268 1268.25 17.7268 Q1257.15 17.7268 1251.56 23.9246 Q1246.01 30.1225 1246.01 42.3968 Q1246.01 54.6305 1251.56 60.8284 Q1257.15 67.0263 1268.25 67.0263 Q1272.58 67.0263 1275.98 66.2971 Q1279.39 65.5274 1282.1 63.9476 Z" fill="#000000" fill-rule="nonzero" fill-opacity="1" /><path clip-path="url(#clip510)" d="M1340.15 35.9153 Q1342.95 30.8922 1346.83 28.5022 Q1350.72 26.1121 1355.99 26.1121 Q1363.08 26.1121 1366.93 31.0947 Q1370.78 36.0368 1370.78 45.1919 L1370.78 72.576 L1363.28 72.576 L1363.28 45.4349 Q1363.28 38.913 1360.97 35.7533 Q1358.66 32.5936 1353.92 32.5936 Q1348.13 32.5936 1344.77 36.4419 Q1341.41 40.2903 1341.41 46.9338 L1341.41 72.576 L1333.91 72.576 L1333.91 45.4349 Q1333.91 38.8725 1331.6 35.7533 Q1329.29 32.5936 1324.47 32.5936 Q1318.76 32.5936 1315.4 36.4824 Q1312.04 40.3308 1312.04 46.9338 L1312.04 72.576 L1304.54 72.576 L1304.54 27.2059 L1312.04 27.2059 L1312.04 34.2544 Q1314.59 30.082 1318.15 28.0971 Q1321.72 26.1121 1326.62 26.1121 Q1331.56 26.1121 1335.01 28.6237 Q1338.49 31.1352 1340.15 35.9153 Z" fill="#000000" fill-rule="nonzero" fill-opacity="1" /><path clip-path="url(#clip510)" d="M1387.55 62.2867 L1396.09 62.2867 L1396.09 72.576 L1387.55 72.576 L1387.55 62.2867 M1387.55 29.6769 L1396.09 29.6769 L1396.09 39.9662 L1387.55 39.9662 L1387.55 29.6769 Z" fill="#000000" fill-rule="nonzero" fill-opacity="1" /><path clip-path="url(#clip510)" d="M1439.28 9.54393 L1456.45 9.54393 L1456.45 15.3367 L1446.73 15.3367 L1446.73 77.7206 L1456.45 77.7206 L1456.45 83.5134 L1439.28 83.5134 L1439.28 9.54393 Z" fill="#000000" fill-rule="nonzero" fill-opacity="1" /><path clip-path="url(#clip510)" d="M1474.8 65.6895 L1488.17 65.6895 L1488.17 19.5497 L1473.63 22.4663 L1473.63 15.0127 L1488.09 12.096 L1496.27 12.096 L1496.27 65.6895 L1509.64 65.6895 L1509.64 72.576 L1474.8 72.576 L1474.8 65.6895 Z" fill="#000000" fill-rule="nonzero" fill-opacity="1" /><path clip-path="url(#clip510)" d="M1526.17 62.2867 L1534.72 62.2867 L1534.72 72.576 L1526.17 72.576 L1526.17 62.2867 Z" fill="#000000" fill-rule="nonzero" fill-opacity="1" /><path clip-path="url(#clip510)" d="M1577.33 39.9662 Q1583.21 41.222 1586.49 45.1919 Q1589.81 49.1618 1589.81 54.9951 Q1589.81 63.9476 1583.65 68.8492 Q1577.49 73.7508 1566.15 73.7508 Q1562.34 73.7508 1558.29 72.9811 Q1554.28 72.2519 1549.99 70.7531 L1549.99 62.8538 Q1553.39 64.8388 1557.44 65.8515 Q1561.49 66.8642 1565.91 66.8642 Q1573.6 66.8642 1577.61 63.826 Q1581.67 60.7879 1581.67 54.9951 Q1581.67 49.6479 1577.9 46.6502 Q1574.17 43.612 1567.49 43.612 L1560.44 43.612 L1560.44 36.8875 L1567.81 36.8875 Q1573.85 36.8875 1577.05 34.4975 Q1580.25 32.067 1580.25 27.5299 Q1580.25 22.8714 1576.93 20.4004 Q1573.64 17.8888 1567.49 17.8888 Q1564.13 17.8888 1560.28 18.618 Q1556.43 19.3471 1551.81 20.8865 L1551.81 13.5948 Q1556.47 12.2985 1560.52 11.6504 Q1564.61 11.0023 1568.22 11.0023 Q1577.53 11.0023 1582.96 15.2557 Q1588.39 19.4686 1588.39 26.6793 Q1588.39 31.7024 1585.51 35.1862 Q1582.64 38.6294 1577.33 39.9662 Z" fill="#000000" fill-rule="nonzero" fill-opacity="1" /><path clip-path="url(#clip510)" d="M1621.69 9.54393 L1621.69 83.5134 L1604.51 83.5134 L1604.51 77.7206 L1614.19 77.7206 L1614.19 15.3367 L1604.51 15.3367 L1604.51 9.54393 L1621.69 9.54393 Z" fill="#000000" fill-rule="nonzero" fill-opacity="1" /><path clip-path="url(#clip510)" d="M1703.84 73.7508 Q1687.03 73.7508 1687.03 49.6884 Q1687.03 40.1688 1693.31 27.2059 L1701.33 27.2059 Q1695.54 40.1688 1695.54 49.8909 Q1695.54 67.4314 1704.53 67.4314 Q1712.75 67.4314 1712.75 45.6375 L1719.64 45.6375 Q1719.64 67.4314 1727.86 67.4314 Q1736.86 67.4314 1736.86 49.8909 Q1736.86 40.1688 1731.06 27.2059 L1739.08 27.2059 Q1745.36 40.1688 1745.36 49.6884 Q1745.36 73.7508 1728.55 73.7508 Q1717.53 73.7508 1716.2 61.6386 Q1714.54 73.7508 1703.84 73.7508 Z" fill="#000000" fill-rule="nonzero" fill-opacity="1" /><path clip-path="url(#clip510)" d="M1815.08 49.3643 Q1815.08 41.2625 1811.72 36.8065 Q1808.39 32.3505 1802.36 32.3505 Q1796.36 32.3505 1793 36.8065 Q1789.68 41.2625 1789.68 49.3643 Q1789.68 57.4256 1793 61.8816 Q1796.36 66.3376 1802.36 66.3376 Q1808.39 66.3376 1811.72 61.8816 Q1815.08 57.4256 1815.08 49.3643 M1822.53 66.9452 Q1822.53 78.5308 1817.39 84.1616 Q1812.24 89.8329 1801.63 89.8329 Q1797.7 89.8329 1794.22 89.2252 Q1790.73 88.6581 1787.45 87.4428 L1787.45 80.1917 Q1790.73 81.9741 1793.93 82.8248 Q1797.13 83.6755 1800.46 83.6755 Q1807.79 83.6755 1811.43 79.8271 Q1815.08 76.0193 1815.08 68.282 L1815.08 64.5957 Q1812.77 68.6061 1809.16 70.5911 Q1805.56 72.576 1800.54 72.576 Q1792.19 72.576 1787.09 66.2161 Q1781.98 59.8562 1781.98 49.3643 Q1781.98 38.832 1787.09 32.472 Q1792.19 26.1121 1800.54 26.1121 Q1805.56 26.1121 1809.16 28.0971 Q1812.77 30.082 1815.08 34.0924 L1815.08 27.2059 L1822.53 27.2059 L1822.53 66.9452 Z" fill="#000000" fill-rule="nonzero" fill-opacity="1" /><path clip-path="url(#clip510)" d="M1873.21 35.9153 Q1876 30.8922 1879.89 28.5022 Q1883.78 26.1121 1889.05 26.1121 Q1896.14 26.1121 1899.99 31.0947 Q1903.83 36.0368 1903.83 45.1919 L1903.83 72.576 L1896.34 72.576 L1896.34 45.4349 Q1896.34 38.913 1894.03 35.7533 Q1891.72 32.5936 1886.98 32.5936 Q1881.19 32.5936 1877.83 36.4419 Q1874.47 40.2903 1874.47 46.9338 L1874.47 72.576 L1866.97 72.576 L1866.97 45.4349 Q1866.97 38.8725 1864.66 35.7533 Q1862.35 32.5936 1857.53 32.5936 Q1851.82 32.5936 1848.46 36.4824 Q1845.1 40.3308 1845.1 46.9338 L1845.1 72.576 L1837.6 72.576 L1837.6 27.2059 L1845.1 27.2059 L1845.1 34.2544 Q1847.65 30.082 1851.21 28.0971 Q1854.78 26.1121 1859.68 26.1121 Q1864.62 26.1121 1868.06 28.6237 Q1871.55 31.1352 1873.21 35.9153 Z" fill="#000000" fill-rule="nonzero" fill-opacity="1" /><path clip-path="url(#clip510)" d="M1920.6 62.2867 L1929.15 62.2867 L1929.15 72.576 L1920.6 72.576 L1920.6 62.2867 M1920.6 29.6769 L1929.15 29.6769 L1929.15 39.9662 L1920.6 39.9662 L1920.6 29.6769 Z" fill="#000000" fill-rule="nonzero" fill-opacity="1" /><path clip-path="url(#clip510)" d="M1972.33 9.54393 L1989.51 9.54393 L1989.51 15.3367 L1979.79 15.3367 L1979.79 77.7206 L1989.51 77.7206 L1989.51 83.5134 L1972.33 83.5134 L1972.33 9.54393 Z" fill="#000000" fill-rule="nonzero" fill-opacity="1" /><path clip-path="url(#clip510)" d="M2007.86 65.6895 L2021.23 65.6895 L2021.23 19.5497 L2006.69 22.4663 L2006.69 15.0127 L2021.15 12.096 L2029.33 12.096 L2029.33 65.6895 L2042.7 65.6895 L2042.7 72.576 L2007.86 72.576 L2007.86 65.6895 Z" fill="#000000" fill-rule="nonzero" fill-opacity="1" /><path clip-path="url(#clip510)" d="M2059.23 62.2867 L2067.77 62.2867 L2067.77 72.576 L2059.23 72.576 L2059.23 62.2867 Z" fill="#000000" fill-rule="nonzero" fill-opacity="1" /><path clip-path="url(#clip510)" d="M2087.02 65.6895 L2100.38 65.6895 L2100.38 19.5497 L2085.84 22.4663 L2085.84 15.0127 L2100.3 12.096 L2108.49 12.096 L2108.49 65.6895 L2121.85 65.6895 L2121.85 72.576 L2087.02 72.576 L2087.02 65.6895 Z" fill="#000000" fill-rule="nonzero" fill-opacity="1" /><path clip-path="url(#clip510)" d="M2154.75 9.54393 L2154.75 83.5134 L2137.57 83.5134 L2137.57 77.7206 L2147.25 77.7206 L2147.25 15.3367 L2137.57 15.3367 L2137.57 9.54393 L2154.75 9.54393 Z" fill="#000000" fill-rule="nonzero" fill-opacity="1" /><polyline clip-path="url(#clip512)" style="stroke:#009af9; stroke-linecap:round; stroke-linejoin:round; stroke-width:4; stroke-opacity:1; fill:none" points="354.378,132.066 365.745,133.743 377.113,135.42 388.481,137.097 399.848,138.774 411.216,140.451 422.584,142.128 433.951,143.805 445.319,145.482 456.687,147.159 468.054,148.835 479.422,150.512 490.79,152.188 502.157,153.865 513.525,155.541 524.893,157.217 536.26,158.893 547.628,160.569 558.996,162.245 570.363,163.92 581.731,165.596 593.099,167.271 604.466,168.946 615.834,170.621 627.202,172.296 638.569,173.97 649.937,175.644 661.305,177.318 672.672,178.992 684.04,180.665 695.408,182.338 706.775,184.01 718.143,185.682 729.511,187.354 740.878,189.025 752.246,190.696 763.614,192.366 774.981,194.035 786.349,195.704 797.717,197.372 809.084,199.039 820.452,200.706 831.82,202.371 843.187,204.036 854.555,205.699 865.923,207.362 877.29,209.023 888.658,210.682 900.026,212.341 911.393,213.998 922.761,215.653 934.129,217.306 945.496,218.957 956.864,220.607 968.232,222.254 979.599,223.898 990.967,225.54 1002.33,227.179 1013.7,228.815 1025.07,230.447 1036.44,232.076 1047.81,233.701 1059.17,235.322 1070.54,236.938 1081.91,238.549 1093.28,240.154 1104.64,241.754 1116.01,243.348 1127.38,244.935 1138.75,246.515 1150.11,248.086 1161.48,249.65 1172.85,251.203 1184.22,252.747 1195.58,254.28 1206.95,255.802 1218.32,257.31 1229.69,258.805 1241.06,260.286 1252.42,261.75 1263.79,263.196 1275.16,264.624 1286.53,266.032 1297.89,267.417 1309.26,268.778 1320.63,270.113 1332,271.42 1343.36,272.697 1354.73,273.94 1366.1,275.147 1377.47,276.314 1388.84,277.439 1400.2,278.517 1411.57,279.543 1422.94,280.514 1434.31,281.425 1445.67,282.268 1457.04,283.038 1468.41,283.728 1479.78,284.329 1491.14,284.832 1502.51,285.226 1513.88,285.5 1525.25,285.639 1536.61,285.627 1547.98,285.445 1559.35,285.072 1570.72,284.479 1582.09,283.635 1593.45,282.503 1604.82,281.033 1616.19,279.169 1627.56,276.839 1638.92,273.956 1650.29,270.42 1661.66,266.132 1673.03,261.043 1684.39,255.335 1695.76,249.873 1707.13,246.934 1718.5,249.45 1729.87,257.422 1741.23,267.917 1752.6,278.659 1763.97,288.781 1775.34,298.102 1786.7,306.671 1798.07,314.587 1809.44,321.95 1820.81,328.847 1832.17,335.35 1843.54,341.516 1854.91,347.392 1866.28,353.018 1877.64,358.425 1889.01,363.64 1900.38,368.685 1911.75,373.579 1923.12,378.338 1934.48,382.977 1945.85,387.507 1957.22,391.939 1968.59,396.283 1979.95,400.545 1991.32,404.735 2002.69,408.858 2014.06,412.92 2025.42,416.926 2036.79,420.881 2048.16,424.79 2059.53,428.656 2070.9,432.482 2082.26,436.272 2093.63,440.029 2105,443.755 2116.37,447.452 2127.73,451.124 2139.1,454.772 2150.47,458.398 2161.84,462.003 2173.2,465.589 2184.57,469.158 2195.94,472.711 2207.31,476.249 2218.67,479.774 2230.04,483.286 2241.41,486.786 2252.78,490.275 2264.15,493.754 2275.51,497.224 2286.88,500.685 2298.25,504.139 2309.62,507.585 2320.98,511.024 2332.35,514.457 2343.72,517.885 2355.09,521.307 2366.45,524.724 2377.82,528.136 2389.19,531.544 2400.56,534.948 2411.93,538.349 2423.29,541.746 2434.66,545.14 2446.03,548.532 2457.4,551.92 2468.76,555.306 2480.13,558.69 2491.5,562.072 2502.87,565.452 2514.23,568.83 2525.6,572.206 2536.97,575.581 2548.34,578.954 2559.7,582.326 2571.07,585.697 2582.44,589.066 2593.81,592.435 2605.18,595.802 2616.54,599.169 2627.91,602.535 2639.28,605.9 2650.65,609.264 2662.01,612.628 2673.38,615.991 2684.75,619.354 2696.12,622.715 2707.48,626.077 2718.85,629.438 2730.22,632.799 2741.59,636.159 2752.96,639.519 2764.32,642.878 2775.69,646.237 2787.06,649.596 2798.43,652.955 2809.79,656.313 2821.16,659.672 2832.53,663.03 2843.9,666.387 2855.26,669.745 2866.63,673.102 2878,676.46 2889.37,679.817 2900.73,683.174 2912.1,686.531 2923.47,689.888 2934.84,693.244 2946.21,696.601 2957.57,699.957 2968.94,703.314 2980.31,706.67 2991.68,710.026 3003.04,713.383 3014.41,716.739 3025.78,720.095 3037.15,723.451 3048.51,726.807 3059.88,730.163 3071.25,733.519 "/>
<polyline clip-path="url(#clip512)" style="stroke:#808080; stroke-linecap:round; stroke-linejoin:round; stroke-width:4; stroke-opacity:1; fill:none" stroke-dasharray="16, 10" points="354.378,262.49 3071.25,262.49 "/>
<polyline clip-path="url(#clip512)" style="stroke:#009af9; stroke-linecap:round; stroke-linejoin:round; stroke-width:4; stroke-opacity:1; fill:none" points="1746.37,262.49 1746.37,272.814 "/>
<path clip-path="url(#clip510)" d="M272.872 1623.64 L3152.76 1623.64 L3152.76 986.101 L272.872 986.101  Z" fill="#ffffff" fill-rule="evenodd" fill-opacity="1"/>
<defs>
  <clipPath id="clip513">
    <rect x="272" y="986" width="2881" height="639"/>
  </clipPath>
</defs>
<polyline clip-path="url(#clip513)" style="stroke:#000000; stroke-linecap:round; stroke-linejoin:round; stroke-width:2; stroke-opacity:0.1; fill:none" points="354.378,1623.64 354.378,986.101 "/>
<polyline clip-path="url(#clip513)" style="stroke:#000000; stroke-linecap:round; stroke-linejoin:round; stroke-width:2; stroke-opacity:0.1; fill:none" points="1033.6,1623.64 1033.6,986.101 "/>
<polyline clip-path="url(#clip513)" style="stroke:#000000; stroke-linecap:round; stroke-linejoin:round; stroke-width:2; stroke-opacity:0.1; fill:none" points="1712.81,1623.64 1712.81,986.101 "/>
<polyline clip-path="url(#clip513)" style="stroke:#000000; stroke-linecap:round; stroke-linejoin:round; stroke-width:2; stroke-opacity:0.1; fill:none" points="2392.03,1623.64 2392.03,986.101 "/>
<polyline clip-path="url(#clip513)" style="stroke:#000000; stroke-linecap:round; stroke-linejoin:round; stroke-width:2; stroke-opacity:0.1; fill:none" points="3071.25,1623.64 3071.25,986.101 "/>
<polyline clip-path="url(#clip513)" style="stroke:#000000; stroke-linecap:round; stroke-linejoin:round; stroke-width:2; stroke-opacity:0.1; fill:none" points="272.872,1511.77 3152.76,1511.77 "/>
<polyline clip-path="url(#clip513)" style="stroke:#000000; stroke-linecap:round; stroke-linejoin:round; stroke-width:2; stroke-opacity:0.1; fill:none" points="272.872,1373.84 3152.76,1373.84 "/>
<polyline clip-path="url(#clip513)" style="stroke:#000000; stroke-linecap:round; stroke-linejoin:round; stroke-width:2; stroke-opacity:0.1; fill:none" points="272.872,1235.9 3152.76,1235.9 "/>
<polyline clip-path="url(#clip513)" style="stroke:#000000; stroke-linecap:round; stroke-linejoin:round; stroke-width:2; stroke-opacity:0.1; fill:none" points="272.872,1097.97 3152.76,1097.97 "/>
<polyline clip-path="url(#clip510)" style="stroke:#000000; stroke-linecap:round; stroke-linejoin:round; stroke-width:4; stroke-opacity:1; fill:none" points="272.872,1623.64 3152.76,1623.64 "/>
<polyline clip-path="url(#clip510)" style="stroke:#000000; stroke-linecap:round; stroke-linejoin:round; stroke-width:4; stroke-opacity:1; fill:none" points="354.378,1623.64 354.378,1604.74 "/>
<polyline clip-path="url(#clip510)" style="stroke:#000000; stroke-linecap:round; stroke-linejoin:round; stroke-width:4; stroke-opacity:1; fill:none" points="1033.6,1623.64 1033.6,1604.74 "/>
<polyline clip-path="url(#clip510)" style="stroke:#000000; stroke-linecap:round; stroke-linejoin:round; stroke-width:4; stroke-opacity:1; fill:none" points="1712.81,1623.64 1712.81,1604.74 "/>
<polyline clip-path="url(#clip510)" style="stroke:#000000; stroke-linecap:round; stroke-linejoin:round; stroke-width:4; stroke-opacity:1; fill:none" points="2392.03,1623.64 2392.03,1604.74 "/>
<polyline clip-path="url(#clip510)" style="stroke:#000000; stroke-linecap:round; stroke-linejoin:round; stroke-width:4; stroke-opacity:1; fill:none" points="3071.25,1623.64 3071.25,1604.74 "/>
<path clip-path="url(#clip510)" d="M304.643 1704.17 L312.282 1704.17 L312.282 1677.8 L303.972 1679.47 L303.972 1675.21 L312.236 1673.54 L316.912 1673.54 L316.912 1704.17 L324.551 1704.17 L324.551 1708.1 L304.643 1708.1 L304.643 1704.17 Z" fill="#000000" fill-rule="nonzero" fill-opacity="1" /><path clip-path="url(#clip510)" d="M343.995 1676.62 Q340.384 1676.62 338.555 1680.18 Q336.75 1683.73 336.75 1690.86 Q336.75 1697.96 338.555 1701.53 Q340.384 1705.07 343.995 1705.07 Q347.629 1705.07 349.435 1701.53 Q351.264 1697.96 351.264 1690.86 Q351.264 1683.73 349.435 1680.18 Q347.629 1676.62 343.995 1676.62 M343.995 1672.92 Q349.805 1672.92 352.861 1677.52 Q355.939 1682.11 355.939 1690.86 Q355.939 1699.58 352.861 1704.19 Q349.805 1708.77 343.995 1708.77 Q338.185 1708.77 335.106 1704.19 Q332.051 1699.58 332.051 1690.86 Q332.051 1682.11 335.106 1677.52 Q338.185 1672.92 343.995 1672.92 Z" fill="#000000" fill-rule="nonzero" fill-opacity="1" /><path clip-path="url(#clip510)" d="M355.939 1667.02 L380.051 1667.02 L380.051 1670.21 L355.939 1670.21 L355.939 1667.02 Z" fill="#000000" fill-rule="nonzero" fill-opacity="1" /><path clip-path="url(#clip510)" d="M391.524 1677.49 L404.783 1677.49 L404.783 1680.69 L386.953 1680.69 L386.953 1677.49 Q389.116 1675.26 392.84 1671.49 Q396.583 1667.71 397.542 1666.62 Q399.367 1664.57 400.081 1663.16 Q400.815 1661.73 400.815 1660.36 Q400.815 1658.12 399.235 1656.71 Q397.674 1655.3 395.154 1655.3 Q393.367 1655.3 391.373 1655.92 Q389.398 1656.54 387.142 1657.8 L387.142 1653.96 Q389.436 1653.04 391.43 1652.57 Q393.423 1652.1 395.078 1652.1 Q399.442 1652.1 402.037 1654.28 Q404.633 1656.47 404.633 1660.11 Q404.633 1661.85 403.975 1663.41 Q403.335 1664.95 401.624 1667.05 Q401.153 1667.6 398.633 1670.21 Q396.113 1672.81 391.524 1677.49 Z" fill="#000000" fill-rule="nonzero" fill-opacity="1" /><path clip-path="url(#clip510)" d="M983.711 1704.17 L991.35 1704.17 L991.35 1677.8 L983.04 1679.47 L983.04 1675.21 L991.304 1673.54 L995.979 1673.54 L995.979 1704.17 L1003.62 1704.17 L1003.62 1708.1 L983.711 1708.1 L983.711 1704.17 Z" fill="#000000" fill-rule="nonzero" fill-opacity="1" /><path clip-path="url(#clip510)" d="M1023.06 1676.62 Q1019.45 1676.62 1017.62 1680.18 Q1015.82 1683.73 1015.82 1690.86 Q1015.82 1697.96 1017.62 1701.53 Q1019.45 1705.07 1023.06 1705.07 Q1026.7 1705.07 1028.5 1701.53 Q1030.33 1697.96 1030.33 1690.86 Q1030.33 1683.73 1028.5 1680.18 Q1026.7 1676.62 1023.06 1676.62 M1023.06 1672.92 Q1028.87 1672.92 1031.93 1677.52 Q1035.01 1682.11 1035.01 1690.86 Q1035.01 1699.58 1031.93 1704.19 Q1028.87 1708.77 1023.06 1708.77 Q1017.25 1708.77 1014.17 1704.19 Q1011.12 1699.58 1011.12 1690.86 Q1011.12 1682.11 1014.17 1677.52 Q1017.25 1672.92 1023.06 1672.92 Z" fill="#000000" fill-rule="nonzero" fill-opacity="1" /><path clip-path="url(#clip510)" d="M1035.01 1667.02 L1059.12 1667.02 L1059.12 1670.21 L1035.01 1670.21 L1035.01 1667.02 Z" fill="#000000" fill-rule="nonzero" fill-opacity="1" /><path clip-path="url(#clip510)" d="M1067.98 1677.49 L1074.18 1677.49 L1074.18 1656.07 L1067.43 1657.43 L1067.43 1653.96 L1074.15 1652.61 L1077.95 1652.61 L1077.95 1677.49 L1084.15 1677.49 L1084.15 1680.69 L1067.98 1680.69 L1067.98 1677.49 Z" fill="#000000" fill-rule="nonzero" fill-opacity="1" /><path clip-path="url(#clip510)" d="M1677.8 1704.17 L1685.44 1704.17 L1685.44 1677.8 L1677.13 1679.47 L1677.13 1675.21 L1685.39 1673.54 L1690.07 1673.54 L1690.07 1704.17 L1697.7 1704.17 L1697.7 1708.1 L1677.8 1708.1 L1677.8 1704.17 Z" fill="#000000" fill-rule="nonzero" fill-opacity="1" /><path clip-path="url(#clip510)" d="M1717.15 1676.62 Q1713.54 1676.62 1711.71 1680.18 Q1709.9 1683.73 1709.9 1690.86 Q1709.9 1697.96 1711.71 1701.53 Q1713.54 1705.07 1717.15 1705.07 Q1720.78 1705.07 1722.59 1701.53 Q1724.42 1697.96 1724.42 1690.86 Q1724.42 1683.73 1722.59 1680.18 Q1720.78 1676.62 1717.15 1676.62 M1717.15 1672.92 Q1722.96 1672.92 1726.01 1677.52 Q1729.09 1682.11 1729.09 1690.86 Q1729.09 1699.58 1726.01 1704.19 Q1722.96 1708.77 1717.15 1708.77 Q1711.34 1708.77 1708.26 1704.19 Q1705.2 1699.58 1705.2 1690.86 Q1705.2 1682.11 1708.26 1677.52 Q1711.34 1672.92 1717.15 1672.92 Z" fill="#000000" fill-rule="nonzero" fill-opacity="1" /><path clip-path="url(#clip510)" d="M1738.8 1655.11 Q1735.86 1655.11 1734.38 1658.01 Q1732.91 1660.89 1732.91 1666.68 Q1732.91 1672.45 1734.38 1675.35 Q1735.86 1678.23 1738.8 1678.23 Q1741.75 1678.23 1743.22 1675.35 Q1744.7 1672.45 1744.7 1666.68 Q1744.7 1660.89 1743.22 1658.01 Q1741.75 1655.11 1738.8 1655.11 M1738.8 1652.1 Q1743.52 1652.1 1746 1655.85 Q1748.5 1659.57 1748.5 1666.68 Q1748.5 1673.77 1746 1677.51 Q1743.52 1681.24 1738.8 1681.24 Q1734.08 1681.24 1731.58 1677.51 Q1729.09 1673.77 1729.09 1666.68 Q1729.09 1659.57 1731.58 1655.85 Q1734.08 1652.1 1738.8 1652.1 Z" fill="#000000" fill-rule="nonzero" fill-opacity="1" /><path clip-path="url(#clip510)" d="M2358.36 1704.17 L2366 1704.17 L2366 1677.8 L2357.69 1679.47 L2357.69 1675.21 L2365.95 1673.54 L2370.63 1673.54 L2370.63 1704.17 L2378.27 1704.17 L2378.27 1708.1 L2358.36 1708.1 L2358.36 1704.17 Z" fill="#000000" fill-rule="nonzero" fill-opacity="1" /><path clip-path="url(#clip510)" d="M2397.71 1676.62 Q2394.1 1676.62 2392.27 1680.18 Q2390.47 1683.73 2390.47 1690.86 Q2390.47 1697.96 2392.27 1701.53 Q2394.1 1705.07 2397.71 1705.07 Q2401.35 1705.07 2403.15 1701.53 Q2404.98 1697.96 2404.98 1690.86 Q2404.98 1683.73 2403.15 1680.18 Q2401.35 1676.62 2397.71 1676.62 M2397.71 1672.92 Q2403.52 1672.92 2406.58 1677.52 Q2409.66 1682.11 2409.66 1690.86 Q2409.66 1699.58 2406.58 1704.19 Q2403.52 1708.77 2397.71 1708.77 Q2391.9 1708.77 2388.82 1704.19 Q2385.77 1699.58 2385.77 1690.86 Q2385.77 1682.11 2388.82 1677.52 Q2391.9 1672.92 2397.71 1672.92 Z" fill="#000000" fill-rule="nonzero" fill-opacity="1" /><path clip-path="url(#clip510)" d="M2410.2 1677.49 L2416.41 1677.49 L2416.41 1656.07 L2409.66 1657.43 L2409.66 1653.96 L2416.37 1652.61 L2420.17 1652.61 L2420.17 1677.49 L2426.38 1677.49 L2426.38 1680.69 L2410.2 1680.69 L2410.2 1677.49 Z" fill="#000000" fill-rule="nonzero" fill-opacity="1" /><path clip-path="url(#clip510)" d="M3037.02 1704.17 L3044.66 1704.17 L3044.66 1677.8 L3036.35 1679.47 L3036.35 1675.21 L3044.62 1673.54 L3049.29 1673.54 L3049.29 1704.17 L3056.93 1704.17 L3056.93 1708.1 L3037.02 1708.1 L3037.02 1704.17 Z" fill="#000000" fill-rule="nonzero" fill-opacity="1" /><path clip-path="url(#clip510)" d="M3076.37 1676.62 Q3072.76 1676.62 3070.93 1680.18 Q3069.13 1683.73 3069.13 1690.86 Q3069.13 1697.96 3070.93 1701.53 Q3072.76 1705.07 3076.37 1705.07 Q3080.01 1705.07 3081.81 1701.53 Q3083.64 1697.96 3083.64 1690.86 Q3083.64 1683.73 3081.81 1680.18 Q3080.01 1676.62 3076.37 1676.62 M3076.37 1672.92 Q3082.18 1672.92 3085.24 1677.52 Q3088.32 1682.11 3088.32 1690.86 Q3088.32 1699.58 3085.24 1704.19 Q3082.18 1708.77 3076.37 1708.77 Q3070.56 1708.77 3067.49 1704.19 Q3064.43 1699.58 3064.43 1690.86 Q3064.43 1682.11 3067.49 1677.52 Q3070.56 1672.92 3076.37 1672.92 Z" fill="#000000" fill-rule="nonzero" fill-opacity="1" /><path clip-path="url(#clip510)" d="M3092.89 1677.49 L3106.15 1677.49 L3106.15 1680.69 L3088.32 1680.69 L3088.32 1677.49 Q3090.48 1675.26 3094.21 1671.49 Q3097.95 1667.71 3098.91 1666.62 Q3100.73 1664.57 3101.45 1663.16 Q3102.18 1661.73 3102.18 1660.36 Q3102.18 1658.12 3100.6 1656.71 Q3099.04 1655.3 3096.52 1655.3 Q3094.73 1655.3 3092.74 1655.92 Q3090.76 1656.54 3088.51 1657.8 L3088.51 1653.96 Q3090.8 1653.04 3092.79 1652.57 Q3094.79 1652.1 3096.44 1652.1 Q3100.81 1652.1 3103.4 1654.28 Q3106 1656.47 3106 1660.11 Q3106 1661.85 3105.34 1663.41 Q3104.7 1664.95 3102.99 1667.05 Q3102.52 1667.6 3100 1670.21 Q3097.48 1672.81 3092.89 1677.49 Z" fill="#000000" fill-rule="nonzero" fill-opacity="1" /><path clip-path="url(#clip510)" d="M1432.63 1751.41 L1459.94 1751.41 L1459.94 1756.82 L1439.06 1756.82 L1439.06 1770.83 L1457.9 1770.83 L1457.9 1776.24 L1439.06 1776.24 L1439.06 1798.93 L1432.63 1798.93 L1432.63 1751.41 Z" fill="#000000" fill-rule="nonzero" fill-opacity="1" /><path clip-path="url(#clip510)" d="M1485.78 1768.76 Q1484.79 1768.18 1483.62 1767.93 Q1482.47 1767.64 1481.07 1767.64 Q1476.1 1767.64 1473.43 1770.89 Q1470.79 1774.1 1470.79 1780.15 L1470.79 1798.93 L1464.9 1798.93 L1464.9 1763.28 L1470.79 1763.28 L1470.79 1768.82 Q1472.64 1765.57 1475.6 1764.01 Q1478.56 1762.42 1482.79 1762.42 Q1483.39 1762.42 1484.13 1762.52 Q1484.86 1762.58 1485.75 1762.74 L1485.78 1768.76 Z" fill="#000000" fill-rule="nonzero" fill-opacity="1" /><path clip-path="url(#clip510)" d="M1520.98 1779.64 L1520.98 1782.51 L1494.06 1782.51 Q1494.44 1788.55 1497.68 1791.74 Q1500.96 1794.89 1506.79 1794.89 Q1510.16 1794.89 1513.31 1794.06 Q1516.5 1793.23 1519.61 1791.58 L1519.61 1797.12 Q1516.46 1798.45 1513.15 1799.15 Q1509.84 1799.85 1506.44 1799.85 Q1497.91 1799.85 1492.91 1794.89 Q1487.95 1789.92 1487.95 1781.46 Q1487.95 1772.7 1492.66 1767.58 Q1497.4 1762.42 1505.42 1762.42 Q1512.61 1762.42 1516.78 1767.07 Q1520.98 1771.68 1520.98 1779.64 M1515.13 1777.92 Q1515.06 1773.12 1512.42 1770.25 Q1509.81 1767.39 1505.48 1767.39 Q1500.58 1767.39 1497.62 1770.16 Q1494.69 1772.93 1494.25 1777.95 L1515.13 1777.92 Z" fill="#000000" fill-rule="nonzero" fill-opacity="1" /><path clip-path="url(#clip510)" d="M1534.1 1781.14 Q1534.1 1787.6 1536.74 1791.29 Q1539.41 1794.95 1544.06 1794.95 Q1548.71 1794.95 1551.38 1791.29 Q1554.05 1787.6 1554.05 1781.14 Q1554.05 1774.68 1551.38 1771.02 Q1548.71 1767.32 1544.06 1767.32 Q1539.41 1767.32 1536.74 1771.02 Q1534.1 1774.68 1534.1 1781.14 M1554.05 1793.58 Q1552.21 1796.77 1549.37 1798.32 Q1546.57 1799.85 1542.63 1799.85 Q1536.17 1799.85 1532.09 1794.7 Q1528.05 1789.54 1528.05 1781.14 Q1528.05 1772.73 1532.09 1767.58 Q1536.17 1762.42 1542.63 1762.42 Q1546.57 1762.42 1549.37 1763.98 Q1552.21 1765.51 1554.05 1768.69 L1554.05 1763.28 L1559.91 1763.28 L1559.91 1812.49 L1554.05 1812.49 L1554.05 1793.58 Z" fill="#000000" fill-rule="nonzero" fill-opacity="1" /><path clip-path="url(#clip510)" d="M1571.37 1784.86 L1571.37 1763.28 L1577.22 1763.28 L1577.22 1784.64 Q1577.22 1789.7 1579.2 1792.25 Q1581.17 1794.76 1585.12 1794.76 Q1589.86 1794.76 1592.6 1791.74 Q1595.37 1788.71 1595.37 1783.49 L1595.37 1763.28 L1601.22 1763.28 L1601.22 1798.93 L1595.37 1798.93 L1595.37 1793.46 Q1593.23 1796.7 1590.4 1798.29 Q1587.6 1799.85 1583.88 1799.85 Q1577.73 1799.85 1574.55 1796.03 Q1571.37 1792.21 1571.37 1784.86 M1586.1 1762.42 L1586.1 1762.42 Z" fill="#000000" fill-rule="nonzero" fill-opacity="1" /><path clip-path="url(#clip510)" d="M1643.78 1779.64 L1643.78 1782.51 L1616.85 1782.51 Q1617.23 1788.55 1620.48 1791.74 Q1623.76 1794.89 1629.58 1794.89 Q1632.96 1794.89 1636.11 1794.06 Q1639.29 1793.23 1642.41 1791.58 L1642.41 1797.12 Q1639.26 1798.45 1635.95 1799.15 Q1632.64 1799.85 1629.23 1799.85 Q1620.7 1799.85 1615.7 1794.89 Q1610.74 1789.92 1610.74 1781.46 Q1610.74 1772.7 1615.45 1767.58 Q1620.19 1762.42 1628.21 1762.42 Q1635.41 1762.42 1639.58 1767.07 Q1643.78 1771.68 1643.78 1779.64 M1637.92 1777.92 Q1637.86 1773.12 1635.22 1770.25 Q1632.61 1767.39 1628.28 1767.39 Q1623.38 1767.39 1620.42 1770.16 Q1617.49 1772.93 1617.04 1777.95 L1637.92 1777.92 Z" fill="#000000" fill-rule="nonzero" fill-opacity="1" /><path clip-path="url(#clip510)" d="M1683.02 1777.41 L1683.02 1798.93 L1677.17 1798.93 L1677.17 1777.6 Q1677.17 1772.54 1675.19 1770.03 Q1673.22 1767.51 1669.27 1767.51 Q1664.53 1767.51 1661.79 1770.54 Q1659.06 1773.56 1659.06 1778.78 L1659.06 1798.93 L1653.17 1798.93 L1653.17 1763.28 L1659.06 1763.28 L1659.06 1768.82 Q1661.16 1765.61 1663.99 1764.01 Q1666.85 1762.42 1670.58 1762.42 Q1676.72 1762.42 1679.87 1766.24 Q1683.02 1770.03 1683.02 1777.41 Z" fill="#000000" fill-rule="nonzero" fill-opacity="1" /><path clip-path="url(#clip510)" d="M1720.36 1764.65 L1720.36 1770.12 Q1717.87 1768.76 1715.36 1768.09 Q1712.88 1767.39 1710.33 1767.39 Q1704.63 1767.39 1701.48 1771.02 Q1698.33 1774.61 1698.33 1781.14 Q1698.33 1787.66 1701.48 1791.29 Q1704.63 1794.89 1710.33 1794.89 Q1712.88 1794.89 1715.36 1794.22 Q1717.87 1793.52 1720.36 1792.15 L1720.36 1797.56 Q1717.91 1798.71 1715.26 1799.28 Q1712.65 1799.85 1709.69 1799.85 Q1701.64 1799.85 1696.9 1794.79 Q1692.16 1789.73 1692.16 1781.14 Q1692.16 1772.42 1696.93 1767.42 Q1701.74 1762.42 1710.08 1762.42 Q1712.78 1762.42 1715.36 1763 Q1717.94 1763.54 1720.36 1764.65 Z" fill="#000000" fill-rule="nonzero" fill-opacity="1" /><path clip-path="url(#clip510)" d="M1745.37 1802.24 Q1742.89 1808.61 1740.54 1810.55 Q1738.18 1812.49 1734.23 1812.49 L1729.56 1812.49 L1729.56 1807.59 L1732.99 1807.59 Q1735.41 1807.59 1736.75 1806.44 Q1738.09 1805.3 1739.71 1801.03 L1740.76 1798.36 L1726.34 1763.28 L1732.55 1763.28 L1743.69 1791.16 L1754.83 1763.28 L1761.03 1763.28 L1745.37 1802.24 Z" fill="#000000" fill-rule="nonzero" fill-opacity="1" /><path clip-path="url(#clip510)" d="M1803.91 1749.47 Q1799.64 1756.79 1797.57 1763.95 Q1795.5 1771.11 1795.5 1778.46 Q1795.5 1785.82 1797.57 1793.04 Q1799.67 1800.23 1803.91 1807.52 L1798.81 1807.52 Q1794.04 1800.04 1791.65 1792.82 Q1789.3 1785.59 1789.3 1778.46 Q1789.3 1771.37 1791.65 1764.17 Q1794.01 1756.98 1798.81 1749.47 L1803.91 1749.47 Z" fill="#000000" fill-rule="nonzero" fill-opacity="1" /><path clip-path="url(#clip510)" d="M1835.93 1768.76 Q1834.94 1768.18 1833.76 1767.93 Q1832.62 1767.64 1831.22 1767.64 Q1826.25 1767.64 1823.58 1770.89 Q1820.94 1774.1 1820.94 1780.15 L1820.94 1798.93 L1815.05 1798.93 L1815.05 1763.28 L1820.94 1763.28 L1820.94 1768.82 Q1822.78 1765.57 1825.74 1764.01 Q1828.7 1762.42 1832.93 1762.42 Q1833.54 1762.42 1834.27 1762.52 Q1835 1762.58 1835.89 1762.74 L1835.93 1768.76 Z" fill="#000000" fill-rule="nonzero" fill-opacity="1" /><path clip-path="url(#clip510)" d="M1858.27 1781.01 Q1851.17 1781.01 1848.44 1782.63 Q1845.7 1784.26 1845.7 1788.17 Q1845.7 1791.29 1847.73 1793.14 Q1849.8 1794.95 1853.34 1794.95 Q1858.21 1794.95 1861.13 1791.51 Q1864.09 1788.04 1864.09 1782.32 L1864.09 1781.01 L1858.27 1781.01 M1869.95 1778.59 L1869.95 1798.93 L1864.09 1798.93 L1864.09 1793.52 Q1862.09 1796.77 1859.1 1798.32 Q1856.11 1799.85 1851.78 1799.85 Q1846.3 1799.85 1843.06 1796.8 Q1839.84 1793.71 1839.84 1788.55 Q1839.84 1782.54 1843.85 1779.48 Q1847.89 1776.43 1855.88 1776.43 L1864.09 1776.43 L1864.09 1775.85 Q1864.09 1771.81 1861.42 1769.62 Q1858.78 1767.39 1853.97 1767.39 Q1850.92 1767.39 1848.02 1768.12 Q1845.12 1768.85 1842.45 1770.32 L1842.45 1764.9 Q1845.67 1763.66 1848.69 1763.06 Q1851.71 1762.42 1854.58 1762.42 Q1862.31 1762.42 1866.13 1766.43 Q1869.95 1770.44 1869.95 1778.59 Z" fill="#000000" fill-rule="nonzero" fill-opacity="1" /><path clip-path="url(#clip510)" d="M1905.47 1768.69 L1905.47 1749.4 L1911.33 1749.4 L1911.33 1798.93 L1905.47 1798.93 L1905.47 1793.58 Q1903.63 1796.77 1900.79 1798.32 Q1897.99 1799.85 1894.05 1799.85 Q1887.58 1799.85 1883.51 1794.7 Q1879.47 1789.54 1879.47 1781.14 Q1879.47 1772.73 1883.51 1767.58 Q1887.58 1762.42 1894.05 1762.42 Q1897.99 1762.42 1900.79 1763.98 Q1903.63 1765.51 1905.47 1768.69 M1885.52 1781.14 Q1885.52 1787.6 1888.16 1791.29 Q1890.83 1794.95 1895.48 1794.95 Q1900.12 1794.95 1902.8 1791.29 Q1905.47 1787.6 1905.47 1781.14 Q1905.47 1774.68 1902.8 1771.02 Q1900.12 1767.32 1895.48 1767.32 Q1890.83 1767.32 1888.16 1771.02 Q1885.52 1774.68 1885.52 1781.14 Z" fill="#000000" fill-rule="nonzero" fill-opacity="1" /><path clip-path="url(#clip510)" d="M1933.8 1751.41 L1939.21 1751.41 L1922.66 1804.98 L1917.25 1804.98 L1933.8 1751.41 Z" fill="#000000" fill-rule="nonzero" fill-opacity="1" /><path clip-path="url(#clip510)" d="M1968.08 1764.33 L1968.08 1769.87 Q1965.6 1768.6 1962.92 1767.96 Q1960.25 1767.32 1957.38 1767.32 Q1953.02 1767.32 1950.83 1768.66 Q1948.66 1770 1948.66 1772.67 Q1948.66 1774.71 1950.22 1775.89 Q1951.78 1777.03 1956.49 1778.08 L1958.5 1778.53 Q1964.74 1779.86 1967.35 1782.32 Q1969.99 1784.73 1969.99 1789.09 Q1969.99 1794.06 1966.04 1796.96 Q1962.13 1799.85 1955.25 1799.85 Q1952.39 1799.85 1949.27 1799.28 Q1946.18 1798.74 1942.74 1797.62 L1942.74 1791.58 Q1945.99 1793.26 1949.14 1794.12 Q1952.29 1794.95 1955.38 1794.95 Q1959.52 1794.95 1961.74 1793.55 Q1963.97 1792.12 1963.97 1789.54 Q1963.97 1787.15 1962.35 1785.88 Q1960.76 1784.61 1955.32 1783.43 L1953.28 1782.95 Q1947.84 1781.81 1945.42 1779.45 Q1943 1777.06 1943 1772.93 Q1943 1767.9 1946.56 1765.16 Q1950.13 1762.42 1956.68 1762.42 Q1959.93 1762.42 1962.8 1762.9 Q1965.66 1763.38 1968.08 1764.33 Z" fill="#000000" fill-rule="nonzero" fill-opacity="1" /><path clip-path="url(#clip510)" d="M1978.39 1749.47 L1983.48 1749.47 Q1988.26 1756.98 1990.61 1764.17 Q1993 1771.37 1993 1778.46 Q1993 1785.59 1990.61 1792.82 Q1988.26 1800.04 1983.48 1807.52 L1978.39 1807.52 Q1982.62 1800.23 1984.69 1793.04 Q1986.79 1785.82 1986.79 1778.46 Q1986.79 1771.11 1984.69 1763.95 Q1982.62 1756.79 1978.39 1749.47 Z" fill="#000000" fill-rule="nonzero" fill-opacity="1" /><polyline clip-path="url(#clip510)" style="stroke:#000000; stroke-linecap:round; stroke-linejoin:round; stroke-width:4; stroke-opacity:1; fill:none" points="272.872,1623.64 272.872,986.101 "/>
<polyline clip-path="url(#clip510)" style="stroke:#000000; stroke-linecap:round; stroke-linejoin:round; stroke-width:4; stroke-opacity:1; fill:none" points="272.872,1511.77 291.769,1511.77 "/>
<polyline clip-path="url(#clip510)" style="stroke:#000000; stroke-linecap:round; stroke-linejoin:round; stroke-width:4; stroke-opacity:1; fill:none" points="272.872,1373.84 291.769,1373.84 "/>
<polyline clip-path="url(#clip510)" style="stroke:#000000; stroke-linecap:round; stroke-linejoin:round; stroke-width:4; stroke-opacity:1; fill:none" points="272.872,1235.9 291.769,1235.9 "/>
<polyline clip-path="url(#clip510)" style="stroke:#000000; stroke-linecap:round; stroke-linejoin:round; stroke-width:4; stroke-opacity:1; fill:none" points="272.872,1097.97 291.769,1097.97 "/>
<path clip-path="url(#clip510)" d="M102.835 1512.22 L132.511 1512.22 L132.511 1516.16 L102.835 1516.16 L102.835 1512.22 Z" fill="#000000" fill-rule="nonzero" fill-opacity="1" /><path clip-path="url(#clip510)" d="M143.414 1525.12 L151.052 1525.12 L151.052 1498.75 L142.742 1500.42 L142.742 1496.16 L151.006 1494.49 L155.682 1494.49 L155.682 1525.12 L163.321 1525.12 L163.321 1529.05 L143.414 1529.05 L143.414 1525.12 Z" fill="#000000" fill-rule="nonzero" fill-opacity="1" /><path clip-path="url(#clip510)" d="M182.765 1512.64 Q179.432 1512.64 177.511 1514.42 Q175.613 1516.2 175.613 1519.33 Q175.613 1522.45 177.511 1524.24 Q179.432 1526.02 182.765 1526.02 Q186.099 1526.02 188.02 1524.24 Q189.941 1522.43 189.941 1519.33 Q189.941 1516.2 188.02 1514.42 Q186.122 1512.64 182.765 1512.64 M178.089 1510.65 Q175.08 1509.91 173.39 1507.85 Q171.724 1505.79 171.724 1502.82 Q171.724 1498.68 174.663 1496.27 Q177.626 1493.87 182.765 1493.87 Q187.927 1493.87 190.867 1496.27 Q193.807 1498.68 193.807 1502.82 Q193.807 1505.79 192.117 1507.85 Q190.45 1509.91 187.464 1510.65 Q190.844 1511.43 192.719 1513.73 Q194.617 1516.02 194.617 1519.33 Q194.617 1524.35 191.538 1527.04 Q188.483 1529.72 182.765 1529.72 Q177.048 1529.72 173.969 1527.04 Q170.913 1524.35 170.913 1519.33 Q170.913 1516.02 172.812 1513.73 Q174.71 1511.43 178.089 1510.65 M176.376 1503.26 Q176.376 1505.95 178.043 1507.45 Q179.733 1508.96 182.765 1508.96 Q185.775 1508.96 187.464 1507.45 Q189.177 1505.95 189.177 1503.26 Q189.177 1500.58 187.464 1499.07 Q185.775 1497.57 182.765 1497.57 Q179.733 1497.57 178.043 1499.07 Q176.376 1500.58 176.376 1503.26 Z" fill="#000000" fill-rule="nonzero" fill-opacity="1" /><path clip-path="url(#clip510)" d="M212.927 1497.57 Q209.316 1497.57 207.487 1501.13 Q205.682 1504.68 205.682 1511.81 Q205.682 1518.91 207.487 1522.48 Q209.316 1526.02 212.927 1526.02 Q216.561 1526.02 218.367 1522.48 Q220.196 1518.91 220.196 1511.81 Q220.196 1504.68 218.367 1501.13 Q216.561 1497.57 212.927 1497.57 M212.927 1493.87 Q218.737 1493.87 221.793 1498.47 Q224.872 1503.06 224.872 1511.81 Q224.872 1520.53 221.793 1525.14 Q218.737 1529.72 212.927 1529.72 Q207.117 1529.72 204.038 1525.14 Q200.983 1520.53 200.983 1511.81 Q200.983 1503.06 204.038 1498.47 Q207.117 1493.87 212.927 1493.87 Z" fill="#000000" fill-rule="nonzero" fill-opacity="1" /><path clip-path="url(#clip510)" d="M102.835 1374.29 L132.511 1374.29 L132.511 1378.22 L102.835 1378.22 L102.835 1374.29 Z" fill="#000000" fill-rule="nonzero" fill-opacity="1" /><path clip-path="url(#clip510)" d="M143.414 1387.18 L151.052 1387.18 L151.052 1360.82 L142.742 1362.48 L142.742 1358.22 L151.006 1356.56 L155.682 1356.56 L155.682 1387.18 L163.321 1387.18 L163.321 1391.12 L143.414 1391.12 L143.414 1387.18 Z" fill="#000000" fill-rule="nonzero" fill-opacity="1" /><path clip-path="url(#clip510)" d="M172.812 1356.56 L191.168 1356.56 L191.168 1360.49 L177.094 1360.49 L177.094 1368.96 Q178.113 1368.62 179.131 1368.46 Q180.15 1368.27 181.168 1368.27 Q186.955 1368.27 190.335 1371.44 Q193.714 1374.61 193.714 1380.03 Q193.714 1385.61 190.242 1388.71 Q186.77 1391.79 180.45 1391.79 Q178.275 1391.79 176.006 1391.42 Q173.761 1391.05 171.353 1390.31 L171.353 1385.61 Q173.437 1386.74 175.659 1387.3 Q177.881 1387.85 180.358 1387.85 Q184.362 1387.85 186.7 1385.75 Q189.038 1383.64 189.038 1380.03 Q189.038 1376.42 186.7 1374.31 Q184.362 1372.21 180.358 1372.21 Q178.483 1372.21 176.608 1372.62 Q174.756 1373.04 172.812 1373.92 L172.812 1356.56 Z" fill="#000000" fill-rule="nonzero" fill-opacity="1" /><path clip-path="url(#clip510)" d="M212.927 1359.64 Q209.316 1359.64 207.487 1363.2 Q205.682 1366.74 205.682 1373.87 Q205.682 1380.98 207.487 1384.54 Q209.316 1388.08 212.927 1388.08 Q216.561 1388.08 218.367 1384.54 Q220.196 1380.98 220.196 1373.87 Q220.196 1366.74 218.367 1363.2 Q216.561 1359.64 212.927 1359.64 M212.927 1355.93 Q218.737 1355.93 221.793 1360.54 Q224.872 1365.12 224.872 1373.87 Q224.872 1382.6 221.793 1387.21 Q218.737 1391.79 212.927 1391.79 Q207.117 1391.79 204.038 1387.21 Q200.983 1382.6 200.983 1373.87 Q200.983 1365.12 204.038 1360.54 Q207.117 1355.93 212.927 1355.93 Z" fill="#000000" fill-rule="nonzero" fill-opacity="1" /><path clip-path="url(#clip510)" d="M102.835 1236.36 L132.511 1236.36 L132.511 1240.29 L102.835 1240.29 L102.835 1236.36 Z" fill="#000000" fill-rule="nonzero" fill-opacity="1" /><path clip-path="url(#clip510)" d="M143.414 1249.25 L151.052 1249.25 L151.052 1222.88 L142.742 1224.55 L142.742 1220.29 L151.006 1218.62 L155.682 1218.62 L155.682 1249.25 L163.321 1249.25 L163.321 1253.18 L143.414 1253.18 L143.414 1249.25 Z" fill="#000000" fill-rule="nonzero" fill-opacity="1" /><path clip-path="url(#clip510)" d="M176.793 1249.25 L193.112 1249.25 L193.112 1253.18 L171.168 1253.18 L171.168 1249.25 Q173.83 1246.49 178.413 1241.86 Q183.02 1237.21 184.2 1235.87 Q186.446 1233.35 187.325 1231.61 Q188.228 1229.85 188.228 1228.16 Q188.228 1225.41 186.284 1223.67 Q184.362 1221.93 181.261 1221.93 Q179.062 1221.93 176.608 1222.7 Q174.177 1223.46 171.4 1225.01 L171.4 1220.29 Q174.224 1219.16 176.677 1218.58 Q179.131 1218 181.168 1218 Q186.538 1218 189.733 1220.68 Q192.927 1223.37 192.927 1227.86 Q192.927 1229.99 192.117 1231.91 Q191.33 1233.81 189.224 1236.4 Q188.645 1237.07 185.543 1240.29 Q182.441 1243.49 176.793 1249.25 Z" fill="#000000" fill-rule="nonzero" fill-opacity="1" /><path clip-path="url(#clip510)" d="M212.927 1221.7 Q209.316 1221.7 207.487 1225.27 Q205.682 1228.81 205.682 1235.94 Q205.682 1243.05 207.487 1246.61 Q209.316 1250.15 212.927 1250.15 Q216.561 1250.15 218.367 1246.61 Q220.196 1243.05 220.196 1235.94 Q220.196 1228.81 218.367 1225.27 Q216.561 1221.7 212.927 1221.7 M212.927 1218 Q218.737 1218 221.793 1222.61 Q224.872 1227.19 224.872 1235.94 Q224.872 1244.67 221.793 1249.27 Q218.737 1253.86 212.927 1253.86 Q207.117 1253.86 204.038 1249.27 Q200.983 1244.67 200.983 1235.94 Q200.983 1227.19 204.038 1222.61 Q207.117 1218 212.927 1218 Z" fill="#000000" fill-rule="nonzero" fill-opacity="1" /><path clip-path="url(#clip510)" d="M132.997 1098.42 L162.673 1098.42 L162.673 1102.36 L132.997 1102.36 L132.997 1098.42 Z" fill="#000000" fill-rule="nonzero" fill-opacity="1" /><path clip-path="url(#clip510)" d="M172.904 1114.53 L172.904 1110.27 Q174.663 1111.11 176.469 1111.55 Q178.275 1111.99 180.011 1111.99 Q184.64 1111.99 187.071 1108.89 Q189.525 1105.76 189.872 1099.42 Q188.529 1101.41 186.469 1102.47 Q184.409 1103.54 181.909 1103.54 Q176.724 1103.54 173.691 1100.41 Q170.682 1097.27 170.682 1091.83 Q170.682 1086.5 173.83 1083.28 Q176.978 1080.07 182.21 1080.07 Q188.205 1080.07 191.353 1084.67 Q194.524 1089.26 194.524 1098.01 Q194.524 1106.18 190.636 1111.06 Q186.77 1115.92 180.219 1115.92 Q178.46 1115.92 176.654 1115.58 Q174.849 1115.23 172.904 1114.53 M182.21 1099.88 Q185.358 1099.88 187.187 1097.73 Q189.038 1095.58 189.038 1091.83 Q189.038 1088.1 187.187 1085.95 Q185.358 1083.77 182.21 1083.77 Q179.062 1083.77 177.21 1085.95 Q175.381 1088.1 175.381 1091.83 Q175.381 1095.58 177.21 1097.73 Q179.062 1099.88 182.21 1099.88 Z" fill="#000000" fill-rule="nonzero" fill-opacity="1" /><path clip-path="url(#clip510)" d="M212.927 1083.77 Q209.316 1083.77 207.487 1087.33 Q205.682 1090.88 205.682 1098.01 Q205.682 1105.11 207.487 1108.68 Q209.316 1112.22 212.927 1112.22 Q216.561 1112.22 218.367 1108.68 Q220.196 1105.11 220.196 1098.01 Q220.196 1090.88 218.367 1087.33 Q216.561 1083.77 212.927 1083.77 M212.927 1080.07 Q218.737 1080.07 221.793 1084.67 Q224.872 1089.26 224.872 1098.01 Q224.872 1106.73 221.793 1111.34 Q218.737 1115.92 212.927 1115.92 Q207.117 1115.92 204.038 1111.34 Q200.983 1106.73 200.983 1098.01 Q200.983 1089.26 204.038 1084.67 Q207.117 1080.07 212.927 1080.07 Z" fill="#000000" fill-rule="nonzero" fill-opacity="1" /><path clip-path="url(#clip510)" d="M-1.65731 1486.98 L16.1985 1486.98 L16.1985 1478.89 Q16.1985 1474.41 13.875 1471.95 Q11.5515 1469.5 7.25468 1469.5 Q2.98966 1469.5 0.666177 1471.95 Q-1.65731 1474.41 -1.65731 1478.89 L-1.65731 1486.98 M-6.94084 1493.41 L-6.94084 1478.89 Q-6.94084 1470.9 -3.31239 1466.83 Q0.284235 1462.72 7.25468 1462.72 Q14.2888 1462.72 17.8854 1466.83 Q21.482 1470.9 21.482 1478.89 L21.482 1486.98 L40.5792 1486.98 L40.5792 1493.41 L-6.94084 1493.41 Z" fill="#000000" fill-rule="nonzero" fill-opacity="1" /><path clip-path="url(#clip510)" d="M19.0631 1424.72 L40.5792 1424.72 L40.5792 1430.58 L19.254 1430.58 Q14.1933 1430.58 11.6788 1432.55 Q9.1644 1434.52 9.1644 1438.47 Q9.1644 1443.21 12.1881 1445.95 Q15.2118 1448.69 20.4317 1448.69 L40.5792 1448.69 L40.5792 1454.58 L-8.94604 1454.58 L-8.94604 1448.69 L10.4694 1448.69 Q7.25468 1446.59 5.66326 1443.75 Q4.07183 1440.89 4.07183 1437.17 Q4.07183 1431.02 7.89125 1427.87 Q11.6788 1424.72 19.0631 1424.72 Z" fill="#000000" fill-rule="nonzero" fill-opacity="1" /><path clip-path="url(#clip510)" d="M22.6597 1396.84 Q22.6597 1403.94 24.2829 1406.67 Q25.9062 1409.41 29.8211 1409.41 Q32.9403 1409.41 34.7864 1407.37 Q36.6006 1405.31 36.6006 1401.77 Q36.6006 1396.9 33.1631 1393.97 Q29.6938 1391.01 23.9647 1391.01 L22.6597 1391.01 L22.6597 1396.84 M20.2407 1385.16 L40.5792 1385.16 L40.5792 1391.01 L35.1683 1391.01 Q38.4148 1393.02 39.9744 1396.01 Q41.5022 1399 41.5022 1403.33 Q41.5022 1408.81 38.4466 1412.05 Q35.3593 1415.27 30.2031 1415.27 Q24.1875 1415.27 21.1319 1411.26 Q18.0764 1407.22 18.0764 1399.23 L18.0764 1391.01 L17.5035 1391.01 Q13.4612 1391.01 11.2651 1393.69 Q9.03708 1396.33 9.03708 1401.14 Q9.03708 1404.19 9.76914 1407.09 Q10.5012 1409.98 11.9653 1412.66 L6.55446 1412.66 Q5.31314 1409.44 4.7084 1406.42 Q4.07183 1403.4 4.07183 1400.53 Q4.07183 1392.8 8.08223 1388.98 Q12.0926 1385.16 20.2407 1385.16 Z" fill="#000000" fill-rule="nonzero" fill-opacity="1" /><path clip-path="url(#clip510)" d="M5.98154 1350.37 L11.5197 1350.37 Q10.2466 1352.85 9.60999 1355.53 Q8.97342 1358.2 8.97342 1361.06 Q8.97342 1365.42 10.3102 1367.62 Q11.647 1369.79 14.3206 1369.79 Q16.3576 1369.79 17.5353 1368.23 Q18.6811 1366.67 19.7315 1361.96 L20.1771 1359.95 Q21.5139 1353.71 23.9647 1351.1 Q26.3836 1348.46 30.7441 1348.46 Q35.7094 1348.46 38.6058 1352.41 Q41.5022 1356.32 41.5022 1363.2 Q41.5022 1366.06 40.9293 1369.18 Q40.3882 1372.27 39.2742 1375.71 L33.2268 1375.71 Q34.9137 1372.46 35.773 1369.31 Q36.6006 1366.16 36.6006 1363.07 Q36.6006 1358.93 35.2001 1356.7 Q33.7679 1354.48 31.1897 1354.48 Q28.8026 1354.48 27.5295 1356.1 Q26.2563 1357.69 25.0787 1363.13 L24.6012 1365.17 Q23.4554 1370.61 21.1001 1373.03 Q18.713 1375.45 14.5752 1375.45 Q9.54634 1375.45 6.80908 1371.89 Q4.07183 1368.32 4.07183 1361.76 Q4.07183 1358.52 4.54926 1355.65 Q5.02669 1352.79 5.98154 1350.37 Z" fill="#000000" fill-rule="nonzero" fill-opacity="1" /><path clip-path="url(#clip510)" d="M21.2911 1308.64 L24.1556 1308.64 L24.1556 1335.57 Q30.2031 1335.19 33.3859 1331.94 Q36.5369 1328.66 36.5369 1322.84 Q36.5369 1319.46 35.7094 1316.31 Q34.8819 1313.13 33.2268 1310.01 L38.7649 1310.01 Q40.1017 1313.16 40.802 1316.47 Q41.5022 1319.78 41.5022 1323.19 Q41.5022 1331.72 36.5369 1336.72 Q31.5717 1341.68 23.1053 1341.68 Q14.3524 1341.68 9.22805 1336.97 Q4.07183 1332.23 4.07183 1324.21 Q4.07183 1317.01 8.7188 1312.84 Q13.3339 1308.64 21.2911 1308.64 M19.5723 1314.5 Q14.7662 1314.56 11.9016 1317.2 Q9.03708 1319.81 9.03708 1324.14 Q9.03708 1329.04 11.8062 1332 Q14.5752 1334.93 19.6042 1335.38 L19.5723 1314.5 Z" fill="#000000" fill-rule="nonzero" fill-opacity="1" /><path clip-path="url(#clip510)" d="M-8.88238 1264.24 Q-1.56182 1268.51 5.5996 1270.58 Q12.761 1272.64 20.1134 1272.64 Q27.4658 1272.64 34.6909 1270.58 Q41.8841 1268.47 49.1729 1264.24 L49.1729 1269.33 Q41.6932 1274.11 34.4681 1276.5 Q27.243 1278.85 20.1134 1278.85 Q13.0156 1278.85 5.8224 1276.5 Q-1.37085 1274.14 -8.88238 1269.33 L-8.88238 1264.24 Z" fill="#000000" fill-rule="nonzero" fill-opacity="1" /><path clip-path="url(#clip510)" d="M10.3421 1229.42 L-8.94604 1229.42 L-8.94604 1223.56 L40.5792 1223.56 L40.5792 1229.42 L35.232 1229.42 Q38.4148 1231.27 39.9744 1234.1 Q41.5022 1236.9 41.5022 1240.85 Q41.5022 1247.31 36.346 1251.38 Q31.1897 1255.43 22.787 1255.43 Q14.3843 1255.43 9.22805 1251.38 Q4.07183 1247.31 4.07183 1240.85 Q4.07183 1236.9 5.63143 1234.1 Q7.1592 1231.27 10.3421 1229.42 M22.787 1249.38 Q29.2482 1249.38 32.9403 1246.74 Q36.6006 1244.06 36.6006 1239.42 Q36.6006 1234.77 32.9403 1232.09 Q29.2482 1229.42 22.787 1229.42 Q16.3258 1229.42 12.6655 1232.09 Q8.97342 1234.77 8.97342 1239.42 Q8.97342 1244.06 12.6655 1246.74 Q16.3258 1249.38 22.787 1249.38 Z" fill="#000000" fill-rule="nonzero" fill-opacity="1" /><path clip-path="url(#clip510)" d="M21.2911 1181.01 L24.1556 1181.01 L24.1556 1207.94 Q30.2031 1207.56 33.3859 1204.31 Q36.5369 1201.03 36.5369 1195.21 Q36.5369 1191.83 35.7094 1188.68 Q34.8819 1185.5 33.2268 1182.38 L38.7649 1182.38 Q40.1017 1185.53 40.802 1188.84 Q41.5022 1192.15 41.5022 1195.56 Q41.5022 1204.09 36.5369 1209.08 Q31.5717 1214.05 23.1053 1214.05 Q14.3524 1214.05 9.22805 1209.34 Q4.07183 1204.59 4.07183 1196.57 Q4.07183 1189.38 8.7188 1185.21 Q13.3339 1181.01 21.2911 1181.01 M19.5723 1186.87 Q14.7662 1186.93 11.9016 1189.57 Q9.03708 1192.18 9.03708 1196.51 Q9.03708 1201.41 11.8062 1204.37 Q14.5752 1207.3 19.6042 1207.75 L19.5723 1186.87 Z" fill="#000000" fill-rule="nonzero" fill-opacity="1" /><path clip-path="url(#clip510)" d="M22.3414 1147.94 Q15.9757 1147.94 12.4746 1150.58 Q8.97342 1153.19 8.97342 1157.93 Q8.97342 1162.64 12.4746 1165.29 Q15.9757 1167.9 22.3414 1167.9 Q28.6753 1167.9 32.1764 1165.29 Q35.6776 1162.64 35.6776 1157.93 Q35.6776 1153.19 32.1764 1150.58 Q28.6753 1147.94 22.3414 1147.94 M36.155 1142.08 Q45.258 1142.08 49.6821 1146.13 Q54.1381 1150.17 54.1381 1158.51 Q54.1381 1161.59 53.6607 1164.33 Q53.2151 1167.07 52.2602 1169.65 L46.5629 1169.65 Q47.9634 1167.07 48.6318 1164.55 Q49.3002 1162.04 49.3002 1159.43 Q49.3002 1153.67 46.2765 1150.8 Q43.2846 1147.94 37.2053 1147.94 L34.3089 1147.94 Q37.46 1149.75 39.0196 1152.59 Q40.5792 1155.42 40.5792 1159.37 Q40.5792 1165.92 35.5821 1169.93 Q30.585 1173.94 22.3414 1173.94 Q14.066 1173.94 9.06891 1169.93 Q4.07183 1165.92 4.07183 1159.37 Q4.07183 1155.42 5.63143 1152.59 Q7.19103 1149.75 10.3421 1147.94 L4.9312 1147.94 L4.9312 1142.08 L36.155 1142.08 Z" fill="#000000" fill-rule="nonzero" fill-opacity="1" /><path clip-path="url(#clip510)" d="M-8.88238 1130.94 L-8.88238 1125.85 Q-1.37085 1121.08 5.8224 1118.72 Q13.0156 1116.33 20.1134 1116.33 Q27.243 1116.33 34.4681 1118.72 Q41.6932 1121.08 49.1729 1125.85 L49.1729 1130.94 Q41.8841 1126.71 34.6909 1124.64 Q27.4658 1122.54 20.1134 1122.54 Q12.761 1122.54 5.5996 1124.64 Q-1.56182 1126.71 -8.88238 1130.94 Z" fill="#000000" fill-rule="nonzero" fill-opacity="1" /><path clip-path="url(#clip510)" d="M819.083 890.899 L819.083 913.625 L829.372 913.625 Q835.084 913.625 838.203 910.667 Q841.322 907.71 841.322 902.242 Q841.322 896.813 838.203 893.856 Q835.084 890.899 829.372 890.899 L819.083 890.899 M810.9 884.174 L829.372 884.174 Q839.54 884.174 844.725 888.793 Q849.951 893.37 849.951 902.242 Q849.951 911.194 844.725 915.772 Q839.54 920.349 829.372 920.349 L819.083 920.349 L819.083 944.654 L810.9 944.654 L810.9 884.174 Z" fill="#000000" fill-rule="nonzero" fill-opacity="1" /><path clip-path="url(#clip510)" d="M895.929 907.994 Q898.724 902.971 902.613 900.581 Q906.501 898.191 911.768 898.191 Q918.857 898.191 922.705 903.173 Q926.553 908.115 926.553 917.27 L926.553 944.654 L919.059 944.654 L919.059 917.513 Q919.059 910.991 916.75 907.832 Q914.441 904.672 909.702 904.672 Q903.909 904.672 900.547 908.52 Q897.184 912.369 897.184 919.012 L897.184 944.654 L889.69 944.654 L889.69 917.513 Q889.69 910.951 887.381 907.832 Q885.072 904.672 880.252 904.672 Q874.54 904.672 871.178 908.561 Q867.815 912.409 867.815 919.012 L867.815 944.654 L860.321 944.654 L860.321 899.284 L867.815 899.284 L867.815 906.333 Q870.367 902.16 873.932 900.176 Q877.497 898.191 882.399 898.191 Q887.341 898.191 890.784 900.702 Q894.268 903.214 895.929 907.994 Z" fill="#000000" fill-rule="nonzero" fill-opacity="1" /><path clip-path="url(#clip510)" d="M943.324 934.365 L951.872 934.365 L951.872 944.654 L943.324 944.654 L943.324 934.365 M943.324 901.755 L951.872 901.755 L951.872 912.045 L943.324 912.045 L943.324 901.755 Z" fill="#000000" fill-rule="nonzero" fill-opacity="1" /><path clip-path="url(#clip510)" d="M995.054 881.622 L1012.23 881.622 L1012.23 887.415 L1002.51 887.415 L1002.51 949.799 L1012.23 949.799 L1012.23 955.592 L995.054 955.592 L995.054 881.622 Z" fill="#000000" fill-rule="nonzero" fill-opacity="1" /><path clip-path="url(#clip510)" d="M1030.58 937.768 L1043.95 937.768 L1043.95 891.628 L1029.41 894.545 L1029.41 887.091 L1043.87 884.174 L1052.05 884.174 L1052.05 937.768 L1065.42 937.768 L1065.42 944.654 L1030.58 944.654 L1030.58 937.768 Z" fill="#000000" fill-rule="nonzero" fill-opacity="1" /><path clip-path="url(#clip510)" d="M1099.45 889.562 Q1093.13 889.562 1089.93 895.801 Q1086.77 901.998 1086.77 914.475 Q1086.77 926.912 1089.93 933.15 Q1093.13 939.348 1099.45 939.348 Q1105.81 939.348 1108.97 933.15 Q1112.17 926.912 1112.17 914.475 Q1112.17 901.998 1108.97 895.801 Q1105.81 889.562 1099.45 889.562 M1099.45 883.081 Q1109.61 883.081 1114.96 891.142 Q1120.35 899.163 1120.35 914.475 Q1120.35 929.747 1114.96 937.808 Q1109.61 945.829 1099.45 945.829 Q1089.28 945.829 1083.89 937.808 Q1078.54 929.747 1078.54 914.475 Q1078.54 899.163 1083.89 891.142 Q1089.28 883.081 1099.45 883.081 Z" fill="#000000" fill-rule="nonzero" fill-opacity="1" /><path clip-path="url(#clip510)" d="M1152.23 889.562 Q1145.91 889.562 1142.71 895.801 Q1139.55 901.998 1139.55 914.475 Q1139.55 926.912 1142.71 933.15 Q1145.91 939.348 1152.23 939.348 Q1158.59 939.348 1161.75 933.15 Q1164.95 926.912 1164.95 914.475 Q1164.95 901.998 1161.75 895.801 Q1158.59 889.562 1152.23 889.562 M1152.23 883.081 Q1162.4 883.081 1167.74 891.142 Q1173.13 899.163 1173.13 914.475 Q1173.13 929.747 1167.74 937.808 Q1162.4 945.829 1152.23 945.829 Q1142.06 945.829 1136.67 937.808 Q1131.33 929.747 1131.33 914.475 Q1131.33 899.163 1136.67 891.142 Q1142.06 883.081 1152.23 883.081 Z" fill="#000000" fill-rule="nonzero" fill-opacity="1" /><path clip-path="url(#clip510)" d="M1188.36 934.365 L1196.91 934.365 L1196.91 941.333 L1190.27 954.296 L1185.04 954.296 L1188.36 941.333 L1188.36 934.365 Z" fill="#000000" fill-rule="nonzero" fill-opacity="1" /><path clip-path="url(#clip510)" d="M1266.87 943.399 L1266.87 935.945 Q1269.95 937.403 1273.11 938.173 Q1276.27 938.943 1279.31 938.943 Q1287.41 938.943 1291.66 933.514 Q1295.96 928.046 1296.56 916.946 Q1294.21 920.43 1290.61 922.293 Q1287 924.157 1282.63 924.157 Q1273.55 924.157 1268.25 918.688 Q1262.98 913.179 1262.98 903.659 Q1262.98 894.342 1268.49 888.711 Q1274 883.081 1283.15 883.081 Q1293.65 883.081 1299.16 891.142 Q1304.71 899.163 1304.71 914.475 Q1304.71 928.775 1297.9 937.322 Q1291.13 945.829 1279.67 945.829 Q1276.59 945.829 1273.43 945.222 Q1270.27 944.614 1266.87 943.399 M1283.15 917.756 Q1288.66 917.756 1291.86 913.989 Q1295.1 910.222 1295.1 903.659 Q1295.1 897.137 1291.86 893.37 Q1288.66 889.562 1283.15 889.562 Q1277.65 889.562 1274.4 893.37 Q1271.2 897.137 1271.2 903.659 Q1271.2 910.222 1274.4 913.989 Q1277.65 917.756 1283.15 917.756 Z" fill="#000000" fill-rule="nonzero" fill-opacity="1" /><path clip-path="url(#clip510)" d="M1317.34 884.174 L1356.23 884.174 L1356.23 887.658 L1334.28 944.654 L1325.73 944.654 L1346.39 891.061 L1317.34 891.061 L1317.34 884.174 Z" fill="#000000" fill-rule="nonzero" fill-opacity="1" /><path clip-path="url(#clip510)" d="M1373.04 934.365 L1381.59 934.365 L1381.59 941.333 L1374.95 954.296 L1369.72 954.296 L1373.04 941.333 L1373.04 934.365 Z" fill="#000000" fill-rule="nonzero" fill-opacity="1" /><path clip-path="url(#clip510)" d="M1425.18 943.399 L1425.18 935.945 Q1428.26 937.403 1431.42 938.173 Q1434.58 938.943 1437.62 938.943 Q1445.72 938.943 1449.97 933.514 Q1454.26 928.046 1454.87 916.946 Q1452.52 920.43 1448.92 922.293 Q1445.31 924.157 1440.94 924.157 Q1431.86 924.157 1426.56 918.688 Q1421.29 913.179 1421.29 903.659 Q1421.29 894.342 1426.8 888.711 Q1432.31 883.081 1441.46 883.081 Q1451.96 883.081 1457.46 891.142 Q1463.01 899.163 1463.01 914.475 Q1463.01 928.775 1456.21 937.322 Q1449.44 945.829 1437.98 945.829 Q1434.9 945.829 1431.74 945.222 Q1428.58 944.614 1425.18 943.399 M1441.46 917.756 Q1446.97 917.756 1450.17 913.989 Q1453.41 910.222 1453.41 903.659 Q1453.41 897.137 1450.17 893.37 Q1446.97 889.562 1441.46 889.562 Q1435.95 889.562 1432.71 893.37 Q1429.51 897.137 1429.51 903.659 Q1429.51 910.222 1432.71 913.989 Q1435.95 917.756 1441.46 917.756 Z" fill="#000000" fill-rule="nonzero" fill-opacity="1" /><path clip-path="url(#clip510)" d="M1477.72 934.365 L1486.27 934.365 L1486.27 944.654 L1477.72 944.654 L1477.72 934.365 Z" fill="#000000" fill-rule="nonzero" fill-opacity="1" /><path clip-path="url(#clip510)" d="M1528.88 912.045 Q1534.76 913.3 1538.04 917.27 Q1541.36 921.24 1541.36 927.074 Q1541.36 936.026 1535.2 940.928 Q1529.04 945.829 1517.7 945.829 Q1513.89 945.829 1509.84 945.06 Q1505.83 944.33 1501.54 942.832 L1501.54 934.932 Q1504.94 936.917 1508.99 937.93 Q1513.04 938.943 1517.46 938.943 Q1525.16 938.943 1529.17 935.905 Q1533.22 932.866 1533.22 927.074 Q1533.22 921.726 1529.45 918.729 Q1525.72 915.691 1519.04 915.691 L1511.99 915.691 L1511.99 908.966 L1519.36 908.966 Q1525.4 908.966 1528.6 906.576 Q1531.8 904.145 1531.8 899.608 Q1531.8 894.95 1528.48 892.479 Q1525.2 889.967 1519.04 889.967 Q1515.68 889.967 1511.83 890.696 Q1507.98 891.426 1503.36 892.965 L1503.36 885.673 Q1508.02 884.377 1512.07 883.729 Q1516.16 883.081 1519.77 883.081 Q1529.08 883.081 1534.51 887.334 Q1539.94 891.547 1539.94 898.758 Q1539.94 903.781 1537.07 907.265 Q1534.19 910.708 1528.88 912.045 Z" fill="#000000" fill-rule="nonzero" fill-opacity="1" /><path clip-path="url(#clip510)" d="M1573.24 881.622 L1573.24 955.592 L1556.06 955.592 L1556.06 949.799 L1565.75 949.799 L1565.75 887.415 L1556.06 887.415 L1556.06 881.622 L1573.24 881.622 Z" fill="#000000" fill-rule="nonzero" fill-opacity="1" /><path clip-path="url(#clip510)" d="M1655.39 945.829 Q1638.58 945.829 1638.58 921.767 Q1638.58 912.247 1644.86 899.284 L1652.88 899.284 Q1647.09 912.247 1647.09 921.969 Q1647.09 939.51 1656.08 939.51 Q1664.3 939.51 1664.3 917.716 L1671.19 917.716 Q1671.19 939.51 1679.41 939.51 Q1688.41 939.51 1688.41 921.969 Q1688.41 912.247 1682.61 899.284 L1690.64 899.284 Q1696.91 912.247 1696.91 921.767 Q1696.91 945.829 1680.1 945.829 Q1669.08 945.829 1667.75 933.717 Q1666.09 945.829 1655.39 945.829 Z" fill="#000000" fill-rule="nonzero" fill-opacity="1" /><path clip-path="url(#clip510)" d="M1743.99 937.849 L1743.99 961.911 L1736.49 961.911 L1736.49 899.284 L1743.99 899.284 L1743.99 906.171 Q1746.33 902.12 1749.9 900.176 Q1753.51 898.191 1758.49 898.191 Q1766.75 898.191 1771.9 904.753 Q1777.08 911.316 1777.08 922.01 Q1777.08 932.704 1771.9 939.267 Q1766.75 945.829 1758.49 945.829 Q1753.51 945.829 1749.9 943.885 Q1746.33 941.9 1743.99 937.849 M1769.34 922.01 Q1769.34 913.787 1765.94 909.128 Q1762.58 904.429 1756.66 904.429 Q1750.75 904.429 1747.35 909.128 Q1743.99 913.787 1743.99 922.01 Q1743.99 930.233 1747.35 934.932 Q1750.75 939.591 1756.66 939.591 Q1762.58 939.591 1765.94 934.932 Q1769.34 930.233 1769.34 922.01 Z" fill="#000000" fill-rule="nonzero" fill-opacity="1" /><path clip-path="url(#clip510)" d="M1824.76 907.994 Q1827.56 902.971 1831.44 900.581 Q1835.33 898.191 1840.6 898.191 Q1847.69 898.191 1851.54 903.173 Q1855.39 908.115 1855.39 917.27 L1855.39 944.654 L1847.89 944.654 L1847.89 917.513 Q1847.89 910.991 1845.58 907.832 Q1843.27 904.672 1838.53 904.672 Q1832.74 904.672 1829.38 908.52 Q1826.02 912.369 1826.02 919.012 L1826.02 944.654 L1818.52 944.654 L1818.52 917.513 Q1818.52 910.951 1816.21 907.832 Q1813.9 904.672 1809.08 904.672 Q1803.37 904.672 1800.01 908.561 Q1796.65 912.409 1796.65 919.012 L1796.65 944.654 L1789.15 944.654 L1789.15 899.284 L1796.65 899.284 L1796.65 906.333 Q1799.2 902.16 1802.76 900.176 Q1806.33 898.191 1811.23 898.191 Q1816.17 898.191 1819.62 900.702 Q1823.1 903.214 1824.76 907.994 Z" fill="#000000" fill-rule="nonzero" fill-opacity="1" /><path clip-path="url(#clip510)" d="M1872.16 934.365 L1880.7 934.365 L1880.7 944.654 L1872.16 944.654 L1872.16 934.365 M1872.16 901.755 L1880.7 901.755 L1880.7 912.045 L1872.16 912.045 L1872.16 901.755 Z" fill="#000000" fill-rule="nonzero" fill-opacity="1" /><path clip-path="url(#clip510)" d="M1923.89 881.622 L1941.06 881.622 L1941.06 887.415 L1931.34 887.415 L1931.34 949.799 L1941.06 949.799 L1941.06 955.592 L1923.89 955.592 L1923.89 881.622 Z" fill="#000000" fill-rule="nonzero" fill-opacity="1" /><path clip-path="url(#clip510)" d="M1975.49 889.562 Q1969.18 889.562 1965.97 895.801 Q1962.82 901.998 1962.82 914.475 Q1962.82 926.912 1965.97 933.15 Q1969.18 939.348 1975.49 939.348 Q1981.85 939.348 1985.01 933.15 Q1988.21 926.912 1988.21 914.475 Q1988.21 901.998 1985.01 895.801 Q1981.85 889.562 1975.49 889.562 M1975.49 883.081 Q1985.66 883.081 1991.01 891.142 Q1996.4 899.163 1996.4 914.475 Q1996.4 929.747 1991.01 937.808 Q1985.66 945.829 1975.49 945.829 Q1965.33 945.829 1959.94 937.808 Q1954.59 929.747 1954.59 914.475 Q1954.59 899.163 1959.94 891.142 Q1965.33 883.081 1975.49 883.081 Z" fill="#000000" fill-rule="nonzero" fill-opacity="1" /><path clip-path="url(#clip510)" d="M2010.78 934.365 L2019.33 934.365 L2019.33 944.654 L2010.78 944.654 L2010.78 934.365 Z" fill="#000000" fill-rule="nonzero" fill-opacity="1" /><path clip-path="url(#clip510)" d="M2044.2 937.768 L2072.76 937.768 L2072.76 944.654 L2034.35 944.654 L2034.35 937.768 Q2039.01 932.947 2047.03 924.846 Q2055.09 916.703 2057.16 914.354 Q2061.09 909.938 2062.63 906.9 Q2064.21 903.821 2064.21 900.864 Q2064.21 896.044 2060.81 893.005 Q2057.44 889.967 2052.02 889.967 Q2048.17 889.967 2043.87 891.304 Q2039.62 892.641 2034.76 895.355 L2034.76 887.091 Q2039.7 885.106 2044 884.093 Q2048.29 883.081 2051.85 883.081 Q2061.25 883.081 2066.84 887.78 Q2072.43 892.479 2072.43 900.338 Q2072.43 904.064 2071.01 907.427 Q2069.64 910.748 2065.95 915.285 Q2064.94 916.46 2059.51 922.091 Q2054.08 927.681 2044.2 937.768 Z" fill="#000000" fill-rule="nonzero" fill-opacity="1" /><path clip-path="url(#clip510)" d="M2091.35 937.768 L2104.72 937.768 L2104.72 891.628 L2090.18 894.545 L2090.18 887.091 L2104.64 884.174 L2112.82 884.174 L2112.82 937.768 L2126.19 937.768 L2126.19 944.654 L2091.35 944.654 L2091.35 937.768 Z" fill="#000000" fill-rule="nonzero" fill-opacity="1" /><path clip-path="url(#clip510)" d="M2143.57 934.365 L2152.11 934.365 L2152.11 941.333 L2145.47 954.296 L2140.24 954.296 L2143.57 941.333 L2143.57 934.365 Z" fill="#000000" fill-rule="nonzero" fill-opacity="1" /><path clip-path="url(#clip510)" d="M2212.96 889.562 Q2206.64 889.562 2203.44 895.801 Q2200.28 901.998 2200.28 914.475 Q2200.28 926.912 2203.44 933.15 Q2206.64 939.348 2212.96 939.348 Q2219.32 939.348 2222.48 933.15 Q2225.68 926.912 2225.68 914.475 Q2225.68 901.998 2222.48 895.801 Q2219.32 889.562 2212.96 889.562 M2212.96 883.081 Q2223.13 883.081 2228.47 891.142 Q2233.86 899.163 2233.86 914.475 Q2233.86 929.747 2228.47 937.808 Q2223.13 945.829 2212.96 945.829 Q2202.79 945.829 2197.4 937.808 Q2192.06 929.747 2192.06 914.475 Q2192.06 899.163 2197.4 891.142 Q2202.79 883.081 2212.96 883.081 Z" fill="#000000" fill-rule="nonzero" fill-opacity="1" /><path clip-path="url(#clip510)" d="M2248.24 934.365 L2256.79 934.365 L2256.79 944.654 L2248.24 944.654 L2248.24 934.365 Z" fill="#000000" fill-rule="nonzero" fill-opacity="1" /><path clip-path="url(#clip510)" d="M2292.11 915.934 Q2286.28 915.934 2282.92 919.053 Q2279.6 922.172 2279.6 927.641 Q2279.6 933.109 2282.92 936.229 Q2286.28 939.348 2292.11 939.348 Q2297.95 939.348 2301.31 936.229 Q2304.67 933.069 2304.67 927.641 Q2304.67 922.172 2301.31 919.053 Q2297.99 915.934 2292.11 915.934 M2283.93 912.45 Q2278.66 911.154 2275.71 907.548 Q2272.79 903.943 2272.79 898.758 Q2272.79 891.507 2277.94 887.294 Q2283.12 883.081 2292.11 883.081 Q2301.15 883.081 2306.29 887.294 Q2311.44 891.507 2311.44 898.758 Q2311.44 903.943 2308.48 907.548 Q2305.56 911.154 2300.34 912.45 Q2306.25 913.827 2309.53 917.837 Q2312.85 921.848 2312.85 927.641 Q2312.85 936.431 2307.47 941.13 Q2302.12 945.829 2292.11 945.829 Q2282.11 945.829 2276.72 941.13 Q2271.37 936.431 2271.37 927.641 Q2271.37 921.848 2274.69 917.837 Q2278.02 913.827 2283.93 912.45 M2280.93 899.527 Q2280.93 904.226 2283.85 906.86 Q2286.81 909.493 2292.11 909.493 Q2297.38 909.493 2300.34 906.86 Q2303.33 904.226 2303.33 899.527 Q2303.33 894.828 2300.34 892.195 Q2297.38 889.562 2292.11 889.562 Q2286.81 889.562 2283.85 892.195 Q2280.93 894.828 2280.93 899.527 Z" fill="#000000" fill-rule="nonzero" fill-opacity="1" /><path clip-path="url(#clip510)" d="M2345.91 911.154 Q2340.4 911.154 2337.16 914.921 Q2333.96 918.688 2333.96 925.251 Q2333.96 931.773 2337.16 935.58 Q2340.4 939.348 2345.91 939.348 Q2351.42 939.348 2354.62 935.58 Q2357.86 931.773 2357.86 925.251 Q2357.86 918.688 2354.62 914.921 Q2351.42 911.154 2345.91 911.154 M2362.15 885.511 L2362.15 892.965 Q2359.07 891.507 2355.92 890.737 Q2352.8 889.967 2349.72 889.967 Q2341.62 889.967 2337.32 895.436 Q2333.07 900.905 2332.46 911.964 Q2334.85 908.439 2338.46 906.576 Q2342.06 904.672 2346.4 904.672 Q2355.51 904.672 2360.78 910.222 Q2366.08 915.731 2366.08 925.251 Q2366.08 934.568 2360.57 940.198 Q2355.06 945.829 2345.91 945.829 Q2335.42 945.829 2329.87 937.808 Q2324.32 929.747 2324.32 914.475 Q2324.32 900.135 2331.12 891.628 Q2337.93 883.081 2349.39 883.081 Q2352.47 883.081 2355.59 883.688 Q2358.75 884.296 2362.15 885.511 Z" fill="#000000" fill-rule="nonzero" fill-opacity="1" /><path clip-path="url(#clip510)" d="M2381.03 934.365 L2389.58 934.365 L2389.58 941.333 L2382.93 954.296 L2377.71 954.296 L2381.03 941.333 L2381.03 934.365 Z" fill="#000000" fill-rule="nonzero" fill-opacity="1" /><path clip-path="url(#clip510)" d="M2434.34 937.768 L2447.71 937.768 L2447.71 891.628 L2433.17 894.545 L2433.17 887.091 L2447.63 884.174 L2455.81 884.174 L2455.81 937.768 L2469.18 937.768 L2469.18 944.654 L2434.34 944.654 L2434.34 937.768 Z" fill="#000000" fill-rule="nonzero" fill-opacity="1" /><path clip-path="url(#clip510)" d="M2485.71 934.365 L2494.25 934.365 L2494.25 944.654 L2485.71 944.654 L2485.71 934.365 Z" fill="#000000" fill-rule="nonzero" fill-opacity="1" /><path clip-path="url(#clip510)" d="M2513.5 937.768 L2526.86 937.768 L2526.86 891.628 L2512.32 894.545 L2512.32 887.091 L2526.78 884.174 L2534.96 884.174 L2534.96 937.768 L2548.33 937.768 L2548.33 944.654 L2513.5 944.654 L2513.5 937.768 Z" fill="#000000" fill-rule="nonzero" fill-opacity="1" /><path clip-path="url(#clip510)" d="M2581.23 881.622 L2581.23 955.592 L2564.05 955.592 L2564.05 949.799 L2573.73 949.799 L2573.73 887.415 L2564.05 887.415 L2564.05 881.622 L2581.23 881.622 Z" fill="#000000" fill-rule="nonzero" fill-opacity="1" /><polyline clip-path="url(#clip513)" style="stroke:#009af9; stroke-linecap:round; stroke-linejoin:round; stroke-width:4; stroke-opacity:1; fill:none" points="354.378,1095.86 365.745,1095.78 377.113,1095.69 388.481,1095.61 399.848,1095.51 411.216,1095.42 422.584,1095.32 433.951,1095.21 445.319,1095.1 456.687,1094.99 468.054,1094.87 479.422,1094.75 490.79,1094.63 502.157,1094.49 513.525,1094.36 524.893,1094.22 536.26,1094.07 547.628,1093.91 558.996,1093.76 570.363,1093.59 581.731,1093.42 593.099,1093.24 604.466,1093.05 615.834,1092.86 627.202,1092.66 638.569,1092.45 649.937,1092.23 661.305,1092.01 672.672,1091.77 684.04,1091.53 695.408,1091.28 706.775,1091.02 718.143,1090.74 729.511,1090.46 740.878,1090.17 752.246,1089.86 763.614,1089.54 774.981,1089.21 786.349,1088.87 797.717,1088.51 809.084,1088.14 820.452,1087.76 831.82,1087.36 843.187,1086.94 854.555,1086.51 865.923,1086.06 877.29,1085.59 888.658,1085.11 900.026,1084.61 911.393,1084.08 922.761,1083.54 934.129,1082.98 945.496,1082.39 956.864,1081.79 968.232,1081.16 979.599,1080.5 990.967,1079.82 1002.33,1079.12 1013.7,1078.39 1025.07,1077.63 1036.44,1076.84 1047.81,1076.02 1059.17,1075.17 1070.54,1074.29 1081.91,1073.37 1093.28,1072.43 1104.64,1071.44 1116.01,1070.43 1127.38,1069.37 1138.75,1068.28 1150.11,1067.15 1161.48,1065.97 1172.85,1064.76 1184.22,1063.5 1195.58,1062.2 1206.95,1060.86 1218.32,1059.47 1229.69,1058.03 1241.06,1056.55 1252.42,1055.01 1263.79,1053.43 1275.16,1051.81 1286.53,1050.13 1297.89,1048.4 1309.26,1046.63 1320.63,1044.8 1332,1042.93 1343.36,1041.01 1354.73,1039.05 1366.1,1037.04 1377.47,1035 1388.84,1032.92 1400.2,1030.8 1411.57,1028.66 1422.94,1026.5 1434.31,1024.32 1445.67,1022.14 1457.04,1019.97 1468.41,1017.83 1479.78,1015.72 1491.14,1013.67 1502.51,1011.71 1513.88,1009.87 1525.25,1008.18 1536.61,1006.69 1547.98,1005.47 1559.35,1004.59 1570.72,1004.14 1582.09,1004.27 1593.45,1005.15 1604.82,1007.02 1616.19,1010.22 1627.56,1015.25 1638.92,1022.84 1650.29,1034.15 1661.66,1051.02 1673.03,1076.47 1684.39,1115.34 1695.76,1174.34 1707.13,1257.26 1718.5,1352.48 1729.87,1435.4 1741.23,1494.4 1752.6,1533.28 1763.97,1558.72 1775.34,1575.59 1786.7,1586.9 1798.07,1594.5 1809.44,1599.52 1820.81,1602.72 1832.17,1604.59 1843.54,1605.47 1854.91,1605.6 1866.28,1605.15 1877.64,1604.27 1889.01,1603.05 1900.38,1601.56 1911.75,1599.87 1923.12,1598.03 1934.48,1596.07 1945.85,1594.02 1957.22,1591.91 1968.59,1589.77 1979.95,1587.6 1991.32,1585.42 2002.69,1583.25 2014.06,1581.08 2025.42,1578.94 2036.79,1576.83 2048.16,1574.74 2059.53,1572.7 2070.9,1570.69 2082.26,1568.73 2093.63,1566.81 2105,1564.94 2116.37,1563.12 2127.73,1561.34 2139.1,1559.61 2150.47,1557.94 2161.84,1556.31 2173.2,1554.73 2184.57,1553.2 2195.94,1551.71 2207.31,1550.28 2218.67,1548.89 2230.04,1547.54 2241.41,1546.24 2252.78,1544.98 2264.15,1543.77 2275.51,1542.6 2286.88,1541.46 2298.25,1540.37 2309.62,1539.31 2320.98,1538.3 2332.35,1537.31 2343.72,1536.37 2355.09,1535.45 2366.45,1534.57 2377.82,1533.72 2389.19,1532.91 2400.56,1532.12 2411.93,1531.36 2423.29,1530.62 2434.66,1529.92 2446.03,1529.24 2457.4,1528.58 2468.76,1527.95 2480.13,1527.35 2491.5,1526.76 2502.87,1526.2 2514.23,1525.66 2525.6,1525.13 2536.97,1524.63 2548.34,1524.15 2559.7,1523.68 2571.07,1523.23 2582.44,1522.8 2593.81,1522.39 2605.18,1521.99 2616.54,1521.6 2627.91,1521.23 2639.28,1520.87 2650.65,1520.53 2662.01,1520.2 2673.38,1519.88 2684.75,1519.58 2696.12,1519.28 2707.48,1519 2718.85,1518.73 2730.22,1518.46 2741.59,1518.21 2752.96,1517.97 2764.32,1517.73 2775.69,1517.51 2787.06,1517.29 2798.43,1517.08 2809.79,1516.88 2821.16,1516.69 2832.53,1516.5 2843.9,1516.32 2855.26,1516.15 2866.63,1515.99 2878,1515.83 2889.37,1515.67 2900.73,1515.53 2912.1,1515.38 2923.47,1515.25 2934.84,1515.12 2946.21,1514.99 2957.57,1514.87 2968.94,1514.75 2980.31,1514.64 2991.68,1514.53 3003.04,1514.43 3014.41,1514.33 3025.78,1514.23 3037.15,1514.14 3048.51,1514.05 3059.88,1513.96 3071.25,1513.88 "/>
<polyline clip-path="url(#clip513)" style="stroke:#808080; stroke-linecap:round; stroke-linejoin:round; stroke-width:4; stroke-opacity:1; fill:none" stroke-dasharray="16, 10" points="-2607.01,1511.77 6032.64,1511.77 "/>
<polyline clip-path="url(#clip513)" style="stroke:#808080; stroke-linecap:round; stroke-linejoin:round; stroke-width:4; stroke-opacity:1; fill:none" stroke-dasharray="16, 10" points="-2607.01,1511.77 6032.64,1511.77 "/>
<polyline clip-path="url(#clip513)" style="stroke:#808080; stroke-linecap:round; stroke-linejoin:round; stroke-width:4; stroke-opacity:1; fill:none" stroke-dasharray="16, 10" points="-2607.01,1512.8 6032.64,1512.8 "/>
<polyline clip-path="url(#clip513)" style="stroke:#808080; stroke-linecap:round; stroke-linejoin:round; stroke-width:4; stroke-opacity:1; fill:none" stroke-dasharray="16, 10" points="-2607.01,1512.8 6032.64,1512.8 "/>
<polyline clip-path="url(#clip513)" style="stroke:#808080; stroke-linecap:round; stroke-linejoin:round; stroke-width:4; stroke-opacity:1; fill:none" stroke-dasharray="16, 10" points="-2607.01,1508.56 6032.64,1508.56 "/>
<polyline clip-path="url(#clip513)" style="stroke:#808080; stroke-linecap:round; stroke-linejoin:round; stroke-width:4; stroke-opacity:1; fill:none" stroke-dasharray="16, 10" points="-2607.01,1508.56 6032.64,1508.56 "/>
<polyline clip-path="url(#clip513)" style="stroke:#009af9; stroke-linecap:round; stroke-linejoin:round; stroke-width:4; stroke-opacity:1; fill:none" points="1258.34,1054.2 1258.34,1511.77 "/>
<polyline clip-path="url(#clip513)" style="stroke:#009af9; stroke-linecap:round; stroke-linejoin:round; stroke-width:4; stroke-opacity:1; fill:none" points="1669.7,1068.93 1669.7,1512.8 "/>
<polyline clip-path="url(#clip513)" style="stroke:#009af9; stroke-linecap:round; stroke-linejoin:round; stroke-width:4; stroke-opacity:1; fill:none" points="1735.75,1465.66 1735.75,1508.56 "/>
</svg>
