<?xml version="1.0" encoding="utf-8" standalone="no"?>
<!DOCTYPE svg PUBLIC "-//W3C//DTD SVG 1.1//EN"
  "http://www.w3.org/Graphics/SVG/1.1/DTD/svg11.dtd">
<!-- Created with matplotlib (http://matplotlib.org/) -->
<svg height="288pt" version="1.1" viewBox="0 0 432 288" width="432pt" xmlns="http://www.w3.org/2000/svg" xmlns:xlink="http://www.w3.org/1999/xlink">
 <defs>
  <style type="text/css">
*{stroke-linecap:butt;stroke-linejoin:round;stroke-miterlimit:100000;}
  </style>
 </defs>
 <g id="figure_1">
  <g id="patch_1">
   <path d="M 0 288 
L 432 288 
L 432 0 
L 0 0 
z
" style="fill:#ffffff;"/>
  </g>
  <g id="axes_1">
   <g id="patch_2">
    <path d="M 42.785938 263.2975 
L 419.04 263.2975 
L 419.04 26.318281 
L 42.785938 26.318281 
z
" style="fill:#ffffff;"/>
   </g>
   <g id="matplotlib.axis_1">
    <g id="xtick_1">
     <g id="line2d_1">
      <path clip-path="url(#pafcdab3ac4)" d="M 70.972751 263.2975 
L 70.972751 26.318281 
" style="fill:none;stroke:#000000;stroke-dasharray:1.000000,3.000000;stroke-dashoffset:0.0;stroke-width:0.5;"/>
     </g>
     <g id="line2d_2">
      <defs>
       <path d="M 0 0 
L 0 -4 
" id="m7a6c55c1bc" style="stroke:#000000;stroke-width:0.5;"/>
      </defs>
      <g>
       <use style="stroke:#000000;stroke-width:0.5;" x="70.9727509142" xlink:href="#m7a6c55c1bc" y="263.2975"/>
      </g>
     </g>
     <g id="line2d_3">
      <defs>
       <path d="M 0 0 
L 0 4 
" id="mb230b6fbf2" style="stroke:#000000;stroke-width:0.5;"/>
      </defs>
      <g>
       <use style="stroke:#000000;stroke-width:0.5;" x="70.9727509142" xlink:href="#mb230b6fbf2" y="26.31828125"/>
      </g>
     </g>
     <g id="text_1">
      <!-- 0.0 -->
      <defs>
       <path d="M 31.78125 66.40625 
Q 24.171875 66.40625 20.328125 58.90625 
Q 16.5 51.421875 16.5 36.375 
Q 16.5 21.390625 20.328125 13.890625 
Q 24.171875 6.390625 31.78125 6.390625 
Q 39.453125 6.390625 43.28125 13.890625 
Q 47.125 21.390625 47.125 36.375 
Q 47.125 51.421875 43.28125 58.90625 
Q 39.453125 66.40625 31.78125 66.40625 
M 31.78125 74.21875 
Q 44.046875 74.21875 50.515625 64.515625 
Q 56.984375 54.828125 56.984375 36.375 
Q 56.984375 17.96875 50.515625 8.265625 
Q 44.046875 -1.421875 31.78125 -1.421875 
Q 19.53125 -1.421875 13.0625 8.265625 
Q 6.59375 17.96875 6.59375 36.375 
Q 6.59375 54.828125 13.0625 64.515625 
Q 19.53125 74.21875 31.78125 74.21875 
" id="BitstreamVeraSans-Roman-30"/>
       <path d="M 10.6875 12.40625 
L 21 12.40625 
L 21 0 
L 10.6875 0 
z
" id="BitstreamVeraSans-Roman-2e"/>
      </defs>
      <g transform="translate(64.6115009142 273.37625)scale(0.08 -0.08)">
       <use xlink:href="#BitstreamVeraSans-Roman-30"/>
       <use x="63.623046875" xlink:href="#BitstreamVeraSans-Roman-2e"/>
       <use x="95.41015625" xlink:href="#BitstreamVeraSans-Roman-30"/>
      </g>
     </g>
    </g>
    <g id="xtick_2">
     <g id="line2d_4">
      <path clip-path="url(#pafcdab3ac4)" d="M 136.896604 263.2975 
L 136.896604 26.318281 
" style="fill:none;stroke:#000000;stroke-dasharray:1.000000,3.000000;stroke-dashoffset:0.0;stroke-width:0.5;"/>
     </g>
     <g id="line2d_5">
      <g>
       <use style="stroke:#000000;stroke-width:0.5;" x="136.896603731" xlink:href="#m7a6c55c1bc" y="263.2975"/>
      </g>
     </g>
     <g id="line2d_6">
      <g>
       <use style="stroke:#000000;stroke-width:0.5;" x="136.896603731" xlink:href="#mb230b6fbf2" y="26.31828125"/>
      </g>
     </g>
     <g id="text_2">
      <!-- 0.5 -->
      <defs>
       <path d="M 10.796875 72.90625 
L 49.515625 72.90625 
L 49.515625 64.59375 
L 19.828125 64.59375 
L 19.828125 46.734375 
Q 21.96875 47.46875 24.109375 47.828125 
Q 26.265625 48.1875 28.421875 48.1875 
Q 40.625 48.1875 47.75 41.5 
Q 54.890625 34.8125 54.890625 23.390625 
Q 54.890625 11.625 47.5625 5.09375 
Q 40.234375 -1.421875 26.90625 -1.421875 
Q 22.3125 -1.421875 17.546875 -0.640625 
Q 12.796875 0.140625 7.71875 1.703125 
L 7.71875 11.625 
Q 12.109375 9.234375 16.796875 8.0625 
Q 21.484375 6.890625 26.703125 6.890625 
Q 35.15625 6.890625 40.078125 11.328125 
Q 45.015625 15.765625 45.015625 23.390625 
Q 45.015625 31 40.078125 35.4375 
Q 35.15625 39.890625 26.703125 39.890625 
Q 22.75 39.890625 18.8125 39.015625 
Q 14.890625 38.140625 10.796875 36.28125 
z
" id="BitstreamVeraSans-Roman-35"/>
      </defs>
      <g transform="translate(130.535353731 273.37625)scale(0.08 -0.08)">
       <use xlink:href="#BitstreamVeraSans-Roman-30"/>
       <use x="63.623046875" xlink:href="#BitstreamVeraSans-Roman-2e"/>
       <use x="95.41015625" xlink:href="#BitstreamVeraSans-Roman-35"/>
      </g>
     </g>
    </g>
    <g id="xtick_3">
     <g id="line2d_7">
      <path clip-path="url(#pafcdab3ac4)" d="M 202.820457 263.2975 
L 202.820457 26.318281 
" style="fill:none;stroke:#000000;stroke-dasharray:1.000000,3.000000;stroke-dashoffset:0.0;stroke-width:0.5;"/>
     </g>
     <g id="line2d_8">
      <g>
       <use style="stroke:#000000;stroke-width:0.5;" x="202.820456548" xlink:href="#m7a6c55c1bc" y="263.2975"/>
      </g>
     </g>
     <g id="line2d_9">
      <g>
       <use style="stroke:#000000;stroke-width:0.5;" x="202.820456548" xlink:href="#mb230b6fbf2" y="26.31828125"/>
      </g>
     </g>
     <g id="text_3">
      <!-- 1.0 -->
      <defs>
       <path d="M 12.40625 8.296875 
L 28.515625 8.296875 
L 28.515625 63.921875 
L 10.984375 60.40625 
L 10.984375 69.390625 
L 28.421875 72.90625 
L 38.28125 72.90625 
L 38.28125 8.296875 
L 54.390625 8.296875 
L 54.390625 0 
L 12.40625 0 
z
" id="BitstreamVeraSans-Roman-31"/>
      </defs>
      <g transform="translate(196.459206548 273.37625)scale(0.08 -0.08)">
       <use xlink:href="#BitstreamVeraSans-Roman-31"/>
       <use x="63.623046875" xlink:href="#BitstreamVeraSans-Roman-2e"/>
       <use x="95.41015625" xlink:href="#BitstreamVeraSans-Roman-30"/>
      </g>
     </g>
    </g>
    <g id="xtick_4">
     <g id="line2d_10">
      <path clip-path="url(#pafcdab3ac4)" d="M 268.744309 263.2975 
L 268.744309 26.318281 
" style="fill:none;stroke:#000000;stroke-dasharray:1.000000,3.000000;stroke-dashoffset:0.0;stroke-width:0.5;"/>
     </g>
     <g id="line2d_11">
      <g>
       <use style="stroke:#000000;stroke-width:0.5;" x="268.744309365" xlink:href="#m7a6c55c1bc" y="263.2975"/>
      </g>
     </g>
     <g id="line2d_12">
      <g>
       <use style="stroke:#000000;stroke-width:0.5;" x="268.744309365" xlink:href="#mb230b6fbf2" y="26.31828125"/>
      </g>
     </g>
     <g id="text_4">
      <!-- 1.5 -->
      <g transform="translate(262.383059365 273.37625)scale(0.08 -0.08)">
       <use xlink:href="#BitstreamVeraSans-Roman-31"/>
       <use x="63.623046875" xlink:href="#BitstreamVeraSans-Roman-2e"/>
       <use x="95.41015625" xlink:href="#BitstreamVeraSans-Roman-35"/>
      </g>
     </g>
    </g>
    <g id="xtick_5">
     <g id="line2d_13">
      <path clip-path="url(#pafcdab3ac4)" d="M 334.668162 263.2975 
L 334.668162 26.318281 
" style="fill:none;stroke:#000000;stroke-dasharray:1.000000,3.000000;stroke-dashoffset:0.0;stroke-width:0.5;"/>
     </g>
     <g id="line2d_14">
      <g>
       <use style="stroke:#000000;stroke-width:0.5;" x="334.668162182" xlink:href="#m7a6c55c1bc" y="263.2975"/>
      </g>
     </g>
     <g id="line2d_15">
      <g>
       <use style="stroke:#000000;stroke-width:0.5;" x="334.668162182" xlink:href="#mb230b6fbf2" y="26.31828125"/>
      </g>
     </g>
     <g id="text_5">
      <!-- 2.0 -->
      <defs>
       <path d="M 19.1875 8.296875 
L 53.609375 8.296875 
L 53.609375 0 
L 7.328125 0 
L 7.328125 8.296875 
Q 12.9375 14.109375 22.625 23.890625 
Q 32.328125 33.6875 34.8125 36.53125 
Q 39.546875 41.84375 41.421875 45.53125 
Q 43.3125 49.21875 43.3125 52.78125 
Q 43.3125 58.59375 39.234375 62.25 
Q 35.15625 65.921875 28.609375 65.921875 
Q 23.96875 65.921875 18.8125 64.3125 
Q 13.671875 62.703125 7.8125 59.421875 
L 7.8125 69.390625 
Q 13.765625 71.78125 18.9375 73 
Q 24.125 74.21875 28.421875 74.21875 
Q 39.75 74.21875 46.484375 68.546875 
Q 53.21875 62.890625 53.21875 53.421875 
Q 53.21875 48.921875 51.53125 44.890625 
Q 49.859375 40.875 45.40625 35.40625 
Q 44.1875 33.984375 37.640625 27.21875 
Q 31.109375 20.453125 19.1875 8.296875 
" id="BitstreamVeraSans-Roman-32"/>
      </defs>
      <g transform="translate(328.306912182 273.37625)scale(0.08 -0.08)">
       <use xlink:href="#BitstreamVeraSans-Roman-32"/>
       <use x="63.623046875" xlink:href="#BitstreamVeraSans-Roman-2e"/>
       <use x="95.41015625" xlink:href="#BitstreamVeraSans-Roman-30"/>
      </g>
     </g>
    </g>
    <g id="xtick_6">
     <g id="line2d_16">
      <path clip-path="url(#pafcdab3ac4)" d="M 400.592015 263.2975 
L 400.592015 26.318281 
" style="fill:none;stroke:#000000;stroke-dasharray:1.000000,3.000000;stroke-dashoffset:0.0;stroke-width:0.5;"/>
     </g>
     <g id="line2d_17">
      <g>
       <use style="stroke:#000000;stroke-width:0.5;" x="400.592014999" xlink:href="#m7a6c55c1bc" y="263.2975"/>
      </g>
     </g>
     <g id="line2d_18">
      <g>
       <use style="stroke:#000000;stroke-width:0.5;" x="400.592014999" xlink:href="#mb230b6fbf2" y="26.31828125"/>
      </g>
     </g>
     <g id="text_6">
      <!-- 2.5 -->
      <g transform="translate(394.230764999 273.37625)scale(0.08 -0.08)">
       <use xlink:href="#BitstreamVeraSans-Roman-32"/>
       <use x="63.623046875" xlink:href="#BitstreamVeraSans-Roman-2e"/>
       <use x="95.41015625" xlink:href="#BitstreamVeraSans-Roman-35"/>
      </g>
     </g>
    </g>
   </g>
   <g id="matplotlib.axis_2">
    <g id="ytick_1">
     <g id="line2d_19">
      <path clip-path="url(#pafcdab3ac4)" d="M 42.785938 255.633399 
L 419.04 255.633399 
" style="fill:none;stroke:#000000;stroke-dasharray:1.000000,3.000000;stroke-dashoffset:0.0;stroke-width:0.5;"/>
     </g>
     <g id="line2d_20">
      <defs>
       <path d="M 0 0 
L 4 0 
" id="m3c7dabbec7" style="stroke:#000000;stroke-width:0.5;"/>
      </defs>
      <g>
       <use style="stroke:#000000;stroke-width:0.5;" x="42.7859375" xlink:href="#m3c7dabbec7" y="255.633398682"/>
      </g>
     </g>
     <g id="line2d_21">
      <defs>
       <path d="M 0 0 
L -4 0 
" id="m54f9f82b68" style="stroke:#000000;stroke-width:0.5;"/>
      </defs>
      <g>
       <use style="stroke:#000000;stroke-width:0.5;" x="419.04" xlink:href="#m54f9f82b68" y="255.633398682"/>
      </g>
     </g>
     <g id="text_7">
      <!-- 0 -->
      <g transform="translate(33.6959375 257.840898682)scale(0.08 -0.08)">
       <use xlink:href="#BitstreamVeraSans-Roman-30"/>
      </g>
     </g>
    </g>
    <g id="ytick_2">
     <g id="line2d_22">
      <path clip-path="url(#pafcdab3ac4)" d="M 42.785938 198.304619 
L 419.04 198.304619 
" style="fill:none;stroke:#000000;stroke-dasharray:1.000000,3.000000;stroke-dashoffset:0.0;stroke-width:0.5;"/>
     </g>
     <g id="line2d_23">
      <g>
       <use style="stroke:#000000;stroke-width:0.5;" x="42.7859375" xlink:href="#m3c7dabbec7" y="198.304619324"/>
      </g>
     </g>
     <g id="line2d_24">
      <g>
       <use style="stroke:#000000;stroke-width:0.5;" x="419.04" xlink:href="#m54f9f82b68" y="198.304619324"/>
      </g>
     </g>
     <g id="text_8">
      <!-- 5 -->
      <g transform="translate(33.6959375 200.512119324)scale(0.08 -0.08)">
       <use xlink:href="#BitstreamVeraSans-Roman-35"/>
      </g>
     </g>
    </g>
    <g id="ytick_3">
     <g id="line2d_25">
      <path clip-path="url(#pafcdab3ac4)" d="M 42.785938 140.97584 
L 419.04 140.97584 
" style="fill:none;stroke:#000000;stroke-dasharray:1.000000,3.000000;stroke-dashoffset:0.0;stroke-width:0.5;"/>
     </g>
     <g id="line2d_26">
      <g>
       <use style="stroke:#000000;stroke-width:0.5;" x="42.7859375" xlink:href="#m3c7dabbec7" y="140.975839966"/>
      </g>
     </g>
     <g id="line2d_27">
      <g>
       <use style="stroke:#000000;stroke-width:0.5;" x="419.04" xlink:href="#m54f9f82b68" y="140.975839966"/>
      </g>
     </g>
     <g id="text_9">
      <!-- 10 -->
      <g transform="translate(28.6059375 143.183339966)scale(0.08 -0.08)">
       <use xlink:href="#BitstreamVeraSans-Roman-31"/>
       <use x="63.623046875" xlink:href="#BitstreamVeraSans-Roman-30"/>
      </g>
     </g>
    </g>
    <g id="ytick_4">
     <g id="line2d_28">
      <path clip-path="url(#pafcdab3ac4)" d="M 42.785938 83.647061 
L 419.04 83.647061 
" style="fill:none;stroke:#000000;stroke-dasharray:1.000000,3.000000;stroke-dashoffset:0.0;stroke-width:0.5;"/>
     </g>
     <g id="line2d_29">
      <g>
       <use style="stroke:#000000;stroke-width:0.5;" x="42.7859375" xlink:href="#m3c7dabbec7" y="83.6470606081"/>
      </g>
     </g>
     <g id="line2d_30">
      <g>
       <use style="stroke:#000000;stroke-width:0.5;" x="419.04" xlink:href="#m54f9f82b68" y="83.6470606081"/>
      </g>
     </g>
     <g id="text_10">
      <!-- 15 -->
      <g transform="translate(28.6059375 85.8545606081)scale(0.08 -0.08)">
       <use xlink:href="#BitstreamVeraSans-Roman-31"/>
       <use x="63.623046875" xlink:href="#BitstreamVeraSans-Roman-35"/>
      </g>
     </g>
    </g>
    <g id="ytick_5">
     <g id="line2d_31">
      <path clip-path="url(#pafcdab3ac4)" d="M 42.785938 26.318281 
L 419.04 26.318281 
" style="fill:none;stroke:#000000;stroke-dasharray:1.000000,3.000000;stroke-dashoffset:0.0;stroke-width:0.5;"/>
     </g>
     <g id="line2d_32">
      <g>
       <use style="stroke:#000000;stroke-width:0.5;" x="42.7859375" xlink:href="#m3c7dabbec7" y="26.31828125"/>
      </g>
     </g>
     <g id="line2d_33">
      <g>
       <use style="stroke:#000000;stroke-width:0.5;" x="419.04" xlink:href="#m54f9f82b68" y="26.31828125"/>
      </g>
     </g>
     <g id="text_11">
      <!-- 20 -->
      <g transform="translate(28.6059375 28.52578125)scale(0.08 -0.08)">
       <use xlink:href="#BitstreamVeraSans-Roman-32"/>
       <use x="63.623046875" xlink:href="#BitstreamVeraSans-Roman-30"/>
      </g>
     </g>
    </g>
    <g id="text_12">
     <!-- To: y(1) -->
     <defs>
      <path id="BitstreamVeraSans-Roman-20"/>
      <path d="M 8.015625 75.875 
L 15.828125 75.875 
Q 23.140625 64.359375 26.78125 53.3125 
Q 30.421875 42.28125 30.421875 31.390625 
Q 30.421875 20.453125 26.78125 9.375 
Q 23.140625 -1.703125 15.828125 -13.1875 
L 8.015625 -13.1875 
Q 14.5 -2 17.703125 9.0625 
Q 20.90625 20.125 20.90625 31.390625 
Q 20.90625 42.671875 17.703125 53.65625 
Q 14.5 64.65625 8.015625 75.875 
" id="BitstreamVeraSans-Roman-29"/>
      <path d="M 31 75.875 
Q 24.46875 64.65625 21.28125 53.65625 
Q 18.109375 42.671875 18.109375 31.390625 
Q 18.109375 20.125 21.3125 9.0625 
Q 24.515625 -2 31 -13.1875 
L 23.1875 -13.1875 
Q 15.875 -1.703125 12.234375 9.375 
Q 8.59375 20.453125 8.59375 31.390625 
Q 8.59375 42.28125 12.203125 53.3125 
Q 15.828125 64.359375 23.1875 75.875 
z
" id="BitstreamVeraSans-Roman-28"/>
      <path d="M 30.609375 48.390625 
Q 23.390625 48.390625 19.1875 42.75 
Q 14.984375 37.109375 14.984375 27.296875 
Q 14.984375 17.484375 19.15625 11.84375 
Q 23.34375 6.203125 30.609375 6.203125 
Q 37.796875 6.203125 41.984375 11.859375 
Q 46.1875 17.53125 46.1875 27.296875 
Q 46.1875 37.015625 41.984375 42.703125 
Q 37.796875 48.390625 30.609375 48.390625 
M 30.609375 56 
Q 42.328125 56 49.015625 48.375 
Q 55.71875 40.765625 55.71875 27.296875 
Q 55.71875 13.875 49.015625 6.21875 
Q 42.328125 -1.421875 30.609375 -1.421875 
Q 18.84375 -1.421875 12.171875 6.21875 
Q 5.515625 13.875 5.515625 27.296875 
Q 5.515625 40.765625 12.171875 48.375 
Q 18.84375 56 30.609375 56 
" id="BitstreamVeraSans-Roman-6f"/>
      <path d="M 11.71875 12.40625 
L 22.015625 12.40625 
L 22.015625 0 
L 11.71875 0 
z
M 11.71875 51.703125 
L 22.015625 51.703125 
L 22.015625 39.3125 
L 11.71875 39.3125 
z
" id="BitstreamVeraSans-Roman-3a"/>
      <path d="M -0.296875 72.90625 
L 61.375 72.90625 
L 61.375 64.59375 
L 35.5 64.59375 
L 35.5 0 
L 25.59375 0 
L 25.59375 64.59375 
L -0.296875 64.59375 
z
" id="BitstreamVeraSans-Roman-54"/>
      <path d="M 32.171875 -5.078125 
Q 28.375 -14.84375 24.75 -17.8125 
Q 21.140625 -20.796875 15.09375 -20.796875 
L 7.90625 -20.796875 
L 7.90625 -13.28125 
L 13.1875 -13.28125 
Q 16.890625 -13.28125 18.9375 -11.515625 
Q 21 -9.765625 23.484375 -3.21875 
L 25.09375 0.875 
L 2.984375 54.6875 
L 12.5 54.6875 
L 29.59375 11.921875 
L 46.6875 54.6875 
L 56.203125 54.6875 
z
" id="BitstreamVeraSans-Roman-79"/>
     </defs>
     <g transform="translate(21.31828125 166.165078125)rotate(-90.0)scale(0.11 -0.11)">
      <use xlink:href="#BitstreamVeraSans-Roman-54"/>
      <use x="60.818359375" xlink:href="#BitstreamVeraSans-Roman-6f"/>
      <use x="122.0" xlink:href="#BitstreamVeraSans-Roman-3a"/>
      <use x="155.69140625" xlink:href="#BitstreamVeraSans-Roman-20"/>
      <use x="187.478515625" xlink:href="#BitstreamVeraSans-Roman-79"/>
      <use x="246.658203125" xlink:href="#BitstreamVeraSans-Roman-28"/>
      <use x="285.671875" xlink:href="#BitstreamVeraSans-Roman-31"/>
      <use x="349.294921875" xlink:href="#BitstreamVeraSans-Roman-29"/>
     </g>
    </g>
   </g>
   <g id="line2d_34">
    <path clip-path="url(#pafcdab3ac4)" d="M 202.688655 256.0918 
L 202.293258 256.5493 
L 201.493909 257.083382 
L 200.17534 257.674186 
L 197.949451 258.387341 
L 194.543208 259.192286 
L 189.847266 260.034654 
L 184.060013 260.844476 
L 175.895839 261.735408 
L 167.146946 262.478801 
L 155.992077 263.206931 
L 142.099554 263.857496 
L 129.793719 264.242826 
L 115.95058 264.490112 
L 100.834217 264.549032 
L 84.942707 264.370293 
L 69.038111 263.914613 
L 58.917018 263.447049 
L 49.575481 262.850704 
L 41.362995 262.136505 
L 34.606938 261.324208 
L 29.577508 260.442119 
L 27.770342 259.985744 
L 26.452613 259.525597 
L 25.627381 259.06675 
L 25.288985 258.614312 
L 25.422936 258.173299 
L 26.006126 257.748493 
L 27.007358 257.344314 
L 28.388191 256.964692 
L 32.105627 256.291806 
L 36.753915 255.748125 
L 41.902593 255.33999 
L 49.691511 254.968097 
L 58.64953 254.829296 
L 66.091598 254.977368 
L 70.138963 255.260648 
L 71.341866 255.523193 
L 71.261093 255.591195 
L 70.972752 255.633399 
L 70.972752 255.633399 
" style="fill:none;stroke:#cc1414;stroke-linecap:square;"/>
   </g>
   <g id="line2d_35">
    <path clip-path="url(#pafcdab3ac4)" d="M 418.339314 -1 
L 417.92634 42.919193 
L 417.442963 73.977485 
L 416.786069 100.709169 
L 416.143114 118.304338 
L 415.334526 134.059913 
L 414.318166 148.185887 
L 413.499711 156.79147 
L 412.547199 164.807371 
L 411.43913 172.280658 
L 410.150712 179.255033 
L 408.653429 185.771051 
L 406.914553 191.866321 
L 404.896629 197.575672 
L 403.769897 200.295787 
L 402.556945 202.931296 
L 401.251523 205.485829 
L 399.846986 207.962861 
L 398.336276 210.365722 
L 396.711913 212.697586 
L 394.965977 214.961482 
L 393.090102 217.160287 
L 391.075464 219.296729 
L 388.912782 221.373386 
L 386.592315 223.392681 
L 384.103866 225.356883 
L 381.436799 227.2681 
L 378.580049 229.128279 
L 375.522156 230.9392 
L 372.2513 232.702469 
L 368.755348 234.419517 
L 365.021918 236.091587 
L 361.038454 237.719735 
L 356.792318 239.304818 
L 352.270904 240.847487 
L 347.461772 242.348184 
L 342.352797 243.807129 
L 336.932359 245.224322 
L 331.189538 246.599527 
L 325.114355 247.932276 
L 318.698032 249.221864 
L 304.814629 251.66754 
L 289.504868 253.926198 
L 272.77489 255.98396 
L 254.684063 257.823967 
L 235.357923 259.427286 
L 214.999996 260.774277 
L 193.90048 261.846458 
L 172.439234 262.628821 
L 151.080291 263.112495 
L 130.355312 263.2975 
L 110.834459 263.195201 
L 93.084976 262.829993 
L 77.620513 262.239695 
L 64.847214 261.474263 
L 55.015148 260.59263 
L 48.184676 259.657906 
L 45.858889 259.190072 
L 44.215974 258.731554 
L 43.209958 258.288809 
L 42.785938 257.867502 
L 42.881918 257.472392 
L 43.430869 257.107262 
L 44.362876 256.774874 
L 47.094755 256.21435 
L 50.538678 255.793583 
L 56.048199 255.400326 
L 62.452667 255.211416 
L 68.316531 255.287235 
L 71.032673 255.523118 
L 71.156946 255.589036 
L 71.007471 255.631121 
L 70.972752 255.633399 
L 70.972752 255.633399 
" style="fill:none;stroke:#14cc2b;stroke-linecap:square;"/>
   </g>
   <g id="patch_3">
    <path d="M 42.785938 26.318281 
L 419.04 26.318281 
" style="fill:none;stroke:#000000;stroke-linecap:square;stroke-linejoin:miter;"/>
   </g>
   <g id="patch_4">
    <path d="M 419.04 263.2975 
L 419.04 26.318281 
" style="fill:none;stroke:#000000;stroke-linecap:square;stroke-linejoin:miter;"/>
   </g>
   <g id="patch_5">
    <path d="M 42.785938 263.2975 
L 419.04 263.2975 
" style="fill:none;stroke:#000000;stroke-linecap:square;stroke-linejoin:miter;"/>
   </g>
   <g id="patch_6">
    <path d="M 42.785938 263.2975 
L 42.785938 26.318281 
" style="fill:none;stroke:#000000;stroke-linecap:square;stroke-linejoin:miter;"/>
   </g>
   <g id="line2d_36">
    <path clip-path="url(#pafcdab3ac4)" d="M 202.820457 255.633399 
L 202.555004 254.906196 
L 201.759717 254.181921 
L 200.437797 253.46349 
L 198.594566 252.753797 
L 196.237448 252.055699 
L 193.375933 251.372008 
L 190.021543 250.705475 
L 186.187786 250.058786 
L 181.890099 249.434543 
L 177.145787 248.835261 
L 171.973953 248.263353 
L 166.395423 247.721121 
L 160.43266 247.210749 
L 154.109673 246.734293 
L 147.451924 246.29367 
L 140.486219 245.890654 
L 133.240609 245.52687 
L 125.744267 245.20378 
L 118.02738 244.922687 
L 110.121021 244.684723 
L 102.057026 244.490844 
L 93.867865 244.341833 
L 85.586513 244.238289 
L 77.246317 244.18063 
L 68.88086 244.169086 
L 60.523826 244.203705 
L 52.208866 244.284348 
L 43.969462 244.410689 
L 35.83879 244.58222 
L 27.84959 244.79825 
L 20.034033 245.05791 
L 12.423587 245.360153 
L 5.048898 245.703763 
L -1 246.030143 
M -1 265.236654 
L 5.048898 265.563035 
L 12.423587 265.906645 
L 20.034033 266.208888 
L 27.84959 266.468547 
L 35.83879 266.684578 
L 43.969462 266.856109 
L 52.208866 266.98245 
L 60.523826 267.063092 
L 68.88086 267.097711 
L 77.246317 267.086168 
L 85.586513 267.028508 
L 93.867865 266.924964 
L 102.057026 266.775953 
L 110.121021 266.582075 
L 118.02738 266.34411 
L 125.744267 266.063017 
L 133.240609 265.739928 
L 140.486219 265.376143 
L 147.451924 264.973128 
L 154.109673 264.532505 
L 160.43266 264.056048 
L 166.395423 263.545676 
L 171.973953 263.003444 
L 177.145787 262.431536 
L 181.890099 261.832254 
L 186.187786 261.208012 
L 190.021543 260.561322 
L 193.375933 259.89479 
L 196.237448 259.211098 
L 198.594566 258.513 
L 200.437797 257.803307 
L 201.759717 257.084877 
L 202.555004 256.360602 
L 202.820457 255.633399 
" style="fill:none;stroke:#000000;stroke-dasharray:6.000000,6.000000;stroke-dashoffset:0.0;"/>
   </g>
   <g id="text_13">
    <!-- Nyquist plot from: u(1) -->
    <defs>
     <path d="M 9.8125 72.90625 
L 23.09375 72.90625 
L 55.421875 11.921875 
L 55.421875 72.90625 
L 64.984375 72.90625 
L 64.984375 0 
L 51.703125 0 
L 19.390625 60.984375 
L 19.390625 0 
L 9.8125 0 
z
" id="BitstreamVeraSans-Roman-4e"/>
     <path d="M 37.109375 75.984375 
L 37.109375 68.5 
L 28.515625 68.5 
Q 23.6875 68.5 21.796875 66.546875 
Q 19.921875 64.59375 19.921875 59.515625 
L 19.921875 54.6875 
L 34.71875 54.6875 
L 34.71875 47.703125 
L 19.921875 47.703125 
L 19.921875 0 
L 10.890625 0 
L 10.890625 47.703125 
L 2.296875 47.703125 
L 2.296875 54.6875 
L 10.890625 54.6875 
L 10.890625 58.5 
Q 10.890625 67.625 15.140625 71.796875 
Q 19.390625 75.984375 28.609375 75.984375 
z
" id="BitstreamVeraSans-Roman-66"/>
     <path d="M 52 44.1875 
Q 55.375 50.25 60.0625 53.125 
Q 64.75 56 71.09375 56 
Q 79.640625 56 84.28125 50.015625 
Q 88.921875 44.046875 88.921875 33.015625 
L 88.921875 0 
L 79.890625 0 
L 79.890625 32.71875 
Q 79.890625 40.578125 77.09375 44.375 
Q 74.3125 48.1875 68.609375 48.1875 
Q 61.625 48.1875 57.5625 43.546875 
Q 53.515625 38.921875 53.515625 30.90625 
L 53.515625 0 
L 44.484375 0 
L 44.484375 32.71875 
Q 44.484375 40.625 41.703125 44.40625 
Q 38.921875 48.1875 33.109375 48.1875 
Q 26.21875 48.1875 22.15625 43.53125 
Q 18.109375 38.875 18.109375 30.90625 
L 18.109375 0 
L 9.078125 0 
L 9.078125 54.6875 
L 18.109375 54.6875 
L 18.109375 46.1875 
Q 21.1875 51.21875 25.484375 53.609375 
Q 29.78125 56 35.6875 56 
Q 41.65625 56 45.828125 52.96875 
Q 50 49.953125 52 44.1875 
" id="BitstreamVeraSans-Roman-6d"/>
     <path d="M 9.421875 75.984375 
L 18.40625 75.984375 
L 18.40625 0 
L 9.421875 0 
z
" id="BitstreamVeraSans-Roman-6c"/>
     <path d="M 9.421875 54.6875 
L 18.40625 54.6875 
L 18.40625 0 
L 9.421875 0 
z
M 9.421875 75.984375 
L 18.40625 75.984375 
L 18.40625 64.59375 
L 9.421875 64.59375 
z
" id="BitstreamVeraSans-Roman-69"/>
     <path d="M 18.3125 70.21875 
L 18.3125 54.6875 
L 36.8125 54.6875 
L 36.8125 47.703125 
L 18.3125 47.703125 
L 18.3125 18.015625 
Q 18.3125 11.328125 20.140625 9.421875 
Q 21.96875 7.515625 27.59375 7.515625 
L 36.8125 7.515625 
L 36.8125 0 
L 27.59375 0 
Q 17.1875 0 13.234375 3.875 
Q 9.28125 7.765625 9.28125 18.015625 
L 9.28125 47.703125 
L 2.6875 47.703125 
L 2.6875 54.6875 
L 9.28125 54.6875 
L 9.28125 70.21875 
z
" id="BitstreamVeraSans-Roman-74"/>
     <path d="M 8.5 21.578125 
L 8.5 54.6875 
L 17.484375 54.6875 
L 17.484375 21.921875 
Q 17.484375 14.15625 20.5 10.265625 
Q 23.53125 6.390625 29.59375 6.390625 
Q 36.859375 6.390625 41.078125 11.03125 
Q 45.3125 15.671875 45.3125 23.6875 
L 45.3125 54.6875 
L 54.296875 54.6875 
L 54.296875 0 
L 45.3125 0 
L 45.3125 8.40625 
Q 42.046875 3.421875 37.71875 1 
Q 33.40625 -1.421875 27.6875 -1.421875 
Q 18.265625 -1.421875 13.375 4.4375 
Q 8.5 10.296875 8.5 21.578125 
" id="BitstreamVeraSans-Roman-75"/>
     <path d="M 41.109375 46.296875 
Q 39.59375 47.171875 37.8125 47.578125 
Q 36.03125 48 33.890625 48 
Q 26.265625 48 22.1875 43.046875 
Q 18.109375 38.09375 18.109375 28.8125 
L 18.109375 0 
L 9.078125 0 
L 9.078125 54.6875 
L 18.109375 54.6875 
L 18.109375 46.1875 
Q 20.953125 51.171875 25.484375 53.578125 
Q 30.03125 56 36.53125 56 
Q 37.453125 56 38.578125 55.875 
Q 39.703125 55.765625 41.0625 55.515625 
z
" id="BitstreamVeraSans-Roman-72"/>
     <path d="M 44.28125 53.078125 
L 44.28125 44.578125 
Q 40.484375 46.53125 36.375 47.5 
Q 32.28125 48.484375 27.875 48.484375 
Q 21.1875 48.484375 17.84375 46.4375 
Q 14.5 44.390625 14.5 40.28125 
Q 14.5 37.15625 16.890625 35.375 
Q 19.28125 33.59375 26.515625 31.984375 
L 29.59375 31.296875 
Q 39.15625 29.25 43.1875 25.515625 
Q 47.21875 21.78125 47.21875 15.09375 
Q 47.21875 7.46875 41.1875 3.015625 
Q 35.15625 -1.421875 24.609375 -1.421875 
Q 20.21875 -1.421875 15.453125 -0.5625 
Q 10.6875 0.296875 5.421875 2 
L 5.421875 11.28125 
Q 10.40625 8.6875 15.234375 7.390625 
Q 20.0625 6.109375 24.8125 6.109375 
Q 31.15625 6.109375 34.5625 8.28125 
Q 37.984375 10.453125 37.984375 14.40625 
Q 37.984375 18.0625 35.515625 20.015625 
Q 33.0625 21.96875 24.703125 23.78125 
L 21.578125 24.515625 
Q 13.234375 26.265625 9.515625 29.90625 
Q 5.8125 33.546875 5.8125 39.890625 
Q 5.8125 47.609375 11.28125 51.796875 
Q 16.75 56 26.8125 56 
Q 31.78125 56 36.171875 55.265625 
Q 40.578125 54.546875 44.28125 53.078125 
" id="BitstreamVeraSans-Roman-73"/>
     <path d="M 18.109375 8.203125 
L 18.109375 -20.796875 
L 9.078125 -20.796875 
L 9.078125 54.6875 
L 18.109375 54.6875 
L 18.109375 46.390625 
Q 20.953125 51.265625 25.265625 53.625 
Q 29.59375 56 35.59375 56 
Q 45.5625 56 51.78125 48.09375 
Q 58.015625 40.1875 58.015625 27.296875 
Q 58.015625 14.40625 51.78125 6.484375 
Q 45.5625 -1.421875 35.59375 -1.421875 
Q 29.59375 -1.421875 25.265625 0.953125 
Q 20.953125 3.328125 18.109375 8.203125 
M 48.6875 27.296875 
Q 48.6875 37.203125 44.609375 42.84375 
Q 40.53125 48.484375 33.40625 48.484375 
Q 26.265625 48.484375 22.1875 42.84375 
Q 18.109375 37.203125 18.109375 27.296875 
Q 18.109375 17.390625 22.1875 11.75 
Q 26.265625 6.109375 33.40625 6.109375 
Q 40.53125 6.109375 44.609375 11.75 
Q 48.6875 17.390625 48.6875 27.296875 
" id="BitstreamVeraSans-Roman-70"/>
     <path d="M 14.796875 27.296875 
Q 14.796875 17.390625 18.875 11.75 
Q 22.953125 6.109375 30.078125 6.109375 
Q 37.203125 6.109375 41.296875 11.75 
Q 45.40625 17.390625 45.40625 27.296875 
Q 45.40625 37.203125 41.296875 42.84375 
Q 37.203125 48.484375 30.078125 48.484375 
Q 22.953125 48.484375 18.875 42.84375 
Q 14.796875 37.203125 14.796875 27.296875 
M 45.40625 8.203125 
Q 42.578125 3.328125 38.25 0.953125 
Q 33.9375 -1.421875 27.875 -1.421875 
Q 17.96875 -1.421875 11.734375 6.484375 
Q 5.515625 14.40625 5.515625 27.296875 
Q 5.515625 40.1875 11.734375 48.09375 
Q 17.96875 56 27.875 56 
Q 33.9375 56 38.25 53.625 
Q 42.578125 51.265625 45.40625 46.390625 
L 45.40625 54.6875 
L 54.390625 54.6875 
L 54.390625 -20.796875 
L 45.40625 -20.796875 
z
" id="BitstreamVeraSans-Roman-71"/>
    </defs>
    <g transform="translate(168.18375 21.31828125)scale(0.11 -0.11)">
     <use xlink:href="#BitstreamVeraSans-Roman-4e"/>
     <use x="74.8046875" xlink:href="#BitstreamVeraSans-Roman-79"/>
     <use x="133.984375" xlink:href="#BitstreamVeraSans-Roman-71"/>
     <use x="197.4609375" xlink:href="#BitstreamVeraSans-Roman-75"/>
     <use x="260.83984375" xlink:href="#BitstreamVeraSans-Roman-69"/>
     <use x="288.623046875" xlink:href="#BitstreamVeraSans-Roman-73"/>
     <use x="340.72265625" xlink:href="#BitstreamVeraSans-Roman-74"/>
     <use x="379.931640625" xlink:href="#BitstreamVeraSans-Roman-20"/>
     <use x="411.71875" xlink:href="#BitstreamVeraSans-Roman-70"/>
     <use x="475.1953125" xlink:href="#BitstreamVeraSans-Roman-6c"/>
     <use x="502.978515625" xlink:href="#BitstreamVeraSans-Roman-6f"/>
     <use x="564.16015625" xlink:href="#BitstreamVeraSans-Roman-74"/>
     <use x="603.369140625" xlink:href="#BitstreamVeraSans-Roman-20"/>
     <use x="635.15625" xlink:href="#BitstreamVeraSans-Roman-66"/>
     <use x="670.361328125" xlink:href="#BitstreamVeraSans-Roman-72"/>
     <use x="711.443359375" xlink:href="#BitstreamVeraSans-Roman-6f"/>
     <use x="772.625" xlink:href="#BitstreamVeraSans-Roman-6d"/>
     <use x="870.037109375" xlink:href="#BitstreamVeraSans-Roman-3a"/>
     <use x="903.728515625" xlink:href="#BitstreamVeraSans-Roman-20"/>
     <use x="935.515625" xlink:href="#BitstreamVeraSans-Roman-75"/>
     <use x="998.89453125" xlink:href="#BitstreamVeraSans-Roman-28"/>
     <use x="1037.90820312" xlink:href="#BitstreamVeraSans-Roman-31"/>
     <use x="1101.53125" xlink:href="#BitstreamVeraSans-Roman-29"/>
    </g>
   </g>
   <g id="line2d_37">
    <path clip-path="url(#pafcdab3ac4)" d="M 70.972751 255.633399 
L 70.707299 254.906196 
L 69.912011 254.181921 
L 68.590091 253.46349 
L 66.746861 252.753797 
L 64.389742 252.055699 
L 61.528227 251.372008 
L 58.173838 250.705475 
L 54.340081 250.058786 
L 50.042393 249.434543 
L 45.298081 248.835261 
L 40.126248 248.263353 
L 34.547718 247.721121 
L 28.584954 247.210749 
L 22.261968 246.734293 
L 15.604218 246.29367 
L 8.638514 245.890654 
L 1.392903 245.52687 
L -1 245.423736 
M -1 265.843061 
L 1.392903 265.739928 
L 8.638514 265.376143 
L 15.604218 264.973128 
L 22.261968 264.532505 
L 28.584954 264.056048 
L 34.547718 263.545676 
L 40.126248 263.003444 
L 45.298081 262.431536 
L 50.042393 261.832254 
L 54.340081 261.208012 
L 58.173838 260.561322 
L 61.528227 259.89479 
L 64.389742 259.211098 
L 66.746861 258.513 
L 68.590091 257.803307 
L 69.912011 257.084877 
L 70.707299 256.360602 
L 70.972751 255.633399 
" style="fill:none;stroke:#ff0000;stroke-dasharray:6.000000,6.000000;stroke-dashoffset:0.0;"/>
   </g>
   <g id="legend_1">
    <g id="patch_7">
     <path d="M 46.785938 56.203281 
L 85.410938 56.203281 
L 85.410938 30.318281 
L 46.785938 30.318281 
z
" style="fill:#ffffff;stroke:#000000;stroke-linejoin:miter;"/>
    </g>
    <g id="line2d_38">
     <path d="M 52.385938 36.797031 
L 63.585938 36.797031 
" style="fill:none;stroke:#cc1414;stroke-linecap:square;"/>
    </g>
    <g id="line2d_39"/>
    <g id="text_14">
     <!-- y1 -->
     <g transform="translate(72.3859375 39.59703125)scale(0.08 -0.08)">
      <use xlink:href="#BitstreamVeraSans-Roman-79"/>
      <use x="59.1796875" xlink:href="#BitstreamVeraSans-Roman-31"/>
     </g>
    </g>
    <g id="line2d_40">
     <path d="M 52.385938 48.539531 
L 63.585938 48.539531 
" style="fill:none;stroke:#14cc2b;stroke-linecap:square;"/>
    </g>
    <g id="line2d_41"/>
    <g id="text_15">
     <!-- y2 -->
     <g transform="translate(72.3859375 51.33953125)scale(0.08 -0.08)">
      <use xlink:href="#BitstreamVeraSans-Roman-79"/>
      <use x="59.1796875" xlink:href="#BitstreamVeraSans-Roman-32"/>
     </g>
    </g>
   </g>
  </g>
 </g>
 <defs>
  <clipPath id="pafcdab3ac4">
   <rect height="236.97921875" width="376.2540625" x="42.7859375" y="26.31828125"/>
  </clipPath>
 </defs>
</svg>
